<svg xmlns="http://www.w3.org/2000/svg" width="82" height="82" viewBox="0 0 82 82">
  <g id="Grupo_55573" data-name="Grupo 55573" transform="translate(-293 -2247)">
    <g id="Grupo_55569" data-name="Grupo 55569" transform="translate(309.427 2247.551)">
      <path id="Trazado_125475" data-name="Trazado 125475" d="M360.39,3000.831v17.637a9.449,9.449,0,1,1-18.9,0v-17.637h-9.449v17.637a18.9,18.9,0,1,0,37.795,0v-17.637Zm0,0" transform="translate(-327.32 -2958.312)" fill="#fff"/>
      <path id="Trazado_125476" data-name="Trazado 125476" d="M408.993,2810.555a4.724,4.724,0,1,1-4.724-4.724,4.724,4.724,0,0,1,4.724,4.724Zm0,0" transform="translate(-380.647 -2804.256)" fill="#fff"/>
      <path id="Trazado_125477" data-name="Trazado 125477" d="M386.493,2865.831a9.449,9.449,0,0,0-9.449,9.449h18.9a9.449,9.449,0,0,0-9.449-9.449Zm0,0" transform="translate(-362.871 -2851.658)" fill="#ccf"/>
      <path id="Trazado_125478" data-name="Trazado 125478" d="M332.044,2965.28v-9.449h9.449v9.449" transform="translate(-327.319 -2922.76)" fill="#ccf"/>
      <path id="Trazado_125479" data-name="Trazado 125479" d="M467.044,2965.28v-9.449h9.449v9.449" transform="translate(-433.973 -2922.76)" fill="#ccf"/>
      <path id="Trazado_125480" data-name="Trazado 125480" d="M324.544,2949.906v27.086a20.472,20.472,0,0,0,40.944,0v-27.086a1.575,1.575,0,0,0-1.575-1.575h-9.449a1.575,1.575,0,0,0-1.575,1.575v27.086a7.874,7.874,0,0,1-15.748,0v-27.086a1.575,1.575,0,0,0-1.575-1.575h-9.449a1.575,1.575,0,0,0-1.575,1.575Zm37.795,1.574v6.3h-6.3v-6.3Zm-17.323,36.535a11.036,11.036,0,0,0,11.023-11.023v-16.063h6.3v16.063a17.323,17.323,0,0,1-34.645,0v-16.063h6.3v16.063a11.036,11.036,0,0,0,11.023,11.023Zm-11.023-36.535v6.3h-6.3v-6.3Zm0,0" transform="translate(-321.395 -2916.835)" fill="#5e5385"/>
      <path id="Trazado_125481" data-name="Trazado 125481" d="M404.642,2804.63a6.3,6.3,0,1,0-6.3,6.3,6.306,6.306,0,0,0,6.3-6.3Zm-6.3,3.149a3.149,3.149,0,1,1,3.15-3.149,3.153,3.153,0,0,1-3.15,3.149Zm0,0" transform="translate(-374.721 -2798.331)" fill="#5e5385"/>
      <path id="Trazado_125482" data-name="Trazado 125482" d="M369.544,2869.355a1.575,1.575,0,0,0,1.575,1.575h18.9a1.575,1.575,0,0,0,1.575-1.575,11.023,11.023,0,1,0-22.047,0Zm11.023-7.874a7.888,7.888,0,0,1,7.716,6.3H372.852a7.888,7.888,0,0,1,7.716-6.3Zm0,0" transform="translate(-356.946 -2845.733)" fill="#5e5385"/>
      <path id="Trazado_125483" data-name="Trazado 125483" d="M489.78,2850.375a1.573,1.573,0,0,0-.069,1.532l3.15,6.3a1.574,1.574,0,0,0,2.817-1.408l-2.009-4.021h3.751a1.575,1.575,0,0,0,1.408-2.279l-3.15-6.3a1.575,1.575,0,0,0-2.817,1.409l2.009,4.021h-3.751a1.574,1.574,0,0,0-1.339.747Zm0,0" transform="translate(-451.749 -2833.881)" fill="#5e5385"/>
      <path id="Trazado_125484" data-name="Trazado 125484" d="M314.973,2843.5a1.574,1.574,0,0,0-2.113.7l-3.15,6.3a1.574,1.574,0,0,0,1.408,2.279h3.751l-2.009,4.021a1.574,1.574,0,0,0,2.817,1.408l3.15-6.3a1.575,1.575,0,0,0-1.408-2.279h-3.751l2.009-4.02a1.575,1.575,0,0,0-.7-2.113Zm0,0" transform="translate(-309.544 -2833.882)" fill="#5e5385"/>
    </g>
    <rect id="Rectángulo_30394" data-name="Rectángulo 30394" width="82" height="82" transform="translate(293 2247)" fill="none" opacity="0.616"/>
  </g>
</svg>
