<svg xmlns="http://www.w3.org/2000/svg" width="82" height="82" viewBox="0 0 82 82">
  <g id="Grupo_55577" data-name="Grupo 55577" transform="translate(-293 -1943)">
    <g id="Grupo_55567" data-name="Grupo 55567" transform="translate(295.664 1945.532)">
      <path id="Trazado_125464" data-name="Trazado 125464" d="M954.655,2468.961c-5.706,5.706-13.574,10.15-22.282,10.15-17.417,0-32.432-15.015-32.432-32.432s15.015-31.531,32.432-31.531v31.531Zm0,0" transform="translate(-898.439 -2403.737)" fill="#ccf"/>
      <path id="Trazado_125465" data-name="Trazado 125465" d="M1139.373,2398.08h-32.432v-32.432c17.417,0,32.432,15.015,32.432,32.432Zm0,0" transform="translate(-1063.999 -2364.146)" fill="#ccf"/>
      <path id="Trazado_125466" data-name="Trazado 125466" d="M1093.472,2572.648a31.41,31.41,0,0,1-9.249,22.282l-22.282-22.282Zm0,0" transform="translate(-1028.008 -2529.706)" fill="#fff"/>
      <path id="Trazado_125467" data-name="Trazado 125467" d="M892.441,2440.681c0,18.23,15.671,33.933,33.934,33.933,8.224,0,16.515-3.76,23.343-10.59h0a32.806,32.806,0,0,0,9.689-23.343,1.5,1.5,0,0,0-1.5-1.5h-30.03v-30.03a1.5,1.5,0,0,0-1.5-1.5c-17.957,0-33.934,14.5-33.934,33.033Zm56.19,20.133L930,2442.18h26.368a29.779,29.779,0,0,1-7.736,18.633Zm-23.758-50.126v29.993a1.519,1.519,0,0,0,.438,1.06v0l21.2,21.2c-3.938,3.639-11.031,8.669-20.138,8.669-16.477,0-30.931-14.453-30.931-30.93,0-15.79,13.326-29.2,29.429-29.993Zm0,0" transform="translate(-892.441 -2397.738)" fill="#5e5385"/>
      <path id="Trazado_125468" data-name="Trazado 125468" d="M1100.943,2358.148a1.5,1.5,0,0,0-1.5,1.5v32.432a1.5,1.5,0,0,0,1.5,1.5h32.432a1.5,1.5,0,0,0,1.5-1.5c0-18.247-15.679-33.933-33.934-33.933Zm1.5,32.432v-29.389c15.345.817,28.572,14.044,29.389,29.389Zm0,0" transform="translate(-1058 -2358.148)" fill="#5e5385"/>
    </g>
    <rect id="Rectángulo_30392" data-name="Rectángulo 30392" width="82" height="82" transform="translate(293 1943)" fill="none" opacity="0.616"/>
  </g>
</svg>
