<svg xmlns="http://www.w3.org/2000/svg" width="120" height="98" viewBox="0 0 120 98">
  <g id="Grupo_55613" data-name="Grupo 55613" transform="translate(0.247 -0.318)">
    <g id="Grupo_55605" data-name="Grupo 55605" transform="translate(14.25 4.914)">
      <rect id="Rectángulo_30451" data-name="Rectángulo 30451" width="86.626" height="67.963" transform="translate(1.761 1.761)" fill="#a8dde2"/>
      <rect id="Rectángulo_30452" data-name="Rectángulo 30452" width="14.085" height="18.663" transform="translate(38.031 69.723)" fill="#fff"/>
      <rect id="Rectángulo_30453" data-name="Rectángulo 30453" width="7.043" height="10.564" transform="translate(23.945 48.067)" fill="#fff"/>
      <rect id="Rectángulo_30454" data-name="Rectángulo 30454" width="7.043" height="21.128" transform="translate(38.031 37.502)" fill="#fff"/>
      <rect id="Rectángulo_30455" data-name="Rectángulo 30455" width="7.043" height="10.564" transform="translate(52.116 48.067)" fill="#fff"/>
      <rect id="Rectángulo_30456" data-name="Rectángulo 30456" width="7.043" height="21.128" transform="translate(66.202 37.502)" fill="#fff"/>
      <path id="Trazado_125965" data-name="Trazado 125965" d="M-1993.9,7071.2h-86.626a1.761,1.761,0,0,0-1.761,1.761v67.962a1.761,1.761,0,0,0,1.761,1.761h34.509v15.142h-8.8a1.761,1.761,0,0,0-1.761,1.761,1.761,1.761,0,0,0,1.761,1.761h35.214a1.761,1.761,0,0,0,1.761-1.761,1.761,1.761,0,0,0-1.761-1.761h-8.8v-15.142h34.509a1.761,1.761,0,0,0,1.761-1.761v-67.962a1.761,1.761,0,0,0-1.761-1.761Zm-38.031,86.626h-10.564v-15.142h10.564Zm36.27-18.663h-83.1V7074.72h83.1Zm0,0" transform="translate(2082.282 -7071.199)" fill="#26aab7"/>
      <path id="Trazado_125966" data-name="Trazado 125966" d="M-1959.169,7171.167l9.106-9.105a1.761,1.761,0,0,0,0-2.489,1.76,1.76,0,0,0-2.49,0l-9.1,9.1a1.76,1.76,0,0,0,0,2.49,1.759,1.759,0,0,0,2.49,0Zm0,0" transform="translate(1990.37 -7138.43)" fill="#26aab7"/>
      <path id="Trazado_125967" data-name="Trazado 125967" d="M-1892.553,7171.167a1.761,1.761,0,0,0,2.491,0,1.762,1.762,0,0,0,0-2.49l-9.106-9.1a1.759,1.759,0,0,0-2.49,0,1.76,1.76,0,0,0,0,2.489Zm0,0" transform="translate(1944.456 -7138.43)" fill="#26aab7"/>
      <path id="Trazado_125968" data-name="Trazado 125968" d="M-1839.169,7171.167l9.106-9.105a1.761,1.761,0,0,0,0-2.489,1.76,1.76,0,0,0-2.49,0l-9.1,9.1a1.76,1.76,0,0,0,0,2.49,1.759,1.759,0,0,0,2.49,0Zm0,0" transform="translate(1898.542 -7138.43)" fill="#26aab7"/>
      <path id="Trazado_125969" data-name="Trazado 125969" d="M-2016.021,7167.748h56.342a1.761,1.761,0,0,0,1.761-1.761v-21.129a1.761,1.761,0,0,0-1.761-1.76h-7.043a1.761,1.761,0,0,0-1.761,1.76v19.368H-1972v-8.8a1.761,1.761,0,0,0-1.761-1.761h-7.043a1.761,1.761,0,0,0-1.761,1.761v8.8h-3.521v-19.368a1.76,1.76,0,0,0-1.761-1.76h-7.043a1.761,1.761,0,0,0-1.761,1.76v19.368h-3.521v-8.8a1.761,1.761,0,0,0-1.761-1.761h-7.043a1.761,1.761,0,0,0-1.761,1.761v8.8h-3.521v-44.018a1.761,1.761,0,0,0-1.761-1.76,1.76,1.76,0,0,0-1.761,1.76v45.778a1.761,1.761,0,0,0,1.761,1.761Zm51.06-21.128h3.521v17.606h-3.521Zm-14.085,10.563h3.521v7.043h-3.521Zm-14.086-10.563h3.521v17.606h-3.521Zm-14.085,10.563h3.521v7.043h-3.521Zm0,0" transform="translate(2032.924 -7107.357)" fill="#26aab7"/>
      <path id="Trazado_125970" data-name="Trazado 125970" d="M-1862.5,7204.013a5.288,5.288,0,0,1-5.282-5.282,5.288,5.288,0,0,1,5.282-5.281,5.288,5.288,0,0,1,5.282,5.281,5.288,5.288,0,0,1-5.282,5.282Zm0,0" transform="translate(1918.138 -7164.75)" fill="#fff"/>
      <path id="Trazado_125971" data-name="Trazado 125971" d="M-1922.5,7144.013a5.288,5.288,0,0,1-5.282-5.282,5.288,5.288,0,0,1,5.282-5.281,5.288,5.288,0,0,1,5.282,5.281,5.288,5.288,0,0,1-5.282,5.282Zm0,0" transform="translate(1964.052 -7118.835)" fill="#fff"/>
      <path id="Trazado_125972" data-name="Trazado 125972" d="M-1982.5,7204.013a5.288,5.288,0,0,1-5.282-5.282,5.288,5.288,0,0,1,5.282-5.281,5.288,5.288,0,0,1,5.282,5.281,5.288,5.288,0,0,1-5.282,5.282Zm0,0" transform="translate(2009.967 -7164.75)" fill="#fff"/>
      <path id="Trazado_125973" data-name="Trazado 125973" d="M-1802.5,7144.013a5.288,5.288,0,0,1-5.282-5.282,5.288,5.288,0,0,1,5.282-5.281,5.288,5.288,0,0,1,5.282,5.281,5.288,5.288,0,0,1-5.282,5.282Zm0,0" transform="translate(1872.223 -7118.835)" fill="#fff"/>
    </g>
    <rect id="Rectángulo_30465" data-name="Rectángulo 30465" width="120" height="98" transform="translate(-0.246 0.318)" fill="none" opacity="0.481"/>
  </g>
</svg>
