<svg id="Grupo_55901" data-name="Grupo 55901" xmlns="http://www.w3.org/2000/svg" width="64.668" height="88.652" viewBox="0 0 64.668 88.652">
  <g id="Grupo_55891" data-name="Grupo 55891">
    <path id="Trazado_129735" data-name="Trazado 129735" d="M-3786.116-10007.25l12.352-15.52a1.938,1.938,0,0,0,.2-2.139,2.2,2.2,0,0,0-1.95-1.127h-53.177v-2.607a4.9,4.9,0,0,0,3.052-4.455,5.082,5.082,0,0,0-5.233-4.9,5.082,5.082,0,0,0-5.233,4.9,4.9,4.9,0,0,0,3.051,4.455v75.207h-2.764a2.116,2.116,0,0,0-2.182,2.043,2.117,2.117,0,0,0,2.182,2.045h9.893a2.117,2.117,0,0,0,2.182-2.045,2.116,2.116,0,0,0-2.182-2.043h-2.765v-35.106h53.1a2.2,2.2,0,0,0,1.949-1.126,1.94,1.94,0,0,0-.2-2.139Zm-44.757-24.623a1.269,1.269,0,0,1-1.306-1.225,1.269,1.269,0,0,1,1.306-1.224,1.269,1.269,0,0,1,1.307,1.224A1.269,1.269,0,0,1-3830.873-10031.873Zm2.182,39.244h0v-6.789h6.952a2.117,2.117,0,0,0,2.181-2.045,2.115,2.115,0,0,0-2.181-2.043h-6.952v-7.562h10.878a2.117,2.117,0,0,0,2.182-2.045,2.115,2.115,0,0,0-2.182-2.043h-10.878v-6.791h48.829l-10.723,13.475a1.943,1.943,0,0,0,0,2.443l10.649,13.4Z" transform="translate(3838 10038)" fill="#fff"/>
  </g>
</svg>
