<svg xmlns="http://www.w3.org/2000/svg" width="406" height="286.786" viewBox="0 0 406 286.786">
  <g id="graficos-03-03" transform="translate(-29.3 -25.004)" style="isolation: isolate">
    <g id="Layer_1" data-name="Layer 1" transform="translate(29.3 25.004)">
      <ellipse id="Elipse_4227" data-name="Elipse 4227" cx="18.388" cy="4.804" rx="18.388" ry="4.804" transform="translate(0 277.177)" fill="#8b5dd0"/>
      <ellipse id="Elipse_4228" data-name="Elipse 4228" cx="32.284" cy="4.804" rx="32.284" ry="4.804" transform="translate(103.649 277.177)" fill="#8b5dd0"/>
      <ellipse id="Elipse_4229" data-name="Elipse 4229" cx="32.284" cy="4.804" rx="32.284" ry="4.804" transform="translate(336.026 277.177)" fill="#8b5dd0"/>
      <path id="Trazado_124927" data-name="Trazado 124927" d="M811.566,485.33a.747.747,0,0,1,.493.516,15.624,15.624,0,0,1,.461,2.264c0,.111-.867-.346-.867-.346a7.271,7.271,0,0,1-.175-1.747A1.8,1.8,0,0,0,811.566,485.33Z" transform="translate(-450.822 -273.086)" fill="#ffb3c5"/>
      <path id="Trazado_124928" data-name="Trazado 124928" d="M826.6,490.664l-5.1-2.361.461,5.4s-9.655-4.38-10.144-4.823a3.16,3.16,0,0,1-.526-.982,10.055,10.055,0,0,1-.424-1.466,3.27,3.27,0,0,0-1.033-1.54,3.139,3.139,0,0,1-.429-.83.157.157,0,0,0-.3,0l-.051.341a1.7,1.7,0,0,0,.138.853l-.134-.051-.221,2.273.272,1.983,1.526,1.153s13.45,9.683,14.68,8.415C826.641,497.681,826.6,490.664,826.6,490.664Z" transform="translate(-449.409 -272.338)" fill="#ffb3c5"/>
      <rect id="Rectángulo_30259" data-name="Rectángulo 30259" width="87.272" height="87.272" rx="31.53" transform="translate(250.654 185.082)" fill="#f2f2f2"/>
      <path id="Trazado_124929" data-name="Trazado 124929" d="M656.63,563.64H670.8l-.59,2.259-8.986,6.081s-2.033-3.965-2.416-4.389S656.63,563.64,656.63,563.64Z" transform="translate(-367.385 -315.289)" fill="#ffb3c5"/>
      <rect id="Rectángulo_30260" data-name="Rectángulo 30260" width="8.719" height="15.298" transform="translate(291.975 242.772)" fill="#ffb3c5"/>
      <path id="Trazado_124930" data-name="Trazado 124930" d="M668.542,575.617a21.721,21.721,0,0,0-4.611-7.732c-5.708-5.533-13.606-4.366-13.606-4.366a12.394,12.394,0,0,1-2.637,2.047,8.761,8.761,0,0,1-8.94,0,12.533,12.533,0,0,1-2.642-2.047s-7.894-1.176-13.6,4.366c-1.19,1.153-2.554,4.062-3.924,7.732Z" transform="translate(-346.879 -315.167)" fill="#7d6eb2"/>
      <path id="Trazado_124931" data-name="Trazado 124931" d="M671.429,476.683s14.754-.825,15.529,17.235a3.942,3.942,0,0,0-1.844.35s-11.684-2.923-14.584-14.243Z" transform="translate(-374.876 -268.423)" fill="#472a6a"/>
      <path id="Trazado_124932" data-name="Trazado 124932" d="M671.255,551.115V545.9H662.55v4.435C664.422,551.345,667.2,551.94,671.255,551.115Z" transform="translate(-370.575 -305.729)" fill="#ea94ad"/>
      <path id="Trazado_124933" data-name="Trazado 124933" d="M663.683,567.223c7.589,3.228,7.147-2.946,7.087-3.536a12.5,12.5,0,0,1-2.591,2,8.761,8.761,0,0,1-8.94,0,12.525,12.525,0,0,1-2.642-2.047S655.716,570.625,663.683,567.223Z" transform="translate(-367.351 -315.289)" fill="#f2f2f2"/>
      <path id="Trazado_124934" data-name="Trazado 124934" d="M666.51,498.093a2.965,2.965,0,0,0-2.674.106,14.228,14.228,0,1,0-28.455,0,2.965,2.965,0,0,0-2.672-.106c-1.6.788-2.1,3.048-1.111,5.049s3.08,2.979,4.68,2.19a2.705,2.705,0,0,0,.6-.41,12.822,12.822,0,0,0,25.465,0,2.6,2.6,0,0,0,.6.41c1.6.788,3.689-.194,4.68-2.19S668.11,498.881,666.51,498.093Z" transform="translate(-353.621 -272.353)" fill="#ffb3c5"/>
      <path id="Trazado_124935" data-name="Trazado 124935" d="M660.66,519.578a1.2,1.2,0,1,1-1.263-1.13A1.2,1.2,0,0,1,660.66,519.578Z" transform="translate(-368.265 -290.933)" fill="#472a6a"/>
      <path id="Trazado_124936" data-name="Trazado 124936" d="M683.01,519.822a1.194,1.194,0,1,1-.393-.829,1.2,1.2,0,0,1,.393.829Z" transform="translate(-380.31 -291.062)" fill="#472a6a"/>
      <path id="Trazado_124937" data-name="Trazado 124937" d="M658.544,513.929a10.993,10.993,0,0,0-1.738-.461,5.864,5.864,0,0,0-1.674-.069,5.5,5.5,0,0,0-1.618.41l-.2.078a1.9,1.9,0,0,0-.194.1l-.4.194c-.267.134-.516.3-.816.438a5.311,5.311,0,0,1,.553-.779,4.639,4.639,0,0,1,.738-.632,3.878,3.878,0,0,1,1.844-.678,4.15,4.15,0,0,1,1.955.281A3.79,3.79,0,0,1,658.544,513.929Z" transform="translate(-364.836 -287.732)" fill="#472a6a"/>
      <path id="Trazado_124938" data-name="Trazado 124938" d="M676.77,513.852a3.786,3.786,0,0,1,1.535-1.139,4.063,4.063,0,0,1,1.95-.3,3.9,3.9,0,0,1,1.844.664,4.186,4.186,0,0,1,.742.622,5.31,5.31,0,0,1,.558.775c-.3-.129-.549-.3-.821-.433l-.4-.189-.194-.1-.208-.074a5.479,5.479,0,0,0-1.618-.4,5.877,5.877,0,0,0-1.674.083A11.577,11.577,0,0,0,676.77,513.852Z" transform="translate(-378.239 -287.675)" fill="#472a6a"/>
      <path id="Trazado_124939" data-name="Trazado 124939" d="M671.966,521.05a7.436,7.436,0,0,0,.11,2.093,6.008,6.008,0,0,0,.3,1.037,2.766,2.766,0,0,0,.623.977l.134.1.115.088a1.347,1.347,0,0,1,.152.12.817.817,0,0,1,.212.3.969.969,0,0,1-.055.761,2.9,2.9,0,0,1-1.448,1.236,2.356,2.356,0,0,0,1.9-.982,1.424,1.424,0,0,0,.2-1.222,1.076,1.076,0,0,0-.143-.3,1.212,1.212,0,0,0-.207-.254,1.271,1.271,0,0,0-.245-.2c-.055-.037-.065-.051-.092-.069l-.069-.06a2.556,2.556,0,0,1-.5-.738,9.094,9.094,0,0,1-.369-.922C672.358,522.373,672.169,521.719,671.966,521.05Z" transform="translate(-375.634 -292.336)" fill="#ea94ad"/>
      <path id="Trazado_124940" data-name="Trazado 124940" d="M634.992,494.086s-.881-16.317,17.3-17.4c0,0-.567,16.032-14.791,17.585Z" transform="translate(-355.72 -268.429)" fill="#12263f"/>
      <path id="Trazado_124941" data-name="Trazado 124941" d="M640.4,495.52s20.343-2.647,22.5-12.707L658.013,479l-6.732.65s-3.629,5.75-4.15,6.326S640.4,495.52,640.4,495.52Z" transform="translate(-358.638 -269.674)" fill="#12263f"/>
      <path id="Trazado_124942" data-name="Trazado 124942" d="M681.43,485.243s1.688,10.181,9.535,12.91c0,0,.729-2.144.871-2.647s-2.227-7.907-2.227-7.907a11.722,11.722,0,0,0-2.084-1.941,34.368,34.368,0,0,0-5.376-1.747Z" transform="translate(-380.75 -272.32)" fill="#12263f"/>
      <path id="Trazado_124943" data-name="Trazado 124943" d="M666.65,538.87a3.647,3.647,0,0,1,3.02.194,2.669,2.669,0,0,1,2.8-.235,2.988,2.988,0,0,1-3,2.393A2.665,2.665,0,0,1,666.65,538.87Z" transform="translate(-372.785 -301.742)" fill="#ea94ad" opacity="0.2" style="mix-blend-mode: multiply;isolation: isolate"/>
      <path id="Trazado_124944" data-name="Trazado 124944" d="M663.59,537.631a7.589,7.589,0,0,0,.959.581,7.711,7.711,0,0,0,1.019.461,6.638,6.638,0,0,0,2.153.42,5.663,5.663,0,0,0,2.149-.387,8.114,8.114,0,0,0,1.914-1.125,6.569,6.569,0,0,1-.848.747,6.315,6.315,0,0,1-.982.581,5.328,5.328,0,0,1-1.093.36,5.593,5.593,0,0,1-1.143.111,5.9,5.9,0,0,1-2.232-.5,6.5,6.5,0,0,1-1.895-1.245Z" transform="translate(-371.136 -301.245)" fill="#ea94ad"/>
      <ellipse id="Elipse_4230" data-name="Elipse 4230" cx="13.016" cy="10.116" rx="13.016" ry="10.116" transform="translate(282.578 194.124)" fill="#12263f"/>
      <path id="Trazado_124945" data-name="Trazado 124945" d="M648.57,481.269h0a.6.6,0,0,1,.4-.775,42.359,42.359,0,0,1,19.683-.3.6.6,0,0,1,.461.715h0a.595.595,0,0,1-.71.461,41.834,41.834,0,0,0-19.1.29.6.6,0,0,1-.729-.392Z" transform="translate(-363.023 -269.785)" fill="#31dae7"/>
      <path id="Trazado_124946" data-name="Trazado 124946" d="M797.52,441.5h2.559L767.089,275.97H764.53Z" transform="translate(-425.535 -160.256)" fill="#12263f"/>
      <path id="Trazado_124947" data-name="Trazado 124947" d="M738.462,443.169h2.559l-33.382-167.2H705.08Z" transform="translate(-393.496 -160.256)" fill="#12263f"/>
      <path id="Trazado_124948" data-name="Trazado 124948" d="M709.291,283.145H736.7l-.341-1.715H708.95Z" transform="translate(-395.581 -163.199)" fill="#12263f"/>
      <path id="Trazado_124949" data-name="Trazado 124949" d="M714.091,307.235H741.5l-.341-1.715H713.75Z" transform="translate(-398.168 -176.181)" fill="#12263f"/>
      <path id="Trazado_124950" data-name="Trazado 124950" d="M718.891,331.335H746.3l-.341-1.715H718.55Z" transform="translate(-400.755 -189.17)" fill="#12263f"/>
      <path id="Trazado_124951" data-name="Trazado 124951" d="M723.691,355.435H751.1l-.341-1.715H723.35Z" transform="translate(-403.342 -202.158)" fill="#12263f"/>
      <path id="Trazado_124952" data-name="Trazado 124952" d="M728.491,379.525h27.415l-.346-1.715H728.15Z" transform="translate(-405.929 -215.14)" fill="#12263f"/>
      <path id="Trazado_124953" data-name="Trazado 124953" d="M733.3,403.625h27.411l-.341-1.715H732.95Z" transform="translate(-408.516 -228.129)" fill="#12263f"/>
      <path id="Trazado_124954" data-name="Trazado 124954" d="M738.1,427.721h27.411l-.341-1.711H737.76Z" transform="translate(-411.108 -241.117)" fill="#12263f"/>
      <path id="Trazado_124955" data-name="Trazado 124955" d="M742.9,451.815h27.411l-.341-1.715H742.56Z" transform="translate(-413.695 -254.099)" fill="#12263f"/>
      <path id="Trazado_124956" data-name="Trazado 124956" d="M747.7,475.915h27.411l-.341-1.715H747.36Z" transform="translate(-416.281 -267.088)" fill="#12263f"/>
      <path id="Trazado_124957" data-name="Trazado 124957" d="M752.5,500.005h27.411l-.341-1.715H752.16Z" transform="translate(-418.868 -280.07)" fill="#12263f"/>
      <path id="Trazado_124958" data-name="Trazado 124958" d="M757.3,524.105h27.415l-.346-1.715H756.96Z" transform="translate(-421.455 -293.058)" fill="#12263f"/>
      <path id="Trazado_124959" data-name="Trazado 124959" d="M762.106,548.2h27.411l-.341-1.711H761.76Z" transform="translate(-424.042 -306.047)" fill="#12263f"/>
      <path id="Trazado_124960" data-name="Trazado 124960" d="M766.911,572.3h27.411l-.341-1.715H766.57Z" transform="translate(-426.634 -319.029)" fill="#12263f"/>
      <path id="Trazado_124961" data-name="Trazado 124961" d="M82.73,627.223v-2.582l2.955-.821.655.29.115,3.112-.931,2.711Z" transform="translate(-58.095 -347.722)" fill="#ffb3c5"/>
      <path id="Trazado_124962" data-name="Trazado 124962" d="M83.478,510.677l-2.093,51.1H76.5l-4.3-38.62,5.639-17.3Z" transform="translate(-52.42 -284.145)" fill="#472a6a"/>
      <path id="Trazado_124963" data-name="Trazado 124963" d="M41.78,627.223v-2.582l2.955-.821.655.29.115,3.112-.931,2.711Z" transform="translate(-36.026 -347.722)" fill="#ffb3c5"/>
      <path id="Trazado_124964" data-name="Trazado 124964" d="M64.29,511.715,45.165,562.7l-4.685-.378s5.828-46.748,9.318-51.179,11.14-3.49,11.14-3.49Z" transform="translate(-35.325 -285.071)" fill="#5c407b"/>
      <rect id="Rectángulo_30261" data-name="Rectángulo 30261" width="9.037" height="0.908" rx="0.454" transform="translate(23.934 281.94)" fill="#f2f2f2"/>
      <path id="Trazado_124965" data-name="Trazado 124965" d="M81.749,629.934l-.3,2.536c-.037.314.138.595.369.595h7.963a.586.586,0,0,0,.521-.369,1.116,1.116,0,0,0-.221-1.13c-.692-.977-2.928-1.24-4.1-2.047a.4.4,0,0,0-.231-.069H82.159C81.956,629.445,81.781,629.648,81.749,629.934Z" transform="translate(-57.399 -350.756)" fill="#31dae7"/>
      <rect id="Rectángulo_30262" data-name="Rectángulo 30262" width="9.037" height="0.908" rx="0.454" transform="translate(5.155 281.94)" fill="#f2f2f2"/>
      <path id="Trazado_124966" data-name="Trazado 124966" d="M41.023,629.934l-.3,2.536c-.041.314.134.595.364.595H49.05a.581.581,0,0,0,.521-.369,1.116,1.116,0,0,0-.221-1.13c-.692-.977-2.923-1.24-4.1-2.047a.4.4,0,0,0-.226-.069H41.438C41.23,629.445,41.055,629.648,41.023,629.934Z" transform="translate(-35.453 -350.756)" fill="#31dae7"/>
      <path id="Trazado_124967" data-name="Trazado 124967" d="M86.75,449.21s3.878,4.611,13.007,5.418,2.305,5.634,2.305,5.634-11.015,1.586-14.856-1.005S86.75,449.21,86.75,449.21Z" transform="translate(-59.519 -253.62)" fill="#cd7399"/>
      <path id="Trazado_124968" data-name="Trazado 124968" d="M857.361,438.229c1.485,0,4-.987,6.745.8a4.265,4.265,0,0,1,1.586,2.2,14.2,14.2,0,0,1,.59,2.384c.272,1.572,4.039,1.176,5.325,3.928,1.678,3.583-1.277,6.815-3.426,9.286-4.666,5.376-10.692,3.951-12.172,4.661-1.065.512-.277-1.646-1.457-1.572s-2.545.051-3.227-.922a10.276,10.276,0,0,1-.678-1.872,5.144,5.144,0,0,0-1.946-1.955,21.865,21.865,0,0,0-3.006-1.844c-1.13-.535-7.442-1.185-5.533-9.323a10.41,10.41,0,0,1,4.528-6.377,7.656,7.656,0,0,1,4.611-1.383C853.76,436.149,853.442,438.229,857.361,438.229Z" transform="translate(-466.103 -246.627)" fill="#472a6a"/>
      <path id="Trazado_124969" data-name="Trazado 124969" d="M841.75,550.651l.576,36.784.936,2.651,2.822-2.651,2.67-37.725Z" transform="translate(-467.151 -307.782)" fill="#ffb3c5"/>
      <path id="Trazado_124970" data-name="Trazado 124970" d="M870.027,554.45H863s3.32,35.318,3.3,35.54a11,11,0,0,0,1.185,1.8l2.568-1.8Z" transform="translate(-478.603 -310.336)" fill="#ffb3c5"/>
      <path id="Trazado_124971" data-name="Trazado 124971" d="M838.09,564.427a14.86,14.86,0,0,0,8.553.876l.627-29.375.461-5.173c.36.314.572.461.572.461l1.734,33.562a17.7,17.7,0,0,0,8.47.53c0-2.019-1.236-32.824-1.25-34.258-.092-10.328-3.287-11.84-3.287-11.84l-5.436-1.383-1.194.2c-1.9-.622-5.339-1.337-6.755,1.037-2.006,3.361-1.886,13.722-1.886,13.722S838.071,563.007,838.09,564.427Z" transform="translate(-465.178 -290.38)" fill="#c1507f"/>
      <path id="Trazado_124972" data-name="Trazado 124972" d="M838.523,473.75a5.684,5.684,0,0,0-2.554,2.116c-1.508,1.867-2.859,7.045-2.859,7.045l4.823,2.633,3.14-6.248Z" transform="translate(-462.494 -266.845)" fill="#e1dde7"/>
      <path id="Trazado_124973" data-name="Trazado 124973" d="M867.248,538.41c-.507.189-1.01.392-1.5.609s-.987.461-1.475.678-.968.461-1.448.724-.954.5-1.425.765l-.037-.088a9.336,9.336,0,0,1,1.07-.166,10.562,10.562,0,0,1,1.079-.051,9.291,9.291,0,0,1,1.079.06l.268.037.267.046.134.028.129.028.263.065-.263-.051-.134-.028h-.134l-.267-.037h-.267a1.715,1.715,0,0,0-.267,0h-.8a9.273,9.273,0,0,0-1.074.074,10.078,10.078,0,0,0-1.056.166l-.323.074.286-.161c.461-.267.945-.526,1.425-.77s.968-.489,1.457-.719.991-.461,1.494-.65c.249-.1.5-.2.756-.291S866.994,538.5,867.248,538.41Z" transform="translate(-477.557 -301.692)" fill="#e25a74" opacity="0.5"/>
      <path id="Trazado_124974" data-name="Trazado 124974" d="M843.52,538c.258.083.516.166.77.263s.512.189.761.291c.5.2,1,.42,1.489.65s.978.461,1.457.715.959.5,1.429.77l.281.161-.318-.069a10.1,10.1,0,0,0-1.056-.171c-.36-.037-.715-.065-1.074-.069h-1.074l-.267.028-.263.037h-.134l-.134.028-.263.051.263-.065.129-.032.134-.023.263-.046.267-.037a8.453,8.453,0,0,1,1.079-.06,10.524,10.524,0,0,1,2.153.212l-.037.092c-.461-.263-.95-.516-1.425-.765s-.964-.493-1.448-.729-.977-.461-1.475-.678S844.032,538.175,843.52,538Z" transform="translate(-468.105 -301.471)" fill="#e25a74" opacity="0.5"/>
      <path id="Trazado_124975" data-name="Trazado 124975" d="M867.77,528.64c.023.055.051.1.074.152l.078.147.157.3.258.493.742,1.3c.1.2,1.084,1.9,1.314,2.278a9.511,9.511,0,0,1-.871-1.06c-.115-.189-.226-.383-.341-.576l-.318-.586c-.207-.392-.406-.793-.59-1.194-.1-.2-.185-.406-.272-.609l-.125-.309A2.6,2.6,0,0,1,867.77,528.64Z" transform="translate(-481.174 -296.427)" fill="#e25a74"/>
      <path id="Trazado_124976" data-name="Trazado 124976" d="M862.912,478.033c-2.195-2.647-4.726-5.533-6.944-6.635a19.138,19.138,0,0,0-4.025-.706,27.308,27.308,0,0,0-6.058,0c-1.623.595-4.459,1.6-4.5,2.564-.184,4.8-.24,8.484-.212,11.306,0,0-.083,10.236,0,12.417,0,0,11.117,2.4,16.8.959,0,0,.922-13.371-.406-16.986l.572.728S860.441,481.178,862.912,478.033Z" transform="translate(-466.822 -265.107)" fill="#f2f2f2"/>
      <path id="Trazado_124977" data-name="Trazado 124977" d="M877.73,487.71a10.437,10.437,0,0,1-4.011,3.112l5.376,6.455-9.835,10.6,1.724,3.015c1.383-.664,1.678-3.181,1.678-3.181s12.154-8.152,12.154-10.1C884.817,495.009,877.73,487.71,877.73,487.71Z" transform="translate(-481.977 -274.368)" fill="#ffb3c5"/>
      <path id="Trazado_124978" data-name="Trazado 124978" d="M876.325,484c-.088.1-.161.2-.249.286l-.263.277-.129.143-.134.129-.277.263-.281.254a6.746,6.746,0,0,1-.586.461,10.264,10.264,0,0,1-1.273.816l-.166.088c-.055.032-.115.055-.171.083s-.231.106-.346.157l-.171.069-.175.065-.244.083-.59-.705-.669-.784c-.461-.526-.894-1.042-1.346-1.563s-.922-1.033-1.383-1.545-.922-1.014-1.383-1.512c.406.553.83,1.093,1.254,1.637s.825,1.1,1.286,1.623.871,1.065,1.314,1.591l.659.793.669.784.074.088.106-.028a3.8,3.8,0,0,0,.387-.129,3.631,3.631,0,0,0,.369-.148l.355-.171.175-.092.166-.1a9.186,9.186,0,0,0,1.277-.895l.29-.254c.1-.083.189-.175.281-.267l.267-.272.258-.29.125-.143.12-.152.235-.3c.148-.2.286-.42.429-.627Z" transform="translate(-480.484 -270.785)" fill="#8b5dd0"/>
      <path id="Trazado_124979" data-name="Trazado 124979" d="M853.92,466.141s2.208,1.309,3.928,0h0l-.406-3.2-3.421-.705Z" transform="translate(-473.71 -260.642)" fill="#ffb3c5"/>
      <path id="Trazado_124980" data-name="Trazado 124980" d="M854,464.324l.055-2.084,3.472,1.083.1.779A6.244,6.244,0,0,1,854,464.324Z" transform="translate(-473.753 -260.642)" fill="#ea94ad"/>
      <path id="Trazado_124981" data-name="Trazado 124981" d="M846.4,449.814a1.037,1.037,0,0,1-.765,1.254,1.083,1.083,0,0,1-1.1-1.014,1.037,1.037,0,0,1,.761-1.254,1.084,1.084,0,0,1,1.1,1.014Z" transform="translate(-468.635 -253.399)" fill="#ea94ad"/>
      <path id="Trazado_124982" data-name="Trazado 124982" d="M846.88,448.731a4.972,4.972,0,0,1-.171-.867,8.767,8.767,0,0,1,.074-2.305c.023-.148.037-.3.046-.461a4.745,4.745,0,0,1,.507-1.812,5.03,5.03,0,0,1,5.349-2.6,4.938,4.938,0,0,1,4.044,6.031,1.125,1.125,0,0,1,.968.166,1.277,1.277,0,0,1,0,1.844,1.383,1.383,0,0,1-1.844.406.9.9,0,0,1-.185-.189,4.7,4.7,0,0,1-5.6,2.919,4.573,4.573,0,0,1-2.66-1.946,1.731,1.731,0,0,1-.129-.194A4.038,4.038,0,0,1,846.88,448.731Z" transform="translate(-469.799 -248.981)" fill="#ffb3c5"/>
      <path id="Trazado_124983" data-name="Trazado 124983" d="M858.743,452.162a.429.429,0,0,0,.309.526.379.379,0,1,0-.309-.526Z" transform="translate(-476.301 -255.097)" fill="#472a6a"/>
      <path id="Trazado_124984" data-name="Trazado 124984" d="M850.7,450.542a.429.429,0,0,0,.309.526.379.379,0,1,0-.309-.526Z" transform="translate(-471.968 -254.224)" fill="#472a6a"/>
      <path id="Trazado_124985" data-name="Trazado 124985" d="M858.13,450a4.606,4.606,0,0,1,.659-.028,2.212,2.212,0,0,1,.609.1,2.012,2.012,0,0,1,.549.267l.065.041.065.046.129.1c.088.065.161.143.258.212a1.837,1.837,0,0,0-.138-.309,1.786,1.786,0,0,0-.217-.277,1.468,1.468,0,0,0-.618-.378,1.586,1.586,0,0,0-.719-.051A1.425,1.425,0,0,0,858.13,450Z" transform="translate(-475.978 -253.887)" fill="#472a6a"/>
      <path id="Trazado_124986" data-name="Trazado 124986" d="M851.54,448.627a1.382,1.382,0,0,0-.461-.512,1.525,1.525,0,0,0-.678-.249,1.461,1.461,0,0,0-.719.088,1.549,1.549,0,0,0-.314.161,1.713,1.713,0,0,0-.258.226c.12-.023.221-.065.328-.092l.157-.032h.157a2.115,2.115,0,0,1,.613,0,2.3,2.3,0,0,1,.595.157A4.142,4.142,0,0,1,851.54,448.627Z" transform="translate(-471.117 -252.889)" fill="#472a6a"/>
      <path id="Trazado_124987" data-name="Trazado 124987" d="M854.516,449.76a3.048,3.048,0,0,1-.092.922,2.344,2.344,0,0,1-.157.461,1.131,1.131,0,0,1-.3.41l-.06.042-.055.037a.3.3,0,0,0-.074.051.3.3,0,0,0-.1.12.4.4,0,0,0,0,.332,1.314,1.314,0,0,0,.627.581,1.088,1.088,0,0,1-.835-.461.613.613,0,0,1-.065-.539.516.516,0,0,1,.074-.129.42.42,0,0,1,.1-.106,1.053,1.053,0,0,1,.115-.083l.042-.028.032-.023a1.1,1.1,0,0,0,.24-.309,3.407,3.407,0,0,0,.184-.392C854.313,450.332,854.41,450.051,854.516,449.76Z" transform="translate(-473.415 -253.916)" fill="#ea94ad"/>
      <path id="Trazado_124988" data-name="Trazado 124988" d="M851.66,455.41a1.747,1.747,0,0,0,3.043.461Z" transform="translate(-472.491 -256.961)" fill="#f2f2f2"/>
      <path id="Trazado_124989" data-name="Trazado 124989" d="M859.851,637.442h8.392a.461.461,0,0,0,.461-.461h0a.461.461,0,0,0-.461-.461h-8.392a.461.461,0,0,0-.461.461h0A.461.461,0,0,0,859.851,637.442Z" transform="translate(-476.657 -354.566)" fill="#f2f2f2"/>
      <path id="Trazado_124990" data-name="Trazado 124990" d="M868.278,629.7l.309,2.61c.037.323-.143.613-.378.618h-8.221a.6.6,0,0,1-.539-.387,1.139,1.139,0,0,1,.231-1.162c.715-1.014,3.02-1.282,4.233-2.112a.4.4,0,0,1,.24-.074h3.689C868.062,629.19,868.241,629.407,868.278,629.7Z" transform="translate(-476.652 -350.616)" fill="#31dae7"/>
      <path id="Trazado_124991" data-name="Trazado 124991" d="M868.667,630.985h0a.18.18,0,0,0,.046-.212,1.588,1.588,0,0,0-1.692-1.051c-.06,0-.1.088-.092.171h0a.113.113,0,0,0,.12.12,1.383,1.383,0,0,1,1.485.922.092.092,0,0,0,.134.051Z" transform="translate(-480.72 -350.889)" fill="#f2f2f2"/>
      <path id="Trazado_124992" data-name="Trazado 124992" d="M866.817,631.729h0a.185.185,0,0,0,.046-.212,1.591,1.591,0,0,0-1.7-1.051c-.055,0-.1.088-.087.171h0a.113.113,0,0,0,.12.12,1.383,1.383,0,0,1,1.48.922.1.1,0,0,0,.138.051Z" transform="translate(-479.722 -351.297)" fill="#f2f2f2"/>
      <path id="Trazado_124993" data-name="Trazado 124993" d="M865.092,632.409h0a.17.17,0,0,0,.046-.212,1.581,1.581,0,0,0-1.692-1.051c-.06,0-.1.092-.088.171h0a.113.113,0,0,0,.12.12,1.383,1.383,0,0,1,1.48.922.1.1,0,0,0,.134.051Z" transform="translate(-478.795 -351.663)" fill="#f2f2f2"/>
      <path id="Trazado_124994" data-name="Trazado 124994" d="M833.371,637.442h8.392a.461.461,0,0,0,.461-.461h0a.461.461,0,0,0-.461-.461h-8.392a.461.461,0,0,0-.461.461h0A.461.461,0,0,0,833.371,637.442Z" transform="translate(-462.387 -354.566)" fill="#f2f2f2"/>
      <path id="Trazado_124995" data-name="Trazado 124995" d="M841.8,629.7l.309,2.61c.037.323-.143.613-.378.618h-8.221a.6.6,0,0,1-.54-.387,1.139,1.139,0,0,1,.231-1.162c.715-1.014,3.02-1.282,4.233-2.112a.409.409,0,0,1,.24-.074h3.689C841.582,629.19,841.761,629.407,841.8,629.7Z" transform="translate(-462.381 -350.616)" fill="#31dae7"/>
      <path id="Trazado_124996" data-name="Trazado 124996" d="M842.187,630.985h0a.18.18,0,0,0,.046-.212,1.588,1.588,0,0,0-1.692-1.051c-.06,0-.1.088-.092.171h0a.114.114,0,0,0,.124.12,1.383,1.383,0,0,1,1.48.922.092.092,0,0,0,.134.051Z" transform="translate(-466.449 -350.889)" fill="#f2f2f2"/>
      <path id="Trazado_124997" data-name="Trazado 124997" d="M840.337,631.729h0a.18.18,0,0,0,.046-.212,1.591,1.591,0,0,0-1.7-1.051c-.055,0-.1.088-.088.171h0a.113.113,0,0,0,.12.12,1.383,1.383,0,0,1,1.48.922.1.1,0,0,0,.138.051Z" transform="translate(-465.452 -351.297)" fill="#f2f2f2"/>
      <path id="Trazado_124998" data-name="Trazado 124998" d="M838.612,632.4h0a.18.18,0,0,0,.051-.212,1.594,1.594,0,0,0-1.7-1.051c-.06,0-.1.092-.088.171h0a.113.113,0,0,0,.12.12,1.383,1.383,0,0,1,1.48.922.1.1,0,0,0,.134.051Z" transform="translate(-464.524 -351.649)" fill="#f2f2f2"/>
      <path id="Trazado_124999" data-name="Trazado 124999" d="M860.477,445.383l-.115-.028v-1.042l-.341-1s-1.439-2.739-1.494-2.808-1.263-1.024-1.337-1.074-1.913.092-1.913.092-3.108-1.042-2.767.922a4.593,4.593,0,0,0,2.7,3.094,3.533,3.533,0,0,1-.258-1.678,15.608,15.608,0,0,0,4.791,4.15.978.978,0,0,1,.968.051Z" transform="translate(-472.935 -248.253)" fill="#472a6a"/>
      <rect id="Rectángulo_30263" data-name="Rectángulo 30263" width="87.272" height="87.272" rx="31.53" transform="translate(52.867 81.926)" fill="#f2f2f2"/>
      <rect id="Rectángulo_30264" data-name="Rectángulo 30264" width="87.272" height="87.272" rx="31.53" transform="translate(152.122 183.648)" fill="#f2f2f2"/>
      <rect id="Rectángulo_30265" data-name="Rectángulo 30265" width="87.272" height="87.272" rx="31.53" transform="translate(153.501 81.926)" fill="#f2f2f2"/>
      <path id="Trazado_125000" data-name="Trazado 125000" d="M370.455,251.389l6.243-2.72a.378.378,0,0,0,.2-.5h0a.383.383,0,0,0-.48-.2l-6.243,2.72a.378.378,0,0,0-.212.507h0A.373.373,0,0,0,370.455,251.389Z" transform="translate(-212.874 -145.155)" fill="#5c407b"/>
      <path id="Trazado_125001" data-name="Trazado 125001" d="M375.113,243.1l1.074,1.844c.134.231.092.507-.083.581l-6.109,2.66a.489.489,0,0,1-.521-.111.922.922,0,0,1-.207-.922c.2-.987,1.844-1.932,2.467-2.942a.355.355,0,0,1,.152-.134l2.766-1.194A.41.41,0,0,1,375.113,243.1Z" transform="translate(-212.492 -142.421)" fill="#f36b80"/>
      <path id="Trazado_125002" data-name="Trazado 125002" d="M374.844,246.9h0a.143.143,0,0,0-.032-.175,1.286,1.286,0,0,0-1.6-.231c-.042,0-.046.1,0,.152h0c.037.055.092.074.129.051a1.107,1.107,0,0,1,1.383.2.078.078,0,0,0,.12,0Z" transform="translate(-214.625 -144.276)" fill="#5c407b"/>
      <path id="Trazado_125003" data-name="Trazado 125003" d="M373.708,248.047h0a.148.148,0,0,0-.037-.175,1.286,1.286,0,0,0-1.6-.231.12.12,0,0,0,0,.157h0c.032.055.092.078.129.051a1.111,1.111,0,0,1,1.383.2.078.078,0,0,0,.12,0Z" transform="translate(-214.015 -144.893)" fill="#5c407b"/>
      <path id="Trazado_125004" data-name="Trazado 125004" d="M372.646,249.105h0a.138.138,0,0,0-.037-.171,1.282,1.282,0,0,0-1.6-.235.129.129,0,0,0,0,.157h0c.032.055.092.078.129.051a1.111,1.111,0,0,1,1.383.2C372.567,249.147,372.618,249.147,372.646,249.105Z" transform="translate(-213.442 -145.462)" fill="#5c407b"/>
      <path id="Trazado_125005" data-name="Trazado 125005" d="M384.036,250.879l6.243-2.734a.383.383,0,0,0,.194-.5h0a.378.378,0,0,0-.5-.2l-6.243,2.734a.383.383,0,0,0-.2.5h0A.383.383,0,0,0,384.036,250.879Z" transform="translate(-220.189 -144.866)" fill="#5c407b"/>
      <path id="Trazado_125006" data-name="Trazado 125006" d="M388.7,242.614l1.074,1.844c.134.226.1.5-.083.576l-6.114,2.665a.484.484,0,0,1-.526-.111.922.922,0,0,1-.208-.922c.207-.982,1.844-1.932,2.471-2.942a.318.318,0,0,1,.152-.129l2.766-1.2A.415.415,0,0,1,388.7,242.614Z" transform="translate(-219.811 -142.157)" fill="#f36b80"/>
      <path id="Trazado_125007" data-name="Trazado 125007" d="M388.426,246.416h0a.143.143,0,0,0-.032-.175,1.291,1.291,0,0,0-1.6-.231.115.115,0,0,0,0,.157h0c.032.055.088.078.129.051a1.107,1.107,0,0,1,1.383.2.078.078,0,0,0,.12,0Z" transform="translate(-221.946 -144.013)" fill="#5c407b"/>
      <path id="Trazado_125008" data-name="Trazado 125008" d="M387.288,247.557h0a.138.138,0,0,0-.032-.171,1.286,1.286,0,0,0-1.6-.235.12.12,0,0,0,0,.157h0c.032.055.088.078.129.051a1.107,1.107,0,0,1,1.383.2C387.21,247.6,387.26,247.6,387.288,247.557Z" transform="translate(-221.334 -144.628)" fill="#5c407b"/>
      <path id="Trazado_125009" data-name="Trazado 125009" d="M386.224,248.626h0a.143.143,0,0,0-.032-.175,1.291,1.291,0,0,0-1.6-.23c-.042,0-.046.1,0,.152h0c.032.055.088.074.124.051a1.107,1.107,0,0,1,1.383.2.078.078,0,0,0,.125,0Z" transform="translate(-220.758 -145.204)" fill="#5c407b"/>
      <path id="Trazado_125010" data-name="Trazado 125010" d="M394.753,182.341s1.54,7.248-5.45,8.968a85.724,85.724,0,0,1-15.8,1.9l-.166,16.88-3.689.42s-10.974-22.745,1.946-27.2l11.817-.692,4.846-.655s4.846-1.526,4.92-1.3S394.643,182.465,394.753,182.341Z" transform="translate(-210.379 -108.875)" fill="#12263f"/>
      <path id="Trazado_125011" data-name="Trazado 125011" d="M369.152,118.216c-1.051-1.323-.646-2.439.779-4.408,2.162-2.983,4.827-3.43,7.1-5.427a27.744,27.744,0,0,0,4.159-6.925,6.059,6.059,0,0,1,6.455-3.924s-.235,5.929-.254,6.1a1.583,1.583,0,0,1-.461.258,29.682,29.682,0,0,1,2.651,2.813c.42.7,2.135,3.689,2.135,3.689s-2.974,8.267-3.255,10.577c-.148,1.226-1.992,1.577-4.076,1.692-1.314,2.531-3.144,5.1-5.072,4.933-3.781-.332-3.647-1.794-4.887-2.992s-3.873.065-5.565-2C367.515,121.052,369.784,119.046,369.152,118.216Z" transform="translate(-212.064 -64.065)" fill="#b89841"/>
      <path id="Trazado_125012" data-name="Trazado 125012" d="M399.36,152.073s1.314,13.371.078,15.1h5.072V151.28Z" transform="translate(-228.735 -93.057)" fill="#ffb3c5"/>
      <path id="Trazado_125013" data-name="Trazado 125013" d="M418.388,103.12s1.48,2.227,2.236,3.108c1.895,2.218,2.139,1.522,3.32,3.43a2.736,2.736,0,0,1-.747,3.942c-.747.595.493,2.789-.871,4.021-1.784,1.609-3.435.092-4.666.991s-1.494,2.241-4.408,1.992-2.882-9.775-2.882-9.775,2.384-5.072,2.476-5.072Z" transform="translate(-234.669 -67.103)" fill="#b89841"/>
      <path id="Trazado_125014" data-name="Trazado 125014" d="M411.322,131.51a48.323,48.323,0,0,1,7.1-.816c2.236.078-1.356,5.883-1.356,5.883l-3.647.083s-2.236-2.5-2.093-2.766a11.213,11.213,0,0,0,0-2.2Z" transform="translate(-235.178 -81.961)" fill="#ffb3c5"/>
      <path id="Trazado_125015" data-name="Trazado 125015" d="M416.717,122.41,418,126.3s-1.116,2.305-4.532,1.314a3.589,3.589,0,0,0-.134-2.467C412.808,123.489,416.717,122.41,416.717,122.41Z" transform="translate(-236.239 -77.499)" fill="#ffb3c5"/>
      <path id="Trazado_125016" data-name="Trazado 125016" d="M416.716,122.41l.6,1.844c-.36,1.328-1.522,2.232-3.716,2.513a5.294,5.294,0,0,0-.272-1.6C412.8,123.452,416.716,122.41,416.716,122.41Z" transform="translate(-236.238 -77.499)" fill="#ea94ad" opacity="0.6"/>
      <path id="Trazado_125017" data-name="Trazado 125017" d="M401.4,115.315a1.024,1.024,0,1,1-1.415-.742,1.139,1.139,0,0,1,1.415.742Z" transform="translate(-228.741 -73.248)" fill="#ea94ad"/>
      <path id="Trazado_125018" data-name="Trazado 125018" d="M402.969,112.4a5.166,5.166,0,0,1-.424-.862,9.854,9.854,0,0,1-.6-2.439c-.023-.166-.051-.327-.083-.489a5.339,5.339,0,1,1,10.568-1.2,1.148,1.148,0,0,1,1.033-.106,1.609,1.609,0,0,1-1.2,2.9.921.921,0,0,1-.24-.148,5.012,5.012,0,0,1-4.855,4.721,4.809,4.809,0,0,1-3.283-1.268,1.923,1.923,0,0,1-.184-.166A4.392,4.392,0,0,1,402.969,112.4Z" transform="translate(-230.025 -66.608)" fill="#ffb3c5"/>
      <path id="Trazado_125019" data-name="Trazado 125019" d="M406.439,114.13a3.137,3.137,0,0,1,.171.922,2.693,2.693,0,0,1,0,.461,1.232,1.232,0,0,1-.161.461l-.046.055-.042.051a.306.306,0,0,0-.051.065.368.368,0,0,0-.06.148.419.419,0,0,0,.106.318,1.3,1.3,0,0,0,.738.373,1.051,1.051,0,0,1-.922-.217.627.627,0,0,1-.212-.5.464.464,0,0,1,.028-.143.589.589,0,0,1,.06-.134.991.991,0,0,1,.083-.111l.032-.037.023-.032a1.169,1.169,0,0,0,.134-.364,4.175,4.175,0,0,0,.06-.429A4.355,4.355,0,0,0,406.439,114.13Z" transform="translate(-232.291 -73.036)" fill="#ea94ad"/>
      <path id="Trazado_125020" data-name="Trazado 125020" d="M411,114.941a.461.461,0,1,0,.461-.461A.461.461,0,0,0,411,114.941Z" transform="translate(-235.008 -73.225)" fill="#472a6a"/>
      <path id="Trazado_125021" data-name="Trazado 125021" d="M403.44,115.121a.461.461,0,1,0,.461-.461A.461.461,0,0,0,403.44,115.121Z" transform="translate(-230.934 -73.322)" fill="#472a6a"/>
      <path id="Trazado_125022" data-name="Trazado 125022" d="M408.314,122.115a1.494,1.494,0,0,0-1.231.166,1.093,1.093,0,0,0-1.153,0,1.222,1.222,0,0,0,1.3.894A1.093,1.093,0,0,0,408.314,122.115Z" transform="translate(-232.276 -77.305)" fill="#ea94ad" opacity="0.3" style="mix-blend-mode: multiply;isolation: isolate"/>
      <path id="Trazado_125023" data-name="Trazado 125023" d="M408.382,121.44a3.464,3.464,0,0,1-.374.267,3.39,3.39,0,0,1-.406.212,2.72,2.72,0,0,1-.867.235,2.43,2.43,0,0,1-.89-.1,3.371,3.371,0,0,1-.816-.406,2.768,2.768,0,0,0,.369.281,2.553,2.553,0,0,0,.42.212,2.454,2.454,0,0,0,.461.115,2.663,2.663,0,0,0,.461,0,2.536,2.536,0,0,0,.9-.267A2.679,2.679,0,0,0,408.382,121.44Z" transform="translate(-231.791 -76.976)" fill="#ea94ad"/>
      <path id="Trazado_125024" data-name="Trazado 125024" d="M410.57,111.85a4.423,4.423,0,0,1,.687-.138,2.19,2.19,0,0,1,.65,0,2.13,2.13,0,0,1,.613.184,3.17,3.17,0,0,1,.3.157c.106.055.2.124.314.18a2.253,2.253,0,0,0-.194-.318,1.6,1.6,0,0,0-.982-.567,1.549,1.549,0,0,0-.77.074A1.452,1.452,0,0,0,410.57,111.85Z" transform="translate(-234.776 -71.527)" fill="#f36b80"/>
      <path id="Trazado_125025" data-name="Trazado 125025" d="M403.079,112.007a1.429,1.429,0,0,0-.664-.341,1.632,1.632,0,0,0-.775,0,1.512,1.512,0,0,0-.669.392,1.636,1.636,0,0,0-.24.3,2.213,2.213,0,0,0-.152.337c.106-.069.194-.148.286-.217a1.915,1.915,0,0,1,.286-.189,2.14,2.14,0,0,1,.586-.263,2.306,2.306,0,0,1,.646-.088A4.657,4.657,0,0,1,403.079,112.007Z" transform="translate(-229.393 -71.683)" fill="#f36b80"/>
      <path id="Trazado_125026" data-name="Trazado 125026" d="M405.549,152.39a28.957,28.957,0,0,1,1.125,4.247,19.434,19.434,0,0,1-1.125,8.88c-1.061,2.923,7.94,1.3,8.119,1.213s7.608-2.965,7.608-2.965l.572-5.736.858-5.639-.4-3.32Z" transform="translate(-232.023 -91.866)" fill="#f2f2f2"/>
      <path id="Trazado_125027" data-name="Trazado 125027" d="M435.367,138.771s-1.153.1-1.028,2.1a46.08,46.08,0,0,0,1.06,5.819s9.083,19.688,11.066,21.385a.632.632,0,0,0,.387.148l3.495.046,2.61-.032a1.125,1.125,0,0,0-.8-.539l-2.854-.761a.415.415,0,0,1-.263-.2l-.922-1.669-6.893-20.605c-.7-1.637-2.375-2.573-3.523-3.938C436.884,139.532,435.971,138.674,435.367,138.771Z" transform="translate(-247.581 -86.312)" fill="#ffb3c5"/>
      <path id="Trazado_125028" data-name="Trazado 125028" d="M402.319,131.494s3.306,3.855,7.1-.816a12.167,12.167,0,0,1,7.2,1.844c3.048,2.185,4.878,7.036,4.878,7.036s-5.533,2.766-6.916,2.923H399.221a13.735,13.735,0,0,1-4.611-1.328S395.02,133.4,402.319,131.494Z" transform="translate(-226.175 -81.944)" fill="#f2f2f2"/>
      <path id="Trazado_125029" data-name="Trazado 125029" d="M432.61,143.64c.157.461.3.95.438,1.429s.272.959.4,1.443.244.968.35,1.457.207.977.286,1.471l-.115-.115a3.119,3.119,0,0,0,.507,0,4.076,4.076,0,0,0,.526-.06c.346-.065.7-.129,1.037-.226l.258-.069.254-.078c.171-.055.346-.1.512-.161l.507-.175.5-.194c.337-.129.664-.277,1-.41l.978-.461.973-.461.959-.489c-.3.194-.609.383-.922.567s-.627.36-.922.535-.641.337-.964.5l-.493.226c-.161.078-.327.152-.493.221a15.223,15.223,0,0,1-2.052.719l-.263.074-.267.06a5.292,5.292,0,0,1-.539.1c-.18.028-.364.051-.549.065a3.345,3.345,0,0,1-.567,0h-.1V149.5c-.148-.982-.346-1.955-.553-2.928l-.318-1.462Z" transform="translate(-246.654 -88.94)" fill="#5c407b"/>
      <path id="Trazado_125030" data-name="Trazado 125030" d="M405.635,141.21c-.217.567-.415,1.134-.59,1.706a14.482,14.482,0,0,0-.429,1.738,8.306,8.306,0,0,0-.115.885,6.3,6.3,0,0,0-.023.885,23.546,23.546,0,0,0,1.157,3.924,17.712,17.712,0,0,1-1.383-3.905,6.455,6.455,0,0,1,.078-1.844c.06-.3.124-.6.208-.894s.18-.581.29-.867a9.263,9.263,0,0,1,.807-1.628Z" transform="translate(-231.354 -87.63)" fill="#5c407b"/>
      <path id="Trazado_125031" data-name="Trazado 125031" d="M415.107,104.087s-5.676-1.383-8.387-5.224c0,0-.046-3.509,5.164-2.711C416.942,96.941,418.127,101.846,415.107,104.087Z" transform="translate(-232.702 -63.284)" fill="#b89841"/>
      <path id="Trazado_125032" data-name="Trazado 125032" d="M407.479,180.107a6.5,6.5,0,0,1,.71,6.782,6.8,6.8,0,0,1-4.8,3.592,85.242,85.242,0,0,1-15.8,1.9l-.166,16.88-3.689.424s-10.974-22.745,1.946-27.226l11.822-.687,4.841-.655s4.846-1.531,4.92-1.3a1.35,1.35,0,0,0,.212.3Z" transform="translate(-217.973 -108.422)" fill="#0e1c2f"/>
      <path id="Trazado_125033" data-name="Trazado 125033" d="M392.257,206.3c.189-.032.373-.065.558-.111s.369-.092.549-.148l.272-.088a2.368,2.368,0,0,1-.277-.083,2.339,2.339,0,0,1-.5-.254,3.227,3.227,0,0,1-.42-.373,2.821,2.821,0,0,1-.327-.461l.184.2c.069.06.129.129.2.184a2.94,2.94,0,0,0,.433.323,2.717,2.717,0,0,0,.484.226,1.844,1.844,0,0,0,.512.1h.3l-.272.124a4.158,4.158,0,0,1-.553.194c-.184.051-.373.088-.562.12s-.383.06-.572.074-.387,0-.576,0Z" transform="translate(-224.602 -121.89)" fill="#f2f2f2"/>
      <path id="Trazado_125034" data-name="Trazado 125034" d="M474.109,540.885l-2.527-.627-8.71-2.038-2.817,1.8s-1.8,7.714-1.655,7.714,4.781,2.7,5.634,2.508,10.411.613,10.789-.424,2.176-4.546,1.941-4.689S474.109,540.885,474.109,540.885Z" transform="translate(-260.549 -301.59)" fill="#ffb3c5"/>
      <path id="Trazado_125035" data-name="Trazado 125035" d="M468.6,523.87l-.452,6.621,6.455,3.974,2.568-1.263.143-8.2Z" transform="translate(-265.808 -293.856)" fill="#ffb3c5"/>
      <path id="Trazado_125036" data-name="Trazado 125036" d="M477.531,530.334l.092-5.33-8.714-1.134-.189,2.766a17.293,17.293,0,0,0,8.811,3.7Z" transform="translate(-266.115 -293.856)" fill="#ea94ad"/>
      <path id="Trazado_125037" data-name="Trazado 125037" d="M448,478.659s-4.233-10.554,1.817-15.529a18.818,18.818,0,0,1,18.194-3.642c5.09,1.817,9.088,9.978,7.608,15.151l-16.433-2.527Z" transform="translate(-254.171 -258.636)" fill="#cd7399"/>
      <path id="Trazado_125038" data-name="Trazado 125038" d="M505.572,495.521a2.586,2.586,0,0,0,1.66,3.288,2.735,2.735,0,0,0,2.979-2.305,2.579,2.579,0,0,0-1.655-3.283A2.735,2.735,0,0,0,505.572,495.521Z" transform="translate(-285.925 -277.315)" fill="#ea94ad"/>
      <path id="Trazado_125039" data-name="Trazado 125039" d="M475.12,491.883a11.5,11.5,0,0,0,.6-2.13,21.873,21.873,0,0,0,.313-5.754c-.028-.378-.032-.752-.028-1.13a11.706,11.706,0,0,0-.89-4.611,12.642,12.642,0,0,0-12.91-7.566,12.485,12.485,0,0,0-11.453,14.293,2.863,2.863,0,0,0-2.476.226c-1.383.89-1.577,2.946-.438,4.611s3.172,2.264,4.551,1.383a2.57,2.57,0,0,0,.507-.433,11.781,11.781,0,0,0,13.454,8.4,11.606,11.606,0,0,0,7.114-4.334,4.757,4.757,0,0,0,.36-.461A10.721,10.721,0,0,0,475.12,491.883Z" transform="translate(-254.464 -265.165)" fill="#ffb3c5"/>
      <path id="Trazado_125040" data-name="Trazado 125040" d="M478.2,500.829a1.162,1.162,0,0,1-.959,1.342,1.148,1.148,0,1,1,.959-1.342Z" transform="translate(-269.995 -280.931)" fill="#472a6a"/>
      <path id="Trazado_125041" data-name="Trazado 125041" d="M499.267,497.995a1.166,1.166,0,0,1-.959,1.346,1.153,1.153,0,1,1,.959-1.346Z" transform="translate(-281.345 -279.401)" fill="#472a6a"/>
      <path id="Trazado_125042" data-name="Trazado 125042" d="M474.9,496.58a7.531,7.531,0,0,0-1.747-.392,5.534,5.534,0,0,0-1.743.106,4.458,4.458,0,0,0-.83.267,4.308,4.308,0,0,0-.392.184c-.069.032-.129.069-.194.106s-.129.069-.189.111a9.1,9.1,0,0,0-1.383,1.12,4.681,4.681,0,0,1,1.2-1.383,4.092,4.092,0,0,1,.8-.5,4.39,4.39,0,0,1,2.789-.332,4.89,4.89,0,0,1,.895.267A3.859,3.859,0,0,1,474.9,496.58Z" transform="translate(-265.953 -278.716)" fill="#472a6a"/>
      <path id="Trazado_125043" data-name="Trazado 125043" d="M492.82,494.271a3.9,3.9,0,0,1,.659-.632,4.611,4.611,0,0,1,.788-.493,4.5,4.5,0,0,1,1.844-.461,4.149,4.149,0,0,1,.954.064,4.094,4.094,0,0,1,.922.272,4.7,4.7,0,0,1,1.517,1.01,8.788,8.788,0,0,0-1.669-.742l-.212-.06-.212-.051c-.143-.028-.286-.06-.429-.074a4.609,4.609,0,0,0-.871-.041,5.5,5.5,0,0,0-1.706.36,7.576,7.576,0,0,0-1.586.848Z" transform="translate(-279.103 -277.047)" fill="#472a6a"/>
      <path id="Trazado_125044" data-name="Trazado 125044" d="M452.134,482.648s8.124-4.482,11.988-10.144c0,0,.272,2.789-.563,3.9.332.152,5.953-2.909,6.741-7.451s-7.1-1.775-7.1-1.775-4.712-.115-4.9,0-3.228,2.467-3.361,2.633-3.661,6.639-3.661,6.639l-.807,2.342-.835,4.09Z" transform="translate(-255.832 -262.852)" fill="#cd7399"/>
      <path id="Trazado_125045" data-name="Trazado 125045" d="M485.43,515.3a3.412,3.412,0,0,1,2.743,0,2.5,2.5,0,0,1,2.522-.378,2.688,2.688,0,0,1-2.587,2.268A2.37,2.37,0,0,1,485.43,515.3Z" transform="translate(-275.12 -288.914)" fill="#ea94ad" opacity="0.3" style="mix-blend-mode: multiply;isolation: isolate"/>
      <path id="Trazado_125046" data-name="Trazado 125046" d="M482.58,514.1a6.8,6.8,0,0,0,.9.461,6.952,6.952,0,0,0,.945.332,6.182,6.182,0,0,0,1.969.235,5.443,5.443,0,0,0,1.923-.461,7.4,7.4,0,0,0,1.674-1.1,6.191,6.191,0,0,1-.729.705,5.386,5.386,0,0,1-.858.563,4.751,4.751,0,0,1-.968.383,5.071,5.071,0,0,1-3.075-.138A5.774,5.774,0,0,1,482.58,514.1Z" transform="translate(-273.585 -288.305)" fill="#ea94ad"/>
      <path id="Trazado_125047" data-name="Trazado 125047" d="M490.21,499.52a13.3,13.3,0,0,1,1.088,1.494,12.037,12.037,0,0,1,.89,1.623,4.846,4.846,0,0,1,.3.922,1.53,1.53,0,0,1,0,.254v.143a.561.561,0,0,1-.051.157l-.046.078-.046.051c-.028.028-.055.065-.088.092l-.189.161a4.756,4.756,0,0,1-.825.5,7.774,7.774,0,0,1-.89.355,10.484,10.484,0,0,0,1.512-1.079l.157-.157.065-.078.032-.041h0a.669.669,0,0,0,0-.35,4.53,4.53,0,0,0-.3-.821c-.235-.549-.521-1.088-.793-1.632S490.473,500.073,490.21,499.52Z" transform="translate(-277.697 -280.733)" fill="#ea94ad"/>
      <path id="Trazado_125048" data-name="Trazado 125048" d="M426.542,449.977s-7.479-14.385-19.974-13.154-15.238,11.356-14.676,16.373,3.974,10.6.756,17.608-2.462,17.521,7.377,16.709,7.668-10.868,7.76-14.45,7-3.228,5.3-9.738-6.248-13.251.092-14.2,10.144,1.987,10.144,1.987Z" transform="translate(-224.199 -246.904)" fill="#cd7399"/>
      <path id="Trazado_125049" data-name="Trazado 125049" d="M462.07,570.782l.152-16c8.235,4.15,15.81-.853,15.81-.853l2.07,16.852Z" transform="translate(-262.531 -310.056)" fill="#e1dde7"/>
      <path id="Trazado_125050" data-name="Trazado 125050" d="M493.181,565.431,492.48,544s8.8,1.139,10.365,13.205c.267,2.075.461,4.91.586,8.239Z" transform="translate(-278.92 -304.705)" fill="#5e5385"/>
      <path id="Trazado_125051" data-name="Trazado 125051" d="M414.27,564.423c1.277-3.228,2.573-6.257,3.859-8.885a23.464,23.464,0,0,1,13.486-11.822l4.657-1.586s1.383,9.576,2.633,22.293Z" transform="translate(-236.77 -303.697)" fill="#5e5385"/>
      <path id="Trazado_125052" data-name="Trazado 125052" d="M433.24,339.836a93.531,93.531,0,0,1,23.307,0c13.689,1.568-7.589,13.689-9.683,12.91s-12.2-3.283-12.592-4.067S433.24,339.836,433.24,339.836Z" transform="translate(-246.994 -194.3)" fill="#ffb3c5"/>
      <rect id="Rectángulo_30266" data-name="Rectángulo 30266" width="8.871" height="15.543" transform="translate(193.291 138.472)" fill="#ffb3c5"/>
      <path id="Trazado_125053" data-name="Trazado 125053" d="M457.377,324.9v-5.3H448.52v4.509C450.424,325.133,453.251,325.718,457.377,324.9Z" transform="translate(-255.229 -183.77)" fill="#ffb3c5"/>
      <path id="Trazado_125054" data-name="Trazado 125054" d="M452.115,266.979a3.3,3.3,0,0,0-2.969.12,15.769,15.769,0,0,0-31.537,0,3.288,3.288,0,0,0-2.965-.12c-1.775.876-2.305,3.375-1.231,5.588s3.417,3.3,5.187,2.425a2.765,2.765,0,0,0,.664-.461,14.217,14.217,0,0,0,28.232,0,2.881,2.881,0,0,0,.664.461c1.775.871,4.1-.212,5.192-2.425S453.89,267.855,452.115,266.979Z" transform="translate(-236.01 -146.977)" fill="#ffb3c5"/>
      <path id="Trazado_125055" data-name="Trazado 125055" d="M445.628,290.788a1.328,1.328,0,1,1-1.383-1.25A1.328,1.328,0,0,1,445.628,290.788Z" transform="translate(-252.24 -167.568)" fill="#472a6a"/>
      <path id="Trazado_125056" data-name="Trazado 125056" d="M470.408,291.052a1.328,1.328,0,1,1-1.383-1.254,1.328,1.328,0,0,1,1.383,1.254Z" transform="translate(-265.594 -167.708)" fill="#472a6a"/>
      <path id="Trazado_125057" data-name="Trazado 125057" d="M443.257,284.526a12.387,12.387,0,0,0-1.927-.521,6.453,6.453,0,0,0-1.844-.078,6.221,6.221,0,0,0-1.794.461l-.221.083c-.078.032-.143.074-.217.106l-.461.217c-.3.148-.572.337-.922.484a5.727,5.727,0,0,1,.613-.858,4.778,4.778,0,0,1,.816-.7,4.288,4.288,0,0,1,2.056-.747,4.546,4.546,0,0,1,2.167.309A4.186,4.186,0,0,1,443.257,284.526Z" transform="translate(-248.411 -164.017)" fill="#472a6a"/>
      <path id="Trazado_125058" data-name="Trazado 125058" d="M463.49,284.443a4.251,4.251,0,0,1,1.7-1.259,4.536,4.536,0,0,1,2.162-.327,4.357,4.357,0,0,1,2.066.733,5.177,5.177,0,0,1,.821.692,6.109,6.109,0,0,1,.618.858c-.327-.143-.609-.332-.922-.461l-.461-.212c-.074-.032-.143-.074-.217-.1l-.226-.083a6,6,0,0,0-1.8-.461,6.632,6.632,0,0,0-1.844.088,12.579,12.579,0,0,0-1.9.535Z" transform="translate(-263.296 -163.957)" fill="#472a6a"/>
      <path id="Trazado_125059" data-name="Trazado 125059" d="M451.692,237.988c-2.508-5.5-13.583-9.761-20.679-8.8a6.642,6.642,0,0,0,.558,2.794c-.715-.922-3.546-3.689-10.642-2.029,0,0,.954,2.305,1.475,3.2a11.988,11.988,0,0,1-4.5-.987s-2.241,3.781-.493,7.469L415,238.679s.779,8.345,1.757,13.463h0c.1,1.549.235,2.536.235,2.536.129,0,1.526-.194,3.426,1.72l.4-.2c1.586-.8,1.9-7.949,4.422-10.821,4.343-1.844,13.929-2.144,17.313-1.047,3.951,1.277,4.067,10.927,5.925,11.868l.4.2a3.606,3.606,0,0,1,3.426-1.706C452.306,254.692,454.191,243.493,451.692,237.988Z" transform="translate(-237.164 -134.972)" fill="#12263f"/>
      <path id="Trazado_125060" data-name="Trazado 125060" d="M457.068,283.85a18.641,18.641,0,0,1,1.194,2.305,17.632,17.632,0,0,1,.922,2.43,6.753,6.753,0,0,1,.24,1.314,2.381,2.381,0,0,1,0,.36,1.437,1.437,0,0,1-.037.194.866.866,0,0,1-.1.212l-.078.1-.069.06c-.046.037-.088.078-.134.111s-.189.134-.286.189a6.371,6.371,0,0,1-1.2.549,8.5,8.5,0,0,1-1.254.327,14.29,14.29,0,0,0,2.222-1.217c.083-.06.157-.124.235-.189l.106-.1.051-.051v-.028a.963.963,0,0,0,.028-.5,6.729,6.729,0,0,0-.249-1.2c-.226-.811-.507-1.618-.779-2.425S457.326,284.675,457.068,283.85Z" transform="translate(-259.405 -164.503)" fill="#ea94ad"/>
      <path id="Trazado_125061" data-name="Trazado 125061" d="M457.721,308.27c-.323,1.323-1.844,2.338-3.73,2.356s-3.43-.959-3.781-2.273Z" transform="translate(-256.14 -177.664)" fill="#f2f2f2"/>
      <path id="Trazado_125062" data-name="Trazado 125062" d="M456.545,302.05s-3.163,1.614-5.178,0a22.977,22.977,0,0,0-8,0c-2.02,1.614-5.182,0-5.182,0a6.335,6.335,0,0,0,3.343,2.7l-.618.244a6.036,6.036,0,0,0,3.933-.258c.235-.069.461-.143.715-.24a4.885,4.885,0,0,0,1.286-.705s.424-.051.521-.281c.092.231.521.281.521.281a4.822,4.822,0,0,0,1.282.705c.244.1.484.171.719.24a6.036,6.036,0,0,0,3.933.258l-.622-.244A6.313,6.313,0,0,0,456.545,302.05Z" transform="translate(-249.662 -173.874)" fill="#12263f"/>
      <path id="Trazado_125063" data-name="Trazado 125063" d="M454.316,283.423l-2.112-1.8c-.461,3.845-2.089,12.223-7.322,17.023h0a2.508,2.508,0,0,1-3.168.157,4.058,4.058,0,0,1-1.356-1.8H438.1a4,4,0,0,1-3.177,2.536,3.536,3.536,0,0,1-2.877-.895h0c-5.229-4.8-6.842-13.177-7.317-17.023l-2.144,1.655s1.775,2.554,1.688,7.585a15.452,15.452,0,0,0,.6,3.518h0s.844,4.685,2.647,6.524l.258-.987a12.1,12.1,0,0,0,3.536,2.808,10.428,10.428,0,0,0,4.044,2.767L434.72,304l.042-.074a34.691,34.691,0,0,1,4.334,2.25s2.218-1.3,3.914-2.181c.171-.088.314-.171.461-.249l-.226,1.314a15.584,15.584,0,0,0,2.66-2.5,12.115,12.115,0,0,0,3.112-2.48l.184,1.314c1.554-1.439,2.55-5.994,2.55-5.994h0a15.932,15.932,0,0,0,.922-4.537C452.573,285.83,454.316,283.423,454.316,283.423Z" transform="translate(-241.249 -163.301)" fill="#12263f"/>
      <path id="Trazado_125064" data-name="Trazado 125064" d="M455.4,352.3c-3.942-6.1-12.657-12.357-21.076-14.044A14.754,14.754,0,0,1,422,344.683c-6.58.051-9.309-3.633-10.406-6.169-3.25.83-8.719,2.725-12.878,6.7-1.6,1.526-3.924,4.067-6.506,7.087Z" transform="translate(-224.882 -193.826)" fill="#5e5385"/>
      <path id="Trazado_125065" data-name="Trazado 125065" d="M274.3,308.722s6.893-.761,8.23,13.606l.922,14.054h-8.295s.9-16.931.752-17.521S274.3,308.722,274.3,308.722Z" transform="translate(-161.337 -177.903)" fill="#7d6eb2"/>
      <path id="Trazado_125066" data-name="Trazado 125066" d="M198.578,335.865c1.356-3.481,2.393-6.22,2.564-6.861l1.3,6.861h27.955c1.692-10.079,3.541-28.01-4.74-27.761l-15.547-.2s-10.181-1.116-13.408,2.854c-1.978,2.434-6.842,13.712-10.457,25.11Z" transform="translate(-113.879 -177.387)" fill="#b1a8d1"/>
      <path id="Trazado_125067" data-name="Trazado 125067" d="M247.286,296.837l.018,1.715.194,4.265-8.41-1.107-.908-.821-.083-3.665-.277-3.034h5.593Z" transform="translate(-141.677 -170.075)" fill="#ffb3c5"/>
      <path id="Trazado_125068" data-name="Trazado 125068" d="M273.477,268.438a2.213,2.213,0,1,0,4.053,1.489,2.212,2.212,0,1,0-4.053-1.489Z" transform="translate(-160.786 -155.177)" fill="#ea94ad"/>
      <path id="Trazado_125069" data-name="Trazado 125069" d="M237.62,292.52s.221,1.724.369,3.8a8.936,8.936,0,0,0,9.221,1.328,11.082,11.082,0,0,1,.171-3.228C247.939,292.774,237.62,292.52,237.62,292.52Z" transform="translate(-141.569 -169.175)" fill="#ea94ad"/>
      <path id="Trazado_125070" data-name="Trazado 125070" d="M244.64,263.046a10.941,10.941,0,0,0,.8-1.913,21.493,21.493,0,0,0,.973-5.339c.023-.355.065-.705.111-1.056a11.527,11.527,0,1,0-22.925-1.2,2.467,2.467,0,0,0-2.245-.1c-1.346.655-1.771,2.554-.95,4.233s2.577,2.513,3.924,1.844a2.144,2.144,0,0,0,.507-.346A10.8,10.8,0,0,0,235.9,268.7a10.323,10.323,0,0,0,6.916-3.163,4.87,4.87,0,0,0,.378-.378A10.008,10.008,0,0,0,244.64,263.046Z" transform="translate(-132.064 -141.707)" fill="#ffb3c5"/>
      <path id="Trazado_125071" data-name="Trazado 125071" d="M248.469,269.8a1.084,1.084,0,1,1-1.134-1.024A1.084,1.084,0,0,1,248.469,269.8Z" transform="translate(-146.249 -156.38)" fill="#472a6a"/>
      <path id="Trazado_125072" data-name="Trazado 125072" d="M267.719,269.8a1.084,1.084,0,1,1-1.134-1.024A1.084,1.084,0,0,1,267.719,269.8Z" transform="translate(-156.623 -156.38)" fill="#472a6a"/>
      <path id="Trazado_125073" data-name="Trazado 125073" d="M256.878,266.5v1.042a9.881,9.881,0,0,0,.065,1.042,7.573,7.573,0,0,0,.166,1.019,2.591,2.591,0,0,0,.387.922.81.81,0,0,0,.078.092l.088.092a1.006,1.006,0,0,1,.1.1.975.975,0,0,1,.088.106,1.181,1.181,0,0,1,.212.521,1.282,1.282,0,0,1-.337,1.028,2.148,2.148,0,0,1-.894.581,3.08,3.08,0,0,1-1.037.171,4.56,4.56,0,0,0,.512-.092,2.906,2.906,0,0,0,.489-.166,2.089,2.089,0,0,0,.811-.59,1.13,1.13,0,0,0,.277-.922.977.977,0,0,0-.189-.438.46.46,0,0,0-.074-.092l-.088-.088-.092-.1a.662.662,0,0,1-.092-.106,2.137,2.137,0,0,1-.258-.484,3.437,3.437,0,0,1-.157-.512,7.466,7.466,0,0,1-.12-1.056A11.339,11.339,0,0,1,256.878,266.5Z" transform="translate(-151.361 -155.153)" fill="#ea94ad"/>
      <path id="Trazado_125074" data-name="Trazado 125074" d="M245.978,265.763a6.635,6.635,0,0,0-1.526-.586,4.8,4.8,0,0,0-1.577-.12,3.692,3.692,0,0,0-.775.148c-.129.032-.254.078-.378.12l-.184.078a1.578,1.578,0,0,0-.184.078,8.165,8.165,0,0,0-1.383.871,4.376,4.376,0,0,1,1.24-1.139,4,4,0,0,1,.779-.364,3.864,3.864,0,0,1,.848-.18,3.934,3.934,0,0,1,1.7.217,4.7,4.7,0,0,1,.77.364,3.429,3.429,0,0,1,.669.512Z" transform="translate(-142.836 -154.157)" fill="#f36b80"/>
      <path id="Trazado_125075" data-name="Trazado 125075" d="M262.42,265.763a3.3,3.3,0,0,1,.669-.512,4.37,4.37,0,0,1,.77-.364,3.914,3.914,0,0,1,1.7-.217,3.754,3.754,0,0,1,.848.18,3.875,3.875,0,0,1,.779.364,4.392,4.392,0,0,1,1.245,1.139,8.194,8.194,0,0,0-1.383-.871,1.311,1.311,0,0,0-.184-.078l-.184-.078c-.124-.042-.249-.088-.373-.12a3.763,3.763,0,0,0-.775-.148,4.821,4.821,0,0,0-1.581.12A6.6,6.6,0,0,0,262.42,265.763Z" transform="translate(-154.935 -154.157)" fill="#f36b80"/>
      <path id="Trazado_125076" data-name="Trazado 125076" d="M233.82,307.8s1.328,1.683,3,3.905a6.218,6.218,0,0,0,11.186-3.407v-.217Z" transform="translate(-139.521 -177.41)" fill="#ffb3c5"/>
      <path id="Trazado_125077" data-name="Trazado 125077" d="M218.58,338.324a14.13,14.13,0,0,0,.383-1.628c.1-.544.175-1.1.249-1.646.129-1.107.2-2.213.231-3.324l.023-.835v-.835c0-.558-.028-1.111-.037-1.669,0-.277-.032-.558-.041-.835l-.042-.835c-.037-.558-.083-1.111-.115-1.669.092.549.171,1.1.254,1.655s.124,1.111.161,1.669l.051.839c0,.281.028.558.032.839v1.678a26.247,26.247,0,0,1-.3,3.347c-.046.277-.088.553-.148.83s-.111.549-.184.816A10.77,10.77,0,0,1,218.58,338.324Z" transform="translate(-131.308 -186.707)" fill="#472a6a"/>
      <path id="Trazado_125078" data-name="Trazado 125078" d="M247.522,238.84c-2.13-7.322-11.854-7.58-11.854-7.58-15.045,1.042-12.675,14.238-12.177,16.419a2.453,2.453,0,0,1,1.761.309,4.151,4.151,0,0,1,.756.516c1.771-.539,2.305-3.481,3.227-4.9,1.245-1.927,6.727-.922,8.807-2.305a5.127,5.127,0,0,0,2.305-3.476c8.023,1.273,7.9,9.752,7.9,9.752a2.988,2.988,0,0,1,.775-.042S249.426,245.378,247.522,238.84Z" transform="translate(-133.72 -136.161)" fill="#b89841"/>
      <path id="Trazado_125079" data-name="Trazado 125079" d="M252.49,284.7a2.7,2.7,0,0,1,2.236.3,1.989,1.989,0,0,1,2.093-.032,2.222,2.222,0,0,1-2.351,1.628A1.987,1.987,0,0,1,252.49,284.7Z" transform="translate(-149.583 -164.896)" fill="#ea94ad" opacity="0.3" style="mix-blend-mode: multiply;isolation: isolate"/>
      <path id="Trazado_125080" data-name="Trazado 125080" d="M250.3,283.48a5.861,5.861,0,0,0,.682.461,5.593,5.593,0,0,0,.733.392,5.027,5.027,0,0,0,1.581.42,4.192,4.192,0,0,0,1.618-.18,5.993,5.993,0,0,0,1.48-.738,4.842,4.842,0,0,1-.669.512,4.893,4.893,0,0,1-.761.383,4.22,4.22,0,0,1-.83.212,4.1,4.1,0,0,1-.858.023,4.468,4.468,0,0,1-1.632-.489A4.86,4.86,0,0,1,250.3,283.48Z" transform="translate(-148.403 -164.304)" fill="#ea94ad"/>
      <path id="Trazado_125081" data-name="Trazado 125081" d="M198.193,240.569s-13.7-5.966-20.568,3.689-4.763,16.935-11.024,21.67c0,0,13.159,8.71,17.761-5.27s15.077-16.294,15.077-16.294Z" transform="translate(-103.295 -140.195)" fill="#b89841"/>
      <path id="Trazado_125082" data-name="Trazado 125082" d="M158.769,502.095l-72.2-16.626a6.589,6.589,0,0,1-4.943-7.9l16.626-72.2a6.589,6.589,0,0,1,7.894-4.943l72.2,16.626a6.589,6.589,0,0,1,4.943,7.9l-16.626,72.2A6.589,6.589,0,0,1,158.769,502.095Z" transform="translate(-57.407 -227.237)" fill="#f2f2f2"/>
      <path id="Trazado_125083" data-name="Trazado 125083" d="M212,563.788c2.305-6.746,6.584-18.858,6.584-18.858a108.812,108.812,0,0,1,1.78,20.781Z" transform="translate(-127.762 -305.206)" fill="#34bed1"/>
      <path id="Trazado_125084" data-name="Trazado 125084" d="M174,553.76Z" transform="translate(-107.283 -309.965)" fill="#ffb3c5"/>
      <path id="Trazado_125085" data-name="Trazado 125085" d="M173.89,551.6Z" transform="translate(-107.223 -308.8)" fill="#ffb3c5"/>
      <path id="Trazado_125086" data-name="Trazado 125086" d="M173.77,549.48Z" transform="translate(-107.159 -307.658)" fill="#ffb3c5"/>
      <path id="Trazado_125087" data-name="Trazado 125087" d="M173.57,545.62Z" transform="translate(-107.051 -305.578)" fill="#ffb3c5"/>
      <path id="Trazado_125088" data-name="Trazado 125088" d="M123.59,538.849c6.57-17.452,11.453-21.527,11.762-21.707,6.58-3.868,26.7,4.016,26.7,4.016s7.764,2.767,8.89,8.216c.461,2.208-.7,10.637-2.232,19.858Z" transform="translate(-80.115 -289.654)" fill="#31dae7"/>
      <path id="Trazado_125089" data-name="Trazado 125089" d="M134.42,542.884c.074-1.222.189-2.434.355-3.633,2.135-15.073,11.1-22.491,15.967-14.754a11.425,11.425,0,0,1,1.674,5.57c.161,3.463.765,10.683,1.586,17.3Z" transform="translate(-85.952 -292.522)" fill="#34bed1"/>
      <path id="Trazado_125090" data-name="Trazado 125090" d="M173.32,540.74Z" transform="translate(-106.916 -302.948)" fill="#ffb3c5"/>
      <path id="Trazado_125091" data-name="Trazado 125091" d="M173.4,542.176v-.046A.157.157,0,0,0,173.4,542.176Z" transform="translate(-106.957 -303.697)" fill="#ffb3c5"/>
      <path id="Trazado_125092" data-name="Trazado 125092" d="M173.478,543.821v-.1A.746.746,0,0,0,173.478,543.821Z" transform="translate(-107 -304.554)" fill="#ffb3c5"/>
      <path id="Trazado_125093" data-name="Trazado 125093" d="M189.355,511.793l1.411-8.783-8.382-3.32-3.689,9.9a2.476,2.476,0,0,0,1.411,3.172,26.862,26.862,0,0,0,5.727,1.632A3.131,3.131,0,0,0,189.355,511.793Z" transform="translate(-109.728 -280.825)" fill="#ffb3c5"/>
      <path id="Trazado_125094" data-name="Trazado 125094" d="M192.593,508.4l.867-5.395-8.382-3.32-1.568,4.191C184.746,506.071,187.332,508.713,192.593,508.4Z" transform="translate(-112.408 -280.825)" fill="#ea94ad"/>
      <path id="Trazado_125095" data-name="Trazado 125095" d="M225.019,481.857c-.922,1.5-.692,3.315.507,4.048s2.919.115,3.836-1.383.692-3.311-.507-4.044S225.936,480.358,225.019,481.857Z" transform="translate(-134.473 -270.304)" fill="#ea94ad"/>
      <path id="Trazado_125096" data-name="Trazado 125096" d="M189.794,472.231a13.407,13.407,0,0,0,1.383-2.033,25.361,25.361,0,0,0,2.356-5.957c.106-.4.235-.8.373-1.194a13.606,13.606,0,1,0-26.281-6.686,2.932,2.932,0,0,0-2.577-.632c-1.711.461-2.642,2.55-2.079,4.684s2.407,3.5,4.117,3.052a2.362,2.362,0,0,0,.664-.281,12.761,12.761,0,0,0,10.628,13.592,12.214,12.214,0,0,0,8.733-2.066,6.069,6.069,0,0,0,.521-.35A11.872,11.872,0,0,0,189.794,472.231Z" transform="translate(-101.249 -251.351)" fill="#ffb3c5"/>
      <path id="Trazado_125097" data-name="Trazado 125097" d="M205.9,475.19c-.051.779-.12,1.535-.152,2.282a5.071,5.071,0,0,0,.217,2.052l.051.088a.874.874,0,0,0,.065.111,2.231,2.231,0,0,1,.175.309,1.581,1.581,0,0,1,.129.733,1.609,1.609,0,0,1-.715,1.194,2.623,2.623,0,0,1-2.375.221,3.227,3.227,0,0,0,1.992-.7,1.037,1.037,0,0,0,.36-.752.854.854,0,0,0-.1-.378.752.752,0,0,0-.111-.184l-.083-.138-.092-.161a3.006,3.006,0,0,1-.244-1.277,6.305,6.305,0,0,1,.124-1.19A8.111,8.111,0,0,1,205.9,475.19Z" transform="translate(-123.068 -267.621)" fill="#ea94ad"/>
      <path id="Trazado_125098" data-name="Trazado 125098" d="M195.031,468.989a12.262,12.262,0,0,0-1.688-.586,5.893,5.893,0,0,0-1.637-.2,5.617,5.617,0,0,0-1.618.258c-.281.06-.535.2-.825.286s-.539.249-.853.35a5.074,5.074,0,0,1,.6-.738,4.189,4.189,0,0,1,.779-.572,3.827,3.827,0,0,1,1.9-.521,3.961,3.961,0,0,1,1.918.461A3.689,3.689,0,0,1,195.031,468.989Z" transform="translate(-115.049 -263.352)" fill="#472a6a"/>
      <path id="Trazado_125099" data-name="Trazado 125099" d="M213.94,472.621a3.633,3.633,0,0,1,1.8-.627,4.062,4.062,0,0,1,1.946.318,3.8,3.8,0,0,1,1.554,1.213,4.1,4.1,0,0,1,.5.825,4.956,4.956,0,0,1,.277.922c-.249-.212-.461-.461-.655-.65a8.4,8.4,0,0,0-.65-.581,5.578,5.578,0,0,0-1.383-.862,6,6,0,0,0-1.586-.461A12.3,12.3,0,0,0,213.94,472.621Z" transform="translate(-128.807 -265.891)" fill="#472a6a"/>
      <path id="Trazado_125100" data-name="Trazado 125100" d="M195.038,475.836a1.213,1.213,0,1,1-.415-.836,1.217,1.217,0,0,1,.415.836Z" transform="translate(-117.31 -267.358)" fill="#472a6a"/>
      <path id="Trazado_125101" data-name="Trazado 125101" d="M217.328,480.346a1.213,1.213,0,1,1-.415-.836A1.217,1.217,0,0,1,217.328,480.346Z" transform="translate(-129.323 -269.789)" fill="#472a6a"/>
      <path id="Trazado_125102" data-name="Trazado 125102" d="M196,448.634s2.305.29,3.228-.512c0,0-3.006.42-3.578-3.131a12.6,12.6,0,0,0-7.193-9.378c-4.2-1.844-15.755-3.4-19.227-1.047a11.818,11.818,0,0,0-5.616,9.019c-.544,4.016-2.015,5.431-3.168,5.233a3.656,3.656,0,0,0,2.946.337,2.69,2.69,0,0,1-2.061,1.923s3.689.4,4.906-1.7c0,0-.867,4.316-1.987,5.1,0,0,3.126-.632,5.261-7.589,0,0,12.689-2.19,15.8-7.377,0,0-2.766,5.265-4.8,5.763a8.71,8.71,0,0,0,8.548-3.149s3.075,3.606,3.652,5.736A30.83,30.83,0,0,1,193,455.1l2.628-5.016a3.154,3.154,0,0,0,3.011.894S196.234,449.75,196,448.634Z" transform="translate(-99.98 -245.086)" fill="#12263f"/>
      <path id="Trazado_125103" data-name="Trazado 125103" d="M193.46,490.09a6.231,6.231,0,0,0,.871,1.268,4.008,4.008,0,0,0,1.157.922,1.994,1.994,0,0,0,.332.157,1.776,1.776,0,0,0,.341.124l.36.106.369.065.184.032h.189l.383.028h.784a6.948,6.948,0,0,1-.765.217l-.4.046h-.406a3.5,3.5,0,0,1-1.586-.406c-.12-.074-.244-.134-.355-.217l-.327-.258-.286-.3c-.092-.106-.171-.217-.254-.323A3.444,3.444,0,0,1,193.46,490.09Z" transform="translate(-117.77 -275.651)" fill="#ea94ad"/>
      <rect id="Rectángulo_30267" data-name="Rectángulo 30267" width="7.751" height="3.2" transform="translate(287.202 114.028) rotate(-82.45)" fill="#ffb3c5"/>
      <path id="Trazado_125104" data-name="Trazado 125104" d="M644.592,234.5a1.19,1.19,0,0,1,1.056.184,5.69,5.69,0,0,1,11.278,1.494,1.189,1.189,0,0,1,1.07.1,1.653,1.653,0,0,1-1.8,2.679,1.252,1.252,0,0,1-.217-.194,5.132,5.132,0,0,1-10.1-1.342.981.981,0,0,1-.258.134,1.654,1.654,0,0,1-1.033-3.057Z" transform="translate(-360.46 -135.41)" fill="#ffb3c5"/>
      <path id="Trazado_125105" data-name="Trazado 125105" d="M662.824,244.289a.461.461,0,1,0,.2-.313A.461.461,0,0,0,662.824,244.289Z" transform="translate(-370.72 -142.97)" fill="#472a6a"/>
      <path id="Trazado_125106" data-name="Trazado 125106" d="M653.987,243.23a.461.461,0,0,0,.378.558.47.47,0,1,0,.18-.922.461.461,0,0,0-.558.364Z" transform="translate(-365.954 -142.409)" fill="#472a6a"/>
      <path id="Trazado_125107" data-name="Trazado 125107" d="M662,242a4.465,4.465,0,0,1,.715-.092,2.306,2.306,0,0,1,.669.06,2.143,2.143,0,0,1,.618.249l.074.037c.028,0,.051.037.074.051l.148.1c.1.069.189.148.3.217a2.369,2.369,0,0,0-.18-.337,1.683,1.683,0,0,0-.258-.286,1.563,1.563,0,0,0-.7-.369,1.687,1.687,0,0,0-.789,0A1.521,1.521,0,0,0,662,242Z" transform="translate(-370.279 -141.722)" fill="#f36b80"/>
      <path id="Trazado_125108" data-name="Trazado 125108" d="M654.71,241.05a1.458,1.458,0,0,0-.549-.535,1.651,1.651,0,0,0-.756-.217,1.6,1.6,0,0,0-.775.161,1.892,1.892,0,0,0-.327.212,1.849,1.849,0,0,0-.263.277c.129-.037.235-.092.351-.129l.17-.055.083-.028h.083a2.178,2.178,0,0,1,.664-.074,2.585,2.585,0,0,1,.659.12A5.009,5.009,0,0,1,654.71,241.05Z" transform="translate(-364.911 -141.031)" fill="#f36b80"/>
      <path id="Trazado_125109" data-name="Trazado 125109" d="M647.36,224.116c1.157-1.844,5.321-2.849,7.838-2.167a2.441,2.441,0,0,1-.332.973c.3-.3,1.443-1.157,3.9-.221,0,0-.461.784-.678,1.074a4.3,4.3,0,0,0,1.655-.138,3.131,3.131,0,0,1-.18,2.7l.922-.231s-.678,2.946-1.268,4.731h0c-.111.549-.2.894-.2.894a1.651,1.651,0,0,0-1.309.461l-.134-.092c-.526-.364-.3-2.932-1.065-4.08a12.809,12.809,0,0,0-6.146-1.2c-1.471.272-1.973,3.716-2.679,3.965l-.152.055a1.3,1.3,0,0,0-1.143-.775S646.2,225.965,647.36,224.116Z" transform="translate(-361.859 -131.027)" fill="#f36b80"/>
      <path id="Trazado_125110" data-name="Trazado 125110" d="M658.57,241.3a8.028,8.028,0,0,0-.535.761,7.456,7.456,0,0,0-.461.83,2.518,2.518,0,0,0-.148.461.612.612,0,0,0,0,.129v.074a.26.26,0,0,0,0,.078.2.2,0,0,1,0,.041l.023.023.042.046c.032.028.06.06.092.083a2.7,2.7,0,0,0,.406.254,2.769,2.769,0,0,0,.433.175,5.23,5.23,0,0,1-.738-.539l-.074-.078-.037-.041v-.023h0a.393.393,0,0,1,0-.175,2.529,2.529,0,0,1,.148-.42c.12-.281.258-.553.392-.83S658.44,241.581,658.57,241.3Z" transform="translate(-367.812 -141.572)" fill="#ea94ad"/>
      <path id="Trazado_125111" data-name="Trazado 125111" d="M655.71,249.63a1.517,1.517,0,0,0,2.683.387Z" transform="translate(-366.889 -146.061)" fill="#f2f2f2"/>
      <path id="Trazado_125112" data-name="Trazado 125112" d="M656.726,259.793l-7.806-1.033,1.651,3.758a30.933,30.933,0,0,0,3.822.507A24.839,24.839,0,0,0,656.726,259.793Z" transform="translate(-363.229 -150.981)" fill="#ffb3c5"/>
      <path id="Trazado_125113" data-name="Trazado 125113" d="M646.486,305.143s3.453,30.786,2.891,41.5l-6.1.728-6.349-35.623-.807.032-4.09,35.83H626.5s-.922-35.766,2.07-45.845S646.486,305.143,646.486,305.143Z" transform="translate(-351.076 -172.139)" fill="#7dccd4"/>
      <path id="Trazado_125114" data-name="Trazado 125114" d="M665.38,407.121l.129,4.459,2.96,2.149a17.509,17.509,0,0,0,1.1-2.4c-.028-.258,0-5.376,0-5.376Z" transform="translate(-372.1 -230.306)" fill="#ffb3c5"/>
      <path id="Trazado_125115" data-name="Trazado 125115" d="M631.582,407.148l-.129,4.459-2.96,2.149a16.238,16.238,0,0,1-.922-2.4c.046-.258-.171-5.353-.171-5.353Z" transform="translate(-351.632 -230.333)" fill="#ffb3c5"/>
      <path id="Trazado_125116" data-name="Trazado 125116" d="M668.875,402.649l-6.414.761a.309.309,0,0,0-.267.364l.438,2.264a.3.3,0,0,0,.341.244l5.994-.83a.313.313,0,0,0,.267-.309l-.028-2.195a.3.3,0,0,0-.332-.3Z" transform="translate(-370.38 -228.526)" fill="#26aab7"/>
      <path id="Trazado_125117" data-name="Trazado 125117" d="M682.683,253.116l-1.983-5.8,1.646-.369a14.027,14.027,0,0,0,7.317-2.305c1.13-1.176-2.854-9.042-2.854-9.042l3.066-.595s7.091,9.5,4.067,12.749-10.429,5.3-10.429,5.3Z" transform="translate(-380.357 -138.176)" fill="#ffb3c5"/>
      <path id="Trazado_125118" data-name="Trazado 125118" d="M615.587,243.965l3.426-5.072-1.494-.788a14.049,14.049,0,0,1-6.455-4.117c-.784-1.425,5.109-7.981,5.109-7.981L613.36,224.6s-9.3,7.308-7.239,11.25,8.687,7.838,8.687,7.838Z" transform="translate(-340.004 -132.572)" fill="#ffb3c5"/>
      <path id="Trazado_125119" data-name="Trazado 125119" d="M625.11,403l6.413.765a.3.3,0,0,1,.268.36l-.438,2.264a.3.3,0,0,1-.341.244l-5.994-.83a.3.3,0,0,1-.267-.309l.028-2.195a.3.3,0,0,1,.332-.3Z" transform="translate(-350.204 -228.715)" fill="#26aab7"/>
      <path id="Trazado_125120" data-name="Trazado 125120" d="M624,259.22l3.283-6.22a44.12,44.12,0,0,0,6.81,2.139,6.457,6.457,0,0,1,1.9.8l.064.041a8.1,8.1,0,0,0,6.607.876l.069-.023a6.527,6.527,0,0,1,2.043-.277,44.143,44.143,0,0,0,7.133-.286l1.563,6.875a27.856,27.856,0,0,1-6.418.558l-.977,19.729h0a46.03,46.03,0,0,1-20.084-2.628l-.157-.055,4.182-19.305A27.94,27.94,0,0,1,624,259.22Z" transform="translate(-349.799 -147.877)" fill="#f2f2f2"/>
      <path id="Trazado_125121" data-name="Trazado 125121" d="M673.209,425.342h-8.378a.461.461,0,0,1-.461-.461h0a.461.461,0,0,1,.461-.461h8.378a.461.461,0,0,1,.461.461h0A.461.461,0,0,1,673.209,425.342Z" transform="translate(-371.556 -240.26)" fill="#5c407b"/>
      <path id="Trazado_125122" data-name="Trazado 125122" d="M664.913,417.607l-.309,2.605c-.037.323.143.613.378.613h8.207a.609.609,0,0,0,.54-.383,1.157,1.157,0,0,0-.231-1.162c-.715-1.01-3.015-1.277-4.228-2.107a.4.4,0,0,0-.235-.074h-3.689C665.13,417.1,664.95,417.317,664.913,417.607Z" transform="translate(-371.68 -236.315)" fill="#472a6a"/>
      <path id="Trazado_125123" data-name="Trazado 125123" d="M673.174,418.891h0a.171.171,0,0,1-.046-.212,1.584,1.584,0,0,1,1.688-1.047c.06,0,.1.088.092.171h0c0,.078-.065.134-.12.12a1.383,1.383,0,0,0-1.48.922A.094.094,0,0,1,673.174,418.891Z" transform="translate(-376.266 -236.588)" fill="#f2f2f2"/>
      <path id="Trazado_125124" data-name="Trazado 125124" d="M675.024,419.634h0a.171.171,0,0,1-.046-.212,1.577,1.577,0,0,1,1.688-1.047c.06,0,.1.088.092.171h0a.114.114,0,0,1-.124.12,1.383,1.383,0,0,0-1.476.922A.1.1,0,0,1,675.024,419.634Z" transform="translate(-377.263 -236.995)" fill="#f2f2f2"/>
      <path id="Trazado_125125" data-name="Trazado 125125" d="M676.744,420.314h0a.171.171,0,0,1-.046-.212,1.577,1.577,0,0,1,1.687-1.047c.06,0,.1.088.092.171h0a.111.111,0,0,1-.12.12,1.383,1.383,0,0,0-1.475.922A.1.1,0,0,1,676.744,420.314Z" transform="translate(-378.19 -237.362)" fill="#f2f2f2"/>
      <path id="Trazado_125126" data-name="Trazado 125126" d="M618.231,425.342h8.378a.461.461,0,0,0,.461-.461h0a.461.461,0,0,0-.461-.461h-8.378a.461.461,0,0,0-.461.461h0A.461.461,0,0,0,618.231,425.342Z" transform="translate(-346.442 -240.26)" fill="#5c407b"/>
      <path id="Trazado_125127" data-name="Trazado 125127" d="M626.619,417.607l.309,2.605c.037.323-.143.613-.378.613h-8.207a.6.6,0,0,1-.535-.383,1.144,1.144,0,0,1,.226-1.162c.715-1.01,3.015-1.277,4.228-2.107a.4.4,0,0,1,.24-.074h3.689A.474.474,0,0,1,626.619,417.607Z" transform="translate(-346.425 -236.315)" fill="#472a6a"/>
      <path id="Trazado_125128" data-name="Trazado 125128" d="M627.032,418.891h0a.171.171,0,0,0,.046-.212,1.584,1.584,0,0,0-1.687-1.047c-.06,0-.1.088-.092.171h0a.112.112,0,0,0,.125.12,1.383,1.383,0,0,1,1.475.922C626.926,418.9,627,418.923,627.032,418.891Z" transform="translate(-350.499 -236.588)" fill="#f2f2f2"/>
      <path id="Trazado_125129" data-name="Trazado 125129" d="M625.183,419.634h0a.18.18,0,0,0,.051-.212,1.586,1.586,0,0,0-1.692-1.047.143.143,0,0,0-.088.171h0a.111.111,0,0,0,.12.12,1.383,1.383,0,0,1,1.476.922C625.087,419.639,625.137,419.667,625.183,419.634Z" transform="translate(-349.503 -236.996)" fill="#f2f2f2"/>
      <path id="Trazado_125130" data-name="Trazado 125130" d="M623.468,420.314h0a.184.184,0,0,0,.046-.212,1.586,1.586,0,0,0-1.692-1.047.143.143,0,0,0-.088.171h0a.111.111,0,0,0,.12.12,1.383,1.383,0,0,1,1.475.922A.1.1,0,0,0,623.468,420.314Z" transform="translate(-348.576 -237.362)" fill="#f2f2f2"/>
      <path id="Trazado_125131" data-name="Trazado 125131" d="M566.627,113.86,642.367,124.3a6.589,6.589,0,0,0,7.428-5.625l10.439-75.745a6.584,6.584,0,0,0-5.63-7.423L578.863,25.067a6.589,6.589,0,0,0-7.428,5.625L561,106.432A6.589,6.589,0,0,0,566.627,113.86Z" transform="translate(-315.812 -25.004)" fill="#f2f2f2"/>
      <path id="Trazado_125132" data-name="Trazado 125132" d="M691.527,232.223s-.885-.355-.922-1.083-.516-.4-.558-.074-.562,1.766,1.729,2.222,3.094-.6,3.094-.6Z" transform="translate(-385.351 -135.86)" fill="#ffb3c5"/>
      <path id="Trazado_125133" data-name="Trazado 125133" d="M625.527,224.15s.922-.111,1.162-.811.6-.244.558.074.078,1.844-2.255,1.7-2.812-1.406-2.812-1.406Z" transform="translate(-348.819 -131.693)" fill="#ffb3c5"/>
      <path id="Trazado_125134" data-name="Trazado 125134" d="M690.54,186.678c1.747-7.059,4.966-19.748,4.966-19.748a110.757,110.757,0,0,1,3.689,20.942Z" transform="translate(-385.66 -101.492)" fill="#34bed1"/>
      <path id="Trazado_125135" data-name="Trazado 125135" d="M649,180.6v0Z" transform="translate(-363.273 -108.827)" fill="#ffb3c5"/>
      <path id="Trazado_125136" data-name="Trazado 125136" d="M648.72,178.395v0Z" transform="translate(-363.122 -107.635)" fill="#ffb3c5"/>
      <path id="Trazado_125137" data-name="Trazado 125137" d="M648.4,176.33Z" transform="translate(-362.949 -106.558)" fill="#ffb3c5"/>
      <path id="Trazado_125138" data-name="Trazado 125138" d="M647.84,172.43Z" transform="translate(-362.647 -104.456)" fill="#ffb3c5"/>
      <path id="Trazado_125139" data-name="Trazado 125139" d="M598.9,168.178c5.072-18.318,9.682-22.9,9.968-23.114,6.331-4.523,27.452,1.651,27.452,1.651s8.138,2.121,9.775,7.539c.664,2.2.258,10.863-.461,20.366Z" transform="translate(-336.272 -88.815)" fill="#31dae7"/>
      <path id="Trazado_125140" data-name="Trazado 125140" d="M610.1,171.92c-.042-1.245-.032-2.49.028-3.721.793-15.5,9.221-23.851,14.874-16.41a11.684,11.684,0,0,1,2.209,5.528c.461,3.5,1.747,10.775,3.181,17.424Z" transform="translate(-342.295 -91.847)" fill="#34bed1"/>
      <path id="Trazado_125141" data-name="Trazado 125141" d="M655.2,128l-1.521,11.066a1.6,1.6,0,0,0,.705,1.558c1.581,1.024,5.173,2.845,8.977,1.259a1.577,1.577,0,0,0,.922-1.25l1.383-9.982Z" transform="translate(-365.788 -80.511)" fill="#ffb3c5"/>
      <path id="Trazado_125142" data-name="Trazado 125142" d="M655.23,133.911l.816-5.911,10.48,2.633-.692,5.026A18.615,18.615,0,0,1,655.23,133.911Z" transform="translate(-366.63 -80.511)" fill="#ea94ad"/>
      <path id="Trazado_125143" data-name="Trazado 125143" d="M697.882,104.972c-.816,1.674-.4,3.559.922,4.214s3.08-.171,3.9-1.844.4-3.559-.922-4.214S698.7,103.3,697.882,104.972Z" transform="translate(-389.392 -66.986)" fill="#ffb3c5"/>
      <path id="Trazado_125144" data-name="Trazado 125144" d="M661.093,96.426a13.956,13.956,0,0,0,1.24-2.305,26.621,26.621,0,0,0,1.886-6.515c.074-.438.171-.867.277-1.3a14.381,14.381,0,1,0-28.3-4.422,3.1,3.1,0,0,0-2.766-.41c-1.752.645-2.522,2.951-1.72,5.146s2.882,3.458,4.634,2.813a2.96,2.96,0,0,0,.673-.364,13.482,13.482,0,0,0,12.523,13.265,12.91,12.91,0,0,0,8.982-3.048,5.531,5.531,0,0,0,.516-.424A12.448,12.448,0,0,0,661.093,96.426Z" transform="translate(-353.783 -48.407)" fill="#ffb3c5"/>
      <path id="Trazado_125145" data-name="Trazado 125145" d="M666.631,100.721a1.254,1.254,0,1,1-1.18-1.323A1.254,1.254,0,0,1,666.631,100.721Z" transform="translate(-371.424 -65.096)" fill="#472a6a"/>
      <path id="Trazado_125146" data-name="Trazado 125146" d="M689.89,103.457a1.254,1.254,0,1,1-1.19-1.319A1.254,1.254,0,0,1,689.89,103.457Z" transform="translate(-383.959 -66.573)" fill="#472a6a"/>
      <path id="Trazado_125147" data-name="Trazado 125147" d="M664.918,94.843a11.958,11.958,0,0,0-1.757-.682,6.155,6.155,0,0,0-1.738-.258,5.588,5.588,0,0,0-1.729.249l-.221.055-.212.078-.461.161c-.3.111-.572.258-.9.369a5.406,5.406,0,0,1,.664-.752,4.236,4.236,0,0,1,.839-.576A4.076,4.076,0,0,1,661.427,93a4.237,4.237,0,0,1,2.006.512,3.984,3.984,0,0,1,1.485,1.333Z" transform="translate(-368.069 -61.648)" fill="#472a6a"/>
      <path id="Trazado_125148" data-name="Trazado 125148" d="M684,96.756a3.96,3.96,0,0,1,1.724-1.014,4.228,4.228,0,0,1,2.066-.092,4.039,4.039,0,0,1,1.844.922,4.577,4.577,0,0,1,.7.733,5.3,5.3,0,0,1,.5.871c-.3-.171-.54-.373-.807-.544l-.4-.244c-.069-.037-.125-.088-.194-.12l-.2-.1a5.674,5.674,0,0,0-1.641-.595,5.993,5.993,0,0,0-1.757-.1A12.2,12.2,0,0,0,684,96.756Z" transform="translate(-382.135 -63.03)" fill="#472a6a"/>
      <path id="Trazado_125149" data-name="Trazado 125149" d="M677.665,100.23a18.158,18.158,0,0,1,1.116,2.144,17.5,17.5,0,0,1,.839,2.305,6.481,6.481,0,0,1,.221,1.226,2.137,2.137,0,0,1,0,.341.326.326,0,0,1-.037.18,1.046,1.046,0,0,1-.088.2l-.078.1-.06.055-.129.1-.263.18a5.943,5.943,0,0,1-1.12.507,8.022,8.022,0,0,1-1.176.309,13.636,13.636,0,0,0,2.079-1.139,2.8,2.8,0,0,0,.217-.18l.1-.092.046-.046v-.028a.923.923,0,0,0,.037-.461,6.771,6.771,0,0,0-.235-1.13c-.208-.756-.461-1.512-.719-2.268S677.9,101,677.665,100.23Z" transform="translate(-378.303 -65.545)" fill="#ea94ad"/>
      <path id="Trazado_125150" data-name="Trazado 125150" d="M646.482,54.207s4.426-3.112,13.574-1.545S670.434,59.394,670.2,66.55l-1.051,7.764s-2.5-2.172-4.864-9.563c0,0-5.791,5.431-7.963,4.482S657.7,64.3,657.7,64.3s-11.066,8.359-17.24,7.677c0,0-2.559-11.439,2.462-14.957,0,0-3.481-.2-3.592-.922s1.844-1.581,5.122-.825c0,0-1.844-5.072-.484-5.413S646.482,54.207,646.482,54.207Z" transform="translate(-358.062 -38.39)" fill="#12263f"/>
      <path id="Trazado_125151" data-name="Trazado 125151" d="M674.441,122.053c-.609,1.452-2.55,2.333-4.68,2.02s-3.73-1.715-3.891-3.283Z" transform="translate(-372.364 -76.626)" fill="#f2f2f2"/>
      <path id="Trazado_125152" data-name="Trazado 125152" d="M647.15,167.414a.481.481,0,0,0,0-.074A.481.481,0,0,1,647.15,167.414Z" transform="translate(-362.276 -101.713)" fill="#ffb3c5"/>
      <path id="Trazado_125153" data-name="Trazado 125153" d="M647.36,168.941v0Z" transform="translate(-362.389 -102.548)" fill="#ffb3c5"/>
      <path id="Trazado_125154" data-name="Trazado 125154" d="M647.6,170.611v0Z" transform="translate(-362.518 -103.421)" fill="#ffb3c5"/>
      <path id="Trazado_125155" data-name="Trazado 125155" d="M119.492,485.134a.143.143,0,0,0,.055.249c.862.235,3.573.987,3.559,1.217s-2.444-.337-2.587-.12,2.245.752,2.185,1.047-2.222-.272-2.305-.157,1.95.876,2.015,1.07-2.181-.355-2.305-.24,1.3,1.014,1.24,1.143-.083.231-3.873-.867l-1.475-.5-.982-1.056.738-1.568s4.744-1.807,4.915-1.683S120.82,483.959,119.492,485.134Z" transform="translate(-75.497 -272.189)" fill="#ffb3c5"/>
      <path id="Trazado_125156" data-name="Trazado 125156" d="M82.6,444.433s-2.361,1.383-4.2,0h0l.433-3.417,3.661-.756.106,4.173Z" transform="translate(-55.761 -248.796)" fill="#ffb3c5"/>
      <path id="Trazado_125157" data-name="Trazado 125157" d="M82.878,442.492l-.06-2.232L79.1,441.417l-.1.835a6.644,6.644,0,0,0,3.878.24Z" transform="translate(-56.085 -248.796)" fill="#ea94ad"/>
      <path id="Trazado_125158" data-name="Trazado 125158" d="M85.31,463.425c-1.872.461-6.275.226-9.613-.037a63.078,63.078,0,0,0-.378-7.133c-.858-6.4-3.827-8.479-3.827-8.479a7.345,7.345,0,0,1-5.012-1.226,9.825,9.825,0,0,0-6.261,2.2c-6.1,5.261-1.485,16.013-1.485,16.013l-1.674,14.21c3.776,1.291,19.218.516,19.218.516a55.277,55.277,0,0,1-.646-9.134c4.892-.272,9.683-1.051,9.683-1.051C85.5,468.253,85.31,463.425,85.31,463.425Z" transform="translate(-44.261 -252.186)" fill="#c1507f"/>
      <path id="Trazado_125159" data-name="Trazado 125159" d="M74.1,462.38a8,8,0,0,0,2.4,5.639A10.377,10.377,0,0,0,79,469.863a14.536,14.536,0,0,0,2.9,1.162c.124.037.249.083.378.115l.383.092c.254.06.507.129.765.184l.775.148.387.069.387.055c.521.074,1.042.152,1.568.194l.788.069c.263.023.526.032.788.046a62.037,62.037,0,0,0,6.349-.037,41.235,41.235,0,0,1-6.358.374,24.747,24.747,0,0,1-6.331-.908,14.559,14.559,0,0,1-2.979-1.222,10.4,10.4,0,0,1-2.559-1.964,8.378,8.378,0,0,1-.991-1.277,8.934,8.934,0,0,1-.715-1.443,8.735,8.735,0,0,1-.4-1.554A6.17,6.17,0,0,1,74.1,462.38Z" transform="translate(-53.426 -260.717)" fill="#5c407b"/>
      <path id="Trazado_125160" data-name="Trazado 125160" d="M87.25,490.592a53.783,53.783,0,0,1-7.022,1.07,46.958,46.958,0,0,1-7.114.125,24.866,24.866,0,0,1-7-1.346,12.125,12.125,0,0,1-3.149-1.688,7.88,7.88,0,0,1-2.305-2.7,8.074,8.074,0,0,0,2.416,2.531,12.573,12.573,0,0,0,3.14,1.54,21.509,21.509,0,0,0,3.407.844,32.98,32.98,0,0,0,3.5.392,56.432,56.432,0,0,0,7.064-.028q1.766-.111,3.527-.3C84.908,490.919,86.079,490.767,87.25,490.592Z" transform="translate(-46.201 -273.474)" fill="#f36b80"/>
      <path id="Trazado_125161" data-name="Trazado 125161" d="M68.8,420.587s-1.028-5.261,1.941-7.105a7.654,7.654,0,0,1,8.083-.281c2.047,1.245,3.145,5.353,2.116,7.658l-6.856-2.485Z" transform="translate(-50.494 -233.665)" fill="#472a6a"/>
      <path id="Trazado_125162" data-name="Trazado 125162" d="M92.661,429.145a1.111,1.111,0,0,0,.567,1.462,1.157,1.157,0,0,0,1.342-.871,1.1,1.1,0,0,0-.576-1.457A1.157,1.157,0,0,0,92.661,429.145Z" transform="translate(-63.396 -242.329)" fill="#ea94ad"/>
      <path id="Trazado_125163" data-name="Trazado 125163" d="M79.356,427.018a4.808,4.808,0,0,0,.332-.881,9.309,9.309,0,0,0,.346-2.434,2.844,2.844,0,0,1,.028-.484,5.109,5.109,0,0,0-.2-2,5.39,5.39,0,0,0-5.173-3.689,5.288,5.288,0,0,0-5.362,5.63,1.2,1.2,0,0,0-1.051,0,1.381,1.381,0,0,0-.355,1.936,1.472,1.472,0,0,0,1.872.761,1.051,1.051,0,0,0,.231-.166,5.026,5.026,0,0,0,5.376,4.09,4.878,4.878,0,0,0,3.163-1.572c.051-.051.106-.106.166-.175A4.667,4.667,0,0,0,79.356,427.018Z" transform="translate(-49.986 -236.546)" fill="#ffb3c5"/>
      <path id="Trazado_125164" data-name="Trazado 125164" d="M81.474,429.51a.522.522,0,1,0-.014,0Z" transform="translate(-56.912 -242.777)" fill="#472a6a"/>
      <path id="Trazado_125165" data-name="Trazado 125165" d="M89.484,429.13a.523.523,0,1,0-.014,0Z" transform="translate(-61.229 -242.572)" fill="#472a6a"/>
      <path id="Trazado_125166" data-name="Trazado 125166" d="M80.57,427.361a4.457,4.457,0,0,0-.692-.152,2.426,2.426,0,0,0-.659,0,2.078,2.078,0,0,0-.627.184l-.078.028-.074.041-.157.078c-.1.055-.2.125-.314.18a2.174,2.174,0,0,1,.207-.3,1.6,1.6,0,0,1,.277-.254,1.54,1.54,0,0,1,.719-.286,1.6,1.6,0,0,1,.77.078,1.5,1.5,0,0,1,.627.4Z" transform="translate(-55.53 -241.577)" fill="#472a6a"/>
      <path id="Trazado_125167" data-name="Trazado 125167" d="M87,426.922a1.461,1.461,0,0,1,.581-.461,1.616,1.616,0,0,1,1.8.318,1.983,1.983,0,0,1,.235.286c-.12-.046-.221-.106-.332-.157l-.161-.065-.078-.032-.078-.028a2.253,2.253,0,0,0-.641-.125,2.471,2.471,0,0,0-.659.055,4.464,4.464,0,0,0-.669.207Z" transform="translate(-60.396 -241.281)" fill="#472a6a"/>
      <path id="Trazado_125168" data-name="Trazado 125168" d="M84.957,427.61a3.311,3.311,0,0,0-.065.978,2.341,2.341,0,0,0,.083.5,1.241,1.241,0,0,0,.24.489l.041.06.046.051a.3.3,0,0,1,.069.06.355.355,0,0,1,.083.152.424.424,0,0,1-.069.346,1.383,1.383,0,0,1-.765.5,1.171,1.171,0,0,0,.968-.35.659.659,0,0,0,.166-.558.557.557,0,0,0-.051-.148.921.921,0,0,0-.083-.134,1.2,1.2,0,0,0-.111-.106.262.262,0,0,1-.037-.037l-.032-.032a1.162,1.162,0,0,1-.194-.369,4.561,4.561,0,0,1-.129-.461C85.072,428.251,85.017,427.933,84.957,427.61Z" transform="translate(-59.113 -241.979)" fill="#ea94ad"/>
      <path id="Trazado_125169" data-name="Trazado 125169" d="M84.652,435.7a1.869,1.869,0,0,1-3.292-.06Z" transform="translate(-57.357 -246.307)" fill="#f2f2f2"/>
      <path id="Trazado_125170" data-name="Trazado 125170" d="M70.913,422.32a.83.83,0,0,0-.553-.277l.212-1.687.544-1s2.167-2.66,2.241-2.73,1.683-.89,1.78-.922,2.305.378,2.305.378,3.9-.641,3.168,1.36-3.6,2.946-3.739,2.849a3.509,3.509,0,0,0,.572-1.72C75.358,420.66,71.513,422.1,70.913,422.32Z" transform="translate(-51.428 -235.564)" fill="#472a6a"/>
      <path id="Trazado_125171" data-name="Trazado 125171" d="M806.908,493.05a2.633,2.633,0,0,1-.078-.42.461.461,0,0,1,.226-.424l.166-.106.129.41h0c.069.318.055.3.544.369.7.106.521.5.521.5s-.111.277-.973.1A.788.788,0,0,1,806.908,493.05Z" transform="translate(-448.331 -276.734)" fill="#ffb3c5"/>
      <path id="Trazado_125172" data-name="Trazado 125172" d="M805.886,489.546a3,3,0,0,1-.1-.521.576.576,0,0,1,.277-.526l.212-.129.157.5h0c.088.4.069.373.678.461.862.129.646.622.646.622s-.138.346-1.208.124A.964.964,0,0,1,805.886,489.546Z" transform="translate(-447.77 -274.724)" fill="#ffb3c5"/>
      <path id="Trazado_125173" data-name="Trazado 125173" d="M806.607,492.01a2.654,2.654,0,0,1-.078-.419.461.461,0,0,1,.221-.424l.171-.106.129.41h0c.069.318.055.3.544.369.7.1.521.5.521.5s-.111.281-.973.1A.78.78,0,0,1,806.607,492.01Z" transform="translate(-448.169 -276.174)" fill="#ffb3c5"/>
      <path id="Trazado_125174" data-name="Trazado 125174" d="M805.991,490.61a3.706,3.706,0,0,1-.092-.5.544.544,0,0,1,.263-.5l.2-.125.148.461h0c.083.378.069.355.646.461.821.124.618.59.618.59s-.134.332-1.153.125A.922.922,0,0,1,805.991,490.61Z" transform="translate(-447.829 -275.328)" fill="#ffb3c5"/>
      <path id="Trazado_125175" data-name="Trazado 125175" d="M807.506,490.205a.489.489,0,0,1,.3.281.387.387,0,0,1,0,.217.124.124,0,0,1-.028.055.181.181,0,0,1-.037.046.355.355,0,0,1-.1.065.977.977,0,0,1-.424.092,3.219,3.219,0,0,1-.429-.028l-.212-.037a1.129,1.129,0,0,1-.558-.314.918.918,0,0,1-.115-.18.386.386,0,0,1-.037-.1l-.023-.1a2.479,2.479,0,0,1-.046-.41c.023.134.051.267.088.4l.028.1a.511.511,0,0,0,.042.088.589.589,0,0,0,.12.161,1,1,0,0,0,.332.212.724.724,0,0,0,.194.06l.2.037a3.136,3.136,0,0,0,.415.032,1.056,1.056,0,0,0,.4-.069.263.263,0,0,0,.134-.12.38.38,0,0,0,0-.189.345.345,0,0,0-.092-.171A.743.743,0,0,0,807.506,490.205Z" transform="translate(-447.776 -275.489)" fill="#ea94ad"/>
      <path id="Trazado_125176" data-name="Trazado 125176" d="M808.383,494.06a.351.351,0,0,1,.18.208.37.37,0,0,1,0,.143.117.117,0,0,1,0,.037.073.073,0,0,1,0,.037.147.147,0,0,1-.055.051.6.6,0,0,1-.277.1,1.914,1.914,0,0,1-.281,0l-.277-.037-.138-.032-.129-.055a.646.646,0,0,1-.355-.406.705.705,0,0,0,.387.341l.12.046.134.023.267.032h.263a.644.644,0,0,0,.249-.069l.046-.037h0v-.028a.212.212,0,0,0,0-.12.289.289,0,0,0-.041-.12A.606.606,0,0,0,808.383,494.06Z" transform="translate(-448.45 -277.791)" fill="#ea94ad"/>
      <path id="Trazado_125177" data-name="Trazado 125177" d="M808.1,493a.342.342,0,0,1,.18.2.524.524,0,0,1,0,.148v.037a.162.162,0,0,1,0,.037.288.288,0,0,1-.055.051.6.6,0,0,1-.277.092,1.147,1.147,0,0,1-.281,0,1.9,1.9,0,0,1-.277-.037.745.745,0,0,1-.138-.032.637.637,0,0,1-.129-.055.65.65,0,0,1-.355-.4.705.705,0,0,0,.387.341.93.93,0,0,0,.12.042,1.168,1.168,0,0,0,.134.023,2.513,2.513,0,0,0,.267.032,1.255,1.255,0,0,0,.263,0,.535.535,0,0,0,.244-.065l.051-.037h0v-.028a.287.287,0,0,0,0-.124.268.268,0,0,0-.042-.115A.613.613,0,0,0,808.1,493Z" transform="translate(-448.299 -277.219)" fill="#ea94ad"/>
      <path id="Trazado_125178" data-name="Trazado 125178" d="M807.838,491.98a.346.346,0,0,1,.083.281.16.16,0,0,1-.028.078.252.252,0,0,1-.055.065.865.865,0,0,1-.143.078,1.944,1.944,0,0,1-.922,0,.961.961,0,0,1-.29-.106.923.923,0,0,1-.24-.189.615.615,0,0,1-.143-.263.839.839,0,0,0,.415.392,1.205,1.205,0,0,0,.277.088c.1,0,.2.032.3.041a2.173,2.173,0,0,0,.3,0,1.183,1.183,0,0,0,.286-.037.417.417,0,0,0,.129-.06.247.247,0,0,0,.051-.046.12.12,0,0,0,.023-.055A.346.346,0,0,0,807.838,491.98Z" transform="translate(-447.938 -276.637)" fill="#ea94ad"/>
      <path id="Trazado_125179" data-name="Trazado 125179" d="M338.042,522.278a14.186,14.186,0,0,1,.314,6.132c-.586,2.241-1.143,6.058,2.591,7.091s7.243-3.186,7.239-3.412.724-3.006,0-4.8-.622-4.26-2.647-5.321S338.042,522.278,338.042,522.278Z" transform="translate(-195.631 -292.615)" fill="#415165"/>
      <path id="Trazado_125180" data-name="Trazado 125180" d="M267.6,633.327l2.942-1.817,2.545,1.535-.89.632-3.085.433s-1.2-.152-1.254-.189a3.883,3.883,0,0,1-.258-.595Z" transform="translate(-157.726 -351.866)" fill="#ffb3c5"/>
      <path id="Trazado_125181" data-name="Trazado 125181" d="M266.5,635.1l-.747.461a.406.406,0,0,0,.217.751l5.648.028a.355.355,0,0,0,.36-.36V634.8C268.216,636,266.92,635.625,266.5,635.1Z" transform="translate(-156.627 -353.639)" fill="#472a6a"/>
      <path id="Trazado_125182" data-name="Trazado 125182" d="M355.73,511.738a13.425,13.425,0,0,1-3.389-6.086,7.893,7.893,0,0,0-2.919-4.809c-3.264-2.365-6.4-2.471-9.323-.89-3.38,1.844-4.094,6.875-3,9.484l6.612-2.038-1.7.959c-.65,12.68,2.232,12.2,3.44,13.4s6.22,1.208,9.563-.581C360.424,518.308,358.312,514.444,355.73,511.738Z" transform="translate(-194.926 -280.396)" fill="#415165"/>
      <path id="Trazado_125183" data-name="Trazado 125183" d="M298.8,633.327l2.942-1.817,2.545,1.535-.89.636-3.08.433s-1.208-.157-1.259-.189a3.917,3.917,0,0,1-.258-.6Z" transform="translate(-174.541 -351.866)" fill="#ffb3c5"/>
      <path id="Trazado_125184" data-name="Trazado 125184" d="M297.705,635.1l-.747.461a.41.41,0,0,0,.217.756l5.648.028a.364.364,0,0,0,.364-.36V634.8C299.425,636,298.125,635.63,297.705,635.1Z" transform="translate(-173.446 -353.639)" fill="#472a6a"/>
      <path id="Trazado_125185" data-name="Trazado 125185" d="M329.123,538.85s-8.76,10.8-10.268,12.523l-8.894-8.76a11.915,11.915,0,0,0-2.711,2.061s3.587,8.3,6.681,10.457l6.183,4.15-1.185,2.822,2.213,1.72,1.167-2.766,3.186-7.064,3.015-9.392.572-4.657Z" transform="translate(-179.095 -301.929)" fill="#26aab7"/>
      <path id="Trazado_125186" data-name="Trazado 125186" d="M310.417,599.351,306.475,614.4l-3.578-1.079-.037-13.094,5.229-3.587Z" transform="translate(-176.729 -333.074)" fill="#472a6a"/>
      <path id="Trazado_125187" data-name="Trazado 125187" d="M345.368,541.17s-3.689,6.031-4.463,8.359-.152,2.522-.5,5.344-2.937,10.383-2.937,10.383l4.311,2.9s2.328-7.446,2.328-7.751,2.176-13.934,2.176-13.934l1.794-5.072Z" transform="translate(-195.381 -303.179)" fill="#f2f2f2"/>
      <path id="Trazado_125188" data-name="Trazado 125188" d="M306.617,589.615s-7.4-6.64-13.131-7.977S273,604.752,273,604.752l3.043,1.462s13.32-9.581,15.838-13.855c0,0,10.826,14.293,14.45,14.616s7.718-.424,12.541-6.22C324.336,594.175,306.617,589.615,306.617,589.615Z" transform="translate(-160.636 -324.96)" fill="#5c407b"/>
      <path id="Trazado_125189" data-name="Trazado 125189" d="M357.385,528.42l1.641,4.431s-1.19,2.7-5.169,1.7a4.154,4.154,0,0,0-.258-2.836C352.926,529.826,357.385,528.42,357.385,528.42Z" transform="translate(-204.036 -296.308)" fill="#ffb3c5"/>
      <path id="Trazado_125190" data-name="Trazado 125190" d="M357.382,528.42l.77,2.07c-.355,1.545-1.66,2.637-4.173,3.052a6.182,6.182,0,0,0-.383-1.844C352.909,529.789,357.382,528.42,357.382,528.42Z" transform="translate(-204.033 -296.308)" fill="#ea94ad" opacity="0.6"/>
      <path id="Trazado_125191" data-name="Trazado 125191" d="M310.993,595.52a5.59,5.59,0,0,0-.106,1.107,7.477,7.477,0,0,0,.088,1.111,10.9,10.9,0,0,0,.24,1.088,7.706,7.706,0,0,0,.374,1.051l.083-.074a4.77,4.77,0,0,1-.567-.461c-.18-.166-.355-.332-.521-.512a5.176,5.176,0,0,1-.461-.558c-.134-.194-.3-.387-.461-.586.125.212.263.419.406.618a6.849,6.849,0,0,0,.461.581c.161.185.332.369.512.539a5.277,5.277,0,0,0,.581.461l.161.115-.078-.189c-.138-.337-.254-.687-.36-1.037a9.528,9.528,0,0,1-.249-1.074,8.705,8.705,0,0,1-.129-1.093A6.827,6.827,0,0,1,310.993,595.52Z" transform="translate(-180.393 -332.47)" fill="#472a6a"/>
      <path id="Trazado_125192" data-name="Trazado 125192" d="M339.461,520.965a1.181,1.181,0,1,1-1.664-.793A1.321,1.321,0,0,1,339.461,520.965Z" transform="translate(-195.242 -291.813)" fill="#ea94ad"/>
      <path id="Trazado_125193" data-name="Trazado 125193" d="M341.256,517.387a6,6,0,0,1-.526-.978,11.314,11.314,0,0,1-.793-2.766c-.032-.184-.069-.369-.115-.553a6.155,6.155,0,1,1,12.122-1.844,1.332,1.332,0,0,1,1.19-.171,1.856,1.856,0,0,1-1.263,3.394,1.224,1.224,0,0,1-.286-.157,5.777,5.777,0,0,1-5.39,5.644,5.533,5.533,0,0,1-3.836-1.323q-.1-.074-.221-.18A5.23,5.23,0,0,1,341.256,517.387Z" transform="translate(-196.553 -283.938)" fill="#ffb3c5"/>
      <path id="Trazado_125194" data-name="Trazado 125194" d="M349.5,518.88c0,.35.023.692,0,1.033a4.449,4.449,0,0,1-.042.5,1.245,1.245,0,0,1-.143.461l-.032.041a.211.211,0,0,1-.032.046,1.2,1.2,0,0,0-.088.124.783.783,0,0,0-.06.143.591.591,0,0,0-.028.152.7.7,0,0,0,.244.535,1.06,1.06,0,0,0,.5.235,1.436,1.436,0,0,0,.526,0,2.13,2.13,0,0,1-.493-.111,1.118,1.118,0,0,1-.406-.258.531.531,0,0,1-.152-.392.4.4,0,0,1,.023-.1.556.556,0,0,1,.042-.092.615.615,0,0,1,.065-.088l.088-.12a1.383,1.383,0,0,0,.161-.539,2.959,2.959,0,0,0,0-.535A4.548,4.548,0,0,0,349.5,518.88Z" transform="translate(-201.638 -291.167)" fill="#ea94ad"/>
      <path id="Trazado_125195" data-name="Trazado 125195" d="M354.439,519.232a.535.535,0,1,0,.137-.386A.535.535,0,0,0,354.439,519.232Z" transform="translate(-204.526 -291.053)" fill="#472a6a"/>
      <path id="Trazado_125196" data-name="Trazado 125196" d="M344.469,520.347a.535.535,0,1,0,.14-.385A.539.539,0,0,0,344.469,520.347Z" transform="translate(-199.153 -291.656)" fill="#472a6a"/>
      <path id="Trazado_125197" data-name="Trazado 125197" d="M353,516.533a6.077,6.077,0,0,1,.788-.189,2.681,2.681,0,0,1,.742,0,2.515,2.515,0,0,1,.719.189,3.533,3.533,0,0,1,.36.166c.12.06.231.134.364.194a2.178,2.178,0,0,0-.235-.36,1.8,1.8,0,0,0-.327-.291,1.711,1.711,0,0,0-.83-.318,1.8,1.8,0,0,0-.885.115A1.636,1.636,0,0,0,353,516.533Z" transform="translate(-203.75 -289.567)" fill="#472a6a"/>
      <path id="Trazado_125198" data-name="Trazado 125198" d="M344.509,517.379a1.622,1.622,0,0,0-.779-.364,1.844,1.844,0,0,0-.89.055,1.743,1.743,0,0,0-.756.461,2.135,2.135,0,0,0-.263.346,2.507,2.507,0,0,0-.161.4c.12-.088.217-.184.323-.267a2.535,2.535,0,0,1,.318-.231,2.706,2.706,0,0,1,1.383-.461A5.382,5.382,0,0,1,344.509,517.379Z" transform="translate(-197.639 -290.145)" fill="#472a6a"/>
      <path id="Trazado_125199" data-name="Trazado 125199" d="M354.136,510.435a1.743,1.743,0,0,1,.724-.226l.3-.152-.2-.364h-.134l-.092-1.139-.512-1.056s-2-2.831-2.066-2.9-1.591-.987-1.683-1.033-2.227.3-2.227.3-3.744-.807-3.112,1.286a5.369,5.369,0,0,0,3.513,3.094,3.486,3.486,0,0,1-.493-1.8A18.323,18.323,0,0,0,354.136,510.435Z" transform="translate(-199.468 -282.911)" fill="#415165"/>
      <path id="Trazado_125200" data-name="Trazado 125200" d="M362,515.628s1.01,1.752,0,2.421a2.763,2.763,0,0,0,2.425-2.255c.627-2.222-.7-1.333-.839-1.3S362,515.628,362,515.628Z" transform="translate(-208.601 -288.694)" fill="#415165"/>
      <path id="Trazado_125201" data-name="Trazado 125201" d="M339.779,506.061l-1.609,5.763s2.218-4.707,3.979-5.312S341.78,505,341.78,505Z" transform="translate(-195.758 -283.686)" fill="#415165"/>
      <path id="Trazado_125202" data-name="Trazado 125202" d="M352.114,527.34a1.761,1.761,0,0,1-3.324.71Z" transform="translate(-201.482 -295.726)" fill="#f2f2f2"/>
      <rect id="Rectángulo_30268" data-name="Rectángulo 30268" width="18.752" height="26.23" rx="1.44" transform="translate(112.305 241.873) rotate(-17.8)" fill="#31dae7"/>
      <rect id="Rectángulo_30269" data-name="Rectángulo 30269" width="15.99" height="22.367" transform="translate(114.805 241.551) rotate(-18.072)" fill="#f2f2f2"/>
      <path id="Trazado_125203" data-name="Trazado 125203" d="M291.577,541.986l-8.239,2.646-.35-1.083a1.512,1.512,0,0,1,.973-1.895l5.381-1.738a1.5,1.5,0,0,1,1.89.973Z" transform="translate(-165.98 -302.465)" fill="#e4c4ff"/>
      <rect id="Rectángulo_30270" data-name="Rectángulo 30270" width="8.41" height="0.622" transform="translate(115.902 244.736) rotate(-17.8)" fill="#f2f2f2"/>
      <rect id="Rectángulo_30271" data-name="Rectángulo 30271" width="8.41" height="0.622" transform="translate(116.606 246.921) rotate(-17.8)" fill="#f2f2f2"/>
      <rect id="Rectángulo_30272" data-name="Rectángulo 30272" width="8.41" height="0.622" transform="translate(117.308 249.106) rotate(-17.8)" fill="#f2f2f2"/>
      <rect id="Rectángulo_30273" data-name="Rectángulo 30273" width="8.41" height="0.622" transform="translate(118.855 250.16) rotate(-18.072)" fill="#f2f2f2"/>
      <rect id="Rectángulo_30274" data-name="Rectángulo 30274" width="8.41" height="0.622" transform="translate(118.708 253.467) rotate(-17.8)" fill="#f2f2f2"/>
      <rect id="Rectángulo_30275" data-name="Rectángulo 30275" width="8.41" height="0.622" transform="translate(119.407 255.652) rotate(-17.8)" fill="#f2f2f2"/>
      <rect id="Rectángulo_30276" data-name="Rectángulo 30276" width="8.41" height="0.622" transform="translate(120.109 257.832) rotate(-17.8)" fill="#f2f2f2"/>
      <rect id="Rectángulo_30277" data-name="Rectángulo 30277" width="8.41" height="0.622" transform="translate(121.688 258.859) rotate(-18.072)" fill="#f2f2f2"/>
      <rect id="Rectángulo_30278" data-name="Rectángulo 30278" width="4.772" height="4.578" transform="translate(124.985 241.825) rotate(-17.8)" fill="#f2f2f2"/>
      <rect id="Rectángulo_30279" data-name="Rectángulo 30279" width="4.772" height="4.578" transform="translate(126.738 247.293) rotate(-17.8)" fill="#f2f2f2"/>
      <rect id="Rectángulo_30280" data-name="Rectángulo 30280" width="4.772" height="4.578" transform="translate(128.589 253.045) rotate(-17.8)" fill="#f2f2f2"/>
      <path id="Trazado_125204" data-name="Trazado 125204" d="M309.974,567.223a.138.138,0,0,1-.161.189c-.858-.18-3.564-.733-3.656-.526s2.305.8,2.305,1.051-2.305-.346-2.384-.065,2.066.761,2.075.89-2.093-.1-2.241.037,2.066.664,2.121.821-1.591.3-1.6.461-.032.235,3.776.968l1.512.226,1.333-.461.055-1.706s-3.343-3.689-3.546-3.689S309.342,565.6,309.974,567.223Z" transform="translate(-178.37 -316.248)" fill="#ffb3c5"/>
      <path id="Trazado_125205" data-name="Trazado 125205" d="M339.5,536.41s7.557,9.106,6.529,25.138-1.2,16.138-1.2,16.138a17.685,17.685,0,0,1-8.073-3.227,40.252,40.252,0,0,0-7.635-4.611L331.9,560.8a17.7,17.7,0,0,1-6.261-.991c-2.633-1.107-8.133-4.044-8.133-4.044a13.994,13.994,0,0,1,1.033-3.55s6.985,2.135,10.5,2.172C329.041,554.369,333.127,541.754,339.5,536.41Z" transform="translate(-184.624 -300.614)" fill="#7dccd4"/>
      <path id="Trazado_125206" data-name="Trazado 125206" d="M352.4,542.75a32.219,32.219,0,0,0-3.228,3.228A38.4,38.4,0,0,0,346.4,549.6l-.318.461c-.106.161-.212.318-.309.484l-.59.973c-.1.161-.189.332-.281.5l-.272.5-.272.5c-.092.171-.166.346-.249.516l-.475,1.056-.429,1.056-.208.53-.18.544c-.12.36-.24.719-.35,1.083l.415-1.06.2-.53.24-.516.461-1.037.516-1.014c.083-.166.166-.337.258-.5l.281-.493.277-.493c.1-.166.184-.332.286-.493L346,550.7c.1-.161.2-.318.309-.461l.318-.461c.844-1.259,1.752-2.471,2.711-3.642l.733-.867c.254-.286.5-.572.756-.853C351.341,543.829,351.867,543.28,352.4,542.75Z" transform="translate(-198.076 -304.031)" fill="#5c407b"/>
      <path id="Trazado_125207" data-name="Trazado 125207" d="M359.3,556.53c-.622,1.383-1.286,2.766-1.973,4.15-.346.682-.7,1.383-1.065,2.033s-.738,1.337-1.13,1.992-.793,1.309-1.217,1.941c-.208.318-.429.632-.65.922s-.461.618-.687.922a16.687,16.687,0,0,1-1.526,1.7,7.954,7.954,0,0,1-1.844,1.383,7.573,7.573,0,0,0,1.918-1.268,16.036,16.036,0,0,0,1.6-1.669c.493-.59.945-1.213,1.383-1.844s.844-1.286,1.236-1.946c.784-1.323,1.494-2.683,2.153-4.071A44.447,44.447,0,0,0,359.3,556.53Z" transform="translate(-201.708 -311.457)" fill="#5c407b"/>
      <path id="Trazado_125208" data-name="Trazado 125208" d="M861.524,179.878l-.074,8.1,5.15-4.827,16.239-10.992-13.251,2.877s-6.626,2.5-6.953,2.882a16.777,16.777,0,0,0-1.111,1.96Z" transform="translate(-477.768 -104.31)" fill="#34bed1"/>
      <path id="Trazado_125209" data-name="Trazado 125209" d="M847.45,175.792l27.844-3.642-21.315,7.723Z" transform="translate(-470.223 -104.305)" fill="#31dae7"/>
      <path id="Trazado_125210" data-name="Trazado 125210" d="M873.807,186.789l-8.027-4.966,19.393-9.673Z" transform="translate(-480.101 -104.305)" fill="#31dae7"/>
      <path id="Trazado_125211" data-name="Trazado 125211" d="M796.2,289.464l.3-.586a7.565,7.565,0,0,1-1.706-1.2l-.461.484A8.164,8.164,0,0,0,796.2,289.464Z" transform="translate(-441.6 -166.567)" fill="#f2f2f2"/>
      <path id="Trazado_125212" data-name="Trazado 125212" d="M785.526,235l.65-.134a18.519,18.519,0,0,0,1.25,4l-.6.272A19.464,19.464,0,0,1,785.526,235ZM785,230.124a18.569,18.569,0,0,1,.129-1.95c.069-.595.175-1.2.3-1.8l.646.143c-.125.576-.226,1.157-.3,1.734a17.22,17.22,0,0,0-.12,1.877v.549H785Zm1.817-7.838a25.238,25.238,0,0,1,2.13-3.758l.549.373a23.733,23.733,0,0,0-2.075,3.661Zm20.651-3.873-.125-.06.3-.59.1.046a.284.284,0,0,0,.069,0,3.048,3.048,0,0,0,1.8-.461,2.84,2.84,0,0,0,.922-1.333l.622.212a3.481,3.481,0,0,1-1.134,1.641,3.689,3.689,0,0,1-2.278.586.784.784,0,0,1-.258-.055Zm-15.833-3.255a34.773,34.773,0,0,1,3.112-2.983l.429.507a33.407,33.407,0,0,0-3.052,2.923Zm12.578-1.545a8.151,8.151,0,0,1,0-1.955,9.522,9.522,0,0,1,.2-1.1l.641.157a9.138,9.138,0,0,0-.185,1.019,7.3,7.3,0,0,0,0,1.794,6.155,6.155,0,0,0,.277,1.213l-.622.212a6.68,6.68,0,0,1-.3-1.356Zm2.743-3.73-.092-.028.208-.632.1.032a6.672,6.672,0,0,1,3.435,2.614l-.558.355a5.994,5.994,0,0,0-3.075-2.356Zm-8.433.138a15.125,15.125,0,0,1,2.674-.973c.539-.092,1.037-.161,1.517-.207l.06.659c-.461.046-.922.111-1.462.2a13.5,13.5,0,0,0-2.518.922Zm7.686-3.453a14.82,14.82,0,0,1,2.909-3.228l.419.512a14.037,14.037,0,0,0-2.766,3.089Z" transform="translate(-436.567 -121.114)" fill="#f2f2f2"/>
      <path id="Trazado_125213" data-name="Trazado 125213" d="M845.666,198.277a13.328,13.328,0,0,1,2.02-.646L847.51,197a13.135,13.135,0,0,0-2.13.682Z" transform="translate(-469.107 -117.697)" fill="#f2f2f2"/>
    </g>
  </g>
</svg>
