<svg xmlns="http://www.w3.org/2000/svg" xmlns:xlink="http://www.w3.org/1999/xlink" width="168.025" height="142.59" viewBox="0 0 168.025 142.59">
  <defs>
    <clipPath id="clip-path">
      <path id="Trazado_126093" data-name="Trazado 126093" d="M0,214.588c0,34.52,62.132,72.225,96.408,72.225s71.1-37.7,71.1-72.223-14.461-57.9-65.076-31.725C71.942,198.634,0,180.069,0,214.588Z" transform="translate(0 -171.652)" fill="none"/>
    </clipPath>
  </defs>
  <g id="graficos11-11" transform="translate(0 0.002)">
    <path id="Trazado_126080" data-name="Trazado 126080" d="M424.979,61.241c3.067,30.5,49.884,84.373,81.305,81.213s35.553-62.16,32.483-92.658S507.741-2.862,476.319.3,421.912,30.743,424.979,61.241Z" transform="translate(-388.214 0)" fill="#b1a8d1"/>
    <path id="Trazado_126081" data-name="Trazado 126081" d="M6,212.615c0,34.52,62.132,72.223,96.408,72.223s71.1-37.7,71.1-72.223-14.461-57.895-65.076-31.721C77.942,196.661,6,178.1,6,212.615Z" transform="translate(-5.484 -155.102)" fill="#a8dde2"/>
    <g id="Grupo_55672" data-name="Grupo 55672" transform="translate(0 14.746)" clip-path="url(#clip-path)">
      <path id="Trazado_126082" data-name="Trazado 126082" d="M751.547,903.566l-6.063,18.644a9.614,9.614,0,0,1-8.78,5.7H705.564a9.632,9.632,0,0,1-9.266-7.027l-6.544-24.758-1.412-5.344-.773-2.921H693.1l.773,2.921H743.1a9.184,9.184,0,0,1,8.448,12.785Z" transform="translate(-628.495 -826.324)" fill="#c3eae9"/>
      <path id="Trazado_126083" data-name="Trazado 126083" d="M556.643,776.265a9.157,9.157,0,0,0-7.7-4.186H499.712l-.773-2.921-1.087-4.115A9.64,9.64,0,0,0,488.564,758H477.83a2.669,2.669,0,1,0,0,5.339h10.735a4.283,4.283,0,0,1,2.6.874,4.229,4.229,0,0,1,1.526,2.234l.718,2.711.773,2.921,1.413,5.345,6.541,24.761a9.632,9.632,0,0,0,9.268,7.024h31.141a9.614,9.614,0,0,0,8.78-5.707l6.063-18.644A9.15,9.15,0,0,0,556.643,776.265Zm-4.192,6.561-6.056,18.622a4.21,4.21,0,0,1-1.521,1.727,4.263,4.263,0,0,1-2.329.693H511.4a4.263,4.263,0,0,1-4.11-3.087l-6.172-23.357h47.817a3.844,3.844,0,0,1,3.512,5.4Z" transform="translate(-434.335 -707.621)" fill="#414d62"/>
      <path id="Trazado_126084" data-name="Trazado 126084" d="M856.91,1373.992a8.678,8.678,0,1,1,2.543,6.142A8.682,8.682,0,0,1,856.91,1373.992Z" transform="translate(-783.285 -1262.752)" fill="#414d62"/>
      <path id="Trazado_126085" data-name="Trazado 126085" d="M919.2,1430.93a3.33,3.33,0,1,1,3.333,3.33A3.33,3.33,0,0,1,919.2,1430.93Z" transform="translate(-840.223 -1319.69)" fill="#eef2e0"/>
      <path id="Trazado_126086" data-name="Trazado 126086" d="M1099.49,1374.084a8.678,8.678,0,1,1,8.679,8.682,8.678,8.678,0,0,1-8.679-8.682Z" transform="translate(-1005.023 -1262.843)" fill="#414d62"/>
      <path id="Trazado_126087" data-name="Trazado 126087" d="M1161.78,1430.948a3.329,3.329,0,1,1,3.33,3.33,3.329,3.329,0,0,1-3.33-3.33Z" transform="translate(-1061.961 -1319.708)" fill="#eef2e0"/>
      <path id="Trazado_126088" data-name="Trazado 126088" d="M887.655,1031.646H851.1a1.618,1.618,0,1,1,0-3.236h36.557a1.618,1.618,0,0,1,0,3.236Z" transform="translate(-776.494 -954.798)" fill="#414d62"/>
      <path id="Trazado_126089" data-name="Trazado 126089" d="M901.287,1116.841H867.642a1.618,1.618,0,1,1,0-3.235h33.645a1.618,1.618,0,0,1,0,3.235Z" transform="translate(-791.582 -1032.673)" fill="#414d62"/>
      <path id="Trazado_126090" data-name="Trazado 126090" d="M918.871,1202.026H888.788a1.618,1.618,0,1,1,0-3.236h30.087a1.618,1.618,0,0,1,0,3.236Z" transform="translate(-810.945 -1110.539)" fill="#414d62"/>
      <path id="Trazado_126091" data-name="Trazado 126091" d="M853.805,646.87a9.443,9.443,0,1,0,9.442,9.443,9.444,9.444,0,0,0-9.442-9.443Zm1.564,11.009v5.164h-3.124v-5.164h-5.166v-3.125h5.163v-5.163h3.124v5.163h5.162v3.125Z" transform="translate(-771.813 -606.04)" fill="#c1507f"/>
      <path id="Trazado_126092" data-name="Trazado 126092" d="M1092.561,573.62a5.241,5.241,0,1,0,5.241,5.241A5.241,5.241,0,0,0,1092.561,573.62Zm.87,6.113V582.6h-1.736v-2.868h-2.868V578h2.868v-2.867h1.736V578h2.867v1.735Z" transform="translate(-993.898 -539.083)" fill="#414d62"/>
    </g>
    <path id="Trazado_126094" data-name="Trazado 126094" d="M593.769,233.655a3.815,3.815,0,0,0-3.815-3.815H509.726a3.815,3.815,0,0,0-3.816,3.816V242.2h87.859Z" transform="translate(-462.443 -210.094)" fill="#ff7bac"/>
    <path id="Trazado_126095" data-name="Trazado 126095" d="M505.91,373.72v8.547a3.816,3.816,0,0,0,3.816,3.816h80.229a3.815,3.815,0,0,0,3.815-3.816V373.72Z" transform="translate(-462.443 -341.612)" fill="#c1507f"/>
    <path id="Trazado_126096" data-name="Trazado 126096" d="M630.528,311.95h-1.943l-.333-2.223H625.89l-.333,2.223H623.79l1.961-12.25h2.817Zm-4.393-3.885h1.856l-.928-6.191Z" transform="translate(-570.195 -273.952)" fill="#eef2e0"/>
    <path id="Trazado_126097" data-name="Trazado 126097" d="M712.62,299.7h3.045c1.925,0,2.869,1.067,2.869,3.027v6.192c0,1.96-.945,3.028-2.869,3.028H712.62Zm1.923,1.75v8.75h1.085c.613,0,.979-.315.979-1.19v-6.37c0-.876-.367-1.19-.979-1.19Z" transform="translate(-651.392 -273.952)" fill="#eef2e0"/>
    <path id="Trazado_126098" data-name="Trazado 126098" d="M795.73,299.7h3.045c1.925,0,2.871,1.067,2.871,3.027v6.192c0,1.96-.945,3.028-2.871,3.028H795.73Zm1.925,1.75v8.75h1.085c.613,0,.98-.315.98-1.19v-6.37c0-.876-.368-1.19-.98-1.19Z" transform="translate(-727.362 -273.952)" fill="#eef2e0"/>
    <path id="Trazado_126099" data-name="Trazado 126099" d="M903.91,299.7h5.949v1.75h-2.011v10.5h-1.925v-10.5H903.91Z" transform="translate(-826.247 -273.952)" fill="#eef2e0"/>
    <path id="Trazado_126100" data-name="Trazado 126100" d="M981.12,301.15c0-1.961,1.031-3.08,2.921-3.08s2.921,1.117,2.921,3.08v6.37c0,1.96-1.031,3.08-2.921,3.08s-2.921-1.117-2.921-3.08Zm1.925,6.492c0,.876.385,1.208,1,1.208s1-.333,1-1.208v-6.616c0-.875-.385-1.207-1-1.207s-1,.333-1,1.207Z" transform="translate(-896.823 -272.462)" fill="#eef2e0"/>
    <path id="Trazado_126101" data-name="Trazado 126101" d="M1099.1,305.892v1.628c0,1.96-.98,3.08-2.87,3.08s-2.87-1.117-2.87-3.08v-6.37c0-1.961.98-3.08,2.87-3.08s2.87,1.117,2.87,3.08v1.19h-1.819v-1.313c0-.875-.385-1.207-1-1.207s-1,.333-1,1.207v6.616c0,.876.385,1.19,1,1.19s1-.314,1-1.19v-1.751Z" transform="translate(-999.42 -272.462)" fill="#eef2e0"/>
    <path id="Trazado_126102" data-name="Trazado 126102" d="M1174.658,311.95h-1.943l-.332-2.223h-2.364l-.332,2.223h-1.768l1.961-12.25h2.817Zm-4.392-3.885h1.855l-.929-6.191Z" transform="translate(-1067.573 -273.952)" fill="#eef2e0"/>
    <path id="Trazado_126103" data-name="Trazado 126103" d="M1260.793,311.95a3.794,3.794,0,0,1-.172-1.505V308.52c0-1.138-.386-1.557-1.26-1.557h-.665v4.983h-1.926V299.7h2.906c2,0,2.852.927,2.852,2.817v.962a2.442,2.442,0,0,1-1.26,2.486c.961.4,1.279,1.33,1.279,2.61v1.89a3.617,3.617,0,0,0,.21,1.488Zm-2.1-10.5v3.762h.753c.717,0,1.156-.315,1.156-1.3v-1.2c0-.875-.3-1.26-.981-1.26Z" transform="translate(-1148.789 -273.952)" fill="#eef2e0"/>
    <path id="Trazado_126104" data-name="Trazado 126104" d="M1332.13,299.7h5.949v1.75h-2.008v10.5h-1.925v-10.5h-2.012Z" transform="translate(-1217.675 -273.952)" fill="#eef2e0"/>
    <path id="Trazado_126105" data-name="Trazado 126105" d="M1457.208,430.594l-9.333-14.283,8.339-1.8-11.422-8.456L1433.37,397.6l3.158,13.857,3.156,13.856,5-6.916,9.333,14.283Z" transform="translate(-1310.216 -363.441)" fill="#fff"/>
  </g>
</svg>
