<svg xmlns="http://www.w3.org/2000/svg" xmlns:xlink="http://www.w3.org/1999/xlink" width="164.868" height="139.914" viewBox="0 0 164.868 139.914">
  <defs>
    <clipPath id="clip-path">
      <path id="Trazado_126077" data-name="Trazado 126077" d="M.49,230.938c0,33.871,60.965,70.866,94.6,70.866s69.766-36.995,69.766-70.866S150.663,174.131,101,199.813C71.08,215.284.49,197.068.49,230.938Z" transform="translate(-0.49 -188.809)" fill="none"/>
    </clipPath>
  </defs>
  <g id="graficos10-10" transform="translate(-0.49 -17.158)" style="isolation: isolate">
    <g id="Layer_1" data-name="Layer 1" transform="translate(0.49 17.158)">
      <path id="Trazado_126042" data-name="Trazado 126042" d="M425.464,77.254c3.01,29.928,48.947,82.787,79.778,79.687s34.882-60.991,31.872-90.916S506.67,14.352,475.839,17.453,422.454,47.326,425.464,77.254Z" transform="translate(-389.39 -17.158)" fill="#b1a8d1"/>
      <path id="Trazado_126043" data-name="Trazado 126043" d="M6.49,228.972c0,33.871,60.965,70.866,94.6,70.866s69.766-36.995,69.766-70.866S156.663,172.166,107,197.847C77.08,213.318,6.49,195.1,6.49,228.972Z" transform="translate(-5.984 -172.538)" fill="#a8dde2"/>
      <g id="Grupo_55671" data-name="Grupo 55671" transform="translate(0 14.471)" clip-path="url(#clip-path)">
        <path id="Trazado_126044" data-name="Trazado 126044" d="M422.735,221.816l-1.483-6.805L356.4,229.134c-.05-.05-.1-.1-.146-.153l1.592-.347h0l.072-.016.283-.062h0l3.972-.865h0l1.743-.38h0l4.327-.943h0l1.787-.389h0l4.327-.943h0l1.742-.379h0l2.164-.471h0l2.511-.547,1.438-.313h0l4.327-.943h0l3.906-.851h0l3.95-.86h.013l.342-.075h0l3.972-.865h0l3.883-.843h0l3.974-.868h0l3.928-.857h0l2.141-.466h0l2.141-.466h0l4.328-.943-12.6-57.841-2.142.464h0l-1.532.337-.609.133h0l-4.328.943h0l-3.909.851-1.8.393h0l-1.765.384-.377.084h0l-4.327.943h0l-3.931.851h0l-3.928.855h0l-4.327.943h0l-.282.062-3.647.794h0l-1.433.313-2.492.545h0l-4.327.943h0l-3.929.854h0L353.5,169h0l-1.294.282-.892.195h0l-1.743.379h0l-4.327.943h0l-3.928.855h0l-4.328.943,11.521,52.894c-.367-.03-.738-.041-1.11-.041l-19.817-85.121a9.457,9.457,0,0,0-4.565-6.091l-9.556-5.381a3.162,3.162,0,0,0-4.46,1.513l-.6,1.405a3.529,3.529,0,0,0,1.513,4.458l8.755,4.932a4.626,4.626,0,0,1,2.236,2.984l19.416,83.466a12.77,12.77,0,1,0,19.583,7.888Z" transform="translate(-282.186 -133.533)" fill="#586273" opacity="0.15" style="mix-blend-mode: color-burn;isolation: isolate"/>
        <path id="Trazado_126045" data-name="Trazado 126045" d="M667.506,661.35l-4.327.943-12.6-57.839,4.328-.943Z" transform="translate(-595.774 -568.549)" fill="#f3f6e7"/>
        <rect id="Rectángulo_30469" data-name="Rectángulo 30469" width="4.429" height="59.195" transform="translate(66.988 33.25) rotate(-12.29)" fill="#f3f6e7"/>
        <rect id="Rectángulo_30470" data-name="Rectángulo 30470" width="4.429" height="59.196" transform="translate(79.17 30.597) rotate(-12.29)" fill="#f3f6e7"/>
        <rect id="Rectángulo_30471" data-name="Rectángulo 30471" width="4.429" height="59.196" transform="translate(91.353 27.944) rotate(-12.29)" fill="#f3f6e7"/>
        <rect id="Rectángulo_30472" data-name="Rectángulo 30472" width="4.429" height="59.196" transform="translate(103.537 25.286) rotate(-12.29)" fill="#f3f6e7"/>
        <rect id="Rectángulo_30473" data-name="Rectángulo 30473" width="4.429" height="59.196" transform="translate(115.718 22.637) rotate(-12.29)" fill="#f3f6e7"/>
        <rect id="Rectángulo_30474" data-name="Rectángulo 30474" width="4.429" height="59.196" transform="translate(59.093 34.97) rotate(-12.28)" fill="#f3f6e7"/>
        <rect id="Rectángulo_30475" data-name="Rectángulo 30475" width="4.429" height="59.196" transform="translate(71.274 32.32) rotate(-12.28)" fill="#f3f6e7"/>
        <rect id="Rectángulo_30476" data-name="Rectángulo 30476" width="4.429" height="59.196" transform="translate(83.457 29.666) rotate(-12.28)" fill="#f3f6e7"/>
        <rect id="Rectángulo_30477" data-name="Rectángulo 30477" width="4.429" height="59.196" transform="translate(95.64 27.013) rotate(-12.28)" fill="#f3f6e7"/>
        <rect id="Rectángulo_30478" data-name="Rectángulo 30478" width="4.429" height="59.196" transform="translate(107.823 24.359) rotate(-12.28)" fill="#f3f6e7"/>
        <path id="Trazado_126046" data-name="Trazado 126046" d="M1440.866,492.911l-4.328.943-12.6-57.841,4.327-.943Z" transform="translate(-1303.936 -414.309)" fill="#f3f6e7"/>
        <rect id="Rectángulo_30479" data-name="Rectángulo 30479" width="4.429" height="59.196" transform="translate(56.947 35.436) rotate(-12.29)" fill="#eff3e3"/>
        <rect id="Rectángulo_30480" data-name="Rectángulo 30480" width="4.429" height="59.196" transform="translate(69.129 32.784) rotate(-12.29)" fill="#eff3e3"/>
        <path id="Trazado_126047" data-name="Trazado 126047" d="M981.926,592.87l-4.328.943L965,535.973l4.327-.943Z" transform="translate(-883.687 -505.842)" fill="#eff3e3"/>
        <rect id="Rectángulo_30481" data-name="Rectángulo 30481" width="4.429" height="59.195" transform="translate(93.494 27.479) rotate(-12.29)" fill="#eff3e3"/>
        <path id="Trazado_126048" data-name="Trazado 126048" d="M1270.946,529.91l-4.327.943-12.6-57.84,4.327-.943Z" transform="translate(-1148.342 -448.19)" fill="#eff3e3"/>
        <rect id="Rectángulo_30482" data-name="Rectángulo 30482" width="4.429" height="59.196" transform="translate(117.861 22.168) rotate(-12.29)" fill="#eff3e3"/>
        <rect id="Rectángulo_30483" data-name="Rectángulo 30483" width="4.429" height="59.196" transform="translate(63.06 34.106) rotate(-12.29)" fill="#eff3e3"/>
        <path id="Trazado_126049" data-name="Trazado 126049" d="M909.936,608.55l-4.327.943-12.6-57.841,4.327-.942Z" transform="translate(-817.766 -520.2)" fill="#eff3e3"/>
        <path id="Trazado_126050" data-name="Trazado 126050" d="M1054.445,577.08l-4.326.943-12.6-57.841,4.327-.942Z" transform="translate(-950.094 -491.383)" fill="#eff3e3"/>
        <path id="Trazado_126051" data-name="Trazado 126051" d="M1198.956,545.6l-4.328.943-12.6-57.841,4.328-.942Z" transform="translate(-1082.421 -462.557)" fill="#eff3e3"/>
        <path id="Trazado_126052" data-name="Trazado 126052" d="M1343.466,514.12l-4.327.943-12.6-57.84,4.328-.943Z" transform="translate(-1214.748 -433.731)" fill="#eff3e3"/>
        <path id="Trazado_126053" data-name="Trazado 126053" d="M1460.126,1086.865l-7.852,1.711-.234-1.075,7.851-1.711Z" transform="translate(-1329.667 -1010.17)" fill="#4d596e"/>
        <path id="Trazado_126054" data-name="Trazado 126054" d="M1434.48,965.68l-1.28.279,2.2,10.121,1.28-.278Z" transform="translate(-1312.416 -900.186)" fill="#4d596e"/>
        <path id="Trazado_126055" data-name="Trazado 126055" d="M1494.85,952.53l-1.28.278,2.2,10.122,1.28-.278Z" transform="translate(-1367.696 -888.145)" fill="#4d596e"/>
        <path id="Trazado_126056" data-name="Trazado 126056" d="M1422.684,941.556l-1.7,1.051.575-1.8.574-1.8,1.271,1.4,1.271,1.4Z" transform="translate(-1301.226 -875.765)" fill="#4d596e"/>
        <path id="Trazado_126057" data-name="Trazado 126057" d="M1483.284,928.365l-1.7,1.052.574-1.8.574-1.8,1.271,1.4,1.271,1.4Z" transform="translate(-1356.717 -863.687)" fill="#4d596e"/>
        <path id="Trazado_126058" data-name="Trazado 126058" d="M1294.98,977.7l.544-2.268-1.555.337a19.238,19.238,0,0,0,.652,5.311l1.686-3.3Z" transform="translate(-1184.919 -909.114)" fill="#4d596e"/>
        <path id="Trazado_126059" data-name="Trazado 126059" d="M1310.732,980.963v.007l-5.388,1.174v-.014c-.059-.271.035-.32.2-.566a1.084,1.084,0,0,1,.68-.476l1.05-.23a39.345,39.345,0,0,0-.736-4.474c-1.659.174-2.627-1.074-3.187-2.648l2.387-4.011-1.457-.372.759-1.839,2.345-.513s3.9,7.84-.1,9.218a42.532,42.532,0,0,0,1.172,4.384l1.035-.225a1.115,1.115,0,0,1,.826.149C1310.57,980.685,1310.672,980.693,1310.732,980.963Z" transform="translate(-1193.512 -901.395)" fill="#4d596e"/>
        <path id="Trazado_126060" data-name="Trazado 126060" d="M799.454,929.316l1.708-.727.511,1.2-1.707.726,1.478,3.476-1.324.562-3.579-8.419,3.5-1.488.512,1.2-2.177.927Z" transform="translate(-729.429 -862.615)" fill="#4d596e"/>
        <path id="Trazado_126061" data-name="Trazado 126061" d="M851.956,916.618a2.726,2.726,0,0,1-.56-.984l-.563-1.321c-.331-.782-.719-.959-1.32-.7l-.458.2,1.459,3.427-1.324.563-3.58-8.419,2-.849a1.84,1.84,0,0,1,2.782,1.1l.281.662a1.823,1.823,0,0,1-.14,2.076c.779-.005,1.265.541,1.64,1.419l.555,1.3a2.7,2.7,0,0,0,.579.961Zm-4.512-6.6,1.1,2.586.517-.219c.493-.21.7-.555.416-1.227l-.353-.83c-.253-.6-.573-.78-1.041-.58Z" transform="translate(-774.362 -847.612)" fill="#4d596e"/>
        <path id="Trazado_126062" data-name="Trazado 126062" d="M905.827,883.37l1.817-.772.511,1.2-1.816.772,1.045,2.468,2.285-.971.512,1.2-3.608,1.534L903,880.384l3.607-1.534.512,1.2-2.29.971Z" transform="translate(-826.914 -820.676)" fill="#4d596e"/>
        <path id="Trazado_126063" data-name="Trazado 126063" d="M958.251,861.05l1.816-.772.512,1.2-1.816.772,1.049,2.465,2.285-.972.511,1.2L959,866.483l-3.579-8.419,3.608-1.534.511,1.2-2.285.972Z" transform="translate(-874.915 -800.238)" fill="#4d596e"/>
        <path id="Trazado_126064" data-name="Trazado 126064" d="M1030,830.774l2.092-.89a1.963,1.963,0,0,1,2.858,1.242l1.81,4.258a1.961,1.961,0,0,1-1.088,2.919l-2.093.89Zm1.835.64,2.556,6.013.746-.317c.422-.179.581-.506.325-1.1l-1.861-4.378c-.253-.6-.6-.71-1.021-.531Z" transform="translate(-943.207 -775.623)" fill="#4d596e"/>
        <path id="Trazado_126065" data-name="Trazado 126065" d="M1091.062,804.589l1.816-.771.511,1.2-1.816.772,1.049,2.466,2.286-.972.511,1.2-3.608,1.534-3.58-8.419,3.606-1.534.512,1.2-2.282.972Z" transform="translate(-996.528 -748.538)" fill="#4d596e"/>
        <path id="Trazado_126066" data-name="Trazado 126066" d="M1140.72,789.832l1.324-.562,3.068,7.216,2.177-.927.512,1.2-3.5,1.488Z" transform="translate(-1044.593 -738.648)" fill="#4d596e"/>
        <path id="Trazado_126067" data-name="Trazado 126067" d="M1189.07,769.273l1.323-.563,3.58,8.419-1.322.562Z" transform="translate(-1088.867 -719.822)" fill="#4d596e"/>
        <path id="Trazado_126068" data-name="Trazado 126068" d="M1217.268,750.383l-1.909-7.3,1.214-.517,2.281,8.973-1.972.839L1212,744.513l1.335-.567Z" transform="translate(-1109.864 -695.885)" fill="#4d596e"/>
        <path id="Trazado_126069" data-name="Trazado 126069" d="M1276.342,725.809l1.816-.772.511,1.2-1.816.773,1.049,2.465,2.285-.971.511,1.2-3.608,1.534-3.579-8.419,3.608-1.534.511,1.2-2.286.971Z" transform="translate(-1166.188 -676.399)" fill="#4d596e"/>
        <path id="Trazado_126070" data-name="Trazado 126070" d="M1332.347,712.316a2.738,2.738,0,0,1-.561-.983l-.559-1.323c-.332-.781-.719-.958-1.321-.7l-.457.195,1.458,3.428-1.324.561L1326,705.074l2-.849a1.839,1.839,0,0,1,2.782,1.1l.279.659a1.823,1.823,0,0,1-.14,2.076c.78,0,1.265.54,1.641,1.418l.552,1.3a2.691,2.691,0,0,0,.578.961Zm-4.512-6.6,1.1,2.586.517-.22c.493-.209.7-.554.415-1.227l-.352-.83c-.253-.6-.573-.78-1.042-.579Z" transform="translate(-1214.253 -660.531)" fill="#4d596e"/>
        <path id="Trazado_126071" data-name="Trazado 126071" d="M1380.845,678.932l-4.065-4.917,1.384-.59,2.641,3.408-.621-4.267,1.265-.536.722,6.339,1.186,2.791-1.325.563Z" transform="translate(-1260.752 -631.292)" fill="#4d596e"/>
        <rect id="Rectángulo_30484" data-name="Rectángulo 30484" width="12.468" height="59.196" transform="translate(83.478 29.656) rotate(-12.29)" fill="#fff" opacity="0.5"/>
        <rect id="Rectángulo_30485" data-name="Rectángulo 30485" width="67.242" height="6.964" transform="translate(73.368 92.626) rotate(-12.29)" fill="#4d596e"/>
        <path id="Trazado_126072" data-name="Trazado 126072" d="M349.8,198.309,327.585,102.9a9.453,9.453,0,0,0-4.565-6.09l-9.556-5.382A3.162,3.162,0,0,0,309,92.947l-.6,1.405a3.529,3.529,0,0,0,1.513,4.458l8.755,4.932a4.626,4.626,0,0,1,2.236,2.984l21.811,93.755Z" transform="translate(-282.186 -99.268)" fill="#4d596e"/>
        <rect id="Rectángulo_30486" data-name="Rectángulo 30486" width="67.242" height="6.964" transform="translate(73.368 92.626) rotate(-12.29)" fill="#4d596e"/>
        <path id="Trazado_126073" data-name="Trazado 126073" d="M349.8,198.309,327.585,102.9a9.453,9.453,0,0,0-4.565-6.09l-9.556-5.382A3.162,3.162,0,0,0,309,92.947l-.6,1.405a3.529,3.529,0,0,0,1.513,4.458l8.755,4.932a4.626,4.626,0,0,1,2.236,2.984l21.811,93.755Z" transform="translate(-282.186 -99.268)" fill="#4d596e"/>
        <path id="Trazado_126074" data-name="Trazado 126074" d="M648.076,1251.615a12.773,12.773,0,1,1-15.2-9.762A12.773,12.773,0,0,1,648.076,1251.615Z" transform="translate(-570.355 -1152.806)" fill="#4d596e"/>
        <path id="Trazado_126075" data-name="Trazado 126075" d="M648.076,1251.615a12.773,12.773,0,1,1-15.2-9.762A12.773,12.773,0,0,1,648.076,1251.615Z" transform="translate(-570.355 -1152.806)" fill="#cdf4f3" opacity="0.2" style="mix-blend-mode: screen;isolation: isolate"/>
        <path id="Trazado_126076" data-name="Trazado 126076" d="M710.842,1321.939a6.424,6.424,0,1,1-7.643-4.91A6.424,6.424,0,0,1,710.842,1321.939Z" transform="translate(-639.324 -1221.779)" fill="#4d596e"/>
      </g>
      <rect id="Rectángulo_30487" data-name="Rectángulo 30487" width="67.242" height="6.964" transform="translate(73.368 107.097) rotate(-12.29)" fill="#4d596e"/>
      <path id="Trazado_126078" data-name="Trazado 126078" d="M349.8,198.309,327.585,102.9a9.453,9.453,0,0,0-4.565-6.09l-9.556-5.382A3.162,3.162,0,0,0,309,92.947l-.6,1.405a3.529,3.529,0,0,0,1.513,4.458l8.755,4.932a4.626,4.626,0,0,1,2.236,2.984l21.811,93.755Z" transform="translate(-282.186 -84.797)" fill="#4d596e"/>
      <rect id="Rectángulo_30488" data-name="Rectángulo 30488" width="67.242" height="6.964" transform="translate(73.368 107.097) rotate(-12.29)" fill="#4d596e"/>
      <path id="Trazado_126079" data-name="Trazado 126079" d="M349.8,198.309,327.585,102.9a9.453,9.453,0,0,0-4.565-6.09l-9.556-5.382A3.162,3.162,0,0,0,309,92.947l-.6,1.405a3.529,3.529,0,0,0,1.513,4.458l8.755,4.932a4.626,4.626,0,0,1,2.236,2.984l21.811,93.755Z" transform="translate(-282.186 -84.797)" fill="#4d596e"/>
    </g>
  </g>
</svg>
