<svg xmlns="http://www.w3.org/2000/svg" xmlns:xlink="http://www.w3.org/1999/xlink" width="164.867" height="139.913" viewBox="0 0 164.867 139.913">
  <defs>
    <clipPath id="clip-path">
      <path id="Trazado_126041" data-name="Trazado 126041" d="M18.49,269.938c0,33.871,60.965,70.865,94.6,70.865s69.765-36.994,69.765-70.865S168.662,213.131,119,238.813C89.08,254.284,18.49,236.068,18.49,269.938Z" transform="translate(-18.49 -227.809)" fill="none"/>
    </clipPath>
  </defs>
  <g id="graficos9-09" transform="translate(-18.49 -56.158)" style="isolation: isolate">
    <g id="Layer_1" data-name="Layer 1" transform="translate(18.49 56.158)">
      <path id="Trazado_126032" data-name="Trazado 126032" d="M443.464,116.254c3.01,29.928,48.946,82.787,79.777,79.687s34.882-60.991,31.872-90.916S524.67,53.352,493.839,56.453,440.454,86.326,443.464,116.254Z" transform="translate(-407.39 -56.158)" fill="#b1a8d1"/>
      <path id="Trazado_126033" data-name="Trazado 126033" d="M24.49,267.972c0,33.871,60.965,70.865,94.6,70.865s69.765-36.994,69.765-70.865S174.662,211.166,125,236.847C95.08,252.318,24.49,234.1,24.49,267.972Z" transform="translate(-23.984 -211.538)" fill="#a8dde2"/>
      <g id="Grupo_55670" data-name="Grupo 55670" transform="translate(0 14.471)" clip-path="url(#clip-path)">
        <g id="Grupo_55669" data-name="Grupo 55669" transform="translate(32.799 23.637)" opacity="0.1" style="mix-blend-mode: color-burn;isolation: isolate">
          <path id="Trazado_126034" data-name="Trazado 126034" d="M523.308,535.256,521.16,521.04h0l-.429-2.846-.866-5.733a1.879,1.879,0,0,0-2.139-1.577l-30.659,4.63a4.6,4.6,0,0,0,.655-.506,3.274,3.274,0,0,0,1.193-1.875,2.782,2.782,0,0,0-2.259-3.243l-9.8-1.7-16.8,1.568-24.6,21.718-3.768,9.667s-18.387,39.75-18.963,40.418L407.54,601.7l27.652,1.052,5.833-9.8a14.948,14.948,0,0,1,5.031-5.1l7.672-4.7a23.973,23.973,0,0,0,5.348-4.468l10.684-11.971a21.964,21.964,0,0,1,2.973-2.77,36.843,36.843,0,0,1,4.16-3.094l6.8-2.932q.574-.293,1.133-.638t1.077-.728c3.655-3.892,6.92-5.669,10.631-7.84a2.07,2.07,0,0,0,.843-1.7l-.008-.494a4.562,4.562,0,0,0-5.063-4.451l-5.148.569,34.57-5.228a1.88,1.88,0,0,0,1.581-2.14Zm-46.382-18.281c.129-.018.257-.035.384-.046l1.375-.128a1.874,1.874,0,0,0-1.367,2.086l.468,3.1h0l.029.189-7.864-3.751,6.594-1.378C476.67,517.018,476.8,516.995,476.926,516.975ZM468.4,549.948a17.426,17.426,0,0,1-3.97.051,7.894,7.894,0,0,1-1.278-.59c-2.705-2.049-7.211-7.15-6.6-9.8a16.752,16.752,0,0,1,.364-1.8l.666-2.071,2.135-1.247a2.049,2.049,0,0,1,2.059,0l6.66,3.856,3.865,4.815a7.307,7.307,0,0,0,.927.961,7.384,7.384,0,0,0,1.085.778l.736.432a3.636,3.636,0,0,0,2,.5c.019,0,.037-.005.056-.007a31.307,31.307,0,0,1-8.709,4.112Zm11.321-5.91a2.419,2.419,0,0,0,.094-.389,2.535,2.535,0,0,0-.492-1.93l-1.77-2.324-2.643-4.733a8.026,8.026,0,0,0-2.117-2.449l-6.506-5a4.281,4.281,0,0,1,2.313.268l6.374,2.607a7.6,7.6,0,0,1,2.624,1.786l2,2.088,1.165,7.719a1.88,1.88,0,0,0,1.37,1.533c-.314.064-.63.143-.943.239A9.983,9.983,0,0,0,479.719,544.039Z" transform="translate(-407.54 -508.19)" fill="#5b6678"/>
        </g>
        <path id="Trazado_126035" data-name="Trazado 126035" d="M997.5,674.11l10.678,8.2a8.023,8.023,0,0,1,2.117,2.445l2.647,4.737,1.771,2.324a2.546,2.546,0,0,1-.558,3.625l.237-.169a3.652,3.652,0,0,1-3.953.162L1009.7,695a7.38,7.38,0,0,1-1.085-.778,7.306,7.306,0,0,1-.927-.961l-3.865-4.815-6.66-3.856a2.049,2.049,0,0,0-2.059,0l-2.885,1.686.561-9.424Z" transform="translate(-910.13 -636.485)" fill="#fbd6a7"/>
        <path id="Trazado_126036" data-name="Trazado 126036" d="M1004.946,580.78l13.872,6.616,3.979,14.79-5.43-5.678a7.6,7.6,0,0,0-2.624-1.786l-6.379-2.6a4.333,4.333,0,0,0-3.569.129L997,596.111l.231-11.94Z" transform="translate(-914.507 -551.023)" fill="#ffdbac"/>
        <path id="Trazado_126037" data-name="Trazado 126037" d="M412.681,559.771c.577-.668,18.968-40.418,18.968-40.418l3.767-9.667,24.592-21.718,16.8-1.568,9.8,1.7a2.787,2.787,0,0,1,2.259,3.274l.055-.282a3.236,3.236,0,0,1-1.243,2.127,4.544,4.544,0,0,1-2.684,1.2l-7.728.718c-.127.011-.253.027-.384.046s-.253.042-.381.068l-7.587,1.585a3.5,3.5,0,0,0-1.948,1.151l-5.789,6.749a8.179,8.179,0,0,0-.942,1.349,8.273,8.273,0,0,0-.658,1.509l-2.711,8.43a16.7,16.7,0,0,0-.364,1.795c-.615,2.647,3.891,7.748,6.6,9.8a7.941,7.941,0,0,0,1.278.59,17.38,17.38,0,0,0,3.97-.051,33.021,33.021,0,0,0,11.044-5.782,10.054,10.054,0,0,1,1.742-.714,10.164,10.164,0,0,1,1.844-.381l9.273-1.023a4.562,4.562,0,0,1,5.063,4.451l.008.493a2.07,2.07,0,0,1-.843,1.7c-3.709,2.172-6.976,3.949-10.631,7.84q-.518.382-1.077.728t-1.133.638l-6.8,2.932a36.574,36.574,0,0,0-4.16,3.094,21.962,21.962,0,0,0-2.973,2.77l-10.684,11.971a23.972,23.972,0,0,1-5.348,4.468l-7.672,4.7a14.949,14.949,0,0,0-5.031,5.1l-5.833,9.8-27.648-1.051Z" transform="translate(-374.696 -464.6)" fill="#ffe3b2"/>
        <path id="Trazado_126038" data-name="Trazado 126038" d="M1472.2,542.5l-2.147-14.215-.429-2.846-.866-5.733a1.879,1.879,0,0,0-2.139-1.577l-12.194,1.84L1443.79,548.69l26.83-4.047a1.88,1.88,0,0,0,1.577-2.144Z" transform="translate(-1323.631 -493.633)" fill="#fff" opacity="0.05" style="mix-blend-mode: screen;isolation: isolate"/>
        <path id="Trazado_126039" data-name="Trazado 126039" d="M1280.95,542.49a1.88,1.88,0,0,1-1.581,2.14l-38.831,5.863a1.879,1.879,0,0,1-2.139-1.577l-3.442-22.8a1.878,1.878,0,0,1,1.577-2.139l38.831-5.864a1.879,1.879,0,0,1,2.139,1.577Z" transform="translate(-1132.384 -493.624)" fill="#c1507f"/>
        <rect id="Rect치ngulo_30467" data-name="Rect치ngulo 30467" width="43.03" height="5.544" transform="translate(103.046 35.589) rotate(-8.59)" fill="#45413f"/>
        <rect id="Rect치ngulo_30468" data-name="Rect치ngulo 30468" width="37.677" height="3.947" transform="translate(106.447 42.131) rotate(-8.59)" fill="#fff"/>
        <path id="Trazado_126040" data-name="Trazado 126040" d="M1444.845,542.49l-3.442-22.8a1.879,1.879,0,0,0-2.139-1.577l-25.344,3.827,17.289,24.263,12.056-1.578a1.88,1.88,0,0,0,1.581-2.14Z" transform="translate(-1296.279 -493.624)" fill="#fff" opacity="0.1" style="mix-blend-mode: screen;isolation: isolate"/>
      </g>
    </g>
  </g>
</svg>
