<svg id="Email_campaign-pana-04" data-name="Email campaign-pana-04" xmlns="http://www.w3.org/2000/svg" width="460" height="284.312" viewBox="0 0 460 284.312">
  <g id="freepik--background-simple--inject-13" transform="translate(53.353 12.932)">
    <path id="Trazado_100183" data-name="Trazado 100183" d="M127.928,259.653H343.315a150.882,150.882,0,0,0,37.874-30.788C416.13,189.428,428.973,122.748,411.034,73.3l-1.653-3.56a87.792,87.792,0,0,0-72.918-50.724,86.639,86.639,0,0,0-13.435.055c-29.81,2.458-57.748,20.714-71.617,46.826-8.16,15.343-12.175,33.681-25.479,45.022-17.284,14.757-43.2,12.078-65.846,8.58s-48.582-6.115-65.8,8.718c-10.784,9.29-15.646,23.792-16.61,37.874C75.138,202.911,96.912,238.836,127.928,259.653Z" transform="translate(-77.478 -18.78)" fill="#e0e0e0"/>
  </g>
  <g id="freepik--Plant--inject-13" transform="translate(374.872 121.597)">
    <path id="Trazado_100184" data-name="Trazado 100184" d="M562.109,279.936a21.706,21.706,0,0,0-9.31-3.216,6.255,6.255,0,0,0-4.414.813.93.93,0,0,0-.454.806,1.033,1.033,0,0,0,.434.551,13.339,13.339,0,0,0,13.772,1.047" transform="translate(-545.485 -207.74)" fill="#26aab7"/>
    <path id="Trazado_100185" data-name="Trazado 100185" d="M563.68,274.416a45.507,45.507,0,0,1-6.026-5.3,15.15,15.15,0,0,1-3.774-6.983,2.818,2.818,0,0,1,.3-2.341c4.82,3.753,8.573,8.608,9.5,14.626" transform="translate(-547.297 -202.49)" fill="#26aab7"/>
    <path id="Trazado_100186" data-name="Trazado 100186" d="M568.309,274.833a21.641,21.641,0,0,1,.11-7.905,10.681,10.681,0,0,1,4.214-6.528c.826,1.935.475,4.173-.11,6.2a30.06,30.06,0,0,1-4.18,8.8" transform="translate(-551.734 -202.68)" fill="#26aab7"/>
    <path id="Trazado_100187" data-name="Trazado 100187" d="M569.972,293.66a13.833,13.833,0,0,0-7.485,3.787,14.148,14.148,0,0,0-4.276,7.348c2.8-.172,5.178-2.148,6.886-4.366s2.92-4.648,4.82-6.721" transform="translate(-548.686 -213.036)" fill="#26aab7"/>
    <path id="Trazado_100188" data-name="Trazado 100188" d="M576.19,287.68a18.463,18.463,0,0,1,2.128-17.45,22.193,22.193,0,0,1-2.128,17.45" transform="translate(-553.886 -205.74)" fill="#26aab7"/>
    <path id="Trazado_100189" data-name="Trazado 100189" d="M579.95,306.319a13.353,13.353,0,0,0-12.753,7.348.991.991,0,0,0-.09,1,.95.95,0,0,0,.847.248c2.513-.165,4.745-1.673,6.583-3.395a62.941,62.941,0,0,1,5.475-5.206" transform="translate(-551.427 -216.97)" fill="#26aab7"/>
    <path id="Trazado_100190" data-name="Trazado 100190" d="M585.035,297.757a23.733,23.733,0,0,1-.241-13.277c.468-1.708,1.253-3.505,2.83-4.311a.579.579,0,0,1,.434-.076.593.593,0,0,1,.275.317,7.932,7.932,0,0,1,.689,3.808,23.611,23.611,0,0,1-.592,3.856c-.5,2.355-.764,4.889-2.066,6.921a14.066,14.066,0,0,0-.819,1.522c-.248.516-.248.689-.468,1.109" transform="translate(-556.705 -208.808)" fill="#26aab7"/>
    <path id="Trazado_100191" data-name="Trazado 100191" d="M609.223,302.7a17.123,17.123,0,0,1,3-14.075c.213-.275.5-.578.847-.544.544.048.689.764.689,1.308a25.4,25.4,0,0,1-4.5,13.311" transform="translate(-564.429 -211.297)" fill="#26aab7"/>
    <path id="Trazado_100192" data-name="Trazado 100192" d="M611.59,308.569a20.471,20.471,0,0,0,16.8-3.443,13.629,13.629,0,0,0-9.1-1.116,12.976,12.976,0,0,0-7.7,4.531" transform="translate(-565.308 -216.156)" fill="#26aab7"/>
    <path id="Trazado_100193" data-name="Trazado 100193" d="M613.4,302.3a19.441,19.441,0,0,1,15.246-8.814A9.331,9.331,0,0,1,623.661,299a27.837,27.837,0,0,1-7.32,2.183c-.971.186-2.307.393-2.94,1.157" transform="translate(-565.871 -212.983)" fill="#26aab7"/>
    <path id="Trazado_100194" data-name="Trazado 100194" d="M608.9,276.477a44.228,44.228,0,0,0,1.949-8.952,14.857,14.857,0,0,0-1.784-8.835,19.455,19.455,0,0,0-.255,18.069" transform="translate(-563.787 -202.147)" fill="#26aab7"/>
    <path id="Trazado_100195" data-name="Trazado 100195" d="M624.31,271.815c3.443-6.266,10.488-11.273,17.608-11.975-2.754,6.838-10.24,12.127-17.608,11.975" transform="translate(-569.268 -202.505)" fill="#26aab7"/>
    <path id="Trazado_100196" data-name="Trazado 100196" d="M621.15,278.553c5.151.778,9.531,4.07,14.337,6.06a6.416,6.416,0,0,0,3.244.62,2.534,2.534,0,0,0,1.584-4.49,6.885,6.885,0,0,0-2.348-1.425A26.147,26.147,0,0,0,621.6,278.4" transform="translate(-568.284 -208.01)" fill="#26aab7"/>
    <path id="Trazado_100197" data-name="Trazado 100197" d="M616.83,284.145a6.06,6.06,0,0,1,2.486,1.722,26.778,26.778,0,0,0,10.873,5.585c.413.1.957.138,1.164-.234s-.048-.723-.282-1.019a15.037,15.037,0,0,0-6.563-4.455c-2.507-.93-4.683-2.066-7.678-1.818" transform="translate(-566.939 -209.994)" fill="#26aab7"/>
    <path id="Trazado_100198" data-name="Trazado 100198" d="M611.987,252.408a20.577,20.577,0,0,0,15.776,5.364,1.062,1.062,0,0,0,.689-.255c.4-.434-.083-1.1-.544-1.46a18.163,18.163,0,0,0-15.949-3.65" transform="translate(-565.423 -200.018)" fill="#26aab7"/>
    <path id="Trazado_100199" data-name="Trazado 100199" d="M617.727,248.557a21.988,21.988,0,0,1,19.681-3.243,15.652,15.652,0,0,1-9.379,4.132,29.71,29.71,0,0,1-10.329-.875" transform="translate(-567.21 -197.661)" fill="#26aab7"/>
    <path id="Trazado_100200" data-name="Trazado 100200" d="M614.239,229.657c-.455-4.628-.158-8.263-.482-12.932,0-.372-.1-.819-.454-.95-.482-.186-.888.406-1.047.9a14.835,14.835,0,0,0,1.976,12.877" transform="translate(-565.305 -188.773)" fill="#26aab7"/>
    <path id="Trazado_100201" data-name="Trazado 100201" d="M615,230.084a27.131,27.131,0,0,0,7.664-7.451c1.515-2.066,2.755-4.552,2.445-7.093a7.334,7.334,0,0,0-5.509,2.754,15.381,15.381,0,0,0-2.817,5.667c-.613,2.066-1.047,4.132-1.763,6.129" transform="translate(-566.369 -188.711)" fill="#26aab7"/>
    <path id="Trazado_100202" data-name="Trazado 100202" d="M625.846,228.417a61.8,61.8,0,0,0,18.868-11.128c-2.252-.909-4.82-.365-7.086.544a22.356,22.356,0,0,0-11.879,10.529" transform="translate(-569.717 -189.11)" fill="#26aab7"/>
    <path id="Trazado_100203" data-name="Trazado 100203" d="M618,237.9a38.688,38.688,0,0,0,10.474.055,44.614,44.614,0,0,0,9.785-3.25,1.13,1.13,0,0,0,.689-.51.764.764,0,0,0-.234-.833,2.065,2.065,0,0,0-.833-.392,18.14,18.14,0,0,0-10.57.633,49.142,49.142,0,0,0-9.31,4.3" transform="translate(-567.304 -193.976)" fill="#26aab7"/>
    <path id="Trazado_100204" data-name="Trazado 100204" d="M588.36,245.906a18.533,18.533,0,0,1-.172-15.336c1.446,2.2,1.625,5.006,1.377,7.623s-1.06,5.316-1.109,7.954" transform="translate(-557.531 -193.391)" fill="#26aab7"/>
    <path id="Trazado_100205" data-name="Trazado 100205" d="M568.173,245.889a21.347,21.347,0,0,0-15.893,6.769,14.828,14.828,0,0,0,8.7-1.611,44.191,44.191,0,0,0,7.458-4.992" transform="translate(-546.84 -198.161)" fill="#26aab7"/>
    <path id="Trazado_100206" data-name="Trazado 100206" d="M559.337,242.663c-2.906-.234-5.695-.6-8.491.262a10.179,10.179,0,0,0-6.466,5.509,15.333,15.333,0,0,0,7.954-1.5,46.268,46.268,0,0,0,7-4.242" transform="translate(-544.38 -197.069)" fill="#26aab7"/>
    <path id="Trazado_100207" data-name="Trazado 100207" d="M572.126,240.932c-2.61-1.715-5.3-3.443-8.332-4.132s-6.563-.186-8.684,2.066c2.458,1.446,5.447,1.618,8.263,1.618s6.356-.034,9.042.916" transform="translate(-547.721 -195.242)" fill="#26aab7"/>
    <path id="Trazado_100208" data-name="Trazado 100208" d="M577.549,234.879c-4.462-4.387-6.156-12.257-4.359-18.249a27.807,27.807,0,0,1,4.359,18.249" transform="translate(-553.131 -189.051)" fill="#26aab7"/>
    <path id="Trazado_100209" data-name="Trazado 100209" d="M597.67,218.592c.84-1.956,1.432-4.008,2.183-6a17.33,17.33,0,0,1,3.126-5.509,8.2,8.2,0,0,1,5.509-2.865,22.284,22.284,0,0,1-10.736,14.461" transform="translate(-560.973 -185.186)" fill="#26aab7"/>
    <path id="Trazado_100210" data-name="Trazado 100210" d="M589.218,225.293c-1.377-1.914-3-4.517-4.889-5.95a8.182,8.182,0,0,0-6.659-1.749,15.494,15.494,0,0,0,11.548,7.7" transform="translate(-554.746 -189.299)" fill="#26aab7"/>
    <path id="Trazado_100211" data-name="Trazado 100211" d="M594.009,218.825a32.747,32.747,0,0,1-2.2-7.134,11.117,11.117,0,0,1,1.116-7.251c2.451,4.634,3.237,9.641,1.212,14.461" transform="translate(-559.089 -185.255)" fill="#26aab7"/>
    <path id="Trazado_100212" data-name="Trazado 100212" d="M597.7,200.006c1.377-4.593,5.592-7.974,10.13-9.524a3.85,3.85,0,0,1,1.777-.269,1.543,1.543,0,0,1,1.308,1.095c.165.778-.475,1.481-1.088,2a34.487,34.487,0,0,1-12.127,6.7" transform="translate(-560.983 -180.821)" fill="#26aab7"/>
    <path id="Trazado_100213" data-name="Trazado 100213" d="M597.733,192.012a33.276,33.276,0,0,1,1.322-8.773,11.071,11.071,0,0,1,5.509-6.659c.461,2.989-.861,5.964-2.452,8.532s-3.512,5.006-4.462,7.871" transform="translate(-560.967 -176.58)" fill="#26aab7"/>
    <path id="Trazado_100214" data-name="Trazado 100214" d="M593.795,194.67c-1.15-3.347-1.267-7.575-3.271-10.515-1.377-2.066-3.643-3.443-4.82-5.585a8.538,8.538,0,0,0,.282,6.342,18.34,18.34,0,0,0,3.712,5.3c1.481,1.584,2.755,2.755,4.132,4.455" transform="translate(-557.098 -177.2)" fill="#26aab7"/>
    <path id="Trazado_100215" data-name="Trazado 100215" d="M597.622,299.963c-.089,0-.165-22.318-.172-49.849s.062-49.863.151-49.863.165,22.318.172,49.863S597.711,299.963,597.622,299.963Z" transform="translate(-560.904 -183.95)" fill="#263238"/>
    <path id="Trazado_100216" data-name="Trazado 100216" d="M617.164,247.95a5.232,5.232,0,0,1-.84.317l-2.314.778c-1.942.689-4.621,1.625-7.527,2.81s-5.585,2.238-7.127,3.574a5.257,5.257,0,0,0-1.432,1.9c-.22.523-.262.84-.289.833s0-.076,0-.234a3.555,3.555,0,0,1,.165-.647,5,5,0,0,1,1.377-2.018,12.463,12.463,0,0,1,3.092-1.928c1.239-.572,2.61-1.178,4.07-1.777,2.913-1.191,5.605-2.121,7.575-2.755.985-.3,1.79-.53,2.348-.689A4.841,4.841,0,0,1,617.164,247.95Z" transform="translate(-560.958 -198.803)" fill="#263238"/>
    <path id="Trazado_100217" data-name="Trazado 100217" d="M624.293,225.14a1.143,1.143,0,0,1-.234.248l-.689.689-2.672,2.431-8.9,7.926c-3.443,3.092-6.473,6.046-8.553,8.263-1.047,1.116-1.866,2.031-2.424,2.672l-.647.744a1.479,1.479,0,0,1-.241.241,2.3,2.3,0,0,1,.193-.282c.138-.179.33-.448.6-.778.53-.689,1.329-1.618,2.348-2.754a113.359,113.359,0,0,1,8.511-8.36c3.484-3.085,6.659-5.86,8.952-7.857l2.754-2.355c.3-.248.558-.454.757-.627A1.474,1.474,0,0,1,624.293,225.14Z" transform="translate(-561.677 -191.7)" fill="#263238"/>
    <path id="Trazado_100218" data-name="Trazado 100218" d="M611.676,242.586c-.1-.034.634-1.715,1.377-3.836s1.074-3.9,1.164-3.891a13.2,13.2,0,0,1-.861,3.994,25.862,25.862,0,0,1-1.081,2.686A4.382,4.382,0,0,1,611.676,242.586Z" transform="translate(-565.332 -194.727)" fill="#26aab7"/>
    <path id="Trazado_100219" data-name="Trazado 100219" d="M591.888,258.327a4.128,4.128,0,0,1-.537-.627l-1.377-1.756c-1.15-1.487-2.754-3.546-4.531-5.8s-3.443-4.263-4.614-5.722l-1.377-1.735a4.587,4.587,0,0,1-.482-.689,3.893,3.893,0,0,1,.578.578c.358.386.861.957,1.481,1.666,1.233,1.425,2.906,3.443,4.7,5.674s3.354,4.338,4.455,5.86c.558.764,1,1.377,1.294,1.825A4.248,4.248,0,0,1,591.888,258.327Z" transform="translate(-555.15 -196.95)" fill="#263238"/>
    <path id="Trazado_100220" data-name="Trazado 100220" d="M590.517,254.672a7.807,7.807,0,0,1-1.8-3.354,9.732,9.732,0,0,1-.406-3.381h.145c-.062.255-.11.393-.138.386s0-.145,0-.413h.138a15.8,15.8,0,0,0,.572,3.292,24.452,24.452,0,0,0,1.487,3.471Z" transform="translate(-558.055 -198.791)" fill="#26aab7"/>
    <path id="Trazado_100221" data-name="Trazado 100221" d="M579.144,247.023a6.286,6.286,0,0,0-1.253-.723,8.362,8.362,0,0,0-3.443-.275,21.164,21.164,0,0,0-3.5.565,11.337,11.337,0,0,1-1.439.344,4.747,4.747,0,0,1,1.377-.565,15.994,15.994,0,0,1,3.533-.689,7.574,7.574,0,0,1,3.581.386A2.218,2.218,0,0,1,579.144,247.023Z" transform="translate(-552.205 -198.075)" fill="#26aab7"/>
    <path id="Trazado_100222" data-name="Trazado 100222" d="M575.466,244.275c0,.048-.73-.289-1.921-.689a19.282,19.282,0,0,0-9.641-.737c-1.24.22-1.983.448-2,.4a1.914,1.914,0,0,1,.51-.22,12.7,12.7,0,0,1,1.446-.406,17.127,17.127,0,0,1,9.785.744,12.028,12.028,0,0,1,1.377.627,1.792,1.792,0,0,1,.448.282Z" transform="translate(-549.835 -197.022)" fill="#26aab7"/>
    <path id="Trazado_100223" data-name="Trazado 100223" d="M596.555,230.432a38.022,38.022,0,0,1-1.377-4.855,38.542,38.542,0,0,1-1.088-4.937,39.956,39.956,0,0,1,1.377,4.862,40.229,40.229,0,0,1,1.088,4.931Z" transform="translate(-559.859 -190.299)" fill="#263238"/>
    <path id="Trazado_100224" data-name="Trazado 100224" d="M596.066,232.481a24.692,24.692,0,0,0-1.549-2.906,12.992,12.992,0,0,0-2.286-2.355,2.166,2.166,0,0,1,.881.454,7.094,7.094,0,0,1,1.667,1.715A6.537,6.537,0,0,1,596.066,232.481Z" transform="translate(-559.279 -192.348)" fill="#263238"/>
    <path id="Trazado_100225" data-name="Trazado 100225" d="M588.452,313.039c-.034,0-.1-.537-.351-1.481a21,21,0,0,0-1.494-3.87,53.518,53.518,0,0,0-7.912-11.149c-1.77-2.018-3.484-3.925-4.937-5.743a40.451,40.451,0,0,1-3.533-5.1,25.158,25.158,0,0,1-1.784-3.774c-.158-.468-.282-.833-.344-1.081a2.119,2.119,0,0,1-.1-.386s.193.51.558,1.419a28.507,28.507,0,0,0,1.866,3.712,43.509,43.509,0,0,0,3.56,5.02c1.467,1.8,3.181,3.7,4.951,5.716a50.8,50.8,0,0,1,7.878,11.266,19.075,19.075,0,0,1,1.377,3.932,10.151,10.151,0,0,1,.2,1.122A2.1,2.1,0,0,1,588.452,313.039Z" transform="translate(-551.735 -208.926)" fill="#263238"/>
    <path id="Trazado_100226" data-name="Trazado 100226" d="M615.341,298.86a10.091,10.091,0,0,1-.9.551,20.524,20.524,0,0,0-2.4,1.584,27.143,27.143,0,0,0-3.147,2.872c-1.109,1.171-2.245,2.52-3.409,3.973-2.321,2.913-4.49,5.509-5.791,7.575a24.291,24.291,0,0,0-1.453,2.486,7.479,7.479,0,0,1-.51.93.689.689,0,0,1,.083-.262c.083-.172.165-.413.31-.723a23.845,23.845,0,0,1,1.377-2.548,81.853,81.853,0,0,1,5.736-7.63c1.164-1.453,2.314-2.817,3.443-3.98a25.658,25.658,0,0,1,3.23-2.844,17.242,17.242,0,0,1,2.472-1.515c.31-.151.558-.248.689-.317A2.794,2.794,0,0,1,615.341,298.86Z" transform="translate(-560.995 -214.655)" fill="#263238"/>
    <path id="Trazado_100227" data-name="Trazado 100227" d="M618.31,308.231a13.215,13.215,0,0,1-1.928.289,25.886,25.886,0,0,0-4.627.916,13.663,13.663,0,0,0-4.132,2.176c-.957.737-1.412,1.377-1.453,1.308a1.609,1.609,0,0,1,.289-.448,6.931,6.931,0,0,1,1.019-1.04,12.5,12.5,0,0,1,4.187-2.307,20.646,20.646,0,0,1,4.71-.833,10.567,10.567,0,0,1,1.935-.062Z" transform="translate(-563.62 -217.567)" fill="#26aab7"/>
    <path id="Trazado_100228" data-name="Trazado 100228" d="M606.936,311.02c-.1-.055.778-1.377,1.46-3.209s.792-3.443.9-3.4a3.106,3.106,0,0,1,0,1.047,11.7,11.7,0,0,1-.572,2.465,12.079,12.079,0,0,1-1.136,2.266C607.219,310.731,606.978,311.048,606.936,311.02Z" transform="translate(-563.856 -216.383)" fill="#26aab7"/>
    <path id="Trazado_100229" data-name="Trazado 100229" d="M621.028,273.66a2.473,2.473,0,0,1-.317.165l-.916.413c-.4.172-.888.393-1.439.689s-1.191.578-1.866.985l-1.067.606c-.365.207-.73.461-1.122.689-.785.482-1.57,1.067-2.41,1.666a45.034,45.034,0,0,0-5.041,4.428,46.082,46.082,0,0,0-4.256,5.178c-.572.861-1.129,1.667-1.577,2.472-.227.393-.468.771-.689,1.143s-.386.744-.572,1.088c-.379.689-.647,1.336-.916,1.9s-.475,1.054-.634,1.46-.282.689-.386.93a1.5,1.5,0,0,1-.151.317,1.227,1.227,0,0,1,.1-.337c.083-.255.193-.565.324-.957s.331-.916.585-1.487.51-1.233.875-1.928l.558-1.1c.193-.379.434-.758.689-1.164.448-.813,1-1.632,1.57-2.5a43.345,43.345,0,0,1,4.263-5.24,44.825,44.825,0,0,1,5.089-4.442c.854-.6,1.653-1.178,2.445-1.646.4-.241.771-.489,1.143-.689s.737-.4,1.081-.592c.689-.386,1.336-.689,1.9-.936a15.084,15.084,0,0,1,1.467-.634l.943-.365A1.006,1.006,0,0,1,621.028,273.66Z" transform="translate(-560.973 -206.808)" fill="#263238"/>
    <path id="Trazado_100230" data-name="Trazado 100230" d="M611.33,286.2a2.24,2.24,0,0,1,.764-1.143,4.869,4.869,0,0,1,3.092-1.184,8.526,8.526,0,0,1,3.25.633,4.74,4.74,0,0,1,1.233.6,7.078,7.078,0,0,1-1.3-.379,9.725,9.725,0,0,0-3.168-.53,5,5,0,0,0-2.954,1.033A8.967,8.967,0,0,0,611.33,286.2Z" transform="translate(-565.227 -209.988)" fill="#26aab7"/>
    <path id="Trazado_100231" data-name="Trazado 100231" d="M608.3,287.733a8.263,8.263,0,0,0,.689-5.833,1.9,1.9,0,0,1,.365.833,5.9,5.9,0,0,1,.152,2.183,5.814,5.814,0,0,1-.654,2.066C608.569,287.505,608.334,287.76,608.3,287.733Z" transform="translate(-564.283 -209.374)" fill="#26aab7"/>
    <path id="Trazado_100232" data-name="Trazado 100232" d="M575.31,332.42c.482,8.532,3.051,17.216,7,25.975h17.216c3.774-8.684,6.163-17.346,6.59-25.975Z" transform="translate(-554.011 -225.105)" fill="#455a64"/>
    <path id="Trazado_100233" data-name="Trazado 100233" d="M604.563,352.388c0,.09-5.667.165-12.65.165s-12.643-.076-12.643-.165,5.66-.158,12.643-.158S604.563,352.306,604.563,352.388Z" transform="translate(-555.244 -231.273)" fill="#fafafa"/>
    <path id="Trazado_100234" data-name="Trazado 100234" d="M604.7,356.878c0,.09-5.309.165-11.858.165s-11.851-.076-11.851-.165,5.309-.158,11.851-.158S604.7,356.789,604.7,356.878Z" transform="translate(-555.779 -232.672)" fill="#fafafa"/>
  </g>
  <g id="freepik--Device--inject-13" transform="translate(82.538 75.721)">
    <rect id="Rectángulo_29399" data-name="Rectángulo 29399" width="264.789" height="175.103" rx="14.57" transform="translate(10.35)" fill="#455a64"/>
    <path id="Trazado_100235" data-name="Trazado 100235" d="M119.86,347.82H406.74v3.064a12.257,12.257,0,0,1-12.257,12.257H132.118a12.257,12.257,0,0,1-12.257-12.257V347.82Z" transform="translate(-119.86 -184.024)" fill="#455a64"/>
    <rect id="Rectángulo_29400" data-name="Rectángulo 29400" width="249.832" height="147.868" transform="translate(17.457 6.955)" fill="#263238"/>
    <path id="Trazado_100236" data-name="Trazado 100236" d="M289.25,345.43,292.8,351.1h50.1l3.305-5.667Z" transform="translate(-172.604 -183.28)" fill="#263238"/>
    <rect id="Rectángulo_29401" data-name="Rectángulo 29401" width="240.054" height="142.393" rx="3.27" transform="translate(22.607 11.961)" fill="#ebebeb"/>
    <path id="Trazado_100237" data-name="Trazado 100237" d="M392.364,274.744H152.31l.262-131.954H392.364Z" transform="translate(-129.964 -120.183)" fill="#fafafa"/>
    <path id="Trazado_100238" data-name="Trazado 100238" d="M179.543,134.454a1.921,1.921,0,1,1-1.928-1.914h.007a1.914,1.914,0,0,1,1.921,1.907Z" transform="translate(-137.247 -116.991)" fill="#263238"/>
    <path id="Trazado_100239" data-name="Trazado 100239" d="M162.663,134.454a1.921,1.921,0,1,1-1.928-1.914h.014a1.907,1.907,0,0,1,1.914,1.9Z" transform="translate(-131.991 -116.991)" fill="#263238"/>
    <path id="Trazado_100240" data-name="Trazado 100240" d="M170.763,134.454a1.921,1.921,0,1,1-1.928-1.914h.014a1.907,1.907,0,0,1,1.914,1.9Z" transform="translate(-134.513 -116.991)" fill="#263238"/>
    <path id="Trazado_100241" data-name="Trazado 100241" d="M397.4,345.352c0,.1-58.767.172-131.245.172s-131.265-.076-131.265-.172,58.76-.172,131.265-.172S397.4,345.263,397.4,345.352Z" transform="translate(-124.54 -183.202)" fill="#263238"/>
    <path id="Trazado_100242" data-name="Trazado 100242" d="M264.036,217.229l97.667-.909,2.858,66.39-101.131-.723Z" transform="translate(-164.564 -143.078)" fill="#7d6eb2"/>
    <path id="Trazado_100243" data-name="Trazado 100243" d="M264.31,200.167l46.138-37.5a5.315,5.315,0,0,1,6.707,0l44.816,36.58" transform="translate(-164.838 -126.002)" fill="#7d6eb2"/>
    <g id="Grupo_53344" data-name="Grupo 53344" transform="translate(99.472 35.478)" opacity="0.3">
      <path id="Trazado_100244" data-name="Trazado 100244" d="M264.31,200.167l46.138-37.5a5.315,5.315,0,0,1,6.707,0l44.816,36.58" transform="translate(-264.31 -161.48)"/>
    </g>
    <path id="Trazado_100245" data-name="Trazado 100245" d="M263.429,294.578c-.117-.117,7.678-8.67,17.422-19.1S298.6,256.7,298.721,256.8s-7.678,8.663-17.429,19.1S263.553,294.7,263.429,294.578Z" transform="translate(-164.564 -155.682)" fill="#263238"/>
    <path id="Trazado_100246" data-name="Trazado 100246" d="M395.078,295.688c-.124.117-7.754-8.264-17.043-18.641s-16.72-18.937-16.6-19.047,7.754,8.263,17.05,18.648S395.2,295.578,395.078,295.688Z" transform="translate(-195.082 -156.056)" fill="#263238"/>
    <g id="Grupo_53345" data-name="Grupo 53345" transform="translate(99.472 73.242)" opacity="0.5">
      <path id="Trazado_100247" data-name="Trazado 100247" d="M361.977,216.32,313.016,255.6l-48.706-38.37" transform="translate(-264.31 -216.32)"/>
    </g>
    <path id="Trazado_100248" data-name="Trazado 100248" d="M271.37,208.57l-.22-30.506,85.52-1.184,1.026,32.09L315.139,242.8Z" transform="translate(-166.968 -130.797)" fill="#fafafa"/>
    <path id="Trazado_100249" data-name="Trazado 100249" d="M271.342,208.5s.282.2.813.606l2.328,1.8,8.856,6.886c7.63,5.957,18.593,14.461,31.863,24.845h-.179l42.536-33.86-.062.145c-.2-6.122-.406-12.547-.613-19.082-.145-4.4-.282-8.752-.42-13.015l.179.172-85.513,1.129.11-.117c.041,9.592.083,17.216.1,22.435v6.019c0-1.377-.041-3.374-.069-5.977-.048-5.24-.124-12.863-.214-22.477v-.11h.11l85.465-1.24h.179v.179c.138,4.263.275,8.608.42,13.008.207,6.535.413,12.96.606,19.082v.09l-.069.055-42.584,33.811-.09.076-.09-.076L283.18,217.909l-8.787-6.928-2.293-1.818Z" transform="translate(-166.94 -130.729)" fill="#263238"/>
    <path id="Trazado_100250" data-name="Trazado 100250" d="M349.343,199.191c0,.1-13.084.282-29.211.413s-29.211.158-29.211.062,13.084-.282,29.211-.42S349.343,199.087,349.343,199.191Z" transform="translate(-173.124 -137.724)" fill="#263238"/>
    <path id="Trazado_100251" data-name="Trazado 100251" d="M349.366,211.7c0,.1-13.084.289-29.2.42s-29.211.158-29.211.055,13.084-.282,29.211-.413S349.366,211.608,349.366,211.7Z" transform="translate(-173.134 -141.623)" fill="#263238"/>
    <path id="Trazado_100252" data-name="Trazado 100252" d="M349.4,226.124c0,.1-13.084.289-29.2.42s-29.211.158-29.211.055,13.084-.282,29.211-.413S349.4,226.028,349.4,226.124Z" transform="translate(-173.143 -146.113)" fill="#263238"/>
    <path id="Trazado_100253" data-name="Trazado 100253" d="M350.64,240.543c0,.1-12.471.282-27.862.406s-27.869.152-27.869.048,12.471-.282,27.869-.406S350.64,240.446,350.64,240.543Z" transform="translate(-174.367 -150.602)" fill="#263238"/>
    <path id="Trazado_100254" data-name="Trazado 100254" d="M344.752,253.244a1.14,1.14,0,0,1-.344.041l-.985.041-3.608.09-11.92.22c-4.655.083-8.876.11-11.927.11h-4.593a1.378,1.378,0,0,1-.344-.034,1.141,1.141,0,0,1,.344-.041l.978-.041,3.615-.09,11.92-.214c4.655-.09,8.869-.117,11.92-.117h4.6A1.754,1.754,0,0,1,344.752,253.244Z" transform="translate(-179.386 -154.565)" fill="#263238"/>
    <path id="Trazado_100255" data-name="Trazado 100255" d="M338.4,265.374a107.372,107.372,0,0,1-12.4.028,107.39,107.39,0,0,1,12.4-.028Z" transform="translate(-184.047 -158.293)" fill="#263238"/>
  </g>
  <g id="freepik--Floor--inject-13" transform="translate(0 254.067)">
    <path id="Trazado_100256" data-name="Trazado 100256" d="M460,369.129c0,.1-102.977.179-230,.179s-230-.076-230-.179,102.956-.179,230-.179S460,369.033,460,369.129Z" transform="translate(0 -368.95)" fill="#263238"/>
  </g>
  <g id="freepik--envelope-3--inject-13" transform="translate(248.146 14.507)">
    <path id="Trazado_100257" data-name="Trazado 100257" d="M360.633,176.49c.1,0,.138.4.09.875s-.165.847-.262.84-.138-.406-.09-.881S360.529,176.476,360.633,176.49Z" transform="translate(-360.351 -69.462)" fill="#263238"/>
    <path id="Trazado_100258" data-name="Trazado 100258" d="M361.853,166.75a4.194,4.194,0,0,1-.076,1.694,4.255,4.255,0,0,1-.434,1.646,7.983,7.983,0,0,1,.51-3.34Z" transform="translate(-360.655 -66.429)" fill="#263238"/>
    <path id="Trazado_100259" data-name="Trazado 100259" d="M363.711,157.11a4.133,4.133,0,0,1-.186,1.694,4.227,4.227,0,0,1-.544,1.611,4.063,4.063,0,0,1,.193-1.687,4.131,4.131,0,0,1,.537-1.618Z" transform="translate(-361.164 -63.427)" fill="#263238"/>
    <path id="Trazado_100260" data-name="Trazado 100260" d="M366.275,147.66a7.94,7.94,0,0,1-.985,3.243,4.229,4.229,0,0,1,.324-1.673A4.054,4.054,0,0,1,366.275,147.66Z" transform="translate(-361.889 -60.485)" fill="#263238"/>
    <path id="Trazado_100261" data-name="Trazado 100261" d="M369.583,138.44a4.239,4.239,0,0,1-.461,1.639,4.132,4.132,0,0,1-.792,1.508,4.27,4.27,0,0,1,.461-1.618A4.082,4.082,0,0,1,369.583,138.44Z" transform="translate(-362.835 -57.614)" fill="#263238"/>
    <path id="Trazado_100262" data-name="Trazado 100262" d="M373.712,129.589a8.151,8.151,0,0,1-1.542,3.009,4.127,4.127,0,0,1,.613-1.584C373.21,130.181,373.623,129.541,373.712,129.589Z" transform="translate(-364.031 -54.857)" fill="#263238"/>
    <path id="Trazado_100263" data-name="Trazado 100263" d="M378.716,121.208a4.214,4.214,0,0,1-.792,1.508c-.5.785-.971,1.377-1.054,1.329a4.005,4.005,0,0,1,.751-1.529C378.144,121.739,378.633,121.153,378.716,121.208Z" transform="translate(-365.494 -52.247)" fill="#263238"/>
    <path id="Trazado_100264" data-name="Trazado 100264" d="M384.625,113.468a4.286,4.286,0,0,1-.943,1.419c-.6.689-1.143,1.246-1.226,1.184s.344-.689.95-1.412S384.549,113.406,384.625,113.468Z" transform="translate(-367.23 -49.837)" fill="#263238"/>
    <path id="Trazado_100265" data-name="Trazado 100265" d="M391.4,106.5c.069.076-.427.654-1.1,1.295s-1.281,1.1-1.377,1.033.42-.647,1.1-1.295S391.342,106.421,391.4,106.5Z" transform="translate(-369.244 -47.665)" fill="#263238"/>
    <path id="Trazado_100266" data-name="Trazado 100266" d="M399.035,100.44c.055.083-.51.6-1.26,1.15a4.177,4.177,0,0,1-1.467.854c-.062-.076.5-.592,1.26-1.143a4.07,4.07,0,0,1,1.467-.861Z" transform="translate(-371.545 -45.782)" fill="#263238"/>
    <path id="Trazado_100267" data-name="Trazado 100267" d="M407.4,95.47a8.057,8.057,0,0,1-2.982,1.611c-.048-.09.578-.516,1.377-.964A4.068,4.068,0,0,1,407.4,95.47Z" transform="translate(-374.072 -44.234)" fill="#263238"/>
    <path id="Trazado_100268" data-name="Trazado 100268" d="M416.411,91.77a4.3,4.3,0,0,1-1.529.744,4.084,4.084,0,0,1-1.653.406,4.2,4.2,0,0,1,1.529-.744A3.971,3.971,0,0,1,416.411,91.77Z" transform="translate(-376.816 -43.082)" fill="#263238"/>
    <path id="Trazado_100269" data-name="Trazado 100269" d="M425.909,89.533a4.265,4.265,0,0,1-1.632.454,4.131,4.131,0,0,1-1.687.172,6.766,6.766,0,0,1,3.319-.627Z" transform="translate(-379.731 -42.381)" fill="#263238"/>
    <path id="Trazado_100270" data-name="Trazado 100270" d="M435.691,88.913a4.183,4.183,0,0,1-1.687.193,4.032,4.032,0,0,1-1.694-.158,4.2,4.2,0,0,1,1.687-.2,4.021,4.021,0,0,1,1.694.165Z" transform="translate(-382.757 -42.132)" fill="#263238"/>
    <path id="Trazado_100271" data-name="Trazado 100271" d="M445.487,89.9a4.181,4.181,0,0,1-1.7-.1,4.09,4.09,0,0,1-1.646-.448A8.179,8.179,0,0,1,445.487,89.9Z" transform="translate(-385.818 -42.327)" fill="#263238"/>
    <path id="Trazado_100272" data-name="Trazado 100272" d="M454.942,92.456a7.994,7.994,0,0,1-3.2-1.116,4.349,4.349,0,0,1,1.66.386A4.063,4.063,0,0,1,454.942,92.456Z" transform="translate(-388.807 -42.948)" fill="#263238"/>
    <path id="Trazado_100273" data-name="Trazado 100273" d="M463.814,96.657a4.286,4.286,0,0,1-1.556-.689,4.17,4.17,0,0,1-1.377-1,4.127,4.127,0,0,1,1.556.689C463.249,96.134,463.869,96.574,463.814,96.657Z" transform="translate(-391.653 -44.078)" fill="#263238"/>
    <path id="Trazado_100274" data-name="Trazado 100274" d="M471.695,102.487a4.323,4.323,0,0,1-1.377-.985c-.689-.606-1.212-1.171-1.15-1.246s.689.358,1.377.978S471.764,102.418,471.695,102.487Z" transform="translate(-394.232 -45.722)" fill="#263238"/>
    <path id="Trazado_100275" data-name="Trazado 100275" d="M477.206,108.478c-.083.055-.379-.2-.689-.572s-.461-.723-.386-.792.372.193.689.572S477.288,108.417,477.206,108.478Z" transform="translate(-396.396 -47.857)" fill="#263238"/>
    <path id="Trazado_100276" data-name="Trazado 100276" d="M522.528,168.693a4.217,4.217,0,0,1-1.632-.565c-.868-.4-1.536-.8-1.487-.888a4.494,4.494,0,0,1,1.639.565A4.328,4.328,0,0,1,522.528,168.693Z" transform="translate(-409.877 -66.581)" fill="#263238"/>
    <path id="Trazado_100277" data-name="Trazado 100277" d="M531.892,172.205A8.373,8.373,0,0,1,528.6,171.2,8.264,8.264,0,0,1,531.892,172.205Z" transform="translate(-412.74 -67.815)" fill="#263238"/>
    <path id="Trazado_100278" data-name="Trazado 100278" d="M541.7,174.006a4.257,4.257,0,0,1-1.735,0,4.2,4.2,0,0,1-1.687-.365,4.4,4.4,0,0,1,1.728,0,4.325,4.325,0,0,1,1.694.365Z" transform="translate(-415.754 -68.548)" fill="#263238"/>
    <path id="Trazado_100279" data-name="Trazado 100279" d="M551.676,173.846a4.277,4.277,0,0,1-1.7.3,4.131,4.131,0,0,1-1.735-.048,4.512,4.512,0,0,1,1.708-.31,4.2,4.2,0,0,1,1.728.055Z" transform="translate(-418.855 -68.601)" fill="#263238"/>
    <path id="Trazado_100280" data-name="Trazado 100280" d="M561.53,172.055a4.424,4.424,0,0,1-1.632.578,4.319,4.319,0,0,1-1.729.172,4.333,4.333,0,0,1,1.653-.516A4.2,4.2,0,0,1,561.53,172.055Z" transform="translate(-421.947 -68.078)" fill="#263238"/>
    <path id="Trazado_100281" data-name="Trazado 100281" d="M570.916,168.37c.048.09-.62.482-1.487.888a4.132,4.132,0,0,1-1.639.551A8.368,8.368,0,0,1,570.916,168.37Z" transform="translate(-424.943 -66.933)" fill="#263238"/>
    <path id="Trazado_100282" data-name="Trazado 100282" d="M579.376,162.8c.062.076-.475.64-1.24,1.219a3.8,3.8,0,0,1-1.508.854c-.055-.083.537-.572,1.295-1.136a4.809,4.809,0,0,1,1.453-.937Z" transform="translate(-427.693 -65.199)" fill="#263238"/>
    <path id="Trazado_100283" data-name="Trazado 100283" d="M586.427,155.5a3.823,3.823,0,0,1-.916,1.481c-.613.737-1.205,1.246-1.274,1.178s.4-.689,1-1.377S586.344,155.443,586.427,155.5Z" transform="translate(-430.062 -62.924)" fill="#263238"/>
    <path id="Trazado_100284" data-name="Trazado 100284" d="M591.468,146.66a3.673,3.673,0,0,1-.475,1.673,3.828,3.828,0,0,1-.923,1.474,5.062,5.062,0,0,1,.592-1.625,5.217,5.217,0,0,1,.806-1.522Z" transform="translate(-431.88 -60.173)" fill="#263238"/>
    <path id="Trazado_100285" data-name="Trazado 100285" d="M593.823,136.92a3.639,3.639,0,0,1,.076,1.735,3.565,3.565,0,0,1-.427,1.687,5.353,5.353,0,0,1,.069-1.722,5.232,5.232,0,0,1,.282-1.7Z" transform="translate(-432.927 -57.141)" fill="#263238"/>
    <path id="Trazado_100286" data-name="Trazado 100286" d="M592.51,127.06a3.749,3.749,0,0,1,.62,1.625,3.663,3.663,0,0,1,.145,1.728,5.123,5.123,0,0,1-.5-1.646A5.216,5.216,0,0,1,592.51,127.06Z" transform="translate(-432.64 -54.07)" fill="#263238"/>
    <path id="Trazado_100287" data-name="Trazado 100287" d="M588.16,118.1c.076-.062.6.53,1.081,1.377a3.58,3.58,0,0,1,.647,1.6c-.09.048-.489-.613-.957-1.425a5.311,5.311,0,0,1-.771-1.556Z" transform="translate(-431.285 -51.278)" fill="#263238"/>
    <path id="Trazado_100288" data-name="Trazado 100288" d="M581.218,110.96a3.592,3.592,0,0,1,1.467.937c.73.627,1.205,1.246,1.136,1.315s-.689-.434-1.377-1.047S581.163,111.043,581.218,110.96Z" transform="translate(-429.123 -49.057)" fill="#263238"/>
    <path id="Trazado_100289" data-name="Trazado 100289" d="M572.15,106.893a3.443,3.443,0,0,1,1.722.282,3.574,3.574,0,0,1,1.549.792,5.376,5.376,0,0,1-1.66-.454A5.638,5.638,0,0,1,572.15,106.893Z" transform="translate(-426.3 -47.786)" fill="#263238"/>
    <path id="Trazado_100290" data-name="Trazado 100290" d="M562.224,106.8a3.324,3.324,0,0,1,1.666-.5,3.443,3.443,0,0,1,1.742.055,18.536,18.536,0,0,1-3.443.448Z" transform="translate(-423.199 -47.58)" fill="#263238"/>
    <path id="Trazado_100291" data-name="Trazado 100291" d="M553.616,110.95c-.076-.062.4-.689,1.178-1.288a3.246,3.246,0,0,1,1.556-.792c.048.1-.6.516-1.377,1.081S553.692,111.019,553.616,110.95Z" transform="translate(-420.527 -48.406)" fill="#263238"/>
    <path id="Trazado_100292" data-name="Trazado 100292" d="M549.625,119.363a3.141,3.141,0,0,1,.1-1.742,3.047,3.047,0,0,1,.723-1.591,7.463,7.463,0,0,1-.379,1.673,6.643,6.643,0,0,1-.448,1.66Z" transform="translate(-419.262 -50.636)" fill="#263238"/>
    <path id="Trazado_100293" data-name="Trazado 100293" d="M551.094,129.09a3.343,3.343,0,0,1-.833-1.529,3.249,3.249,0,0,1-.289-1.722,6.207,6.207,0,0,1,.627,1.6A5.941,5.941,0,0,1,551.094,129.09Z" transform="translate(-419.389 -53.69)" fill="#263238"/>
    <path id="Trazado_100294" data-name="Trazado 100294" d="M556.979,136.973a3.444,3.444,0,0,1-1.481-.923c-.73-.634-1.178-1.281-1.1-1.343s.633.454,1.336,1.074S557.034,136.891,556.979,136.973Z" transform="translate(-420.769 -56.45)" fill="#263238"/>
    <path id="Trazado_100295" data-name="Trazado 100295" d="M565.757,141.566a3.636,3.636,0,0,1-1.708-.324,3.49,3.49,0,0,1-1.549-.792,5.377,5.377,0,0,1,1.66.454,5.1,5.1,0,0,1,1.6.661Z" transform="translate(-423.295 -58.24)" fill="#263238"/>
    <path id="Trazado_100296" data-name="Trazado 100296" d="M575.593,142.923a6.359,6.359,0,0,1-3.443-.076,5.435,5.435,0,0,1,1.722-.083,5.006,5.006,0,0,1,1.721.158Z" transform="translate(-426.3 -58.95)" fill="#263238"/>
    <path id="Trazado_100297" data-name="Trazado 100297" d="M585.493,141.19a6.446,6.446,0,0,1-3.333.854,4.91,4.91,0,0,1,1.632-.544A5.268,5.268,0,0,1,585.493,141.19Z" transform="translate(-429.417 -58.47)" fill="#263238"/>
    <path id="Trazado_100298" data-name="Trazado 100298" d="M594.624,137.04a4.323,4.323,0,0,1-1.439.964,4.269,4.269,0,0,1-1.6.647A8.4,8.4,0,0,1,594.624,137.04Z" transform="translate(-432.35 -57.178)" fill="#263238"/>
    <path id="Trazado_100299" data-name="Trazado 100299" d="M602.8,131.08c.069.076-.475.627-1.212,1.233a4.476,4.476,0,0,1-1.446.957c-.062-.083.489-.634,1.219-1.233A4.535,4.535,0,0,1,602.8,131.08Z" transform="translate(-435.013 -55.322)" fill="#263238"/>
    <path id="Trazado_100300" data-name="Trazado 100300" d="M609.838,123.767c.076.062-.365.689-.985,1.425s-1.184,1.26-1.253,1.191a4.559,4.559,0,0,1,.978-1.425C609.191,124.221,609.755,123.691,609.838,123.767Z" transform="translate(-437.338 -53.043)" fill="#263238"/>
    <path id="Trazado_100301" data-name="Trazado 100301" d="M615.54,115.429a4.226,4.226,0,0,1-.73,1.57c-.5.819-.957,1.439-1.04,1.377a4.258,4.258,0,0,1,.73-1.57C614.989,116,615.45,115.381,615.54,115.429Z" transform="translate(-439.26 -50.448)" fill="#263238"/>
    <path id="Trazado_100302" data-name="Trazado 100302" d="M619.824,106.29a4.438,4.438,0,0,1-.461,1.673,3.9,3.9,0,0,1-.813,1.529,4.918,4.918,0,0,1,.475-1.66A4.331,4.331,0,0,1,619.824,106.29Z" transform="translate(-440.748 -47.603)" fill="#263238"/>
    <path id="Trazado_100303" data-name="Trazado 100303" d="M622.8,96.66a4.172,4.172,0,0,1-.255,1.708,4.31,4.31,0,0,1-.606,1.625A8.235,8.235,0,0,1,622.8,96.66Z" transform="translate(-441.804 -44.604)" fill="#263238"/>
    <path id="Trazado_100304" data-name="Trazado 100304" d="M624.682,86.86a4.126,4.126,0,0,1-.083,1.728,4.342,4.342,0,0,1-.434,1.673,4.122,4.122,0,0,1,.083-1.728,4.387,4.387,0,0,1,.434-1.673Z" transform="translate(-442.479 -41.553)" fill="#263238"/>
    <path id="Trazado_100305" data-name="Trazado 100305" d="M625.695,76.9a8.219,8.219,0,0,1-.255,3.443,4.461,4.461,0,0,1-.048-1.735,4.339,4.339,0,0,1,.3-1.708Z" transform="translate(-442.859 -38.452)" fill="#263238"/>
    <path id="Trazado_100306" data-name="Trazado 100306" d="M626.071,66.91a4.134,4.134,0,0,1,.145,1.722A4.131,4.131,0,0,1,626,70.353a4.509,4.509,0,0,1-.145-1.728A4.4,4.4,0,0,1,626.071,66.91Z" transform="translate(-443.015 -35.341)" fill="#263238"/>
    <path id="Trazado_100307" data-name="Trazado 100307" d="M626.027,56.91a4.316,4.316,0,0,1,.206,1.722,4.136,4.136,0,0,1-.158,1.722,4.345,4.345,0,0,1-.207-1.722A4.437,4.437,0,0,1,626.027,56.91Z" transform="translate(-443.02 -32.227)" fill="#263238"/>
    <path id="Trazado_100308" data-name="Trazado 100308" d="M625.925,50.76c.1,0,.186.172.193.393s-.069.393-.172.4-.186-.172-.186-.393S625.8,50.76,625.925,50.76Z" transform="translate(-442.993 -30.312)" fill="#263238"/>
    <rect id="Rectángulo_29402" data-name="Rectángulo 29402" width="47.081" height="31.739" transform="translate(151.188 5.085) rotate(-6.2)" fill="#cbc5e0"/>
    <path id="Trazado_100309" data-name="Trazado 100309" d="M583.293,57.749h0L579.85,26.182h0L626.676,21.1h0l3.443,31.573h0ZM579.905,26.2l3.443,31.518,46.771-5.082-3.443-31.518Z" transform="translate(-428.698 -21.077)" fill="#263238"/>
    <path id="Trazado_100310" data-name="Trazado 100310" d="M626.97,21.66a3.224,3.224,0,0,1-.392.468L625.4,23.416,621,28.085l-14.661,15.3-.117.131-.151-.1-.358-.227-18.1-11.576-5.509-3.546-1.474-.985a4.092,4.092,0,0,1-.5-.365,3.133,3.133,0,0,1,.551.289l1.515.916L587.7,31.37l18.186,11.472.358.227h-.269l14.805-15.212,4.5-4.572,1.233-1.226a3.342,3.342,0,0,1,.455-.4Z" transform="translate(-428.785 -21.251)" fill="#5e5385"/>
    <path id="Trazado_100311" data-name="Trazado 100311" d="M585.149,65.422c-.1-.062,2.954-4.772,6.81-10.508s7.072-10.329,7.169-10.274-2.947,4.772-6.81,10.508S585.245,65.491,585.149,65.422Z" transform="translate(-430.347 -28.406)" fill="#5e5385"/>
    <path id="Trazado_100312" data-name="Trazado 100312" d="M628,41.659c.09-.083,4.035,3.836,8.814,8.746s8.587,8.952,8.5,9.042S641.29,55.618,636.5,50.7,627.9,41.708,628,41.659Z" transform="translate(-443.69 -27.478)" fill="#5e5385"/>
  </g>
  <g id="freepik--envelope-2--inject-13" transform="translate(214.602)">
    <path id="Trazado_100313" data-name="Trazado 100313" d="M337.431,160.01c.1,0,.241.351.324.819s.062.861-.034.881-.241-.351-.324-.826S337.335,160.024,337.431,160.01Z" transform="translate(-319.644 -49.823)" fill="#263238"/>
    <path id="Trazado_100314" data-name="Trazado 100314" d="M335.849,150.25a4.269,4.269,0,0,1,.448,1.653,4.2,4.2,0,0,1,.1,1.708,4.086,4.086,0,0,1-.448-1.653,4.2,4.2,0,0,1-.1-1.708Z" transform="translate(-319.164 -46.784)" fill="#263238"/>
    <path id="Trazado_100315" data-name="Trazado 100315" d="M334.413,140.47a4.134,4.134,0,0,1,.413,1.66,4.248,4.248,0,0,1,.062,1.708,4.027,4.027,0,0,1-.413-1.66,4.249,4.249,0,0,1-.062-1.708Z" transform="translate(-318.713 -43.739)" fill="#263238"/>
    <path id="Trazado_100316" data-name="Trazado 100316" d="M333.281,130.66a4.281,4.281,0,0,1,.358,1.673,4.056,4.056,0,0,1,0,1.708,4.217,4.217,0,0,1-.351-1.673A4.137,4.137,0,0,1,333.281,130.66Z" transform="translate(-318.352 -40.685)" fill="#263238"/>
    <path id="Trazado_100317" data-name="Trazado 100317" d="M332.587,120.78a8.186,8.186,0,0,1,.193,3.4A8.174,8.174,0,0,1,332.587,120.78Z" transform="translate(-318.132 -37.608)" fill="#263238"/>
    <path id="Trazado_100318" data-name="Trazado 100318" d="M332.44,110.89a8.357,8.357,0,0,1,0,3.443,4.033,4.033,0,0,1-.172-1.7,4.137,4.137,0,0,1,.172-1.742Z" transform="translate(-318.055 -34.529)" fill="#263238"/>
    <path id="Trazado_100319" data-name="Trazado 100319" d="M332.972,101.03a4.369,4.369,0,0,1,.034,1.715,4.233,4.233,0,0,1-.317,1.68,4.08,4.08,0,0,1-.041-1.708,4.172,4.172,0,0,1,.324-1.687Z" transform="translate(-318.159 -31.458)" fill="#263238"/>
    <path id="Trazado_100320" data-name="Trazado 100320" d="M334.361,91.26a4.022,4.022,0,0,1-.117,1.708,4.143,4.143,0,0,1-.475,1.646,8.374,8.374,0,0,1,.592-3.354Z" transform="translate(-318.529 -28.416)" fill="#263238"/>
    <path id="Trazado_100321" data-name="Trazado 100321" d="M336.72,81.71a4.323,4.323,0,0,1-.317,1.68,4.373,4.373,0,0,1-.654,1.584,4.132,4.132,0,0,1,.31-1.687,4.048,4.048,0,0,1,.661-1.577Z" transform="translate(-319.147 -25.443)" fill="#263238"/>
    <path id="Trazado_100322" data-name="Trazado 100322" d="M340.23,72.54a4.173,4.173,0,0,1-.523,1.632,4.277,4.277,0,0,1-.847,1.487,8.264,8.264,0,0,1,1.377-3.119Z" transform="translate(-320.116 -22.587)" fill="#263238"/>
    <path id="Trazado_100323" data-name="Trazado 100323" d="M344.876,63.918a4.249,4.249,0,0,1-.723,1.549,5.151,5.151,0,0,1-1.033,1.377,4.253,4.253,0,0,1,.73-1.549C344.332,64.476,344.793,63.863,344.876,63.918Z" transform="translate(-321.442 -19.902)" fill="#263238"/>
    <path id="Trazado_100324" data-name="Trazado 100324" d="M350.635,56.008c.076.069-.337.689-.923,1.439s-1.129,1.274-1.212,1.212a4.315,4.315,0,0,1,.93-1.439C350.022,56.49,350.566,55.946,350.635,56.008Z" transform="translate(-323.117 -17.438)" fill="#263238"/>
    <path id="Trazado_100325" data-name="Trazado 100325" d="M357.491,49.056c.062.083-.448.654-1.136,1.288s-1.308,1.081-1.377,1.012.441-.64,1.136-1.281S357.429,48.981,357.491,49.056Z" transform="translate(-325.132 -15.272)" fill="#263238"/>
    <path id="Trazado_100326" data-name="Trazado 100326" d="M365.41,43.38c.048.09-.551.565-1.343,1.067a4.2,4.2,0,0,1-1.529.764c-.055-.076.544-.558,1.336-1.067A4.37,4.37,0,0,1,365.41,43.38Z" transform="translate(-327.488 -13.508)" fill="#263238"/>
    <path id="Trazado_100327" data-name="Trazado 100327" d="M374.278,39.33a8.283,8.283,0,0,1-3.168,1.24,4.193,4.193,0,0,1,1.522-.785,4.132,4.132,0,0,1,1.646-.454Z" transform="translate(-330.158 -12.246)" fill="#263238"/>
    <path id="Trazado_100328" data-name="Trazado 100328" d="M382.167,37.518c0,.1-.344.248-.806.337s-.861.083-.881,0,.344-.248.813-.337S382.153,37.422,382.167,37.518Z" transform="translate(-333.075 -11.661)" fill="#263238"/>
    <rect id="Rectángulo_29403" data-name="Rectángulo 29403" width="34.507" height="51.192" transform="translate(0.016 32.187) rotate(-68.86)" fill="#cbc5e0"/>
    <path id="Trazado_100329" data-name="Trazado 100329" d="M359.4,50.676h0L311.64,32.2h0L324.1,0h0L371.86,18.469h0Zm-47.722-18.5L359.4,50.628l12.437-32.152L324.118.028Z" transform="translate(-311.64)" fill="#263238"/>
    <path id="Trazado_100330" data-name="Trazado 100330" d="M377.5,19.119a3.32,3.32,0,0,1-.606.255l-1.784.647-6.576,2.314-21.816,7.492-.179.062-.1-.165-.234-.4L334.5,9.1l-3.505-6.156-.93-1.687a3.436,3.436,0,0,1-.3-.606,3.787,3.787,0,0,1,.379.558l1.012,1.646,3.595,6.067c3.058,5.192,7.231,12.306,11.837,20.156l.234.4-.275-.1L368.426,22l6.625-2.169,1.811-.572a3.031,3.031,0,0,1,.634-.145Z" transform="translate(-317.282 -0.202)" fill="#5e5385"/>
    <path id="Trazado_100331" data-name="Trazado 100331" d="M311.67,41.466c-.062-.11,5.234-3.133,11.831-6.749s11.989-6.459,12.051-6.349-5.234,3.133-11.83,6.755S311.732,41.576,311.67,41.466Z" transform="translate(-311.649 -8.832)" fill="#5e5385"/>
    <path id="Trazado_100332" data-name="Trazado 100332" d="M369.627,36.66c.124-.034,1.976,5.716,4.132,12.843s3.822,12.946,3.7,12.981-1.976-5.709-4.132-12.843S369.5,36.722,369.627,36.66Z" transform="translate(-329.694 -11.415)" fill="#5e5385"/>
  </g>
  <g id="freepik--envelope-1--inject-13" transform="translate(30.809 29.43)">
    <path id="Trazado_100333" data-name="Trazado 100333" d="M308.232,170.95c.1,0,.145.4.11.875s-.151.854-.248.847-.152-.4-.11-.875S308.135,170.943,308.232,170.95Z" transform="translate(-126.704 -82.659)" fill="#263238"/>
    <path id="Trazado_100334" data-name="Trazado 100334" d="M308.509,160.78a4.355,4.355,0,0,1,.179,1.756,4.5,4.5,0,0,1-.186,1.749,4.408,4.408,0,0,1-.172-1.749,4.563,4.563,0,0,1,.179-1.756Z" transform="translate(-126.809 -79.493)" fill="#263238"/>
    <path id="Trazado_100335" data-name="Trazado 100335" d="M307.868,150.66a8.8,8.8,0,0,1,.324,3.491,4.243,4.243,0,0,1-.337-1.728,4.561,4.561,0,0,1,.014-1.763Z" transform="translate(-126.643 -76.342)" fill="#263238"/>
    <path id="Trazado_100336" data-name="Trazado 100336" d="M306.207,140.6a4.486,4.486,0,0,1,.51,1.687,4.426,4.426,0,0,1,.158,1.756,4.538,4.538,0,0,1-.51-1.687,4.279,4.279,0,0,1-.158-1.756Z" transform="translate(-126.146 -73.209)" fill="#263238"/>
    <path id="Trazado_100337" data-name="Trazado 100337" d="M303.45,130.81a8.6,8.6,0,0,1,1.067,3.34,4.43,4.43,0,0,1-.689-1.618,4.378,4.378,0,0,1-.379-1.722Z" transform="translate(-125.296 -70.161)" fill="#263238"/>
    <path id="Trazado_100338" data-name="Trazado 100338" d="M299.56,121.42a4.352,4.352,0,0,1,.881,1.522,4.5,4.5,0,0,1,.558,1.673,4.529,4.529,0,0,1-.881-1.522A4.426,4.426,0,0,1,299.56,121.42Z" transform="translate(-124.085 -67.237)" fill="#263238"/>
    <path id="Trazado_100339" data-name="Trazado 100339" d="M294.51,112.588c.083-.055.578.565,1.1,1.377a4.579,4.579,0,0,1,.744,1.6c-.09.048-.558-.585-1.054-1.419a4.445,4.445,0,0,1-.792-1.563Z" transform="translate(-122.513 -64.486)" fill="#263238"/>
    <path id="Trazado_100340" data-name="Trazado 100340" d="M288.28,104.557c.076-.069.64.482,1.26,1.226a4.523,4.523,0,0,1,.985,1.467c-.083.055-.64-.5-1.26-1.233A4.459,4.459,0,0,1,288.28,104.557Z" transform="translate(-120.573 -61.984)" fill="#263238"/>
    <path id="Trazado_100341" data-name="Trazado 100341" d="M281,97.476c.062-.076.689.393,1.419,1.04s1.246,1.24,1.178,1.308a4.476,4.476,0,0,1-1.419-1.04C281.444,98.137,280.914,97.552,281,97.476Z" transform="translate(-118.302 -59.779)" fill="#263238"/>
    <path id="Trazado_100342" data-name="Trazado 100342" d="M272.728,91.54a4.364,4.364,0,0,1,1.556.819,4.889,4.889,0,0,1,1.377,1.122,4.559,4.559,0,0,1-1.556-.826C273.286,92.125,272.673,91.623,272.728,91.54Z" transform="translate(-115.729 -57.933)" fill="#263238"/>
    <path id="Trazado_100343" data-name="Trazado 100343" d="M263.67,86.92a4.376,4.376,0,0,1,1.666.572,4.431,4.431,0,0,1,1.515.9,4.375,4.375,0,0,1-1.666-.572,4.524,4.524,0,0,1-1.515-.9Z" transform="translate(-112.91 -56.494)" fill="#263238"/>
    <path id="Trazado_100344" data-name="Trazado 100344" d="M254,83.849a4.54,4.54,0,0,1,1.742.282,4.407,4.407,0,0,1,1.646.634,4.649,4.649,0,0,1-1.742-.282A4.545,4.545,0,0,1,254,83.849Z" transform="translate(-109.899 -55.537)" fill="#263238"/>
    <path id="Trazado_100345" data-name="Trazado 100345" d="M243.89,82.515a7.148,7.148,0,0,1,3.491.282A10.913,10.913,0,0,1,243.89,82.515Z" transform="translate(-106.751 -55.092)" fill="#263238"/>
    <path id="Trazado_100346" data-name="Trazado 100346" d="M233.75,83.059a8.631,8.631,0,0,1,3.484-.413,4.37,4.37,0,0,1-1.722.386A4.588,4.588,0,0,1,233.75,83.059Z" transform="translate(-103.593 -55.153)" fill="#263238"/>
    <path id="Trazado_100347" data-name="Trazado 100347" d="M223.93,85.407a4.351,4.351,0,0,1,1.618-.689,4.3,4.3,0,0,1,1.722-.358,4.487,4.487,0,0,1-1.618.689,4.58,4.58,0,0,1-1.722.358Z" transform="translate(-100.536 -55.697)" fill="#263238"/>
    <path id="Trazado_100348" data-name="Trazado 100348" d="M214.769,89.53c-.048-.09.6-.53,1.46-.992a4.355,4.355,0,0,1,1.625-.689,8.854,8.854,0,0,1-3.085,1.673Z" transform="translate(-97.682 -56.784)" fill="#263238"/>
    <path id="Trazado_100349" data-name="Trazado 100349" d="M206.647,95.375c-.069-.069.482-.634,1.226-1.26a4.523,4.523,0,0,1,1.467-.985c.055.083-.5.647-1.233,1.26A4.324,4.324,0,0,1,206.647,95.375Z" transform="translate(-95.152 -58.428)" fill="#263238"/>
    <path id="Trazado_100350" data-name="Trazado 100350" d="M200,102.813a3.954,3.954,0,0,1,.888-1.529c.6-.771,1.184-1.308,1.253-1.246a5.543,5.543,0,0,1-.971,1.467C200.578,102.283,200.083,102.868,200,102.813Z" transform="translate(-93.084 -60.577)" fill="#263238"/>
    <path id="Trazado_100351" data-name="Trazado 100351" d="M196.274,109.96c-.09-.041,0-.42.213-.854s.448-.744.537-.689,0,.427-.213.854S196.364,110.008,196.274,109.96Z" transform="translate(-91.914 -63.186)" fill="#263238"/>
    <path id="Trazado_100352" data-name="Trazado 100352" d="M132.75,169.521c0-.1.365-.22.833-.282s.861,0,.875.076-.351.227-.833.282S132.757,169.638,132.75,169.521Z" transform="translate(-72.144 -82.119)" fill="#263238"/>
    <path id="Trazado_100353" data-name="Trazado 100353" d="M122.85,168.56a5.462,5.462,0,0,1,1.708.255,5.333,5.333,0,0,1,1.666.454,5.9,5.9,0,0,1-3.374-.689Z" transform="translate(-69.062 -81.915)" fill="#263238"/>
    <path id="Trazado_100354" data-name="Trazado 100354" d="M113.888,164.13a5.19,5.19,0,0,1,1.543.785c.813.482,1.467.888,1.425.985a3.841,3.841,0,0,1-1.6-.689C114.426,164.729,113.833,164.213,113.888,164.13Z" transform="translate(-66.27 -80.536)" fill="#263238"/>
    <path id="Trazado_100355" data-name="Trazado 100355" d="M106.446,157.448c.076-.062.64.461,1.308,1.136s1.184,1.246,1.122,1.322-.689-.386-1.377-1.067S106.37,157.517,106.446,157.448Z" transform="translate(-63.951 -78.454)" fill="#263238"/>
    <path id="Trazado_100356" data-name="Trazado 100356" d="M100.57,149.349c.09-.048.578.551,1.095,1.377a4.419,4.419,0,0,1,.8,1.536c-.083.062-.572-.544-1.095-1.343a4.255,4.255,0,0,1-.8-1.57Z" transform="translate(-62.124 -75.932)" fill="#263238"/>
    <path id="Trazado_100357" data-name="Trazado 100357" d="M96.25,140.32a4.325,4.325,0,0,1,.84,1.515,4.575,4.575,0,0,1,.516,1.66,4.275,4.275,0,0,1-.847-1.515,4.4,4.4,0,0,1-.51-1.66Z" transform="translate(-60.779 -73.122)" fill="#263238"/>
    <path id="Trazado_100358" data-name="Trazado 100358" d="M93.377,130.72a4.38,4.38,0,0,1,.613,1.625,4.27,4.27,0,0,1,.262,1.715,4.188,4.188,0,0,1-.613-1.625A4.291,4.291,0,0,1,93.377,130.72Z" transform="translate(-59.883 -70.133)" fill="#263238"/>
    <path id="Trazado_100359" data-name="Trazado 100359" d="M91.615,120.85a4.511,4.511,0,0,1,.434,1.68,4.324,4.324,0,0,1,.083,1.735,4.259,4.259,0,0,1-.434-1.68A4.18,4.18,0,0,1,91.615,120.85Z" transform="translate(-59.319 -67.059)" fill="#263238"/>
    <path id="Trazado_100360" data-name="Trazado 100360" d="M90.629,110.88a8.338,8.338,0,0,1,.275,3.443,4.269,4.269,0,0,1-.317-1.7,4.2,4.2,0,0,1,.041-1.742Z" transform="translate(-58.993 -63.955)" fill="#263238"/>
    <path id="Trazado_100361" data-name="Trazado 100361" d="M90.2,103.37c.1,0,.2.379.22.854s-.041.861-.138.868-.2-.379-.22-.854S90.1,103.377,90.2,103.37Z" transform="translate(-58.85 -61.617)" fill="#263238"/>
    <rect id="Rectángulo_29404" data-name="Rectángulo 29404" width="57.321" height="38.639" transform="matrix(0.999, -0.047, 0.047, 0.999, 0.021, 2.7)" fill="#cbc5e0"/>
    <path id="Trazado_100362" data-name="Trazado 100362" d="M46.558,84.05h0L44.74,45.439h0l57.28-2.7h0l1.818,38.611h0ZM44.774,45.439,46.592,84l57.225-2.7L102,42.74Z" transform="translate(-44.74 -42.738)" fill="#263238"/>
    <path id="Trazado_100363" data-name="Trazado 100363" d="M102.319,43.4a3.725,3.725,0,0,1-.51.537l-1.529,1.474L94.6,50.761,75.635,68.3l-.158.145-.172-.124-.413-.3L53.73,52.607c-2.658-1.969-4.82-3.574-6.377-4.717l-1.715-1.308a3.763,3.763,0,0,1-.578-.482,4.7,4.7,0,0,1,.64.4l1.777,1.212L53.95,52.3,75.194,67.584l.42.3h-.331L94.345,50.465l5.8-5.227,1.6-1.377a3.524,3.524,0,0,1,.578-.461Z" transform="translate(-44.84 -42.943)" fill="#5e5385"/>
    <path id="Trazado_100364" data-name="Trazado 100364" d="M47.7,92.415c-.11-.09,3.946-5.585,9.062-12.271S66.12,68.107,66.23,68.19s-3.939,5.585-9.055,12.271S47.816,92.5,47.7,92.415Z" transform="translate(-45.661 -50.662)" fill="#5e5385"/>
    <path id="Trazado_100365" data-name="Trazado 100365" d="M102.219,66.189c.11-.1,4.614,4.958,10.054,11.28S122.045,89,121.914,89.093s-4.607-4.958-10.054-11.287S102.109,66.286,102.219,66.189Z" transform="translate(-62.637 -50.039)" fill="#5e5385"/>
  </g>
  <g id="freepik--Character--inject-13" transform="translate(6.507 110.874)">
    <path id="Trazado_100366" data-name="Trazado 100366" d="M180.514,240.191a1.563,1.563,0,0,0-1.184-1.742l-1.536.1-5.509-1.908a1.646,1.646,0,0,0-2.066,1.494c0,1.577-.689,5.874-1.935,4.524l-.1-.09c-1.811-2.018-3.9-3-4.71-2.878a.923.923,0,0,0-.4,1.625.969.969,0,0,0,.331.227c.055,0,.124.069.179.1a13.924,13.924,0,0,1,2.1,1.88,7.289,7.289,0,0,1,1.377,2.066c.365.854.654,1.6.881,2.238l.083,5.048-2.19,23.6s-14.53-15.26-14.193-15.4l.847,23.771,8.8,7.279a11.066,11.066,0,0,0,18.138-8.711l-.5-30.513.358-4Z" transform="translate(-53.725 -184.543)" fill="#ffbe9d"/>
    <path id="Trazado_100367" data-name="Trazado 100367" d="M54.665,290.54,38.751,326.927l-12.56,26.25-9.345,3.14s-7.4,2.148-7.4,3.677,1.949,1.184,1.949,1.184c.358,2.286,3.526.992,5.743,0s7.148-1.267,7.148-1.267a2,2,0,0,0-.138,3.209c.785.551,2.149-.117,3.071-1.1s3.305-1.439,5.957-2.39,3.085-4.5,3.085-4.5L68.086,301.5Z" transform="translate(-9.45 -201.342)" fill="#ffbe9d"/>
    <path id="Trazado_100368" data-name="Trazado 100368" d="M123.7,293.828l4,5.282,8.67-19.233s-8.415-10.267-11.493-14.571-5.337-5.013-5.337-5.013-5.592-1.632-8.381-1.632l-13.814.826-14.027,6.122a19.432,19.432,0,0,0-8.449,7.113L61.66,293.938l18.7,7.995,6.273,35.919c1.2,5.378,2.252,10.453,7.217,12.932l34.686-33.336-4.063-6.4Z" transform="translate(-25.707 -191.415)" fill="#f5ca56"/>
    <path id="Trazado_100369" data-name="Trazado 100369" d="M99.14,300.18c.083.055-2.066,3.374-4.772,7.423s-4.993,7.272-5.068,7.217,2.066-3.374,4.772-7.423S99.057,300.125,99.14,300.18Z" transform="translate(-34.313 -204.343)" fill="#263238"/>
    <path id="Trazado_100370" data-name="Trazado 100370" d="M134.673,349.66a6.5,6.5,0,0,1-.923.551c-.6.331-1.481.8-2.575,1.377-2.2,1.136-5.24,2.658-8.649,4.263s-6.521,2.989-8.794,3.953c-1.136.482-2.066.868-2.7,1.122a6.752,6.752,0,0,1-1.012.358,6.078,6.078,0,0,1,.957-.489l2.651-1.219c2.245-1.026,5.344-2.445,8.746-4.049s6.466-3.092,8.684-4.132l2.631-1.267a6.351,6.351,0,0,1,.985-.468Z" transform="translate(-40.765 -219.751)" fill="#263238"/>
    <path id="Trazado_100371" data-name="Trazado 100371" d="M97.4,285.352a12.349,12.349,0,0,1-1.219-1.536,24.515,24.515,0,0,0-3.078-3.512,10.88,10.88,0,0,0-3.973-2.334c-1.136-.358-1.894-.344-1.894-.413a1.377,1.377,0,0,1,.53-.041,6.8,6.8,0,0,1,1.432.207,10.13,10.13,0,0,1,4.132,2.314,19.752,19.752,0,0,1,3.044,3.636,9.834,9.834,0,0,1,1.026,1.68Z" transform="translate(-33.672 -197.284)" fill="#263238"/>
    <path id="Trazado_100372" data-name="Trazado 100372" d="M133.574,314.27a1.446,1.446,0,0,1,0,.386v1.088a25.345,25.345,0,0,1-.558,3.973,28.47,28.47,0,0,1-16.024,19.97,26.165,26.165,0,0,1-3.76,1.377c-.454.138-.819.213-1.06.269a1.519,1.519,0,0,1-.372.069s.5-.172,1.377-.468a30.859,30.859,0,0,0,3.691-1.5,29.143,29.143,0,0,0,15.893-19.812,31.976,31.976,0,0,0,.689-3.932,12.064,12.064,0,0,1,.124-1.419Z" transform="translate(-41.319 -208.731)" fill="#263238"/>
    <g id="Grupo_53346" data-name="Grupo 53346" transform="translate(54.725 100.739)" opacity="0.3">
      <path id="Trazado_100373" data-name="Trazado 100373" d="M91.275,330.961c-.062-.344,4.449-23.661,4.449-23.661l-6.8,10.212" transform="translate(-88.92 -307.3)"/>
    </g>
    <path id="Trazado_100374" data-name="Trazado 100374" d="M150.454,277.23a1.7,1.7,0,0,1,.048.4c0,.3.041.689.076,1.157.048,1.047.124,2.479.213,4.235.172,3.622.413,8.546.689,13.979s.468,10.412.572,13.993c.055,1.79.09,3.243.1,4.242v1.157a1.493,1.493,0,0,1,0,.4,1.7,1.7,0,0,1-.048-.4c0-.3-.041-.689-.076-1.15-.048-1.047-.124-2.486-.213-4.235-.172-3.622-.413-8.546-.689-13.986s-.461-10.405-.572-13.993c-.055-1.79-.09-3.236-.1-4.242v-1.15a1.545,1.545,0,0,1,0-.406Z" transform="translate(-53.351 -197.198)" fill="#263238"/>
    <g id="Grupo_53347" data-name="Grupo 53347" transform="translate(68.688 122.444)" opacity="0.2">
      <path id="Trazado_100375" data-name="Trazado 100375" d="M109.929,357.846c-1.116-.923-.861-2.81.124-3.87a8.87,8.87,0,0,1,3.829-1.963c6.59-2.135,13.215-5.151,17.56-10.55a10.641,10.641,0,0,1,1.949-2.066,2.694,2.694,0,0,1,2.706-.372c1.329.689,1.377,2.617.819,4.015a7.7,7.7,0,0,1-3.629,3.966" transform="translate(-109.197 -338.818)"/>
    </g>
    <g id="Grupo_53348" data-name="Grupo 53348" transform="translate(97.247 84.171)" opacity="0.2">
      <path id="Trazado_100376" data-name="Trazado 100376" d="M150.67,283.24l3.849,22.339-3-3.96Z" transform="translate(-150.67 -283.24)"/>
    </g>
    <path id="Trazado_100377" data-name="Trazado 100377" d="M200.907,368.45,194.4,390.775l27.731,8.263c.627-2.7-12.14-12.278-12.14-12.278l4.793-14.158Z" transform="translate(-67.039 -225.601)" fill="#7d6eb2"/>
    <g id="Grupo_53349" data-name="Grupo 53349" transform="translate(133.565 157.385)" opacity="0.6">
      <path id="Trazado_100378" data-name="Trazado 100378" d="M204.58,389.56a1.177,1.177,0,0,0-1.171,1.054,1.143,1.143,0,0,0,1.04,1.17,1.254,1.254,0,0,0,1.233-1.129,1.178,1.178,0,0,0-1.219-1.095" transform="translate(-203.409 -389.559)" fill="#fff"/>
    </g>
    <g id="Grupo_53350" data-name="Grupo 53350" transform="translate(127.361 162.95)" opacity="0.6">
      <path id="Trazado_100379" data-name="Trazado 100379" d="M194.4,399.864l.744-2.224,26.312,8.732s1.074.9.689,1.728Z" transform="translate(-194.4 -397.64)" fill="#fff"/>
    </g>
    <path id="Trazado_100380" data-name="Trazado 100380" d="M216.4,394.839c-.041.131-.737,0-1.536.234s-1.315.689-1.425.606.324-.813,1.295-1.081S216.472,394.722,216.4,394.839Z" transform="translate(-72.963 -233.715)" fill="#263238"/>
    <path id="Trazado_100381" data-name="Trazado 100381" d="M220.369,397.925c0,.145-.689.2-1.295.634s-.943,1.005-1.074.957,0-.84.8-1.377S220.4,397.794,220.369,397.925Z" transform="translate(-74.374 -234.734)" fill="#263238"/>
    <path id="Trazado_100382" data-name="Trazado 100382" d="M222.327,402.837c-.138,0-.124-.744.448-1.377s1.288-.744,1.308-.62-.482.413-.943.943S222.465,402.864,222.327,402.837Z" transform="translate(-75.713 -235.673)" fill="#263238"/>
    <path id="Trazado_100383" data-name="Trazado 100383" d="M217.486,389.69c-.1.1-.689-.269-1.439-.441s-1.453-.11-1.487-.248.689-.448,1.6-.234S217.617,389.6,217.486,389.69Z" transform="translate(-73.316 -231.905)" fill="#263238"/>
    <path id="Trazado_100384" data-name="Trazado 100384" d="M217.566,383.569a2.755,2.755,0,0,1-1.377-.42,6.286,6.286,0,0,1-1.322-.881,6.769,6.769,0,0,1-.689-.689,1.687,1.687,0,0,1-.317-.448.62.62,0,0,1,.152-.744.778.778,0,0,1,.689-.131,2.015,2.015,0,0,1,.5.227,5.526,5.526,0,0,1,.771.551,5.068,5.068,0,0,1,1.033,1.226,2.39,2.39,0,0,1,.482,1.377c-.076,0-.262-.5-.771-1.178a5.517,5.517,0,0,0-1.033-1.067,5.084,5.084,0,0,0-.723-.482c-.269-.165-.516-.241-.634-.131s-.048.055,0,.158a1.281,1.281,0,0,0,.234.331,7.8,7.8,0,0,0,.613.64,8.668,8.668,0,0,0,1.184.916C217.077,383.279,217.593,383.493,217.566,383.569Z" transform="translate(-73.079 -229.268)" fill="#263238"/>
    <path id="Trazado_100385" data-name="Trazado 100385" d="M218.884,383.425a2.279,2.279,0,0,1,.034-1.446,4.509,4.509,0,0,1,.64-1.467,4.205,4.205,0,0,1,.606-.737,1.191,1.191,0,0,1,1.095-.441.689.689,0,0,1,.461.558,2.048,2.048,0,0,1,0,.551,3.25,3.25,0,0,1-.275.937,3.447,3.447,0,0,1-1.019,1.26,1.892,1.892,0,0,1-1.377.5,5.894,5.894,0,0,0,1.143-.771,3.267,3.267,0,0,0,.826-1.171,2.818,2.818,0,0,0,.213-.813c.048-.31,0-.578-.11-.578a1.118,1.118,0,0,0-.627.31,5.368,5.368,0,0,0-.565.647,5.192,5.192,0,0,0-.689,1.308C218.974,382.875,218.967,383.425,218.884,383.425Z" transform="translate(-74.632 -228.987)" fill="#263238"/>
    <path id="Trazado_100386" data-name="Trazado 100386" d="M202.955,316.914c.689,5.151-1.06,10.956-2.927,15.838l-12.161,28.564-13.463-2.066a17.29,17.29,0,0,1-6.39,4.325c-1.6.53-6.886,1.57-11.231-1.556h0s-6.149,8.566-15.838,11.156-24.322,4.022-31.415-7.3l33.743-32.53c.689.165,29.081-18.978,44.416-23.337C187.716,310.007,201.661,307.445,202.955,316.914Z" transform="translate(-40.613 -207.305)" fill="#263238"/>
    <path id="Trazado_100387" data-name="Trazado 100387" d="M184.949,368.462a1.727,1.727,0,0,1,.179-.11l.551-.289c.489-.262,1.205-.627,2.114-1.129a34.333,34.333,0,0,0,3.223-1.983,16.973,16.973,0,0,0,3.643-3.381,11.707,11.707,0,0,0,2.362-5.468,18.169,18.169,0,0,0-.289-6.886,11.121,11.121,0,0,0-3.712-6.466,14.055,14.055,0,0,0-7.575-2.7,23.321,23.321,0,0,0-4.166.034,31.247,31.247,0,0,0-4,.689,47.608,47.608,0,0,0-7.265,2.514c-4.5,1.969-8.4,4.09-11.831,5.557a42.124,42.124,0,0,1-8.367,2.789c-.51.117-.971.193-1.377.248s-.73.117-1.005.138l-.62.062H146.6l.213-.048.613-.09c.269-.041.606-.09,1-.172s.847-.152,1.377-.275a44.265,44.265,0,0,0,8.264-2.892c3.4-1.487,7.292-3.629,11.8-5.626a47.494,47.494,0,0,1,7.313-2.548,31.869,31.869,0,0,1,4.042-.689,24.1,24.1,0,0,1,4.235-.034,14.335,14.335,0,0,1,7.8,2.789,9.8,9.8,0,0,1,2.527,3.071,13.984,13.984,0,0,1,1.288,3.595,18.626,18.626,0,0,1,.262,7,12.045,12.045,0,0,1-2.458,5.571,16.8,16.8,0,0,1-3.732,3.388,33.955,33.955,0,0,1-3.264,1.942c-.923.482-1.653.833-2.149,1.067l-.572.262a.869.869,0,0,1-.207.069Z" transform="translate(-52.155 -216.627)" fill="#455a64"/>
    <path id="Trazado_100388" data-name="Trazado 100388" d="M211.863,327.01a39.636,39.636,0,0,1-2.823,4.607,41.625,41.625,0,0,1-3.119,4.407,40.879,40.879,0,0,1,2.823-4.607,41.632,41.632,0,0,1,3.119-4.407Z" transform="translate(-70.626 -212.698)" fill="#455a64"/>
    <path id="Trazado_100389" data-name="Trazado 100389" d="M193.12,378.2a23.912,23.912,0,0,1-2.445.634c-1.508.372-3.581.943-5.826,1.728s-4.221,1.632-5.633,2.279a24.331,24.331,0,0,1-2.307,1.033,2.783,2.783,0,0,1,.565-.379c.379-.227.937-.53,1.632-.881a46.99,46.99,0,0,1,11.514-4.028c.764-.158,1.377-.269,1.825-.324a2.781,2.781,0,0,1,.675-.062Z" transform="translate(-61.593 -228.637)" fill="#455a64"/>
    <path id="Trazado_100390" data-name="Trazado 100390" d="M218.767,379.939c-.062,0-.22-.606-.792-1.446a5.833,5.833,0,0,0-6.928-2.252c-.957.344-1.46.764-1.5.689s.1-.138.331-.324a4.881,4.881,0,0,1,1.074-.62,5.736,5.736,0,0,1,7.237,2.383,4.735,4.735,0,0,1,.5,1.136C218.809,379.746,218.809,379.939,218.767,379.939Z" transform="translate(-71.753 -227.801)" fill="#455a64"/>
    <path id="Trazado_100391" data-name="Trazado 100391" d="M134.586,366.45a1.861,1.861,0,0,1,.179.64,10.436,10.436,0,0,1,.151,1.811,11.216,11.216,0,0,1-1.584,5.757,8.814,8.814,0,0,1-4.614,3.746,6.61,6.61,0,0,1-1.79.344,1.839,1.839,0,0,1-.689,0,12.886,12.886,0,0,0,2.376-.551,8.952,8.952,0,0,0,4.393-3.7,11.77,11.77,0,0,0,1.639-5.564C134.731,367.387,134.524,366.457,134.586,366.45Z" transform="translate(-45.816 -224.979)" fill="#455a64"/>
    <path id="Trazado_100392" data-name="Trazado 100392" d="M115.758,388.131c-.076.062-.434-.248-.771-.689s-.516-.916-.427-.964.393.3.723.751S115.834,388.069,115.758,388.131Z" transform="translate(-42.172 -231.213)" fill="#455a64"/>
    <path id="Trazado_100393" data-name="Trazado 100393" d="M119.746,392.578c-.062.076-.448-.193-.861-.592s-.689-.778-.62-.84.461.193.868.585S119.815,392.5,119.746,392.578Z" transform="translate(-43.329 -232.665)" fill="#455a64"/>
    <path id="Trazado_100394" data-name="Trazado 100394" d="M124.493,396.242c-.048.083-.482-.1-.964-.413s-.826-.634-.771-.689a1.94,1.94,0,0,1,.964.413C124.19,395.856,124.541,396.187,124.493,396.242Z" transform="translate(-44.73 -233.912)" fill="#455a64"/>
    <path id="Trazado_100395" data-name="Trazado 100395" d="M129.9,398.765c0,.1-.489,0-1.033-.179s-.95-.427-.909-.523.5,0,1.026.186S129.928,398.669,129.9,398.765Z" transform="translate(-46.35 -234.81)" fill="#455a64"/>
    <path id="Trazado_100396" data-name="Trazado 100396" d="M135.759,399.9c0,.1-.468.138-1.047.083s-1.026-.172-1.012-.269.489-.138,1.047-.083S135.759,399.8,135.759,399.9Z" transform="translate(-48.138 -235.302)" fill="#455a64"/>
    <path id="Trazado_100397" data-name="Trazado 100397" d="M141.733,399.656c0,.1-.448.207-1.019.248a4.655,4.655,0,0,1-.771,0h0c-.172,0-.275-.041-.282-.09s.09-.1.255-.145h0a4.388,4.388,0,0,1,.757-.11C141.271,399.5,141.719,399.553,141.733,399.656Z" transform="translate(-49.994 -235.281)" fill="#455a64"/>
    <path id="Trazado_100398" data-name="Trazado 100398" d="M147.651,398.63c0,.1-.406.269-.971.393s-1.026.138-1.04.041.413-.275.971-.393S147.63,398.52,147.651,398.63Z" transform="translate(-51.856 -234.978)" fill="#455a64"/>
    <path id="Trazado_100399" data-name="Trazado 100399" d="M153.412,396.872c0,.1-.379.317-.923.5s-1.012.248-1.04.158.386-.317.923-.5S153.378,396.782,153.412,396.872Z" transform="translate(-53.665 -234.439)" fill="#455a64"/>
    <path id="Trazado_100400" data-name="Trazado 100400" d="M158.959,394.537c.048.09-.344.358-.861.592s-.978.358-1.019.269.351-.358.868-.592S158.917,394.447,158.959,394.537Z" transform="translate(-55.417 -233.715)" fill="#455a64"/>
    <path id="Trazado_100401" data-name="Trazado 100401" d="M164.262,391.651c.048.083-.31.386-.806.689s-.937.448-.978.365.31-.393.8-.689S164.214,391.575,164.262,391.651Z" transform="translate(-57.099 -232.819)" fill="#455a64"/>
    <path id="Trazado_100402" data-name="Trazado 100402" d="M169.238,388.283c.062.083-.269.413-.737.751s-.888.537-.943.454.275-.42.737-.751S169.189,388.207,169.238,388.283Z" transform="translate(-58.679 -231.772)" fill="#455a64"/>
    <path id="Trazado_100403" data-name="Trazado 100403" d="M173.917,384.465c.069.076-.234.441-.689.813s-.84.62-.9.544.234-.441.689-.813S173.848,384.4,173.917,384.465Z" transform="translate(-60.163 -230.584)" fill="#455a64"/>
    <path id="Trazado_100404" data-name="Trazado 100404" d="M178.317,380.345c.069.076-.213.454-.627.84s-.813.647-.875.578.207-.441.627-.84S178.255,380.276,178.317,380.345Z" transform="translate(-61.561 -229.302)" fill="#455a64"/>
    <path id="Trazado_100405" data-name="Trazado 100405" d="M182.98,376.653c.055.083-.269.42-.73.751s-.881.537-.943.461.269-.413.73-.751S182.925,376.577,182.98,376.653Z" transform="translate(-62.96 -228.151)" fill="#455a64"/>
    <path id="Trazado_100406" data-name="Trazado 100406" d="M188.161,373.76c.041.09-.344.365-.847.62s-.957.386-1.005.3.331-.365.847-.62S188.119,373.684,188.161,373.76Z" transform="translate(-64.518 -227.248)" fill="#455a64"/>
    <path id="Trazado_100407" data-name="Trazado 100407" d="M193.813,371.965c0,.1-.413.289-.957.42s-1.019.172-1.047.083.4-.289.957-.427S193.8,371.869,193.813,371.965Z" transform="translate(-66.232 -226.679)" fill="#455a64"/>
    <path id="Trazado_100408" data-name="Trazado 100408" d="M199.766,371.554c0,.1-.475.138-1.04.124s-1.019-.062-1.026-.158.454-.207,1.033-.2S199.773,371.471,199.766,371.554Z" transform="translate(-68.067 -226.495)" fill="#455a64"/>
    <path id="Trazado_100409" data-name="Trazado 100409" d="M205.6,372.861c-.048.09-.489-.041-1.012-.227s-.957-.372-.937-.468.5-.069,1.054.131S205.64,372.772,205.6,372.861Z" transform="translate(-69.919 -226.742)" fill="#455a64"/>
    <path id="Trazado_100410" data-name="Trazado 100410" d="M205.206,376.858c-.062-.083.248-.42.613-.833s.689-.758.751-.689-.083.5-.482.943S205.268,376.934,205.206,376.858Z" transform="translate(-70.402 -227.743)" fill="#455a64"/>
    <path id="Trazado_100411" data-name="Trazado 100411" d="M199.92,379.93c0-.1.365-.344.881-.558s.978-.317,1.026-.227-.351.337-.888.558S199.975,380.027,199.92,379.93Z" transform="translate(-68.758 -228.922)" fill="#455a64"/>
    <path id="Trazado_100412" data-name="Trazado 100412" d="M194.2,381.821c0-.1.379-.317.923-.5s1.005-.255,1.04-.158-.386.317-.923.5S194.234,381.911,194.2,381.821Z" transform="translate(-66.977 -229.546)" fill="#455a64"/>
    <path id="Trazado_100413" data-name="Trazado 100413" d="M188.6,383.912c-.041-.09.358-.331.9-.544s.992-.3,1.026-.214-.365.337-.9.551S188.633,384.008,188.6,383.912Z" transform="translate(-65.232 -230.169)" fill="#455a64"/>
    <path id="Trazado_100414" data-name="Trazado 100414" d="M183.069,386.276c-.041-.09.351-.351.875-.572s.985-.337,1.019-.248-.351.351-.875.572A2.09,2.09,0,0,1,183.069,386.276Z" transform="translate(-63.51 -230.887)" fill="#455a64"/>
    <path id="Trazado_100415" data-name="Trazado 100415" d="M171.89,204.613s4.5-1.377,10.488-8.022,8.394-15.15,9.186-15.15,4.132-1.873,11.707,11.886,5.275,17.264,3.973,17.333-10.329-1.735-15.838-.689-12.4,4.449-12.4,4.449Z" transform="translate(-60.03 -167.344)" fill="#455a64"/>
    <path id="Trazado_100416" data-name="Trazado 100416" d="M158.328,222.36l1.784,2.858.8,1.274a3.891,3.891,0,0,0,5.185,1.343l9.558-4.132-6.687-12.622-9.42,5.908a3.89,3.89,0,0,0-1.223,5.364Z" transform="translate(-55.62 -176.6)" fill="#263238"/>
    <path id="Trazado_100417" data-name="Trazado 100417" d="M167.33,232.483l3.588,5.895,1.529-.551,10.832,7.575,2.417-5.826s-6.2-2.155-7.506-4.221,0-2.651,0-2.651l-3.078-3.044Z" transform="translate(-58.61 -182.385)" fill="#263238"/>
    <path id="Trazado_100418" data-name="Trazado 100418" d="M211.817,193.759c4.056,7.458,6.019,14.227,4.38,15.15s-6.253-4.428-10.329-11.886-6.019-14.227-4.38-15.15S207.754,186.294,211.817,193.759Z" transform="translate(-69.065 -167.473)" fill="#263238"/>
    <path id="Trazado_100419" data-name="Trazado 100419" d="M157.308,231.955l2.6-1.033-1.88-3-1.9,1.384Z" transform="translate(-55.123 -181.843)" fill="#455a64"/>
    <path id="Trazado_100420" data-name="Trazado 100420" d="M176.62,231.2l-6.81,5.089-1.019-1.68Z" transform="translate(-59.065 -182.865)" fill="#455a64"/>
    <path id="Trazado_100421" data-name="Trazado 100421" d="M158.787,227.92l1.88,3-.537.213-1.57-3.051Z" transform="translate(-55.879 -181.843)" fill="#455a64"/>
    <path id="Trazado_100422" data-name="Trazado 100422" d="M161.63,227.391a30,30,0,0,0,5.592-3.051,15.012,15.012,0,0,0-2.878,1.377,14.827,14.827,0,0,0-2.713,1.673Z" transform="translate(-56.835 -180.729)" fill="#455a64"/>
    <path id="Trazado_100423" data-name="Trazado 100423" d="M160.24,224.814a12.6,12.6,0,0,0,2.6-1.329,13.085,13.085,0,0,0,2.431-1.625A24.647,24.647,0,0,0,160.24,224.814Z" transform="translate(-56.403 -179.957)" fill="#455a64"/>
    <path id="Trazado_100424" data-name="Trazado 100424" d="M163.34,230.261a2.285,2.285,0,0,0,.819-.248l.861-.358c.317-.145.647-.337,1-.53a11.382,11.382,0,0,0,2.424-1.6,14.063,14.063,0,0,0-2.589,1.3c-.351.193-.689.4-.978.551s-.585.3-.819.42C163.6,230.04,163.319,230.213,163.34,230.261Z" transform="translate(-57.367 -181.719)" fill="#455a64"/>
    <path id="Trazado_100425" data-name="Trazado 100425" d="M206.24,197.121s3.8-2.754,6.377,2.451-1.543,6.411-1.543,6.411a35.891,35.891,0,0,1-4.834-8.863Z" transform="translate(-70.726 -172.027)" fill="#455a64"/>
    <path id="Trazado_100426" data-name="Trazado 100426" d="M199.41,188.6a5.068,5.068,0,0,0,.227,1.019c.179.647.427,1.584.771,2.755.207.565.441,1.178.689,1.839l.386,1.026c.069.172.131.351.2.537s.165.351.248.53L203,198.557c.09.2.186.393.282.592s.213.386.324.578l.689,1.178.689,1.178c.117.186.22.386.344.565s.255.365.372.544l1.432,2.066c.117.158.22.324.337.475l.372.448.689.84,1.26,1.515c.833.868,1.522,1.543,2,2.018a5.465,5.465,0,0,0,.771.689,7.236,7.236,0,0,0-.689-.792l-1.914-2.066-1.191-1.577-.689-.847-.358-.448c-.117-.152-.22-.317-.331-.475l-1.377-2.066-.365-.537c-.131-.179-.227-.379-.344-.565l-.689-1.171c-.227-.393-.454-.785-.689-1.164-.1-.193-.227-.379-.324-.578s-.186-.392-.282-.585l-1.081-2.224c-.083-.179-.179-.351-.248-.53s-.145-.358-.213-.53c-.138-.351-.269-.689-.4-1.012l-.723-1.818c-.365-1.122-.654-2.066-.868-2.693A7.016,7.016,0,0,0,199.41,188.6Z" transform="translate(-68.599 -169.6)" fill="#263238"/>
    <path id="Trazado_100427" data-name="Trazado 100427" d="M183.342,234.078a1.164,1.164,0,0,1,.806,1.412c-.3,1.171-.778,3.009-1.164,4.132a3.085,3.085,0,0,1-.516,1.019.964.964,0,0,1-1.756-.5,3.076,3.076,0,0,1,.1-1.2c.241-1.095.689-2.755,1.074-4.07a1.164,1.164,0,0,1,1.436-.8l.017,0Z" transform="translate(-62.771 -183.746)" fill="#ffbe9d"/>
    <path id="Trazado_100428" data-name="Trazado 100428" d="M186.052,236.835a1.164,1.164,0,0,1,.806,1.412c-.3,1.171-.778,3.009-1.171,4.132a2.978,2.978,0,0,1-.516,1.019,1.054,1.054,0,0,1-1.019.386,1.08,1.08,0,0,1-.73-.888,3.212,3.212,0,0,1,.1-1.2c.248-1.088.689-2.754,1.074-4.07a1.178,1.178,0,0,1,1.46-.8Z" transform="translate(-63.615 -184.603)" fill="#ffbe9d"/>
    <path id="Trazado_100429" data-name="Trazado 100429" d="M188.818,238.5a1.019,1.019,0,0,1,.689,1.226c-.255,1.012-.689,2.6-1.012,3.574a2.636,2.636,0,0,1-.448.888.833.833,0,0,1-1.515-.434,2.663,2.663,0,0,1,.083-1.04c.213-.943.6-2.362.93-3.526a1.02,1.02,0,0,1,1.26-.689Z" transform="translate(-64.583 -185.126)" fill="#ffbe9d"/>
    <path id="Trazado_100430" data-name="Trazado 100430" d="M191.782,238.834a1.019,1.019,0,0,1,.689,1.233c-.255,1.019-.689,2.617-1.019,3.595a2.586,2.586,0,0,1-.448.888.833.833,0,0,1-1.522-.434,2.7,2.7,0,0,1,.083-1.047c.213-.943.6-2.376.937-3.54a1.018,1.018,0,0,1,1.266-.689h0Z" transform="translate(-65.502 -185.231)" fill="#ffbe9d"/>
    <path id="Trazado_100431" data-name="Trazado 100431" d="M183.6,241.714a7.135,7.135,0,0,1,.5-2.2,7.277,7.277,0,0,1,.854-2.1,7.018,7.018,0,0,1-.51,2.2A7.394,7.394,0,0,1,183.6,241.714Z" transform="translate(-63.676 -184.798)" fill="#eb996e"/>
    <path id="Trazado_100432" data-name="Trazado 100432" d="M189.23,243.978a28.252,28.252,0,0,1,1.288-4.318,9.59,9.59,0,0,1-1.288,4.325Z" transform="translate(-65.429 -185.499)" fill="#eb996e"/>
    <path id="Trazado_100433" data-name="Trazado 100433" d="M186.44,243.611a28.578,28.578,0,0,1,1.288-4.331A9.582,9.582,0,0,1,186.44,243.611Z" transform="translate(-64.561 -185.381)" fill="#eb996e"/>
    <path id="Trazado_100434" data-name="Trazado 100434" d="M231.417,161.01c.076.055-2.754,3.891-6.308,8.56s-6.514,8.408-6.59,8.346,2.755-3.891,6.3-8.56S231.335,160.948,231.417,161.01Z" transform="translate(-74.549 -161.009)" fill="#263238"/>
    <path id="Trazado_100435" data-name="Trazado 100435" d="M252.02,176.879c.041.09-5.895,2.934-13.263,6.349s-13.366,6.115-13.408,6.025,5.895-2.934,13.256-6.349S251.965,176.789,252.02,176.879Z" transform="translate(-76.676 -165.95)" fill="#263238"/>
    <path id="Trazado_100436" data-name="Trazado 100436" d="M251.548,209.07c0,.1-4.242-.227-9.448-.73s-9.427-.992-9.42-1.088,4.242.227,9.455.73S251.562,208.974,251.548,209.07Z" transform="translate(-78.959 -175.403)" fill="#263238"/>
    <path id="Trazado_100437" data-name="Trazado 100437" d="M102.311,221.8l4.676,26.581a8.746,8.746,0,0,0,9.847,7.079h0a8.649,8.649,0,0,0,7.475-9.682c-.012-.087-.024-.175-.038-.262l-.757-4.572s6.542-1.777,5.86-8.346c-.331-3.168-1.543-9.641-2.713-15.466a12.54,12.54,0,0,0-14.31-9.8h0a12.23,12.23,0,0,0-10.123,14.026C102.255,221.508,102.281,221.655,102.311,221.8Z" transform="translate(-38.29 -175.381)" fill="#ffbe9d"/>
    <path id="Trazado_100438" data-name="Trazado 100438" d="M129.182,255.583a15.793,15.793,0,0,1-8.952-1.453s2.6,4.5,9.166,3.119Z" transform="translate(-43.944 -190.005)" fill="#eb996e"/>
    <path id="Trazado_100439" data-name="Trazado 100439" d="M134.856,227.739a.943.943,0,0,1-.806,1.047.909.909,0,0,1-1.071-.711l0-.019a.943.943,0,0,1,.806-1.054.91.91,0,0,1,1.07.713Z" transform="translate(-47.911 -181.552)" fill="#263238"/>
    <path id="Trazado_100440" data-name="Trazado 100440" d="M134.285,225.41c-.1.138-.888-.31-1.907-.186s-1.715.689-1.839.592,0-.282.331-.551a2.714,2.714,0,0,1,1.453-.634,2.536,2.536,0,0,1,1.543.31C134.223,225.142,134.361,225.335,134.285,225.41Z" transform="translate(-47.14 -180.814)" fill="#263238"/>
    <path id="Trazado_100441" data-name="Trazado 100441" d="M120.885,229.422a.951.951,0,0,1-.806,1.054.916.916,0,0,1-1.078-.718v-.019a.943.943,0,0,1,.806-1.047.916.916,0,0,1,1.078.717Z" transform="translate(-43.56 -182.078)" fill="#263238"/>
    <path id="Trazado_100442" data-name="Trazado 100442" d="M119.957,227.3c-.1.131-.881-.31-1.907-.193s-1.715.689-1.839.6.034-.282.337-.558a2.617,2.617,0,0,1,1.453-.627,2.58,2.58,0,0,1,1.536.3C119.881,227.053,120.012,227.3,119.957,227.3Z" transform="translate(-42.68 -181.403)" fill="#263238"/>
    <path id="Trazado_100443" data-name="Trazado 100443" d="M127.673,235.046a7.218,7.218,0,0,1,1.632-.482c.255-.055.5-.138.523-.317a1.325,1.325,0,0,0-.269-.744l-1-1.873a36.263,36.263,0,0,1-2.334-4.931,34.743,34.743,0,0,1,2.754,4.738c.337.654.689,1.281.964,1.887a1.446,1.446,0,0,1,.255.992.649.649,0,0,1-.386.427,1.746,1.746,0,0,1-.434.11A6.924,6.924,0,0,1,127.673,235.046Z" transform="translate(-45.809 -181.463)" fill="#263238"/>
    <path id="Trazado_100444" data-name="Trazado 100444" d="M124.029,240.33c.165,0,.3,1.06,1.336,1.735s2.21.413,2.231.565-.234.241-.737.31a2.814,2.814,0,0,1-1.859-.406,2.4,2.4,0,0,1-1.047-1.467C123.857,240.612,123.974,240.33,124.029,240.33Z" transform="translate(-45.092 -185.708)" fill="#263238"/>
    <path id="Trazado_100445" data-name="Trazado 100445" d="M119.3,222.555c-.069.282-1.109.269-2.293.544s-2.114.689-2.3.489c-.09-.11.048-.393.413-.689a4.194,4.194,0,0,1,3.5-.785C119.081,222.224,119.329,222.417,119.3,222.555Z" transform="translate(-42.217 -180.004)" fill="#263238"/>
    <path id="Trazado_100446" data-name="Trazado 100446" d="M133.624,222.089c-.151.248-.888.09-1.735.172s-1.549.331-1.742.11c-.083-.1,0-.351.289-.6a2.388,2.388,0,0,1,1.377-.537,2.467,2.467,0,0,1,1.439.3C133.562,221.745,133.686,221.965,133.624,222.089Z" transform="translate(-47.023 -179.758)" fill="#263238"/>
    <path id="Trazado_100447" data-name="Trazado 100447" d="M125.822,203.911a2.321,2.321,0,0,0-3.023.186,2.066,2.066,0,0,0-.585-2.754,3.555,3.555,0,0,0-3.009-.434,10.211,10.211,0,0,0-2.816,1.377,1.06,1.06,0,0,0-.461-1.074,2.548,2.548,0,0,0-1.184-.372,9.026,9.026,0,0,0-4.965,1.116,30.947,30.947,0,0,0-4.593,3.119h0a21.935,21.935,0,0,0-4.2,4.49l-.055.048a7.346,7.346,0,0,0-1.646,4.765c.544,4.731,2.114,7.465,3,11.941a1.571,1.571,0,0,0,.337.833c.544.565,1.522.083,2.066-.51a8.456,8.456,0,0,0,1.749-5.323c.062-1.9-.213-3.794-.165-5.695v-.138a10.715,10.715,0,0,1,.138-1.446c.083-.31.888-3.023,3.5-3.443,2.754-.468,8.229,2.217,10.935,1.79s2.851-2.334,2.851-2.334l1.591,3.237a9.794,9.794,0,0,0,.255-4.042,4.6,4.6,0,0,0,1.377-2.362A3.038,3.038,0,0,0,125.822,203.911Z" transform="translate(-37.417 -173.384)" fill="#263238"/>
    <path id="Trazado_100448" data-name="Trazado 100448" d="M104.323,232.487c-.117-.034-4.731-.813-4.063,3.657s5.089,2.885,5.075,2.754S104.323,232.487,104.323,232.487Z" transform="translate(-37.706 -183.243)" fill="#ffbe9d"/>
    <path id="Trazado_100449" data-name="Trazado 100449" d="M104.245,238.112a1.126,1.126,0,0,1-.193.145.819.819,0,0,1-.592.1,1.963,1.963,0,0,1-1.164-1.6,2.658,2.658,0,0,1,.055-1.15.9.9,0,0,1,.51-.689.413.413,0,0,1,.5.145c.076.117.062.213.09.213s.083-.09,0-.269a.57.57,0,0,0-.22-.255.631.631,0,0,0-.454-.048,1.129,1.129,0,0,0-.689.813A2.659,2.659,0,0,0,102,236.81a2.066,2.066,0,0,0,1.439,1.763.859.859,0,0,0,.689-.227C104.252,238.222,104.259,238.112,104.245,238.112Z" transform="translate(-38.255 -183.951)" fill="#eb996e"/>
    <path id="Trazado_100450" data-name="Trazado 100450" d="M86.209,279.481a.827.827,0,0,1,.393-.062,1.542,1.542,0,0,1,1.019.51,2.217,2.217,0,0,1,.592,1.694,9.833,9.833,0,0,1-.523,2.314,3.152,3.152,0,0,0,.158,2.651c.489.854,1.487,1.508,1.894,2.7a3.175,3.175,0,0,1-1,3.443,3.224,3.224,0,0,1-1.859.723,6.807,6.807,0,0,1-1.99-.324,3.606,3.606,0,0,0-1.859-.117,2.7,2.7,0,0,0-1.377,1.116,9.53,9.53,0,0,1-1.171,1.467,2.341,2.341,0,0,1-1.742.64,3.443,3.443,0,0,1-2.754-1.825,6.738,6.738,0,0,1-.689-2.81c-.048-.881,0-1.673,0-2.362a11.812,11.812,0,0,0-.151-1.756,8.951,8.951,0,0,0-.42-1.446,1.433,1.433,0,0,1,.193.344,4.572,4.572,0,0,1,.358,1.074,9.823,9.823,0,0,1,.22,1.777,22.342,22.342,0,0,0,.09,2.355,6.424,6.424,0,0,0,.689,2.679,3.174,3.174,0,0,0,2.5,1.639,1.99,1.99,0,0,0,1.494-.565,9.144,9.144,0,0,0,1.122-1.419,3.054,3.054,0,0,1,1.556-1.253,3.856,3.856,0,0,1,2.066.117,6.908,6.908,0,0,0,1.887.31,2.879,2.879,0,0,0,1.66-.64,2.844,2.844,0,0,0,.909-3.078c-.337-1.054-1.308-1.722-1.846-2.651a2.792,2.792,0,0,1-.393-1.494,5.675,5.675,0,0,1,.248-1.377,9.947,9.947,0,0,0,.572-2.259,2.066,2.066,0,0,0-.5-1.591,1.543,1.543,0,0,0-.923-.523C86.347,279.46,86.209,279.5,86.209,279.481Z" transform="translate(-29.777 -197.878)" fill="#fafafa"/>
    <path id="Trazado_100451" data-name="Trazado 100451" d="M94.149,340.977a2.022,2.022,0,0,0,.207.427,1.8,1.8,0,0,0,1.067.744,2.169,2.169,0,0,0,1.969-.413,4.132,4.132,0,0,0,1.315-2.41c.22-1.026.179-2.2.379-3.443A5.516,5.516,0,0,1,99.72,334a3.14,3.14,0,0,1,1.584-1.419,4.461,4.461,0,0,1,2.21-.2c.751.076,1.487.248,2.231.344a5.4,5.4,0,0,0,2.252-.11,5.152,5.152,0,0,0,2.011-1.116,4.374,4.374,0,0,0,1.24-1.921,3.673,3.673,0,0,0-.041-2.2,3.78,3.78,0,0,0-3-2.665c-1.377-.151-2.617.516-3.918.544a3.718,3.718,0,0,1-1.818-.413,8.6,8.6,0,0,1-1.425-.916,8.707,8.707,0,0,0-2.41-1.474,2.479,2.479,0,0,0-2.066.138,1.874,1.874,0,0,0-.881.957,4.413,4.413,0,0,0-.11.461,1.079,1.079,0,0,1,.041-.482,1.886,1.886,0,0,1,.881-1.06,2.653,2.653,0,0,1,.964-.331,2.932,2.932,0,0,1,1.2.131,8.627,8.627,0,0,1,2.507,1.46,4.9,4.9,0,0,0,3.078,1.233,9.535,9.535,0,0,0,1.88-.351,5.8,5.8,0,0,1,2.066-.22,4.09,4.09,0,0,1,3.285,2.878,3.937,3.937,0,0,1,.048,2.41,4.728,4.728,0,0,1-1.336,2.066,5.431,5.431,0,0,1-2.155,1.2,5.631,5.631,0,0,1-2.39.11c-.771-.1-1.508-.269-2.224-.351a4.162,4.162,0,0,0-2.066.172,2.754,2.754,0,0,0-1.432,1.267,5.433,5.433,0,0,0-.62,1.77c-.2,1.219-.179,2.4-.42,3.443a4.331,4.331,0,0,1-1.439,2.513,2.3,2.3,0,0,1-2.128.386,1.8,1.8,0,0,1-1.095-.84A1,1,0,0,1,94.149,340.977Z" transform="translate(-35.823 -211.178)" fill="#fafafa"/>
    <path id="Trazado_100452" data-name="Trazado 100452" d="M122.092,288.136a2.548,2.548,0,0,1,.475-.64,3.679,3.679,0,0,1,2.066-1.033,3.533,3.533,0,0,1,3.292,1.308,3.787,3.787,0,0,1,.833,2.128,5.647,5.647,0,0,0,.523,2.4,1.86,1.86,0,0,0,1.005.751,5.428,5.428,0,0,0,1.377.213,11.111,11.111,0,0,1,1.494.069,2.809,2.809,0,0,1,1.508.537,1.786,1.786,0,0,1,.661,1.549,2.87,2.87,0,0,1-.689,1.556,4.4,4.4,0,0,1-1.377,1.081c-.516.262-1.06.475-1.591.723a5.594,5.594,0,0,0-1.467.9,2.846,2.846,0,0,0-.861,1.467,22.734,22.734,0,0,0-.083,3.719,4.82,4.82,0,0,1-.523,1.928,2.293,2.293,0,0,1-1.639,1.233,2.542,2.542,0,0,1-1.976-.689,6.017,6.017,0,0,1-1.315-1.6,16.994,16.994,0,0,0-1.06-1.687,3.111,3.111,0,0,0-1.467-1.143,2.635,2.635,0,0,0-1.8.117,10.707,10.707,0,0,0-1.68.9,9.551,9.551,0,0,1-1.708.888,5.283,5.283,0,0,1-1.894.317,5.964,5.964,0,0,1-3.443-1.212,4.889,4.889,0,0,1-1.887-2.913,3.374,3.374,0,0,1,.819-3.147,3.289,3.289,0,0,1,1.419-.73,11.709,11.709,0,0,1,1.481-.255,4.82,4.82,0,0,0,2.534-.861,5.045,5.045,0,0,0,1.377-2.066c.3-.737.489-1.467.744-2.135a6.249,6.249,0,0,1,.93-1.756,8.138,8.138,0,0,1,1.2-1.157,4.244,4.244,0,0,1,2.066-1,.958.958,0,0,1,.764.213,1.227,1.227,0,0,0-.757-.138A4.224,4.224,0,0,0,119.461,289a7.626,7.626,0,0,0-1.157,1.157,6.372,6.372,0,0,0-.875,1.715c-.241.689-.427,1.377-.689,2.149a5.206,5.206,0,0,1-1.377,2.155,4.981,4.981,0,0,1-2.665.937,5.015,5.015,0,0,0-2.754.936,3.064,3.064,0,0,0-.689,2.865,4.63,4.63,0,0,0,1.777,2.713,5.674,5.674,0,0,0,3.257,1.129,4.82,4.82,0,0,0,1.763-.3,9.5,9.5,0,0,0,1.653-.868,10.887,10.887,0,0,1,1.549-.888,2.975,2.975,0,0,1,2.066-.124,3.443,3.443,0,0,1,1.639,1.26,16.186,16.186,0,0,1,1.088,1.728,5.967,5.967,0,0,0,1.233,1.508,2.156,2.156,0,0,0,1.694.572,1.894,1.894,0,0,0,1.377-1.047,4.519,4.519,0,0,0,.482-1.777,19.9,19.9,0,0,1,.1-3.781,3.193,3.193,0,0,1,.964-1.632,5.751,5.751,0,0,1,1.556-.957c.544-.248,1.081-.455,1.584-.689a4.05,4.05,0,0,0,1.274-1,2.57,2.57,0,0,0,.689-1.377,1.54,1.54,0,0,0-.11-.689,1.612,1.612,0,0,0-.441-.565,2.532,2.532,0,0,0-1.377-.475c-.489-.055-.985-.055-1.474-.083a5.608,5.608,0,0,1-1.439-.241,2.149,2.149,0,0,1-1.129-.861,5.737,5.737,0,0,1-.537-2.507,3.607,3.607,0,0,0-.757-2.066,3.443,3.443,0,0,0-3.113-1.315,3.7,3.7,0,0,0-2,.943A6.719,6.719,0,0,0,122.092,288.136Z" transform="translate(-40.373 -200.061)" fill="#fafafa"/>
    <path id="Trazado_100453" data-name="Trazado 100453" d="M108.679,269.508a2.4,2.4,0,0,1-1.432.689,4.477,4.477,0,0,1-1.749,0,3.059,3.059,0,0,1-1.88-1.081,4.033,4.033,0,0,1-.689-2.066,5.509,5.509,0,0,1,.117-1.742,2.331,2.331,0,0,1,.737-1.377,6.2,6.2,0,0,0-.482,1.46,5.905,5.905,0,0,0-.048,1.66,3.987,3.987,0,0,0,.64,1.866,2.754,2.754,0,0,0,1.66.971,4.821,4.821,0,0,0,1.639.062A7.048,7.048,0,0,0,108.679,269.508Z" transform="translate(-38.55 -193.056)" fill="#fafafa"/>
    <path id="Trazado_100454" data-name="Trazado 100454" d="M147.645,269.357a.546.546,0,0,1-.048.186,1.89,1.89,0,0,1-.269.5,3.092,3.092,0,0,1-1.715,1.143,3.2,3.2,0,0,1-1.453,0,3.856,3.856,0,0,1-1.467-.785,4.716,4.716,0,0,0-1.446-.888,1.315,1.315,0,0,0-1.467.578,12.468,12.468,0,0,0-.847,1.68,3.443,3.443,0,0,1-1.219,1.377,3.25,3.25,0,0,1-4.514-.868c-.028-.041-.054-.082-.079-.123a1.372,1.372,0,0,1-.282-.689,4.613,4.613,0,0,0,.393.62,3.443,3.443,0,0,0,1.556,1.164,3.126,3.126,0,0,0,3.829-1.639,13.033,13.033,0,0,1,.868-1.728,1.859,1.859,0,0,1,.819-.689,1.613,1.613,0,0,1,1.033-.041,4.929,4.929,0,0,1,1.563.964,3.593,3.593,0,0,0,1.329.758,2.987,2.987,0,0,0,1.329,0,3.066,3.066,0,0,0,1.66-.978A5.477,5.477,0,0,0,147.645,269.357Z" transform="translate(-47.871 -194.661)" fill="#fafafa"/>
    <path id="Trazado_100455" data-name="Trazado 100455" d="M159.449,300.862a3.655,3.655,0,0,1-.764-.5,15.65,15.65,0,0,1-1.88-1.639,8.982,8.982,0,0,1-1.095-1.377,4.582,4.582,0,0,1-.689-1.9,3.715,3.715,0,0,1,.351-2.211,2.753,2.753,0,0,1,.778-.923,8.4,8.4,0,0,1,1.012-.647,4.405,4.405,0,0,0,.916-.689,2.169,2.169,0,0,0,.53-.909,5.324,5.324,0,0,0,.069-2.066,10.346,10.346,0,0,1-.145-1.983,2.42,2.42,0,0,1,.64-1.646,3.657,3.657,0,0,1,2.321-.93.992.992,0,0,1,.854.317,1.628,1.628,0,0,0-.847-.179,3.662,3.662,0,0,0-2.148.971,2.176,2.176,0,0,0-.523,1.487,11.519,11.519,0,0,0,.172,1.921,5.416,5.416,0,0,1-.055,2.224,2.458,2.458,0,0,1-.613,1.061,4.412,4.412,0,0,1-.992.723,3.7,3.7,0,0,0-1.66,1.467,3.486,3.486,0,0,0-.337,2.011,5.509,5.509,0,0,0,1.639,3.106C158.437,300.07,159.491,300.807,159.449,300.862Z" transform="translate(-54.765 -199.131)" fill="#fafafa"/>
    <path id="Trazado_100456" data-name="Trazado 100456" d="M137.444,328.574a.94.94,0,0,1,.317,0,7.515,7.515,0,0,1,.923.055,8.9,8.9,0,0,1,3.264.95,5.943,5.943,0,0,1,3.085,3.9,4.132,4.132,0,0,1-.427,2.982,4.035,4.035,0,0,1-2.589,1.935,3.687,3.687,0,0,1-1.673-.09,2.273,2.273,0,0,0-1.432,0,2.754,2.754,0,0,0-1.116.861,7.935,7.935,0,0,0-.737,1.164,4.62,4.62,0,0,1-1.8,2.066,3.4,3.4,0,0,1-2.362.282,2.974,2.974,0,0,1-1.646-1.074,3.3,3.3,0,0,1-.634-1.336,2.83,2.83,0,0,1-.048-.93,1.062,1.062,0,0,1,.069-.317,4.947,4.947,0,0,0,.117,1.212,3.221,3.221,0,0,0,.654,1.246,2.755,2.755,0,0,0,1.515.916,3.168,3.168,0,0,0,2.169-.3,4.391,4.391,0,0,0,1.646-1.949,4.44,4.44,0,0,1,2.066-2.217,2.617,2.617,0,0,1,1.639,0,3.263,3.263,0,0,0,1.522.09,3.706,3.706,0,0,0,2.355-1.763,3.836,3.836,0,0,0,.406-2.755,5.743,5.743,0,0,0-2.885-3.753,9.389,9.389,0,0,0-3.154-1.033A7.066,7.066,0,0,1,137.444,328.574Z" transform="translate(-47.159 -213.181)" fill="#fafafa"/>
    <path id="Trazado_100457" data-name="Trazado 100457" d="M118.962,360.228a4.678,4.678,0,0,0-.64-1.419,3.49,3.49,0,0,0-1.288-1.04,2.754,2.754,0,0,0-3.553.95,3.443,3.443,0,0,0-.6,1.508,4.647,4.647,0,0,0,.151,1.549,1.262,1.262,0,0,1-.227-.379,2.789,2.789,0,0,1-.179-1.2,3.568,3.568,0,0,1,.572-1.708,2.968,2.968,0,0,1,3.973-1.061,3.517,3.517,0,0,1,1.377,1.191,2.751,2.751,0,0,1,.441,1.122A1.24,1.24,0,0,1,118.962,360.228Z" transform="translate(-41.575 -222.055)" fill="#fafafa"/>
    <path id="Trazado_100458" data-name="Trazado 100458" d="M117.06,374.737a3.956,3.956,0,0,0-.31-.847A3.614,3.614,0,0,0,115.1,372.2a3.443,3.443,0,0,0-3.354.255,5.27,5.27,0,0,0-1.377,1.57,4.986,4.986,0,0,1-.785.9,1.886,1.886,0,0,1-1.205.448,3,3,0,0,1-2.066-1.246,6.879,6.879,0,0,0-1.46-1.522,2.578,2.578,0,0,0-1.784-.324,3.624,3.624,0,0,0-1.508.627,6.138,6.138,0,0,0-1.584,1.825,6.233,6.233,0,0,1-.475.778,3.158,3.158,0,0,1,.351-.84,5.773,5.773,0,0,1,1.556-1.963,3.679,3.679,0,0,1,1.611-.689,2.86,2.86,0,0,1,2.011.331,7.029,7.029,0,0,1,1.549,1.577,2.686,2.686,0,0,0,1.8,1.116,2.268,2.268,0,0,0,1.694-1.191,5.679,5.679,0,0,1,1.494-1.639,3.568,3.568,0,0,1,5.323,1.66,2.828,2.828,0,0,1,.172.689C117.1,374.655,117.1,374.737,117.06,374.737Z" transform="translate(-37.49 -226.579)" fill="#fafafa"/>
    <path id="Trazado_100459" data-name="Trazado 100459" d="M128.58,339.275a7.886,7.886,0,0,0-1.983-.875,6.248,6.248,0,0,0-2.314-.124,5.588,5.588,0,0,0-2.617,1.019,4.821,4.821,0,0,0-1.653,2.238,4.952,4.952,0,0,0-.248,2.286,6.494,6.494,0,0,0,.73,2.025,2.135,2.135,0,0,1-.386-.461,4.174,4.174,0,0,1-.6-1.529,5.019,5.019,0,0,1,1.942-4.82,5.682,5.682,0,0,1,2.755-1.054,5.984,5.984,0,0,1,2.424.207,4.712,4.712,0,0,1,1.474.689C128.449,339.124,128.593,339.261,128.58,339.275Z" transform="translate(-43.7 -216.101)" fill="#fafafa"/>
  </g>
</svg>
