<svg xmlns="http://www.w3.org/2000/svg" width="307.953" height="218.335" viewBox="0 0 307.953 218.335">
  <g id="Finance-pana" transform="translate(-39.74 -73.975)">
    <g id="freepik--background-complete--inject-178" transform="translate(66.699 73.975)">
      <path id="Trazado_124122" data-name="Trazado 124122" d="M579.994,83.789a11.243,11.243,0,1,1-12.733-9.482A11.243,11.243,0,0,1,579.994,83.789Z" transform="translate(-341.968 -55.218)" fill="#f5f5f5"/>
      <path id="Trazado_124123" data-name="Trazado 124123" d="M580.39,87.2a8.568,8.568,0,1,1-9.711-7.224A8.568,8.568,0,0,1,580.39,87.2Z" transform="translate(-345.007 -58.245)" fill="#ebebeb"/>
      <path id="Trazado_124124" data-name="Trazado 124124" d="M580.185,86.563a5.155,5.155,0,0,1-.375-.984,8.788,8.788,0,0,0-2.7-3.837,8.5,8.5,0,0,0-1.874-1.152,7.7,7.7,0,0,0-1.115-.417,8.429,8.429,0,0,0-1.213-.258,8.847,8.847,0,0,0-1.279-.075,9.708,9.708,0,0,0-1.316.131,8.834,8.834,0,0,0-1.279.333,7.809,7.809,0,0,0-1.181.511,7.956,7.956,0,0,0-1.049.661,7.592,7.592,0,0,0-.9.768,8.53,8.53,0,0,0-1.359,1.733,8.842,8.842,0,0,0-.792,1.757,9.179,9.179,0,0,0-.426,2.769,5.02,5.02,0,0,1,0,1.054,2.5,2.5,0,0,1-.244-1.04,7.962,7.962,0,0,1,.234-2.914,8.688,8.688,0,0,1,2.164-3.785,8.434,8.434,0,0,1,.937-.843,8.6,8.6,0,0,1,2.389-1.288,10.25,10.25,0,0,1,1.377-.361,9.834,9.834,0,0,1,1.405-.136,8.39,8.39,0,0,1,1.382.094,7.916,7.916,0,0,1,1.307.3,8.043,8.043,0,0,1,1.19.468,8.66,8.66,0,0,1,1.968,1.288,8.793,8.793,0,0,1,1.4,1.513,7.96,7.96,0,0,1,1.227,2.656A2.535,2.535,0,0,1,580.185,86.563Z" transform="translate(-344.844 -57.875)" fill="#e0e0e0"/>
      <path id="Trazado_124125" data-name="Trazado 124125" d="M579.008,96.246l.234,1.476-1.316.211L577.7,96.5a6.348,6.348,0,0,1-3.443-.543l.468-1.719a5.383,5.383,0,0,0,2.7.525l-.351-2.2c-1.518-.122-3.223-.347-3.528-2.23-.22-1.405.6-2.75,2.638-3.322l-.229-1.462,1.312-.211.229,1.438a6,6,0,0,1,2.811.375l-.4,1.719a5.56,5.56,0,0,0-2.122-.361l.356,2.239c1.518.108,3.2.337,3.495,2.192C581.842,94.325,581.032,95.67,579.008,96.246Zm-2.249-5.622-.3-1.874c-.67.267-.885.693-.815,1.129s.506.675,1.115.764Zm2.769,2.811c-.07-.468-.492-.651-1.092-.759l.291,1.818c.632-.234.871-.618.8-1.04Z" transform="translate(-350.408 -61.145)" fill="#e0e0e0"/>
      <path id="Trazado_124126" data-name="Trazado 124126" d="M486.569,80.021a19.512,19.512,0,1,1-22.107-16.458A19.512,19.512,0,0,1,486.569,80.021Z" transform="translate(-283.566 -49.46)" fill="#f5f5f5"/>
      <path id="Trazado_124127" data-name="Trazado 124127" d="M487.237,85.94a14.851,14.851,0,1,1-5.833-9.767A14.869,14.869,0,0,1,487.237,85.94Z" transform="translate(-288.831 -54.714)" fill="#ebebeb"/>
      <path id="Trazado_124128" data-name="Trazado 124128" d="M486.908,84.863a9.45,9.45,0,0,1-.646-1.715,15.844,15.844,0,0,0-2.342-4.263,15.3,15.3,0,0,0-2.342-2.389,15.04,15.04,0,0,0-3.247-2.01,14.013,14.013,0,0,0-1.94-.717,13.84,13.84,0,0,0-2.1-.468,14.564,14.564,0,0,0-2.225-.131,14.377,14.377,0,0,0-4.507.8,14,14,0,0,0-2.033.909,14.265,14.265,0,0,0-1.822,1.143,14.706,14.706,0,0,0-1.574,1.34,14.892,14.892,0,0,0-2.342,3.008,15.463,15.463,0,0,0-1.373,3.05,15.929,15.929,0,0,0-.74,4.811,11.563,11.563,0,0,1,0,1.827,4.2,4.2,0,0,1-.426-1.8,13.769,13.769,0,0,1,.408-5.064,14.916,14.916,0,0,1,3.748-6.559,13.653,13.653,0,0,1,1.663-1.471,14.98,14.98,0,0,1,1.916-1.246,14.52,14.52,0,0,1,2.2-.974,16.628,16.628,0,0,1,2.394-.632,16.349,16.349,0,0,1,2.464-.23,15,15,0,0,1,2.4.155,14.713,14.713,0,0,1,2.263.511,14.9,14.9,0,0,1,2.066.806,15.2,15.2,0,0,1,3.42,2.239,15.024,15.024,0,0,1,2.371,2.633,13.731,13.731,0,0,1,2.132,4.61A4.276,4.276,0,0,1,486.908,84.863Z" transform="translate(-288.571 -54.095)" fill="#e0e0e0"/>
      <path id="Trazado_124129" data-name="Trazado 124129" d="M484.827,101.688l.408,2.558-2.282.361-.4-2.488a10.764,10.764,0,0,1-5.978-.937l.806-2.989a9.369,9.369,0,0,0,4.685.937l-.614-3.813c-2.633-.211-5.6-.6-6.123-3.87-.384-2.422,1.04-4.778,4.582-5.767l-.408-2.534,2.286-.365.4,2.488a10.466,10.466,0,0,1,4.858.651l-.661,2.994a9.491,9.491,0,0,0-3.682-.632l.618,3.884c2.633.187,5.552.586,6.067,3.8C489.746,98.343,488.341,100.685,484.827,101.688Zm-3.9-9.73-.515-3.242c-1.167.468-1.541,1.209-1.406,1.963S479.87,91.784,480.925,91.957Zm4.811,4.877c-.126-.8-.862-1.129-1.9-1.316l.506,3.153C485.45,98.24,485.853,97.565,485.736,96.834Z" transform="translate(-298.193 -59.785)" fill="#e0e0e0"/>
      <path id="Trazado_124130" data-name="Trazado 124130" d="M136.993,229.873a11.243,11.243,0,1,1-12.738-9.477A11.243,11.243,0,0,1,136.993,229.873Z" transform="translate(-106.503 -132.868)" fill="#f5f5f5"/>
      <path id="Trazado_124131" data-name="Trazado 124131" d="M137.381,233.281a8.568,8.568,0,1,1-9.707-7.224A8.568,8.568,0,0,1,137.381,233.281Z" transform="translate(-109.537 -135.892)" fill="#ebebeb"/>
      <path id="Trazado_124132" data-name="Trazado 124132" d="M137.175,232.67a4.971,4.971,0,0,1-.37-.988,9.1,9.1,0,0,0-1.359-2.455,8.809,8.809,0,0,0-1.345-1.377,8.508,8.508,0,0,0-1.874-1.157,7.491,7.491,0,0,0-1.115-.412,7.737,7.737,0,0,0-1.213-.258,8.23,8.23,0,0,0-1.279-.075,9.011,9.011,0,0,0-1.316.127,8.321,8.321,0,0,0-3.509,1.5,8.08,8.08,0,0,0-.9.773,8.5,8.5,0,0,0-1.359,1.729,8.957,8.957,0,0,0-.792,1.757,9.187,9.187,0,0,0-.426,2.773,4.685,4.685,0,0,1,0,1.054,2.535,2.535,0,0,1-.244-1.04,7.965,7.965,0,0,1,.234-2.919,8.663,8.663,0,0,1,.764-1.874,8.9,8.9,0,0,1,1.405-1.874,7.96,7.96,0,0,1,.937-.848,8.937,8.937,0,0,1,2.389-1.284,9.5,9.5,0,0,1,1.382-.365,9.691,9.691,0,0,1,1.405-.131,8.966,8.966,0,0,1,1.405.089,8.353,8.353,0,0,1,1.3.3,8.747,8.747,0,0,1,4.526,3.279,7.965,7.965,0,0,1,1.227,2.656A2.558,2.558,0,0,1,137.175,232.67Z" transform="translate(-109.373 -135.552)" fill="#e0e0e0"/>
      <path id="Trazado_124133" data-name="Trazado 124133" d="M136,242.352l.234,1.471-1.316.211-.23-1.434a6.306,6.306,0,0,1-3.443-.525l.469-1.724a5.34,5.34,0,0,0,2.7.525l-.356-2.2c-1.513-.117-3.223-.342-3.523-2.225-.225-1.405.595-2.755,2.638-3.322l-.234-1.462,1.316-.211.23,1.434a5.983,5.983,0,0,1,2.811.375l-.4,1.724a5.373,5.373,0,0,0-2.122-.361l.356,2.235c1.518.108,3.2.337,3.495,2.192C138.836,240.427,138.025,241.771,136,242.352Zm-2.249-5.622-.3-1.874c-.67.272-.885.693-.815,1.129s.506.67,1.115.764Zm2.773,2.811c-.075-.468-.5-.646-1.1-.754l.29,1.813c.637-.234.871-.623.806-1.045Z" transform="translate(-114.941 -138.811)" fill="#e0e0e0"/>
      <path id="Trazado_124134" data-name="Trazado 124134" d="M108.517,172.636a7.313,7.313,0,1,1,2.267-10.077,7.313,7.313,0,0,1-2.267,10.077Z" transform="translate(-97.286 -100.375)" fill="#f5f5f5"/>
      <path id="Trazado_124135" data-name="Trazado 124135" d="M109.56,173.13a5.575,5.575,0,1,1,1.733-7.683A5.575,5.575,0,0,1,109.56,173.13Z" transform="translate(-99.261 -102.341)" fill="#ebebeb"/>
      <path id="Trazado_124136" data-name="Trazado 124136" d="M112.484,172.822a5.061,5.061,0,0,1,.468-.468,5.846,5.846,0,0,0,1.1-1.457,5.481,5.481,0,0,0,.656-2.581,4.823,4.823,0,0,0-.047-.773,5.252,5.252,0,0,0-.169-.787,5.46,5.46,0,0,0-.3-.782,5.341,5.341,0,0,0-.96-1.405,4.96,4.96,0,0,0-.614-.562,5.074,5.074,0,0,0-.67-.468,4.772,4.772,0,0,0-.684-.365,5.62,5.62,0,0,0-1.405-.351,6.205,6.205,0,0,0-1.251,0,5.837,5.837,0,0,0-1.761.468,3.508,3.508,0,0,1-.632.272,2.448,2.448,0,0,1,.558-.422,5.125,5.125,0,0,1,1.794-.628,5.552,5.552,0,0,1,1.326-.052,5.621,5.621,0,0,1,1.494.337,5.212,5.212,0,0,1,.759.347,5.344,5.344,0,0,1,.726.468,5.771,5.771,0,0,1,1.246,1.33,6.036,6.036,0,0,1,.468.81,5.93,5.93,0,0,1,.314.843,5.618,5.618,0,0,1,.169.853,5.015,5.015,0,0,1,.037.834,5.677,5.677,0,0,1-.244,1.508,5.579,5.579,0,0,1-.543,1.213,5.154,5.154,0,0,1-1.256,1.434A1.7,1.7,0,0,1,112.484,172.822Z" transform="translate(-102.034 -102.126)" fill="#e0e0e0"/>
      <path id="Trazado_124137" data-name="Trazado 124137" d="M106.194,173.886l-.815.529-.468-.726.792-.515a4.057,4.057,0,0,1-.595-2.188l1.143-.178a3.5,3.5,0,0,0,.4,1.747l1.213-.792c-.328-.937-.646-2.01.394-2.684a1.96,1.96,0,0,1,2.67.689l.806-.525.468.726-.792.515a3.935,3.935,0,0,1,.52,1.761l-1.134.22a3.537,3.537,0,0,0-.342-1.359l-1.237.806c.337.937.646,1.991-.379,2.656A1.955,1.955,0,0,1,106.194,173.886Zm2.736-2.811,1.031-.675c-.337-.328-.647-.342-.885-.187s-.253.468-.145.857Zm-.937,2.389c.253-.169.253-.468.159-.853l-1,.656c.319.309.614.342.843.192Z" transform="translate(-101.338 -105.504)" fill="#e0e0e0"/>
      <path id="Trazado_124140" data-name="Trazado 124140" d="M531.22,44.05a5.058,5.058,0,0,1,.468-.468,5.845,5.845,0,0,0,1.1-1.457,5.364,5.364,0,0,0,.469-1.162,5.675,5.675,0,0,0,.2-1.405,5.463,5.463,0,0,0-.033-.8,5.235,5.235,0,0,0-.169-.787,5.136,5.136,0,0,0-.3-.782,5.673,5.673,0,0,0-.422-.75,5.789,5.789,0,0,0-.52-.67,5.01,5.01,0,0,0-.619-.567,4.783,4.783,0,0,0-.67-.468,5.312,5.312,0,0,0-.7-.337,5.422,5.422,0,0,0-1.406-.347,5.589,5.589,0,0,0-1.251,0,5.85,5.85,0,0,0-1.761.468,3.126,3.126,0,0,1-.633.272,2.448,2.448,0,0,1,.557-.422,5.126,5.126,0,0,1,1.794-.6,5.331,5.331,0,0,1,1.326-.047,5.594,5.594,0,0,1,1.494.333,5.219,5.219,0,0,1,.759.347,5.693,5.693,0,0,1,1.972,1.785,6.086,6.086,0,0,1,.469.81,5.886,5.886,0,0,1,.309.843,5.075,5.075,0,0,1,.169.853,5.011,5.011,0,0,1,.037.834,5.674,5.674,0,0,1-.244,1.508,5.575,5.575,0,0,1-.553,1.241,5.154,5.154,0,0,1-1.251,1.405,1.738,1.738,0,0,1-.6.375Z" transform="translate(-324.615 -33.695)" fill="#e0e0e0"/>
    </g>
    <g id="freepik--Floor--inject-178" transform="translate(39.74 261.204)">
      <path id="Trazado_124142" data-name="Trazado 124142" d="M347.693,470.222c0,.066-68.942.122-153.967.122s-153.986-.056-153.986-.122,68.928-.122,153.986-.122S347.693,470.151,347.693,470.222Z" transform="translate(-39.74 -470.1)" fill="#263238"/>
    </g>
    <g id="freepik--Device--inject-178" transform="translate(107.936 89.329)">
      <path id="Trazado_124143" data-name="Trazado 124143" d="M460.324,134.64H281.966a5.566,5.566,0,0,0-5.566,5.57V266.188a5.565,5.565,0,0,0,5.565,5.565h68.454s4.357,13.464-9.145,20.435h64.008s-15.23-5.228-11.323-20.435h66.365a5.565,5.565,0,0,0,5.565-5.565V140.21A5.566,5.566,0,0,0,460.324,134.64Z" transform="translate(-239.896 -95.452)" fill="#263238"/>
      <path id="Trazado_124144" data-name="Trazado 124144" d="M477.026,397.8a3.436,3.436,0,0,1-4.839,4.839,1.2,1.2,0,0,1-.3-.3,3.434,3.434,0,0,1,4.839-4.835A1.259,1.259,0,0,1,477.026,397.8Z" transform="translate(-343.398 -234.761)" fill="#455a64"/>
      <path id="Trazado_124145" data-name="Trazado 124145" d="M287.521,139.57H461.794a4.544,4.544,0,0,1,4.544,4.544V251.33H283V144.114a4.544,4.544,0,0,1,4.521-4.544Z" transform="translate(-243.404 -102.129)" fill="#fff"/>
      <rect id="Rectángulo_30143" data-name="Rectángulo 30143" width="6.015" height="67.161" transform="translate(55.107 62.999)" fill="#f5ca56"/>
      <rect id="Rectángulo_30144" data-name="Rectángulo 30144" width="6.015" height="44.351" transform="translate(66.716 86.395)" fill="#f5ca56"/>
      <rect id="Rectángulo_30145" data-name="Rectángulo 30145" width="6.015" height="59.155" transform="translate(78.325 71.595)" fill="#f5ca56"/>
      <rect id="Rectángulo_30146" data-name="Rectángulo 30146" width="6.015" height="64.565" transform="translate(89.938 65.672)" fill="#f5ca56"/>
      <rect id="Rectángulo_30147" data-name="Rectángulo 30147" width="6.015" height="42.983" transform="translate(101.547 87.792)" fill="#f5ca56"/>
      <rect id="Rectángulo_30148" data-name="Rectángulo 30148" width="6.015" height="34.555" transform="translate(113.156 96.389)" fill="#f5ca56"/>
      <rect id="Rectángulo_30149" data-name="Rectángulo 30149" width="6.015" height="60.265" transform="translate(124.765 70.094)" fill="#f5ca56"/>
      <rect id="Rectángulo_30150" data-name="Rectángulo 30150" width="6.015" height="49.401" transform="translate(136.374 81.232)" fill="#f5ca56"/>
      <rect id="Rectángulo_30151" data-name="Rectángulo 30151" width="6.015" height="58.082" transform="translate(147.987 72.336)" fill="#f5ca56"/>
      <rect id="Rectángulo_30152" data-name="Rectángulo 30152" width="6.015" height="39.572" transform="translate(159.596 91.274)" fill="#f5ca56"/>
      <rect id="Rectángulo_30153" data-name="Rectángulo 30153" width="6.015" height="60.265" transform="translate(182.753 70.094)" fill="#f5ca56"/>
      <rect id="Rectángulo_30154" data-name="Rectángulo 30154" width="6.015" height="20.622" transform="translate(207.409 109.661)" fill="#f5ca56"/>
      <rect id="Rectángulo_30155" data-name="Rectángulo 30155" width="6.015" height="39.572" transform="translate(195.388 91.274)" fill="#f5ca56"/>
      <rect id="Rectángulo_30156" data-name="Rectángulo 30156" width="6.015" height="47.101" transform="translate(171.205 83.584)" fill="#f5ca56"/>
      <path id="Trazado_124146" data-name="Trazado 124146" d="M479.882,210.122a3.75,3.75,0,0,1-.525-.084l-1.532-.314a23.956,23.956,0,0,0-2.5-.4,30.918,30.918,0,0,0-3.443-.286,39.873,39.873,0,0,0-9.416.806,41.562,41.562,0,0,0-11.674,4.422,47.658,47.658,0,0,0-11.829,9.416c-3.682,4.038-6.788,9.028-9.965,14.307s-6.474,10.948-11.2,15.839a29.317,29.317,0,0,1-8.25,6.17,17.193,17.193,0,0,1-5.088,1.555,16.3,16.3,0,0,1-5.392-.183,22.006,22.006,0,0,1-9.393-4.924,43.729,43.729,0,0,1-6.957-7.594c-4.038-5.434-6.905-11.29-9.974-16.626s-6.146-10.358-9.964-14.27a27.1,27.1,0,0,0-6.16-4.844,25.915,25.915,0,0,0-3.331-1.616,27.1,27.1,0,0,0-3.4-1.007,24.712,24.712,0,0,0-12.344.347,27.847,27.847,0,0,0-8.475,4.076,30.863,30.863,0,0,0-4.451,3.991l-1.045,1.157a3.271,3.271,0,0,1-.375.384,2.685,2.685,0,0,1,.319-.426l.989-1.218a28.951,28.951,0,0,1,4.4-4.109,27.641,27.641,0,0,1,8.526-4.216,24.947,24.947,0,0,1,12.551-.468,26.045,26.045,0,0,1,13.183,7.542c3.846,3.963,7.051,8.99,10.105,14.349s5.968,11.183,9.965,16.547a43.387,43.387,0,0,0,6.858,7.5,21.354,21.354,0,0,0,9.1,4.778,15.68,15.68,0,0,0,5.153.173,16.7,16.7,0,0,0,4.9-1.494,28.734,28.734,0,0,0,8.081-6.039c4.661-4.793,7.922-10.452,11.145-15.694s6.334-10.306,10.082-14.363a48.177,48.177,0,0,1,12.007-9.454,41.474,41.474,0,0,1,11.834-4.371,38.993,38.993,0,0,1,9.5-.7,28.966,28.966,0,0,1,3.462.351,21.152,21.152,0,0,1,2.5.469l1.518.379a3.346,3.346,0,0,1,.511.145Z" transform="translate(-264.772 -138.545)" fill="#263238"/>
      <path id="Trazado_124147" data-name="Trazado 124147" d="M301.718,249.714c-.136,0-.248-19.151-.248-42.772s.112-42.772.248-42.772.248,19.147.248,42.772S301.845,249.714,301.718,249.714Z" transform="translate(-253.222 -115.206)" fill="#263238"/>
      <path id="Trazado_124148" data-name="Trazado 124148" d="M471.156,346.488c0,.136-36.073.244-80.578.244S310,346.624,310,346.488s36.073-.248,80.578-.248S471.156,346.352,471.156,346.488Z" transform="translate(-257.755 -210.145)" fill="#263238"/>
      <path id="Trazado_124149" data-name="Trazado 124149" d="M324.295,357.768a40.2,40.2,0,0,1-8.924,0,40.226,40.226,0,0,1,8.924,0Z" transform="translate(-260.61 -215.937)" fill="#263238"/>
      <path id="Trazado_124150" data-name="Trazado 124150" d="M353.9,358.344a57.418,57.418,0,0,1-10.667,0,28.8,28.8,0,0,1,5.336-.244A29.215,29.215,0,0,1,353.9,358.344Z" transform="translate(-275.418 -216.235)" fill="#263238"/>
      <path id="Trazado_124151" data-name="Trazado 124151" d="M380.9,358.344a57.418,57.418,0,0,1-10.667,0,28.8,28.8,0,0,1,5.336-.244A29.216,29.216,0,0,1,380.9,358.344Z" transform="translate(-289.769 -216.235)" fill="#263238"/>
      <path id="Trazado_124152" data-name="Trazado 124152" d="M407.817,358.344a57.418,57.418,0,0,1-10.667,0,28.8,28.8,0,0,1,5.336-.244A29.214,29.214,0,0,1,407.817,358.344Z" transform="translate(-304.078 -216.235)" fill="#263238"/>
      <path id="Trazado_124153" data-name="Trazado 124153" d="M434.767,358.344a57.418,57.418,0,0,1-10.667,0,28.8,28.8,0,0,1,5.336-.244A29.215,29.215,0,0,1,434.767,358.344Z" transform="translate(-318.402 -216.235)" fill="#263238"/>
      <path id="Trazado_124154" data-name="Trazado 124154" d="M461.727,358.344a57.418,57.418,0,0,1-10.667,0,28.729,28.729,0,0,1,5.331-.244A29.29,29.29,0,0,1,461.727,358.344Z" transform="translate(-332.732 -216.235)" fill="#263238"/>
      <path id="Trazado_124155" data-name="Trazado 124155" d="M488.677,358.344a57.418,57.418,0,0,1-10.667,0,28.729,28.729,0,0,1,5.331-.244A29.289,29.289,0,0,1,488.677,358.344Z" transform="translate(-347.057 -216.235)" fill="#263238"/>
      <path id="Trazado_124156" data-name="Trazado 124156" d="M515.627,358.344a57.416,57.416,0,0,1-10.667,0,28.77,28.77,0,0,1,5.331-.244A29.33,29.33,0,0,1,515.627,358.344Z" transform="translate(-361.381 -216.235)" fill="#263238"/>
      <path id="Trazado_124157" data-name="Trazado 124157" d="M542.577,358.344a57.418,57.418,0,0,1-10.667,0,28.8,28.8,0,0,1,5.336-.244A29.216,29.216,0,0,1,542.577,358.344Z" transform="translate(-375.706 -216.235)" fill="#263238"/>
      <path id="Trazado_124158" data-name="Trazado 124158" d="M569.527,358.344a57.418,57.418,0,0,1-10.667,0,28.8,28.8,0,0,1,5.336-.244A29.214,29.214,0,0,1,569.527,358.344Z" transform="translate(-390.03 -216.235)" fill="#263238"/>
      <path id="Trazado_124159" data-name="Trazado 124159" d="M594.6,358.354a57.412,57.412,0,0,1-10.667,0,28.764,28.764,0,0,1,5.331-.244A29.334,29.334,0,0,1,594.6,358.354Z" transform="translate(-403.355 -216.241)" fill="#263238"/>
      <path id="Trazado_124160" data-name="Trazado 124160" d="M619.667,358.364a57.418,57.418,0,0,1-10.667,0,58.506,58.506,0,0,1,10.667,0Z" transform="translate(-416.681 -216.246)" fill="#263238"/>
      <path id="Trazado_124161" data-name="Trazado 124161" d="M644.727,358.368a57.4,57.4,0,0,1-10.667,0,57.4,57.4,0,0,1,10.667,0Z" transform="translate(-430.001 -216.245)" fill="#263238"/>
      <path id="Trazado_124162" data-name="Trazado 124162" d="M430.322,259.845c0-.1.74.155.974,1.162a2.473,2.473,0,0,1-.187,1.733,1.5,1.5,0,0,1-.876.74,1.611,1.611,0,0,1-1.223-.145,2.047,2.047,0,0,1-1.045-1.916,2.145,2.145,0,0,1,.839-1.551,1.373,1.373,0,0,1,1.148-.281c.281.084.375.22.356.248a1.341,1.341,0,0,0-1.2.4,1.766,1.766,0,0,0-.525,1.209,1.49,1.49,0,0,0,.745,1.3.89.89,0,0,0,1.246-.319,2.192,2.192,0,0,0,.253-1.335A2.922,2.922,0,0,0,430.322,259.845Z" transform="translate(-320.455 -165.565)" fill="#263238"/>
      <path id="Trazado_124163" data-name="Trazado 124163" d="M599.513,212.754c0-.037.192-.1.525,0a2.024,2.024,0,0,1,1.073.937,2.665,2.665,0,0,1,.262,2.108,2.216,2.216,0,0,1-2.057,1.644,1.752,1.752,0,0,1-1.307-.679,2.81,2.81,0,0,1-.553-1.171,2.67,2.67,0,0,1,.337-2.094c.74-1.045,1.654-.993,1.621-.937.042.1-.721.244-1.213,1.157a2.342,2.342,0,0,0-.145,1.7c.159.618.637,1.326,1.284,1.33a1.654,1.654,0,0,0,1.448-1.166,2.3,2.3,0,0,0-.1-1.691,2.427,2.427,0,0,0-1.176-1.138Z" transform="translate(-410.502 -141.419)" fill="#263238"/>
      <rect id="Rectángulo_30157" data-name="Rectángulo 30157" width="120.684" height="93.925" transform="translate(0.094 0.159)" fill="#fff"/>
      <path id="Trazado_124164" data-name="Trazado 124164" d="M319.258,160.554c0-.937-.042-37.244-.112-93.925l.112.112H198.588l.136-.136v93.925l-.122-.122,120.684.122-120.684.122h-.122V66.47H319.413v.112C319.3,123.31,319.263,159.617,319.258,160.554Z" transform="translate(-198.48 -66.47)" fill="#263238"/>
      <rect id="Rectángulo_30158" data-name="Rectángulo 30158" width="19.535" height="1.087" transform="translate(5.982 12.499)" fill="#263238"/>
      <rect id="Rectángulo_30159" data-name="Rectángulo 30159" width="9.655" height="1.087" transform="translate(5.982 15.043)" fill="#263238"/>
      <rect id="Rectángulo_30160" data-name="Rectángulo 30160" width="3.537" height="1.021" transform="translate(17.118 83.689)" fill="#263238"/>
      <rect id="Rectángulo_30161" data-name="Rectángulo 30161" width="4.525" height="1.021" transform="translate(25.124 89.351)" fill="#263238"/>
      <rect id="Rectángulo_30162" data-name="Rectángulo 30162" width="4.525" height="1.021" transform="translate(40.879 89.351)" fill="#263238"/>
      <rect id="Rectángulo_30163" data-name="Rectángulo 30163" width="4.525" height="1.021" transform="translate(56.634 89.351)" fill="#263238"/>
      <rect id="Rectángulo_30164" data-name="Rectángulo 30164" width="4.525" height="1.021" transform="translate(72.389 89.351)" fill="#263238"/>
      <rect id="Rectángulo_30165" data-name="Rectángulo 30165" width="4.525" height="1.021" transform="translate(88.144 89.351)" fill="#263238"/>
      <rect id="Rectángulo_30166" data-name="Rectángulo 30166" width="4.525" height="1.021" transform="translate(103.899 89.351)" fill="#263238"/>
      <rect id="Rectángulo_30167" data-name="Rectángulo 30167" width="3.537" height="1.021" transform="translate(17.118 69.546)" fill="#263238"/>
      <rect id="Rectángulo_30168" data-name="Rectángulo 30168" width="3.537" height="1.021" transform="translate(17.118 42.924)" fill="#263238"/>
      <rect id="Rectángulo_30169" data-name="Rectángulo 30169" width="3.537" height="1.021" transform="translate(17.118 28.451)" fill="#263238"/>
      <rect id="Rectángulo_30170" data-name="Rectángulo 30170" width="3.537" height="1.021" transform="translate(17.301 56.235)" fill="#263238"/>
      <path id="Trazado_124165" data-name="Trazado 124165" d="M332.174,171.237H330.68l-4.282.023-15.745.042-51.959.033H246.26v-.122c0-17.376.033-32.667.042-43.62,0-5.472.028-9.838.037-12.883v0c0,3.026,0,7.411.038,12.883,0,10.953.023,26.235.042,43.62l-.122-.122h12.4l51.959.037,15.746.037,4.282.023h1.115Z" transform="translate(-223.876 -89.628)" fill="#263238"/>
      <path id="Trazado_124166" data-name="Trazado 124166" d="M337.169,183.012c0,.066-18.664.122-41.694.122s-41.694-.056-41.694-.122,18.659-.122,41.694-.122S337.169,182.942,337.169,183.012Z" transform="translate(-227.873 -126.26)" fill="#263238"/>
      <path id="Trazado_124167" data-name="Trazado 124167" d="M337.169,155.652c0,.066-18.664.122-41.694.122s-41.694-.056-41.694-.122,18.659-.122,41.694-.122S337.169,155.586,337.169,155.652Z" transform="translate(-227.873 -112.208)" fill="#263238"/>
      <path id="Trazado_124168" data-name="Trazado 124168" d="M337.169,128.152c0,.07-18.664.122-41.694.122s-41.694-.052-41.694-.122,18.659-.122,41.694-.122S337.169,128.086,337.169,128.152Z" transform="translate(-227.873 -99.191)" fill="#263238"/>
      <path id="Trazado_124169" data-name="Trazado 124169" d="M337.169,210.372c0,.066-18.664.122-41.694.122s-41.694-.056-41.694-.122,18.659-.122,41.694-.122S337.169,210.306,337.169,210.372Z" transform="translate(-227.873 -140.311)" fill="#263238"/>
      <path id="Trazado_124170" data-name="Trazado 124170" d="M255.66,169.578v-11.37l7.088-11.014,4.811,3.692,9.871-15.333,5.823,4.1,8.1-14.148,6.559,5.364,9.908-18.758,10.634,20.974,8.573-10.494,10.124-2.9v49.888Z" transform="translate(-228.873 -90.729)" fill="#c1507f"/>
      <path id="Trazado_124171" data-name="Trazado 124171" d="M338.189,119.6a1.308,1.308,0,0,1-.178,0H335.43l-7.772.033.052-.028-8.33,10.925-.033.037H298.453l.1-.056-8.765,14.588c-2.984,4.966-5.875,9.768-8.606,14.3l-.089.155-.1-.145-11.3-15.521h.164l-10.269,16.059-2.862,4.441c-.328.506-.581.895-.759,1.162s-.267.394-.267.394.08-.141.244-.408l.731-1.176c.651-1.035,1.6-2.549,2.811-4.474l10.213-16.1.08-.122.089.117,11.323,15.5h-.2l8.578-14.3,8.775-14.588.033-.056h.094l20.847.023-.075.037,8.381-10.841v-.028h.033l7.772.033h2.581Z" transform="translate(-228.894 -94.673)" fill="#263238"/>
      <path id="Trazado_124172" data-name="Trazado 124172" d="M291.183,178.318a.8.8,0,1,1-.8-.768A.787.787,0,0,1,291.183,178.318Z" transform="translate(-246.902 -123.503)" fill="#263238"/>
      <path id="Trazado_124173" data-name="Trazado 124173" d="M342.543,149.128a.8.8,0,1,1-.8-.768A.782.782,0,0,1,342.543,149.128Z" transform="translate(-274.202 -108.515)" fill="#263238"/>
      <ellipse id="Elipse_4223" data-name="Elipse 4223" cx="0.801" cy="0.768" rx="0.801" ry="0.768" transform="translate(85.436 35.014)" fill="#263238"/>
      <path id="Trazado_124174" data-name="Trazado 124174" d="M207.324,74a.937.937,0,1,1-.937-.937A.937.937,0,0,1,207.324,74Z" transform="translate(-202.185 -69.973)" fill="#263238"/>
      <path id="Trazado_124175" data-name="Trazado 124175" d="M213.084,74a.937.937,0,1,1-.937-.937A.937.937,0,0,1,213.084,74Z" transform="translate(-205.246 -69.973)" fill="#263238"/>
      <path id="Trazado_124176" data-name="Trazado 124176" d="M218.874,74a.937.937,0,1,1-.937-.937A.937.937,0,0,1,218.874,74Z" transform="translate(-208.324 -69.973)" fill="#263238"/>
      <path id="Trazado_124177" data-name="Trazado 124177" d="M319.436,82.732c0,.066-26.966.122-60.223.122S199,82.793,199,82.732s26.961-.122,60.227-.122S319.436,82.662,319.436,82.732Z" transform="translate(-198.756 -75.049)" fill="#263238"/>
    </g>
    <g id="freepik--Character--inject-178" transform="translate(127.874 135.328)">
      <path id="Trazado_124178" data-name="Trazado 124178" d="M242.662,462.37l-.806,3.392s-5.551,7.21-7.261,6.854c-1.124-.229.258-2.108,2.342-7.585l.469-2.258Z" transform="translate(-233.315 -315.647)" fill="#455a64"/>
      <path id="Trazado_124179" data-name="Trazado 124179" d="M234.568,474.505a.684.684,0,0,0,.3.286,1.031,1.031,0,0,0,1.063-.15,31.794,31.794,0,0,0,2.759-2.614c1.026-1.078,1.874-2.118,2.5-2.881l.707-.914c.07-.089.136-.169.192-.248a.572.572,0,0,1,.075-.084.572.572,0,0,1-.075.084l-.178.262c-.155.225-.389.543-.684.937a35.355,35.355,0,0,1-2.483,2.9,27.338,27.338,0,0,1-2.811,2.609,1.288,1.288,0,0,1-.628.23.937.937,0,0,1-.492-.108.591.591,0,0,1-.234-.215.316.316,0,0,1,0-.1Z" transform="translate(-233.514 -318.586)" fill="#263238"/>
      <path id="Trazado_124180" data-name="Trazado 124180" d="M236.24,476.929a.881.881,0,0,1,.469-.052,2.379,2.379,0,0,1,1.045.361,1.907,1.907,0,0,1,.759.806.975.975,0,0,1,.122.445,2.53,2.53,0,0,0-.183-.412,2.033,2.033,0,0,0-.75-.75,2.586,2.586,0,0,0-1-.379A4.4,4.4,0,0,0,236.24,476.929Z" transform="translate(-234.404 -323.351)" fill="#263238"/>
      <path id="Trazado_124181" data-name="Trazado 124181" d="M247.227,469.548a.506.506,0,0,1-.07-.164,3.7,3.7,0,0,1-.108-.469,2.553,2.553,0,0,1,.258-1.546,2.4,2.4,0,0,1,1.124-1.087,1.624,1.624,0,0,1,.468-.14.533.533,0,0,1,.173,0,3.741,3.741,0,0,0-.6.215,2.459,2.459,0,0,0-1.063,1.073,2.656,2.656,0,0,0-.276,1.49C247.166,469.3,247.241,469.543,247.227,469.548Z" transform="translate(-240.134 -317.648)" fill="#263238"/>
      <path id="Trazado_124182" data-name="Trazado 124182" d="M250.957,463.6s-.1.468-.206,1.082a3.717,3.717,0,0,1-.29,1.068s.089-.469.192-1.087a3.515,3.515,0,0,1,.3-1.063Z" transform="translate(-241.962 -316.3)" fill="#263238"/>
      <path id="Trazado_124183" data-name="Trazado 124183" d="M239.89,469.015a1.331,1.331,0,0,1,.712,0,1.246,1.246,0,0,1,.642.3c0,.028-.29-.122-.665-.206S239.895,469.048,239.89,469.015Z" transform="translate(-236.344 -319.153)" fill="#263238"/>
      <path id="Trazado_124184" data-name="Trazado 124184" d="M239.65,470.251a.9.9,0,0,1,.6,0,.848.848,0,0,1,.525.29c0,.023-.239-.122-.548-.192S239.655,470.284,239.65,470.251Z" transform="translate(-236.216 -319.808)" fill="#263238"/>
      <path id="Trazado_124185" data-name="Trazado 124185" d="M238.7,471.742a.764.764,0,0,1,.623-.08.745.745,0,0,1,.525.342,2.411,2.411,0,0,0-.548-.244,2.441,2.441,0,0,0-.6-.019Z" transform="translate(-235.711 -320.568)" fill="#263238"/>
      <path id="Trazado_124186" data-name="Trazado 124186" d="M240.71,466.965a6.538,6.538,0,0,0,.651-.22,5.33,5.33,0,0,0,.67-.323c.117-.07.244-.15.365-.234a.453.453,0,0,0,.234-.337c0-.131-.169-.206-.3-.173a.806.806,0,0,0-.342.229c-.206.192-.379.375-.52.534a4.674,4.674,0,0,1-.469.52.68.68,0,0,1,.094-.159c.066-.1.169-.239.3-.408a7.236,7.236,0,0,1,.511-.553.872.872,0,0,1,.384-.258.323.323,0,0,1,.417.262.557.557,0,0,1-.272.422,3.853,3.853,0,0,1-.384.234,4.225,4.225,0,0,1-.689.309,3.749,3.749,0,0,1-.492.136C240.776,466.97,240.71,466.975,240.71,466.965Z" transform="translate(-236.779 -317.346)" fill="#263238"/>
      <path id="Trazado_124187" data-name="Trazado 124187" d="M240.184,466.341a6.091,6.091,0,0,1-.1-.618,2.676,2.676,0,0,0-.187-.642,1.4,1.4,0,0,0-.206-.328c-.084-.094-.216-.178-.319-.117s-.117.215-.1.342a1.6,1.6,0,0,0,.108.37,2.25,2.25,0,0,0,.361.558,4.7,4.7,0,0,0,.469.436c0,.014-.056,0-.145-.084a2.563,2.563,0,0,1-.356-.3,2.141,2.141,0,0,1-.394-.572,1.719,1.719,0,0,1-.122-.4.422.422,0,0,1,.155-.436.365.365,0,0,1,.436.136,1.439,1.439,0,0,1,.22.356,2.482,2.482,0,0,1,.173.67c.023.192.033.351.038.469A.6.6,0,0,1,240.184,466.341Z" transform="translate(-235.963 -316.793)" fill="#263238"/>
      <path id="Trazado_124188" data-name="Trazado 124188" d="M299.3,460.479l.023-4.525-8.456-.1-.117,6.629.525.042c2.342.159,11.895.637,13.464.183C306.491,462.189,299.3,460.479,299.3,460.479Z" transform="translate(-263.377 -312.181)" fill="#455a64"/>
      <path id="Trazado_124189" data-name="Trazado 124189" d="M290.5,469.57h.145l.422.033,1.537.084c1.3.066,3.1.126,5.088.155s3.785,0,5.088,0l1.541-.042H297.7c-1.986,0-3.781-.08-5.083-.122l-1.541-.056h-.417Z" transform="translate(-263.244 -319.473)" fill="#263238"/>
      <path id="Trazado_124190" data-name="Trazado 124190" d="M314.863,468.882a3.747,3.747,0,0,1,.3-.731,3.6,3.6,0,0,1,.534-.581,1.115,1.115,0,0,0-.618.525A1.134,1.134,0,0,0,314.863,468.882Z" transform="translate(-276.19 -318.41)" fill="#263238"/>
      <path id="Trazado_124191" data-name="Trazado 124191" d="M309.564,466.8a1.094,1.094,0,0,0,.267-.323c.122-.192.211-.361.187-.38s-.145.131-.272.323S309.536,466.782,309.564,466.8Z" transform="translate(-273.374 -317.627)" fill="#263238"/>
      <path id="Trazado_124192" data-name="Trazado 124192" d="M308.108,466.264c0,.023.155-.066.3-.192s.253-.253.234-.276-.155.07-.3.2S308.089,466.246,308.108,466.264Z" transform="translate(-272.602 -317.466)" fill="#263238"/>
      <path id="Trazado_124193" data-name="Trazado 124193" d="M307.21,465.027a1.01,1.01,0,0,0,.44.066,1.034,1.034,0,0,0,.468-.042,1,1,0,0,0-.468-.061A1.03,1.03,0,0,0,307.21,465.027Z" transform="translate(-272.126 -317.034)" fill="#263238"/>
      <path id="Trazado_124194" data-name="Trazado 124194" d="M306.9,463.88a.938.938,0,0,0,.492.15.848.848,0,0,0,.511-.066,2.9,2.9,0,0,0-.487-.028A2.644,2.644,0,0,0,306.9,463.88Z" transform="translate(-271.961 -316.449)" fill="#263238"/>
      <path id="Trazado_124195" data-name="Trazado 124195" d="M310.2,465.155a1.657,1.657,0,0,0,.543,0,2.81,2.81,0,0,0,.581-.117,1.509,1.509,0,0,0,.333-.136.291.291,0,0,0,.141-.164.216.216,0,0,0-.08-.22,1,1,0,0,0-1.241.276.96.96,0,0,0-.183.361.291.291,0,0,0,0,.145,1.523,1.523,0,0,1,.253-.469.984.984,0,0,1,.468-.3.829.829,0,0,1,.651.052c.084.066.052.164-.047.22a1.408,1.408,0,0,1-.309.127,3.637,3.637,0,0,1-.562.14A2.682,2.682,0,0,1,310.2,465.155Z" transform="translate(-273.715 -316.731)" fill="#263238"/>
      <path id="Trazado_124196" data-name="Trazado 124196" d="M309.684,464.883a.529.529,0,0,0,.066-.379.871.871,0,0,0-.141-.4.553.553,0,0,0-.469-.286.225.225,0,0,0-.173.253.627.627,0,0,0,.089.244,1.664,1.664,0,0,0,.253.333.814.814,0,0,0,.309.225,2.822,2.822,0,0,1-.253-.276,1.733,1.733,0,0,1-.225-.328c-.075-.117-.122-.323,0-.347s.276.126.356.234a.91.91,0,0,1,.15.356A2.305,2.305,0,0,1,309.684,464.883Z" transform="translate(-273.058 -316.417)" fill="#263238"/>
      <path id="Trazado_124197" data-name="Trazado 124197" d="M290.94,464.549s.239,0,.623.028a2.656,2.656,0,0,1,2.2,1.8c.126.365.136.609.155.609a.548.548,0,0,0,0-.173,2.011,2.011,0,0,0-.084-.469,2.572,2.572,0,0,0-2.258-1.846,2.482,2.482,0,0,0-.469,0A.47.47,0,0,0,290.94,464.549Z" transform="translate(-263.478 -316.771)" fill="#263238"/>
      <path id="Trazado_124198" data-name="Trazado 124198" d="M292.769,457.12a14.149,14.149,0,0,0-.1,1.738,14.822,14.822,0,0,0,0,1.743,14.91,14.91,0,0,0,.094-1.743A15.43,15.43,0,0,0,292.769,457.12Z" transform="translate(-264.384 -312.856)" fill="#263238"/>
      <path id="Trazado_124199" data-name="Trazado 124199" d="M299.61,468.181a5.045,5.045,0,0,0,1.237.136,4.584,4.584,0,0,0,1.241-.084c0-.028-.557,0-1.237,0S299.615,468.149,299.61,468.181Z" transform="translate(-268.086 -318.731)" fill="#263238"/>
      <path id="Trazado_124200" data-name="Trazado 124200" d="M296.065,468.135c-.023,0,.042.117.1.244s.084.239.112.239.047-.131,0-.281S296.083,468.112,296.065,468.135Z" transform="translate(-266.199 -318.709)" fill="#263238"/>
      <path id="Trazado_124201" data-name="Trazado 124201" d="M294.75,466.454a.528.528,0,0,0,.122.2c.089.089.173.145.192.127s-.033-.108-.117-.2S294.773,466.431,294.75,466.454Z" transform="translate(-265.503 -317.815)" fill="#263238"/>
      <path id="Trazado_124202" data-name="Trazado 124202" d="M292.849,465.616c0,.028.117.028.244.075s.211.112.234.094-.047-.136-.2-.192S292.84,465.593,292.849,465.616Z" transform="translate(-264.493 -317.347)" fill="#263238"/>
      <path id="Trazado_124203" data-name="Trazado 124203" d="M291.49,465.276c0,.023.038.07.108.1s.136.028.145,0-.037-.07-.1-.1S291.5,465.248,291.49,465.276Z" transform="translate(-263.77 -317.18)" fill="#263238"/>
      <path id="Trazado_124204" data-name="Trazado 124204" d="M273.972,280.76l-3.251,84.94-13.2.276,2.192-73.593L244.87,366.538H232.32l16.167-85.6Z" transform="translate(-232.32 -219.117)" fill="#263238"/>
      <path id="Trazado_124205" data-name="Trazado 124205" d="M293.581,287.36a8.336,8.336,0,0,1-.15,1.405c-.122.857-.309,2.047-.529,3.35a14.433,14.433,0,0,1-.375,1.846,2.633,2.633,0,0,1-.862,1.3,2.023,2.023,0,0,1-.96.426.772.772,0,0,1-.384,0,2.516,2.516,0,0,0,1.237-.548,2.558,2.558,0,0,0,.764-1.237,16.53,16.53,0,0,0,.351-1.818c.22-1.307.431-2.488.595-3.34a8.892,8.892,0,0,1,.314-1.382Z" transform="translate(-263.148 -222.625)" fill="#455a64"/>
      <path id="Trazado_124206" data-name="Trazado 124206" d="M291.23,287.968a.767.767,0,0,0,0,.379.468.468,0,0,0,.22.286.4.4,0,0,0,.52-.469.436.436,0,0,0-.253-.253c-.216-.094-.365,0-.38-.033s.122-.192.431-.126a.6.6,0,0,1,.4.337.6.6,0,0,1-.825.726.59.59,0,0,1-.281-.445C291.033,288.061,291.22,287.94,291.23,287.968Z" transform="translate(-263.543 -222.825)" fill="#455a64"/>
      <path id="Trazado_124207" data-name="Trazado 124207" d="M276.083,288.162a2.487,2.487,0,0,1,.253-2.342c.061.028-.131.529-.192,1.171A10.438,10.438,0,0,1,276.083,288.162Z" transform="translate(-255.484 -221.806)" fill="#455a64"/>
      <path id="Trazado_124208" data-name="Trazado 124208" d="M279.432,287.81a2.048,2.048,0,0,1-.192-1.246,2.1,2.1,0,0,1,.365-1.213c.061,0-.089.557-.131,1.227A11.726,11.726,0,0,1,279.432,287.81Z" transform="translate(-257.245 -221.556)" fill="#455a64"/>
      <path id="Trazado_124209" data-name="Trazado 124209" d="M308.8,288.443a7.228,7.228,0,0,1,.075-1.274,7.867,7.867,0,0,1,.056-1.279,2.384,2.384,0,0,1,.173,1.288A2.421,2.421,0,0,1,308.8,288.443Z" transform="translate(-272.967 -221.843)" fill="#455a64"/>
      <path id="Trazado_124210" data-name="Trazado 124210" d="M312.466,288.185c-.066-.028.141-.586.187-1.3s-.075-1.288,0-1.307a2.755,2.755,0,0,1-.178,2.6Z" transform="translate(-274.912 -221.678)" fill="#455a64"/>
      <path id="Trazado_124211" data-name="Trazado 124211" d="M280.485,181.118l8.151-.651c.052-.937,0-4.629,0-4.629a4.072,4.072,0,0,0,3.434-3.916c.042-3.387-.548-11.173-.548-11.173h0a11.782,11.782,0,0,0-11.871,1.476l-.5.389Z" transform="translate(-257.211 -154.812)" fill="#ffbe9d"/>
      <path id="Trazado_124212" data-name="Trazado 124212" d="M294.328,192.576a7.842,7.842,0,0,1-4.418-1.256,4.177,4.177,0,0,0,4.427,2.136Z" transform="translate(-262.93 -171.577)" fill="#eb996e"/>
      <path id="Trazado_124213" data-name="Trazado 124213" d="M301.57,172.694a.469.469,0,1,1-.16-.322A.468.468,0,0,1,301.57,172.694Z" transform="translate(-268.612 -161.445)" fill="#263238"/>
      <path id="Trazado_124214" data-name="Trazado 124214" d="M301.948,171.421c-.061.061-.426-.211-.937-.211s-.9.262-.96.2.033-.145.2-.267a1.359,1.359,0,0,1,.768-.234,1.275,1.275,0,0,1,.754.244C301.925,171.289,301.976,171.421,301.948,171.421Z" transform="translate(-268.312 -160.729)" fill="#263238"/>
      <path id="Trazado_124215" data-name="Trazado 124215" d="M290.34,172.954a.468.468,0,1,1-.16-.322.469.469,0,0,1,.16.322Z" transform="translate(-262.643 -161.583)" fill="#263238"/>
      <path id="Trazado_124216" data-name="Trazado 124216" d="M291.018,171.656c-.061.066-.426-.206-.937-.206s-.9.262-.96.2.033-.141.2-.262a1.288,1.288,0,0,1,.768-.234,1.275,1.275,0,0,1,.754.244C290.995,171.515,291.051,171.628,291.018,171.656Z" transform="translate(-262.502 -160.856)" fill="#263238"/>
      <path id="Trazado_124217" data-name="Trazado 124217" d="M296.959,175.558a3.584,3.584,0,0,1,.843-.155c.136,0,.262-.037.281-.131a.66.66,0,0,0-.089-.394l-.393-1.012a17.376,17.376,0,0,1-.881-2.647,17.668,17.668,0,0,1,1.1,2.572c.131.351.253.693.375,1.017a.773.773,0,0,1,.066.525.337.337,0,0,1-.22.2.839.839,0,0,1-.225.033A3.439,3.439,0,0,1,296.959,175.558Z" transform="translate(-266.55 -160.894)" fill="#263238"/>
      <path id="Trazado_124218" data-name="Trazado 124218" d="M293.875,181.25c.084,0,.084.558.567.96s1.087.342,1.092.417-.136.112-.389.117a1.406,1.406,0,0,1-.909-.314,1.26,1.26,0,0,1-.468-.811C293.754,181.386,293.815,181.245,293.875,181.25Z" transform="translate(-264.98 -166.225)" fill="#263238"/>
      <path id="Trazado_124219" data-name="Trazado 124219" d="M290.783,167.435c-.052.141-.572.07-1.181.145s-1.106.244-1.19.112c-.033-.061.052-.192.248-.328a2.075,2.075,0,0,1,1.808-.2C290.694,167.252,290.806,167.364,290.783,167.435Z" transform="translate(-262.131 -158.673)" fill="#263238"/>
      <path id="Trazado_124220" data-name="Trazado 124220" d="M301.674,168.208c-.089.117-.468,0-.881,0s-.8.08-.881-.047,0-.178.183-.29a1.2,1.2,0,0,1,.717-.192,1.251,1.251,0,0,1,.7.234C301.665,168.025,301.716,168.147,301.674,168.208Z" transform="translate(-268.23 -159.01)" fill="#263238"/>
      <path id="Trazado_124221" data-name="Trazado 124221" d="M277.44,173.22c-.056-.023-2.342-.689-2.253,1.63a1.747,1.747,0,0,0,2.389,1.7C277.581,176.485,277.44,173.22,277.44,173.22Z" transform="translate(-255.104 -161.9)" fill="#ffbe9d"/>
      <path id="Trazado_124222" data-name="Trazado 124222" d="M277.567,176.533a.739.739,0,0,1-.1.061.4.4,0,0,1-.3,0,1,1,0,0,1-.468-.881,1.322,1.322,0,0,1,.094-.586.469.469,0,0,1,.29-.319.211.211,0,0,1,.244.1c.033.066,0,.112.033.117s.047-.042.028-.136a.277.277,0,0,0-.1-.145.323.323,0,0,0-.225-.052.563.563,0,0,0-.408.375,1.34,1.34,0,0,0-.122.651,1.04,1.04,0,0,0,.623.979.431.431,0,0,0,.365-.07C277.567,176.589,277.576,176.538,277.567,176.533Z" transform="translate(-255.815 -162.74)" fill="#eb996e"/>
      <path id="Trazado_124223" data-name="Trazado 124223" d="M289.819,152.186a3.584,3.584,0,0,0-5.566-1.073,3.509,3.509,0,0,0-5.767-.75c-.651.74-.988,1.738-1.747,2.342-.661.539-1.551.717-2.216,1.246a2.558,2.558,0,0,0,.914,4.46,2.75,2.75,0,0,0,1.354,3.748l.337-.141a4.825,4.825,0,0,0,.7-5.322,1.068,1.068,0,0,0,.122,0,2.7,2.7,0,0,0,3.523-.806,3,3,0,0,0,3.233.136,1.237,1.237,0,0,1,.468-.22,1.153,1.153,0,0,1,.6.183,2.849,2.849,0,0,0,1.644.328,1.574,1.574,0,0,0,1.227-.881h.042a1.818,1.818,0,0,0,1.354-1.312A2.694,2.694,0,0,0,289.819,152.186Z" transform="translate(-254.243 -149.177)" fill="#263238"/>
      <path id="Trazado_124224" data-name="Trazado 124224" d="M281.3,217.1l.3-15.272c-2.712-2.666-4.16-3.462-7.936-3.907l-1.026-.117-.323-2.516-9.257-.525.469,2.989h0a22.439,22.439,0,0,0-3.593.689,8.988,8.988,0,0,0-6.905,5.729c-.595,1.991-4.394,16.753-4.394,16.753l-.773,4.455,8.5-3.083v15h25.766C282.213,234.477,281.3,217.1,281.3,217.1Z" transform="translate(-240.58 -173.406)" fill="#f5ca56"/>
      <g id="Grupo_55336" data-name="Grupo 55336" transform="translate(7.28 21.354)" opacity="0.2">
        <path id="Trazado_124225" data-name="Trazado 124225" d="M281.3,217.1l.3-15.272c-2.712-2.666-4.16-3.462-7.936-3.907l-1.026-.117-.323-2.516-9.257-.525.469,2.989h0a22.439,22.439,0,0,0-3.593.689,8.988,8.988,0,0,0-6.905,5.729c-.595,1.991-4.394,16.753-4.394,16.753l-.773,4.455,8.5-3.083v15h25.766C282.213,234.477,281.3,217.1,281.3,217.1Z" transform="translate(-247.86 -194.76)"/>
      </g>
      <path id="Trazado_124226" data-name="Trazado 124226" d="M251.708,249l12.71-1.8,2.417,4.329-11.815,5.327a5.154,5.154,0,0,1-2.1.468h0a5.1,5.1,0,0,1-4.718-3.19l-.384-.937Z" transform="translate(-240.559 -201.279)" fill="#f5ca56"/>
      <g id="Grupo_55337" data-name="Grupo 55337" transform="translate(7.261 45.921)" opacity="0.2">
        <path id="Trazado_124227" data-name="Trazado 124227" d="M251.708,249l12.71-1.8,2.417,4.329-11.815,5.327a5.154,5.154,0,0,1-2.1.468h0a5.1,5.1,0,0,1-4.718-3.19l-.384-.937Z" transform="translate(-247.82 -247.2)"/>
      </g>
      <path id="Trazado_124228" data-name="Trazado 124228" d="M309.344,203.49a9.37,9.37,0,0,1,5.1,4.685c.984,2.258,2.431,13.117,2.431,13.117l1.822,3.518a5.907,5.907,0,0,1,.665,2.731v.539a5.927,5.927,0,0,1-1.331,3.748h0a5.926,5.926,0,0,1-4.076,2.164c-1.822.164-4.024.234-4.493-.3a22.3,22.3,0,0,1-2.075-3.5l5.308-2.811-2.286-4.216Z" transform="translate(-272.221 -178.046)" fill="#f5ca56"/>
      <g id="Grupo_55338" data-name="Grupo 55338" transform="translate(35.169 25.444)" opacity="0.2">
        <path id="Trazado_124229" data-name="Trazado 124229" d="M309.344,203.49a9.37,9.37,0,0,1,5.1,4.685c.984,2.258,2.431,13.117,2.431,13.117l1.822,3.518a5.907,5.907,0,0,1,.665,2.731v.539a5.927,5.927,0,0,1-1.331,3.748h0a5.926,5.926,0,0,1-4.076,2.164c-1.822.164-4.024.234-4.493-.3a22.3,22.3,0,0,1-2.075-3.5l5.308-2.811-2.286-4.216Z" transform="translate(-307.39 -203.49)"/>
      </g>
      <path id="Trazado_124230" data-name="Trazado 124230" d="M259.892,256.37a1.7,1.7,0,0,1,.206-.117l.609-.3,2.282-1.068,7.786-3.556-.052.164-1.49-2.67-.937-1.658.112.056-9.313.914-2.764.248-.75.056a.857.857,0,0,1-.262,0,1.492,1.492,0,0,1,.258-.047l.745-.094,2.759-.319L268.4,247h.075l.037.066.937,1.658,1.485,2.67.061.108-.112.052-7.819,3.481-2.31,1-.628.262A1.291,1.291,0,0,1,259.892,256.37Z" transform="translate(-244.545 -201.172)" fill="#263238"/>
      <path id="Trazado_124231" data-name="Trazado 124231" d="M269.767,236.857c-.066,0-.117-2.272-.117-5.074s.051-5.074.117-5.074.117,2.272.117,5.074S269.814,236.857,269.767,236.857Z" transform="translate(-252.162 -190.388)" fill="#263238"/>
      <path id="Trazado_124232" data-name="Trazado 124232" d="M313.087,255.533a1.916,1.916,0,0,1,.384-.061,3.6,3.6,0,0,1,1.073.061,1.265,1.265,0,0,1,.67.384,1.7,1.7,0,0,1,.351.806,1.873,1.873,0,0,1-.084.97,1.808,1.808,0,0,1-.642.825,4.778,4.778,0,0,1-1.841.656,8.472,8.472,0,0,1-1.579.155,2.849,2.849,0,0,1-1.429-.248,7.641,7.641,0,0,0,1.429.084,9.372,9.372,0,0,0,1.537-.2,4.751,4.751,0,0,0,1.747-.632,1.607,1.607,0,0,0,.651-1.569,1.584,1.584,0,0,0-.286-.721,1.148,1.148,0,0,0-.567-.347,4.384,4.384,0,0,0-1.031-.131A1.674,1.674,0,0,1,313.087,255.533Z" transform="translate(-273.603 -205.667)" fill="#263238"/>
      <path id="Trazado_124233" data-name="Trazado 124233" d="M315.168,265.934a2.645,2.645,0,0,1-.937.108,5.761,5.761,0,0,1-2.2-.361,4.733,4.733,0,0,1-1.092-.586,2.558,2.558,0,0,1-.675-.759,2.009,2.009,0,0,1-.328-.867c.037,0,.159.319.469.778a2.742,2.742,0,0,0,.665.679,4.993,4.993,0,0,0,1.049.534,6.69,6.69,0,0,0,2.113.417,6.558,6.558,0,0,1,.932.056Z" transform="translate(-273.577 -209.927)" fill="#263238"/>
      <path id="Trazado_124234" data-name="Trazado 124234" d="M321.215,245.23a4.79,4.79,0,0,1-.628.754c-.408.445-.984,1.054-1.63,1.715s-1.237,1.256-1.677,1.672a4.17,4.17,0,0,1-.74.646,4.062,4.062,0,0,1,.623-.759c.408-.468.984-1.059,1.626-1.719A21.843,21.843,0,0,1,321.215,245.23Z" transform="translate(-277.085 -200.232)" fill="#263238"/>
      <path id="Trazado_124235" data-name="Trazado 124235" d="M314.01,233.584a36.015,36.015,0,0,1,0-5.8,36.015,36.015,0,0,1,0,5.8Z" transform="translate(-275.67 -190.956)" fill="#263238"/>
      <path id="Trazado_124236" data-name="Trazado 124236" d="M289.211,207.552c0,.066-5.72.122-12.775.122s-12.775-.056-12.775-.122,5.72-.122,12.775-.122S289.211,207.482,289.211,207.552Z" transform="translate(-248.978 -180.14)" fill="#fafafa"/>
      <path id="Trazado_124237" data-name="Trazado 124237" d="M290.212,201.251a40.2,40.2,0,0,1-4.408.1,38.66,38.66,0,0,1-4.4-.15,81.3,81.3,0,0,1,8.812.052Z" transform="translate(-258.407 -176.767)" fill="#263238"/>
      <path id="Trazado_124238" data-name="Trazado 124238" d="M288.927,218.567c0,.066-6.943.122-15.511.122s-15.516-.056-15.516-.122,6.948-.126,15.516-.126S288.927,218.5,288.927,218.567Z" transform="translate(-245.916 -185.992)" fill="#fafafa"/>
      <path id="Trazado_124239" data-name="Trazado 124239" d="M288.134,229.862c0,.07-7.5.122-16.767.122s-16.767-.052-16.767-.122,7.5-.122,16.767-.122S288.134,229.81,288.134,229.862Z" transform="translate(-244.162 -191.998)" fill="#fafafa"/>
      <path id="Trazado_124240" data-name="Trazado 124240" d="M287.309,240.912c0,.066-7.922.122-17.694.122s-17.694-.056-17.694-.122,7.922-.122,17.694-.122S287.309,240.842,287.309,240.912Z" transform="translate(-242.738 -197.872)" fill="#fafafa"/>
      <path id="Trazado_124241" data-name="Trazado 124241" d="M287.922,258.862c0,.066-8.8.122-19.676.122s-19.676-.056-19.676-.122,8.8-.122,19.676-.122S287.922,258.787,287.922,258.862Z" transform="translate(-240.957 -207.412)" fill="#fafafa"/>
      <path id="Trazado_124242" data-name="Trazado 124242" d="M291.084,271.432c0,.066-5.809.122-12.972.122s-12.972-.056-12.972-.122,5.8-.122,12.972-.122S291.084,271.362,291.084,271.432Z" transform="translate(-249.765 -214.094)" fill="#fafafa"/>
      <path id="Trazado_124243" data-name="Trazado 124243" d="M294.821,241.084l-.276-.206a6.343,6.343,0,0,0-5-1.157h0a8.709,8.709,0,0,0-3.893,1.827l-2.178,1.794,2.314,4.151,1.579-2.207s1.471,2,1.733,1.785a3.38,3.38,0,0,0,.576-.839l-1.049-1.471,2.52.525,3.678-1.682-1.579-2,1.579.525Z" transform="translate(-259.507 -197.243)" fill="#ffbe9d"/>
      <path id="Trazado_124244" data-name="Trazado 124244" d="M290.231,239.824l-8.091,9.8.623.67,13.127-2,6.512-9.8-.6-.543Z" transform="translate(-258.801 -196.362)" fill="#263238"/>
      <path id="Trazado_124245" data-name="Trazado 124245" d="M303.5,247.47h0a1.246,1.246,0,0,0-1.167.8,2.731,2.731,0,0,1-.8,1.27,2.83,2.83,0,0,1-2.122.314c-.529-.258-2.652-2.169-3.022-1.958s-.689.689-.318,1.115,2.342,1.7,1.963,2.122-4.511-1.443-5.153-1.279-1.007.553-.637.81,3.181,1.316,3.34,1.687c0,0-4.244-1.115-4.4-.848s-.422.689,0,.848,4.085,1.115,4.4,1.274a7.716,7.716,0,0,0,1.635.468,17.559,17.559,0,0,1,1.71.539,3.71,3.71,0,0,0,2.637-.07l.431-.173a1.687,1.687,0,0,0,1.045-1.663l-.084-1.443.469-1.195Z" transform="translate(-263.485 -201.422)" fill="#ffbe9d"/>
      <path id="Trazado_124246" data-name="Trazado 124246" d="M303.18,239.3a1.022,1.022,0,0,1-.244.061l-.7.122-2.586.417-3.842.586-2.267.342a4.356,4.356,0,0,0-2.2.89,14.423,14.423,0,0,0-1.6,1.841c-.5.618-.979,1.218-1.438,1.79l-2.441,3.022L284.2,250.4l-.468.543a1.091,1.091,0,0,1-.173.178,1.54,1.54,0,0,1,.136-.206l.426-.572,1.6-2.071,2.4-3.059,1.405-1.8a14.577,14.577,0,0,1,1.63-1.874,4.576,4.576,0,0,1,2.31-.937l2.272-.328,3.851-.539,2.6-.342.707-.08A.834.834,0,0,1,303.18,239.3Z" transform="translate(-259.555 -197.075)" fill="#455a64"/>
      <path id="Trazado_124247" data-name="Trazado 124247" d="M311.836,243.88a1.18,1.18,0,0,0-.365.3.38.38,0,0,0,0,.44.412.412,0,0,0,.543,0,.516.516,0,0,0,.206-.314.375.375,0,0,0-.108-.351.291.291,0,0,0-.356,0" transform="translate(-274.353 -199.514)" fill="#fafafa"/>
    </g>
    <g id="freepik--speech-bubble--inject-178" transform="translate(104.52 131.177)">
      <path id="Trazado_124248" data-name="Trazado 124248" d="M204.211,172.631l-2.38-4.216a11.243,11.243,0,1,0-2.689,2.994h0Z" transform="translate(-181.014 -151.275)" fill="#f5ca56"/>
      <path id="Trazado_124249" data-name="Trazado 124249" d="M196.73,170.584a1.482,1.482,0,1,1,1.476,1.658A1.485,1.485,0,0,1,196.73,170.584Zm2.094,0c0-.642-.248-.937-.618-.937s-.618.319-.618.937.253.937.618.937S198.824,171.23,198.824,170.584ZM201.738,169h1.007l-4.048,6.011H197.69Zm-.974,4.422a1.48,1.48,0,1,1,1.466,1.658A1.487,1.487,0,0,1,200.764,173.418Zm2.085,0c0-.637-.248-.937-.618-.937s-.618.309-.618.937.253.937.618.937S202.848,174.055,202.848,173.418Z" transform="translate(-189.367 -160.659)" fill="#fff"/>
    </g>
  </g>
</svg>
