<svg xmlns="http://www.w3.org/2000/svg" width="450.26" height="462.308" viewBox="0 0 450.26 462.308">
  <g id="img_4-07" transform="translate(-13.405)">
    <g id="freepik--background-simple--inject-15" transform="translate(13.405 8.731)">
      <path id="Trazado_100781" data-name="Trazado 100781" d="M186.221,73.85c27.852,26.513,66.346,39.956,105.226,44.4C477.952,125,542.641,365.3,316.7,362.779,202.618,364.794,134.381,306.84,73.791,240.26-54.4,111.543,44.007,16.669,87.427,7.284,130.641-1.218,158.714,49.007,186.221,73.85Z" transform="translate(-10.294 -6.326)" fill="#7d6eb2"/>
      <path id="Trazado_100782" data-name="Trazado 100782" d="M186.221,73.85c27.852,26.513,66.346,39.956,105.226,44.4C477.952,125,542.641,365.3,316.7,362.779,202.618,364.794,134.381,306.84,73.791,240.26-54.4,111.543,44.007,16.669,87.427,7.284,130.641-1.218,158.714,49.007,186.221,73.85Z" transform="translate(-10.294 -6.326)" fill="#fff" opacity="0.9" style="isolation: isolate"/>
    </g>
    <g id="freepik--Device--inject-15" transform="translate(98.756)">
      <path id="Trazado_100783" data-name="Trazado 100783" d="M290.916,373.184H104.922A17.57,17.57,0,0,1,87.6,356.621L72.156,20.752A15.72,15.72,0,0,1,87.011,4.212c.316-.017.632-.025.948-.022H273.981a17.57,17.57,0,0,1,17.266,16.562l15.417,335.841a15.722,15.722,0,0,1-14.827,16.562Q291.377,373.185,290.916,373.184Z" transform="translate(-72.133 1.593)" fill="#263238"/>
      <rect id="Rect치ngulo_29434" data-name="Rect치ngulo 29434" width="28.059" height="1.38" transform="translate(63.387)" fill="#7d6eb2"/>
      <rect id="Rect치ngulo_29435" data-name="Rect치ngulo 29435" width="7.55" height="1.38" transform="translate(46.632)" fill="#7d6eb2"/>
      <path id="Trazado_100784" data-name="Trazado 100784" d="M292.322,372.48H106.314a17.57,17.57,0,0,1-17.321-16.562L73.576,20.062A15.72,15.72,0,0,1,88.431,3.522c.316-.017.632-.025.948-.022H275.387a17.57,17.57,0,0,1,17.321,16.562l15.417,335.855a15.72,15.72,0,0,1-14.855,16.54C292.954,372.474,292.638,372.483,292.322,372.48Z" transform="translate(-71.593 1.331)" fill="#415165"/>
      <path id="Trazado_100785" data-name="Trazado 100785" d="M104.094,363.678a10.213,10.213,0,0,1-10.1-9.661L78.574,18.161a9.137,9.137,0,0,1,8.6-9.646c.2-.012.406-.017.609-.015H273.8a10.213,10.213,0,0,1,10.1,9.661l15.417,335.855a9.152,9.152,0,0,1-8.625,9.647c-.193.011-.388.015-.581.014Z" transform="translate(-69.69 3.232)" fill="#fff"/>
      <path id="Trazado_100786" data-name="Trazado 100786" d="M163.791,88.889A33.428,33.428,0,0,1,130.763,57.31a29.965,29.965,0,0,1,28.261-31.576q.955-.052,1.91-.044a33.442,33.442,0,0,1,33.028,31.579,29.938,29.938,0,0,1-28.211,31.575C165.1,88.879,164.446,88.895,163.791,88.889Zm-2.857-62.205a28.984,28.984,0,0,0-29.22,28.745q-.008.921.043,1.84A32.421,32.421,0,0,0,163.791,87.9a28.984,28.984,0,0,0,29.22-28.745q.008-.921-.043-1.84a32.421,32.421,0,0,0-32.034-30.626Z" transform="translate(-49.861 9.767)" fill="#e0e0e0"/>
      <path id="Trazado_100787" data-name="Trazado 100787" d="M137.538,65.15h3.188a4.6,4.6,0,0,0-1.187,3.312,5.119,5.119,0,0,0,5.065,4.844,4.581,4.581,0,0,0,4.631-4.533v-.312a5.125,5.125,0,0,0-1.491-3.312h26.224a4.6,4.6,0,0,0-1.173,3.312,5.119,5.119,0,0,0,5.065,4.844,4.581,4.581,0,0,0,4.617-4.546q0-.149,0-.3A5.036,5.036,0,0,0,181,65.15h3.174l-.138-3.05H137.4Z" transform="translate(-47.32 23.61)" fill="#cbc5e0"/>
      <path id="Trazado_100788" data-name="Trazado 100788" d="M198.544,33.42H130.57l10.848,34.808H184.7l6.97-31.758h7.011Z" transform="translate(-49.916 12.706)" fill="#cbc5e0"/>
      <path id="Trazado_100789" data-name="Trazado 100789" d="M178.312,229.582H104.168a.469.469,0,0,1-.469-.455l-3.409-74.144a.527.527,0,0,1,.124-.345.489.489,0,0,1,.345-.138H174.9a.471.471,0,0,1,.469.442l3.409,74.144a.454.454,0,0,1-.138.345A.442.442,0,0,1,178.312,229.582Zm-73.7-.939h73.15l-3.354-73.15h-73.15Z" transform="translate(-61.429 58.739)" fill="#e0e0e0"/>
      <path id="Trazado_100790" data-name="Trazado 100790" d="M148.4,162.45h-31.91a.745.745,0,0,0-.76.73v.057l.1,2.1.718,15.651,1.532,33.235a1.38,1.38,0,0,0,1.38,1.38h10.752a1.284,1.284,0,0,0,1.3-1.27h0l.7-33.332h2.084l3.768,33.332a1.38,1.38,0,0,0,1.38,1.27h10.765a1.3,1.3,0,0,0,1.3-1.295c0-.029,0-.057,0-.086l-1.532-33.235-.718-15.651-.1-2.1A.828.828,0,0,0,148.4,162.45Z" transform="translate(-55.559 61.762)" fill="#e0e0e0"/>
      <path id="Trazado_100791" data-name="Trazado 100791" d="M242.032,229.582H167.888a.469.469,0,0,1-.469-.455l-3.409-74.144a.527.527,0,0,1,.124-.345.488.488,0,0,1,.345-.138h74.144a.471.471,0,0,1,.469.442l3.423,74.144a.454.454,0,0,1-.138.345.44.44,0,0,1-.345.152Zm-73.7-.939h73.15l-3.354-73.15h-73.15Z" transform="translate(-37.203 58.739)" fill="#e0e0e0"/>
      <path id="Trazado_100792" data-name="Trazado 100792" d="M215.054,215.99H182.068l-2.388-52.13h32.973Z" transform="translate(-31.245 62.298)" fill="#e0e0e0"/>
      <path id="Trazado_100793" data-name="Trazado 100793" d="M177.623,188.938l-7.343-14.52,12.974-10.558,7.191,11.207Z" transform="translate(-34.819 62.298)" fill="#e0e0e0"/>
      <path id="Trazado_100794" data-name="Trazado 100794" d="M213.2,188.938l6.018-14.52L205.266,163.86l-6.156,11.207Z" transform="translate(-23.858 62.298)" fill="#e0e0e0"/>
      <path id="Trazado_100795" data-name="Trazado 100795" d="M185.73,163.86A8.612,8.612,0,0,0,194.246,172a7.7,7.7,0,0,0,7.783-7.619c0-.175,0-.351-.012-.524Z" transform="translate(-28.945 62.298)" fill="#ebebeb"/>
      <path id="Trazado_100796" data-name="Trazado 100796" d="M239.175,166.129H165.031a.69.69,0,0,1-.69-.662l-3.45-74.075a.69.69,0,0,1,.179-.511.715.715,0,0,1,.511-.221h74.144a.69.69,0,0,1,.69.662l3.4,74.144a.69.69,0,0,1-.179.511A.724.724,0,0,1,239.175,166.129Zm-73.481-1.38h72.764l-3.34-72.777H162.353Z" transform="translate(-38.389 34.468)" fill="#7d6eb2"/>
      <path id="Trazado_100797" data-name="Trazado 100797" d="M219.962,113.645l-8.047-.593.179-.607A3.507,3.507,0,0,0,208.727,108h-8.364a3.2,3.2,0,0,0-2.9,4.582l1.035,2.346-.69.179-1.918.511-3.2.828-1.918.5-3.188.828-1.918.5-7.922,2.07h0c-3.285.939-6.045,2.912-5.88,6.376a6.9,6.9,0,0,0,6.763,6.487H217.45a5.176,5.176,0,0,0,5.245-5.107c0-.138,0-.276-.011-.414l-.538-11.787A2.429,2.429,0,0,0,219.962,113.645Z" transform="translate(-34.22 41.06)" fill="#c9c4e0"/>
      <path id="Trazado_100798" data-name="Trazado 100798" d="M196.157,115.552l-1.891.511-5-2.4,1.932-.511Z" transform="translate(-27.599 43.018)" fill="#fff" opacity="0.3" style="isolation: isolate"/>
      <path id="Trazado_100799" data-name="Trazado 100799" d="M192.516,116.549l-1.891.511-5.065-2.443,1.918-.5Z" transform="translate(-29.01 43.387)" fill="#fff" opacity="0.3" style="isolation: isolate"/>
      <path id="Trazado_100800" data-name="Trazado 100800" d="M188.871,117.551l-1.891.511-5.121-2.484,1.918-.5Z" transform="translate(-30.417 43.752)" fill="#fff" opacity="0.3" style="isolation: isolate"/>
      <path id="Trazado_100801" data-name="Trazado 100801" d="M211.795,119.956l.138,3.243a5.176,5.176,0,0,1-4.818,5.51c-.138.01-.276.012-.414.011h-6.432a10.173,10.173,0,0,1,10.186-8.819A10.576,10.576,0,0,1,211.795,119.956Z" transform="translate(-23.418 45.584)" fill="#fff" opacity="0.3" style="isolation: isolate"/>
      <path id="Trazado_100802" data-name="Trazado 100802" d="M175.382,165.876H101.238a.482.482,0,0,1-.469-.455L97.36,91.277a.489.489,0,0,1,.138-.345.436.436,0,0,1,.331-.152h74.158a.482.482,0,0,1,.469.455l3.4,74.144a.469.469,0,0,1-.124.345.494.494,0,0,1-.345.152Zm-73.688-.939h73.15l-3.368-73.219H98.326Z" transform="translate(-62.542 34.514)" fill="#e0e0e0"/>
      <path id="Trazado_100803" data-name="Trazado 100803" d="M159.688,109.617l.29,6.156a4.263,4.263,0,0,1-4.8,4.513,12.633,12.633,0,0,0-1.615-.1,11.422,11.422,0,0,0-4.982,1.118,11.207,11.207,0,0,0-6.238,10.641v.29a6.157,6.157,0,0,1-.759,3.285,6,6,0,0,1-5.272,3.05h-4.334a6.64,6.64,0,0,1-5.521-3.05,6.538,6.538,0,0,1-1.077-3.285v-.29a12.136,12.136,0,0,0-2.346-6.611,12.724,12.724,0,0,0-4.886-4.03,12.024,12.024,0,0,0-5.065-1.118,12.387,12.387,0,0,0-1.615.1,4.735,4.735,0,0,1-5.2-4.222c-.01-.1-.017-.193-.021-.291l-.276-6.156a1.863,1.863,0,0,1,1.735-1.983,1.457,1.457,0,0,1,.156,0h49.77a2.1,2.1,0,0,1,2.056,1.983Z" transform="translate(-59.27 40.92)" fill="#e0e0e0"/>
      <path id="Trazado_100804" data-name="Trazado 100804" d="M135.907,129.247a6,6,0,0,1-5.272,3.05H126.3a6.641,6.641,0,0,1-5.521-3.05,7.7,7.7,0,0,1,7.329-5.107A8.654,8.654,0,0,1,135.907,129.247Z" transform="translate(-53.638 47.197)" fill="#ebebeb"/>
      <path id="Trazado_100805" data-name="Trazado 100805" d="M203.846,264.09H146.9a12.725,12.725,0,0,1-12.56-12.008l-.745-16.01a11.413,11.413,0,0,1,10.79-12.008q.339-.019.679-.017H202.01a12.739,12.739,0,0,1,12.56,12.021l.745,16.01a11.4,11.4,0,0,1-10.777,11.991C204.309,264.086,204.077,264.092,203.846,264.09Z" transform="translate(-48.773 85.18)" fill="#f5ca56"/>
      <path id="Trazado_100806" data-name="Trazado 100806" d="M143.43,232.373h9.661a5.521,5.521,0,0,1,3.782,1.2,4.141,4.141,0,0,1,1.449,2.981,3.637,3.637,0,0,1-.814,2.553,3.984,3.984,0,0,1-1.767,1.118,4.942,4.942,0,0,1,2.76,1.5,4.14,4.14,0,0,1,.98,2.664,4.417,4.417,0,0,1-.5,2.346A4.249,4.249,0,0,1,157.4,248.4a5.354,5.354,0,0,1-1.946.538,19.5,19.5,0,0,1-2.319.235H144.2Zm5.521,6.583h2.264a2.511,2.511,0,0,0,1.67-.414,1.718,1.718,0,0,0-.11-2.36,2.622,2.622,0,0,0-1.67-.414h-2.291Zm.3,6.6h2.65a2.845,2.845,0,0,0,1.877-.469,1.545,1.545,0,0,0,.483-1.284,1.518,1.518,0,0,0-.593-1.187,3.148,3.148,0,0,0-1.932-.455H149.1Z" transform="translate(-45.027 88.342)" fill="#12263f"/>
      <path id="Trazado_100807" data-name="Trazado 100807" d="M167.145,232.389h5.19L172.8,242.4a8.266,8.266,0,0,1-.345,2.76,5.705,5.705,0,0,1-1.38,2.3,5.52,5.52,0,0,1-2.015,1.38,10.3,10.3,0,0,1-3.616.566,20.918,20.918,0,0,1-2.678-.179,6.994,6.994,0,0,1-2.457-.676,6.69,6.69,0,0,1-1.849-1.449,5.76,5.76,0,0,1-1.2-1.932,10.9,10.9,0,0,1-.607-2.843L156.2,232.32h5.176l.469,10.241a3.053,3.053,0,0,0,.87,2.153,2.94,2.94,0,0,0,2.139.773,2.76,2.76,0,0,0,2.07-.759,2.828,2.828,0,0,0,.662-2.167Z" transform="translate(-40.172 88.325)" fill="#12263f"/>
      <path id="Trazado_100808" data-name="Trazado 100808" d="M169.15,232.37h5.755l3.644,5.659,3.133-5.659h5.742l-6.087,9.758.331,7.039h-5.2l-.331-7.039Z" transform="translate(-35.249 88.344)" fill="#12263f"/>
    </g>
    <g id="freepik--Character--inject-15" transform="translate(292.143 76.775)">
      <path id="Trazado_100809" data-name="Trazado 100809" d="M289.181,106.087c1.38,1.67,2.415,3.147,3.52,4.748s2.112,3.188,3.119,4.8a114.252,114.252,0,0,1,5.521,10.075c.842,1.711,1.615,3.464,2.374,5.231s1.38,3.561,2.043,5.4a87.579,87.579,0,0,1,3.105,11.18v.262a3.618,3.618,0,0,1,.083,1.077,84.4,84.4,0,0,1-1.049,8.654c-.483,2.843-1.118,5.645-1.863,8.405s-1.615,5.521-2.567,8.129a80.882,80.882,0,0,1-3.354,7.908,2.9,2.9,0,0,1-5.438-1.9v-.124c.552-2.526,1.118-5.2,1.546-7.826s.883-5.272,1.187-7.908.58-5.245.759-7.853.207-5.2.221-7.77l.138,1.38a92.024,92.024,0,0,0-3.271-9.661c-1.3-3.174-2.76-6.307-4.306-9.371s-3.312-6.087-5.148-9.026c-.925-1.463-1.849-2.926-2.829-4.348s-2-2.885-2.9-4.141l-.124-.152a5.828,5.828,0,1,1,9.206-7.15Z" transform="translate(-186.978 -37.294)" fill="#ff8b7b"/>
      <path id="Trazado_100810" data-name="Trazado 100810" d="M293.3,157.616l-6.984,9.151,11.58-.552s3.216-6.583.442-10.434Z" transform="translate(-184.089 -17.549)" fill="#ff8b7b"/>
      <path id="Trazado_100811" data-name="Trazado 100811" d="M286.43,173.484l9.675-.994,1.794-9.151-11.58.552Z" transform="translate(-184.089 -14.675)" fill="#ff8b7b"/>
      <path id="Trazado_100812" data-name="Trazado 100812" d="M277.64,85.74c-1.1,6.818-2,19.254,2.885,23.6a34.4,34.4,0,0,1-15.831,14.285c-9.247-5.355-5.19-13.609-5.19-13.609,7.481-2.056,7.094-7.646,5.6-12.863Z" transform="translate(-194.622 -44.178)" fill="#ff8b7b"/>
      <path id="Trazado_100813" data-name="Trazado 100813" d="M255.3,76.62c-.124.911-.718,1.573-1.38,1.491s-.966-.883-.842-1.794.718-1.587,1.311-1.5S255.438,75.709,255.3,76.62Z" transform="translate(-196.738 -48.335)" fill="#263238"/>
      <path id="Trazado_100814" data-name="Trazado 100814" d="M254.838,75.142l-2.1-.952S253.61,76.067,254.838,75.142Z" transform="translate(-196.856 -48.569)" fill="#263238"/>
      <path id="Trazado_100815" data-name="Trazado 100815" d="M255.432,77.61a24.273,24.273,0,0,1-4.072,5.341,3.96,3.96,0,0,0,3.161,1.077Z" transform="translate(-197.381 -47.269)" fill="#ff5652"/>
      <path id="Trazado_100816" data-name="Trazado 100816" d="M258.151,73.806a.586.586,0,0,0,.4,0,.538.538,0,0,0,.2-.734V73.06a5.383,5.383,0,0,0-4.141-2.76.552.552,0,0,0-.566.511.566.566,0,0,0,.511.58,4.279,4.279,0,0,1,3.23,2.194.525.525,0,0,0,.366.221Z" transform="translate(-196.36 -50.048)" fill="#263238"/>
      <path id="Trazado_100817" data-name="Trazado 100817" d="M286.5,81.728c-2.277,11.041-3.009,15.845-9.468,20.772-9.73,7.439-22.856,2.208-23.932-9.33-.98-10.393,2.912-26.789,14.492-29.688A15.446,15.446,0,0,1,286.5,81.728Z" transform="translate(-196.774 -52.822)" fill="#ff8b7b"/>
      <path id="Trazado_100818" data-name="Trazado 100818" d="M256.393,154.45s-2.76,85.9-2.084,120.684c.773,36.175,1.118,120.67,1.118,120.67h6.321s17.377-70.224,13.07-120.67c6.515-38.742,10.931-120.684,10.931-120.684Z" transform="translate(-196.3 -18.055)" fill="#ff8b7b"/>
      <path id="Trazado_100819" data-name="Trazado 100819" d="M257.16,154.45s22.7,85.9,31.372,120.684c9,36.175,28.542,120.67,28.542,120.67H323.4s1.38-70.224-14.34-120.67c-2.277-38.742-16.479-120.684-16.479-120.684Z" transform="translate(-195.176 -18.055)" fill="#ff8b7b"/>
      <path id="Trazado_100820" data-name="Trazado 100820" d="M245.981,113.11a9.1,9.1,0,0,1,7.563-8.778c3.685-.621,8.53-1.38,13.057-1.767a144.589,144.589,0,0,1,21.034,0c2.76.166,5.314.359,7.688.635a10.131,10.131,0,0,1,8.922,11.21c-.037.324-.09.645-.157.966-6.514,30.613-5.686,41.9-4.982,58.948,19.074,27.907,14.216,67.505,16.562,101.32L254.58,297.037c-3.2-55.746-1.808-114.183.166-122.713C248.935,138.588,245.857,121.391,245.981,113.11Z" transform="translate(-199.427 -37.926)" fill="#26aab7"/>
      <path id="Trazado_100821" data-name="Trazado 100821" d="M272.78,224.143l2.76-38.645L286.9,178.21Z" transform="translate(-189.237 -9.022)" fill="#263238" opacity="0.2" style="isolation: isolate"/>
      <path id="Trazado_100822" data-name="Trazado 100822" d="M297.611,156.81l-45.243,3.368a1.037,1.037,0,0,1-1.165-.887.463.463,0,0,0-.008-.106l-.166-3.768a1.573,1.573,0,0,1,1.38-1.546l45.353-3.368a1.035,1.035,0,0,1,1.152.9v.091l.179,3.768a1.587,1.587,0,0,1-1.484,1.546Z" transform="translate(-197.506 -19.559)" fill="#263238"/>
      <path id="Trazado_100823" data-name="Trazado 100823" d="M263.78,102.089l10.738,2.567,2.222-2.374-3.533-.842Z" transform="translate(-192.659 -38.209)" fill="#ff8b7b"/>
      <path id="Trazado_100824" data-name="Trazado 100824" d="M266.563,110.966v5.452c0,1.794-.207,3.506-.359,5.245-.317,3.492-.9,6.9-1.56,10.379a88.3,88.3,0,0,1-6.514,20.123l-1.228,2.471c-.235.442-.359.759-.676,1.284a16.567,16.567,0,0,1-1.035,1.546,12.353,12.353,0,0,1-14.285,4.527,22.212,22.212,0,0,1-5.521-2.857,45.107,45.107,0,0,1-8.005-7.439c-1.173-1.38-2.222-2.76-3.243-4.141a49.684,49.684,0,0,1-2.926-4.348,2.9,2.9,0,0,1,4.568-3.52l.069.069c2.153,2.25,4.541,4.513,6.9,6.542a39.811,39.811,0,0,0,7.343,5.162,12.415,12.415,0,0,0,3.437,1.38,3.05,3.05,0,0,0,2.029-.11,3.905,3.905,0,0,0,1.215-1.311l.3-.552c.1-.193.276-.649.4-.952l.87-2.056a93.952,93.952,0,0,0,4.982-17.942c.538-3.092.9-6.225,1.215-9.344.152-1.56.262-3.133.331-4.679S255,112.7,255,111.38v-.221a5.838,5.838,0,0,1,11.663-.179Z" transform="translate(-209.009 -36.665)" fill="#ff8b7b"/>
      <path id="Trazado_100825" data-name="Trazado 100825" d="M227.818,133.824,220.7,124.77l-2.346,11.359s5.521,4.762,9.979,3.036Z" transform="translate(-209.931 -29.339)" fill="#ff8b7b"/>
      <path id="Trazado_100826" data-name="Trazado 100826" d="M213.713,123.11l-1.463,9.62,8.405,4.03,2.374-11.359Z" transform="translate(-212.25 -29.97)" fill="#ff8b7b"/>
      <path id="Trazado_100827" data-name="Trazado 100827" d="M261.891,88.438c3.326,4.141-11.042,7.563-5.852,19.254s-8.281,6.9-.718,22.884c7.453,15.748,34.256,24,49.687,17.528-5.976-1.09-10.765-8.474-5.728-12.1,7.218-5.231,9.013-12.739,5.121-19.626s-13.443-17.722-9.054-26.155c5.369-10.31,5.521-17.57-5.521-25.644-11.29-8.281-36.644-15.182-35.885.179S261.891,88.438,261.891,88.438Z" transform="translate(-196.773 -55.626)" fill="#263238"/>
      <path id="Trazado_100828" data-name="Trazado 100828" d="M284.9,90.808,271.7,89.524A4.473,4.473,0,0,1,267.74,83.8h0a6.405,6.405,0,0,1,6.6-4.693l13.181,1.3a4.473,4.473,0,0,1,3.961,5.728h0a6.418,6.418,0,0,1-6.583,4.679Z" transform="translate(-191.223 -46.706)" fill="#c1507f"/>
      <path id="Trazado_100829" data-name="Trazado 100829" d="M264.2,80.073a8.281,8.281,0,0,1-4.265,4.665c-2.636,1.2-4.417-1.049-4.058-3.768.317-2.457,2.084-6.045,4.913-6.1a3.714,3.714,0,0,1,3.409,5.2Z" transform="translate(-195.683 -48.31)" fill="#ff8b7b"/>
      <path id="Trazado_100830" data-name="Trazado 100830" d="M259.44,327.9h7.494a.869.869,0,0,1,.856.69l1.449,7.232a1.477,1.477,0,0,1-1.1,1.771,1.527,1.527,0,0,1-.355.037c-3.989-.069-5.2-.3-10.213-.3-4.306,0-5.259.317-12.146.317-4.141,0-3.119-3.368-1.38-3.63,6.211-.911,8.819-1.38,13.374-4.693C258.211,328.8,258.556,327.9,259.44,327.9Z" transform="translate(-200.74 47.889)" fill="#263238"/>
      <path id="Trazado_100831" data-name="Trazado 100831" d="M302.374,327.9h7.494a.9.9,0,0,1,.87.69l1.38,7.232a1.475,1.475,0,0,1-1.449,1.808c-4-.069-2.76,0-7.729,0h-7.163c-4.141,0-3.105-3.243-1.38-3.63,3.437-.773,4.306-2,5.921-4.693a2.458,2.458,0,0,1,2.056-1.408Z" transform="translate(-181.594 47.889)" fill="#263238"/>
    </g>
  </g>
</svg>
