<svg xmlns="http://www.w3.org/2000/svg" xmlns:xlink="http://www.w3.org/1999/xlink" width="94" height="94" viewBox="0 0 94 94">
  <defs>
    <clipPath id="clip-path">
      <rect id="Rectángulo_30745" data-name="Rectángulo 30745" width="64" height="64" fill="none"/>
    </clipPath>
  </defs>
  <g id="Grupo_55812" data-name="Grupo 55812" transform="translate(-103.049 -8499.589)">
    <circle id="Elipse_4327" data-name="Elipse 4327" cx="47" cy="47" r="47" transform="translate(103.049 8499.589)" fill="#7d6eb2"/>
    <g id="Grupo_55811" data-name="Grupo 55811" transform="translate(118.018 8514.142)">
      <path id="Trazado_129406" data-name="Trazado 129406" d="M381.472,8769.932a18.754,18.754,0,0,0-22.147-27.8L348.151,8753.2a18.75,18.75,0,0,0-1.16,7.477c.479,10.106,9.28,17.838,19.4,17.838h18.078a5.861,5.861,0,0,1-3-8.578Zm0,0" transform="translate(-321.72 -8715.762)" fill="#fff"/>
      <g id="Grupo_55810" data-name="Grupo 55810" transform="translate(0 0)">
        <g id="Grupo_55809" data-name="Grupo 55809" clip-path="url(#clip-path)">
          <path id="Trazado_129407" data-name="Trazado 129407" d="M205.966,8625.936a5.861,5.861,0,0,1-3,8.578h18.079c10.118,0,18.92-7.73,19.4-17.838a18.75,18.75,0,1,0-34.481,9.26Zm0,0" transform="translate(-201.72 -8595.765)" fill="#ccf"/>
          <path id="Trazado_129408" data-name="Trazado 129408" d="M259.377,8631.586a20,20,0,0,0-24.433-17.56,19.229,19.229,0,0,0,.5-3.543,20,20,0,1,0-36.779,9.881,4.371,4.371,0,0,1,.458,3.764,4.736,4.736,0,0,1-2.844,2.965,1.25,1.25,0,0,0,.439,2.42H214.8a21.185,21.185,0,0,0,5.214-.651,20.06,20.06,0,0,0-.521,5.622c.51,10.759,9.833,19.029,20.647,19.029h18.079a1.25,1.25,0,0,0,.439-2.42,4.611,4.611,0,0,1-2.386-6.729,19.874,19.874,0,0,0,3.106-12.778Zm-58.975-4.572a7.275,7.275,0,0,0,1.1-2.1,6.86,6.86,0,0,0-.734-5.906,17.5,17.5,0,1,1,32.183-8.64c-.434,9.179-8.576,16.647-18.15,16.647Zm54.134,24h-14.4c-9.574,0-17.715-7.468-18.15-16.647a17.465,17.465,0,0,1,.9-6.46,20.531,20.531,0,0,0,11.14-11.029,17.5,17.5,0,0,1,20.145,26.13,6.987,6.987,0,0,0,.363,8.007Zm0,0" transform="translate(-195.47 -8589.513)" fill="#fff"/>
        </g>
      </g>
      <path id="Trazado_129409" data-name="Trazado 129409" d="M297.382,8670.953l-10-6.251a1.25,1.25,0,0,0-1.912,1.061v12.5a1.249,1.249,0,0,0,1.912,1.059l10-6.249a1.25,1.25,0,0,0,0-2.119Zm0,0" transform="translate(-270.47 -8652.012)" fill="#fff"/>
      <path id="Trazado_129410" data-name="Trazado 129410" d="M408.219,8853.51h-22.5a1.25,1.25,0,0,0,0,2.5h22.5a1.25,1.25,0,1,0,0-2.5Zm0,0" transform="translate(-352.97 -8809.51)" fill="#7d6eb2"/>
      <path id="Trazado_129411" data-name="Trazado 129411" d="M445.716,8811.01h7.5a1.25,1.25,0,0,0,0-2.5h-7.5a1.25,1.25,0,1,0,0,2.5Zm0,0" transform="translate(-402.967 -8772.01)" fill="#7d6eb2"/>
      <path id="Trazado_129412" data-name="Trazado 129412" d="M428.216,8898.506h-12.5a1.25,1.25,0,0,0,0,2.5h12.5a1.25,1.25,0,1,0,0-2.5Zm0,0" transform="translate(-377.967 -8847.007)" fill="#7d6eb2"/>
    </g>
  </g>
</svg>
