<svg xmlns="http://www.w3.org/2000/svg" width="505" height="362.449" viewBox="0 0 505 362.449">
  <g id="Marketing-rafiki" transform="translate(0 -55)">
    <g id="freepik--background-complete--inject-398" transform="translate(0 55)">
      <rect id="Rectángulo_30102" data-name="Rectángulo 30102" width="33.451" height="0.252" transform="translate(420.948 346.925)" fill="#ebebeb"/>
      <rect id="Rectángulo_30103" data-name="Rectángulo 30103" width="8.777" height="0.252" transform="translate(325.755 349.672)" fill="#ebebeb"/>
      <rect id="Rectángulo_30104" data-name="Rectángulo 30104" width="19.382" height="0.252" transform="translate(400.556 337.552)" fill="#ebebeb"/>
      <rect id="Rectángulo_30105" data-name="Rectángulo 30105" width="43.622" height="0.252" transform="translate(52.985 339.249)" fill="#ebebeb"/>
      <rect id="Rectángulo_30106" data-name="Rectángulo 30106" width="6.393" height="0.252" transform="translate(105.606 339.249)" fill="#ebebeb"/>
      <rect id="Rectángulo_30107" data-name="Rectángulo 30107" width="94.617" height="0.252" transform="translate(132.785 343.511)" fill="#ebebeb"/>
      <path id="Trazado_123776" data-name="Trazado 123776" d="M238.988,340.628H43.967a5.767,5.767,0,0,1-5.757-5.767V60.717A5.767,5.767,0,0,1,43.967,55H238.988a5.767,5.767,0,0,1,5.767,5.767V334.861A5.767,5.767,0,0,1,238.988,340.628ZM43.967,55.2a5.515,5.515,0,0,0-5.5,5.515V334.861a5.515,5.515,0,0,0,5.5,5.515H238.988a5.525,5.525,0,0,0,5.515-5.515V60.717a5.525,5.525,0,0,0-5.515-5.515Z" transform="translate(0.382 -55)" fill="#ebebeb"/>
      <path id="Trazado_123777" data-name="Trazado 123777" d="M455.3,340.628H260.267a5.777,5.777,0,0,1-5.767-5.767V60.717A5.777,5.777,0,0,1,260.267,55H455.3a5.767,5.767,0,0,1,5.747,5.717V334.861A5.767,5.767,0,0,1,455.3,340.628ZM260.267,55.2a5.525,5.525,0,0,0-5.515,5.515V334.861a5.525,5.525,0,0,0,5.515,5.515H455.3a5.525,5.525,0,0,0,5.515-5.515V60.717A5.525,5.525,0,0,0,455.3,55.2Z" transform="translate(2.545 -55)" fill="#ebebeb"/>
      <rect id="Rectángulo_30108" data-name="Rectángulo 30108" width="505" height="0.252" transform="translate(0 330.674)" fill="#ebebeb"/>
      <path id="Trazado_123778" data-name="Trazado 123778" d="M413.3,279.591l4.414,3.232a.262.262,0,0,0,.111.071l4.293-3.6c13.342-11.585,28.492-24.361,16.584-34.784-8.272-7.242-17.867-.495-22.7,3.889-5.121-4.04-15.9-15.574-24.967-1.576C383.465,258.492,399.231,268.875,413.3,279.591Z" transform="translate(3.891 -53.149)" fill="#ebebeb"/>
      <path id="Trazado_123779" data-name="Trazado 123779" d="M437.573,248.9a1.333,1.333,0,1,0,.141,0Z" transform="translate(4.363 -53.061)" fill="#fff" opacity="0.5"/>
      <path id="Trazado_123780" data-name="Trazado 123780" d="M432.37,264.6c3.686-2.394,0-10.767,4.606-11.474C440.379,254.524,436.925,261.624,432.37,264.6Z" transform="translate(4.324 -53.019)" fill="#fff" opacity="0.5"/>
      <rect id="Rectángulo_30109" data-name="Rectángulo 30109" width="48.349" height="23.674" rx="10.82" transform="translate(71.393 234.086) rotate(-22.78)" fill="#ebebeb"/>
      <path id="Trazado_123781" data-name="Trazado 123781" d="M85.743,291.644l-1.838.778-.454-1.081,5.05-2.1.454,1.081-1.838.768,1.939,4.666-1.333.555Z" transform="translate(0.835 -52.658)" fill="#fff"/>
      <path id="Trazado_123782" data-name="Trazado 123782" d="M96.416,287.45l.252,5.05-1.232.515L93.3,290.692l.121,3.171-1.232.515-3.444-3.747,1.212-.505,2.293,2.555-.212-3.4,1.081-.454,2.3,2.545-.172-3.444Z" transform="translate(0.887 -52.676)" fill="#fff"/>
      <path id="Trazado_123783" data-name="Trazado 123783" d="M102.179,288.019l-3.333,1.4a1.283,1.283,0,0,0,1.636.353,1.616,1.616,0,0,0,.929-.889l1.01.455a2.808,2.808,0,0,1-5,.263,2.444,2.444,0,0,1,1.4-3.262,2.363,2.363,0,0,1,3.252,1.323A2.082,2.082,0,0,1,102.179,288.019Zm-3.666.666,2.172-.919a1.192,1.192,0,0,0-2.172.919Z" transform="translate(0.972 -52.689)" fill="#fff"/>
      <path id="Trazado_123784" data-name="Trazado 123784" d="M107.309,285.879l-3.293,1.4a1.283,1.283,0,0,0,1.636.354,1.586,1.586,0,0,0,.929-.889l1.01.444a2.788,2.788,0,0,1-4.989.263,2.424,2.424,0,0,1,1.4-3.252,2.363,2.363,0,0,1,3.252,1.323A.643.643,0,0,0,107.309,285.879Zm-3.666.656,2.171-.909a1.194,1.194,0,0,0-2.171.909Z" transform="translate(1.024 -52.71)" fill="#fff"/>
      <path id="Trazado_123785" data-name="Trazado 123785" d="M111.681,285.976a2.07,2.07,0,0,1-.929.717,1.586,1.586,0,0,1-2.313-.9l-.757-1.808-.687.283-.414-1.01.687-.293-.454-1.071,1.283-.535.454,1.071,1.091-.465.414,1.01-1.091.465.747,1.788a.555.555,0,0,0,.8.354,1.01,1.01,0,0,0,.444-.374Z" transform="translate(1.066 -52.736)" fill="#fff"/>
      <rect id="Rectángulo_30110" data-name="Rectángulo 30110" width="75.376" height="22.311" rx="3.91" transform="translate(47.348 197.54) rotate(7.22)" fill="#e6e6e6"/>
      <path id="Trazado_123786" data-name="Trazado 123786" d="M67.514,261.706l-.242,1.9,3.333.424-.172,1.333-3.323-.424-.333,2.626-1.666-.212.909-7.2,5.444.7-.172,1.333Z" transform="translate(0.651 -52.949)" fill="#fff"/>
      <path id="Trazado_123787" data-name="Trazado 123787" d="M71.29,265.308a3.03,3.03,0,1,1,2.737,3.242,2.879,2.879,0,0,1-2.737-3.242Zm4.454.566a1.4,1.4,0,0,0-1.212-1.707,1.545,1.545,0,0,0-.384,3.03,1.4,1.4,0,0,0,1.6-1.323Z" transform="translate(0.713 -52.925)" fill="#fff"/>
      <path id="Trazado_123788" data-name="Trazado 123788" d="M79.01,261.36l1.6.2L79.6,269.2,77.99,269Z" transform="translate(0.78 -52.936)" fill="#fff"/>
      <path id="Trazado_123789" data-name="Trazado 123789" d="M82.01,261.75l1.606.2-1.01,7.636-1.606-.2Z" transform="translate(0.81 -52.933)" fill="#fff"/>
      <path id="Trazado_123790" data-name="Trazado 123790" d="M84.08,266.928a3.03,3.03,0,1,1,2.687,3.242,2.868,2.868,0,0,1-2.687-3.242Zm4.454.566a1.434,1.434,0,1,0-1.606,1.353,1.4,1.4,0,0,0,1.606-1.353Z" transform="translate(0.841 -52.909)" fill="#fff"/>
      <path id="Trazado_123791" data-name="Trazado 123791" d="M100.245,266.172l-2.707,5.272-1.545-.192-.808-3.6-1.727,3.272-1.535-.192L90.63,265l1.5.192.889,3.848,1.828-3.575,1.353.172.848,3.919,1.818-3.575Z" transform="translate(0.906 -52.9)" fill="#fff"/>
      <rect id="Rectángulo_30111" data-name="Rectángulo 30111" width="75.386" height="22.321" transform="translate(68.482 156.727) rotate(37.22)" fill="#e0e0e0"/>
      <path id="Trazado_123792" data-name="Trazado 123792" d="M64.76,224.943l1.222-.656a4.313,4.313,0,0,0,1.454,2.02c.788.6,1.313.576,1.576.222.828-1.081-3.1-2.889-1.465-5.05.747-1.01,2.161-1.2,3.8,0a4.828,4.828,0,0,1,1.616,2.02l-1.182.7a4.2,4.2,0,0,0-1.252-1.666c-.8-.6-1.323-.535-1.606-.172-.808,1.061,3.111,2.879,1.495,5.05-.727,1.01-2.151,1.182-3.808-.071A5.161,5.161,0,0,1,64.76,224.943Z" transform="translate(0.648 -53.344)" fill="#fff"/>
      <path id="Trazado_123793" data-name="Trazado 123793" d="M71.867,227.242l2.454-3.232,1.343,1.01-2.424,3.192c-.838,1.091-.7,1.909.111,2.525s1.626.525,2.464-.576l2.424-3.181,1.313,1.01-2.495,3.232a3.287,3.287,0,0,1-5.232-3.979Z" transform="translate(0.712 -53.31)" fill="#fff"/>
      <path id="Trazado_123794" data-name="Trazado 123794" d="M82.925,237.161c-.757,1.01-2.02,1.01-3.5-.182l-3.03-2.272,4.393-5.777,2.818,2.151c1.444,1.091,1.727,2.262,1.01,3.161a1.757,1.757,0,0,1-1.737.687,1.788,1.788,0,0,1,.05,2.232Zm-1.545-6.212-1.01,1.364,1.333,1.01c.646.495,1.182.535,1.525.081s.162-.949-.495-1.444Zm.313,5.05c.364-.495.172-1.01-.525-1.525l-1.555-1.192-1.091,1.434,1.566,1.182C80.773,236.424,81.309,236.495,81.692,236Z" transform="translate(0.764 -53.261)" fill="#fff"/>
      <path id="Trazado_123795" data-name="Trazado 123795" d="M82.66,238.533l1.212-.656a4.273,4.273,0,0,0,1.454,2.02c.788.606,1.313.586,1.586.222.818-1.081-3.1-2.889-1.475-5.05.747-1.01,2.161-1.2,3.8,0a4.747,4.747,0,0,1,1.616,2.02l-1.182.707a4.162,4.162,0,0,0-1.252-1.677c-.8-.6-1.323-.535-1.606-.172-.808,1.071,3.111,2.889,1.5,5.05-.737.96-2.161,1.182-3.818-.081A5.05,5.05,0,0,1,82.66,238.533Z" transform="translate(0.827 -53.208)" fill="#fff"/>
      <path id="Trazado_123796" data-name="Trazado 123796" d="M89.706,240.235a3.727,3.727,0,0,1,5.4-.606,3.788,3.788,0,0,1,1.606,2.838l-1.464.131a2.353,2.353,0,0,0-.939-1.778,2.323,2.323,0,1,0-2.808,3.7,2.283,2.283,0,0,0,2.02.424l.263,1.444a4.04,4.04,0,0,1-4.04-6.151Z" transform="translate(0.891 -53.163)" fill="#fff"/>
      <path id="Trazado_123797" data-name="Trazado 123797" d="M97.556,250.755l.1-2.454-.061-.051-1.161-.879-1.222,1.606-1.343-1.01,4.394-5.777,2.495,1.909c1.545,1.172,1.909,2.707.919,4.04a2.343,2.343,0,0,1-2.576.919l-.111,2.838Zm2.3-5.636-1.091-.828-1.525,2.02,1.091.828c.818.626,1.515.556,2.02-.071s.323-1.333-.495-1.949Z" transform="translate(0.939 -53.128)" fill="#fff"/>
      <path id="Trazado_123798" data-name="Trazado 123798" d="M104.263,246.74l1.333,1.01-4.383,5.777-1.343-1.01Z" transform="translate(0.999 -53.083)" fill="#fff"/>
      <path id="Trazado_123799" data-name="Trazado 123799" d="M109.065,257c-.768,1.01-2.02,1.01-3.515-.172l-3.03-2.272,4.393-5.777,2.818,2.141c1.444,1.1,1.737,2.262,1.01,3.161a1.758,1.758,0,0,1-1.737.7,1.778,1.778,0,0,1,.061,2.222Zm-1.545-6.2-1.01,1.353,1.333,1.01c.646.495,1.182.535,1.525.081s.162-.939-.495-1.444Zm.3,5.05c.374-.485.172-1.01-.525-1.525l-1.555-1.182-1.081,1.424,1.555,1.182c.687.525,1.222.586,1.6.091Z" transform="translate(1.025 -53.062)" fill="#fff"/>
      <path id="Trazado_123800" data-name="Trazado 123800" d="M114.052,261.63l-.818,1.071-4.474-3.394,4.393-5.787,4.363,3.323-.818,1.071-3.03-2.3-.949,1.252,2.687,2.02-.8,1.01-2.676-2.02-1.01,1.333Z" transform="translate(1.088 -53.015)" fill="#fff"/>
      <path id="Trazado_123801" data-name="Trazado 123801" d="M206.416,124.733a2.767,2.767,0,0,1-2.767-2.757v-6.8h-1.333a3.555,3.555,0,0,1-3.545-3.545V79.445A3.545,3.545,0,0,1,202.3,75.92h50.227a3.535,3.535,0,0,1,3.535,3.525v32.189a3.555,3.555,0,0,1-3.545,3.545H219.707l-11.615,9a2.717,2.717,0,0,1-1.677.555ZM202.3,76.93a2.535,2.535,0,0,0-2.525,2.515v32.189a2.545,2.545,0,0,0,2.535,2.535h2.343v7.807a1.757,1.757,0,0,0,1.757,1.747,1.727,1.727,0,0,0,1.01-.354l11.908-9.2h33.2a2.545,2.545,0,0,0,2.535-2.535V79.445a2.525,2.525,0,0,0-2.525-2.515Z" transform="translate(1.988 -54.791)" fill="#e0e0e0"/>
      <rect id="Rectángulo_30112" data-name="Rectángulo 30112" width="6.292" height="0.768" transform="translate(220.412 17.099)" fill="#e0e0e0"/>
      <path id="Trazado_123802" data-name="Trazado 123802" d="M195.338,81h-.778V77.2a5.292,5.292,0,0,1,5.292-5.272h14.029V72.7H199.852a4.515,4.515,0,0,0-4.515,4.5Z" transform="translate(1.946 -54.831)" fill="#e0e0e0"/>
      <path id="Trazado_123803" data-name="Trazado 123803" d="M240.886,90.81H213.292a1.545,1.545,0,0,1,0-3.03h27.593a1.545,1.545,0,1,1,0,3.03Z" transform="translate(2.121 -54.673)" fill="#e0e0e0"/>
      <path id="Trazado_123804" data-name="Trazado 123804" d="M240.886,96.84H213.292a1.545,1.545,0,0,1,0-3.03h27.593a1.545,1.545,0,1,1,0,3.03Z" transform="translate(2.121 -54.612)" fill="#e0e0e0"/>
      <path id="Trazado_123805" data-name="Trazado 123805" d="M240.886,102.87H213.292a1.545,1.545,0,0,1,0-3.03h27.593a1.545,1.545,0,1,1,0,3.03Z" transform="translate(2.121 -54.552)" fill="#e0e0e0"/>
      <path id="Trazado_123806" data-name="Trazado 123806" d="M258.068,132.95h27.593a1.545,1.545,0,1,0,0-3.03H258.068a1.545,1.545,0,1,0,0,3.03Z" transform="translate(2.562 -54.251)" fill="#e0e0e0"/>
      <path id="Trazado_123807" data-name="Trazado 123807" d="M258.068,139.03h27.593a1.545,1.545,0,1,0,0-3.03H258.068a1.545,1.545,0,1,0,0,3.03Z" transform="translate(2.562 -54.19)" fill="#e0e0e0"/>
      <path id="Trazado_123808" data-name="Trazado 123808" d="M258.068,145.03h27.593a1.545,1.545,0,1,0,0-3.03H258.068a1.545,1.545,0,1,0,0,3.03Z" transform="translate(2.562 -54.13)" fill="#e0e0e0"/>
      <path id="Trazado_123809" data-name="Trazado 123809" d="M300.448,137.907c0,4.838-2.767,9.242-7.333,12.585V161.6a1.151,1.151,0,0,1-2.02.818l-10.665-6.565a42.79,42.79,0,0,1-8.666.879c-15.827,0-28.654-8.433-28.654-18.836s12.827-18.836,28.654-18.836S300.448,127.5,300.448,137.907Z" transform="translate(2.431 -54.359)" fill="none" stroke="#e0e0e0" stroke-miterlimit="10" stroke-width="1"/>
      <path id="Trazado_123810" data-name="Trazado 123810" d="M363.5,120.08h-4.252a3.9,3.9,0,0,0-3.838,3.646l-1.01,19.634a3.434,3.434,0,0,0,3.454,3.646h4.222a3.9,3.9,0,0,0,3.838-3.646l1.01-19.634a3.434,3.434,0,0,0-3.424-3.646Zm.111,23.23a1.424,1.424,0,0,1-1.4,1.333h-4.252a1.253,1.253,0,0,1-1.263-1.333l1.01-19.634a1.424,1.424,0,0,1,1.4-1.343h4.252a1.263,1.263,0,0,1,1.263,1.343Z" transform="translate(3.544 -54.349)" fill="#ebebeb"/>
      <path id="Trazado_123811" data-name="Trazado 123811" d="M396.995,120.254H384.541l2.778-6.545a4.332,4.332,0,0,0,.333-2.222l-.586-5.151a4.04,4.04,0,0,0-4.091-3.626h-4.949l-.414,7.979-8.03,10.1a6.222,6.222,0,0,0-1.343,3.495l-1.01,18.372a4.222,4.222,0,0,0,4.262,4.495h17.422a5.525,5.525,0,0,0,4.04-1.848l1.626-1.808a5.494,5.494,0,0,0,1.293-2.485L399.692,124Z" transform="translate(3.672 -54.523)" fill="#ebebeb"/>
      <g id="Grupo_55333" data-name="Grupo 55333" transform="translate(357.937 65.731)" opacity="0.5">
        <path id="Trazado_123812" data-name="Trazado 123812" d="M363.5,120.08h-4.252a3.9,3.9,0,0,0-3.838,3.646l-1.01,19.634a3.434,3.434,0,0,0,3.454,3.646h4.222a3.9,3.9,0,0,0,3.838-3.646l1.01-19.634a3.434,3.434,0,0,0-3.424-3.646Zm.111,23.23a1.424,1.424,0,0,1-1.4,1.333h-4.252a1.253,1.253,0,0,1-1.263-1.333l1.01-19.634a1.424,1.424,0,0,1,1.4-1.343h4.252a1.263,1.263,0,0,1,1.263,1.343Z" transform="translate(-354.394 -120.08)" fill="#ebebeb"/>
      </g>
      <path id="Trazado_123813" data-name="Trazado 123813" d="M124.35,110.436,106.2,106.83l3.969-8.11,13.625,2.7Z" transform="translate(1.062 -54.563)" fill="#ebebeb"/>
      <path id="Trazado_123814" data-name="Trazado 123814" d="M123.663,101.39l-4.313,8.05,4.868.97Z" transform="translate(1.193 -54.536)" fill="#e0e0e0"/>
      <rect id="Rectángulo_30113" data-name="Rectángulo 30113" width="46.521" height="35.653" rx="5.59" transform="matrix(0.981, 0.195, -0.195, 0.981, 93.402, 49.535)" fill="#ebebeb"/>
      <path id="Trazado_123815" data-name="Trazado 123815" d="M0,0H1.01A5.242,5.242,0,0,1,6.252,5.242V30.411A5.242,5.242,0,0,1,1.01,35.653H0Z" transform="matrix(0.981, 0.195, -0.195, 0.981, 132.876, 57.344)" fill="#e0e0e0"/>
      <path id="Trazado_123816" data-name="Trazado 123816" d="M122.127,126.359a12.6,12.6,0,1,1-9.908-14.817A12.6,12.6,0,0,1,122.127,126.359Z" transform="translate(0.972 -54.437)" fill="#fafafa"/>
      <path id="Trazado_123817" data-name="Trazado 123817" d="M120.467,125.851a11.059,11.059,0,1,1-8.7-12.989,11.059,11.059,0,0,1,8.7,12.989Z" transform="translate(0.986 -54.424)" fill="#e0e0e0"/>
      <path id="Trazado_123818" data-name="Trazado 123818" d="M103.336,111.2l8.454,1.677-4.3,21.685L96.63,132.481S105.4,114.6,103.336,111.2Z" transform="translate(0.966 -54.438)" fill="#e0e0e0"/>
      <rect id="Rectángulo_30114" data-name="Rectángulo 30114" width="5.848" height="2.576" transform="matrix(0.981, 0.195, -0.195, 0.981, 100.44, 48.65)" fill="#ebebeb"/>
      <path id="Trazado_123819" data-name="Trazado 123819" d="M127.029,117.418a1.485,1.485,0,1,1-.223-1.117,1.485,1.485,0,0,1,.223,1.117Z" transform="translate(1.241 -54.394)" fill="#fafafa"/>
      <path id="Trazado_123820" data-name="Trazado 123820" d="M105.208,122.075A14.776,14.776,0,0,1,84.16,132.447a14.776,14.776,0,0,0,5.555-27.977,14.756,14.756,0,0,1,15.493,17.6Z" transform="translate(0.842 -54.506)" fill="#ebebeb"/>
      <ellipse id="Elipse_4212" data-name="Elipse 4212" cx="14.261" cy="10.918" rx="14.261" ry="10.918" transform="matrix(0.195, -0.981, 0.981, 0.195, 74.293, 75.821)" fill="#fafafa"/>
      <path id="Trazado_123821" data-name="Trazado 123821" d="M84.306,132.462a14.776,14.776,0,1,1,5.555-27.977,14.776,14.776,0,0,0-5.555,27.977Z" transform="translate(0.685 -54.521)" fill="#e6e6e6"/>
    </g>
    <g id="freepik--Podium--inject-398" transform="translate(138.814 250.657)">
      <rect id="Rectángulo_30115" data-name="Rectángulo 30115" width="232.532" height="76.679" transform="translate(0 75.76)" fill="#f5ca56"/>
      <rect id="Rectángulo_30117" data-name="Rectángulo 30117" width="100.929" height="76.679" transform="translate(62.883)" fill="#f5ca56"/>
      <path id="Trazado_123822" data-name="Trazado 123822" d="M259.053,270.27l-5.707,28.553h-6.616l4.656-23.23H245.67l1.06-5.3Z" transform="translate(-136.358 -248.504)" fill="#263238"/>
    </g>
    <g id="freepik--character-2--inject-398" transform="translate(308.565 189.209)">
      <path id="Trazado_123823" data-name="Trazado 123823" d="M310.99,221.392l3.929,4.161,27.846-18.534,31.441,10.4,27.361-20.21,1.838,3.293,7.393-12.433-14.453-.192,1.838,3.283-24.442,21.281-31.512-10.171Z" transform="translate(-305.455 -187.88)" fill="#263238"/>
      <path id="Trazado_123824" data-name="Trazado 123824" d="M327.593,331.612l21.159-.768c-4.989-1.434-10.262-1.353-15.433-1.889a16.61,16.61,0,0,1-4.383-.909c-1.333-.515-2.535-1.333-3.858-1.879a10.483,10.483,0,0,0-5.484-.687,5.046,5.046,0,0,0-1.717.505,4.766,4.766,0,0,0-2.131,2.656,10.437,10.437,0,0,0-.566,2.97h0v.444h0a16.533,16.533,0,0,0,1.394,6.444c4.908,11.888,44.672,1.737,44.672,1.737-1.394,7.8.687,13.675,2.111,21.483l3.727,20.564-3.979.434,1.606,5.757h3.5V331.612Z" transform="translate(-305.413 -186.505)" opacity="0.2"/>
      <path id="Trazado_123825" data-name="Trazado 123825" d="M367.94,392.77v6.444l-.162-.192-.869-4.525a1.228,1.228,0,0,1,0-.192,1.647,1.647,0,0,1,1.03-1.535Z" transform="translate(-304.896 -185.831)" opacity="0.2"/>
      <g id="freepik--Character--inject-2--inject-398" transform="translate(0 39.339)">
        <path id="Trazado_123826" data-name="Trazado 123826" d="M386.34,388.222l6.232-.677.606-14.635-6.242.677Z" transform="translate(-304.702 -225.369)" fill="#ff8b7b"/>
        <path id="Trazado_123827" data-name="Trazado 123827" d="M393.219,384.8l-7.07-.081a.444.444,0,0,0-.485.394.09.09,0,0,0,0,.051l-.4,5.555a1.131,1.131,0,0,0,1.091,1.131c2.444,0,3.474-.141,6.555-.323,1.909-.121,6.444-.424,9.029-.909s2.02-3.03.889-3.03c-2.7-.05-6.828-.939-8.575-2.353A1.777,1.777,0,0,0,393.219,384.8Z" transform="translate(-304.712 -225.251)" fill="#263238"/>
        <path id="Trazado_123828" data-name="Trazado 123828" d="M386.933,373.6l6.242-.687-.293,7.05-6.232.465Z" transform="translate(-304.699 -225.369)" opacity="0.2"/>
        <path id="Trazado_123829" data-name="Trazado 123829" d="M343.212,309.621s47.47-2.343,50.611,15.342a335.953,335.953,0,0,1,.9,50.005l-8.807,1.7s-6.868-30.684-6.161-45.763c-13.079-1.434-48.692,4.909-54.247-4.838-4.535-7.949-3.687-12.888-3.687-12.888Z" transform="translate(-305.348 -226.003)" fill="#263238"/>
        <path id="Trazado_123830" data-name="Trazado 123830" d="M382.5,378.876l13.352-.626.919-5.01-14.8.5Z" transform="translate(-304.745 -225.366)" fill="#26aab7"/>
        <path id="Trazado_123831" data-name="Trazado 123831" d="M396.519,385.6a.808.808,0,0,0,.192-.788.545.545,0,0,0-.343-.414c-.768-.323-2.545.879-2.737,1.01a.132.132,0,0,0-.071.091.142.142,0,0,0,.111.172,7.719,7.719,0,0,0,1.667.242,1.717,1.717,0,0,0,1.182-.313Zm-.242-.939a.242.242,0,0,1,.141.212.505.505,0,0,1-.1.515c-.3.293-1.121.323-2.242.081C394.8,385.007,395.853,384.5,396.277,384.663Z" transform="translate(-304.63 -225.255)" fill="#26aab7"/>
        <path id="Trazado_123832" data-name="Trazado 123832" d="M393.8,385.658c.626-.364,1.576-1.656,1.434-2.343a.545.545,0,0,0-.515-.444.748.748,0,0,0-.646.212c-.636.606-.525,2.4-.515,2.485a.141.141,0,0,0,.081.121h.071Zm.828-2.495c.222,0,.263.121.283.212.091.444-.535,1.424-1.091,1.879a3.243,3.243,0,0,1,.434-2.02.415.415,0,0,1,.323-.121Z" transform="translate(-304.63 -225.27)" fill="#26aab7"/>
        <path id="Trazado_123833" data-name="Trazado 123833" d="M373.36,319.727s9.908-2.838,12.039,3.131-.364,35.077-3.313,41.592-8.373-43.693-8.373-43.693Z" transform="translate(-304.832 -225.908)" opacity="0.3"/>
        <path id="Trazado_123834" data-name="Trazado 123834" d="M373.545,392.917l6.05-.162-.465-14.685-6.05.151Z" transform="translate(-304.834 -225.318)" fill="#ff8b7b"/>
        <path id="Trazado_123835" data-name="Trazado 123835" d="M379.7,390.82l-7.02.444a.464.464,0,0,0-.444.464v5.565a1.111,1.111,0,0,0,1.172,1.01c2.434-.232,3.6-.424,6.686-.646a56.728,56.728,0,0,0,8.211-.788c2.555-.586,1.919-3.091.788-3.081a17.168,17.168,0,0,1-8.322-2.737A1.737,1.737,0,0,0,379.7,390.82Z" transform="translate(-304.843 -225.19)" fill="#263238"/>
        <path id="Trazado_123836" data-name="Trazado 123836" d="M383.029,391.362a.788.788,0,0,0,.131-.8.566.566,0,0,0-.364-.394c-.788-.263-2.474,1.081-2.666,1.232a.191.191,0,0,0-.05.091.141.141,0,0,0,.121.162,7.18,7.18,0,0,0,1.677.111A1.6,1.6,0,0,0,383.029,391.362Zm-.323-.909a.272.272,0,0,1,.182.192.535.535,0,0,1-.071.525c-.253.313-1.1.394-2.232.253.727-.515,1.737-1.1,2.151-.97Z" transform="translate(-304.764 -225.197)" fill="#26aab7"/>
        <path id="Trazado_123837" data-name="Trazado 123837" d="M380.373,391.658c.6-.414,1.444-1.808,1.252-2.444a.545.545,0,0,0-.556-.4.738.738,0,0,0-.636.242c-.586.646-.323,2.434-.323,2.515a.141.141,0,0,0,.091.111h.061a.141.141,0,0,0,.111-.02Zm.646-2.586c.212,0,.283.111.293.192.131.444-.434,1.464-.949,1.959a3.152,3.152,0,0,1,.293-2.02.414.414,0,0,1,.293-.151Z" transform="translate(-304.765 -225.21)" fill="#26aab7"/>
        <path id="Trazado_123838" data-name="Trazado 123838" d="M372.54,378.1l6.767-1.141.061,9.181-5.939.687Z" transform="translate(-304.84 -225.329)" opacity="0.2"/>
        <path id="Trazado_123839" data-name="Trazado 123839" d="M333.96,311s46.874,3.495,47.47,17.17c3.454,22.22.848,51.51.848,51.51l-11.231,2.343s-5.767-27.421-6.6-47.581c-11.474,1.929-35.077,5.484-43.167-.253-7.3-6.6-5.282-20.16-5.282-20.16Z" transform="translate(-305.408 -225.988)" fill="#263238"/>
        <path id="Trazado_123840" data-name="Trazado 123840" d="M369.46,385.061l13.726-1.161.283-6-15.039,1.555Z" transform="translate(-304.881 -225.319)" fill="#26aab7"/>
        <path id="Trazado_123841" data-name="Trazado 123841" d="M337,270.7c.263,1.071.5,2.02.788,2.969s.576,1.889.9,2.868c.626,1.889,1.343,3.757,2.121,5.656a46.8,46.8,0,0,0,6.292,11.049,21.79,21.79,0,0,0,2.485,2.626,13.43,13.43,0,0,0,3.384,2.222,14.745,14.745,0,0,0,7.535,1.222,20.973,20.973,0,0,0,6.535-1.757,26.08,26.08,0,0,0,2.838-1.475,13.793,13.793,0,0,0,1.333-.879c.424-.333.828-.616,1.323-1.01l-2.424-4.04-1.2.364-1.263.343c-.859.212-1.7.4-2.565.545a18.18,18.18,0,0,1-4.737.242,7.716,7.716,0,0,1-3.565-1.162,7.218,7.218,0,0,1-1.283-1.07,16.152,16.152,0,0,1-1.323-1.656,29.6,29.6,0,0,1-2.434-4.3c-.768-1.555-1.444-3.192-2.091-4.878s-1.232-3.394-1.818-5.111L347,270.865c-.263-.858-.545-1.778-.757-2.525Z" transform="translate(-305.195 -226.415)" fill="#ff8b7b"/>
        <path id="Trazado_123842" data-name="Trazado 123842" d="M336.145,265.509c3.777-5.131,9.817-3.484,13.433,4.383a77.481,77.481,0,0,1,4.828,13.019l-13.857,5.343C336.62,280.861,332.256,270.781,336.145,265.509Z" transform="translate(-305.219 -226.473)" fill="#26aab7"/>
        <path id="Trazado_123843" data-name="Trazado 123843" d="M336.145,265.509c3.777-5.131,9.817-3.484,13.433,4.383a77.481,77.481,0,0,1,4.828,13.019l-13.857,5.343C336.62,280.861,332.256,270.781,336.145,265.509Z" transform="translate(-305.219 -226.473)" fill="#b1a8d1" opacity="0.1"/>
        <path id="Trazado_123844" data-name="Trazado 123844" d="M342.233,273.591c-1.182-.747-3.4,3.878-4.323,9.292.828,1.848,1.717,3.616,2.6,5.262l8.333-3.232C347.293,279.924,344.879,275.277,342.233,273.591Z" transform="translate(-305.186 -226.363)" opacity="0.3"/>
        <path id="Trazado_123845" data-name="Trazado 123845" d="M370.422,287.9l3.03-1.768,1.293,6.818s-5.05,3.242-6.575.737l.1-1.768A5.605,5.605,0,0,1,370.422,287.9Z" transform="translate(-304.883 -226.237)" fill="#ff8b7b"/>
        <path id="Trazado_123846" data-name="Trazado 123846" d="M377.218,285.68l2.858,5.414-5.434,1.858-1.283-6.818Z" transform="translate(-304.832 -226.241)" fill="#ff8b7b"/>
        <path id="Trazado_123847" data-name="Trazado 123847" d="M336.155,261.058l-7.212-.778-8.878,1.06a6.221,6.221,0,0,0-5.424,5.262,159.388,159.388,0,0,0-1.182,19.736c-.081,7.434,1.091,18.382,2.606,28.28l29.744-4.565c-.535-26.058,1.172-34.2,1.2-41.117a6.222,6.222,0,0,0-4.5-6Z" transform="translate(-305.431 -226.495)" fill="#26aab7"/>
        <path id="Trazado_123848" data-name="Trazado 123848" d="M336.155,261.058l-7.212-.778-8.878,1.06a6.221,6.221,0,0,0-5.424,5.262,159.388,159.388,0,0,0-1.182,19.736c-.081,7.434,1.091,18.382,2.606,28.28l29.744-4.565c-.535-26.058,1.172-34.2,1.2-41.117a6.222,6.222,0,0,0-4.5-6Z" transform="translate(-305.431 -226.495)" fill="#b1a8d1"/>
        <path id="Trazado_123849" data-name="Trazado 123849" d="M317.449,264c5.929-1.232,6.06,12.3,3.666,22.281-.7,2.889-4.131,1.8-5.292,1.091C312,285.059,310.187,268.566,317.449,264Z" transform="translate(-305.44 -226.459)" opacity="0.3"/>
        <path id="Trazado_123850" data-name="Trazado 123850" d="M317.422,283.89c.414,5.848-1.343,8.969,1.828,10.817s21.806,7.383,22.22,6.605c-.848,1.434-1.677,2.666-2.525,4.111q-8-.939-16.008-1.7c-3.9-.374-10.191-1.172-13.312-3.535-2.828-2.141-2.646-11.928-2.4-18.978C309.665,279.688,317.422,283.89,317.422,283.89Z" transform="translate(-305.494 -226.29)" fill="#ff8b7b"/>
        <path id="Trazado_123851" data-name="Trazado 123851" d="M315.095,261.725c6.06-2.02,8.535,2.838,6.939,11.312a75.976,75.976,0,0,1-3.6,13.413l-12.928-3.636C306.672,274.511,308.924,263.765,315.095,261.725Z" transform="translate(-305.51 -226.486)" fill="#b1a8d1"/>
        <path id="Trazado_123852" data-name="Trazado 123852" d="M323.82,261.433a5.3,5.3,0,0,0,1.01,3.646,15.951,15.951,0,0,0,2.717,2.757c1.252,1.071,2.727,2.212,4.353,1.939s2.333-1.01,2.878-2.838c1.353,2.02,1.454,3.03,2.868,3.151a3.182,3.182,0,0,0,2.323-1.323,5.121,5.121,0,0,0,1.737-3.5c.253-2.636-1.959-5.05-4.464-5.848a31.11,31.11,0,0,0-7.848-1.3C327.1,257.918,324.2,258.737,323.82,261.433Z" transform="translate(-305.327 -226.517)" fill="#263238"/>
        <path id="Trazado_123853" data-name="Trazado 123853" d="M329.654,248.72l3.353,3.646,4.575,4.949a5.446,5.446,0,0,0-.848,1.838,3.1,3.1,0,0,0,1.343,3.858c.687.293,1.131,3.8-3.3,3.575A9.222,9.222,0,0,1,328,263.759c-.848-1.071-1.081-1.646-.283-2.858C330.028,257.467,330.028,252.588,329.654,248.72Z" transform="translate(-305.293 -226.611)" fill="#ff8b7b"/>
        <path id="Trazado_123854" data-name="Trazado 123854" d="M336.422,256.036l-2.9-3.6a1.254,1.254,0,0,1-.1.353,10.633,10.633,0,0,0-.222,1.6c-.111,1.828,1.676,4.111,3.373,5.05l.121-.374a6.914,6.914,0,0,1,.768-1.747.2.2,0,0,1,.081-.081Z" transform="translate(-305.233 -226.574)" opacity="0.2"/>
        <path id="Trazado_123855" data-name="Trazado 123855" d="M340.38,247.739c2.677-5.222,2.111-8.181,4.686-10.959,1.384-.616,3.808,1.939,2.192,6.282S340.38,247.739,340.38,247.739Z" transform="translate(-305.161 -226.731)" fill="#263238"/>
        <path id="Trazado_123856" data-name="Trazado 123856" d="M329.712,241.97c-.313,6.06-.758,9.585,1.949,12.928,4.04,5.05,11.817,3.03,13.908-2.889,1.879-5.282,2.02-14.3-3.616-17.231a8.4,8.4,0,0,0-11.322,3.656A8.283,8.283,0,0,0,329.712,241.97Z" transform="translate(-305.27 -226.76)" fill="#ff8b7b"/>
        <path id="Trazado_123857" data-name="Trazado 123857" d="M329.038,247.34l4.939,1.949-1.242-5.3,2.687-1.535,3.283-4.909s-7.07-2.081-9.221-2.363c-.747-.1-3.343,1.919-3.727,2.767a6.949,6.949,0,0,0,1.141,7.232A15.462,15.462,0,0,0,329.038,247.34Z" transform="translate(-305.313 -226.747)" fill="#263238"/>
        <path id="Trazado_123858" data-name="Trazado 123858" d="M331.492,229.082c1.555-.758,3.444.192,5.1.7a42.33,42.33,0,0,0,4.969,1.434,6.263,6.263,0,0,0,4.353-.535,3.08,3.08,0,0,0,1.323-3.848,6.424,6.424,0,0,1,.889,10.565,8.706,8.706,0,0,1-5.383,1.727,25.8,25.8,0,0,1-5.686-.788c-2.495-.535-6.06-.616-8.383-1.757S326.745,231.375,331.492,229.082Z" transform="translate(-305.292 -226.83)" fill="#263238"/>
        <path id="Trazado_123859" data-name="Trazado 123859" d="M326.77,246.227a5.555,5.555,0,0,0,1.838,3.484c1.333,1.131,2.868-.2,3.03-1.919.1-1.535-.737-3.747-2.313-4.222S326.568,244.551,326.77,246.227Z" transform="translate(-305.298 -226.664)" fill="#ff8b7b"/>
        <path id="Trazado_123860" data-name="Trazado 123860" d="M338.79,245.2c-.071.505.121.96.455,1.01s.606-.293.717-.788a.818.818,0,0,0-.444-1.01C339.184,244.349,338.871,244.7,338.79,245.2Z" transform="translate(-305.177 -226.654)" fill="#263238"/>
        <path id="Trazado_123861" data-name="Trazado 123861" d="M344.35,246.238c-.081.505.121,1.01.444,1.01a.829.829,0,0,0,.727-.778c.081-.485-.131-.96-.454-1.01S344.421,245.743,344.35,246.238Z" transform="translate(-305.122 -226.644)" fill="#263238"/>
        <path id="Trazado_123862" data-name="Trazado 123862" d="M342.519,246.27a16.3,16.3,0,0,0,1.192,4.1,2.434,2.434,0,0,1-2.07-.141Z" transform="translate(-305.149 -226.636)" fill="#ff5652"/>
        <path id="Trazado_123863" data-name="Trazado 123863" d="M340.789,253.02a4.323,4.323,0,0,1-2.9-1.808.167.167,0,0,1,.253-.2,4.151,4.151,0,0,0,3.242,1.727.152.152,0,0,1,.01.3h0A5.485,5.485,0,0,1,340.789,253.02Z" transform="translate(-305.186 -226.589)" fill="#263238"/>
        <path id="Trazado_123864" data-name="Trazado 123864" d="M338,243.263a.509.509,0,0,1-.121-.081.3.3,0,0,1,0-.424,2.818,2.818,0,0,1,2.576-.707.293.293,0,0,1,.212.354h0a.293.293,0,0,1-.374.2,2.283,2.283,0,0,0-2.02.576.283.283,0,0,1-.273.081Z" transform="translate(-305.187 -226.679)" fill="#263238"/>
        <path id="Trazado_123865" data-name="Trazado 123865" d="M344.87,243a.326.326,0,0,1,0-.141.3.3,0,0,1,.364-.222,2.828,2.828,0,0,1,2.02,1.717.3.3,0,0,1-.566.192,2.252,2.252,0,0,0-1.626-1.333.3.3,0,0,1-.192-.212Z" transform="translate(-305.117 -226.672)" fill="#263238"/>
      </g>
      <path id="Trazado_123866" data-name="Trazado 123866" d="M360.908,320.748l40.552-5.3a.768.768,0,0,0,.667-.858h0a.778.778,0,0,0-.859-.667l-40.561,5.3a.777.777,0,0,0-.656.868h0a.757.757,0,0,0,.858.657Z" transform="translate(-304.965 -186.62)" fill="#26aab7"/>
      <path id="Trazado_123867" data-name="Trazado 123867" d="M360.908,320.748l40.552-5.3a.768.768,0,0,0,.667-.858h0a.778.778,0,0,0-.859-.667l-40.561,5.3a.777.777,0,0,0-.656.868h0a.757.757,0,0,0,.858.657Z" transform="translate(-304.965 -186.62)" opacity="0.5"/>
      <path id="Trazado_123868" data-name="Trazado 123868" d="M341.118,320.465l19.675.242a.757.757,0,0,0,.778-.758h0a.768.768,0,0,0-.757-.778l-19.675-.242a.778.778,0,0,0-.778.758h0a.757.757,0,0,0,.758.778Z" transform="translate(-305.162 -186.57)" fill="#26aab7"/>
      <path id="Trazado_123869" data-name="Trazado 123869" d="M341.118,320.465l19.675.242a.757.757,0,0,0,.778-.758h0a.768.768,0,0,0-.757-.778l-19.675-.242a.778.778,0,0,0-.778.758h0a.757.757,0,0,0,.758.778Z" transform="translate(-305.162 -186.57)" fill="#fff" opacity="0.5"/>
      <path id="Trazado_123870" data-name="Trazado 123870" d="M362.026,319.836l-21.664-.172s-.727-.424.727-.707,20.261-2.767,20.261-2.767Z" transform="translate(-305.163 -186.597)" fill="#26aab7"/>
      <path id="Trazado_123871" data-name="Trazado 123871" d="M362.021,319.836l-21.149-.232s-.727-.434.727-.707,19.746-2.707,19.746-2.707Z" transform="translate(-305.158 -186.597)" fill="#26aab7"/>
      <path id="Trazado_123872" data-name="Trazado 123872" d="M362.021,319.836l-21.149-.232s-.727-.434.727-.707,19.746-2.707,19.746-2.707Z" transform="translate(-305.158 -186.597)" fill="#fff" opacity="0.2"/>
      <path id="Trazado_123873" data-name="Trazado 123873" d="M361.833,319.29l37.814-4.949a2.737,2.737,0,0,0,2.323-2.767l-.828-19.372a2.222,2.222,0,0,0-2.535-2.131l-37.814,4.979a2.737,2.737,0,0,0-2.323,2.777l.828,19.362a2.212,2.212,0,0,0,2.535,2.1Z" transform="translate(-304.981 -186.858)" fill="#26aab7"/>
      <path id="Trazado_123874" data-name="Trazado 123874" d="M361.833,319.29l37.814-4.949a2.737,2.737,0,0,0,2.323-2.767l-.828-19.372a2.222,2.222,0,0,0-2.535-2.131l-37.814,4.979a2.737,2.737,0,0,0-2.323,2.777l.828,19.362a2.212,2.212,0,0,0,2.535,2.1Z" transform="translate(-304.981 -186.858)" opacity="0.4"/>
      <path id="Trazado_123875" data-name="Trazado 123875" d="M362.923,319.09l37.814-4.939a2.747,2.747,0,0,0,2.323-2.778l-.828-19.352a2.222,2.222,0,0,0-2.535-2.141l-37.814,4.949a2.727,2.727,0,0,0-2.323,2.767l.828,19.372a2.212,2.212,0,0,0,2.535,2.121Z" transform="translate(-304.97 -186.86)" fill="#26aab7"/>
      <path id="Trazado_123876" data-name="Trazado 123876" d="M362.923,319.09l37.814-4.939a2.747,2.747,0,0,0,2.323-2.778l-.828-19.352a2.222,2.222,0,0,0-2.535-2.141l-37.814,4.949a2.727,2.727,0,0,0-2.323,2.767l.828,19.372a2.212,2.212,0,0,0,2.535,2.121Z" transform="translate(-304.97 -186.86)" fill="#fff" opacity="0.2"/>
      <path id="Trazado_123877" data-name="Trazado 123877" d="M347.159,274.561c-4.131-.869-8.454,3.121-9.656,8.888s1.172,11.16,5.3,12.019,8.464-3.121,9.666-8.9S351.3,275.42,347.159,274.561Zm-3.565,19.927c-2.636-.546-3.9-5.181-2.828-10.352s4.04-8.918,6.727-8.373,3.909,5.191,2.838,10.363S346.24,295.034,343.593,294.488Z" transform="translate(-305.193 -187.014)" fill="#263238"/>
      <path id="Trazado_123878" data-name="Trazado 123878" d="M350.289,286.1c-1.071,5.171-4.04,8.918-6.717,8.363s-3.909-5.181-2.838-10.352,4.04-8.918,6.727-8.373S351.369,280.942,350.289,286.1Z" transform="translate(-305.162 -187.002)" fill="#fff" opacity="0.5"/>
      <path id="Trazado_123879" data-name="Trazado 123879" d="M341.434,294.78,337,308.758s.232,1.727,2.262.869,3.515-14.362,3.515-14.362Z" transform="translate(-305.195 -186.811)" fill="#263238"/>
      <path id="Trazado_123880" data-name="Trazado 123880" d="M337.041,298.57l3.121-1.01v7.747s-6.777,1.828-7.3-1.3l.818-1.717C334.345,300.782,335.345,299.014,337.041,298.57Z" transform="translate(-305.237 -186.783)" fill="#ff8b7b"/>
      <path id="Trazado_123881" data-name="Trazado 123881" d="M344.878,299.55l-.788,4.373-4.03,1.374.04-7.747Z" transform="translate(-305.165 -186.783)" fill="#ff8b7b"/>
      <path id="Trazado_123882" data-name="Trazado 123882" d="M375.761,259.82l-.03.01-.04-.01.04-.01Z" transform="translate(-304.808 -187.161)" fill="#f0f0f0"/>
    </g>
    <g id="freepik--character-1--inject-398" transform="translate(74.528 147.698)">
      <g id="freepik--group--inject-398" transform="translate(1.739 11.042)">
        <path id="Trazado_123883" data-name="Trazado 123883" d="M145.484,172.55c.313-.061.657.273.758.747s-.061.939-.384,1.01-.657-.273-.758-.758S145.161,172.611,145.484,172.55Z" transform="translate(-74.816 -157.565)" fill="#263238"/>
        <path id="Trazado_123884" data-name="Trazado 123884" d="M146.47,178.925a2.848,2.848,0,0,0,2.222-.929,17.373,17.373,0,0,1-3.192-3.636Z" transform="translate(-74.812 -157.547)" fill="#b74d3c"/>
        <path id="Trazado_123885" data-name="Trazado 123885" d="M143,171.214a2.3,2.3,0,0,1,1.929-.838h.1a.293.293,0,0,0,0-.586,2.858,2.858,0,0,0-2.444,1.01.323.323,0,0,0-.071.192.313.313,0,0,0,.293.3A.364.364,0,0,0,143,171.214Z" transform="translate(-74.842 -157.592)" fill="#263238"/>
        <path id="Trazado_123886" data-name="Trazado 123886" d="M139.9,200.531c-8.322.091-9.6-4.434-9.6-4.434,2.475-2.424,2.6-6.868,2.071-10.827a8.817,8.817,0,0,0,2.475,2.363,7.554,7.554,0,0,0,6.06,1.091.172.172,0,0,0,.1,0,2,2,0,0,0,0,.242c-.495,3.171-.051,6.565,3.272,7.565C144.278,196.5,149.076,200.43,139.9,200.531Z" transform="translate(-74.964 -157.437)" fill="#b25b52"/>
        <path id="Trazado_123887" data-name="Trazado 123887" d="M141.263,187.551c-.091.384-.172.768-.232,1.172a.172.172,0,0,1-.1,0,7.555,7.555,0,0,1-6.06-1.091,8.819,8.819,0,0,1-2.475-2.363c-.131-1.01-.313-2.02-.495-2.889l9.09,4.959Z" transform="translate(-74.948 -157.466)" fill="#b25b52"/>
        <path id="Trazado_123888" data-name="Trazado 123888" d="M127.8,196.8s1.313-4.04,3.3-5.343,10.7.051,12.059.586,2.747,3.676,2.747,3.676Z" transform="translate(-74.989 -157.381)" fill="#26aab7"/>
        <path id="Trazado_123889" data-name="Trazado 123889" d="M123.637,209.779a4.646,4.646,0,0,0,1.858-9.09h0c-3.737-.808-7.585-1.757-11.332-2.717a81.885,81.885,0,0,1-8.575-2.242c-.9-.293-1.768-.636-2.626-1.01l-.475-.182a1.011,1.011,0,0,1-.222-.091,4.036,4.036,0,0,1-.646-.444c-1.182-1.081-9.09-11.373-10.595-14.867l-.051-.111a2.313,2.313,0,0,0-4.424,1.212c.475,4.242,8.252,18.564,9.837,20.392a12.319,12.319,0,0,0,1.667,1.495,11.211,11.211,0,0,0,1.879,1.131c1.01.475,7.737,2.495,11.736,3.656s7.888,2.111,12.009,2.889Z" transform="translate(-75.402 -157.514)" fill="#b25b52"/>
        <path id="Trazado_123890" data-name="Trazado 123890" d="M90.445,177.927v.808a1.879,1.879,0,0,1-1.111,1.858,9.09,9.09,0,0,1-4.484.566l1.242-6.969,3.424,2.222a1.939,1.939,0,0,1,.929,1.515Z" transform="translate(-75.419 -157.548)" fill="#b25b52"/>
        <path id="Trazado_123891" data-name="Trazado 123891" d="M86.169,174.19l-1.242,6.969-4.636-2.737-.1-6.292Z" transform="translate(-75.465 -157.569)" fill="#b25b52"/>
        <path id="Trazado_123892" data-name="Trazado 123892" d="M124.85,195.46c-1.788.263-8.858,1.778-14.726.121l-.384,11.989s10.191,5.05,14.807,1.4S132.061,198.753,124.85,195.46Z" transform="translate(-75.17 -157.336)" fill="#263238"/>
        <path id="Trazado_123893" data-name="Trazado 123893" d="M111.746,210.722l-4.606-2.07,1.323-14.332,4.292.778Z" transform="translate(-75.196 -157.347)" fill="#26aab7"/>
        <path id="Trazado_123894" data-name="Trazado 123894" d="M148.719,195.007c-1.343-.222-2.858-.424-4.394-.555a123.223,123.223,0,0,0-13.928.151l-3.03.293c-4.848.353-9.726,4.565-8.757,9.332,5.383,26.26,3.848,40.885,3.353,45.157l32.754-.354c3.394-26.967,2.454-40.562,1.131-47.167A8.676,8.676,0,0,0,148.719,195.007Z" transform="translate(-75.082 -157.347)" fill="#263238"/>
        <path id="Trazado_123895" data-name="Trazado 123895" d="M155.511,239.449l-1.01,9.514c2.091-16.887,2.515-28.522,2.212-36.491L144.27,204.16C149.855,221.784,151.683,227.35,155.511,239.449Z" transform="translate(-74.824 -157.249)" opacity="0.2"/>
        <path id="Trazado_123896" data-name="Trazado 123896" d="M147.254,180.924a8.423,8.423,0,0,1-4.04,7.07h-.071a6.816,6.816,0,0,1-2.02.869.172.172,0,0,1-.1,0,7.555,7.555,0,0,1-6.06-1.091,8.815,8.815,0,0,1-2.474-2.363c-1.636-2.232-2.313-5.222-3.485-9.423a8.473,8.473,0,0,1-.2-3.8,8.312,8.312,0,0,1,9.656-6.7C144.689,166.673,147.385,175.309,147.254,180.924Z" transform="translate(-74.98 -157.637)" fill="#b25b52"/>
        <path id="Trazado_123897" data-name="Trazado 123897" d="M143.02,187.828a6.815,6.815,0,0,1-2.02.869l.232-3.707S142.555,187.838,143.02,187.828Z" transform="translate(-74.857 -157.44)" opacity="0.2"/>
        <path id="Trazado_123898" data-name="Trazado 123898" d="M143.549,177.69a9.191,9.191,0,0,1-3.717,6.585,2.514,2.514,0,0,1-.889.434c-1.01.242-2.02-.667-2.535-1.646a9.988,9.988,0,0,1-.808-4.111c-.121-3.323.293-6.959,2.626-9.322a3.151,3.151,0,0,1,2.02-1.071C143.216,168.449,143.761,175.792,143.549,177.69Z" transform="translate(-74.911 -157.605)" fill="#263238"/>
        <path id="Trazado_123899" data-name="Trazado 123899" d="M130.645,162.889a3.272,3.272,0,0,0-3.838,4.787c-2.636.818-5.121,2.8-5.646,5.5s1.717,5.868,4.464,5.555a2.283,2.283,0,0,0,2.081,3.969c2.141,3.555,8.807,4.333,12.029,1.707.757-.616.212-1.262.374-2.222a2.263,2.263,0,0,0-1.182-2.454l.7-2.414-2.02-2.262c1.838-1.424,3.767-2.959,4.565-5.141s-.121-5.161-2.384-5.7a2.495,2.495,0,0,0,1.636-3.525,2.545,2.545,0,0,0-3.858-.4c-.636-.879-1.151-1.838-2.232-2.131C131.1,156.99,129.938,161.535,130.645,162.889Z" transform="translate(-75.056 -157.71)" fill="#263238"/>
        <path id="Trazado_123900" data-name="Trazado 123900" d="M142.025,173.241c1.757.515,2.666,3.091,2.737,4.737.091,1.808-1.121,2.949-2.7,1.737a6.828,6.828,0,0,1-2.414-3.7C139.186,174.251,140.247,172.736,142.025,173.241Z" transform="translate(-74.872 -157.559)" fill="#b25b52"/>
        <path id="Trazado_123901" data-name="Trazado 123901" d="M138.921,402.674a.151.151,0,0,1-.131-.121.162.162,0,0,1,.071-.162c.121-.051,2.363-1.394,3.454-1.121a.758.758,0,0,1,.5.354.565.565,0,0,1,0,.667c-.263.384-1.01.515-1.9.535a11.269,11.269,0,0,1-2-.151Zm3.03-1.151a6.9,6.9,0,0,0-2.545.889c1.222.141,2.868.1,3.161-.323.061-.061.1-.151,0-.343a.454.454,0,0,0-.313-.212.939.939,0,0,0-.293,0Z" transform="translate(-74.879 -155.278)" fill="#26aab7"/>
        <path id="Trazado_123902" data-name="Trazado 123902" d="M138.861,402.659a.182.182,0,0,1-.081-.141,4.182,4.182,0,0,1,.949-2.525,1.141,1.141,0,0,1,.869-.273c.424,0,.576.242.586.414.141.758-1.374,2.172-2.161,2.535H139A.181.181,0,0,1,138.861,402.659Zm1.636-2.646a.809.809,0,0,0-.535.232,3.646,3.646,0,0,0-.818,2.02c.8-.505,1.818-1.626,1.737-2.07,0,0,0-.172-.313-.172h-.081Z" transform="translate(-74.879 -155.293)" fill="#26aab7"/>
        <path id="Trazado_123903" data-name="Trazado 123903" d="M132.133,387.791l6.474-.121-.232,14.978-6.514.131Z" transform="translate(-74.948 -155.414)" fill="#b25b52"/>
        <path id="Trazado_123904" data-name="Trazado 123904" d="M139.923,402.234c4.484,2.626,5.858,2.727,11,3.747,1.121.222.475,2.949-2.212,3.03-4.434.081-4.909-.121-8.686,0-3.242.061-6.959.283-9.534.374h-.232a.939.939,0,0,1-.727-1.121l1.141-5.818a.576.576,0,0,1,.545-.455l7.12-.141A3.03,3.03,0,0,1,139.923,402.234Z" transform="translate(-74.972 -155.272)" fill="#263238"/>
        <path id="Trazado_123905" data-name="Trazado 123905" d="M132.121,387.8l-.131,7.7,6.5-.121.111-7.7Z" transform="translate(-74.947 -155.413)" opacity="0.2"/>
        <path id="Trazado_123906" data-name="Trazado 123906" d="M85.093,403.67a.151.151,0,0,1-.283,0c-.061-.111-1.353-2.363-1.01-3.444a.808.808,0,0,1,.354-.495.6.6,0,0,1,.687,0c.374.263.485,1.01.485,1.9A11.18,11.18,0,0,1,85.093,403.67Zm-1.081-3.03a6.838,6.838,0,0,0,.808,2.535c.172-1.212.162-2.848-.263-3.151,0-.061-.141-.1-.333,0a.444.444,0,0,0-.222.313,1.011,1.011,0,0,0,0,.293Z" transform="translate(-75.43 -155.294)" fill="#26aab7"/>
        <path id="Trazado_123907" data-name="Trazado 123907" d="M85.1,403.714a.141.141,0,0,1-.141.061,4.1,4.1,0,0,1-2.5-1.01,1.061,1.061,0,0,1-.263-.859c0-.424.253-.576.424-.576.747-.131,2.151,1.4,2.5,2.182v.061a.141.141,0,0,1-.02.141Zm-2.636-1.656a.879.879,0,0,0,.222.535,3.6,3.6,0,0,0,2.02.828c-.485-.8-1.586-1.838-2.02-1.757,0,0-.172,0-.172.3v.091Z" transform="translate(-75.445 -155.277)" fill="#26aab7"/>
        <path id="Trazado_123908" data-name="Trazado 123908" d="M88.444,388.61l6.323.323L91.353,404.1l-6.373-.323Z" transform="translate(-75.417 -155.404)" fill="#b25b52"/>
        <path id="Trazado_123909" data-name="Trazado 123909" d="M83.539,402.844c-1.707,2.02-2.606,3.121-7.585,4.787-1.1.364-.111,2.979,2.565,2.687,4.414-.475,2.02-.414,5.737-.828,3.222-.343,6.939-.6,9.5-.828a.8.8,0,0,0,.263,0,.949.949,0,0,0,.6-1.2l-1.848-5.616a.555.555,0,0,0-.6-.384l-7.07.758a2.222,2.222,0,0,0-1.566.626Z" transform="translate(-75.512 -155.276)" fill="#263238"/>
        <path id="Trazado_123910" data-name="Trazado 123910" d="M88.418,388.62l-1.768,7.787,6.343.333,1.757-7.807Z" transform="translate(-75.401 -155.404)" opacity="0.2"/>
        <path id="Trazado_123911" data-name="Trazado 123911" d="M122.266,248.875a67.337,67.337,0,0,0-5.747,12.191c-3.272,9.464-1.939,14.352-2.969,20.725-1.808,11.241-4.686,19.887-6.656,28.421-6.141,26.715-21.574,83.143-21.574,83.143l11.474,2.272s22.3-65.65,27.916-84.779c5.05-17.221,18.029-62.438,18.029-62.438Z" transform="translate(-75.414 -156.806)" fill="#26aab7"/>
        <path id="Trazado_123912" data-name="Trazado 123912" d="M122.266,248.875a67.337,67.337,0,0,0-5.747,12.191c-3.272,9.464-1.939,14.352-2.969,20.725-1.808,11.241-4.686,19.887-6.656,28.421-6.141,26.715-21.574,83.143-21.574,83.143l11.474,2.272s22.3-65.65,27.916-84.779c5.05-17.221,18.029-62.438,18.029-62.438Z" transform="translate(-75.414 -156.806)" fill="#cbc5e0"/>
        <path id="Trazado_123913" data-name="Trazado 123913" d="M84,389.85v4.04l13.8,1.2s1.121-4.464,1.071-4.464Z" transform="translate(-75.427 -155.392)" fill="#26aab7"/>
        <path id="Trazado_123914" data-name="Trazado 123914" d="M136.353,269c-4.04,14.2-9.262,32.169-12.029,41.592-.131.455-.273.929-.414,1.434.838-15.675,3.363-41.955,11.2-43.087a2.869,2.869,0,0,1,1.242.061Z" transform="translate(-75.028 -156.601)" opacity="0.3"/>
        <path id="Trazado_123915" data-name="Trazado 123915" d="M132.354,248.6s-2.444,43.167-2.4,63.559c.051,19,.313,83.274.313,83.274l11.019-.212s6.363-65.569,7.908-84.9c1.475-18.3,5.383-61.8,5.383-61.8Z" transform="translate(-74.968 -156.805)" fill="#26aab7"/>
        <path id="Trazado_123916" data-name="Trazado 123916" d="M132.354,248.6s-2.444,43.167-2.4,63.559c.051,19,.313,83.274.313,83.274l11.019-.212s6.363-65.569,7.908-84.9c1.475-18.3,5.383-61.8,5.383-61.8Z" transform="translate(-74.968 -156.805)" fill="#cbc5e0"/>
        <path id="Trazado_123917" data-name="Trazado 123917" d="M128.57,390.2l.454,4.04,13.393-.262s.535-4.535.485-4.535Z" transform="translate(-74.981 -155.396)" fill="#26aab7"/>
        <path id="Trazado_123918" data-name="Trazado 123918" d="M172.22,184.763l3.343-2.313c.768,3.636,4.222,6.474,6.848,8.161,1.252.808,1.717,2.646.828,3.262l-2.172,1.515C178.432,197.206,172.22,184.763,172.22,184.763Z" transform="translate(-74.545 -157.466)" fill="#26aab7"/>
        <path id="Trazado_123919" data-name="Trazado 123919" d="M171,185.8l7.656-5.313a5.5,5.5,0,0,0,1.394-7.646h0a5.525,5.525,0,0,0-7.656-1.394l-7.656,5.313a5.5,5.5,0,0,0-1.384,7.646h0A5.5,5.5,0,0,0,171,185.8Z" transform="translate(-74.643 -157.585)" fill="#26aab7"/>
        <path id="Trazado_123920" data-name="Trazado 123920" d="M171,185.8l7.656-5.313a5.5,5.5,0,0,0,1.394-7.646h0a5.525,5.525,0,0,0-7.656-1.394l-7.656,5.313a5.5,5.5,0,0,0-1.384,7.646h0A5.5,5.5,0,0,0,171,185.8Z" transform="translate(-74.643 -157.585)" opacity="0.3"/>
        <path id="Trazado_123921" data-name="Trazado 123921" d="M194.473,177.657l-14.362,6.06c-1.131.788-11.292-13.867-10.1-14.655l10.706-11.322Z" transform="translate(-74.568 -157.713)" fill="#26aab7"/>
        <path id="Trazado_123922" data-name="Trazado 123922" d="M186.419,168.426c3.818,5.494,7.373,9.635,7.949,9.231s-2.02-5.181-5.858-10.686-7.373-9.635-7.949-9.231S182.611,162.922,186.419,168.426Z" transform="translate(-74.462 -157.713)" fill="#26aab7"/>
        <path id="Trazado_123923" data-name="Trazado 123923" d="M186.419,168.426c3.818,5.494,7.373,9.635,7.949,9.231s-2.02-5.181-5.858-10.686-7.373-9.635-7.949-9.231S182.611,162.922,186.419,168.426Z" transform="translate(-74.462 -157.713)" opacity="0.3"/>
        <path id="Trazado_123924" data-name="Trazado 123924" d="M189.828,166.565c-.929-1.343-2.889-1.818-3.525-1.374s-.4,1.9.525,3.242,2.212,2.02,2.848,1.626A2.768,2.768,0,0,0,189.828,166.565Z" transform="translate(-74.408 -157.64)" fill="#26aab7"/>
        <path id="Trazado_123925" data-name="Trazado 123925" d="M171.16,191.427l1.01-2.848a8.969,8.969,0,0,1,3.333-4.333l2.141-1.485a.929.929,0,0,1,1.283.232,15.443,15.443,0,0,1,2.828,6.626,1.727,1.727,0,0,1-.707,1.555l-4.606,3.091c-.727.566-1.586.848-2.242.2Z" transform="translate(-74.555 -157.464)" fill="#b25b52"/>
        <path id="Trazado_123926" data-name="Trazado 123926" d="M176.489,192.205l-3.3,13.857c-.1.454-.222.889-.333,1.323-2.788,10.342-8.161,15.837-10.625,14.564s-7.888-7.333-7.888-7.333l6.131-4.838,1.757,1.475,9.6-20.725,1.363-2.889S177.489,187.61,176.489,192.205Z" transform="translate(-74.724 -157.414)" fill="#b25b52"/>
        <path id="Trazado_123927" data-name="Trazado 123927" d="M173,205.88l-.313,1.333h0C172.771,206.769,172.892,206.335,173,205.88Z" transform="translate(-74.54 -157.231)" fill="#b25b52"/>
        <path id="Trazado_123928" data-name="Trazado 123928" d="M155.109,197.9c5.616,4.6,9.09,14.372,9.09,14.372l-9.09,5.767s-11.918-8.454-10.989-16.483C144.787,195.4,148.171,192.2,155.109,197.9Z" transform="translate(-74.826 -157.341)" fill="#263238"/>
        <path id="Trazado_123929" data-name="Trazado 123929" d="M149.8,215.955l3.212,3.414,12.5-8.04-1.939-3.959Z" transform="translate(-74.769 -157.216)" fill="#26aab7"/>
      </g>
      <path id="Trazado_123930" data-name="Trazado 123930" d="M196.29,162.395,202.8,146.78l5.181,2.858Z" transform="translate(-72.565 -146.78)" fill="#263238"/>
      <path id="Trazado_123931" data-name="Trazado 123931" d="M196.95,167.867l16.9-.96-.99-5.838Z" transform="translate(-72.558 -146.637)" fill="#263238"/>
      <path id="Trazado_123932" data-name="Trazado 123932" d="M201.13,162.539l12.918-15.019,5.111,5.616Z" transform="translate(-72.517 -146.773)" fill="#263238"/>
      <path id="Trazado_123933" data-name="Trazado 123933" d="M73.79,158.48v13.675l12.827,6.787V164.106Z" transform="translate(-73.79 -146.663)" fill="#26aab7"/>
      <path id="Trazado_123934" data-name="Trazado 123934" d="M73.79,158.48v13.675l12.827,6.787V164.106Z" transform="translate(-73.79 -146.663)" opacity="0.1"/>
      <path id="Trazado_123935" data-name="Trazado 123935" d="M99.307,158.48v13.675L86.49,178.943V164.106Z" transform="translate(-73.663 -146.663)" fill="#26aab7"/>
      <path id="Trazado_123936" data-name="Trazado 123936" d="M99.307,158.48v13.675L86.49,178.943V164.106Z" transform="translate(-73.663 -146.663)" opacity="0.2"/>
      <path id="Trazado_123937" data-name="Trazado 123937" d="M73.79,158.544l12.827,5.626,12.817-5.626L86.617,152.1Z" transform="translate(-73.79 -146.727)" fill="#26aab7"/>
      <path id="Trazado_123938" data-name="Trazado 123938" d="M92.17,161.558v8.494l.667-1.111.4.6.424-.96.424.6V160.72Z" transform="translate(-73.606 -146.641)" fill="#263238"/>
      <path id="Trazado_123939" data-name="Trazado 123939" d="M92.3,161.619,79.23,155.761l2.111-1.071,12.877,6.09Z" transform="translate(-73.736 -146.701)" fill="#263238"/>
    </g>
    <g id="freepik--Device--inject-398" transform="translate(155.772 347.354)">
      <path id="Trazado_123940" data-name="Trazado 123940" d="M278.863,404.965H255.31c0-1.606,3.03-3.03,7.252-3.585v-10.1H271.6v10.1C275.863,401.956,278.863,403.35,278.863,404.965Z" transform="translate(-153.219 -343.991)" fill="#26aab7"/>
      <path id="Trazado_123941" data-name="Trazado 123941" d="M278.863,404.965H255.31c0-1.606,3.03-3.03,7.252-3.585v-10.1H271.6v10.1C275.863,401.956,278.863,403.35,278.863,404.965Z" transform="translate(-153.219 -343.991)" opacity="0.4"/>
      <rect id="Rectángulo_30119" data-name="Rectángulo 30119" width="76.538" height="41.158" transform="translate(75.75 9.03)" fill="#26aab7"/>
      <rect id="Rectángulo_30120" data-name="Rectángulo 30120" width="76.538" height="41.158" transform="translate(75.75 9.03)" opacity="0.2"/>
      <rect id="Rectángulo_30121" data-name="Rectángulo 30121" width="72.68" height="34.592" transform="translate(77.528 10.909)" opacity="0.2"/>
      <rect id="Rectángulo_30122" data-name="Rectángulo 30122" width="9.04" height="2.182" transform="translate(109.343 50.188)" opacity="0.2"/>
      <path id="Trazado_123942" data-name="Trazado 123942" d="M262.49,366.37v14.958l13.282-7.484Z" transform="translate(-153.147 -344.24)" fill="#fff"/>
      <path id="Trazado_123943" data-name="Trazado 123943" d="M224.75,347.69a2.111,2.111,0,0,1-2.02,1.9H209.3a1.7,1.7,0,0,1-1.727-1.9l.172-2.02h17.231Z" transform="translate(-153.697 -344.447)" fill="#26aab7"/>
      <path id="Trazado_123944" data-name="Trazado 123944" d="M198.151,350.116,193,408.868a5.1,5.1,0,0,0,5.161,5.656h24.452a6.3,6.3,0,0,0,6.151-5.656l5.141-58.752a5.1,5.1,0,0,0-5.161-5.656H204.292A6.3,6.3,0,0,0,198.151,350.116Z" transform="translate(-153.843 -344.459)" fill="#26aab7"/>
      <g id="Grupo_55334" data-name="Grupo 55334" transform="translate(39.127)" opacity="0.4">
        <path id="Trazado_123945" data-name="Trazado 123945" d="M224.75,347.69a2.111,2.111,0,0,1-2.02,1.9H209.3a1.7,1.7,0,0,1-1.727-1.9l.172-2.02h17.231Z" transform="translate(-192.824 -344.447)"/>
        <path id="Trazado_123946" data-name="Trazado 123946" d="M198.151,350.116,193,408.868a5.1,5.1,0,0,0,5.161,5.656h24.452a6.3,6.3,0,0,0,6.151-5.656l5.141-58.752a5.1,5.1,0,0,0-5.161-5.656H204.292A6.3,6.3,0,0,0,198.151,350.116Z" transform="translate(-192.97 -344.459)" fill="#26aab7"/>
      </g>
      <path id="Trazado_123947" data-name="Trazado 123947" d="M202.689,345.66h24.452a4.04,4.04,0,0,1,4.04,4.474l-5.131,58.752a5.05,5.05,0,0,1-4.868,4.474H196.76a4.04,4.04,0,0,1-4.04-4.474l5.141-58.752A4.979,4.979,0,0,1,202.689,345.66Z" transform="translate(-153.845 -344.447)" fill="#26aab7"/>
      <path id="Trazado_123948" data-name="Trazado 123948" d="M202.689,345.66h24.452a4.04,4.04,0,0,1,4.04,4.474l-5.131,58.752a5.05,5.05,0,0,1-4.868,4.474H196.76a4.04,4.04,0,0,1-4.04-4.474l5.141-58.752A4.979,4.979,0,0,1,202.689,345.66Z" transform="translate(-153.845 -344.447)" fill="#fff" opacity="0.3"/>
      <path id="Trazado_123949" data-name="Trazado 123949" d="M196.651,350.146,191.51,408.9a5.11,5.11,0,0,0,5.161,5.656h24.452a6.312,6.312,0,0,0,6.151-5.656l5.131-58.752a5.1,5.1,0,0,0-5.161-5.656H202.8A6.3,6.3,0,0,0,196.651,350.146Zm1.182,0a4.979,4.979,0,0,1,4.868-4.474h24.452a4.04,4.04,0,0,1,4.04,4.474L226.062,408.9a5.05,5.05,0,0,1-4.868,4.474H196.772a4.04,4.04,0,0,1-4.04-4.474Z" transform="translate(-153.857 -344.459)" fill="#fff"/>
      <path id="Trazado_123950" data-name="Trazado 123950" d="M223.43,345.69h0a3.424,3.424,0,0,1-3.343,3.03h-11.06a2.777,2.777,0,0,1-2.808-3.03h17.231Z" transform="translate(-153.71 -344.447)" fill="#fff"/>
      <path id="Trazado_123951" data-name="Trazado 123951" d="M211.438,381.579l-4.737-.929c.9,4.323-1.515,9.09-3.565,12.12-1.01,1.475-.606,3.707.646,3.959l3.091.606C210.61,398.093,211.438,381.579,211.438,381.579Z" transform="translate(-153.747 -344.097)" fill="#26aab7"/>
      <path id="Trazado_123952" data-name="Trazado 123952" d="M213.37,382.089,202.5,379.958a6.555,6.555,0,0,1-5.151-7.676h0a6.545,6.545,0,0,1,7.666-5.151l10.868,2.131a6.555,6.555,0,0,1,5.161,7.666h0A6.565,6.565,0,0,1,213.37,382.089Z" transform="translate(-153.8 -344.234)" fill="#26aab7"/>
      <path id="Trazado_123953" data-name="Trazado 123953" d="M213.37,382.089,202.5,379.958a6.555,6.555,0,0,1-5.151-7.676h0a6.545,6.545,0,0,1,7.666-5.151l10.868,2.131a6.555,6.555,0,0,1,5.161,7.666h0A6.565,6.565,0,0,1,213.37,382.089Z" transform="translate(-153.8 -344.234)" opacity="0.3"/>
      <path id="Trazado_123954" data-name="Trazado 123954" d="M183.92,384.41l18.523-.242c1.606.313,5.686-20.483,4.04-20.8l-17.059-7.222Z" transform="translate(-153.933 -344.342)" fill="#26aab7"/>
      <path id="Trazado_123955" data-name="Trazado 123955" d="M188.176,370.573c-1.525,7.8-3.434,14-4.252,13.837s-.242-6.615,1.293-14.423,3.434-14,4.252-13.837S189.711,362.766,188.176,370.573Z" transform="translate(-153.937 -344.342)" fill="#26aab7"/>
      <path id="Trazado_123956" data-name="Trazado 123956" d="M188.176,370.573c-1.525,7.8-3.434,14-4.252,13.837s-.242-6.615,1.293-14.423,3.434-14,4.252-13.837S189.711,362.766,188.176,370.573Z" transform="translate(-153.937 -344.342)" opacity="0.3"/>
      <path id="Trazado_123957" data-name="Trazado 123957" d="M183.551,370.172c.374-1.909,2.283-3.353,3.192-3.181s1.343,1.868,1.01,3.777-1.414,3.313-2.323,3.141S183.177,372.05,183.551,370.172Z" transform="translate(-153.937 -344.234)" fill="#26aab7"/>
      <path id="Trazado_123958" data-name="Trazado 123958" d="M216.269,386.673l-2.485-2.636a10.736,10.736,0,0,0-5.7-3.131l-3.03-.6a1.111,1.111,0,0,0-1.293.859c-.364,1.808-.9,5.545.081,8.565a2.02,2.02,0,0,0,1.5,1.363l6.494,1.172c1.06.263,2.131.162,2.535-.858Z" transform="translate(-153.739 -344.101)" fill="#ffc0ba"/>
      <path id="Trazado_123959" data-name="Trazado 123959" d="M214.742,393.145l11.181,14.817,1.111-12.736-10.868-8.615S211.449,388.63,214.742,393.145Z" transform="translate(-153.637 -344.038)" fill="#ffc0ba"/>
      <path id="Trazado_123960" data-name="Trazado 123960" d="M178.77,367.169l-12.867-11-3.323,4.9Z" transform="translate(-154.146 -344.342)" fill="#fff"/>
      <path id="Trazado_123961" data-name="Trazado 123961" d="M180.7,372.32l-15.5,6.767-1.757-5.646Z" transform="translate(-154.138 -344.181)" fill="#fff"/>
      <path id="Trazado_123962" data-name="Trazado 123962" d="M174.561,369.455l-18.3-7.575-2.03,7.323Z" transform="translate(-154.23 -344.285)" fill="#fff"/>
    </g>
    <g id="freepik--Target--inject-398" transform="translate(201.758 162.939)">
      <path id="Trazado_123963" data-name="Trazado 123963" d="M212.593,231.581,209.3,248.892h4.121l5.767-13.857S218.774,230.753,212.593,231.581Z" transform="translate(-199.665 -161.174)" fill="#26aab7"/>
      <path id="Trazado_123964" data-name="Trazado 123964" d="M248.325,231.581l3.293,17.311H247.5l-5.767-13.857S242.144,230.753,248.325,231.581Z" transform="translate(-199.34 -161.174)" fill="#26aab7"/>
      <path id="Trazado_123965" data-name="Trazado 123965" d="M212.593,231.581,209.3,248.892h4.121l5.767-13.857S218.774,230.753,212.593,231.581Z" transform="translate(-199.665 -161.174)" opacity="0.3"/>
      <path id="Trazado_123966" data-name="Trazado 123966" d="M248.325,231.581l3.293,17.311H247.5l-5.767-13.857S242.144,230.753,248.325,231.581Z" transform="translate(-199.34 -161.174)" opacity="0.3"/>
      <circle id="Elipse_4213" data-name="Elipse 4213" cx="30.916" cy="30.916" r="30.916" transform="translate(0 17.938)" fill="#c1507f"/>
      <circle id="Elipse_4214" data-name="Elipse 4214" cx="23.886" cy="23.886" r="23.886" transform="translate(7.424 24.967)" fill="#fff"/>
      <circle id="Elipse_4215" data-name="Elipse 4215" cx="19.19" cy="19.19" r="19.19" transform="translate(11.726 29.664)" fill="#c1507f"/>
      <circle id="Elipse_4216" data-name="Elipse 4216" cx="14.827" cy="14.827" r="14.827" transform="translate(16.089 34.027)" fill="#fff"/>
      <circle id="Elipse_4217" data-name="Elipse 4217" cx="4.282" cy="4.282" r="4.282" transform="translate(26.634 44.571)" fill="#c1507f"/>
      <path id="Trazado_123967" data-name="Trazado 123967" d="M264.439,161.87v7.838l-8.434,10.1H256l-1.586-6.121Z" transform="translate(-199.214 -161.87)" fill="#26aab7"/>
      <rect id="Rectángulo_30123" data-name="Rectángulo 30123" width="53.469" height="1.151" transform="translate(30.477 48.486) rotate(-50.07)" fill="#263238"/>
      <path id="Trazado_123968" data-name="Trazado 123968" d="M271.413,169.771l-8.363,9.959h-7.06l8.433-10.1Z" transform="translate(-199.198 -161.792)" fill="#26aab7"/>
      <path id="Trazado_123969" data-name="Trazado 123969" d="M271.413,169.771l-8.363,9.959h-7.06l8.433-10.1Z" transform="translate(-199.198 -161.792)" opacity="0.2"/>
    </g>
    <g id="freepik--Money--inject-398" transform="translate(263.691 206.685)">
      <path id="Trazado_123970" data-name="Trazado 123970" d="M272.027,214.088l-2.687-5.05s2.02-3.707,4.535-3.848,5.05,2.02,5.05,2.02l3.161-1.313-2.374,8.928S275.41,218.381,272.027,214.088Z" transform="translate(-260.997 -205.183)" fill="#26aab7"/>
      <path id="Trazado_123971" data-name="Trazado 123971" d="M292.946,232.9c0,11.332-7.131,15.938-15.928,15.938A15.938,15.938,0,0,1,261.08,232.9c0-8.8,7.131-20.028,15.938-20.028C277.018,212.87,292.946,222.526,292.946,232.9Z" transform="translate(-261.08 -205.107)" fill="#26aab7"/>
      <path id="Trazado_123972" data-name="Trazado 123972" d="M292.946,232.9c0,11.332-7.131,15.938-15.928,15.938A15.938,15.938,0,0,1,261.08,232.9c0-8.8,7.131-20.028,15.938-20.028C277.018,212.87,292.946,222.526,292.946,232.9Z" transform="translate(-261.08 -205.107)" opacity="0.2"/>
      <path id="Trazado_123973" data-name="Trazado 123973" d="M282.273,234.631c0,2.283-1.838,3.818-4.717,4.04l-.384,1.889h-1.717l.374-1.889a8.241,8.241,0,0,1-3.959-1.333l1.161-2.131a6.6,6.6,0,0,0,3.252,1.222l.586-2.909c-1.606-.485-3.363-1.121-3.363-3.2,0-2.293,1.879-3.838,4.808-4.04l.374-1.889h1.727l-.384,1.909a7.523,7.523,0,0,1,3.172,1.01l-1.01,2.141a5.626,5.626,0,0,0-2.565-.9l-.606,3.03C280.566,232.076,282.273,232.642,282.273,234.631Zm-4.929-3.565.505-2.474c-1.01.192-1.535.717-1.555,1.374S276.728,230.824,277.344,231.066Zm2.141,4.04c0-.505-.394-.808-1.01-1.01l-.465,2.353C278.95,236.207,279.485,235.732,279.485,235.106Z" transform="translate(-260.972 -204.991)" fill="#fff"/>
    </g>
  </g>
</svg>
