<svg xmlns="http://www.w3.org/2000/svg" width="222" height="189" viewBox="0 0 222 189">
  <g id="Grupo_55559" data-name="Grupo 55559" transform="translate(-177 -3368)">
    <g id="graficos-6-06" transform="translate(194.668 3354.486)" style="isolation: isolate">
      <g id="Layer_1" data-name="Layer 1" transform="translate(0 32.513)">
        <path id="Trazado_125312" data-name="Trazado 125312" d="M419.018,102.455c3.5,34.833,56.967,96.354,92.851,92.746s40.6-70.986,37.1-105.814-35.432-60.137-71.315-56.531S415.515,67.626,419.018,102.455Z" transform="translate(-377.621 -32.513)" fill="#b1a8d1"/>
        <path id="Trazado_125313" data-name="Trazado 125313" d="M0,251.274c0,39.421,70.955,82.477,110.1,82.477s81.2-43.062,81.2-82.477-16.515-66.121-74.317-36.232C82.158,233.048,0,211.847,0,251.274Z" transform="translate(0 -185.584)" fill="#a8dde2"/>
        <path id="Trazado_125314" data-name="Trazado 125314" d="M493.84,336.46h-52.6V340.6H432.26V442.2a4.3,4.3,0,0,0,4.292,4.293H538.633a7.809,7.809,0,0,0,7.808-7.807V336.46Z" transform="translate(-389.847 -306.637)" fill="gray" opacity="0.5" style="mix-blend-mode: multiply;isolation: isolate"/>
        <path id="Trazado_125315" data-name="Trazado 125315" d="M413.24,303.53v4.149h-8.98v101.6a4.3,4.3,0,0,0,4.291,4.294H510.634a7.809,7.809,0,0,0,7.809-7.807V303.53Z" transform="translate(-364.594 -276.938)" fill="#ececec"/>
        <path id="Trazado_125316" data-name="Trazado 125316" d="M1076.664,413.568a7.808,7.808,0,0,0,7.809-7.807V303.53h-52.6V413.568Z" transform="translate(-930.623 -276.938)" fill="#ddd"/>
        <path id="Trazado_125317" data-name="Trazado 125317" d="M413.222,446.969a4.683,4.683,0,0,1-4.688,4.686,4.294,4.294,0,0,1-4.294-4.294V345.76h8.978Z" transform="translate(-364.576 -315.024)" fill="#2e434d"/>
        <path id="Trazado_125318" data-name="Trazado 125318" d="M711.587,396.13h6.558V399.2h-1.122v11.505h-5.267l-5.49-8.452v5.379h1.124v3.073h-6.56v-3.073h1.125V399.2H700.83V396.13h6.953l4.927,7.533V399.2h-1.122Z" transform="translate(-632.065 -360.452)" fill="#7d6eb2"/>
        <path id="Trazado_125319" data-name="Trazado 125319" d="M892.039,399.2h-2.267v2.96h1.649V404.3h-1.649v3.336h2.267v-2.959h4.2v6.033H883.4v-3.073h1.124V399.2H883.4V396.13h12.836v5.66h-4.2Z" transform="translate(-796.721 -360.452)" fill="#7d6eb2"/>
        <path id="Trazado_125320" data-name="Trazado 125320" d="M1024.814,410.709l-2.6-11.505h-.751V396.13h7.44V399.2h-1.217l.916,7.026h.188l2.159-10.1h5.4l2.023,10.1h.184l.919-7.026h-1.216V396.13h6.5V399.2h-.748l-2.419,11.505h-6.537l-1.709-7.723h-.189l-1.8,7.721Z" transform="translate(-921.235 -360.452)" fill="#7d6eb2"/>
        <path id="Trazado_125321" data-name="Trazado 125321" d="M1268.524,404.953a1.574,1.574,0,0,0,.883-.188.644.644,0,0,0,.264-.56.605.605,0,0,0-.215-.46,3.221,3.221,0,0,0-.872-.458c-.926-.349-1.732-.687-2.427-1a7.467,7.467,0,0,1-1.722-1.059,3.667,3.667,0,0,1-1.021-1.359,4.7,4.7,0,0,1-.339-1.883,5.1,5.1,0,0,1,.328-1.882,3.392,3.392,0,0,1,1.068-1.426,5.132,5.132,0,0,1,1.968-.9,12.658,12.658,0,0,1,3.025-.308,13.906,13.906,0,0,1,3.075.327,8.788,8.788,0,0,1,2.4.871v3.354H1271a.812.812,0,0,0-.3-.739,1.276,1.276,0,0,0-.73-.2,1.847,1.847,0,0,0-.889.159.591.591,0,0,0-.272.552.5.5,0,0,0,.294.469,5.849,5.849,0,0,0,.869.337c.725.238,1.409.491,2.054.751a6.894,6.894,0,0,1,1.7.974,4.241,4.241,0,0,1,1.15,1.4,4.427,4.427,0,0,1,.424,2.025,4.258,4.258,0,0,1-1.57,3.625,7.548,7.548,0,0,1-4.612,1.189,18.023,18.023,0,0,1-3.316-.294,12.418,12.418,0,0,1-2.551-.713v-3.709h4.121a1.278,1.278,0,0,0,.224.833A1.194,1.194,0,0,0,1268.524,404.953Z" transform="translate(-1139.141 -358.051)" fill="#7d6eb2"/>
        <rect id="Rectángulo_30349" data-name="Rectángulo 30349" width="89.198" height="1.561" transform="translate(56.647 32.056)" fill="#9b9b9b"/>
        <rect id="Rectángulo_30350" data-name="Rectángulo 30350" width="89.198" height="1.562" transform="translate(56.647 52.307)" fill="#9b9b9b"/>
        <rect id="Rectángulo_30351" data-name="Rectángulo 30351" width="40.125" height="35.915" transform="translate(105.72 56.113)" fill="#9b9b9b"/>
        <rect id="Rectángulo_30352" data-name="Rectángulo 30352" width="43.754" height="8.326" transform="translate(57.493 57.025)" fill="#38a2b3"/>
        <rect id="Rectángulo_30353" data-name="Rectángulo 30353" width="43.754" height="2.342" transform="translate(57.493 68.474)" fill="#9b9b9b"/>
        <rect id="Rectángulo_30354" data-name="Rectángulo 30354" width="43.754" height="2.343" transform="translate(57.493 72.95)" fill="#9b9b9b"/>
        <rect id="Rectángulo_30355" data-name="Rectángulo 30355" width="43.754" height="2.341" transform="translate(57.493 77.427)" fill="#9b9b9b"/>
        <rect id="Rectángulo_30356" data-name="Rectángulo 30356" width="43.754" height="2.343" transform="translate(57.493 81.903)" fill="#9b9b9b"/>
        <rect id="Rectángulo_30357" data-name="Rectángulo 30357" width="43.754" height="2.342" transform="translate(57.493 86.378)" fill="#9b9b9b"/>
        <rect id="Rectángulo_30358" data-name="Rectángulo 30358" width="43.754" height="2.342" transform="translate(57.493 90.856)" fill="#9b9b9b"/>
        <rect id="Rectángulo_30359" data-name="Rectángulo 30359" width="21.879" height="31.122" transform="translate(57.493 96.82)" fill="#9b9b9b"/>
        <rect id="Rectángulo_30360" data-name="Rectángulo 30360" width="35.522" height="8.328" transform="translate(110.323 96.82)" fill="#30909e"/>
        <rect id="Rectángulo_30361" data-name="Rectángulo 30361" width="35.522" height="2.11" transform="translate(110.323 108.8)" fill="#9b9b9b"/>
        <rect id="Rectángulo_30362" data-name="Rectángulo 30362" width="35.522" height="2.112" transform="translate(110.323 113.32)" fill="#9b9b9b"/>
        <rect id="Rectángulo_30363" data-name="Rectángulo 30363" width="35.522" height="2.11" transform="translate(110.323 117.842)" fill="#9b9b9b"/>
        <rect id="Rectángulo_30364" data-name="Rectángulo 30364" width="35.522" height="2.11" transform="translate(110.323 122.365)" fill="#9b9b9b"/>
        <rect id="Rectángulo_30365" data-name="Rectángulo 30365" width="35.522" height="2.11" transform="translate(110.323 126.885)" fill="#9b9b9b"/>
        <rect id="Rectángulo_30366" data-name="Rectángulo 30366" width="21.877" height="31.122" transform="translate(83.843 96.82)" fill="#9b9b9b"/>
      </g>
    </g>
    <rect id="Rectángulo_30386" data-name="Rectángulo 30386" width="222" height="189" transform="translate(177 3368)" fill="none" opacity="0.685"/>
  </g>
</svg>
