<svg xmlns="http://www.w3.org/2000/svg" width="95" height="94" viewBox="0 0 95 94">
  <g id="Grupo_55845" data-name="Grupo 55845" transform="translate(805 -1157.09)">
    <ellipse id="Elipse_4355" data-name="Elipse 4355" cx="47.5" cy="47" rx="47.5" ry="47" transform="translate(-805 1157.09)" fill="#7d6eb2"/>
    <g id="Grupo_55849" data-name="Grupo 55849" transform="translate(-787.921 1172.508)">
      <g id="Grupo_55846" data-name="Grupo 55846" transform="translate(1.127 1.127)">
        <path id="Trazado_129647" data-name="Trazado 129647" d="M-649,1263.067a6.861,6.861,0,0,0-6.876-6.764h-20.854a6.861,6.861,0,0,0-6.876,6.764h-9.356a2.254,2.254,0,0,0-2.255,2.254v5.186h55.462v-5.186a2.254,2.254,0,0,0-2.255-2.254Z" transform="translate(695.221 -1256.303)" fill="#ccf"/>
        <path id="Trazado_129648" data-name="Trazado 129648" d="M-695.221,1369.136h55.462v36.749h-55.462Z" transform="translate(695.221 -1350.423)" fill="#ccf"/>
        <g id="Grupo_55845-2" data-name="Grupo 55845" transform="translate(0 14.204)">
          <path id="Trazado_129649" data-name="Trazado 129649" d="M-695.221,1341.948v4.509a4.607,4.607,0,0,0,4.622,4.509,4.607,4.607,0,0,0,4.622-4.509,4.607,4.607,0,0,0,4.622,4.509,4.607,4.607,0,0,0,4.622-4.509,4.607,4.607,0,0,0,4.622,4.509,4.607,4.607,0,0,0,4.622-4.509,4.607,4.607,0,0,0,4.622,4.509,4.607,4.607,0,0,0,4.622-4.509,4.607,4.607,0,0,0,4.622,4.509,4.607,4.607,0,0,0,4.622-4.509,4.607,4.607,0,0,0,4.622,4.509,4.607,4.607,0,0,0,4.622-4.509v-4.509Z" transform="translate(695.221 -1341.948)" fill="#ccf"/>
          <path id="Trazado_129650" data-name="Trazado 129650" d="M-641.58,1450.7h-9.244a2.254,2.254,0,0,0-2.254,2.255v20.967h13.753v-20.967A2.254,2.254,0,0,0-641.58,1450.7Z" transform="translate(660.067 -1432.667)" fill="#fff"/>
        </g>
      </g>
      <g id="Grupo_55848" data-name="Grupo 55848" transform="translate(0)">
        <path id="Trazado_129651" data-name="Trazado 129651" d="M-512.824,1443.906h-20.855a1.127,1.127,0,0,0-1.127,1.127v13.527a1.127,1.127,0,0,0,1.127,1.127h20.855a1.127,1.127,0,0,0,1.127-1.127v-13.527A1.127,1.127,0,0,0-512.824,1443.906Z" transform="translate(562.537 -1411.666)" fill="#fff"/>
        <g id="Grupo_55847" data-name="Grupo 55847">
          <path id="Trazado_129652" data-name="Trazado 129652" d="M-647.683,1256.269h-5.943a7.8,7.8,0,0,0-2.295-4.461,8.01,8.01,0,0,0-5.627-2.3H-682.4a8.01,8.01,0,0,0-5.627,2.3,7.8,7.8,0,0,0-2.295,4.461h-8.311a3.386,3.386,0,0,0-3.382,3.382v46.444a1.127,1.127,0,0,0,1.127,1.127h55.462a1.128,1.128,0,0,0,1.127-1.127v-46.444A3.386,3.386,0,0,0-647.683,1256.269Zm-52.08,9.695h6.989v3.382a3.486,3.486,0,0,1-3.494,3.382,3.486,3.486,0,0,1-3.495-3.382Zm9.244,0h6.989v3.382a3.486,3.486,0,0,1-3.495,3.382,3.486,3.486,0,0,1-3.494-3.382Zm9.244,0h6.989v3.382a3.486,3.486,0,0,1-3.495,3.382,3.486,3.486,0,0,1-3.495-3.382Zm9.244,0h6.989v3.382a3.486,3.486,0,0,1-3.495,3.382,3.486,3.486,0,0,1-3.495-3.382Zm9.244,0h6.989v3.382a3.486,3.486,0,0,1-3.494,3.382,3.486,3.486,0,0,1-3.495-3.382Zm9.244,0h6.989v3.382a3.486,3.486,0,0,1-3.495,3.382,3.486,3.486,0,0,1-3.494-3.382Zm-46.219-6.313a1.129,1.129,0,0,1,1.127-1.127h9.356a1.127,1.127,0,0,0,1.127-1.127,5.7,5.7,0,0,1,5.749-5.636h20.855a5.7,5.7,0,0,1,5.749,5.636,1.128,1.128,0,0,0,1.128,1.127h6.989a1.129,1.129,0,0,1,1.127,1.127v4.058h-53.208Zm18.487,33.367H-682.4a1.127,1.127,0,0,0-1.127,1.127,1.127,1.127,0,0,0,1.127,1.127h1.127v9.695h-11.5v-19.84a1.129,1.129,0,0,1,1.127-1.127h9.244a1.128,1.128,0,0,1,1.127,1.127Zm2.255,11.949v-19.84a3.386,3.386,0,0,0-3.382-3.382h-9.244a3.386,3.386,0,0,0-3.382,3.382v19.84h-4.735V1273.8a5.754,5.754,0,0,0,3.495,1.182,5.8,5.8,0,0,0,4.622-2.307,5.8,5.8,0,0,0,4.622,2.307,5.8,5.8,0,0,0,4.622-2.307,5.8,5.8,0,0,0,4.622,2.307,5.8,5.8,0,0,0,4.622-2.307,5.8,5.8,0,0,0,4.622,2.307,5.8,5.8,0,0,0,4.622-2.307,5.8,5.8,0,0,0,4.622,2.307,5.8,5.8,0,0,0,4.622-2.307,5.8,5.8,0,0,0,4.622,2.307,5.753,5.753,0,0,0,3.495-1.182v31.167Z" transform="translate(702.018 -1249.505)" fill="#fff"/>
          <path id="Trazado_129653" data-name="Trazado 129653" d="M-575.822,1292.543h16.233a1.127,1.127,0,0,0,1.127-1.127,1.127,1.127,0,0,0-1.127-1.127h-16.233a1.127,1.127,0,0,0-1.127,1.127A1.127,1.127,0,0,0-575.822,1292.543Z" transform="translate(597.691 -1283.525)" fill="#fff"/>
        </g>
      </g>
    </g>
  </g>
</svg>
