<svg xmlns="http://www.w3.org/2000/svg" width="82" height="82" viewBox="0 0 82 82">
  <g id="Grupo_55572" data-name="Grupo 55572" transform="translate(-293 -2542)">
    <g id="Grupo_55570" data-name="Grupo 55570" transform="translate(296.205 2552.863)">
      <path id="Trazado_125485" data-name="Trazado 125485" d="M698.486,2880.191H636.633a6.006,6.006,0,0,0-6.005,6v24.02a6.006,6.006,0,0,0,6.005,6.005h61.852a6.006,6.006,0,0,0,6.005-6.005V2886.2a6.006,6.006,0,0,0-6.005-6Zm0,0" transform="translate(-629.127 -2878.69)" fill="#ccf"/>
      <path id="Trazado_125486" data-name="Trazado 125486" d="M767.138,2985.191l-12.01,27.023h6.005v15.012h12.01v-15.012h6.005Zm0,0" transform="translate(-728.706 -2962.672)" fill="#fff"/>
      <path id="Trazado_125487" data-name="Trazado 125487" d="M693.87,2923.971l-4.9-1.377-2.824-4.235a1.5,1.5,0,0,0-2.5,0l-2.824,4.235-4.9,1.377a1.5,1.5,0,0,0-.773,2.375l3.156,3.994-.206,5.086a1.5,1.5,0,0,0,2.021,1.469l4.774-1.767,4.774,1.767a1.5,1.5,0,0,0,2.021-1.469l-.206-5.086,3.156-3.994a1.5,1.5,0,0,0-.773-2.375Zm0,0" transform="translate(-664.48 -2908.683)" fill="#fff"/>
      <path id="Trazado_125488" data-name="Trazado 125488" d="M873.87,2923.971l-4.9-1.377-2.824-4.235a1.5,1.5,0,0,0-2.5,0l-2.824,4.235-4.9,1.377a1.5,1.5,0,0,0-.773,2.375l3.156,3.994-.206,5.086a1.5,1.5,0,0,0,2.021,1.469l4.774-1.767,4.774,1.767a1.5,1.5,0,0,0,2.021-1.469l-.206-5.086,3.156-3.994a1.5,1.5,0,0,0-.773-2.375Zm0,0" transform="translate(-808.45 -2908.683)" fill="#fff"/>
      <path id="Trazado_125489" data-name="Trazado 125489" d="M692.487,2872.691H630.634a7.515,7.515,0,0,0-7.506,7.506v24.021a7.515,7.515,0,0,0,7.506,7.506h21.944l-4.4,9.9a1.5,1.5,0,0,0,1.372,2.111h4.5v13.512a1.5,1.5,0,0,0,1.5,1.5h12.01a1.5,1.5,0,0,0,1.5-1.5v-13.512h4.5a1.5,1.5,0,0,0,1.372-2.111l-4.4-9.9h21.944a7.515,7.515,0,0,0,7.506-7.506V2880.2a7.515,7.515,0,0,0-7.506-7.506Zm-24.921,48.041a1.5,1.5,0,0,0-1.5,1.5v13.511h-9.008v-13.511a1.5,1.5,0,0,0-1.5-1.5h-3.7l9.7-21.825c2.879,6.478,8.522,19.175,9.7,21.825Zm29.425-16.514a4.509,4.509,0,0,1-4.5,4.5H669.208l-6.276-14.121a1.5,1.5,0,0,0-2.743,0l-6.276,14.121H630.634a4.509,4.509,0,0,1-4.5-4.5V2880.2a4.509,4.509,0,0,1,4.5-4.5h61.852a4.509,4.509,0,0,1,4.5,4.5Zm0,0" transform="translate(-623.128 -2872.691)" fill="#5e5385"/>
    </g>
    <rect id="Rectángulo_30396" data-name="Rectángulo 30396" width="82" height="82" transform="translate(293 2542)" fill="none" opacity="0.616"/>
  </g>
</svg>
