<svg id="Grupo_55898" data-name="Grupo 55898" xmlns="http://www.w3.org/2000/svg" width="81.079" height="83.327" viewBox="0 0 81.079 83.327">
  <g id="Grupo_55884" data-name="Grupo 55884">
    <g id="Grupo_55883" data-name="Grupo 55883">
      <path id="Trazado_129674" data-name="Trazado 129674" d="M-3784.456-10491.18a2.011,2.011,0,0,0,2.011-2.011v-6.347a4.4,4.4,0,0,0-4.4-4.4h-42.549a2.011,2.011,0,0,0-1.422.589l-16.662,16.66a2.013,2.013,0,0,0-.589,1.424v60.256a4.4,4.4,0,0,0,4.4,4.4h56.822a4.4,4.4,0,0,0,4.4-4.4v-30.709a2.012,2.012,0,0,0-2.011-2.012,2.012,2.012,0,0,0-2.011,2.012v30.709a.375.375,0,0,1-.374.375h-56.823a.376.376,0,0,1-.376-.375v-58.245h12.265a4.4,4.4,0,0,0,4.4-4.4v-12.265h40.537a.375.375,0,0,1,.373.376v6.347A2.011,2.011,0,0,0-3784.456-10491.18Zm-46.945,3.531a.375.375,0,0,1-.374.375h-9.42l9.794-9.795Z" transform="translate(3848.063 10503.935)" fill="#fff"/>
    </g>
  </g>
  <g id="Grupo_55886" data-name="Grupo 55886" transform="translate(13.719 11.982)">
    <g id="Grupo_55885" data-name="Grupo 55885">
      <path id="Trazado_129675" data-name="Trazado 129675" d="M-3765.085-10484.2l-2.366-2.366a6.814,6.814,0,0,0-9.625,0l-18.785,18.785h-32.583a2.011,2.011,0,0,0-2.011,2.011,2.011,2.011,0,0,0,2.011,2.012h28.561l-12.105,12.1h-16.455a2.011,2.011,0,0,0-2.011,2.012,2.011,2.011,0,0,0,2.011,2.011h12.433l-.033.033a2.009,2.009,0,0,0-.515.885l-3.107,11.188h-8.778a2.011,2.011,0,0,0-2.011,2.011,2.011,2.011,0,0,0,2.011,2.012h10.307s.441-.049.506-.066l12.694-3.522a2.012,2.012,0,0,0,.884-.516l38.969-38.968A6.814,6.814,0,0,0-3765.085-10484.2Zm-50.163,47.795,1.642-5.912,4.27,4.271Zm9.772-3.47-6.3-6.3,32.167-32.168,6.3,6.3Zm37.546-37.545-2.534,2.534-6.3-6.3,2.534-2.534a2.785,2.785,0,0,1,3.935,0l2.366,2.366A2.786,2.786,0,0,1-3767.93-10477.419Z" transform="translate(3830.455 10488.556)" fill="#fff"/>
    </g>
  </g>
</svg>
