<svg id="Grupo_55894" data-name="Grupo 55894" xmlns="http://www.w3.org/2000/svg" xmlns:xlink="http://www.w3.org/1999/xlink" width="82.265" height="94.017" viewBox="0 0 82.265 94.017">
  <defs>
    <clipPath id="clip-path">
      <rect id="Rectángulo_30776" data-name="Rectángulo 30776" width="82.265" height="94.017" fill="none"/>
    </clipPath>
  </defs>
  <g id="Grupo_55893" data-name="Grupo 55893" transform="translate(0 0)" clip-path="url(#clip-path)">
    <path id="Trazado_129736" data-name="Trazado 129736" d="M-3842.111-9512.336l-7.444,13.387a1.835,1.835,0,0,0,.712,2.5,1.837,1.837,0,0,0,2.5-.712l7.58-13.629a34.686,34.686,0,0,0,12.851,2.453,34.686,34.686,0,0,0,12.851-2.453l7.58,13.629a1.836,1.836,0,0,0,2.5.712,1.837,1.837,0,0,0,.712-2.5l-7.445-13.385a34.923,34.923,0,0,0,18.694-30.894,34.758,34.758,0,0,0-8.968-23.327l5.5-5.5,14.2-3.549a1.835,1.835,0,0,0,1.392-1.782V-9588.4a1.838,1.838,0,0,0-1.836-1.838h-11.018a1.839,1.839,0,0,0-1.782,1.392l-3.549,14.2-5.5,5.5a34.757,34.757,0,0,0-23.325-8.966,34.928,34.928,0,0,0-34.889,34.89,34.922,34.922,0,0,0,18.693,30.894Zm51.784-74.229h7.748v7.748l-10.33,2.582Zm-35.588,12.119a31.086,31.086,0,0,1,20.725,7.895l-5.2,5.2a23.769,23.769,0,0,0-15.523-5.752,23.9,23.9,0,0,0-23.872,23.872,23.9,23.9,0,0,0,23.872,23.871,23.9,23.9,0,0,0,23.872-23.871,23.763,23.763,0,0,0-5.752-15.522l5.2-5.2a31.089,31.089,0,0,1,7.895,20.726,31.251,31.251,0,0,1-31.217,31.216,31.251,31.251,0,0,1-31.217-31.216,31.251,31.251,0,0,1,31.217-31.217Zm9.181,31.217a9.191,9.191,0,0,1-9.181,9.18,9.191,9.191,0,0,1-9.182-9.18,9.191,9.191,0,0,1,9.182-9.182,9.131,9.131,0,0,1,5.059,1.524l-6.358,6.357a1.841,1.841,0,0,0,0,2.6,1.841,1.841,0,0,0,2.6,0l6.358-6.359a9.132,9.132,0,0,1,1.525,5.06Zm-1.487-10.291a12.788,12.788,0,0,0-7.694-2.562,12.867,12.867,0,0,0-12.854,12.854,12.869,12.869,0,0,0,12.854,12.854,12.869,12.869,0,0,0,12.854-12.854,12.784,12.784,0,0,0-2.563-7.694l5.225-5.226a20.122,20.122,0,0,1,4.684,12.92,20.223,20.223,0,0,1-20.2,20.2,20.221,20.221,0,0,1-20.2-20.2,20.22,20.22,0,0,1,20.2-20.2,20.1,20.1,0,0,1,12.918,4.682Zm0,0" transform="translate(3860.988 9590.238)" fill="#fff"/>
  </g>
</svg>
