<svg xmlns="http://www.w3.org/2000/svg" width="486" height="284.766" viewBox="0 0 486 284.766">
  <g id="Discount-pana" transform="translate(-27.83 -50)">
    <g id="freepik--background-complete--inject-2" transform="translate(28.424 50)">
      <path id="Trazado_128537" data-name="Trazado 128537" d="M572.942,118.66l.7,2.479-2.233,15.788-4.165,1.159L569.452,123l-5.506,1.517.751,2.7-3.385.955-1.622-5.822Z" transform="translate(-186.763 -70.441)" fill="#e0e0e0"/>
      <path id="Trazado_128538" data-name="Trazado 128538" d="M596.679,124.664c.815,2.936-.625,6.089-5.351,7.4a11.876,11.876,0,0,1-6.812,0l.7-3.357a8.308,8.308,0,0,0,5.127.183c1.91-.534,2.872-1.664,2.5-3.013s-1.454-1.917-4.46-1.082l-4.214,1.18-1.742-9.558,10.1-2.809.836,3.083-6.911,1.917.618,3.224,1.348-.379C593.315,120.071,595.865,121.736,596.679,124.664Z" transform="translate(-193.533 -68.937)" fill="#e0e0e0"/>
      <path id="Trazado_128539" data-name="Trazado 128539" d="M602.177,115.129c-.744-2.7.267-4.916,2.493-5.534s4.214.7,4.986,3.455-.288,4.916-2.493,5.534S602.929,117.826,602.177,115.129Zm6.321-1.749c-.6-2.149-1.966-3.146-3.511-2.718s-2.2,2.009-1.6,4.144,1.945,3.153,3.512,2.718,2.17-1.987,1.573-4.144Zm6.257-6.454,1.4-.386-6.7,19.7-1.4.386Zm-.232,13.189c-.744-2.7.288-4.916,2.486-5.534s4.214.758,4.993,3.455-.267,4.916-2.493,5.534-4.263-.758-5.014-3.455Zm6.321-1.749c-.59-2.107-1.945-3.153-3.512-2.718s-2.205,1.987-1.6,4.136,1.966,3.146,3.512,2.718,2.135-2.009,1.545-4.136Z" transform="translate(-199.34 -66.832)" fill="#e0e0e0"/>
      <rect id="Rectángulo_30675" data-name="Rectángulo 30675" width="49.448" height="62.42" transform="translate(471.699 279.143) rotate(-179.55)" fill="#ebebeb"/>
      <path id="Trazado_128540" data-name="Trazado 128540" d="M669.8,361.206l-.878,60.432-7.81-.056,1.671-60.432Z" transform="translate(-216.956 -142.632)" fill="#fafafa"/>
      <path id="Trazado_128541" data-name="Trazado 128541" d="M589.994,360.58l28.366.225,49.448.386-49.5,6.51-.421,53.536-28.359-.218Z" transform="translate(-195.647 -142.462)" fill="#e0e0e0"/>
      <path id="Trazado_128542" data-name="Trazado 128542" d="M608.134,360.723,607,421.155l-8.414-.063,1.376-60.432Z" transform="translate(-198.344 -142.486)" fill="#fafafa"/>
      <path id="Trazado_128543" data-name="Trazado 128543" d="M634.936,327.02c0,.126-.836.281-2.36.428a61.609,61.609,0,0,1-6.482.288,36.3,36.3,0,0,1-9.677-1.271,6.935,6.935,0,0,1-1.4-.632,3.8,3.8,0,0,1-1.292-1.222,3.413,3.413,0,0,1-.52-1.8,6.769,6.769,0,0,1,.211-1.657,36.755,36.755,0,0,1,1.833-5.941,15.141,15.141,0,0,1,1.6-2.851,8.934,8.934,0,0,1,2.353-2.325,4.79,4.79,0,0,1,1.629-.7,4.213,4.213,0,0,1,1.8,0,7.122,7.122,0,0,1,2.732,1.489,28.372,28.372,0,0,1,6.433,7.381,23.653,23.653,0,0,1,2.606,6.019,5.259,5.259,0,0,1,.323,2.388c-.309.091-1-3.287-4.017-7.725a29.816,29.816,0,0,0-6.4-6.721,5.725,5.725,0,0,0-2.107-1.117,2.669,2.669,0,0,0-2.072.449,7.352,7.352,0,0,0-1.84,1.882,14.05,14.05,0,0,0-1.4,2.514,38.635,38.635,0,0,0-1.763,5.618,2.809,2.809,0,0,0,.049,2.107,3.364,3.364,0,0,0,1.777,1.194,22.992,22.992,0,0,0,2.437.646c.808.183,1.608.323,2.388.442,1.552.246,3.013.386,4.361.478,2.69.183,4.916.218,6.412.295A5.929,5.929,0,0,1,634.936,327.02Z" transform="translate(-202.693 -127.175)" fill="#e0e0e0"/>
      <path id="Trazado_128544" data-name="Trazado 128544" d="M642.69,326.432a7.913,7.913,0,0,1,2.563-.773c1.664-.379,4.094-.878,7.023-1.587a66.989,66.989,0,0,0,10.1-3.188,11.3,11.3,0,0,0,2.535-1.348,2.809,2.809,0,0,0,.815-.9,1.566,1.566,0,0,0,.14-1.025,5.663,5.663,0,0,0-.485-1.334c-.232-.5-.471-1-.7-1.51a24.386,24.386,0,0,0-1.615-2.907,12.587,12.587,0,0,0-2.107-2.451,8.041,8.041,0,0,0-2.514-1.622,4.017,4.017,0,0,0-2.605-.112,6.8,6.8,0,0,0-2.339,1.4,35.449,35.449,0,0,0-6.763,7.971,30.74,30.74,0,0,0-3.006,6.419,10.58,10.58,0,0,1-.878,2.507c-.14-.021-.133-.976.19-2.683a24.631,24.631,0,0,1,2.57-6.9,33.8,33.8,0,0,1,6.777-8.582A8.211,8.211,0,0,1,655.3,306a5.745,5.745,0,0,1,3.743.091,7.916,7.916,0,0,1,1.672.836,13.105,13.105,0,0,1,1.454,1.117,13.942,13.942,0,0,1,2.381,2.809,26.579,26.579,0,0,1,1.735,3.125l.7,1.552a6.931,6.931,0,0,1,.6,1.8,3.294,3.294,0,0,1-.344,2.149,4.509,4.509,0,0,1-1.32,1.454,12.643,12.643,0,0,1-2.95,1.517,57.982,57.982,0,0,1-10.471,2.893c-3.027.562-5.492.85-7.191,1.025A7.15,7.15,0,0,1,642.69,326.432Z" transform="translate(-211.473 -126.132)" fill="#fafafa"/>
      <rect id="Rectángulo_30676" data-name="Rectángulo 30676" width="72.687" height="20.661" transform="translate(458.03 218.6) rotate(-179.55)" fill="#e0e0e0"/>
      <rect id="Rectángulo_30677" data-name="Rectángulo 30677" width="65.699" height="20.661" transform="translate(477.781 218.749) rotate(-179.55)" fill="#ebebeb"/>
      <path id="Trazado_128545" data-name="Trazado 128545" d="M677.058,331.843,676.6,352.6l-7.662-.161.534-20.654Z" transform="translate(-219.287 -133.888)" fill="#fafafa"/>
      <path id="Trazado_128546" data-name="Trazado 128546" d="M599.1,331.339l-.744,20.57-8.421-.07.449-20.668Z" transform="translate(-195.769 -133.706)" fill="#fafafa"/>
      <rect id="Rectángulo_30678" data-name="Rectángulo 30678" width="22.586" height="28.513" transform="translate(482.555 279.663) rotate(-179.55)" fill="#ebebeb"/>
      <path id="Trazado_128547" data-name="Trazado 128547" d="M701.835,408.828l-.4,27.6-3.575-.021.766-27.607Z" transform="translate(-227.897 -156.817)" fill="#fafafa"/>
      <path id="Trazado_128548" data-name="Trazado 128548" d="M665.381,408.54l12.957.1,22.586.183-22.607,2.971-.2,24.454-12.95-.1Z" transform="translate(-218.165 -156.74)" fill="#e0e0e0"/>
      <path id="Trazado_128549" data-name="Trazado 128549" d="M673.661,408.608l-.513,27.607-3.849-.035.632-27.6Z" transform="translate(-219.395 -156.752)" fill="#fafafa"/>
      <path id="Trazado_128550" data-name="Trazado 128550" d="M685.7,393.015c0,.232-1.51.583-4.052.7a15.762,15.762,0,0,1-4.558-.5,2.662,2.662,0,0,1-1.489-1.025,2.023,2.023,0,0,1-.316-1.074,3.981,3.981,0,0,1,.1-.878,16.758,16.758,0,0,1,.857-2.809,7.364,7.364,0,0,1,.787-1.4,4.452,4.452,0,0,1,1.215-1.2,2.486,2.486,0,0,1,1.931-.344,3.679,3.679,0,0,1,1.4.787,12.685,12.685,0,0,1,2.957,3.511c1.271,2.325,1.257,4,1.039,4.031s-.7-1.4-2.107-3.329a13.99,13.99,0,0,0-2.908-2.893,2.064,2.064,0,0,0-.779-.414.744.744,0,0,0-.576.154,2.97,2.97,0,0,0-.7.737,5.9,5.9,0,0,0-.583,1.06,16.979,16.979,0,0,0-.787,2.479c-.105.393-.084.569-.049.611a1.075,1.075,0,0,0,.555.358,14.667,14.667,0,0,0,2.107.527c.7.126,1.348.211,1.953.274C684.132,392.629,685.7,392.741,685.7,393.015Z" transform="translate(-221.178 -149.559)" fill="#e0e0e0"/>
      <path id="Trazado_128551" data-name="Trazado 128551" d="M689.418,392.8c-.042-.267,1.65-.7,4.312-1.4a34.824,34.824,0,0,0,4.516-1.538,4.969,4.969,0,0,0,1.046-.569.84.84,0,0,0,.232-.26v-.162a7.806,7.806,0,0,0-.506-1.166,12.165,12.165,0,0,0-.7-1.271,5.618,5.618,0,0,0-.864-1.025,3.329,3.329,0,0,0-.983-.646,1.342,1.342,0,0,0-.885-.056,2.585,2.585,0,0,0-.906.534,16.9,16.9,0,0,0-3.09,3.476c-1.482,2.233-1.791,3.947-2.107,3.9-.112,0-.19-.471-.1-1.278a10.048,10.048,0,0,1,1.06-3.273,14.942,14.942,0,0,1,3.1-4.094,4.1,4.1,0,0,1,1.489-.934,3.047,3.047,0,0,1,2.015.035,3.721,3.721,0,0,1,.871.428,6.109,6.109,0,0,1,.7.548,7.02,7.02,0,0,1,1.173,1.4,12.517,12.517,0,0,1,.822,1.482c.112.246.218.485.33.7a3.751,3.751,0,0,1,.309.948,2.037,2.037,0,0,1-.211,1.285,2.569,2.569,0,0,1-.745.815,5.825,5.825,0,0,1-1.461.7,24.662,24.662,0,0,1-4.881,1.243C691.209,393.014,689.46,392.993,689.418,392.8Z" transform="translate(-225.361 -149.101)" fill="#fafafa"/>
      <rect id="Rectángulo_30679" data-name="Rectángulo 30679" width="33.197" height="9.439" transform="translate(476.313 252.006) rotate(-179.55)" fill="#e0e0e0"/>
      <rect id="Rectángulo_30680" data-name="Rectángulo 30680" width="30.009" height="9.439" transform="translate(485.332 252.079) rotate(-179.55)" fill="#ebebeb"/>
      <path id="Trazado_128552" data-name="Trazado 128552" d="M705.148,395.418l-.211,9.474-3.5-.07.246-9.432Z" transform="translate(-228.963 -152.825)" fill="#fafafa"/>
      <path id="Trazado_128553" data-name="Trazado 128553" d="M669.536,395.177l-.337,9.4-3.849-.028.211-9.446Z" transform="translate(-218.219 -152.739)" fill="#fafafa"/>
      <rect id="Rectángulo_30681" data-name="Rectángulo 30681" width="40.508" height="51.134" transform="translate(70.736 279.706) rotate(-179.55)" fill="#ebebeb"/>
      <path id="Trazado_128554" data-name="Trazado 128554" d="M104.371,377.582l-.716,49.512-6.4-.049,1.376-49.5Z" transform="translate(-49.091 -147.511)" fill="#fafafa"/>
      <path id="Trazado_128555" data-name="Trazado 128555" d="M39,377.07l23.239.183,40.508.316L62.2,382.906l-.344,43.858-23.232-.183Z" transform="translate(-31.637 -147.371)" fill="#e0e0e0"/>
      <path id="Trazado_128556" data-name="Trazado 128556" d="M53.857,377.189l-.92,49.5-6.9-.049,1.124-49.5Z" transform="translate(-33.846 -147.392)" fill="#fafafa"/>
      <path id="Trazado_128557" data-name="Trazado 128557" d="M75.372,349.147c0,.253-.7.513-1.917.766a34.6,34.6,0,0,1-9.13.492c-.7-.063-1.4-.14-2.107-.267a18.116,18.116,0,0,1-2.318-.506,6.6,6.6,0,0,1-1.369-.6,4.157,4.157,0,0,1-1.4-1.313,3.883,3.883,0,0,1-.6-2.016,6.574,6.574,0,0,1,.19-1.615,29.947,29.947,0,0,1,1.538-5.057,13.666,13.666,0,0,1,1.4-2.528,12.143,12.143,0,0,1,.962-1.138,6.426,6.426,0,0,1,1.271-1.032,5.063,5.063,0,0,1,1.693-.7,4.4,4.4,0,0,1,1.917.042,6.707,6.707,0,0,1,2.62,1.447,22.691,22.691,0,0,1,5.309,6.384,16.742,16.742,0,0,1,1.889,5.211c.2,1.292.1,2.037-.133,2.107-.541.133-1.4-2.521-3.933-5.9a25.648,25.648,0,0,0-5.211-5.127,3.547,3.547,0,0,0-1.327-.7,1.166,1.166,0,0,0-.9.253,3.835,3.835,0,0,0-.6.52c-.2.218-.414.492-.611.758a10.7,10.7,0,0,0-1.025,1.861,32.428,32.428,0,0,0-1.4,4.417,3.14,3.14,0,0,0-.133.744c0,.162,0,.176,0,.211a1.77,1.77,0,0,0,.906.576,18.39,18.39,0,0,0,1.861.548c.639.162,1.271.288,1.882.407,1.229.225,2.4.386,3.511.513,2.163.246,3.961.393,5.2.583S75.365,348.895,75.372,349.147Z" transform="translate(-36.968 -134.414)" fill="#e0e0e0"/>
      <path id="Trazado_128558" data-name="Trazado 128558" d="M82.118,348.64c-.091-.52,2.943-1.362,7.725-2.676a61.649,61.649,0,0,0,8.055-2.809,8.09,8.09,0,0,0,1.826-1,1.2,1.2,0,0,0,.372-.407c0-.063,0,0,0-.176a4.171,4.171,0,0,0-.323-.815l-.583-1.215a20.87,20.87,0,0,0-1.257-2.254,9.457,9.457,0,0,0-1.517-1.8,7.194,7.194,0,0,0-.871-.7,3.821,3.821,0,0,0-.829-.442,2.241,2.241,0,0,0-1.468-.105,4.467,4.467,0,0,0-1.566.927,30.57,30.57,0,0,0-5.541,6.159c-2.676,3.961-3.28,7.023-3.835,6.939-.239,0-.407-.85-.253-2.311a17.9,17.9,0,0,1,1.854-5.92,26.687,26.687,0,0,1,5.548-7.4,7.669,7.669,0,0,1,2.732-1.721,5.738,5.738,0,0,1,3.743.063,7.324,7.324,0,0,1,1.594.787,10.723,10.723,0,0,1,1.32,1,12.4,12.4,0,0,1,2.107,2.493,22.976,22.976,0,0,1,1.489,2.69l.59,1.292a6.8,6.8,0,0,1,.569,1.749,3.757,3.757,0,0,1-.407,2.423,4.678,4.678,0,0,1-1.4,1.524,11.027,11.027,0,0,1-2.669,1.341,43.09,43.09,0,0,1-8.786,2.191,45.073,45.073,0,0,1-5.991.513C82.961,349.012,82.153,348.893,82.118,348.64Z" transform="translate(-44.55 -133.542)" fill="#fafafa"/>
      <rect id="Rectángulo_30682" data-name="Rectángulo 30682" width="59.54" height="16.925" transform="translate(59.539 230.11) rotate(-179.55)" fill="#e0e0e0"/>
      <rect id="Rectángulo_30683" data-name="Rectángulo 30683" width="53.824" height="16.925" transform="translate(75.707 230.233) rotate(-179.55)" fill="#ebebeb"/>
      <path id="Trazado_128559" data-name="Trazado 128559" d="M110.321,353.529l-.372,17-6.278-.133.435-16.918Z" transform="translate(-51.002 -140.348)" fill="#fafafa"/>
      <path id="Trazado_128560" data-name="Trazado 128560" d="M46.458,353.113l-.6,16.855-6.9-.056.372-16.932Z" transform="translate(-31.735 -140.199)" fill="#fafafa"/>
      <path id="Trazado_128561" data-name="Trazado 128561" d="M131.992,72.222l.7,2.676-10.71,2.753-.548-2.107,4.144-6.566c.948-1.517.983-2.3.808-2.992-.288-1.117-1.222-1.566-2.718-1.18a3.561,3.561,0,0,0-2.57,2.17l-2.809-.927a6.85,6.85,0,0,1,4.916-4.08c3.16-.808,5.682.274,6.321,2.809.358,1.4.295,2.732-1.222,5.085l-2.465,3.912Z" transform="translate(-55.355 -53.485)" fill="#e0e0e0"/>
      <path id="Trazado_128562" data-name="Trazado 128562" d="M137.907,66.063c-1.2-4.684.7-8,4.214-8.891s6.756,1.089,7.957,5.766-.7,7.992-4.214,8.891S139.108,70.74,137.907,66.063Zm8.849-2.275c-.829-3.224-2.3-4.263-3.947-3.842s-2.409,2.044-1.58,5.26,2.3,4.263,3.926,3.849S147.585,67,146.756,63.787Z" transform="translate(-61.088 -52.073)" fill="#e0e0e0"/>
      <path id="Trazado_128563" data-name="Trazado 128563" d="M156.433,57.1c-.6-2.311.309-4.214,2.212-4.67s3.589.7,4.214,3.027-.33,4.214-2.212,4.67S157.023,59.4,156.433,57.1Zm5.387-1.4c-.478-1.847-1.629-2.718-2.943-2.374s-1.9,1.671-1.4,3.511,1.6,2.718,2.943,2.374,1.875-1.65,1.4-3.49Zm5.436-5.394,1.194-.3L162.4,66.679l-1.194.309Zm-.421,11.237c-.59-2.311.33-4.214,2.212-4.67s3.6.7,4.214,3.027-.309,4.214-2.212,4.663-3.617-.7-4.214-3.006Zm5.387-1.4c-.471-1.826-1.6-2.718-2.943-2.374s-1.9,1.65-1.4,3.511,1.629,2.711,2.943,2.374,1.875-1.657,1.412-3.476Z" transform="translate(-66.656 -50)" fill="#e0e0e0"/>
      <path id="Trazado_128564" data-name="Trazado 128564" d="M321.463,134.849c.056,2.9-2.107,5.618-7.023,5.675a11.77,11.77,0,0,1-6.58-1.728l1.489-3.069a8.428,8.428,0,0,0,4.916,1.461c1.987-.035,3.2-.864,3.181-2.268,0-1.3-1-2.107-3.252-2.051h-1.819l-.042-2.627,3.462-4.059-7.318.126-.049-3.2,12.023-.2.049,2.577L316.716,130C319.82,130.439,321.421,132.321,321.463,134.849Z" transform="translate(-111.791 -71.706)" fill="#e0e0e0"/>
      <path id="Trazado_128565" data-name="Trazado 128565" d="M329.769,131.3c-.1-5.7,2.971-8.94,7.184-9.017s7.416,3.09,7.514,8.758-2.964,8.947-7.206,9.017S329.867,136.964,329.769,131.3Zm10.731-.19c-.07-3.9-1.475-5.5-3.462-5.464s-3.308,1.678-3.238,5.618,1.468,5.5,3.427,5.464,3.336-1.714,3.273-5.618Z" transform="translate(-118.313 -71.518)" fill="#e0e0e0"/>
      <path id="Trazado_128566" data-name="Trazado 128566" d="M353.509,126.91c-.049-2.809,1.489-4.691,3.8-4.733s3.912,1.777,3.961,4.6-1.517,4.691-3.8,4.726S353.559,129.7,353.509,126.91Zm6.531-.112c-.042-2.233-1.117-3.511-2.711-3.511s-2.634,1.4-2.591,3.61,1.089,3.511,2.711,3.511S360.076,129.059,360.041,126.8Zm7.676-4.677h1.447L357.73,139.5h-1.447Zm-3.511,12.7c-.042-2.809,1.517-4.691,3.8-4.726s3.912,1.8,3.961,4.593-1.489,4.691-3.8,4.733-3.94-1.8-3.989-4.6Zm6.531-.112c-.035-2.205-1.089-3.511-2.711-3.511s-2.627,1.369-2.591,3.6,1.117,3.511,2.711,3.511,2.605-1.391,2.563-3.6Z" transform="translate(-125.381 -71.471)" fill="#e0e0e0"/>
      <path id="Trazado_128567" data-name="Trazado 128567" d="M441.213,60.189c-.337,2.191-2.24,3.856-5.78,3.315a8.659,8.659,0,0,1-4.523-2.044l1.468-2.023a6.026,6.026,0,0,0,3.35,1.65c1.44.218,2.416-.246,2.57-1.257s-.393-1.707-2.641-2.051L432.49,57.3l1.7-6.875,7.557,1.152-.351,2.3-5.169-.787-.555,2.318,1.011.155C440.349,56.123,441.55,57.991,441.213,60.189Z" transform="translate(-148.424 -50.125)" fill="#f5f5f5"/>
      <path id="Trazado_128568" data-name="Trazado 128568" d="M447.69,58.9c.625-4.094,3.245-6.068,6.321-5.618s4.958,3.125,4.333,7.22-3.231,6.061-6.321,5.618S447.072,62.989,447.69,58.9Zm7.725,1.18c.428-2.809-.386-4.137-1.819-4.354s-2.584.8-3.013,3.617.379,4.129,1.8,4.347,2.62-.794,3.048-3.6Z" transform="translate(-153.385 -50.959)" fill="#f5f5f5"/>
      <path id="Trazado_128569" data-name="Trazado 128569" d="M465.545,58.511c.309-2.016,1.65-3.188,3.315-2.936s2.591,1.756,2.282,3.792-1.664,3.188-3.315,2.936S465.236,60.534,465.545,58.511Zm10.836-1.7,1.046.162-10.387,11.1-1.046-.162Zm-6.089,2.423c.246-1.615-.372-2.683-1.524-2.858s-2.058.7-2.3,2.275.351,2.676,1.524,2.858,2.023-.667,2.268-2.275Zm1.987,6.278c.309-2.016,1.664-3.188,3.315-2.936s2.591,1.777,2.282,3.792-1.65,3.188-3.315,2.936-2.627-1.77-2.318-3.792Zm4.712.7c.239-1.594-.351-2.683-1.524-2.858s-2.058.66-2.3,2.268.372,2.69,1.524,2.865,2.023-.688,2.268-2.254Z" transform="translate(-158.718 -51.65)" fill="#f5f5f5"/>
      <path id="Trazado_128570" data-name="Trazado 128570" d="M42.046,148.726,39.476,159.7l-2.514-.576,2.107-8.94-2.2-.513.478-2.044Z" transform="translate(-31.116 -79.065)" fill="#f5f5f5"/>
      <path id="Trazado_128571" data-name="Trazado 128571" d="M45.039,155.651c.843-3.624,3.336-5.211,6.033-4.579s4.214,3.16,3.371,6.777-3.315,5.211-6.033,4.579S44.19,159.275,45.039,155.651Zm6.854,1.6c.583-2.493-.056-3.736-1.327-4.031s-2.374.534-2.957,3.027.049,3.736,1.306,4.031S51.3,159.746,51.894,157.253Z" transform="translate(-33.477 -80.05)" fill="#f5f5f5"/>
      <path id="Trazado_128572" data-name="Trazado 128572" d="M70.924,155.717l.927.218L61.78,165.156l-.92-.218Zm-9.832.766c.421-1.791,1.707-2.746,3.181-2.4s2.2,1.756,1.777,3.561-1.714,2.739-3.174,2.4-2.177-1.777-1.763-3.561Zm4.172.976c.337-1.4-.14-2.43-1.159-2.669s-1.9.464-2.226,1.875.126,2.43,1.166,2.669,1.91-.414,2.24-1.875Zm1.348,5.773c.414-1.791,1.714-2.739,3.174-2.4s2.2,1.777,1.784,3.561-1.707,2.746-3.181,2.4-2.177-1.777-1.756-3.561Zm4.179.976c.33-1.4-.126-2.43-1.159-2.669s-1.9.449-2.226,1.875.14,2.43,1.159,2.669S70.474,165.619,70.79,164.208Z" transform="translate(-38.258 -80.965)" fill="#f5f5f5"/>
    </g>
    <g id="freepik--Plant--inject-2" transform="translate(41.152 134.654)">
      <path id="Trazado_128573" data-name="Trazado 128573" d="M118.436,304.577A50.613,50.613,0,0,0,70.16,291.331,87.962,87.962,0,0,0,119,306.592" transform="translate(-53.754 -206.024)" fill="#26aab7"/>
      <path id="Trazado_128574" data-name="Trazado 128574" d="M109.569,211.111c2.016-14.228-3.511-30.2-14.165-40.571-.351,14.1,5.618,29.967,14.165,40.571" transform="translate(-61.265 -170.54)" fill="#26aab7"/>
      <path id="Trazado_128575" data-name="Trazado 128575" d="M112.911,252.438A75.96,75.96,0,0,0,78,219.1a47.946,47.946,0,0,0,35.016,33.492" transform="translate(-56.088 -184.997)" fill="#26aab7"/>
      <path id="Trazado_128576" data-name="Trazado 128576" d="M110.14,267.528c-8.589.239-17.29-.063-25.6-2.261S68.276,258.84,62.77,252.26a85.567,85.567,0,0,1,47.215,14.4" transform="translate(-51.554 -194.869)" fill="#26aab7"/>
      <path id="Trazado_128577" data-name="Trazado 128577" d="M124,234.034c4.361-16.349,11.56-27.656,24.4-36.814A33.991,33.991,0,0,1,124,234.034" transform="translate(-69.783 -178.483)" fill="#26aab7"/>
      <path id="Trazado_128578" data-name="Trazado 128578" d="M163.959,280.28a24.187,24.187,0,0,0-14.7-22.41c.7,8.427,7.346,18.2,14.7,22.41" transform="translate(-77.303 -196.539)" fill="#26aab7"/>
      <path id="Trazado_128579" data-name="Trazado 128579" d="M176,257.113a36.051,36.051,0,0,1,23.618-30.753c-2.943,13.66-10.836,25.03-23.618,30.753" transform="translate(-85.264 -187.158)" fill="#26aab7"/>
      <path id="Trazado_128580" data-name="Trazado 128580" d="M167.23,300.787c3.027-4.333,7.971-7.023,13.091-8.371s10.464-1.454,15.752-1.566A36.821,36.821,0,0,1,167.63,302.7" transform="translate(-82.653 -206.357)" fill="#26aab7"/>
      <path id="Trazado_128581" data-name="Trazado 128581" d="M158.48,353.827a40.354,40.354,0,0,1,49.266,23.337c-17.894-3.385-35.557-11.342-49.266-23.337" transform="translate(-80.048 -224.57)" fill="#26aab7"/>
      <path id="Trazado_128582" data-name="Trazado 128582" d="M128.192,337.35c2.971,8.786,2.4,19.411-4.214,26.982a32.221,32.221,0,0,1,4.214-26.982" transform="translate(-69.396 -220.201)" fill="#26aab7"/>
      <path id="Trazado_128583" data-name="Trazado 128583" d="M105.23,330.4a33.078,33.078,0,0,1-18.26,26.828,2.051,2.051,0,0,1-1.615.26c-.808-.323-.878-1.4-.78-2.289,1.292-11.237,9.635-22.143,20.654-24.8" transform="translate(-58.036 -218.132)" fill="#26aab7"/>
      <path id="Trazado_128584" data-name="Trazado 128584" d="M86.4,328.244a27.116,27.116,0,0,1-39.6.2c12.585-1.4,27.116-2.3,39.6-.2" transform="translate(-46.8 -217.12)" fill="#26aab7"/>
      <path id="Trazado_128585" data-name="Trazado 128585" d="M100.51,185.47a2.3,2.3,0,0,0,.112.372c.1.26.225.611.386,1.06.358.955.864,2.325,1.517,4.08s1.461,3.933,2.367,6.461l1.454,4.038c.5,1.4,1.025,2.964,1.573,4.558,2.233,6.377,4.705,14.046,7.381,22.544s5.387,17.958,8.1,27.9,5.049,19.482,7.065,28.183,3.652,16.574,4.867,23.218q.47,2.486.892,4.733c.26,1.5.5,2.914.7,4.214.456,2.641.843,4.916,1.11,6.791s.506,3.294.66,4.3c.077.471.14.843.183,1.117a2.359,2.359,0,0,0,.077.379,2.275,2.275,0,0,0,0-.386c-.035-.274-.077-.646-.14-1.124-.133-1.011-.323-2.458-.569-4.312s-.6-4.158-1.025-6.805c-.218-1.327-.442-2.746-.7-4.249s-.555-3.076-.857-4.741c-1.18-6.658-2.809-14.53-4.769-23.253s-4.361-18.26-7.023-28.211-5.485-19.369-8.14-27.9-5.2-16.153-7.479-22.523q-.843-2.388-1.608-4.544l-1.489-4.031c-.934-2.521-1.742-4.684-2.444-6.44s-1.229-3.1-1.6-4.045l-.428-1.046a2.755,2.755,0,0,0-.169-.33Z" transform="translate(-62.79 -174.985)" fill="#263238"/>
      <path id="Trazado_128586" data-name="Trazado 128586" d="M184.386,236.75a1.35,1.35,0,0,0-.218.2l-.6.632c-.527.562-1.285,1.4-2.233,2.5a87.884,87.884,0,0,0-7.416,9.888,66.094,66.094,0,0,0-7.725,16.581c-2.107,6.595-3.371,14.1-4.649,21.94-2.563,15.7-5.7,29.756-7.978,39.925-1.145,5.064-2.107,9.165-2.725,12.044-.309,1.4-.555,2.493-.7,3.273-.077.358-.133.639-.183.857a1.516,1.516,0,0,0-.042.295A1.4,1.4,0,0,0,150,344.6c.056-.211.133-.492.225-.843.2-.773.464-1.861.815-3.252.7-2.865,1.664-6.96,2.872-12.009,2.36-10.148,5.555-24.208,8.118-39.925,1.285-7.838,2.556-15.317,4.6-21.891a67.133,67.133,0,0,1,7.613-16.525,94.019,94.019,0,0,1,7.269-9.944c.927-1.124,1.664-1.98,2.17-2.563.232-.274.421-.492.562-.667a1.6,1.6,0,0,0,.14-.232Z" transform="translate(-77.497 -190.251)" fill="#263238"/>
      <path id="Trazado_128587" data-name="Trazado 128587" d="M97.84,327.994a1.516,1.516,0,0,0,.449.084l1.306.14.941.1,1.11.162c.8.119,1.714.239,2.7.456l1.566.316,1.671.421c1.166.26,2.367.7,3.652,1.075a53.59,53.59,0,0,1,7.971,3.511,44.714,44.714,0,0,1,7.149,4.972,35.345,35.345,0,0,1,2.739,2.634,27.647,27.647,0,0,1,2.17,2.507,25.2,25.2,0,0,1,1.608,2.212,17.641,17.641,0,0,1,1.1,1.777l.667,1.131a1.764,1.764,0,0,0,.26.379,1.551,1.551,0,0,0-.176-.428l-.59-1.173a14.085,14.085,0,0,0-1.039-1.8,24.2,24.2,0,0,0-1.559-2.275,28.54,28.54,0,0,0-2.149-2.57,34.6,34.6,0,0,0-2.746-2.69,42.928,42.928,0,0,0-7.206-5.049,51.349,51.349,0,0,0-8.062-3.511c-1.3-.379-2.514-.794-3.694-1.039l-1.693-.4-1.58-.281c-1-.2-1.924-.295-2.732-.393l-1.124-.126-.948-.049-1.313-.084a1.745,1.745,0,0,0-.456,0Z" transform="translate(-61.995 -217.411)" fill="#263238"/>
      <path id="Trazado_128588" data-name="Trazado 128588" d="M92.73,237.17a6.138,6.138,0,0,0,.892.878l2.591,2.247c2.205,1.882,5.267,4.453,8.666,7.276s6.5,5.358,8.758,7.17l2.69,2.107a5.782,5.782,0,0,0,1.025.7,6.138,6.138,0,0,0-.906-.878l-2.591-2.247c-2.205-1.882-5.267-4.453-8.666-7.276s-6.5-5.351-8.751-7.163l-2.69-2.107a6.951,6.951,0,0,0-1.018-.709Z" transform="translate(-60.474 -190.376)" fill="#263238"/>
      <path id="Trazado_128589" data-name="Trazado 128589" d="M88.32,260.887c0,.126,6.573,2.191,14.748,4.614s14.868,4.277,14.9,4.151-6.573-2.2-14.748-4.614S88.362,260.761,88.32,260.887Z" transform="translate(-59.161 -197.435)" fill="#263238"/>
      <path id="Trazado_128590" data-name="Trazado 128590" d="M123.08,241.474a5.934,5.934,0,0,0,.7-.948l1.742-2.655c1.475-2.24,3.575-5.288,6.061-8.54s4.874-6.075,6.637-8.09c.829-.955,1.531-1.756,2.107-2.388a6.054,6.054,0,0,0,.7-.913,4.627,4.627,0,0,0-.871.78c-.534.527-1.292,1.306-2.212,2.289-1.826,1.966-4.27,4.776-6.763,8.034s-4.551,6.356-5.962,8.638c-.7,1.145-1.257,2.107-1.615,2.746a4.972,4.972,0,0,0-.527,1.046Z" transform="translate(-69.509 -184.651)" fill="#263238"/>
      <path id="Trazado_128591" data-name="Trazado 128591" d="M155.76,264.61a22.847,22.847,0,0,0,1.552,2.549c.99,1.552,2.332,3.708,3.715,6.145s2.556,4.7,3.392,6.321a22.471,22.471,0,0,0,1.4,2.634,15.613,15.613,0,0,0-1.1-2.809c-.751-1.685-1.882-3.975-3.273-6.433s-2.809-4.586-3.849-6.1a15.448,15.448,0,0,0-1.847-2.31Z" transform="translate(-79.238 -198.545)" fill="#263238"/>
      <path id="Trazado_128592" data-name="Trazado 128592" d="M167,302.131c.035.063,1.292-.555,3.357-1.482s4.916-2.107,8.2-3.287,6.271-1.987,8.463-2.542a30.609,30.609,0,0,0,3.511-.941,3.785,3.785,0,0,0-.983.105c-.632.091-1.531.26-2.641.5a72.341,72.341,0,0,0-8.547,2.43,73.5,73.5,0,0,0-8.189,3.427c-1.018.506-1.826.934-2.381,1.257a4.04,4.04,0,0,0-.794.534Z" transform="translate(-82.584 -207.259)" fill="#263238"/>
      <path id="Trazado_128593" data-name="Trazado 128593" d="M158.14,354.67a1.608,1.608,0,0,0,.407.133l1.194.3,4.4,1.018a144.6,144.6,0,0,1,14.355,3.792,63.558,63.558,0,0,1,13.4,6.321c1.6,1.018,2.851,1.917,3.694,2.57a13.724,13.724,0,0,0,1.327.983,3.223,3.223,0,0,0-.295-.316c-.2-.2-.506-.478-.92-.815a38.687,38.687,0,0,0-3.624-2.711,58.728,58.728,0,0,0-13.421-6.461,118.7,118.7,0,0,0-14.446-3.666l-4.431-.92A11.107,11.107,0,0,0,158.14,354.67Z" transform="translate(-79.947 -225.357)" fill="#263238"/>
      <path id="Trazado_128594" data-name="Trazado 128594" d="M126.3,357.941c.126,0,.913-4.614,1.756-10.352s1.4-10.408,1.278-10.429-.913,4.621-1.756,10.359S126.168,357.927,126.3,357.941Z" transform="translate(-70.462 -220.144)" fill="#263238"/>
      <path id="Trazado_128595" data-name="Trazado 128595" d="M93.16,347.513a24.882,24.882,0,0,0,2.107-2.493c1.257-1.566,3-3.722,4.972-6.068s3.792-4.438,5.12-5.948a23.3,23.3,0,0,0,2.107-2.493,3.351,3.351,0,0,0-.7.569c-.407.393-.976.969-1.678,1.7-1.4,1.454-3.259,3.512-5.239,5.864s-3.68,4.544-4.874,6.166c-.6.815-1.067,1.482-1.4,1.945a3.005,3.005,0,0,0-.407.758Z" transform="translate(-60.602 -218.164)" fill="#263238"/>
      <path id="Trazado_128596" data-name="Trazado 128596" d="M159.892,385.46v11.5h-2.879l-10.218,32.27H124.117l-9.9-31.954-3.835-.316v-11.5Z" transform="translate(-65.728 -234.523)" fill="#455a64"/>
      <path id="Trazado_128597" data-name="Trazado 128597" d="M113.11,402.189c0,.133,10.008.246,22.354.246s22.361-.112,22.361-.246-10.008-.239-22.361-.239S113.11,402.055,113.11,402.189Z" transform="translate(-66.541 -239.432)" fill="#263238"/>
      <path id="Trazado_128598" data-name="Trazado 128598" d="M89.89,296.94a9.029,9.029,0,0,0,1.454.393l3.975.962c3.357.829,7.964,2.107,12.957,3.764s9.432,3.462,12.641,4.832l3.75,1.636a9.6,9.6,0,0,0,1.4.569,8.49,8.49,0,0,0-1.313-.737c-.857-.45-2.107-1.061-3.694-1.784a130.687,130.687,0,0,0-25.62-8.617c-1.686-.372-3.062-.646-4.017-.808A9.38,9.38,0,0,0,89.89,296.94Z" transform="translate(-59.628 -208.17)" fill="#263238"/>
      <path id="Trazado_128599" data-name="Trazado 128599" d="M123.83,427.709c0,.133,7.023.239,15.682.239s15.689-.105,15.689-.239-7.023-.239-15.689-.239S123.83,427.575,123.83,427.709Z" transform="translate(-69.732 -247.03)" fill="#fafafa"/>
      <path id="Trazado_128600" data-name="Trazado 128600" d="M122.57,423.9c0,.133,7.444.239,16.623.239s16.63-.105,16.63-.239-7.444-.239-16.63-.239S122.57,423.772,122.57,423.9Z" transform="translate(-69.357 -245.896)" fill="#fafafa"/>
    </g>
    <g id="freepik--Label--inject-2" transform="translate(219.45 89.16)">
      <path id="Trazado_128601" data-name="Trazado 128601" d="M536.278,296.182l-46.822-52.6a19.833,19.833,0,0,0-14.664-6.644L320.646,235.82a19.819,19.819,0,0,0-19.966,19.868l.26,109.15a19.819,19.819,0,0,0,19.9,19.777l153.612-.646a19.811,19.811,0,0,0,14.945-6.861l47.1-54.779a19.833,19.833,0,0,0-.225-26.146Zm-26.055,18.962a30.007,30.007,0,1,1,0-.028Z" transform="translate(-300.68 -144.48)" fill="#26aab7"/>
      <g id="Grupo_55761" data-name="Grupo 55761" transform="translate(0 91.34)" opacity="0.4">
        <path id="Trazado_128602" data-name="Trazado 128602" d="M536.278,296.182l-46.822-52.6a19.833,19.833,0,0,0-14.664-6.644L320.646,235.82a19.819,19.819,0,0,0-19.966,19.868l.26,109.15a19.819,19.819,0,0,0,19.9,19.777l153.612-.646a19.811,19.811,0,0,0,14.945-6.861l47.1-54.779a19.833,19.833,0,0,0-.225-26.146Zm-26.055,18.962a30.007,30.007,0,1,1,0-.028Z" transform="translate(-300.68 -235.819)"/>
      </g>
      <path id="Trazado_128603" data-name="Trazado 128603" d="M547.819,296.182l-46.843-52.6a19.847,19.847,0,0,0-14.664-6.644L332.166,235.82A19.812,19.812,0,0,0,312.2,255.688l.253,109.15a19.826,19.826,0,0,0,19.973,19.777l153.605-.646a19.826,19.826,0,0,0,14.945-6.861l47.1-54.779A19.826,19.826,0,0,0,547.819,296.182Zm-26.048,18.962a29.851,29.851,0,1,1,0-.028Z" transform="translate(-304.11 -144.48)" fill="#26aab7"/>
      <path id="Trazado_128604" data-name="Trazado 128604" d="M385.239,307.465c.119-13.231,8.273-21.567,19.706-21.455s19.32,8.477,19.2,21.813-8.175,21.567-19.6,21.462S385.113,320.7,385.239,307.465Zm27.691.26c.077-8.428-3.132-12.48-8.069-12.522-4.818-.049-8.224,4.066-8.3,12.367s3.252,12.473,8.069,12.522c4.937.042,8.224-3.961,8.3-12.367Zm38.76-20.366,13.344.126-54.322,77.954-13.344-.126ZM438.262,345c.126-13.231,8.273-21.567,19.6-21.462,11.433.112,19.425,8.6,19.306,21.82s-8.273,21.532-19.713,21.413C446.17,366.675,438.143,358.191,438.262,345Zm27.579.253c.077-8.294-3.132-12.473-8.069-12.515-4.818-.049-8.217,3.954-8.294,12.367s3.245,12.473,8.062,12.522c4.937.014,8.224-4.108,8.294-12.409Z" transform="translate(-325.853 -159.421)" fill="#fff"/>
      <path id="Trazado_128605" data-name="Trazado 128605" d="M623.857,361.42a7.157,7.157,0,0,1,1.538,1.1c.962.766,2.367,1.917,4.143,3.441s3.94,3.406,6.37,5.675,5.155,4.916,7.971,8.055a81.631,81.631,0,0,1,8.378,10.935l1,1.594.941,1.664a36.5,36.5,0,0,1,1.784,3.511,21.975,21.975,0,0,1,2.009,8.1,12.8,12.8,0,0,1-.646,4.417,11.386,11.386,0,0,1-2.318,3.982,14.945,14.945,0,0,1-8.034,4.593,21.857,21.857,0,0,1-9.488-.225,41.506,41.506,0,0,1-9.01-3.322,56.31,56.31,0,0,1-15.106-11.237,72.674,72.674,0,0,1-5.836-6.784q-2.641-3.462-5.028-6.889a131.329,131.329,0,0,1-14.327-25.76c-.773-1.959-1.44-3.842-2.016-5.654-.281-.906-.548-1.791-.766-2.669a16.57,16.57,0,0,1-.513-2.591,6.426,6.426,0,0,1,1.159-4.712,6.854,6.854,0,0,1,3.329-2.318,9.329,9.329,0,0,1,1.671-.386,9.129,9.129,0,0,1,1.5-.035,7.062,7.062,0,0,1,2.289.5,4.648,4.648,0,0,1,1.222.751c.239.218.344.337.323.365s-.169-.049-.435-.211a5.408,5.408,0,0,0-1.236-.555,7.233,7.233,0,0,0-2.177-.309,10.086,10.086,0,0,0-1.4.112,9.123,9.123,0,0,0-1.524.435,6.187,6.187,0,0,0-2.865,2.163,5.5,5.5,0,0,0-.843,4.073,15.373,15.373,0,0,0,.548,2.437c.232.843.52,1.7.815,2.584q.92,2.655,2.107,5.534a135.412,135.412,0,0,0,14.5,25.283q2.388,3.371,5.035,6.791a71.73,71.73,0,0,0,5.738,6.6,55.262,55.262,0,0,0,14.636,10.872,40.212,40.212,0,0,0,8.638,3.188,20.2,20.2,0,0,0,8.708.246,13.3,13.3,0,0,0,7.107-4,10.324,10.324,0,0,0,2.584-7.206,20.458,20.458,0,0,0-1.854-7.522,35.543,35.543,0,0,0-1.678-3.4l-.878-1.622-.955-1.587a82.739,82.739,0,0,0-8.069-10.878c-2.711-3.146-5.344-5.843-7.725-8.175s-4.438-4.284-6.145-5.878l-3.877-3.68A7.72,7.72,0,0,1,623.857,361.42Z" transform="translate(-385.274 -177.251)" fill="#263238"/>
      <path id="Trazado_128606" data-name="Trazado 128606" d="M532.656,186.744c-.1,0-2.065-13.73-4.4-30.7s-4.136-30.732-4.031-30.746,2.065,13.73,4.4,30.7S532.761,186.73,532.656,186.744Z" transform="translate(-367.231 -111.577)" fill="#263238"/>
      <path id="Trazado_128607" data-name="Trazado 128607" d="M606.155,105.76a.88.88,0,0,1-.063.211l-.225.611-.892,2.339-3.343,8.582c-2.809,7.248-6.658,17.276-10.745,28.422s-7.634,21.279-10.162,28.632c-1.257,3.659-2.275,6.63-2.985,8.715-.351,1-.625,1.8-.822,2.367-.091.253-.169.449-.225.611a1.053,1.053,0,0,1-.084.2.736.736,0,0,1,.049-.218l.19-.625c.176-.569.428-1.4.751-2.388.66-2.072,1.643-5.064,2.879-8.751,2.472-7.374,5.984-17.557,10.071-28.675s7.957-21.167,10.836-28.394c1.4-3.61,2.627-6.531,3.462-8.54l.962-2.311c.105-.246.2-.442.26-.6Z" transform="translate(-382.826 -105.76)" fill="#263238"/>
      <path id="Trazado_128608" data-name="Trazado 128608" d="M658.62,182.72c.063.077-9.987,7.95-22.473,17.557s-22.614,17.375-22.677,17.29,9.994-7.95,22.473-17.557S658.564,182.635,658.62,182.72Z" transform="translate(-393.8 -128.671)" fill="#263238"/>
      <path id="Trazado_128609" data-name="Trazado 128609" d="M494.268,206.964c-.084.063-3.968-4.916-8.68-11.068s-8.477-11.237-8.427-11.286,3.968,4.916,8.68,11.068S494.345,206.9,494.268,206.964Z" transform="translate(-353.219 -129.234)" fill="#263238"/>
      <path id="Trazado_128610" data-name="Trazado 128610" d="M659.38,268.17c0,.1-6.187-1.615-13.758-3.82s-13.681-4.073-13.653-4.172,6.187,1.615,13.758,3.82S659.415,268.072,659.38,268.17Z" transform="translate(-399.307 -151.73)" fill="#263238"/>
      <path id="Trazado_128611" data-name="Trazado 128611" d="M544.99,268.144l4.565-2.627,2.423-4.677,2.634,4.565,4.677,2.43-4.565,2.627-2.43,4.677-2.627-4.565Z" transform="translate(-373.413 -151.928)" fill="#fff"/>
      <path id="Trazado_128612" data-name="Trazado 128612" d="M509.85,259.836l1.6-.92.85-1.636.92,1.594,1.636.85-1.6.92-.85,1.636-.92-1.594Z" transform="translate(-362.951 -150.869)" fill="#fff"/>
      <path id="Trazado_128613" data-name="Trazado 128613" d="M532.29,304.754l3.09-1.777,1.643-3.167,1.777,3.09,3.167,1.643-3.09,1.777-1.643,3.167-1.777-3.09Z" transform="translate(-369.632 -163.53)" fill="#fff"/>
    </g>
    <g id="freepik--Floor--inject-2" transform="translate(27.83 329.182)">
      <path id="Trazado_128614" data-name="Trazado 128614" d="M511.7,447.713c0,.1-108.329.183-241.926.183s-241.94-.084-241.94-.183,108.3-.183,241.94-.183S511.7,447.607,511.7,447.713Z" transform="translate(-27.83 -447.53)" fill="#263238"/>
    </g>
    <g id="freepik--Character--inject-2" transform="translate(106.321 139.101)">
      <path id="Trazado_128615" data-name="Trazado 128615" d="M215.31,430.06s-29.293,8.118-30.508,8.533c-1.763.618-1.468,7.093,1.285,7.023,1.3-.049,22.523.787,25.205.618s9.9-3.013,9.9-3.013Z" transform="translate(-152.725 -252.248)" fill="#455a64"/>
      <path id="Trazado_128616" data-name="Trazado 128616" d="M209.882,443.519a25.637,25.637,0,0,0-1.292-3.146c-.948-1.615-2.163-2.585-2.072-2.7a5.011,5.011,0,0,1,2.5,2.451A5.332,5.332,0,0,1,209.882,443.519Z" transform="translate(-159.516 -254.512)" fill="#263238"/>
      <path id="Trazado_128617" data-name="Trazado 128617" d="M214.47,441.624c-.147,0-.442-1.362-1.222-2.893s-1.707-2.605-1.6-2.7a5.357,5.357,0,0,1,2.037,2.486A5.7,5.7,0,0,1,214.47,441.624Z" transform="translate(-161.042 -254.022)" fill="#263238"/>
      <path id="Trazado_128618" data-name="Trazado 128618" d="M218.77,440.449a19.258,19.258,0,0,0-.7-3.1,27.505,27.505,0,0,0-1.6-2.739,4.2,4.2,0,0,1,2.058,2.563A4.818,4.818,0,0,1,218.77,440.449Z" transform="translate(-162.478 -253.599)" fill="#263238"/>
      <path id="Trazado_128619" data-name="Trazado 128619" d="M218.861,434.643a5.3,5.3,0,0,1-.316-2.177,10.537,10.537,0,0,1,.316-2.409,9.246,9.246,0,0,1,.435-1.362,1.608,1.608,0,0,1,.471-.7.779.779,0,0,1,1,.049,1.32,1.32,0,0,1,.393.829,5.8,5.8,0,0,1,0,.772,6.321,6.321,0,0,1-.183,1.4,8.8,8.8,0,0,1-.9,2.24,5.95,5.95,0,0,1-1.32,1.763c-.063-.042.428-.7,1.011-1.924a9.465,9.465,0,0,0,.766-2.177,6.434,6.434,0,0,0,.148-1.341c0-.449,0-1.011-.274-1.229a.281.281,0,0,0-.386-.035,1.215,1.215,0,0,0-.323.513,10.063,10.063,0,0,0-.442,1.292,11.454,11.454,0,0,0-.386,2.289C218.812,433.8,218.946,434.636,218.861,434.643Z" transform="translate(-163.095 -251.585)" fill="#263238"/>
      <path id="Trazado_128620" data-name="Trazado 128620" d="M219.06,436.974a4.136,4.136,0,0,1,1.9-.309,8.463,8.463,0,0,1,2.107.26,4.337,4.337,0,0,1,1.2.443,1.229,1.229,0,0,1,.66,1.334,1.468,1.468,0,0,1-1.06,1.046,2.676,2.676,0,0,1-1.313,0,6.258,6.258,0,0,1-3.266-2.283,13.23,13.23,0,0,1,1.559,1.06,5.218,5.218,0,0,0,1.8.78,2.283,2.283,0,0,0,1.089,0,1,1,0,0,0,.7-.7.751.751,0,0,0-.435-.815,4.269,4.269,0,0,0-1.067-.414,9.577,9.577,0,0,0-1.973-.344C219.79,436.932,219.074,437.052,219.06,436.974Z" transform="translate(-163.252 -254.211)" fill="#263238"/>
      <path id="Trazado_128621" data-name="Trazado 128621" d="M204.053,444.342a15.831,15.831,0,0,0-.583-2.641c-.583-1.369-1.524-2.184-1.4-2.3s1.271.576,1.889,2.107A3.388,3.388,0,0,1,204.053,444.342Z" transform="translate(-158.189 -255.027)" fill="#263238"/>
      <path id="Trazado_128622" data-name="Trazado 128622" d="M220.657,448.367a6.951,6.951,0,0,1-1.138.534,25.749,25.749,0,0,1-3.266,1.011,46.242,46.242,0,0,1-11.195,1.061c-4.4-.049-8.357-.246-11.237-.365l-3.4-.176a6.243,6.243,0,0,1-1.243-.133,5.692,5.692,0,0,1,1.278-.084h3.406l11.237.218a52.3,52.3,0,0,0,11.117-.906C219.013,449,220.657,448.275,220.657,448.367Z" transform="translate(-154.356 -257.696)" fill="#263238"/>
      <path id="Trazado_128623" data-name="Trazado 128623" d="M229.235,448.272a23.665,23.665,0,0,1-2.2-1,10.281,10.281,0,0,0-5.548-.92,8.8,8.8,0,0,0-4.8,2.851A16.433,16.433,0,0,1,215,450.934a9.19,9.19,0,0,1,1.44-1.959,11.519,11.519,0,0,1,1.945-1.819,6.967,6.967,0,0,1,3.027-1.285,9.705,9.705,0,0,1,5.773,1.1,7.765,7.765,0,0,1,2.051,1.306Z" transform="translate(-162.043 -256.934)" fill="#263238"/>
      <path id="Trazado_128624" data-name="Trazado 128624" d="M192.81,448.054a10.537,10.537,0,0,1,.428-1.11,5.4,5.4,0,0,0-.969-5.253c-.464-.562-.836-.829-.8-.885s.464.155,1,.7a5,5,0,0,1,1.025,5.548C193.183,447.745,192.845,448.082,192.81,448.054Z" transform="translate(-155.037 -255.445)" fill="#263238"/>
      <path id="Trazado_128625" data-name="Trazado 128625" d="M270.08,431.3s30.086,4.572,31.3,4.846c1.833.407,2.3,6.868-.435,7.093-1.3.105-22.277,3.462-24.96,3.617s-11.1-2.051-11.1-2.051Z" transform="translate(-176.896 -252.617)" fill="#455a64"/>
      <path id="Trazado_128626" data-name="Trazado 128626" d="M291.4,442.414a27.662,27.662,0,0,1,.906-3.28c.744-1.721,1.847-2.809,1.742-2.929s-1.4.892-2.191,2.739A5.3,5.3,0,0,0,291.4,442.414Z" transform="translate(-184.753 -254.075)" fill="#263238"/>
      <path id="Trazado_128627" data-name="Trazado 128627" d="M286.853,441.111c.147,0,.274-1.4.871-3.02s1.4-2.809,1.264-2.872a5.287,5.287,0,0,0-1.728,2.7A5.66,5.66,0,0,0,286.853,441.111Z" transform="translate(-183.408 -253.783)" fill="#263238"/>
      <path id="Trazado_128628" data-name="Trazado 128628" d="M282.561,440.422a19.7,19.7,0,0,1,.309-3.16,31.346,31.346,0,0,1,1.264-2.915c-.14-.105-1.271.955-1.735,2.809A4.5,4.5,0,0,0,282.561,440.422Z" transform="translate(-182.051 -253.522)" fill="#263238"/>
      <path id="Trazado_128629" data-name="Trazado 128629" d="M281.546,434.76a5.07,5.07,0,0,0,.056-2.2,10.125,10.125,0,0,0-.583-2.339,9.725,9.725,0,0,0-.6-1.306,1.616,1.616,0,0,0-.548-.653.787.787,0,0,0-1,.169,1.313,1.313,0,0,0-.288.871,5.561,5.561,0,0,0,.056.773,6.321,6.321,0,0,0,.351,1.4,8.812,8.812,0,0,0,1.159,2.107,6.074,6.074,0,0,0,1.517,1.6,19.552,19.552,0,0,0-1.229-1.791,9.711,9.711,0,0,1-1.025-2.107,6.405,6.405,0,0,1-.3-1.313c-.042-.449-.112-1,.119-1.25a.281.281,0,0,1,.379-.077,1.222,1.222,0,0,1,.386.471,9.832,9.832,0,0,1,.59,1.229,11.853,11.853,0,0,1,.66,2.226C281.5,433.925,281.469,434.76,281.546,434.76Z" transform="translate(-180.974 -251.681)" fill="#263238"/>
      <path id="Trazado_128630" data-name="Trazado 128630" d="M280.315,437.078a4.107,4.107,0,0,0-1.9-.105,8.715,8.715,0,0,0-2.037.5,4.607,4.607,0,0,0-1.138.583,1.236,1.236,0,0,0-.5,1.4,1.489,1.489,0,0,0,1.18.92,2.748,2.748,0,0,0,1.306-.162,6.32,6.32,0,0,0,2.971-2.655,13.256,13.256,0,0,0-1.4,1.236,5.182,5.182,0,0,1-1.693.99,2.36,2.36,0,0,1-1.082.112,1.018,1.018,0,0,1-.794-.6.773.773,0,0,1,.337-.871,4.577,4.577,0,0,1,1-.534,9.357,9.357,0,0,1,1.924-.576C279.584,437.127,280.315,437.155,280.315,437.078Z" transform="translate(-179.813 -254.287)" fill="#263238"/>
      <path id="Trazado_128631" data-name="Trazado 128631" d="M297.711,442.547a16.709,16.709,0,0,1,.26-2.7,18.453,18.453,0,0,1,1.159-2.444c-.105-.1-1.2.7-1.629,2.318A3.472,3.472,0,0,0,297.711,442.547Z" transform="translate(-186.555 -254.433)" fill="#263238"/>
      <path id="Trazado_128632" data-name="Trazado 128632" d="M269.17,449.335a6.158,6.158,0,0,0,1.194.393,24.957,24.957,0,0,0,3.357.618,46.308,46.308,0,0,0,11.237-.274c4.361-.576,8.266-1.243,11.1-1.7l3.357-.583a5.773,5.773,0,0,0,1.215-.281,5.874,5.874,0,0,0-1.243.091l-3.378.428-11.117,1.552a52.349,52.349,0,0,1-11.145.421C270.9,449.763,269.191,449.257,269.17,449.335Z" transform="translate(-178.17 -257.442)" fill="#263238"/>
      <path id="Trazado_128633" data-name="Trazado 128633" d="M268.06,449.795c.049.063.787-.5,2.065-1.25a10.169,10.169,0,0,1,5.4-1.573,8.789,8.789,0,0,1,5.1,2.261,18.177,18.177,0,0,0,1.882,1.517,8.822,8.822,0,0,0-1.657-1.777,11.525,11.525,0,0,0-2.149-1.58,7.022,7.022,0,0,0-3.16-.913,9.712,9.712,0,0,0-5.618,1.77A7.766,7.766,0,0,0,268.06,449.795Z" transform="translate(-177.839 -257.136)" fill="#263238"/>
      <path id="Trazado_128634" data-name="Trazado 128634" d="M376.454,248.924a1.847,1.847,0,0,0-.878-.864l.7-1.4a4.108,4.108,0,0,0-.414-1.447c-.351-.6-1.58-.555-1.58-.555l.19-.4a1.812,1.812,0,0,0-.154-1.77c-.056-.077-.112-.155-.183-.239a2.929,2.929,0,0,0-1.552-.787s.7-1.348.386-1.917a2.922,2.922,0,0,0-2.992-1.18,42.426,42.426,0,0,0-5.443,2.6,1.285,1.285,0,0,1-1.826-.7,18.471,18.471,0,0,0-2.662-5c-1.32-1.587-2.556-1.461-3.28-1.18a.6.6,0,0,0-.295.864,32.047,32.047,0,0,1,1.91,3.511,78.714,78.714,0,0,1,.7,7.845l-1.9,3.61-19.123,30.206s-28.9-19.475-28.794-19.959l-1.362,22.333,21.771,14.467a15.338,15.338,0,0,0,22.537-6.63l14.657-31.814,1.777-2.6,6.9-4.424S376.7,249.507,376.454,248.924Z" transform="translate(-189.703 -193.851)" fill="#ffbe9d"/>
      <path id="Trazado_128635" data-name="Trazado 128635" d="M397.393,243.774a1.281,1.281,0,0,1-.133.126l-.414.337c-.386.295-.913.7-1.545,1.2l-2.311,1.756a14.5,14.5,0,0,1-1.4,1.011,2.03,2.03,0,0,1-1.833.246,1.4,1.4,0,0,1-.7-.7,2.016,2.016,0,0,1-.162-.92,2.655,2.655,0,0,1,.7-1.573,9.839,9.839,0,0,1,1.152-1.053l1.039-.864L393.3,242.1l.414-.33c.1-.07.147-.112.155-.105l-.133.133-.393.358-1.475,1.278-1.025.878a9.769,9.769,0,0,0-1.124,1.053,2.465,2.465,0,0,0-.7,1.475,1.454,1.454,0,0,0,.737,1.454,1.51,1.51,0,0,0,.864.084,2.458,2.458,0,0,0,.815-.316c.492-.3.941-.7,1.4-.99l2.325-1.735,1.58-1.152.435-.309Z" transform="translate(-213.81 -196.16)" fill="#eb996e"/>
      <path id="Trazado_128636" data-name="Trazado 128636" d="M399.917,249.3a1.842,1.842,0,0,1-.323.267c-.211.161-.527.393-.92.667-.779.541-1.882,1.271-3.139,2.009-.316.183-.618.372-.941.52a2.037,2.037,0,0,1-1,.19,1.573,1.573,0,0,1-1.3-1.046,1.545,1.545,0,0,1,.084-1.138,1.465,1.465,0,0,1,.176-.26c.049-.056.077-.077.084-.077a3.109,3.109,0,0,0-.2.365,1.537,1.537,0,0,0,0,1.067,1.4,1.4,0,0,0,1.194.927,1.9,1.9,0,0,0,.92-.19,10.106,10.106,0,0,0,.92-.506c1.257-.737,2.367-1.447,3.167-1.966l.941-.618a2.452,2.452,0,0,1,.337-.211Z" transform="translate(-214.802 -198.434)" fill="#eb996e"/>
      <path id="Trazado_128637" data-name="Trazado 128637" d="M401.453,253.82a1.792,1.792,0,0,1-.33.19l-.934.471c-.794.393-1.9.92-3.111,1.5a8.532,8.532,0,0,1-.913.393,1.764,1.764,0,0,1-.948.077,1.019,1.019,0,0,1-.7-.506,1.187,1.187,0,0,1-.112-.744,1.609,1.609,0,0,1,.555-.906c.19-.162.316-.225.323-.211a3.6,3.6,0,0,1-.281.26,1.643,1.643,0,0,0-.471.878,1.04,1.04,0,0,0,.112.653.892.892,0,0,0,.611.421,1.588,1.588,0,0,0,.857-.084,8.063,8.063,0,0,0,.892-.393c1.222-.569,2.325-1.082,3.132-1.447l.962-.414A1.294,1.294,0,0,1,401.453,253.82Z" transform="translate(-215.447 -199.78)" fill="#eb996e"/>
      <path id="Trazado_128638" data-name="Trazado 128638" d="M402.54,257.765a7.33,7.33,0,0,1-1.1.288c-.7.155-1.629.358-2.676.569l-.766.154a2.933,2.933,0,0,1-.737.084,1.039,1.039,0,0,1-.653-.232.7.7,0,0,1-.253-.555,1,1,0,0,1,.421-.737.527.527,0,0,1,.281-.126,1.554,1.554,0,0,0-.239.183.955.955,0,0,0-.337.7.562.562,0,0,0,.218.443.9.9,0,0,0,.562.182,3.161,3.161,0,0,0,.7-.091l.766-.162c1.046-.211,1.994-.393,2.683-.52a8.077,8.077,0,0,1,1.124-.183Z" transform="translate(-216.035 -200.789)" fill="#eb996e"/>
      <path id="Trazado_128639" data-name="Trazado 128639" d="M392.838,255.836a10.1,10.1,0,0,0-1.966-.2,9.458,9.458,0,0,0-1.931.386,3.6,3.6,0,0,1,1.924-.562A3.694,3.694,0,0,1,392.838,255.836Z" transform="translate(-213.826 -200.265)" fill="#eb996e"/>
      <path id="Trazado_128640" data-name="Trazado 128640" d="M244.249,225.827s-9.72-8.2-7.472-13.842,8.491-8.428,11.56-18.716c2.451-8.2,17.052-24.032,34.356-12.093,0,0,5.857-.92,9.186,1.749s4.136,7.992,5.548,14.137c2.177,9.474,3.371,16.757-.843,21.392s-5.759,5.878-5.534,11.145c.295,6.875,3.329,5.955.7,10.97l-14.509-4.733-.155-4-1.468,3.757-8.428-3.034Z" transform="translate(-168.426 -176.872)" fill="#263238"/>
      <path id="Trazado_128641" data-name="Trazado 128641" d="M306.036,197.36c-.941,2.163-.169,4.663.7,6.854s1.931,4.5,1.482,6.819c-.8,4.108-5.906,6.4-6.468,10.534-.3,2.219.808,4.481.379,6.686s-2.2,3.736-4.087,4.8-3.975,1.784-5.752,3.034c0,0-3.9,3.2-10.633-2.072" transform="translate(-181.888 -182.972)" fill="#263238"/>
      <path id="Trazado_128642" data-name="Trazado 128642" d="M269.3,189.671a3.582,3.582,0,0,0-4.214,2.381h0l-13.94,46.281c-1.8,5.415,5.007,11.195,10.815,13.077h0c5.871,1.9,7.058-.885,8.919-5.984,3.118-8.512,4.214-11.728,4.214-11.679s7.781,1.334,12.641-7.725c2.416-4.516,4.916-12.431,6.721-18.962,1.643-5.885.281-14.285-5.668-15.668Z" transform="translate(-172.716 -180.655)" fill="#ffbe9d"/>
      <path id="Trazado_128643" data-name="Trazado 128643" d="M304.857,220.667a1.3,1.3,0,0,1-1.622.829,1.25,1.25,0,0,1-.885-1.552,1.306,1.306,0,0,1,1.622-.829,1.25,1.25,0,0,1,.885,1.552Z" transform="translate(-188.033 -189.431)" fill="#263238"/>
      <path id="Trazado_128644" data-name="Trazado 128644" d="M306.626,218.01c-.2.105-.9-.906-2.226-1.362s-2.528-.133-2.613-.344c-.049-.1.211-.337.7-.5a3.6,3.6,0,0,1,2.163.077,3.469,3.469,0,0,1,1.707,1.292C306.689,217.6,306.732,217.94,306.626,218.01Z" transform="translate(-187.879 -188.424)" fill="#263238"/>
      <path id="Trazado_128645" data-name="Trazado 128645" d="M286.14,214.688a1.306,1.306,0,0,1-1.615.836,1.25,1.25,0,0,1-.885-1.552,1.306,1.306,0,0,1,1.615-.836,1.25,1.25,0,0,1,.885,1.552Z" transform="translate(-182.463 -187.652)" fill="#263238"/>
      <path id="Trazado_128646" data-name="Trazado 128646" d="M287.8,212.322c-.211.112-.906-.906-2.233-1.362s-2.528-.133-2.613-.344c-.049-.1.211-.33.737-.492a3.546,3.546,0,0,1,2.163.077,3.42,3.42,0,0,1,1.707,1.285C287.859,211.936,287.9,212.28,287.8,212.322Z" transform="translate(-182.273 -186.732)" fill="#263238"/>
      <path id="Trazado_128647" data-name="Trazado 128647" d="M291.84,224.918a9.131,9.131,0,0,1,2.289.358c.351.084.7.126.829-.084a1.847,1.847,0,0,0,.119-1.082c0-.927-.063-1.9-.1-2.922-.119-4.158-.077-7.522.091-7.529s.4,3.364.513,7.515c0,1.018.035,1.995.056,2.929a2.05,2.05,0,0,1-.288,1.4.878.878,0,0,1-.7.3,2.24,2.24,0,0,1-.6-.119A9.17,9.17,0,0,1,291.84,224.918Z" transform="translate(-184.919 -187.824)" fill="#263238"/>
      <path id="Trazado_128648" data-name="Trazado 128648" d="M280.435,249.121a25.8,25.8,0,0,1-11.665-7.9s.948,7.725,10.871,10.176Z" transform="translate(-178.051 -196.029)" fill="#eb996e"/>
      <path id="Trazado_128649" data-name="Trazado 128649" d="M287.635,233.28a2.507,2.507,0,0,0-1.833-1.629,2.3,2.3,0,0,0-1.784.281,1.447,1.447,0,0,0-.653,1.545,1.686,1.686,0,0,0,1.58,1.039,5.2,5.2,0,0,0,2.044-.421,1.573,1.573,0,0,0,.52-.26.478.478,0,0,0,.169-.492" transform="translate(-182.386 -193.159)" fill="#eb996e"/>
      <path id="Trazado_128650" data-name="Trazado 128650" d="M288.544,207.213c-.2.351-1.545-.091-3.2-.2s-3.041.077-3.2-.295c-.063-.183.232-.492.829-.751a5.26,5.26,0,0,1,2.479-.372,5.323,5.323,0,0,1,2.395.751C288.4,206.693,288.643,207.044,288.544,207.213Z" transform="translate(-182.031 -185.415)" fill="#263238"/>
      <path id="Trazado_128651" data-name="Trazado 128651" d="M309.088,211.693c-.365.225-1.4-.407-2.732-.8s-2.535-.492-2.711-.885c-.07-.19.2-.449.773-.6a4.839,4.839,0,0,1,4.389,1.355C309.193,211.2,309.257,211.574,309.088,211.693Z" transform="translate(-188.43 -186.532)" fill="#263238"/>
      <path id="Trazado_128652" data-name="Trazado 128652" d="M254,219.282q3.919-13.126,7.845-26.266c.534-1.8,1.152-3.715,2.648-4.846s3.308-1.194,5.078-1.229a96.11,96.11,0,0,1,22.754,2.247c.351,1.777-1.187,3.469-2.915,4.052s-3.6.372-5.408.393-3.8.344-5.028,1.685-1.44,3.624-2.676,5.113c-2.107,2.556-6.58,2.016-8.694,4.586-1.594,1.945-1.166,4.79-1.693,7.248-.6,2.809-.6,2.809-2.809,6.9-1.341,2.514,2.03,7.318-1.327,13.547l-6.517-1.854,2.858-9.621-3.877,9.024Z" transform="translate(-173.654 -179.864)" fill="#263238"/>
      <path id="Trazado_128653" data-name="Trazado 128653" d="M285.855,229.454c.133.077.063.428.056.934a3.392,3.392,0,0,0,1.65,3.146c.414.281.744.421.7.576s-.4.288-1.025.14a3.083,3.083,0,0,1-2.107-4.031C285.391,229.616,285.736,229.377,285.855,229.454Z" transform="translate(-182.867 -192.522)" fill="#263238"/>
      <path id="Trazado_128654" data-name="Trazado 128654" d="M278.851,199.4a1.4,1.4,0,0,1-.365.2,10.7,10.7,0,0,0-1.032.576,12.487,12.487,0,0,0-5.752,8.673,14.155,14.155,0,0,0,0,3.771,22.639,22.639,0,0,1,.246,4.129,7.467,7.467,0,0,1-.442,2.107,13.185,13.185,0,0,1-.934,1.833,9.129,9.129,0,0,0-1.475,3.434,11.628,11.628,0,0,0,.091,3.4c.147,1.075.337,2.107.407,3a7.93,7.93,0,0,1-.639,4.326,4.536,4.536,0,0,1-.7.976c-.2.19-.316.281-.323.267a6.318,6.318,0,0,0,.892-1.306,8.132,8.132,0,0,0,.513-4.214c-.091-.913-.295-1.9-.456-2.978a11.772,11.772,0,0,1-.119-3.511c.274-2.584,2.767-4.481,2.809-7.318a22.9,22.9,0,0,0-.232-4.066,14.229,14.229,0,0,1,0-3.863A12.374,12.374,0,0,1,274,202.926a11.721,11.721,0,0,1,3.35-2.809,7.558,7.558,0,0,1,1.075-.513A1.5,1.5,0,0,1,278.851,199.4Z" transform="translate(-177.801 -183.579)" fill="#263238"/>
      <path id="Trazado_128655" data-name="Trazado 128655" d="M324.044,236.091l-.119.1c-.084.056-.2.155-.372.253a5.885,5.885,0,0,1-1.594.646,6.629,6.629,0,0,1-2.732.1A6.019,6.019,0,0,1,316,235.579a6.573,6.573,0,0,1-1.931-3.912,6.025,6.025,0,0,1,.162-2.465,7.6,7.6,0,0,1,1.152-2.346,31.239,31.239,0,0,1,3.884-3.961,14.748,14.748,0,0,0,1.91-2.156,10.66,10.66,0,0,0,1.313-2.641,17.15,17.15,0,0,0,.737-5.794,41.889,41.889,0,0,0-.569-5.471,51.137,51.137,0,0,0-2.332-9.01,54.378,54.378,0,0,0-2.458-5.794c-.33-.667-.6-1.18-.78-1.524a3.22,3.22,0,0,1-.274-.506,3.593,3.593,0,0,1,.323.506c.2.33.492.836.843,1.5a47.335,47.335,0,0,1,2.577,5.766,49.653,49.653,0,0,1,2.43,9.046,41.132,41.132,0,0,1,.6,5.52,17.256,17.256,0,0,1-.751,5.913,10.676,10.676,0,0,1-1.355,2.732,15.3,15.3,0,0,1-1.966,2.212,31.451,31.451,0,0,0-3.856,3.9,7.248,7.248,0,0,0-1.117,2.233,5.941,5.941,0,0,0-.176,2.346,6.391,6.391,0,0,0,1.819,3.764,5.927,5.927,0,0,0,3.083,1.594,6.531,6.531,0,0,0,2.662-.042,7.543,7.543,0,0,0,2.121-.892Z" transform="translate(-191.518 -180.78)" fill="#263238"/>
      <path id="Trazado_128656" data-name="Trazado 128656" d="M243.23,225.619a6.068,6.068,0,0,0,2.254-1.124,8.982,8.982,0,0,0,2.992-6.033,35.166,35.166,0,0,0,.126-4.8,21.182,21.182,0,0,1,.428-5.548,10.339,10.339,0,0,1,1.131-2.809,6.672,6.672,0,0,1,2.219-2.275c1.9-1.166,4.214-1.11,6.321-1.833a6.679,6.679,0,0,0,2.69-1.763,16.784,16.784,0,0,0,1.9-2.563c1.124-1.77,2.205-3.631,3.919-4.733a6.708,6.708,0,0,1,2.718-.99,14.751,14.751,0,0,1,2.7-.112,27.738,27.738,0,0,0,4.8-.042,14.264,14.264,0,0,0,6.377-2.542,17.687,17.687,0,0,0,1.461-1.194l.358-.337.133-.112a9.831,9.831,0,0,1-1.868,1.756,14.172,14.172,0,0,1-6.426,2.69,28.092,28.092,0,0,1-4.839.084c-1.7,0-3.631,0-5.232,1.089a14.92,14.92,0,0,0-3.8,4.635,16.971,16.971,0,0,1-1.938,2.627,7.023,7.023,0,0,1-2.809,1.854c-2.163.744-4.467.7-6.243,1.8a7.648,7.648,0,0,0-3.209,4.86,20.975,20.975,0,0,0-.457,5.457,33.433,33.433,0,0,1-.169,4.839,9.038,9.038,0,0,1-3.16,6.11,5.057,5.057,0,0,1-1.693.878,4.657,4.657,0,0,1-.485.112A.52.52,0,0,1,243.23,225.619Z" transform="translate(-170.447 -179.831)" fill="#455a64"/>
      <path id="Trazado_128657" data-name="Trazado 128657" d="M253.25,195.83a9.228,9.228,0,0,0,1.4.372,6.84,6.84,0,0,0,3.792-.625A15.864,15.864,0,0,0,262.984,192c.773-.787,1.58-1.629,2.493-2.423a11.364,11.364,0,0,1,3.167-2.023,10.261,10.261,0,0,1,3.7-.7,30.531,30.531,0,0,1,3.476.19c1.1.105,2.107.218,3.1.225a13.912,13.912,0,0,0,2.69-.218,7.408,7.408,0,0,0,3.511-1.559,13.53,13.53,0,0,0,.99-1.032,1.682,1.682,0,0,1-.19.323,2.881,2.881,0,0,1-.274.365,3.657,3.657,0,0,1-.435.449,7.3,7.3,0,0,1-3.575,1.707,13.722,13.722,0,0,1-2.739.267c-.99,0-2.037-.1-3.139-.19a30.158,30.158,0,0,0-3.434-.169,9.938,9.938,0,0,0-3.575.66c-2.325.962-4,2.809-5.555,4.347a15.486,15.486,0,0,1-4.67,3.568,6.735,6.735,0,0,1-3.919.534,4.538,4.538,0,0,1-1.039-.33A1.832,1.832,0,0,1,253.25,195.83Z" transform="translate(-173.43 -179.131)" fill="#455a64"/>
      <path id="Trazado_128658" data-name="Trazado 128658" d="M319.985,216.186a5.3,5.3,0,0,0,.344-1.341,5.758,5.758,0,0,0-1-3.547c-.815-1.4-2.325-2.584-3.856-4.08a10.344,10.344,0,0,1-2.044-2.7,9.473,9.473,0,0,1-.871-3.511c-.162-2.493.267-4.825.211-6.939a8.427,8.427,0,0,0-1.545-5.239,5.218,5.218,0,0,0-3.083-1.973,5.975,5.975,0,0,0-1.4-.035,1.208,1.208,0,0,1,.358-.1,3.849,3.849,0,0,1,1.046,0,5.225,5.225,0,0,1,3.266,1.952,8.539,8.539,0,0,1,1.678,5.394c.028,2.142-.344,4.488-.183,6.918a9.2,9.2,0,0,0,.829,3.4,9.953,9.953,0,0,0,1.959,2.62c1.489,1.489,3.027,2.739,3.834,4.214a5.738,5.738,0,0,1,.92,3.7,3.33,3.33,0,0,1-.3,1A1.263,1.263,0,0,1,319.985,216.186Z" transform="translate(-189.355 -179.795)" fill="#455a64"/>
      <path id="Trazado_128659" data-name="Trazado 128659" d="M235.836,218.9a4.176,4.176,0,0,1-.449-.246,5.224,5.224,0,0,1-1.089-.983,6.363,6.363,0,0,1-1.348-5.127,6.2,6.2,0,0,1,.6-1.721,6.84,6.84,0,0,1,1.236-1.531,15.753,15.753,0,0,1,3.652-2.247,14.263,14.263,0,0,0,3.9-2.486,9.207,9.207,0,0,0,2.212-4.368c.421-1.664.7-3.35,1.257-4.916A21.3,21.3,0,0,1,247.853,191a22.3,22.3,0,0,1,5.337-5.934,20.786,20.786,0,0,1,4.649-2.725,13,13,0,0,1,1.37-.513,2.238,2.238,0,0,1,.492-.14c0,.042-.66.253-1.8.787a21.547,21.547,0,0,0-4.544,2.809,22.417,22.417,0,0,0-5.211,5.906,20.978,20.978,0,0,0-1.987,4.214c-.534,1.531-.815,3.2-1.25,4.916a9.467,9.467,0,0,1-2.311,4.53,14.475,14.475,0,0,1-4,2.535,15.78,15.78,0,0,0-3.6,2.17A6.742,6.742,0,0,0,233.793,211a5.844,5.844,0,0,0-.59,1.629,6.553,6.553,0,0,0,.162,2.971,6,6,0,0,0,1.039,2.016A7.506,7.506,0,0,0,235.836,218.9Z" transform="translate(-167.359 -178.307)" fill="#263238"/>
      <path id="Trazado_128660" data-name="Trazado 128660" d="M325.122,217.426c-.035,0,.295-.337.744-1a8.5,8.5,0,0,0,1.25-3.111,11.791,11.791,0,0,0-.176-4.958,19.966,19.966,0,0,0-2.514-5.583c-1.159-1.861-2.409-3.547-3.462-5.141a28.99,28.99,0,0,1-2.479-4.438,14.632,14.632,0,0,1-1.018-3.28,8.434,8.434,0,0,1-.112-.927,1.135,1.135,0,0,1,0-.323s.084.442.26,1.222a16.512,16.512,0,0,0,1.1,3.231,31.608,31.608,0,0,0,2.528,4.354c1.06,1.58,2.325,3.259,3.511,5.141a19.811,19.811,0,0,1,2.535,5.7,11.834,11.834,0,0,1,.1,5.092,8.139,8.139,0,0,1-1.4,3.139,5.472,5.472,0,0,1-.618.7,1.179,1.179,0,0,1-.246.19Z" transform="translate(-192.512 -180.381)" fill="#263238"/>
      <path id="Trazado_128661" data-name="Trazado 128661" d="M199.258,368.812l-5.766,10.036s-28.661-10.485-45.438-7.43c-6.384,1.159-13.21,15.633-3.912,24.931,9.067,9.067,25.283,21.89,55.713,26.041.758.1,13.224,2.774,12.452,2.683s17.473,2.809,17.473,2.809l4.284-16.195,33.984,5.33c20.029-1.362,29.833-22.782,17.768-29.679-11.237-6.426-32.4-6.946-32.4-6.946l-7.669-12.023Z" transform="translate(-139.594 -233.883)" fill="#263238"/>
      <path id="Trazado_128662" data-name="Trazado 128662" d="M242.43,432.7c.084-.548.33-2.023.822-5.049.274-1.615.6-3.582,1.032-5.843.218-1.138.457-2.339.744-3.61.147-.639.3-1.285.492-1.952.091-.33.19-.66.309-1a2.959,2.959,0,0,1,.52-1l.049.246c-7.234-2.57-16.279-5.962-25.915-10.029-5.927-2.521-11.518-5.064-16.441-7.725a53.372,53.372,0,0,1-6.742-4.179c-1.995-1.475-3.778-2.95-5.45-4.214a29.583,29.583,0,0,0-8.547-5.014,14.523,14.523,0,0,0-1.5-.442,9.053,9.053,0,0,0-1.117-.239l-.7-.126-.239-.056a1.082,1.082,0,0,1,.246,0l.7.091a8.218,8.218,0,0,1,1.138.2,12.962,12.962,0,0,1,1.517.414,20.516,20.516,0,0,1,3.933,1.749,40.728,40.728,0,0,1,4.726,3.2c1.685,1.271,3.469,2.732,5.471,4.214a53.226,53.226,0,0,0,6.721,4.129c4.916,2.627,10.5,5.162,16.42,7.676,9.628,4.059,18.66,7.479,25.872,10.085l.2.077-.154.169a2.9,2.9,0,0,0-.442.885c-.119.323-.218.653-.316.976-.19.653-.351,1.306-.5,1.931-.295,1.264-.548,2.465-.773,3.6-.449,2.261-.8,4.214-1.1,5.829s-.534,2.844-.7,3.722c-.084.428-.147.758-.2.976a2.382,2.382,0,0,1-.084.309Z" transform="translate(-151.549 -238.08)" fill="#455a64"/>
      <path id="Trazado_128663" data-name="Trazado 128663" d="M309.188,397.78H309l-.527-.084c-.464-.063-1.138-.232-2.03-.323a39.523,39.523,0,0,0-7.536-.267,56.264,56.264,0,0,0-11.04,1.826c-2.037.541-4.158,1.187-6.321,1.938s-4.382,1.615-6.651,2.521a61.118,61.118,0,0,1-6.777,2.24c-2.226.611-4.4,1.089-6.475,1.489-4.158.815-7.943,1.313-11.117,1.7s-5.752.646-7.529.829l-2.051.2-.534.042a.606.606,0,0,1-.183,0h.176l.534-.077,2.037-.274,7.514-.941c3.174-.421,6.946-.948,11.082-1.777,2.072-.407,4.214-.892,6.447-1.51a63.006,63.006,0,0,0,6.742-2.226c2.261-.906,4.488-1.777,6.672-2.521s4.305-1.4,6.356-1.931a54.718,54.718,0,0,1,11.11-1.749,37.167,37.167,0,0,1,7.571.379c.892.112,1.559.309,2.023.393l.527.119A.634.634,0,0,1,309.188,397.78Z" transform="translate(-169.554 -242.358)" fill="#455a64"/>
      <path id="Trazado_128664" data-name="Trazado 128664" d="M252.156,388.586c0,.239-1.517.625-4.066.864a53.163,53.163,0,0,1-19.748-2.107c-2.437-.773-3.863-1.482-3.792-1.714.162-.506,6.18,1.1,13.765,1.882S252.107,388.052,252.156,388.586Z" transform="translate(-164.885 -238.992)" fill="#263238"/>
      <path id="Trazado_128665" data-name="Trazado 128665" d="M291.349,385.83a7.717,7.717,0,0,1-1.124.3,13.037,13.037,0,0,0-1.313.337c-.506.148-1.089.3-1.714.527a42.7,42.7,0,0,0-4.34,1.721c-1.587.758-3.3,1.657-5.049,2.7a79.722,79.722,0,0,0-8.5,5.984c-1.039.829-1.875,1.517-2.444,1.994a6.653,6.653,0,0,1-.92.7,7.785,7.785,0,0,1,.822-.822c.548-.513,1.355-1.229,2.381-2.107a67.606,67.606,0,0,1,8.484-6.1,53.907,53.907,0,0,1,5.092-2.683,37.057,37.057,0,0,1,4.4-1.664c.632-.211,1.222-.351,1.742-.478a11.5,11.5,0,0,1,1.334-.281A6.736,6.736,0,0,1,291.349,385.83Z" transform="translate(-177.208 -239.08)" fill="#455a64"/>
      <path id="Trazado_128666" data-name="Trazado 128666" d="M251.284,403.624a8.117,8.117,0,0,1-2.016-.576,43.276,43.276,0,0,1-4.6-2.072l-4.446-2.339a15.792,15.792,0,0,1-1.833-1,10.232,10.232,0,0,1,1.952.766c1.173.534,2.76,1.348,4.509,2.24s3.343,1.664,4.53,2.163A17.061,17.061,0,0,1,251.284,403.624Z" transform="translate(-169.006 -242.596)" fill="#455a64"/>
      <path id="Trazado_128667" data-name="Trazado 128667" d="M260.873,370.72c.056,0-.042,1.053-.147,2.746s-.2,4.031-.155,6.616.239,4.916.407,6.616a27.334,27.334,0,0,1,.26,2.739,2.687,2.687,0,0,1-.183-.7c-.1-.463-.211-1.145-.33-1.987a56.1,56.1,0,0,1-.52-6.637,57.7,57.7,0,0,1,.26-6.644c.091-.85.176-1.531.253-2A3.128,3.128,0,0,1,260.873,370.72Z" transform="translate(-175.498 -234.582)" fill="#455a64"/>
      <path id="Trazado_128668" data-name="Trazado 128668" d="M265.253,372.072a3.281,3.281,0,0,0-.3.323,1.994,1.994,0,0,0-.449,1.032,1.945,1.945,0,0,0,.442,1.538,1.812,1.812,0,0,0,3-1.11,1.959,1.959,0,0,0-.7-1.454,1.988,1.988,0,0,0-1.011-.492c-.274-.042-.428,0-.435-.049s.147-.091.449-.091a1.931,1.931,0,0,1,1.166.435,2.032,2.032,0,1,1-2.746,2.985,2.149,2.149,0,0,1-.442-1.8,1.938,1.938,0,0,1,.6-1.1C265.077,372.1,265.246,372.058,265.253,372.072Z" transform="translate(-176.683 -234.895)" fill="#455a64"/>
      <path id="Trazado_128669" data-name="Trazado 128669" d="M269.693,355.729a4,4,0,0,1-.548.7,21.348,21.348,0,0,1-1.686,1.784,26.3,26.3,0,0,1-2.809,2.325,30.488,30.488,0,0,1-3.827,2.311,29.855,29.855,0,0,1-4.144,1.665,26.69,26.69,0,0,1-3.554.843,20.109,20.109,0,0,1-2.437.274,4.646,4.646,0,0,1-.9,0c0-.07,1.271-.14,3.294-.534a30.974,30.974,0,0,0,3.511-.913,30.017,30.017,0,0,0,10.689-6.159C268.815,356.663,269.637,355.687,269.693,355.729Z" transform="translate(-172.4 -230.119)" fill="#263238"/>
      <path id="Trazado_128670" data-name="Trazado 128670" d="M294.082,366.795c0,.105-1.264.105-2.753.485s-2.613.941-2.669.85a7.3,7.3,0,0,1,5.422-1.334Z" transform="translate(-183.972 -233.389)" fill="#263238"/>
      <g id="Grupo_55762" data-name="Grupo 55762" transform="translate(79.574 126.116)" opacity="0.3">
        <path id="Trazado_128671" data-name="Trazado 128671" d="M253.96,365.5a26.9,26.9,0,0,0,15.654-9.046,6.321,6.321,0,0,1-1.538,6.447c1.784.843,3.877.281,5.829,0s4.34,0,5.274,1.735a206.462,206.462,0,0,1-26.28.751" transform="translate(-252.9 -356.45)"/>
      </g>
      <path id="Trazado_128672" data-name="Trazado 128672" d="M221.268,348.479a9.869,9.869,0,0,0-3.027-1.959,9.735,9.735,0,0,0-3.842-.653,10.536,10.536,0,0,0-4.586,1.236c-3.062,1.587-4.916,4.3-6.264,6.033a18.756,18.756,0,0,0-1.4,2.289,5.676,5.676,0,0,1-.485.857,4.916,4.916,0,0,1,.358-.92,15.452,15.452,0,0,1,1.292-2.374c.653-.941,1.5-1.994,2.465-3.146a13.679,13.679,0,0,1,3.849-3.069,10.646,10.646,0,0,1,4.755-1.243,9.719,9.719,0,0,1,3.947.751,7.523,7.523,0,0,1,2.275,1.454,4,4,0,0,1,.506.534C221.226,348.4,221.282,348.472,221.268,348.479Z" transform="translate(-158.072 -227.082)" fill="#263238"/>
      <path id="Trazado_128673" data-name="Trazado 128673" d="M251.6,253.81l-9.8,2.086,4.9,18.351,17.361,3.729,11.911-8.449,1.636-10.12L267.4,255.545Z" transform="translate(-170.022 -199.777)" fill="#ffbe9d"/>
      <path id="Trazado_128674" data-name="Trazado 128674" d="M233.938,255.71s6.637,19.271,18.9,17.487,11.237-14.271,11.237-14.271,12.8,3.9,16.75,8.055,1.622,13.175,1.622,13.175l-3.315,16.307-7.22,31.238s2.76,8.526-4.3,10.633l-2.226-3.511-42.327,1.194s-9.053,10.436-11.876,6.84-5.534-10.619-5.534-10.619L225.1,258.021Z" transform="translate(-159.26 -200.343)" fill="#455a64"/>
      <path id="Trazado_128675" data-name="Trazado 128675" d="M304.974,268.25c.344.2,30.051,21.771,30.051,21.771s-2.332,17.754,11.939,14.931c0,0-5.759,14.846-13.554,11.728-2.219-.885-29.6-18.21-29.6-18.21L298,286.1Z" transform="translate(-186.753 -204.076)" fill="#455a64"/>
      <path id="Trazado_128676" data-name="Trazado 128676" d="M231.717,257.06a17.557,17.557,0,0,0-1.8.126c-5.815.562-27.277,5.007-29.265,20.156-1.039,7.922-1.334,31.09-2.458,40.8,0,0,1.791,13.5,2.458,16,1.187,4.453,22.691-2.683,22.691-2.683l.042-42.84,7.683-31.54" transform="translate(-157.039 -200.745)" fill="#455a64"/>
      <path id="Trazado_128677" data-name="Trazado 128677" d="M226.542,312.48a1.032,1.032,0,0,1,0,.344,9.255,9.255,0,0,0,.07,1,14.383,14.383,0,0,0,.906,3.512c.548,1.447,1.4,3.09,2.219,4.972a22.471,22.471,0,0,1,1.124,3.048,18.653,18.653,0,0,1,.583,3.434,40.805,40.805,0,0,1-.176,6.7c-.176,2.051-.344,3.9-.6,5.436a24.2,24.2,0,0,1-.85,3.589c-.14.414-.26.7-.351.941a1.207,1.207,0,0,1-.154.316s.133-.464.372-1.3a27.259,27.259,0,0,0,.7-3.589c.225-1.531.365-3.371.527-5.415a43.864,43.864,0,0,0,.14-6.651,18.461,18.461,0,0,0-.562-3.371,22.932,22.932,0,0,0-1.089-3.006c-.815-1.875-1.629-3.547-2.156-5.014a13.062,13.062,0,0,1-.8-3.61,5.86,5.86,0,0,1,0-1A1.936,1.936,0,0,1,226.542,312.48Z" transform="translate(-165.446 -217.244)" fill="#263238"/>
      <path id="Trazado_128678" data-name="Trazado 128678" d="M227.987,304.78c.063,0,.112,1.089.358,2.809a37.65,37.65,0,0,0,1.566,6.665c.218.639.442,1.25.7,1.84a3.92,3.92,0,0,0,.176.4l.253.386a9.1,9.1,0,0,1,.449.794,6.651,6.651,0,0,1,.794,3.034,5.414,5.414,0,0,1-.414,2.107,3.019,3.019,0,0,1-.386.7,7.3,7.3,0,0,0,.541-2.739,6.608,6.608,0,0,0-.829-2.886c-.133-.253-.288-.506-.449-.758l-.253-.386a2.558,2.558,0,0,1-.211-.457c-.246-.59-.471-1.215-.7-1.854a31.6,31.6,0,0,1-1.475-6.756c-.1-.878-.126-1.6-.133-2.107A3.413,3.413,0,0,1,227.987,304.78Z" transform="translate(-165.9 -214.951)" fill="#263238"/>
      <path id="Trazado_128679" data-name="Trazado 128679" d="M225.114,289.853c-.056,0-.379-.878-1.011-2.261a31.791,31.791,0,0,0-2.971-5.155,32.308,32.308,0,0,0-3.9-4.488c-1.1-1.053-1.847-1.65-1.8-1.7a2.514,2.514,0,0,1,.562.365,17.447,17.447,0,0,1,1.4,1.145,26.6,26.6,0,0,1,6.932,9.727,17.857,17.857,0,0,1,.618,1.714A2.71,2.71,0,0,1,225.114,289.853Z" transform="translate(-162.17 -206.458)" fill="#263238"/>
      <path id="Trazado_128680" data-name="Trazado 128680" d="M315.346,277.7a7.923,7.923,0,0,1-.141,1.7c-.126,1.046-.309,2.486-.471,4.08s-.295,3.041-.386,4.094a8.134,8.134,0,0,1-.211,1.693,7.636,7.636,0,0,1-.049-1.707c0-1.06.112-2.514.281-4.115s.386-3.048.576-4.08a7.622,7.622,0,0,1,.4-1.664Z" transform="translate(-191.535 -206.889)" fill="#263238"/>
      <path id="Trazado_128681" data-name="Trazado 128681" d="M319.889,303.377c0,.063-.927.155-2.367.562a11.187,11.187,0,0,0-4.951,2.9,13.67,13.67,0,0,0-1.889,2.57A19.665,19.665,0,0,0,309.6,311.8l-.344.955c-.084.26-.155.506-.225.7a2.545,2.545,0,0,1-.232.618,1.974,1.974,0,0,1,.1-.653l.162-.751.295-.983a17.023,17.023,0,0,1,1.032-2.465,12.961,12.961,0,0,1,1.924-2.6,10.632,10.632,0,0,1,5.141-2.893,7.369,7.369,0,0,1,1.011-.2,6.327,6.327,0,0,1,.765-.1,2.108,2.108,0,0,1,.66-.049Z" transform="translate(-189.968 -214.531)" fill="#263238"/>
      <path id="Trazado_128682" data-name="Trazado 128682" d="M351.15,321.627a4.214,4.214,0,0,1-.471-.787,10.793,10.793,0,0,1-.492-.962c-.176-.386-.386-.808-.569-1.306a25.58,25.58,0,0,1-1.131-3.547,29.062,29.062,0,0,1-.7-4.516,28.585,28.585,0,0,1,.077-4.558,26.257,26.257,0,0,1,.646-3.666c.112-.52.274-.976.393-1.4a8.828,8.828,0,0,1,.351-1.018,4.381,4.381,0,0,1,.365-.843c.07,0-.4,1.243-.857,3.294a29.841,29.841,0,0,0-.562,3.638,31.786,31.786,0,0,0-.056,4.509,31.428,31.428,0,0,0,.66,4.46,29.427,29.427,0,0,0,1.039,3.512C350.588,320.447,351.213,321.6,351.15,321.627Z" transform="translate(-201.558 -213.237)" fill="#263238"/>
      <path id="Trazado_128683" data-name="Trazado 128683" d="M341.251,316.391a2.958,2.958,0,0,1-.281-.751,14.812,14.812,0,0,1-.435-2.107,16.617,16.617,0,0,1,.66-7.135,16.153,16.153,0,0,1,3.589-6.208,3.076,3.076,0,0,1,1.931-1.039,1.362,1.362,0,0,1,.6.119c.119.063.183.105.176.119a2.107,2.107,0,0,0-.765-.1,3.126,3.126,0,0,0-1.749,1.074,17.087,17.087,0,0,0-3.427,6.138,17.923,17.923,0,0,0-.758,7.023C340.97,315.281,341.315,316.37,341.251,316.391Z" transform="translate(-199.377 -213.275)" fill="#263238"/>
      <path id="Trazado_128684" data-name="Trazado 128684" d="M266.725,318.72a3.308,3.308,0,0,1-.176.836,8.293,8.293,0,0,1-.281.955,13.023,13.023,0,0,1-.471,1.236,19.6,19.6,0,0,1-1.6,3.048,20.79,20.79,0,0,1-5.878,6.012,19.827,19.827,0,0,1-3.013,1.678,11.749,11.749,0,0,1-1.229.492,6.362,6.362,0,0,1-.948.309,4.217,4.217,0,0,1-.829.2c0-.07,1.152-.386,2.893-1.229a22.083,22.083,0,0,0,2.936-1.721,24.976,24.976,0,0,0,3.174-2.683,24.362,24.362,0,0,0,2.605-3.238,21.547,21.547,0,0,0,1.65-2.971C266.367,319.879,266.655,318.7,266.725,318.72Z" transform="translate(-173.148 -219.101)" fill="#263238"/>
      <g id="Grupo_55763" data-name="Grupo 55763" transform="translate(62.434 90.123)" opacity="0.3">
        <path id="Trazado_128685" data-name="Trazado 128685" d="M235.318,321.647,231.273,306.9c-.2-.7-.527-1.566-1.264-1.7a1.4,1.4,0,0,0-1.44,1.208,7.916,7.916,0,0,0,0,2.156c.316,3.21.569,5.387,2.065,7.873,2.915,4.846,1,7.2,1,7.2.232,5.9-.267,13.948-2.107,20.008l1.735,7.311c1.643-5.436,5.4-9.966,6.033-15.612C237.776,330.714,236.575,326.128,235.318,321.647Z" transform="translate(-228.495 -305.199)"/>
      </g>
      <g id="Grupo_55764" data-name="Grupo 55764" transform="translate(119.885 94.336)" opacity="0.3">
        <path id="Trazado_128686" data-name="Trazado 128686" d="M310.3,313.082c4.811,2.5,9.088,5.956,13.772,8.631a21.972,21.972,0,0,0-8.624-9.642,5.456,5.456,0,0,0-3.259-.864c-1.138.162-1.952.8-1.777,1.931" transform="translate(-310.3 -311.198)"/>
      </g>
      <g id="Grupo_55765" data-name="Grupo 55765" transform="translate(140.956 85.355)" opacity="0.3">
        <path id="Trazado_128687" data-name="Trazado 128687" d="M346.8,298.691c-1.643-.042-2.879,1.454-3.687,2.886a22.2,22.2,0,0,0-2.655,13.4c.1.829.407,1.826,1.229,1.987a1.4,1.4,0,0,0,1.454-.864,3.989,3.989,0,0,0,.274-1.777,58.133,58.133,0,0,1,.211-8.428,12.577,12.577,0,0,1,3.511-7.486" transform="translate(-340.303 -298.41)"/>
      </g>
      <path id="Trazado_128688" data-name="Trazado 128688" d="M243.78,305.665h.169l.485-.035,1.9-.1,7.191-.33L279,304.12h.169v.162c.211,8.568.456,18.428.7,28.864v1.229h-.119a249.345,249.345,0,0,0-31.364,2.346h-.133l-.035-.133A112.143,112.143,0,0,1,244.475,314c-.169-2.767-.2-4.916-.2-6.419v-2.268a.6.6,0,0,1,0,.148v2.121c0,1.482.091,3.652.281,6.4a115.28,115.28,0,0,0,3.863,22.523l-.176-.119a244.04,244.04,0,0,1,31.5-2.409l-.183.19v-1.046c-.246-10.436-.471-20.3-.7-28.864l.169.162-25.479.948-7.2.239-1.9.056H243.8Z" transform="translate(-170.611 -214.755)" fill="#fff"/>
      <path id="Trazado_128689" data-name="Trazado 128689" d="M255.487,327.618c-.1,0-.976-4.726-1.959-10.6s-1.7-10.64-1.6-10.661.976,4.726,1.959,10.6S255.557,327.6,255.487,327.618Z" transform="translate(-173.034 -215.422)" fill="#fff"/>
      <path id="Trazado_128690" data-name="Trazado 128690" d="M257.951,346.258a21.122,21.122,0,0,1-.78-3.827,21.439,21.439,0,0,1-.421-3.891,21.118,21.118,0,0,1,.78,3.834,19.939,19.939,0,0,1,.421,3.884Z" transform="translate(-174.472 -225.002)" fill="#fff"/>
      <path id="Trazado_128691" data-name="Trazado 128691" d="M266.317,322.664a2.156,2.156,0,0,1-.2-.653c-.105-.421-.239-1.046-.386-1.812-.295-1.538-.625-3.673-.864-6.047s-.33-4.537-.351-6.1V306.2a3.012,3.012,0,0,1,.063-.7,19.365,19.365,0,0,1,.176,2.521c.084,1.559.218,3.708.456,6.075s.527,4.495.751,6.04a21.367,21.367,0,0,1,.351,2.528Z" transform="translate(-176.785 -215.166)" fill="#fff"/>
      <path id="Trazado_128692" data-name="Trazado 128692" d="M265.419,343.963a34.837,34.837,0,0,1-.794-4.965,33.233,33.233,0,0,1-.435-5.007,35.068,35.068,0,0,1,.794,4.965,33.237,33.237,0,0,1,.435,5.007Z" transform="translate(-176.687 -223.647)" fill="#fff"/>
      <path id="Trazado_128693" data-name="Trazado 128693" d="M275.808,334.921a8.38,8.38,0,0,1-.14-1.159l-.274-3.16c-.232-2.662-.576-6.321-1.039-10.4s-.969-7.725-1.348-10.373c-.183-1.278-.337-2.339-.449-3.139a7.636,7.636,0,0,1-.126-1.159,6.5,6.5,0,0,1,.267,1.138c.147.7.337,1.8.562,3.118.449,2.648.99,6.321,1.461,10.373s.766,7.725.934,10.429c.077,1.334.133,2.416.154,3.167a6.194,6.194,0,0,1,0,1.166Z" transform="translate(-179.14 -215.175)" fill="#fff"/>
      <path id="Trazado_128694" data-name="Trazado 128694" d="M286.273,335.229a7.244,7.244,0,0,1-.056-1.18v-3.216c0-2.711-.1-6.461-.288-10.591s-.485-7.873-.7-10.577c-.112-1.3-.2-2.381-.274-3.2a8.2,8.2,0,0,1-.063-1.18,6.407,6.407,0,0,1,.2,1.159c.112.751.246,1.847.393,3.2.295,2.7.618,6.44.822,10.577s.225,7.894.183,10.612c0,1.355-.049,2.458-.084,3.216A8.089,8.089,0,0,1,286.273,335.229Z" transform="translate(-182.849 -215.103)" fill="#fff"/>
      <g id="Grupo_55766" data-name="Grupo 55766" transform="translate(79.468 100.778)" opacity="0.3">
        <path id="Trazado_128695" data-name="Trazado 128695" d="M252.989,334.023a5.892,5.892,0,0,0,3.7.9,11.757,11.757,0,0,0,3.736-.976,11.285,11.285,0,0,0,4.249-2.809,9.882,9.882,0,0,0,2.107-4.972,29.2,29.2,0,0,0,.183-5.485.358.358,0,0,0-.056-.225.274.274,0,0,0-.393,0,.878.878,0,0,0-.218.386,20.367,20.367,0,0,1-13.547,12.81" transform="translate(-252.75 -320.371)"/>
      </g>
      <path id="Trazado_128696" data-name="Trazado 128696" d="M234.141,400.521l-4.291-8.048-9.65-45.164s-8.877-5.1-16.153,6.075c-.288.449,10,32.8,12.873,41.793l.4,8.61s-.506,10.19,0,11.082a4.144,4.144,0,0,0,1.784,1.4,2.477,2.477,0,0,0,2.549,2.809s.253,2.809,2.416,2.423a4.164,4.164,0,0,0,2.936-1.784s0,3.561,1.91,3.181,2.219-1.91,2.57-2.416.758-5.738.758-5.738l-.035-8.624,4.972,4.031c1.4.7,3.547,1.6,4.74.527Z" transform="translate(-158.781 -227.267)" fill="#ffbe9d"/>
      <path id="Trazado_128697" data-name="Trazado 128697" d="M244.087,430.92a15.521,15.521,0,0,1,.281,4.649c-.056,1.194-.105,2.282-.155,3.28a5.359,5.359,0,0,1-.126,1.355,21.531,21.531,0,0,1-.084-4.649C244.129,433,243.975,430.934,244.087,430.92Z" transform="translate(-170.651 -252.504)" fill="#eb996e"/>
      <path id="Trazado_128698" data-name="Trazado 128698" d="M236.3,439.48a49.934,49.934,0,0,1,.112,8.533,49.932,49.932,0,0,1-.112-8.533Z" transform="translate(-168.347 -255.052)" fill="#eb996e"/>
      <path id="Trazado_128699" data-name="Trazado 128699" d="M229.569,441.71a11.616,11.616,0,0,1-.569,5.9c-.1,0,.155-1.327.3-2.95A26.964,26.964,0,0,1,229.569,441.71Z" transform="translate(-166.205 -255.716)" fill="#eb996e"/>
      <path id="Trazado_128700" data-name="Trazado 128700" d="M225.41,440.29a10.247,10.247,0,0,1-.379,3.842,5.113,5.113,0,0,1,0-1.938A5.344,5.344,0,0,1,225.41,440.29Z" transform="translate(-165.002 -255.294)" fill="#eb996e"/>
    </g>
    <g id="freepik--speech-bubble--inject-2" transform="translate(113.351 90.191)">
      <path id="Trazado_128701" data-name="Trazado 128701" d="M212.657,165.186,206.2,153.8a30.508,30.508,0,1,0-7.311,8.133h0Z" transform="translate(-149.636 -107.246)" fill="#fff"/>
      <path id="Trazado_128702" data-name="Trazado 128702" d="M212.625,165.168l-13.8-3.16a.084.084,0,0,1-.07-.105s0,0,0-.035h0l.126.126a30.965,30.965,0,0,1-6.264,3.778,30.536,30.536,0,0,1-8.322,2.395,27.149,27.149,0,0,1-4.818.239c-.836-.042-1.678-.063-2.528-.133l-2.577-.393a30.732,30.732,0,0,1-19.039-12.22,30.4,30.4,0,0,1-5.148-11.77,31.062,31.062,0,0,1,.358-13.554,30.086,30.086,0,0,1,6.531-12.529l1.243-1.4c.414-.464.9-.843,1.341-1.264a11.008,11.008,0,0,1,1.4-1.2l1.461-1.1a12.887,12.887,0,0,1,1.517-1l1.545-.934,1.615-.787a14.178,14.178,0,0,1,1.636-.7,31.041,31.041,0,0,1,13.653-2.107,30,30,0,0,1,12.536,3.7,30.9,30.9,0,0,1,14.432,17.831,32.8,32.8,0,0,1,1.327,9.909A30.425,30.425,0,0,1,209.3,147.3a30.972,30.972,0,0,1-3.062,6.559v-.091l6.384,11.433-6.552-11.384a.091.091,0,0,1,0-.084,31.026,31.026,0,0,0,3-6.531,30.091,30.091,0,0,0,1.447-8.5,32.866,32.866,0,0,0-1.341-9.832,30.669,30.669,0,0,0-14.341-17.592,29.714,29.714,0,0,0-12.4-3.645,30.739,30.739,0,0,0-13.5,2.107,14.376,14.376,0,0,0-1.615.7l-1.594.773-1.531.927a13.129,13.129,0,0,0-1.5.99l-1.447,1.082c-.492.351-.906.8-1.362,1.194a12.979,12.979,0,0,0-1.32,1.243l-1.229,1.355a29.728,29.728,0,0,0-6.461,12.381,30.761,30.761,0,0,0-.365,13.393,30.143,30.143,0,0,0,5.078,11.644,30.486,30.486,0,0,0,18.821,12.136l2.549.393c.843.07,1.678.091,2.5.14a26.855,26.855,0,0,0,4.79-.225,30.284,30.284,0,0,0,8.294-2.332,30.9,30.9,0,0,0,6.243-3.715.091.091,0,0,1,.133,0,.105.105,0,0,1,0,.112h0l-.049-.147Z" transform="translate(-149.604 -107.228)" fill="#263238"/>
      <path id="Trazado_128703" data-name="Trazado 128703" d="M178.036,142.349a4.213,4.213,0,0,0-1.517-.393,4.537,4.537,0,0,0-4.179,1.545c3.294,1.91,7.781,4.446,10.991,6.278l4.052-2.318C184.462,145.853,180.8,143.831,178.036,142.349Z" transform="translate(-156.372 -117.549)" fill="#26aab7"/>
      <g id="Grupo_55767" data-name="Grupo 55767" transform="translate(15.968 24.349)" opacity="0.3">
        <path id="Trazado_128704" data-name="Trazado 128704" d="M178.036,142.349a4.213,4.213,0,0,0-1.517-.393,4.537,4.537,0,0,0-4.179,1.545c3.294,1.91,7.781,4.446,10.991,6.278l4.052-2.318C184.462,145.853,180.8,143.831,178.036,142.349Z" transform="translate(-172.34 -141.898)"/>
      </g>
      <path id="Trazado_128705" data-name="Trazado 128705" d="M190.353,152.312l-.147-.126c-1.011-.583-2.107-1.693-3.1-1.671-.386,0-.808.344-1.812.906-1.671.948-4.488,2.6-6.173,3.511a6.2,6.2,0,0,1-4.825.871,6.91,6.91,0,0,1-2.261-1.369l18.316-10.619c-.091-.274-.19-.534-.281-.8a5.246,5.246,0,1,1,4.389,3.511,2.394,2.394,0,0,0-1.222.246c-.7.337-1.348.765-2.184,1.243,1.4.632,2.367,1.643,4.017,1.489a4.952,4.952,0,0,1,4.986,3.638,5.246,5.246,0,1,1-9.987-.119C190.149,152.818,190.269,152.579,190.353,152.312Zm4.677-8.428a2.507,2.507,0,0,0,2.535-2.556,2.542,2.542,0,0,0-2.514-2.5,2.584,2.584,0,0,0-2.556,2.57,2.549,2.549,0,0,0,2.535,2.472Zm0,13.4a2.542,2.542,0,0,0,2.563-2.451,2.5,2.5,0,0,0-2.486-2.606,2.556,2.556,0,0,0-2.584,2.437A2.584,2.584,0,0,0,195,157.271Z" transform="translate(-156.28 -115.813)" fill="#26aab7"/>
      <path id="Trazado_128706" data-name="Trazado 128706" d="M193.978,152.428a1.633,1.633,0,0,0-.555-.843,1.068,1.068,0,0,0-.99-.119,1.039,1.039,0,0,0,0,1.931,1.068,1.068,0,0,0,.99-.119c.52-.372.492-.864.555-.85s.056.112,0,.309a1.173,1.173,0,0,1-.421.744,1.313,1.313,0,0,1-1.264.232,1.355,1.355,0,0,1,0-2.563,1.313,1.313,0,0,1,1.264.232,1.159,1.159,0,0,1,.421.737C194.034,152.316,194,152.428,193.978,152.428Z" transform="translate(-162.04 -120.283)" fill="#263238"/>
      <path id="Trazado_128707" data-name="Trazado 128707" d="M197.28,151.73a3.617,3.617,0,0,1-.372.246l-1.046.632-3.462,2.037-3.511,1.995-1.067.59a2.608,2.608,0,0,1-.4.2,2.964,2.964,0,0,1,.372-.253l1.046-.632,3.462-2.03,3.511-1.995,1.067-.6A2.907,2.907,0,0,1,197.28,151.73Z" transform="translate(-160.862 -120.476)" fill="#263238"/>
      <path id="Trazado_128708" data-name="Trazado 128708" d="M189.642,147.73a1.4,1.4,0,0,1-.169.119l-.506.316-1.868,1.159c-1.573.955-3.757,2.261-6.208,3.645l-6.257,3.554-1.931,1.025-.52.281-.183.091s.056-.042.169-.112l.506-.309,1.882-1.1,6.243-3.589c2.444-1.4,4.635-2.676,6.229-3.6l1.889-1.089.52-.295Z" transform="translate(-156.271 -119.286)" fill="#263238"/>
    </g>
  </g>
</svg>
