<svg xmlns="http://www.w3.org/2000/svg" xmlns:xlink="http://www.w3.org/1999/xlink" width="476" height="297" viewBox="0 0 476 297">
  <defs>
    <clipPath id="clip-path">
      <rect id="Rectángulo_29338" data-name="Rectángulo 29338" width="476" height="297" transform="translate(-8271 -9892)" fill="#e0dcec" opacity="0.626"/>
    </clipPath>
    <clipPath id="clip-path-2">
      <rect id="Rectángulo_30294" data-name="Rectángulo 30294" width="264.796" height="170.057"/>
    </clipPath>
  </defs>
  <g id="Enmascarar_grupo_47" data-name="Enmascarar grupo 47" transform="translate(8271 9892)" clip-path="url(#clip-path)">
    <g id="graficos4-04" transform="translate(-8266.383 -9892)">
      <g id="Grupo_55512" data-name="Grupo 55512" transform="translate(193.11 228.115)">
        <g id="Grupo_55511" data-name="Grupo 55511" transform="translate(0.236)">
          <path id="Trazado_125214" data-name="Trazado 125214" d="M366.2,331.083h-125.7a8.373,8.373,0,0,0-8.4,8.34H366.2v-8.34Z" transform="translate(-232.09 -275.167)" fill="#8f9af8"/>
          <path id="Trazado_125215" data-name="Trazado 125215" d="M414.279,267.637H327.265a6.038,6.038,0,0,0-5.546,3.633l-24,55.792a3.47,3.47,0,0,0,3.211,4.831h89.878a6.038,6.038,0,0,0,5.546-3.633l22.869-53.175A5.35,5.35,0,0,0,414.279,267.637Z" transform="translate(-239.405 -267.637)" fill="#b8c3ff"/>
          <path id="Trazado_125216" data-name="Trazado 125216" d="M375.773,304.166c-1.326,5.358-6.776,9.7-12.175,9.7s-8.7-4.342-7.373-9.7,6.776-9.7,12.175-9.7S377.1,298.808,375.773,304.166Z" transform="translate(-245.953 -270.821)" fill="#fff"/>
        </g>
        <line id="Línea_1579" data-name="Línea 1579" x2="152.704" transform="translate(0 68.502)" fill="none" stroke="#d3c6fc" stroke-miterlimit="10" stroke-width="0.869"/>
      </g>
      <g id="Grupo_55528" data-name="Grupo 55528" transform="translate(11.055 28.601)">
        <g id="Grupo_55521" data-name="Grupo 55521" transform="translate(175.308 63.978)">
          <path id="Trazado_125217" data-name="Trazado 125217" d="M439.787,113.847H240.527a16.24,16.24,0,0,0-16.3,16.175v84.13a16.24,16.24,0,0,0,16.3,16.175h76.65l13.729,13.624,13.729-13.624H439.78a16.24,16.24,0,0,0,16.3-16.175v-84.13A16.229,16.229,0,0,0,439.787,113.847Z" transform="translate(-224.228 -113.847)" fill="#fff" stroke="#bbabf8" stroke-miterlimit="10" stroke-width="0.869"/>
          <g id="Grupo_55520" data-name="Grupo 55520" transform="translate(14.961 11.739)">
            <g id="Grupo_55513" data-name="Grupo 55513">
              <path id="Trazado_125288" data-name="Trazado 125288" d="M17.009.046A17.076,17.076,0,0,1,34.064,17.011,16.852,16.852,0,0,1,17.1,33.883,17.076,17.076,0,0,1,.046,16.918,16.852,16.852,0,0,1,17.009.046Z" transform="translate(0 13.117) rotate(-22.837)" fill="#dae0ff"/>
              <path id="Trazado_125218" data-name="Trazado 125218" d="M304.531,134.855l3.13,9.3,9.877-.073-7.947,5.825,3.123,9.3-8.036-5.7-7.947,5.825,2.983-9.349-8.043-5.7,9.884-.073Z" transform="translate(-246.739 -128.08)" fill="#faaf3b"/>
              <path id="Trazado_125219" data-name="Trazado 125219" d="M339.962,134.855l3.13,9.3,9.877-.073-7.947,5.825,3.123,9.3-8.036-5.7-7.947,5.825,2.983-9.349-8.043-5.7,9.884-.073Z" transform="translate(-250.705 -128.08)" fill="#faaf3b"/>
              <path id="Trazado_125220" data-name="Trazado 125220" d="M375.392,134.855l3.13,9.3,9.877-.073-7.947,5.825,3.123,9.3-8.036-5.7-7.947,5.825,2.983-9.349-8.043-5.7,9.884-.073Z" transform="translate(-254.671 -128.08)" fill="#faaf3b"/>
              <path id="Trazado_125221" data-name="Trazado 125221" d="M410.823,134.855l3.123,9.3,9.884-.073-7.947,5.825,3.123,9.3-8.036-5.7-7.947,5.825,2.983-9.349-8.043-5.7,9.884-.073Z" transform="translate(-258.637 -128.08)" fill="#e8ecff"/>
              <path id="Trazado_125222" data-name="Trazado 125222" d="M446.254,134.855l3.123,9.3,9.884-.073-7.947,5.825,3.123,9.3-8.036-5.7-7.947,5.825,2.976-9.349-8.036-5.7,9.884-.073Z" transform="translate(-262.603 -128.08)" fill="#e8ecff"/>
            </g>
            <g id="Grupo_55519" data-name="Grupo 55519" transform="translate(4.38 46.56)">
              <g id="Grupo_55514" data-name="Grupo 55514">
                <rect id="Rectángulo_30281" data-name="Rectángulo 30281" width="15.04" height="3.991" fill="#bbabf8"/>
                <rect id="Rectángulo_30282" data-name="Rectángulo 30282" width="22.545" height="3.991" transform="translate(18.752)" fill="#bbabf8"/>
              </g>
              <g id="Grupo_55518" data-name="Grupo 55518" transform="translate(0 11.848)">
                <g id="Grupo_55515" data-name="Grupo 55515">
                  <rect id="Rectángulo_30283" data-name="Rectángulo 30283" width="32.437" height="3.991" fill="#e6dffc"/>
                  <rect id="Rectángulo_30284" data-name="Rectángulo 30284" width="75.892" height="3.991" transform="translate(45.65)" fill="#e6dffc"/>
                  <rect id="Rectángulo_30285" data-name="Rectángulo 30285" width="58.414" height="3.991" transform="translate(134.762)" fill="#e6dffc"/>
                </g>
                <g id="Grupo_55516" data-name="Grupo 55516" transform="translate(0 12.696)">
                  <rect id="Rectángulo_30286" data-name="Rectángulo 30286" width="72.518" height="3.991" fill="#e6dffc"/>
                  <rect id="Rectángulo_30287" data-name="Rectángulo 30287" width="36.244" height="3.991" transform="translate(156.932)" fill="#e6dffc"/>
                  <rect id="Rectángulo_30288" data-name="Rectángulo 30288" width="63.533" height="3.991" transform="translate(84.877)" fill="#e6dffc"/>
                </g>
                <g id="Grupo_55517" data-name="Grupo 55517" transform="translate(0 25.392)">
                  <rect id="Rectángulo_30289" data-name="Rectángulo 30289" width="92.552" height="3.991" fill="#e6dffc"/>
                </g>
              </g>
            </g>
          </g>
        </g>
        <g id="Grupo_55524" data-name="Grupo 55524" transform="translate(290.214)">
          <path id="Trazado_125223" data-name="Trazado 125223" d="M494.316,41.253H364.26a10.6,10.6,0,0,0-10.643,10.562V77.638A10.6,10.6,0,0,0,364.26,88.2H494.316a10.6,10.6,0,0,0,10.643-10.562V51.815A10.6,10.6,0,0,0,494.316,41.253Z" transform="translate(-353.617 -41.253)" fill="#fff" stroke="#bbabf8" stroke-miterlimit="10" stroke-width="0.869"/>
          <path id="Trazado_125224" data-name="Trazado 125224" d="M408.889,58.827l2.04,6.067,6.445-.044-5.185,3.8,2.04,6.067L408.985,71l-5.193,3.8,1.944-6.1-5.244-3.72,6.452-.044Z" transform="translate(-358.864 -43.339)" fill="#faaf3b"/>
          <path id="Trazado_125225" data-name="Trazado 125225" d="M432.013,58.827l2.04,6.067,6.452-.044-5.192,3.8,2.04,6.067L432.109,71l-5.185,3.8,1.944-6.1-5.244-3.72,6.445-.044Z" transform="translate(-361.454 -43.339)" fill="#faaf3b"/>
          <path id="Trazado_125226" data-name="Trazado 125226" d="M455.143,58.827l2.04,6.067,6.445-.044-5.185,3.8,2.04,6.067L455.231,71l-5.185,3.8,1.944-6.1-5.244-3.72,6.445-.044Z" transform="translate(-364.042 -43.339)" fill="#faaf3b"/>
          <path id="Trazado_125227" data-name="Trazado 125227" d="M478.266,58.827l2.04,6.067,6.445-.044-5.185,3.8,2.04,6.067L478.362,71l-5.185,3.8,1.944-6.1-5.251-3.72,6.452-.044Z" transform="translate(-366.63 -43.339)" fill="#faaf3b"/>
          <path id="Trazado_125228" data-name="Trazado 125228" d="M501.389,58.827l2.04,6.067,6.452-.044-5.192,3.8,2.04,6.067L501.485,71,496.3,74.8l1.944-6.1L493,64.974l6.445-.044Z" transform="translate(-369.22 -43.339)" fill="#e8ecff"/>
          <g id="Grupo_55523" data-name="Grupo 55523" transform="translate(12.064 10.595)">
            <path id="Trazado_125289" data-name="Trazado 125289" d="M9.416.011a9.485,9.485,0,0,1,.023,18.969A9.485,9.485,0,0,1,9.416.011Z" transform="translate(0.544 18.588) rotate(-80.822)" fill="#dae0ff"/>
            <g id="Grupo_55522" data-name="Grupo 55522" transform="translate(0 22.151)">
              <rect id="Rectángulo_30290" data-name="Rectángulo 30290" width="8.382" height="2.222" fill="#bbabf8"/>
              <rect id="Rectángulo_30291" data-name="Rectángulo 30291" width="12.565" height="2.222" transform="translate(10.451)" fill="#bbabf8"/>
            </g>
          </g>
        </g>
        <g id="Grupo_55527" data-name="Grupo 55527" transform="translate(0 42.949)">
          <path id="Trazado_125229" data-name="Trazado 125229" d="M123.425,89.986h-89.3a7.277,7.277,0,0,0-7.306,7.251v17.732a7.277,7.277,0,0,0,7.306,7.251h89.3a7.277,7.277,0,0,0,7.306-7.251V97.237A7.277,7.277,0,0,0,123.425,89.986Z" transform="translate(-26.822 -89.986)" fill="#fff" stroke="#bbabf8" stroke-miterlimit="10" stroke-width="0.869"/>
          <path id="Trazado_125230" data-name="Trazado 125230" d="M64.768,102.054l1.4,4.166,4.427-.037-3.565,2.609,1.407,4.174-3.6-2.558-3.565,2.609,1.333-4.188L59,106.271l4.427-.029Z" transform="translate(-30.424 -91.419)" fill="#faaf3b"/>
          <path id="Trazado_125231" data-name="Trazado 125231" d="M80.643,102.054l1.407,4.166,4.427-.037-3.565,2.609,1.4,4.174-3.6-2.558-3.557,2.609,1.333-4.188-3.6-2.558,4.427-.029Z" transform="translate(-32.202 -91.419)" fill="#faaf3b"/>
          <path id="Trazado_125232" data-name="Trazado 125232" d="M96.526,102.054l1.4,4.166,4.427-.037-3.557,2.609,1.4,4.174-3.6-2.558-3.565,2.609,1.34-4.188-3.6-2.558,4.427-.029Z" transform="translate(-33.98 -91.419)" fill="#faaf3b"/>
          <path id="Trazado_125233" data-name="Trazado 125233" d="M112.407,102.054l1.4,4.166,4.427-.037-3.565,2.609,1.407,4.174-3.6-2.558-3.565,2.609,1.333-4.188-3.6-2.558,4.427-.029Z" transform="translate(-35.757 -91.419)" fill="#faaf3b"/>
          <path id="Trazado_125234" data-name="Trazado 125234" d="M128.282,102.054l1.4,4.166,4.434-.037-3.565,2.609,1.4,4.174-3.6-2.558-3.557,2.609,1.333-4.188-3.6-2.558,4.427-.029Z" transform="translate(-37.534 -91.419)" fill="#e8ecff"/>
          <g id="Grupo_55526" data-name="Grupo 55526" transform="translate(8.279 7.255)">
            <path id="Trazado_125290" data-name="Trazado 125290" d="M6.47.008a6.517,6.517,0,0,1,.016,13.034A6.517,6.517,0,0,1,6.47.008Z" transform="translate(0.363 12.767) rotate(-80.671)" fill="#dae0ff"/>
            <g id="Grupo_55525" data-name="Grupo 55525" transform="translate(0 15.229)">
              <rect id="Rectángulo_30292" data-name="Rectángulo 30292" width="5.752" height="1.528" fill="#bbabf8"/>
              <rect id="Rectángulo_30293" data-name="Rectángulo 30293" width="8.632" height="1.528" transform="translate(7.174)" fill="#bbabf8"/>
            </g>
          </g>
        </g>
      </g>
      <g id="Grupo_55535" data-name="Grupo 55535" transform="translate(15.279 0)">
        <g id="Grupo_55529" data-name="Grupo 55529" transform="translate(374.402 223.634)">
          <ellipse id="Elipse_4234" data-name="Elipse 4234" cx="19.827" cy="19.677" rx="19.827" ry="19.677" fill="#c1507f" opacity="0.706"/>
          <path id="Trazado_125235" data-name="Trazado 125235" d="M479.941,276.461a5.934,5.934,0,0,0-5.951,5.921,5.959,5.959,0,0,0-11.917,0c0,7.375,11.917,13.559,11.917,13.559s11.917-6.184,11.917-13.559A5.937,5.937,0,0,0,479.941,276.461Z" transform="translate(-454.17 -264.203)" fill="#fff"/>
        </g>
        <g id="Grupo_55530" data-name="Grupo 55530" transform="translate(0 141.47)">
          <path id="Trazado_125291" data-name="Trazado 125291" d="M19.681.024a19.824,19.824,0,0,1,.048,39.648A19.824,19.824,0,0,1,19.681.024Z" transform="translate(0 38.838) rotate(-80.706)" fill="#c1507f" opacity="0.675"/>
          <path id="Trazado_125236" data-name="Trazado 125236" d="M61.659,186.549a5.934,5.934,0,0,0-5.951,5.921,5.959,5.959,0,0,0-11.917,0c0,7.375,11.917,13.559,11.917,13.559s11.917-6.184,11.917-13.559A5.942,5.942,0,0,0,61.659,186.549Z" transform="translate(-32.945 -171.367)" fill="#fff"/>
        </g>
        <g id="Grupo_55531" data-name="Grupo 55531" transform="translate(110.571 25.765)">
          <path id="Trazado_125237" data-name="Trazado 125237" d="M176.466,38.035l4.817,14.7h15.57l-12.595,9.085,4.81,14.692-12.6-9.078-12.595,9.078,4.81-14.692-12.595-9.085h15.57Z" transform="translate(-156.087 -38.035)" fill="#bbabf8"/>
          <path id="Trazado_125238" data-name="Trazado 125238" d="M203.836,78l3.675,11.227h11.895l-9.619,6.936,3.668,11.227-9.619-6.936-9.619,6.936,3.675-11.227-9.626-6.936h11.895Z" transform="translate(-159.689 -42.779)" fill="#bbabf8"/>
          <path id="Trazado_125239" data-name="Trazado 125239" d="M187.167,116.634l2.136,6.527h6.916l-5.6,4.035,2.136,6.527-5.59-4.035-5.6,4.035,2.136-6.527-5.59-4.035h6.909Z" transform="translate(-158.553 -47.364)" fill="#bbabf8"/>
        </g>
        <g id="Grupo_55532" data-name="Grupo 55532" transform="translate(379.012 118.339)">
          <path id="Trazado_125292" data-name="Trazado 125292" d="M25.526.1A25.763,25.763,0,0,1,51.15,25.721,25.292,25.292,0,0,1,25.721,51.15,25.763,25.763,0,0,1,.1,25.526,25.292,25.292,0,0,1,25.526.1Z" transform="translate(0 35.962) rotate(-45)" fill="#cbc5e0"/>
          <path id="Trazado_125240" data-name="Trazado 125240" d="M484.533,169.664v8.8l17.971,4.1-17.971,4.1v8.808L517.8,182.564Z" transform="translate(-461.294 -146.232)" fill="#fff"/>
        </g>
        <g id="Grupo_55534" data-name="Grupo 55534" transform="translate(188.6)">
          <path id="Trazado_125241" data-name="Trazado 125241" d="M318.943,46.15a37.511,37.511,0,0,1-74.7,4.619,36.231,36.231,0,0,1,9.03-29.259A36.171,36.171,0,0,1,281.5,8.8C301.944,8.836,319.068,25.275,318.943,46.15Z" transform="translate(-243.951 -8.799)" fill="#cbc5e0"/>
          <g id="Grupo_55533" data-name="Grupo 55533" transform="translate(17.707 13.408)">
            <path id="Trazado_125242" data-name="Trazado 125242" d="M290.633,61.88c-3.307,0-6.614.007-9.921,0-1.186,0-1.628-.38-1.613-1.564.044-5.116-.236-10.248.147-15.357a16.108,16.108,0,0,1,3.6-8.837,49.933,49.933,0,0,1,4.449-5.036,2.313,2.313,0,0,0,.773-1.805c-.015-.877.074-1.754.052-2.631a2.284,2.284,0,0,1,1.37-2.419,2.734,2.734,0,0,1,3.012.6,5.484,5.484,0,0,1,1.444,2.924,11.9,11.9,0,0,1-.994,7.923c-.383.848-.729,1.718-1.164,2.544-.28.541-.066.731.42.811a5.334,5.334,0,0,0,.766.022l8.9-.022a2.926,2.926,0,0,1,3.1,2.142,3.513,3.513,0,0,1-1.5,3.991c-.589.307-.567.446-.059.8A3.084,3.084,0,0,1,305,49.1a2.463,2.463,0,0,1-1.775,2.164c-.2.066-.516.044-.552.307s.28.322.449.446c1.422,1.053,1.613,3.867-.479,4.722-.405.168-.582.263-.155.665a2.614,2.614,0,0,1,.5,3.063,2.347,2.347,0,0,1-2.445,1.36c-3.307-.015-6.614-.007-9.921-.007A.2.2,0,0,1,290.633,61.88Z" transform="translate(-265.586 -24.013)" fill="#fdfdfe"/>
            <path id="Trazado_125243" data-name="Trazado 125243" d="M273.4,67.458c-2.733.007-5.472.015-8.2.029a1.169,1.169,0,0,1-1.282-1.184,10.55,10.55,0,0,1-.022-1.184q0-8.53.007-17.052c0-1.4.354-1.747,1.782-1.747,2.453-.007,4.9-.007,7.351,0,.98.007,1.488.431,1.488,1.36.007,5.964-.015,11.929-.029,17.893a.328.328,0,0,1-.022.08c-.155.051-.133.1-.007.161.044.643.029,1.257-.714,1.528-.022-.175-.081-.373-.295-.314C273.22,67.1,273.434,67.312,273.4,67.458Z" transform="translate(-263.89 -26.66)" fill="#fdfdfe"/>
          </g>
        </g>
      </g>
      <g id="Grupo_55553" data-name="Grupo 55553" transform="translate(0 118.966)">
        <g id="Grupo_55552" data-name="Grupo 55552" clip-path="url(#clip-path-2)">
          <path id="Trazado_125244" data-name="Trazado 125244" d="M170.683,171.735c1.046,5.226.759,10.62,1.164,15.934s1.628,10.84,5.148,14.867c2.983,3.413,7.461,5.562,9.59,9.561a12.311,12.311,0,0,1,.383,10,20.07,20.07,0,0,1-6.15,8.164c-9.148,7.587-22.847,8.808-33.674,3.859s-18.612-15.481-21.175-27.037-.155-23.916,5.583-34.288c3.241-5.855,7.7-11.293,13.721-14.3,4.972-2.485,12.447-3.421,17.47-.417C167.052,160.654,169.762,167.137,170.683,171.735Z" transform="translate(-26.751 -145.261)" fill="#452828"/>
          <g id="Grupo_55539" data-name="Grupo 55539" transform="translate(122.035 85.306)">
            <g id="Grupo_55537" data-name="Grupo 55537" transform="translate(35.169 39.835)">
              <g id="Grupo_55536" data-name="Grupo 55536" transform="translate(53.428)">
                <path id="Trazado_125245" data-name="Trazado 125245" d="M272.239,307.315s-1.944,4.152-6.894,1.674l-3.241,6.067,8.072,4.239L276.04,308.3l-2.32-10.825a3.458,3.458,0,0,0-2.129,3.18C271.658,303,272.239,307.315,272.239,307.315Z" transform="translate(-252.736 -287.171)" fill="#915046"/>
                <path id="Trazado_125246" data-name="Trazado 125246" d="M280.085,323.328a6.753,6.753,0,0,0-3.616-6.089l-8.455-4.444-1.746,3.275Z" transform="translate(-253.202 -288.989)" fill="#994f39"/>
                <path id="Trazado_125247" data-name="Trazado 125247" d="M282.6,327.5a6.753,6.753,0,0,0-3.616-6.089l-9.707-5.095-1.746,3.275Z" transform="translate(-253.343 -289.408)" fill="#ab6955"/>
                <path id="Trazado_125248" data-name="Trazado 125248" d="M270.238,285.783l2.814,8.391,8.912-.073-7.166,5.255,2.821,8.391-7.255-5.146-7.166,5.255,2.688-8.435-7.247-5.138,8.912-.073Z" transform="translate(-252.348 -285.783)" fill="#faaf3b"/>
                <path id="Trazado_125249" data-name="Trazado 125249" d="M264,309.2l.412-2.938,3.417-2.675a4.289,4.289,0,0,0,1.65-3.362V299.9l-10.437,3.691-4.552,5.343-2.931,5.5,15.776,8.289,1.068-2.01a8.093,8.093,0,0,0-3.4-10.978Z" transform="translate(-251.555 -287.459)" fill="#b57a68"/>
                <path id="Trazado_125250" data-name="Trazado 125250" d="M279.9,330.887a6.753,6.753,0,0,0-3.616-6.089l-9.707-5.095-1.746,3.275Z" transform="translate(-253.042 -289.809)" fill="#b57a68"/>
                <path id="Trazado_125251" data-name="Trazado 125251" d="M264.945,310.117a15.107,15.107,0,0,1-3.719,3.918" transform="translate(-252.638 -288.671)" fill="none" stroke="#a15545" stroke-linecap="round" stroke-linejoin="round" stroke-miterlimit="10" stroke-width="1.547"/>
              </g>
              <path id="Trazado_125252" data-name="Trazado 125252" d="M200.7,310.059l48.036.767-.184,6.542-57.162,8.661Z" transform="translate(-191.393 -288.665)" fill="#b57a68"/>
            </g>
            <path id="Trazado_125253" data-name="Trazado 125253" d="M151.8,240.583h14.09A15.533,15.533,0,0,1,180.6,251.02l20.475,59.424s-1.421,10.993-10.09,12a7.989,7.989,0,0,1-7.91-4.269l-31.28-58.9v-18.7Z" transform="translate(-151.791 -240.583)" fill="#383757"/>
            <g id="Grupo_55538" data-name="Grupo 55538" transform="translate(29.925 60.25)">
              <path id="Trazado_125254" data-name="Trazado 125254" d="M191.472,308.947l46.35,1.55-15.261,19.121-29.284,1.74a5.67,5.67,0,0,1-5.855-7.083l1.915-7.251Z" transform="translate(-185.683 -308.947)" fill="#383757"/>
              <path id="Trazado_125255" data-name="Trazado 125255" d="M200.613,310.059c-3.786,2.273-8.058,5.767-10.024,9.707" transform="translate(-186.059 -309.079)" fill="none" stroke="#474463" stroke-linecap="round" stroke-miterlimit="10" stroke-width="1.547"/>
              <path id="Trazado_125256" data-name="Trazado 125256" d="M200.042,310.059c-4.913.19-10.967.848-14.554,4.181" transform="translate(-185.488 -309.079)" fill="none" stroke="#474463" stroke-linecap="round" stroke-miterlimit="10" stroke-width="1.547"/>
            </g>
          </g>
          <g id="Grupo_55540" data-name="Grupo 55540" transform="translate(65.956 85.072)">
            <path id="Trazado_125257" data-name="Trazado 125257" d="M155.994,381.8a118.538,118.538,0,0,1-22.943-.146c-12.042-1.148-22.685-6.8-33.077-12.528q-2.254-1.239-4.522-2.544c5.48-8.6,12.455-17.484,20.468-23.112h40.038l12.978,35.209A41.065,41.065,0,0,1,155.994,381.8Z" transform="translate(-89.405 -252.56)" fill="#fff"/>
            <path id="Trazado_125258" data-name="Trazado 125258" d="M108.838,329.391,97.216,249.844l5.841-9.378h53.258L170.95,279.6s-12.241,37.65-12.241,51.618l13.471,38.827-15.909,6.074-12.248-37.306-13.464,37.043L88.643,358.548Z" transform="translate(-88.643 -240.335)" fill="#474463"/>
            <path id="Trazado_125259" data-name="Trazado 125259" d="M98.288,249.82l5.914-9.495h7.623l2.246,18.931L106.721,307.5Z" transform="translate(-89.722 -240.318)" fill="#383757"/>
            <path id="Trazado_125260" data-name="Trazado 125260" d="M157.279,240.757v44.769L119.5,240.757Z" transform="translate(-92.096 -240.369)" fill="#fff"/>
            <path id="Trazado_125261" data-name="Trazado 125261" d="M134.073,251.471a45.776,45.776,0,0,1-7.734-2.6l-7.218-8.552H157.23v6.571C151.9,253.145,141.8,253.3,134.073,251.471Z" transform="translate(-92.055 -240.317)" fill="#b57a68"/>
            <path id="Trazado_125262" data-name="Trazado 125262" d="M119.13,240.326v27.965H135.29l-8.978,18.8,32.09-.227Z" transform="translate(-92.055 -240.318)" fill="#615f7f"/>
            <path id="Trazado_125263" data-name="Trazado 125263" d="M162.042,240.326h2.438l18.885,27.965H168.449l16.1,18.8H162.263Z" transform="translate(-96.859 -240.318)" fill="#615f7f"/>
            <path id="Trazado_125264" data-name="Trazado 125264" d="M160.987,293.339c-3.638,17.052-6.3,34.324-9.943,51.384" transform="translate(-95.628 -246.611)" fill="none" stroke="#383757" stroke-miterlimit="10" stroke-width="1.547"/>
          </g>
          <path id="Trazado_125265" data-name="Trazado 125265" d="M109.851,240.317H95.761a15.533,15.533,0,0,0-14.708,10.438L60.577,310.179a21.7,21.7,0,0,0,2.291,8.157c3.27,5.972,11.365,7.492,14.591,1.5l32.4-60.813v-18.7Z" transform="translate(-19.545 -155.245)" fill="#474463"/>
          <g id="Grupo_55541" data-name="Grupo 55541" transform="translate(106.472 125.908)">
            <path id="Trazado_125266" data-name="Trazado 125266" d="M137.925,311.469l3.867,3.326,9.258,2.105-.044-.329a4.283,4.283,0,0,0-2.092-3.106l-2.32-1.849.67-2.544,3.9-3.209-4.721-4.057-10.083,6.586Z" transform="translate(-134.5 -288.451)" fill="#915046"/>
            <path id="Trazado_125267" data-name="Trazado 125267" d="M147.487,305.365l6.445,6.1,7.844-4.2-3.859,7.967,6.445,6.111-8.831-1.184-3.859,7.974-1.6-8.7-8.831-1.184,7.844-4.2Z" transform="translate(-135.047 -288.873)" fill="#faaf3b"/>
            <path id="Trazado_125268" data-name="Trazado 125268" d="M153.7,307.744s-1.989-3.077-5.634-.592l-3.219-4.459,6.585-4.561,5.826,8.069-1.3,7.412a2.777,2.777,0,0,1-2.033-2.288C153.724,309.476,153.7,307.744,153.7,307.744Z" transform="translate(-135.451 -288.015)" fill="#915046"/>
            <path id="Trazado_125269" data-name="Trazado 125269" d="M138.111,311.395l-3.845-5.109,14.289-10.957,1.333,1.849c2.637,3.647,2.5,6.929.236,8.705L147.03,308.3Z" transform="translate(-134.266 -287.682)" fill="#b57a68"/>
            <path id="Trazado_125270" data-name="Trazado 125270" d="M160.64,300.685a.514.514,0,0,1,.589.709,5.549,5.549,0,0,1-3.778,3.194l-8.713,2.127-.729-2.938Z" transform="translate(-135.805 -288.316)" fill="#b57a68"/>
            <path id="Trazado_125271" data-name="Trazado 125271" d="M159.323,286.793a.635.635,0,0,1,1.031.482,6.761,6.761,0,0,1-2.548,5.519l-8.617,6.885-2.357-2.909Z" transform="translate(-135.673 -286.652)" fill="#b57a68"/>
            <path id="Trazado_125272" data-name="Trazado 125272" d="M161.305,293.645a.636.636,0,0,1,.906.687,6.818,6.818,0,0,1-3.675,4.853l-8.632,4.261-1.679-3.34Z" transform="translate(-135.829 -287.474)" fill="#b57a68"/>
          </g>
          <g id="Grupo_55542" data-name="Grupo 55542" transform="translate(44.028 142.64)">
            <path id="Trazado_125273" data-name="Trazado 125273" d="M76.053,305.909l47.278-.27-14.716,20.356L71.98,331.462a6.966,6.966,0,0,1-7.918-8.1C65.411,315.864,68.585,306.515,76.053,305.909Z" transform="translate(-63.951 -305.638)" fill="#474463"/>
            <line id="Línea_1580" data-name="Línea 1580" x1="15.482" y2="0.314" transform="translate(9.458 0.234)" fill="none" stroke="#383757" stroke-linecap="round" stroke-miterlimit="10" stroke-width="1.547"/>
            <line id="Línea_1581" data-name="Línea 1581" x1="16.152" y2="4.269" transform="translate(8.788 0.197)" fill="none" stroke="#383757" stroke-linecap="round" stroke-miterlimit="10" stroke-width="1.547"/>
          </g>
          <g id="Grupo_55543" data-name="Grupo 55543" transform="translate(102.326 47.656)">
            <path id="Trazado_125274" data-name="Trazado 125274" d="M129.6,197.862l1.665,41.268a3.112,3.112,0,0,0,3.116,2.975h20.468a2.806,2.806,0,0,0,1.959-4.831c-3.926-3.808-7.9-10.343-7.9-21.19V198.7Z" transform="translate(-129.597 -197.862)" fill="#b57a68"/>
            <path id="Trazado_125275" data-name="Trazado 125275" d="M140.092,198.326l9.862.424v17.389a34.2,34.2,0,0,0,1.967,11.936C140.585,224.252,136.763,209.181,140.092,198.326Z" transform="translate(-130.642 -197.917)" fill="#915046"/>
          </g>
          <g id="Grupo_55551" data-name="Grupo 55551" transform="translate(72.559 1.187)">
            <g id="Grupo_55545" data-name="Grupo 55545">
              <g id="Grupo_55544" data-name="Grupo 55544" transform="translate(19.171 7.302)">
                <path id="Trazado_125276" data-name="Trazado 125276" d="M133.314,208.046a29.293,29.293,0,0,1-4.029-3.3,38.645,38.645,0,0,1-11.416-23.96c-.854-8.413.847-16.782,7.881-22.337,7.535-5.95,19.282-6.469,27.767-2.339,8.117,3.947,12.58,11.454,14.237,20.042a73.356,73.356,0,0,1,1.112,12.952c.11,8.113-1.156,23.7-10.554,25.641C148.162,216.817,140.76,213.038,133.314,208.046Z" transform="translate(-117.666 -153.42)" fill="#b57a68"/>
              </g>
              <path id="Trazado_125277" data-name="Trazado 125277" d="M168.914,172.943c2.7,3.823,3.469,8.632,4.169,13.244a33.611,33.611,0,0,0,.007-18.229,19.013,19.013,0,0,0-3.9-7.638,10.363,10.363,0,0,0-7.616-3.611c-4.537.073-9.987,6.271-5.3,10.021,1.429,1.148,3.859.906,5.561,1.36A12.543,12.543,0,0,1,168.914,172.943Z" transform="translate(-102.616 -146.508)" fill="#452828"/>
              <path id="Trazado_125278" data-name="Trazado 125278" d="M151.52,174.982a23.363,23.363,0,0,1-10.893,5.431c-4.139.87-9.162.629-12.278,3.918-9.464,10-1.488,22.015,3.336,32.1,2.431,5.08,4.942,10.978,3.624,16.7-1.687,7.324-8.883,10.8-15.953,10.832-11.512.044-20.431-8.442-22.729-19.348a27.712,27.712,0,0,1,1.834-16.57c2.033-4.868,5.31-9.166,6.938-14.2,2.607-8.069-1.083-16.57,1.554-24.771,5.244-16.292,30.485-32.292,45.878-19.011C161.7,157.718,158.812,168.411,151.52,174.982Z" transform="translate(-96.078 -145.135)" fill="#452828"/>
              <path id="Trazado_125279" data-name="Trazado 125279" d="M132.619,182.9a12.225,12.225,0,0,0-3.719,7.514,15.573,15.573,0,0,0,2.158,9.275l2.106-.365a41.775,41.775,0,0,1,2.32-10.759,34.945,34.945,0,0,1,1.937-4.656C136.788,181.019,134.49,181.136,132.619,182.9Z" transform="translate(-99.744 -149.468)" fill="#452828"/>
            </g>
            <g id="Grupo_55549" data-name="Grupo 55549" transform="translate(44.107 33.498)">
              <path id="Trazado_125280" data-name="Trazado 125280" d="M164.455,192.372A22.918,22.918,0,0,0,167.718,200a3.579,3.579,0,0,1,.928,2.668c-.214.892-1.1,1.425-1.908,1.871" transform="translate(-147.839 -184.24)" fill="none" stroke="#915046" stroke-linecap="round" stroke-miterlimit="10" stroke-width="1.009"/>
              <g id="Grupo_55546" data-name="Grupo 55546" transform="translate(11.158 22.384)">
                <path id="Trazado_125293" data-name="Trazado 125293" d="M2.325.006A2.333,2.333,0,0,1,4.656,2.323a2.3,2.3,0,0,1-2.32,2.306A2.333,2.333,0,0,1,.006,2.312,2.3,2.3,0,0,1,2.325.006Z" transform="translate(1.595 1.602) rotate(-20.298)" fill="#ff7a7a"/>
                <path id="Trazado_125281" data-name="Trazado 125281" d="M166.441,210.419a9.184,9.184,0,0,1-8.131.534" transform="translate(-158.31 -208.765)" fill="none" stroke="#915046" stroke-linecap="round" stroke-miterlimit="10" stroke-width="1.009"/>
              </g>
              <g id="Grupo_55547" data-name="Grupo 55547" transform="translate(18.899)">
                <path id="Trazado_125282" data-name="Trazado 125282" d="M172.933,183.85a4.694,4.694,0,0,0-5.907.767" transform="translate(-167.026 -183.144)" fill="none" stroke="#452828" stroke-linecap="round" stroke-miterlimit="10" stroke-width="1.512"/>
              </g>
              <g id="Grupo_55548" data-name="Grupo 55548" transform="translate(0 2.357)">
                <path id="Trazado_125283" data-name="Trazado 125283" d="M154.244,186.273a9.437,9.437,0,0,0-8.5,1.389" transform="translate(-145.745 -185.819)" fill="none" stroke="#452828" stroke-linecap="round" stroke-miterlimit="10" stroke-width="1.512"/>
              </g>
              <path id="Trazado_125284" data-name="Trazado 125284" d="M154.206,193.394a2.079,2.079,0,1,1-2.408-1.674A2.066,2.066,0,0,1,154.206,193.394Z" transform="translate(-146.23 -184.158)" fill="#452828"/>
              <path id="Trazado_125294" data-name="Trazado 125294" d="M2.062,0a2.077,2.077,0,0,1,.005,4.153A2.077,2.077,0,0,1,2.062,0Z" transform="translate(19.373 9.482) rotate(-80.642)" fill="#452828"/>
            </g>
            <g id="Grupo_55550" data-name="Grupo 55550" transform="translate(22.78 43.838)">
              <path id="Trazado_125285" data-name="Trazado 125285" d="M129.784,196.316a5.283,5.283,0,0,0-5.193-1.155,4.743,4.743,0,0,0-2.7,3.355,7.788,7.788,0,0,0,.405,4.386,12.428,12.428,0,0,0,10.864,7.982c.987.044.442-7.8.3-8.552A11.235,11.235,0,0,0,129.784,196.316Z" transform="translate(-121.73 -194.877)" fill="#b57a68"/>
              <path id="Trazado_125286" data-name="Trazado 125286" d="M132.524,210.431a2.056,2.056,0,1,1-2.379-1.659A2.04,2.04,0,0,1,132.524,210.431Z" transform="translate(-122.481 -196.522)" fill="#fff"/>
              <path id="Trazado_125287" data-name="Trazado 125287" d="M125.359,198.718a2.972,2.972,0,0,1,3.02-.351,4.464,4.464,0,0,1,2.187,2.229,9.366,9.366,0,0,1,.766,3.07,1.628,1.628,0,0,0-1.989-.132,1.552,1.552,0,0,0,1.318,2.756" transform="translate(-122.136 -195.261)" fill="none" stroke="#915046" stroke-linecap="round" stroke-miterlimit="10" stroke-width="1.009"/>
            </g>
          </g>
        </g>
      </g>
    </g>
  </g>
</svg>
