<svg id="graficos14-13" xmlns="http://www.w3.org/2000/svg" width="498" height="279.264" viewBox="0 0 498 279.264">
  <g id="freepik--character-1--inject-3" transform="translate(32.432 21.789)">
    <path id="Trazado_128948" data-name="Trazado 128948" d="M321.722,147.565a9.471,9.471,0,0,0-.684-16.483l-11.348-2.2q.451,21.363.613,42.738c2.9-.54,5.861-1.435,8.042-3.426s3.346-5.331,2.073-8a7.515,7.515,0,0,0,1.31-12.627Z" transform="translate(-247.136 -111.139)" fill="#263238"/>
    <path id="Trazado_128949" data-name="Trazado 128949" d="M170.945,159.306l-.255-5.049,30.178-6.714c9.327-1.285,19.737,7.787,20.623,17.176.978,10.428,1.767,23.172.751,31-2,15.731-13.943,18.1-13.943,18.1l.972,15.455c.383,9.02-7.165,11.275-16.2,11.655h0a16.4,16.4,0,0,1-17.053-15.112Z" transform="translate(-150.769 -123.994)" fill="#966960"/>
    <path id="Trazado_128950" data-name="Trazado 128950" d="M313.689,233.286a2.009,2.009,0,0,1-1.88,2.083,1.911,1.911,0,0,1-2.113-1.681.445.445,0,0,0,0-.064,2.009,2.009,0,0,1,1.874-2.089,1.926,1.926,0,0,1,2.122,1.718A.317.317,0,0,0,313.689,233.286Z" transform="translate(-247.139 -182.301)" fill="#263238"/>
    <path id="Trazado_128951" data-name="Trazado 128951" d="M308.34,221.253c-.239.27-1.8-.807-3.963-.755s-3.705,1.205-3.954.948c-.12-.113.123-.592.8-1.12a5.521,5.521,0,0,1,3.156-1.073,5.263,5.263,0,0,1,3.159.92C308.19,220.664,308.429,221.13,308.34,221.253Z" transform="translate(-240.691 -173.791)" fill="#263238"/>
    <path id="Trazado_128952" data-name="Trazado 128952" d="M248.109,237.547a2.009,2.009,0,0,1-1.871,2.083,1.92,1.92,0,0,1-2.122-1.687v-.055a2.006,2.006,0,0,1,1.871-2.092,1.932,1.932,0,0,1,2.122,1.718A.139.139,0,0,1,248.109,237.547Z" transform="translate(-201.672 -185.255)" fill="#263238"/>
    <path id="Trazado_128953" data-name="Trazado 128953" d="M239.039,224.712c-.248.27-1.807-.813-3.963-.755s-3.711,1.205-3.954.948c-.12-.12.12-.592.8-1.12a5.456,5.456,0,0,1,3.15-1.083,5.3,5.3,0,0,1,3.162.92C238.911,224.124,239.15,224.59,239.039,224.712Z" transform="translate(-192.646 -176.184)" fill="#263238"/>
    <path id="Trazado_128954" data-name="Trazado 128954" d="M280.626,240.032a15.447,15.447,0,0,1,3.487-.751c.549-.074,1.077-.2,1.15-.577a2.779,2.779,0,0,0-.411-1.626l-1.767-4.156c-2.454-5.907-4.248-10.778-4.006-10.876s2.42,4.6,4.871,10.523l1.7,4.184A3.209,3.209,0,0,1,286,238.9a1.4,1.4,0,0,1-.889.834,3.414,3.414,0,0,1-.92.156A11.961,11.961,0,0,1,280.626,240.032Z" transform="translate(-225.9 -175.729)" fill="#263238"/>
    <path id="Trazado_128955" data-name="Trazado 128955" d="M244.366,352.783a41.458,41.458,0,0,1-21.676-4.963s5.616,10.79,21.8,8.861Z" transform="translate(-186.82 -262.927)" fill="#77544d"/>
    <path id="Trazado_128956" data-name="Trazado 128956" d="M267.239,294.657a3.9,3.9,0,0,0-3.533-1.337,3.558,3.558,0,0,0-2.42,1.392,2.257,2.257,0,0,0-.089,2.586,2.628,2.628,0,0,0,2.855.613,8.264,8.264,0,0,0,2.714-1.73,2.369,2.369,0,0,0,.613-.644.751.751,0,0,0,0-.807" transform="translate(-213.264 -225.115)" fill="#77544d"/>
    <path id="Trazado_128957" data-name="Trazado 128957" d="M262.878,286.229c.353-.037.429,2.31,2.487,3.917s4.549,1.264,4.576,1.592c.04.144-.54.475-1.6.534a5.791,5.791,0,0,1-3.8-1.205,5.076,5.076,0,0,1-1.938-3.285C262.47,286.809,262.719,286.214,262.878,286.229Z" transform="translate(-214.464 -220.227)" fill="#263238"/>
    <path id="Trazado_128958" data-name="Trazado 128958" d="M235.779,205.881c-.2.592-2.359.383-4.886.751s-4.555,1.135-4.907.613c-.156-.248.181-.81.994-1.4a8.588,8.588,0,0,1,7.456-1.061C235.365,205.151,235.847,205.6,235.779,205.881Z" transform="translate(-189.079 -163.471)" fill="#263238"/>
    <path id="Trazado_128959" data-name="Trazado 128959" d="M308.564,196.844c-.362.5-1.865,0-3.659.067s-3.294.436-3.662-.067c-.156-.248.067-.751.751-1.227a5.312,5.312,0,0,1,5.9,0C308.5,196.1,308.729,196.6,308.564,196.844Z" transform="translate(-241.246 -156.787)" fill="#263238"/>
    <path id="Trazado_128960" data-name="Trazado 128960" d="M129.244,377.17s-16.369,17.927-16.369,39.011,13.37,47.541,12.115,62.634-12.913,35.245-16.375,45.314-2.828,13.222-2.828,13.222h86.22l-1.73-57.727-.15-30.4.512-27.509-24.427-33.073v-6.766l-35.886-9.441Z" transform="translate(-105.741 -279.996)" fill="#f5ca56"/>
    <path id="Trazado_128961" data-name="Trazado 128961" d="M383.94,766.28s29.846,31.638,30.472,32.141,23.571,0,23.571,0l14.066,7.87s-.834,2.684-5.521,1.347a1.932,1.932,0,0,1-.715,2.819h-8.036l-7.168-.095H406.993l-22.421-15.517Z" transform="translate(-298.612 -553.04)" fill="#966960"/>
    <g id="Grupo_55780" data-name="Grupo 55780" transform="translate(14.763 121.447)" opacity="0.3">
      <path id="Trazado_128962" data-name="Trazado 128962" d="M153.883,467a48.839,48.839,0,0,0,9.1,29.751c6.278,8.487,15.872,14.633,26.307,16.047,3.518.472,7.116.436,10.523,1.389,3.067.859,5.846,2.481,8.852,3.5a23.822,23.822,0,0,0,10.882,1.086c1.42-.187,3.006-.675,3.549-2.006.751-1.978-1.429-3.757-3.294-4.766-22.875-12.4-46.777-27.359-65.891-45" transform="translate(-153.875 -467)"/>
    </g>
    <path id="Trazado_128963" data-name="Trazado 128963" d="M272.83,511.555s54.469,24.052,62.091,24.052,50.359-38.815,50.359-38.815l-10.168-12.238L333.918,508.7,286.727,482.84Z" transform="translate(-221.581 -356.535)" fill="#966960"/>
    <path id="Trazado_128964" data-name="Trazado 128964" d="M583.27,451.457l10.011-6.254s4.389-8.613,6.7-9.619,15.446-5.828,15.446-5.828l13.305-1.227s1.2,1.7-2.5,4.2c-2.76,1.865-8.094,2.859-8.094,2.859l-3.285,1.5s2.472,2.779,4.441,2.705c1.758-.068,7.913-3.681,9.846-2.9s-.561,5.788-.561,5.788h0a122.024,122.024,0,0,1-8.729,13.667c-1.187,1.359-9.229,1.359-9.229,1.359l-8.659,1.067-9.7,7.518Z" transform="translate(-436.805 -318.882)" fill="#966960"/>
    <path id="Trazado_128965" data-name="Trazado 128965" d="M170.747,396.8a19.433,19.433,0,0,0-13.8,9.358c-4.156,6.689-3.006,13.124-.248,21.725,1.212,3.757,4.181,7.809,7.361,10.891,7.361,7.11,23.182,16.924,23.182,16.924l24.623-27.911S184.748,400.6,170.747,396.8Z" transform="translate(-139.349 -296.884)" fill="#f5ca56"/>
    <path id="Trazado_128966" data-name="Trazado 128966" d="M181.106,402.87l.15.113.442.362,1.684,1.411,6.367,5.392,22.55,19.234.126.11-.11.138-24.053,27.282c-.2.227-.393.451-.58.653l-.1.123-.144-.083c-4.509-2.73-8.876-5.521-12.959-8.389a55.674,55.674,0,0,1-10.913-9.336,37.348,37.348,0,0,1-7.015-10.922,25.822,25.822,0,0,1-1.11-16.026,25.091,25.091,0,0,1,1.5-4.156,21.247,21.247,0,0,1,3.892-5.855,19.193,19.193,0,0,1,3.4-2.855l1-.586c.227-.129.347-.181.347-.181l-.307.218-.978.613a20.321,20.321,0,0,0-3.337,2.9,21.355,21.355,0,0,0-3.8,5.828,24.537,24.537,0,0,0-1.445,4.15,25.7,25.7,0,0,0,1.2,15.836,37.113,37.113,0,0,0,6.984,10.8c2.938,3.493,6.8,6.389,10.861,9.26s8.416,5.637,12.943,8.358l-.248.046.58-.662L212.081,429.4v.239L189.629,410.32l-6.3-5.466-1.653-1.457-.42-.377Z" transform="translate(-139.65 -298.618)" fill="#263238"/>
    <path id="Trazado_128967" data-name="Trazado 128967" d="M219.276,392.482a3.224,3.224,0,0,1-.046.6c-.052.39-.15.954-.307,1.675a22.542,22.542,0,0,1-2.254,5.8l-.083.15-.144-.1a65.64,65.64,0,0,0-12.52-6.337,128.345,128.345,0,0,0-15.216-4.828c-1.978-.528-3.592-.88-4.705-1.135l-1.285-.307a1.794,1.794,0,0,1-.436-.135,1.736,1.736,0,0,1,.451.061l1.3.239c1.12.218,2.76.524,4.742,1.015a113.565,113.565,0,0,1,15.28,4.727,61.6,61.6,0,0,1,12.627,6.456l-.224.046a23.577,23.577,0,0,0,2.328-5.69c.19-.708.307-1.27.393-1.653A3.379,3.379,0,0,1,219.276,392.482Z" transform="translate(-158.804 -290.686)" fill="#263238"/>
    <path id="Trazado_128968" data-name="Trazado 128968" d="M201.455,97.558A9.732,9.732,0,0,0,204.927,87.4a11.106,11.106,0,0,0-7.787-7.622,12.189,12.189,0,0,0-2.254-.353,10.122,10.122,0,0,0-4.907-1.242,5.268,5.268,0,0,0-4.131-3.987,12.425,12.425,0,0,0-6.015.42,10.217,10.217,0,0,0-16.425,1.227,8.373,8.373,0,0,0-12.213,5.521,8.312,8.312,0,0,0-5.886,3.006,8.112,8.112,0,0,0-1.276,2.2A7.843,7.843,0,0,0,142.64,89.7a9.413,9.413,0,0,0-3.757,17.289,8.606,8.606,0,0,0,.258,12.167,8.756,8.756,0,0,0,2,1.429,11.042,11.042,0,0,0,1.113,8.588,5.306,5.306,0,0,0,2.84,2.481,2.043,2.043,0,0,0,.258.586c.985,1.435,3.27.751,4.6-.4,3.233-2.736,4.877-6.913,5.69-11.069s.92-8.413,1.684-12.575a.614.614,0,0,1,.052-.291,11.625,11.625,0,0,1,2.147-4.791,29.529,29.529,0,0,0,3.834,2.294,12.459,12.459,0,0,0,14.416-3.331,18.234,18.234,0,0,0,11.732,3.911c4.217-.12,8.358-1.037,11.508-3.84a5.772,5.772,0,0,0,1.751-2.684A1.788,1.788,0,0,0,201.455,97.558Z" transform="translate(-125.673 -71.039)" fill="#263238"/>
    <path id="Trazado_128969" data-name="Trazado 128969" d="M162.314,252.2c-.212-.1-8.5-2.963-8.637,5.637s8.524,6.959,8.545,6.711S162.314,252.2,162.314,252.2Z" transform="translate(-138.973 -196.265)" fill="#966960"/>
    <path id="Trazado_128970" data-name="Trazado 128970" d="M164.57,267.492a2.375,2.375,0,0,1-.408.218,1.5,1.5,0,0,1-1.12,0c-.9-.344-1.647-1.794-1.659-3.343a4.88,4.88,0,0,1,.451-2.147,1.706,1.706,0,0,1,1.141-1.126.751.751,0,0,1,.88.42c.113.242.052.414.1.429s.187-.144.12-.5a.96.96,0,0,0-.325-.549,1.166,1.166,0,0,0-.825-.224A2.086,2.086,0,0,0,161.337,262a5.11,5.11,0,0,0-.558,2.383c0,1.736.889,3.374,2.129,3.757a1.6,1.6,0,0,0,1.374-.209C164.555,267.673,164.6,267.517,164.57,267.492Z" transform="translate(-143.898 -202.505)" fill="#77544d"/>
    <path id="Trazado_128971" data-name="Trazado 128971" d="M260.67,119.81a.472.472,0,0,0,.077.2,3.78,3.78,0,0,1,.156.613,6.551,6.551,0,0,1-1.767,5.794,6.748,6.748,0,0,1-4.555,1.984l.159-.135a14.8,14.8,0,0,1-3.454,7.521,11.481,11.481,0,0,1-3.757,2.908,9.53,9.53,0,0,1-4.923.807,16.842,16.842,0,0,1-4.788-1.126,12.906,12.906,0,0,1-4.006-2.331h.264a15.609,15.609,0,0,1-7.14,4.11,12.222,12.222,0,0,1-6.472-.442,12.728,12.728,0,0,1-3.757-2.052,10.52,10.52,0,0,1-.859-.751,1.839,1.839,0,0,1-.27-.285s.4.353,1.2.92a13.146,13.146,0,0,0,3.757,1.917,12.131,12.131,0,0,0,6.331.356,15.366,15.366,0,0,0,6.935-4.046l.129-.12.129.11a12.575,12.575,0,0,0,3.886,2.254,16.4,16.4,0,0,0,4.68,1.1,9.066,9.066,0,0,0,4.736-.751,10.943,10.943,0,0,0,3.616-2.8,14.474,14.474,0,0,0,3.411-7.321V128.1h.138a6.527,6.527,0,0,0,4.374-1.84,6.337,6.337,0,0,0,1.767-3.227,6.824,6.824,0,0,0,.089-2.38C260.738,120.1,260.649,119.81,260.67,119.81Z" transform="translate(-181.891 -104.851)" fill="#455a64"/>
    <path id="Trazado_128972" data-name="Trazado 128972" d="M159.583,130.3a19.207,19.207,0,0,0-.751,2.954,12.3,12.3,0,0,0,1.426,7.637l.077.126-.113.092a7.91,7.91,0,0,0-2.254,3.515,7.6,7.6,0,0,0,0,4.57,7.941,7.941,0,0,0,3.681,4.512l.159.083-.077.166a9.815,9.815,0,0,0-.969,5.364,10.756,10.756,0,0,0,1.27,4.165,12.091,12.091,0,0,0,2.454,3.006.989.989,0,0,1-.224-.15,6.645,6.645,0,0,1-.613-.488,9.713,9.713,0,0,1-1.84-2.254,10.662,10.662,0,0,1-1.353-4.251,10.122,10.122,0,0,1,.948-5.57l.083.248a8.282,8.282,0,0,1-3.9-4.751,7.956,7.956,0,0,1,.046-4.812,8.217,8.217,0,0,1,2.389-3.653v.218a12.269,12.269,0,0,1-1.325-7.833,10.9,10.9,0,0,1,.613-2.193,5.149,5.149,0,0,1,.242-.549C159.543,130.35,159.573,130.289,159.583,130.3Z" transform="translate(-141.444 -112.122)" fill="#455a64"/>
    <path id="Trazado_128973" data-name="Trazado 128973" d="M165.555,290.629a6.558,6.558,0,0,0-.166,1.534,2.258,2.258,0,0,0,.613,1.451,1.9,1.9,0,0,0,1.767.5,1.592,1.592,0,0,0,1.067-1.42,3.046,3.046,0,0,0-.307-1.595c-.423-.862-.8-1.359-.755-1.4a3.987,3.987,0,0,1,.985,1.276,3.129,3.129,0,0,1,.414,1.751,2.227,2.227,0,0,1-.353,1.046,1.739,1.739,0,0,1-.969.715,2.205,2.205,0,0,1-2.129-.613,2.454,2.454,0,0,1-.644-1.684A2.334,2.334,0,0,1,165.555,290.629Z" transform="translate(-146.877 -222.634)" fill="#263238"/>
    <path id="Trazado_128974" data-name="Trazado 128974" d="M268.53,484a3.118,3.118,0,0,1-.255.291l-.751.791-2.889,2.834c-2.411,2.426-5.7,5.828-9.2,9.671s-6.576,7.465-8.763,10.1l-2.586,3.119-.751.84a1.624,1.624,0,0,1-.264.279,2.7,2.7,0,0,1,.2-.325l.653-.886c.57-.751,1.42-1.865,2.487-3.208,2.147-2.678,5.171-6.306,8.689-10.177s6.849-7.232,9.312-9.606c1.227-1.187,2.257-2.147,2.957-2.782l.825-.751A1.408,1.408,0,0,1,268.53,484Z" transform="translate(-200.949 -357.339)" fill="#263238"/>
  </g>
  <g id="freepik--character-2--inject-3" transform="translate(213.256)">
    <path id="Trazado_128975" data-name="Trazado 128975" d="M747.169,438.642l6.861-6.763,8.165-1.429,28.773,11.21s4.509,7.938,1.021,13.768-6.766,5.622-6.766,5.622l-6.116-3.877L757.3,459.6s-9.183-6.328-9.385-7.551-.206-8.57-.206-8.57l-.871-1.205A2.813,2.813,0,0,1,747.169,438.642Z" transform="translate(-730.67 -298.425)" fill="#ffbe9d"/>
    <path id="Trazado_128976" data-name="Trazado 128976" d="M752.39,483.176a84.551,84.551,0,0,0,13.784,6.585,7.975,7.975,0,0,0,3.316.7,3.8,3.8,0,0,0,2.84-1.534,3.132,3.132,0,0,0,.285-3.165,5.751,5.751,0,0,0-2.454-2.126l-8.729-4.963" transform="translate(-734.877 -331.855)" fill="#ffbe9d"/>
    <path id="Trazado_128977" data-name="Trazado 128977" d="M752.076,483.016a86.091,86.091,0,0,0,7.668,4.052,43.534,43.534,0,0,0,7.757,3.067c1.911.451,4.156-.077,4.978-2.052s-.528-3.585-2.2-4.579c-3.009-1.764-6.061-3.447-9.088-5.171a.092.092,0,0,0-.092.159h0l8.419,4.788c1.316.751,2.886,1.586,3.006,3.285a3.4,3.4,0,0,1-3.067,3.518c-1.61.224-3.224-.518-4.69-1.092s-3.009-1.208-4.466-1.877a85.951,85.951,0,0,1-8.162-4.269.1.1,0,0,0-.092.166Z" transform="translate(-734.608 -331.612)" fill="#eb996e"/>
    <path id="Trazado_128978" data-name="Trazado 128978" d="M751.8,501.62c3.757,4.187,8.895,8.048,13.213,12.446a6.254,6.254,0,0,0,1.046-7.361" transform="translate(-734.467 -347.766)" fill="#ffbe9d"/>
    <path id="Trazado_128979" data-name="Trazado 128979" d="M751.521,501.347c4.073,4.509,8.968,8.131,13.213,12.446a.11.11,0,0,0,.135,0,6.389,6.389,0,0,0,1.061-7.518c-.061-.1-.218,0-.159.1a6.236,6.236,0,0,1,.113,5.662,3.873,3.873,0,0,1-.871,1.307c-.264.2-.233.144-.512-.083a5.854,5.854,0,0,1-.555-.555q-1.264-1.227-2.58-2.42c-3.276-3.009-6.726-5.806-9.717-9.1-.077-.092-.212.046-.129.135Z" transform="translate(-734.256 -347.441)" fill="#eb996e"/>
    <path id="Trazado_128980" data-name="Trazado 128980" d="M725.955,435.987c-5.036-2.932-13.063-4.119-21.961-5.607l-8.7,15.888s15.7,2.377,22.39,5.263c9.548,4.141,14.7,16.627,14.7,16.627l12.6-15.606S741.727,443.547,725.955,435.987Z" transform="translate(-695.29 -298.376)" fill="#455a64"/>
    <path id="Trazado_128981" data-name="Trazado 128981" d="M776.08,457.773l-1.589,2.963c1.015.669,2.061,1.4,1.662,2.69-.475,1.534-2.061,2.015-3.932,1.5l-.675,1.264-.577-.181.684-1.264a4.294,4.294,0,0,1-2.254-1.84l.629-.549a3.819,3.819,0,0,0,2.024,1.693l1.561-2.911c-.969-.659-1.923-1.389-1.5-2.69.46-1.5,2.009-2.006,3.813-1.534l.684-1.258.571.181-.684,1.264a4.484,4.484,0,0,1,1.991,1.374l-.577.586A3.864,3.864,0,0,0,776.08,457.773Zm-1.975,3.662L772.6,464.2c1.316.337,2.355,0,2.656-.942C775.5,462.487,774.872,461.954,774.1,461.435Zm-.1-1.052,1.5-2.788c-1.27-.288-2.254.074-2.555,1.006C772.712,459.353,773.3,459.871,774.007,460.383Z" transform="translate(-746.669 -315.902)" fill="#fff"/>
    <path id="Trazado_128982" data-name="Trazado 128982" d="M731.655,440.7l.39.172,1.135.549c.5.239,1.113.549,1.806.948s1.5.834,2.4,1.4a45.841,45.841,0,0,1,6.082,4.453,32.916,32.916,0,0,1,6.487,7.447l.052.092-.068.083-10.523,13.287-.187.242-.129-.285a36.824,36.824,0,0,0-4.509-7.564,26.393,26.393,0,0,0-6.88-6.3,23.749,23.749,0,0,0-5.828-2.454c-2-.613-3.987-1.141-5.947-1.638-3.917-.985-7.7-1.84-11.275-2.607l-.248-.055.129-.209c2.705-4.674,5.18-8.938,7.361-12.68l.052-.092h.1a126.925,126.925,0,0,1,14.6,3.006,24.91,24.91,0,0,1,3.794,1.46,10.043,10.043,0,0,1,1.248.684,2,2,0,0,1-.331-.15c-.209-.1-.524-.279-.954-.46a27.133,27.133,0,0,0-3.809-1.374,130.493,130.493,0,0,0-14.6-2.886l.156-.077-7.294,12.741-.123-.27c3.595.751,7.383,1.607,11.275,2.592,1.963.5,3.963,1.021,5.969,1.638a23.6,23.6,0,0,1,5.92,2.481,26.415,26.415,0,0,1,6.975,6.4,36.307,36.307,0,0,1,4.57,7.649l-.307-.043,10.576-13.253v.172a33.221,33.221,0,0,0-6.374-7.41,47.286,47.286,0,0,0-6.012-4.509c-.865-.58-1.668-1.031-2.362-1.435s-1.291-.751-1.788-.984l-1.113-.586A1.875,1.875,0,0,1,731.655,440.7Z" transform="translate(-701.613 -301.926)" fill="#fff"/>
    <path id="Trazado_128983" data-name="Trazado 128983" d="M767.072,443.81c-.166.126-16.725,5.328-16.725,5.328l-5.456,2.322s2.322,3.681,5.938,2.941,4.637-1.506,4.637-1.506l5.8.273s2.426,10.25,20.716,5.337" transform="translate(-729.677 -307.687)" fill="#ffbe9d"/>
    <path id="Trazado_128984" data-name="Trazado 128984" d="M781.367,458.754a2.053,2.053,0,0,1-.436.138l-1.279.322a31.867,31.867,0,0,1-4.834.865,23.641,23.641,0,0,1-3.457.1H770.4l-.984-.15-1.015-.15-1.027-.279a13.525,13.525,0,0,1-2.076-.751,12.682,12.682,0,0,1-1.972-1.261,8.425,8.425,0,0,1-2.855-4.061l.172.144-5.8-.264.123-.037a11.831,11.831,0,0,1-2.88,1.1,18.232,18.232,0,0,1-2.254.494,4.731,4.731,0,0,1-2.307-.285,7.445,7.445,0,0,1-3.4-2.794l-.12-.19.208-.089,5.466-2.306h0l12.131-3.76,3.42-1.043.92-.279a1.412,1.412,0,0,1,.307-.083,1.253,1.253,0,0,1-.307.135l-.889.325-3.4,1.141-12.078,3.88h0l-5.456,2.331.089-.273a7.131,7.131,0,0,0,3.211,2.641,4.645,4.645,0,0,0,2.125.261,18.8,18.8,0,0,0,2.218-.488,11.6,11.6,0,0,0,2.76-1.037l.067-.037h.052l5.8.276h.135v.144a7.973,7.973,0,0,0,1.092,2.165,9.286,9.286,0,0,0,1.632,1.7,11.114,11.114,0,0,0,1.96,1.15,12.615,12.615,0,0,0,2.021.751l.985.307.994.159.969.156.948.046a25.447,25.447,0,0,0,3.42-.052,37.881,37.881,0,0,0,4.834-.751l1.285-.27A3.11,3.11,0,0,1,781.367,458.754Z" transform="translate(-729.06 -307.909)" fill="#eb996e"/>
    <path id="Trazado_128985" data-name="Trazado 128985" d="M732.4,441.446c0,.653-.752,1.187-1.607,1.187s-1.616-.534-1.616-1.187.751-1.2,1.616-1.2S732.4,440.787,732.4,441.446Z" transform="translate(-718.785 -305.219)" fill="#fff"/>
    <path id="Trazado_128986" data-name="Trazado 128986" d="M815.91,527.7c0,.856.509,1.555,1.141,1.555s1.15-.7,1.15-1.555-.518-1.549-1.15-1.549S815.91,526.849,815.91,527.7Z" transform="translate(-778.914 -364.772)" fill="#fff"/>
    <path id="Trazado_128987" data-name="Trazado 128987" d="M1220.675,774.57l-2.481.638-101.418,2.849-3.316,38,109.282.166,2.067-2.684Z" transform="translate(-985.201 -536.998)" fill="#12263f"/>
    <path id="Trazado_128988" data-name="Trazado 128988" d="M1155.694,263.608l12.529-5.745,5.877-7.447,38.671-5.156,5.42,7.054,30.181,19.654s-9.324,108.292-10.585,117.831-7.634,17.808-7.634,17.808-65.637,17.483-88.791,8.588c0,0-15.7-9.772-14.109-25.7s10.073-59.9,10.073-59.9Z" transform="translate(-994.685 -170.035)" fill="#a8dde2"/>
    <path id="Trazado_128989" data-name="Trazado 128989" d="M870.554,351.756l53.169,14.814s-.307-5.871,4.69-7c0,0,31.254-44.259,34.689-48.007s9.968-6.487,9.968-6.487l-22.43,88.693s-19.467,10.342-27.414,8.778-28.561-8.747-40.759-17.176L863.72,373.7Z" transform="translate(-812.06 -211.508)" fill="#a8dde2"/>
    <path id="Trazado_128990" data-name="Trazado 128990" d="M1066.919,525.071a3.294,3.294,0,0,1-.2-.819c-.12-.614-.27-1.356-.442-2.257a56.445,56.445,0,0,0-1.954-7.214q-.7-1.935-1.579-3.8a29.692,29.692,0,0,0-1.632-2.929c-1.021-1.616-1.8-2.512-1.751-2.564a3.3,3.3,0,0,1,.586.613,8.206,8.206,0,0,1,.632.751,11.567,11.567,0,0,1,.751,1.052,25.2,25.2,0,0,1,1.721,2.923,34.7,34.7,0,0,1,1.626,3.828,44.258,44.258,0,0,1,1.84,7.3c.16.948.27,1.721.307,2.254A3.342,3.342,0,0,1,1066.919,525.071Z" transform="translate(-947.696 -350.449)" fill="#263238"/>
    <path id="Trazado_128991" data-name="Trazado 128991" d="M1281.828,329.067s-22.964-2.343-31.834,17.538-9.524,75.645-9.524,75.645c-1.052-2.067-19.955,13.566-23.685,17.228l-38.646,10.7,6.778,24.81s47.541-4.864,59.956-11.042c14.087-6.99,24.231-9.155,28.279-16.869s14.023-54.193,15.121-69.235S1293.523,332.864,1281.828,329.067Z" transform="translate(-1030.043 -228.078)" fill="#a8dde2"/>
    <path id="Trazado_128992" data-name="Trazado 128992" d="M1280.673,290.843a1.364,1.364,0,0,1-.166.307c-.12.187-.307.472-.534.828-.472.751-1.187,1.727-2.1,3.006-1.8,2.494-4.512,5.846-7.217,9.772l-.187.27-.15-.307c-.249-.482-.5-.991-.752-1.5-2.368-4.631-4.512-8.84-6.015-11.891-.752-1.5-1.328-2.711-1.779-3.622l-.466-1a1.609,1.609,0,0,1-.144-.353,2.23,2.23,0,0,1,.212.322c.12.218.322.574.534.963l1.892,3.564c1.586,3.006,3.76,7.208,6.134,11.836l.751,1.5h-.331c2.76-3.987,5.466-7.291,7.33-9.769l2.193-2.9A9.5,9.5,0,0,1,1280.673,290.843Z" transform="translate(-1087.599 -198.522)" fill="#263238"/>
    <path id="Trazado_128993" data-name="Trazado 128993" d="M1356.35,273a2.977,2.977,0,0,1-.34.34l-1.015.9c-.871.8-2.147,1.932-3.68,3.4a132.363,132.363,0,0,0-11.232,12.082c-1.751,2.147-3.374,4.269-4.788,6.239l-.187.261-.129-.291-4.508-10.177-1.276-2.948c-.138-.307-.242-.58-.325-.788a1.316,1.316,0,0,1-.1-.279,1.013,1.013,0,0,1,.15.255c.107.206.227.46.384.751.34.751.8,1.7,1.368,2.9l4.647,10.122-.325-.037c1.414-1.984,3.009-4.113,4.788-6.269a117.458,117.458,0,0,1,11.348-12.026c1.558-1.445,2.865-2.549,3.76-3.309l1.067-.856A1.839,1.839,0,0,1,1356.35,273Z" transform="translate(-1134.473 -189.267)" fill="#263238"/>
    <path id="Trazado_128994" data-name="Trazado 128994" d="M1273.563,499.665s-.062.15-.187.442l-.586,1.285a29.176,29.176,0,0,1-2.88,4.653,30.225,30.225,0,0,1-6.217,6.134,41.441,41.441,0,0,1-10.312,5.487,80.523,80.523,0,0,1-13.866,3.638c-2.549.488-5.214.88-7.932,1.466s-5.521,1.208-8.441,1.705c-11.655,1.948-24.721,3.681-38.717,5.45h-.156l-.046-.16-6.748-24.8-.055-.2.205-.037c2.454-.466,5.064-1.031,7.686-1.653,5.466-1.294,10.787-2.8,16.026-4.227s10.462-2.586,15.093-4.907a30.544,30.544,0,0,0,6.285-4.294c1.9-1.644,3.659-3.4,5.435-5.088a49.5,49.5,0,0,1,5.521-4.674,20.149,20.149,0,0,1,6.269-3.067l-.129.144c2.917-20.6,5.352-37.83,7.054-49.939.871-6.015,1.534-10.793,2.021-14.057.233-1.607.414-2.856.543-3.705.067-.414.11-.751.15-.948s.052-.307.052-.307a2.8,2.8,0,0,1,0,.307c0,.227-.068.543-.12.954q-.172,1.288-.491,3.714c-.451,3.263-1.095,8.027-1.923,14.072-1.675,12.109-4.067,29.359-6.922,49.952v.113h-.114a19.912,19.912,0,0,0-6.156,3.006,49.373,49.373,0,0,0-5.463,4.653c-1.776,1.684-3.534,3.451-5.451,5.1a30.859,30.859,0,0,1-6.352,4.346c-4.69,2.352-9.95,3.478-15.161,4.944s-10.566,2.938-16.038,4.233c-2.632.613-5.263,1.187-7.7,1.653l.15-.239c2.322,8.524,4.576,16.829,6.748,24.8l-.209-.135c13.986-1.761,27.058-3.475,38.707-5.4,11.508-2.564,22.083-3.549,30.208-6.711a41.433,41.433,0,0,0,10.29-5.4,30.367,30.367,0,0,0,9.094-10.612c.264-.555.472-.978.613-1.27a2.9,2.9,0,0,1,.221-.429Z" transform="translate(-1029.544 -282.86)" fill="#263238"/>
    <g id="Grupo_55781" data-name="Grupo 55781" transform="translate(210.277 193.155)" opacity="0.3">
      <path id="Trazado_128995" data-name="Trazado 128995" d="M1406.98,639.565a6.031,6.031,0,0,0-1.2-2.76c-2.8-3.929-7.576-6.088-12.357-6.726s-7.478-.264-12.244.518l-.307.218c8.057-.614,13.928,2.543,19.234,8.7a12.052,12.052,0,0,0,2.454,2.481,3.107,3.107,0,0,0,3.306.218A2.846,2.846,0,0,0,1406.98,639.565Z" transform="translate(-1380.87 -629.754)"/>
    </g>
    <path id="Trazado_128996" data-name="Trazado 128996" d="M1403.62,635.895a24.9,24.9,0,0,0-2.54-2.579,17.483,17.483,0,0,0-7.849-3.576,26.829,26.829,0,0,0-8.7-.114c-1.11.144-2.006.285-2.628.383a4.583,4.583,0,0,1-.979.1,4.8,4.8,0,0,1,.948-.255c.614-.141,1.5-.307,2.622-.512a25.342,25.342,0,0,1,8.818,0,16.9,16.9,0,0,1,7.944,3.76,12.623,12.623,0,0,1,1.84,1.96,4.29,4.29,0,0,1,.527.828Z" transform="translate(-1170.627 -436.049)" fill="#263238"/>
    <path id="Trazado_128997" data-name="Trazado 128997" d="M1442.523,329.845a30.885,30.885,0,0,0-5.052-.751,20.113,20.113,0,0,0-2.58.067c-.457.052-.92.15-1.411.218a10.167,10.167,0,0,0-1.506.337,18.734,18.734,0,0,0-6.1,2.828,24.4,24.4,0,0,0-4.907,4.638c-.338.39-.613.834-.9,1.227a8.146,8.146,0,0,0-.813,1.187c-.457.807-.939,1.5-1.291,2.254s-.656,1.346-.92,1.917-.445,1.092-.613,1.506-.285.684-.393.945-.15.325-.166.307a1.138,1.138,0,0,1,.092-.347c.089-.261.2-.586.322-.969a15.542,15.542,0,0,1,.558-1.5l.893-1.96c.337-.751.8-1.46,1.254-2.257.227-.411.534-.751.813-1.208a9.16,9.16,0,0,1,.9-1.254,23.7,23.7,0,0,1,4.975-4.73,18.764,18.764,0,0,1,6.232-2.862,10.1,10.1,0,0,1,1.5-.325c.5-.067.978-.156,1.445-.2a20.625,20.625,0,0,1,2.613,0l1.144.083c.353.052.684.113,1,.172a9.39,9.39,0,0,1,1.586.353l.985.307A1.793,1.793,0,0,1,1442.523,329.845Z" transform="translate(-1194.858 -227.997)" fill="#263238"/>
    <path id="Trazado_128998" data-name="Trazado 128998" d="M1146.175,405a.8.8,0,0,1,0,.209v.613c0,.564-.1,1.356-.181,2.362-.16,2.046-.429,5.006-.751,8.668-.752,7.312-1.9,17.4-3.543,28.5s-3.426,21.1-4.846,28.307c-.708,3.61-1.3,6.524-1.745,8.533-.218.975-.383,1.751-.509,2.307-.055.248-.107.445-.144.613a.661.661,0,0,1-.061.2.8.8,0,0,1,0-.209,4.214,4.214,0,0,1,.107-.613c.1-.555.255-1.337.436-2.322.389-2.052.948-4.963,1.622-8.554,1.346-7.223,3.089-17.219,4.736-28.313s2.849-21.163,3.647-28.472c.383-3.631.7-6.585.92-8.652.11-1,.193-1.788.255-2.352a4.017,4.017,0,0,1,.074-.613A.647.647,0,0,1,1146.175,405Z" transform="translate(-999.71 -280.781)" fill="#263238"/>
    <g id="Grupo_55782" data-name="Grupo 55782" transform="translate(130.062 152.554)" opacity="0.3">
      <path id="Trazado_128999" data-name="Trazado 128999" d="M1127.857,527.055c2.524-9.388,3.509-19.768,4.8-29.675-1.6,11.22-7.054,24.261-13.321,33.717C1122.453,529.729,1125.37,528.377,1127.857,527.055Z" transform="translate(-1119.34 -497.38)"/>
    </g>
    <g id="Grupo_55783" data-name="Grupo 55783" transform="translate(194.623 84.822)" opacity="0.3">
      <path id="Trazado_129000" data-name="Trazado 129000" d="M1329.83,284.969c1.316,5.653,2.5,11.471,4.509,16.934a3.473,3.473,0,0,0,.979,1.638,2.244,2.244,0,0,0,2.094.218,5.105,5.105,0,0,0,1.776-1.245c2.736-2.724,4.214-6.4,5.938-9.855a102.9,102.9,0,0,1,10.686-16.109c-8.073,6.766-14.038,14.486-19.887,21.979Z" transform="translate(-1329.83 -276.55)"/>
    </g>
    <g id="Grupo_55784" data-name="Grupo 55784" transform="translate(174.321 89.159)" opacity="0.3">
      <path id="Trazado_129001" data-name="Trazado 129001" d="M1263.64,290.69a148.984,148.984,0,0,0,7.416,22.151c.144.337.353.751.715.751a1.119,1.119,0,0,0,.843-.555,73.777,73.777,0,0,0,9.152-18.286l-9.56,12.882Z" transform="translate(-1263.64 -290.69)"/>
    </g>
    <path id="Trazado_129002" data-name="Trazado 129002" d="M1247.7,560.43a1.532,1.532,0,0,1-.4.2l-1.2.5c-1.037.426-2.546,1.012-4.426,1.711-3.757,1.4-9.021,3.2-14.882,4.932s-11.275,3.052-15.176,3.908c-1.963.435-3.549.751-4.653.963l-1.27.224a2.528,2.528,0,0,1-.451.061,1.789,1.789,0,0,1,.435-.135l1.254-.307,4.6-1.083c3.9-.92,9.266-2.291,15.136-4.015s11.134-3.509,14.891-4.84l4.509-1.592,1.227-.423A1.825,1.825,0,0,1,1247.7,560.43Z" transform="translate(-1048.831 -388.538)" fill="#263238"/>
    <path id="Trazado_129003" data-name="Trazado 129003" d="M1212.37,404.625a1.117,1.117,0,0,1-.172.129l-.518.331c-.466.285-1.141.751-2,1.3-1.721,1.141-4.1,2.954-7.192,5.012a36.289,36.289,0,0,1-5.319,2.938,20.647,20.647,0,0,1-6.766,1.675,13.646,13.646,0,0,1-7.514-1.5,9.407,9.407,0,0,1-3.067-2.721,6.584,6.584,0,0,1-1.285-4.036,4.5,4.5,0,0,1,.632-2.083,4.341,4.341,0,0,1,1.561-1.5,5.852,5.852,0,0,1,4.067-.613,5.073,5.073,0,0,1,3.285,2.208,6.441,6.441,0,0,1,1.037,3.662,7.669,7.669,0,0,1-.865,3.515,7.913,7.913,0,0,1-2.208,2.61,10.97,10.97,0,0,1-5.674,2.11,14.531,14.531,0,0,1-5-.442,23.718,23.718,0,0,1-3.57-1.227,22.7,22.7,0,0,1-2.147-1.031l-.543-.291c-.126-.067-.184-.1-.181-.114a.635.635,0,0,1,.2.074l.564.264c.5.227,1.227.564,2.181.954a24.649,24.649,0,0,0,3.561,1.166,14.823,14.823,0,0,0,4.907.383,10.8,10.8,0,0,0,5.521-2.1,7.392,7.392,0,0,0,2.911-5.867,6.114,6.114,0,0,0-.985-3.46,4.726,4.726,0,0,0-3.067-2.037,5.435,5.435,0,0,0-3.757.57,3.811,3.811,0,0,0-1.42,1.347,4.089,4.089,0,0,0-.58,1.9,6.179,6.179,0,0,0,1.227,3.757,9.018,9.018,0,0,0,2.954,2.616,13.314,13.314,0,0,0,7.306,1.5,20.3,20.3,0,0,0,6.668-1.616,35.13,35.13,0,0,0,5.26-2.877c3.1-2.015,5.521-3.8,7.263-4.907.871-.558,1.561-.978,2.037-1.227l.549-.307A.765.765,0,0,1,1212.37,404.625Z" transform="translate(-1023.658 -279.688)" fill="#fff"/>
    <path id="Trazado_129004" data-name="Trazado 129004" d="M1327.18,465.682a.306.306,0,0,1-.162-.089l-.46-.307a13.921,13.921,0,0,0-1.84-1.052,14.909,14.909,0,0,0-7.514-1.5,14.615,14.615,0,0,0-10.02,5.012,11.814,11.814,0,0,0-2.948,5.959,6.414,6.414,0,0,0,.42,3.451,4.886,4.886,0,0,0,2.383,2.579,4.566,4.566,0,0,0,3.527.037,5.76,5.76,0,0,0,2.761-2.083,4.435,4.435,0,0,0,.751-1.5,5.416,5.416,0,0,0,.212-1.659,6.916,6.916,0,0,0-.819-3.129,7.92,7.92,0,0,0-1.948-2.42,8.924,8.924,0,0,0-2.564-1.429,11.783,11.783,0,0,0-5.26-.549,20.209,20.209,0,0,0-7.291,2.573c-.807.442-1.423.81-1.84,1.067l-.481.276-.166.092a.934.934,0,0,1,.144-.123l.457-.307c.4-.273,1.006-.663,1.8-1.138a27.478,27.478,0,0,1,3.006-1.5,16.526,16.526,0,0,1,4.322-1.187,11.939,11.939,0,0,1,5.4.512,9.171,9.171,0,0,1,2.674,1.5,8.172,8.172,0,0,1,2.046,2.509,7.273,7.273,0,0,1,.88,3.3,6.013,6.013,0,0,1-.218,1.767,4.927,4.927,0,0,1-.751,1.647,6.133,6.133,0,0,1-2.941,2.254,4.993,4.993,0,0,1-3.757-.1,5.263,5.263,0,0,1-2.57-2.782,6.847,6.847,0,0,1-.451-3.659,12.22,12.22,0,0,1,3.067-6.15,14.7,14.7,0,0,1,17.875-3.389A10.59,10.59,0,0,1,1327.18,465.682Z" transform="translate(-1110.312 -320.646)" fill="#fff"/>
    <path id="Trazado_129005" data-name="Trazado 129005" d="M1453.958,386.53l-.172.067-.521.16a16.7,16.7,0,0,1-2.021.436,19.657,19.657,0,0,1-7.591-.362,19.253,19.253,0,0,1-4.907-1.96,12.048,12.048,0,0,1-2.389-1.751,7.172,7.172,0,0,1-1.766-2.616,5.033,5.033,0,0,1,0-3.316,3.763,3.763,0,0,1,2.389-2.481,3.85,3.85,0,0,1,3.475.8,4.985,4.985,0,0,1,1.84,3.2,7.266,7.266,0,0,1-.512,3.653,12.886,12.886,0,0,1-1.773,3.089,17.97,17.97,0,0,1-10.615,6.7,17.307,17.307,0,0,1-5.26.264,17.956,17.956,0,0,1-7.229-2.365,13.134,13.134,0,0,1-2.254-1.638l.156.1.436.307a18.758,18.758,0,0,0,1.745,1.1,18.192,18.192,0,0,0,7.171,2.211,17.126,17.126,0,0,0,5.171-.307A17.744,17.744,0,0,0,1439.7,385.2a12.389,12.389,0,0,0,1.721-3.006,6.96,6.96,0,0,0,.488-3.46,4.579,4.579,0,0,0-1.7-2.938,3.427,3.427,0,0,0-3.11-.751,3.374,3.374,0,0,0-2.147,2.254,4.644,4.644,0,0,0,0,3.067,8.686,8.686,0,0,0,3.987,4.208,19.193,19.193,0,0,0,4.812,1.969,19.951,19.951,0,0,0,7.514.482c.886-.12,1.57-.258,2.031-.362l.518-.12A.815.815,0,0,1,1453.958,386.53Z" transform="translate(-1194.012 -259.692)" fill="#fff"/>
    <path id="Trazado_129006" data-name="Trazado 129006" d="M1126.849,443.22a14.717,14.717,0,0,0-1.061-1.435,8.711,8.711,0,0,0-3.987-2.616,8.465,8.465,0,0,0-6.861.886,5.567,5.567,0,0,0-2.631,3.067,2.258,2.258,0,0,0,.389,1.975,3,3,0,0,0,1.9.984,3.328,3.328,0,0,0,2.147-.374,4.208,4.208,0,0,0,1.5-1.506,7.953,7.953,0,0,0,.972-4.027,13.281,13.281,0,0,0-1.917-6.824,13.988,13.988,0,0,0-3.172-3.647c-.92-.706-1.506-1.006-1.46-1.043a1.833,1.833,0,0,1,.42.2,12.622,12.622,0,0,1,1.129.751,13.5,13.5,0,0,1,5.34,10.6,8.245,8.245,0,0,1-1,4.223,4.6,4.6,0,0,1-1.632,1.675,3.68,3.68,0,0,1-2.38.429,3.374,3.374,0,0,1-2.147-1.135,2.6,2.6,0,0,1-.46-2.306,5.91,5.91,0,0,1,2.813-3.294,8.72,8.72,0,0,1,7.131-.84,8.612,8.612,0,0,1,4.03,2.782,8.448,8.448,0,0,1,.751,1.1A1.862,1.862,0,0,1,1126.849,443.22Z" transform="translate(-984.083 -297.184)" fill="#fff"/>
    <path id="Trazado_129007" data-name="Trazado 129007" d="M1280.268,291.112a18.954,18.954,0,0,0-4.233,1.408,18.519,18.519,0,0,0-3.555,2.7,7.922,7.922,0,0,1,3.374-3.006,8.008,8.008,0,0,1,4.413-1.1Z" transform="translate(-1095.447 -201.819)" fill="#fff"/>
    <path id="Trazado_129008" data-name="Trazado 129008" d="M1363.254,290.781a4.246,4.246,0,0,1-1.616-.534,8.947,8.947,0,0,1-4.735-6.472,4.193,4.193,0,0,1,0-1.705c.077,0,.077.644.307,1.653a9.769,9.769,0,0,0,4.57,6.3A14.242,14.242,0,0,0,1363.254,290.781Z" transform="translate(-1153.916 -195.555)" fill="#fff"/>
    <path id="Trazado_129009" data-name="Trazado 129009" d="M1162.922,645.421a6.009,6.009,0,0,1-1.006.353,11.639,11.639,0,0,1-1.2.331c-.482.1-1.015.245-1.623.328a27.718,27.718,0,0,1-4.294.383,28.328,28.328,0,0,1-10.358-1.886,27.259,27.259,0,0,1-3.886-1.871c-.54-.307-.994-.613-1.4-.88a10.943,10.943,0,0,1-1.006-.745,6.056,6.056,0,0,1-.819-.69c.052-.061,1.227.886,3.374,2.058a29.912,29.912,0,0,0,3.88,1.776,31.849,31.849,0,0,0,5.033,1.383,32.436,32.436,0,0,0,5.2.478,30.39,30.39,0,0,0,4.254-.291C1161.419,645.835,1162.922,645.369,1162.922,645.421Z" transform="translate(-1001.75 -444.216)" fill="#fff"/>
    <path id="Trazado_129010" data-name="Trazado 129010" d="M1280.208,597.408a.635.635,0,0,1-.187-.061l-.527-.212-.84-.344c-.341-.129-.755-.248-1.19-.4a24.518,24.518,0,0,0-7.824-1.15,25.031,25.031,0,0,0-11.275,2.9,22.392,22.392,0,0,0-5.521,4.141,9.042,9.042,0,0,0-1.957,3.006,4.984,4.984,0,0,0,0,3.586,3.4,3.4,0,0,0,2.61,2.254,3.68,3.68,0,0,0,3.134-1.26,4.355,4.355,0,0,0,1.227-3.1,6.08,6.08,0,0,0-1.009-3.119,9.928,9.928,0,0,0-4.794-3.8,12.882,12.882,0,0,0-5.337-.828,13.13,13.13,0,0,0-7.315,2.705,18.592,18.592,0,0,0-2.083,2.031.686.686,0,0,1,.107-.159l.347-.451a4.983,4.983,0,0,1,.613-.69,9.292,9.292,0,0,1,.92-.85,13.266,13.266,0,0,1,12.882-2.058,10.232,10.232,0,0,1,4.969,3.908,6.528,6.528,0,0,1,1.073,3.306,4.705,4.705,0,0,1-1.331,3.374,4.077,4.077,0,0,1-3.463,1.392,3.757,3.757,0,0,1-2.917-2.481,5.264,5.264,0,0,1,0-3.855,9.259,9.259,0,0,1,2.036-3.141,22.551,22.551,0,0,1,5.631-4.2,24.974,24.974,0,0,1,11.456-2.855,23.751,23.751,0,0,1,7.883,1.27c.445.166.843.307,1.175.436l.84.393.5.239A.747.747,0,0,1,1280.208,597.408Z" transform="translate(-1071.072 -412.496)" fill="#fff"/>
    <path id="Trazado_129011" data-name="Trazado 129011" d="M1422.763,574.35a2.414,2.414,0,0,1-.307.2l-.9.518c-.393.218-.88.482-1.46.751s-1.227.613-1.975.9-1.564.647-2.454.948-1.865.613-2.886.92a43.554,43.554,0,0,1-13.695,1.534c-1.067-.067-2.073-.113-3.006-.239s-1.819-.242-2.616-.383-1.5-.307-2.129-.436a16.007,16.007,0,0,1-1.586-.414l-.991-.307a1.1,1.1,0,0,1-.337-.129,1.306,1.306,0,0,1,.359.052l1.009.233c.436.107.969.233,1.592.347s1.337.279,2.147.377,1.653.245,2.595.328,1.938.15,3.006.206a50.394,50.394,0,0,0,6.87-.258,51.222,51.222,0,0,0,6.748-1.27c1.015-.285,1.993-.54,2.871-.865s1.724-.613,2.454-.893,1.4-.586,1.994-.844,1.073-.488,1.5-.69l.92-.445A1.563,1.563,0,0,1,1422.763,574.35Z" transform="translate(-1175.827 -398.189)" fill="#fff"/>
    <path id="Trazado_129012" data-name="Trazado 129012" d="M997.77,525.494a1.018,1.018,0,0,1,.1-.34l.383-.92q.261-.613.586-1.466c.227-.58.482-1.227.751-1.969.534-1.46,1.061-3.242,1.595-5.214a65.323,65.323,0,0,0,1.3-6.555,53.618,53.618,0,0,0,.481-6.653,37.8,37.8,0,0,0-.4-5.426c-.061-.383-.1-.751-.166-1.1s-.144-.663-.212-.963a14.052,14.052,0,0,0-.374-1.534l-.273-.963a1.1,1.1,0,0,1-.068-.344,2.332,2.332,0,0,1,.144.322l.337.948a11.585,11.585,0,0,1,.445,1.5c.074.307.156.613.239.969s.129.705.2,1.1a33.721,33.721,0,0,1,.482,5.472,49.054,49.054,0,0,1-.451,6.7,60.271,60.271,0,0,1-1.337,6.591c-.555,1.984-1.113,3.757-1.684,5.214-.27.752-.54,1.383-.788,1.954s-.46,1.061-.653,1.451l-.445.883A1.529,1.529,0,0,1,997.77,525.494Z" transform="translate(-904.995 -341.131)" fill="#fff"/>
    <path id="Trazado_129013" data-name="Trazado 129013" d="M1289.956,301.45a1.381,1.381,0,0,1,0,.227c0,.172-.046.389-.073.669l-.307,2.555c-.273,2.254-.751,5.435-1.31,9.395-1.172,7.922-3.006,18.835-5.456,30.819s-4.944,22.758-6.809,30.546c-.938,3.865-1.705,7.005-2.254,9.2-.273,1.067-.482,1.9-.641,2.5-.067.264-.126.482-.172.647a.763.763,0,0,1-.074.218,1.447,1.447,0,0,1,.037-.233l.135-.653.564-2.518c.509-2.2,1.227-5.352,2.147-9.238,1.788-7.8,4.245-18.587,6.69-30.555s4.322-22.872,5.57-30.816c.613-3.954,1.1-7.156,1.426-9.367.166-1.089.307-1.938.393-2.555.043-.27.083-.488.1-.663A1.315,1.315,0,0,1,1289.956,301.45Z" transform="translate(-1095.711 -208.991)" fill="#263238"/>
    <path id="Trazado_129014" data-name="Trazado 129014" d="M1237.072,586a4.039,4.039,0,0,1-.307.307l-.9.834a17.489,17.489,0,0,0-1.4,1.337l-.819.9a12.3,12.3,0,0,0-.9,1.015,30.778,30.778,0,0,0-1.886,2.472c-.307.466-.644.92-.969,1.436l-.92,1.595a36.968,36.968,0,0,0-3.11,7.554,48.969,48.969,0,0,0-1.5,8.033c-.083,1.258-.212,2.454-.221,3.57,0,.564,0,1.107-.037,1.626s0,1.021,0,1.5c0,.954.061,1.819.107,2.57s.08,1.414.141,1.938l.1,1.227a2.02,2.02,0,0,1,0,.429,1.441,1.441,0,0,1-.083-.423c-.052-.307-.1-.751-.181-1.227s-.15-1.187-.2-1.945-.15-1.616-.166-2.579c0-.481-.037-.975-.052-1.5s0-1.067,0-1.632c0-1.126.1-2.328.181-3.592a47.414,47.414,0,0,1,1.5-8.119,36.14,36.14,0,0,1,3.156-7.613l.938-1.61c.331-.494.678-.969,1-1.435a28.87,28.87,0,0,1,1.942-2.454,12,12,0,0,1,.92-1.006l.862-.856a14.8,14.8,0,0,1,1.46-1.31l.954-.751A1.492,1.492,0,0,1,1237.072,586Z" transform="translate(-1061.662 -406.265)" fill="#263238"/>
    <path id="Trazado_129015" data-name="Trazado 129015" d="M1279.519,28.939C1279.976,13.229,1269.124.031,1253.4,0l-1.451.083a28.111,28.111,0,0,0-26.525,27.383c-.322,13.627-.512,28.675,0,35.95,1.037,15.029,16.235,16.535,16.235,16.535l.092,2.31,14.723,9.508L1280.623,75.4Z" transform="translate(-1062.604)" fill="#ffbe9d"/>
    <path id="Trazado_129016" data-name="Trazado 129016" d="M1238.27,118.326a2.147,2.147,0,0,0,2.2,2.052,2.055,2.055,0,0,0,2.1-2v-.061a2.147,2.147,0,0,0-2.2-2.058,2.061,2.061,0,0,0-2.1,2.012Z" transform="translate(-1071.73 -80.6)" fill="#263238"/>
    <path id="Trazado_129017" data-name="Trazado 129017" d="M1237.1,104.777c.279.27,1.84-1.031,4.159-1.156s4.073.939,4.312.638c.114-.129-.187-.613-.954-1.12a5.883,5.883,0,0,0-3.472-.859,5.754,5.754,0,0,0-3.294,1.27C1237.163,104.139,1236.955,104.658,1237.1,104.777Z" transform="translate(-1070.887 -70.901)" fill="#263238"/>
    <path id="Trazado_129018" data-name="Trazado 129018" d="M1311.81,115.642a2.147,2.147,0,0,0,2.205,2.046,2.055,2.055,0,0,0,2.1-2v-.067a2.147,2.147,0,0,0-2.193-2.052,2.049,2.049,0,0,0-2.1,2A.561.561,0,0,0,1311.81,115.642Z" transform="translate(-1122.714 -78.735)" fill="#263238"/>
    <path id="Trazado_129019" data-name="Trazado 129019" d="M1312.2,99.427c.255.307,1.945-.828,4.26-.7s3.954,1.374,4.217,1.1c.129-.12-.113-.638-.828-1.227a5.913,5.913,0,0,0-3.374-1.227,5.637,5.637,0,0,0-3.4.9C1312.346,98.841,1312.073,99.3,1312.2,99.427Z" transform="translate(-1122.962 -67.504)" fill="#263238"/>
    <path id="Trazado_129020" data-name="Trazado 129020" d="M1274.651,124.007a15.163,15.163,0,0,0-3.794-.466c-.6,0-1.166-.113-1.285-.512a3,3,0,0,1,.307-1.773q.755-2.184,1.5-4.6c2.067-6.545,3.527-11.913,3.263-11.986s-2.147,5.156-4.217,11.7l-1.42,4.616a3.41,3.41,0,0,0-.172,2.337,1.5,1.5,0,0,0,1.012.813,4.032,4.032,0,0,0,1.015.083A15.833,15.833,0,0,0,1274.651,124.007Z" transform="translate(-1092.83 -72.564)" fill="#263238"/>
    <path id="Trazado_129021" data-name="Trazado 129021" d="M1294.79,171.689c-.377,0-.239,2.512-2.254,4.42s-4.736,1.773-4.736,2.126c0,.159.614.46,1.758.423a6.279,6.279,0,0,0,3.963-1.638,5.474,5.474,0,0,0,1.757-3.681C1295.278,172.268,1294.962,171.667,1294.79,171.689Z" transform="translate(-1106.069 -119.029)" fill="#263238"/>
    <path id="Trazado_129022" data-name="Trazado 129022" d="M1311.76,75.536c.212.638,2.533.4,5.26.8s4.886,1.227,5.263.653c.166-.27-.2-.871-1.067-1.5a9.223,9.223,0,0,0-8.005-1.11C1312.181,74.754,1311.656,75.235,1311.76,75.536Z" transform="translate(-1122.671 -51.25)" fill="#e0e0e0"/>
    <path id="Trazado_129023" data-name="Trazado 129023" d="M1239.44,85.041c.445.5,2.009-.135,3.917-.264s3.564.15,3.911-.42c.15-.279-.138-.751-.874-1.248a5.441,5.441,0,0,0-3.239-.675,5.38,5.38,0,0,0-3.067,1.227C1239.44,84.241,1239.259,84.79,1239.44,85.041Z" transform="translate(-1072.495 -57.13)" fill="#e0e0e0"/>
    <path id="Trazado_129024" data-name="Trazado 129024" d="M1370.359,19.35c.751-.411,3.932,2.9,4.549,3.444,3.622,3.208,5.125,9.238,5.591,14.054a51.974,51.974,0,0,1-.1,13.817c-.092.586-.429,3.067-.429,3.067-.638.574-1.291,5.947-2.147,6.015-1.208.1-2.374-8.119-2.607-8.741a35.7,35.7,0,0,0-1.009-5.539,50.412,50.412,0,0,1-1.727-8.916c-.212-4.187-1.8-10.395-2.015-14.581C1370.426,21.184,1369.681,19.743,1370.359,19.35Z" transform="translate(-1163.109 -13.391)" fill="#e0e0e0"/>
    <path id="Trazado_129025" data-name="Trazado 129025" d="M1372.32,37.52l8.741,6.3a34.376,34.376,0,0,1,.92,4.907l-8.686-5.263Z" transform="translate(-1164.665 -26.012)" fill="#fafafa"/>
    <path id="Trazado_129026" data-name="Trazado 129026" d="M1395,129.361c.249-.12,10.177-3.647,10.428,6.674s-10.152,8.441-10.177,8.14S1395,129.361,1395,129.361Z" transform="translate(-1180.389 -89.215)" fill="#ffbe9d"/>
    <path id="Trazado_129027" data-name="Trazado 129027" d="M1405.748,147.636c.046,0,.187.12.488.255a1.794,1.794,0,0,0,1.346,0c1.083-.426,1.954-2.178,1.963-4.036a6.108,6.108,0,0,0-.564-2.561,2.083,2.083,0,0,0-1.389-1.346.92.92,0,0,0-1.046.518c-.135.307-.061.5-.113.518s-.224-.172-.156-.613a1.161,1.161,0,0,1,.389-.653,1.34,1.34,0,0,1,.985-.285,2.53,2.53,0,0,1,1.917,1.555,6.06,6.06,0,0,1,.7,2.855c0,2.083-1.037,4.052-2.518,4.512a1.889,1.889,0,0,1-1.647-.233C1405.77,147.882,1405.712,147.658,1405.748,147.636Z" transform="translate(-1187.834 -96.66)" fill="#eb996e"/>
    <path id="Trazado_129028" data-name="Trazado 129028" d="M1278.41,245a36.256,36.256,0,0,0,19.964-6.923s-4.2,11.017-16.535,11.275c-.2,0-3.15-2.037-3.15-2.037Z" transform="translate(-1099.559 -165.057)" fill="#eb996e"/>
    <path id="Trazado_129029" data-name="Trazado 129029" d="M1248.206,131.706c.12.135-1.435,1.337-3.76,1.466s-4.021-.85-3.907-1a30.091,30.091,0,0,0,3.865.285C1246.522,132.313,1248.1,131.519,1248.206,131.706Z" transform="translate(-1073.299 -91.29)" fill="#eb996e"/>
    <path id="Trazado_129030" data-name="Trazado 129030" d="M1249.428,101.239c-.083.061-.383-.27-.975-.613a5.892,5.892,0,0,0-2.512-.751,15.694,15.694,0,0,0-2.736.12c-.751.067-1.166.083-1.187,0s.393-.285,1.1-.488a8.606,8.606,0,0,1,2.883-.334,4.859,4.859,0,0,1,2.76,1.061C1249.339,100.721,1249.505,101.193,1249.428,101.239Z" transform="translate(-1074.328 -68.746)" fill="#eb996e"/>
    <path id="Trazado_129031" data-name="Trazado 129031" d="M1349.823,103.165c.135.129-.751,1.12-2.254,1.58s-2.761.135-2.721-.046a22.828,22.828,0,0,1,2.509-.638C1348.679,103.64,1349.688,103.008,1349.823,103.165Z" transform="translate(-1145.618 -71.506)" fill="#eb996e"/>
    <path id="Trazado_129032" data-name="Trazado 129032" d="M1353.26,112.68c.1.156-.9.85-2.322.751s-2.325-.92-2.2-1.077,1.036.288,2.254.362S1353.168,112.493,1353.26,112.68Z" transform="translate(-1148.311 -77.871)" fill="#eb996e"/>
    <path id="Trazado_129033" data-name="Trazado 129033" d="M1321.869,96.249c-.12.181-1.758-1.264-4.239-1.377s-4.263,1.129-4.362.942c-.052-.067.307-.491,1.077-.92a6.386,6.386,0,0,1,6.554.337C1321.62,95.749,1321.93,96.2,1321.869,96.249Z" transform="translate(-1123.722 -65.271)" fill="#eb996e"/>
    <path id="Trazado_129034" data-name="Trazado 129034" d="M1322.062,127.137c.135.135-.92,1.208-2.662,1.607s-3.165-.089-3.1-.264,1.374-.058,2.938-.436S1321.933,126.977,1322.062,127.137Z" transform="translate(-1125.823 -88.126)" fill="#eb996e"/>
    <path id="Trazado_129035" data-name="Trazado 129035" d="M1309.61,169.188c-.175.113-.709-.4-1.549-.555s-1.5.1-1.653-.067.632-.865,1.788-.632S1309.8,169.114,1309.61,169.188Z" transform="translate(-1118.957 -116.393)" fill="#eb996e"/>
    <path id="Trazado_129036" data-name="Trazado 129036" d="M1317.176,166.1c-.181.089-.614-.377-1.227-.751s-1.254-.491-1.27-.693.751-.414,1.625.067S1317.357,166.037,1317.176,166.1Z" transform="translate(-1124.704 -114)" fill="#eb996e"/>
    <path id="Trazado_129037" data-name="Trazado 129037" d="M1369.4,218.25a.693.693,0,0,1,.279.543,4.14,4.14,0,0,1-.356,1.534,1.122,1.122,0,0,0,.466,1.515l.129.058a3.773,3.773,0,0,1,1.187.871,1.874,1.874,0,0,1,.212,1.705,15.208,15.208,0,0,1-1.5,2.42,2.012,2.012,0,0,0,.157,1.917c.647,1.046,1.316,1.58,1.227,1.669s-.807-.307-1.656-1.4a2.478,2.478,0,0,1-.328-2.454c.368-.9,1.15-1.506,1.389-2.377a1.205,1.205,0,0,0-.089-1.073,3.628,3.628,0,0,0-.972-.751,1.788,1.788,0,0,1-.9-1.107,2.037,2.037,0,0,1,.181-1.2,6.042,6.042,0,0,0,.549-1.383C1369.442,218.48,1369.344,218.281,1369.4,218.25Z" transform="translate(-1162.094 -151.31)" fill="#eb996e"/>
    <path id="Trazado_129038" data-name="Trazado 129038" d="M1385.372,227.623c-.061.046-.613-.4-1.187-1.42a3.19,3.19,0,0,1-.362-2.08c.135-.886,1.006-1.5.88-2.052s-.865-.969-1.5-1.463a2.146,2.146,0,0,1-.752-2.024,2.068,2.068,0,0,1,.669-1.261c.27-.212.457-.248.482-.212a2.933,2.933,0,0,0-.647,1.5,1.676,1.676,0,0,0,.669,1.46c.255.2.614.374.954.638a1.984,1.984,0,0,1,.828,1.227,1.953,1.953,0,0,1-.475,1.389,2.485,2.485,0,0,0-.473.92,2.909,2.909,0,0,0,.187,1.736A10.635,10.635,0,0,1,1385.372,227.623Z" transform="translate(-1171.665 -150.512)" fill="#eb996e"/>
    <path id="Trazado_129039" data-name="Trazado 129039" d="M1282.764,52.61a3.252,3.252,0,0,1-2.331.859c-1.58.1-3.659-.347-5.772.15-1.052.279-2.021.8-3.006,1.141a5.711,5.711,0,0,1-2.714.429,3.066,3.066,0,0,1-1.727-.7c-.331-.307-.423-.54-.384-.564a3.987,3.987,0,0,0,2.147.751,5.9,5.9,0,0,0,2.435-.534,23.7,23.7,0,0,1,3.009-1.227,9.788,9.788,0,0,1,3.328-.15c.994.089,1.874.187,2.6.187A14.26,14.26,0,0,0,1282.764,52.61Z" transform="translate(-1091.525 -36.474)" fill="#eb996e"/>
    <path id="Trazado_129040" data-name="Trazado 129040" d="M1281.221,45.017c0,.2-2.622.331-5.828.482s-5.828.27-5.865.067,2.58-.632,5.828-.751S1281.221,44.821,1281.221,45.017Z" transform="translate(-1093.401 -31.037)" fill="#eb996e"/>
    <path id="Trazado_129041" data-name="Trazado 129041" d="M1290.492,35.948c-.061.193-1.052.058-2.254,0s-2.257-.135-2.257-.331,1-.5,2.3-.383S1290.55,35.758,1290.492,35.948Z" transform="translate(-1104.807 -24.41)" fill="#eb996e"/>
    <path id="Trazado_129042" data-name="Trazado 129042" d="M1230.068,114.336c.1.172-.684.613-1.644.285s-1.285-1.2-1.1-1.27.632.353,1.337.592S1230,114.158,1230.068,114.336Z" transform="translate(-1064.108 -78.579)" fill="#eb996e"/>
    <path id="Trazado_129043" data-name="Trazado 129043" d="M1229.906,120.217c.074.187-.307.512-.613.963s-.509.893-.751.877-.307-.659.135-1.291S1229.845,120.036,1229.906,120.217Z" transform="translate(-1064.854 -83.289)" fill="#eb996e"/>
    <path id="Trazado_129044" data-name="Trazado 129044" d="M998.811,715.728l-18.4-4.72a3.067,3.067,0,0,0-3.748,2.178v.034l-5.214,20.347a3.067,3.067,0,0,0,2.15,3.745h.04l38.787,9.944a3.067,3.067,0,0,0,3.748-2.178v-.031l5.214-20.341a3.067,3.067,0,0,0-2.181-3.751h-.031Z" transform="translate(-886.673 -492.861)" fill="#263238"/>
    <path id="Trazado_129045" data-name="Trazado 129045" d="M1071.277,762.753c-.107,0,1.337-5.312,3.218-11.8s3.493-11.735,3.6-11.7-1.337,5.321-3.224,11.808S1071.375,762.79,1071.277,762.753Z" transform="translate(-955.953 -512.511)" fill="#455a64"/>
    <path id="Trazado_129046" data-name="Trazado 129046" d="M1075.244,725.38s-5.736.512-7.337.092-11.778-3.9-13.8-4.217a10.3,10.3,0,0,0-1.5-.129,10.054,10.054,0,0,0-4.509.979l-4.346,2.021,9.382,2.4s-.04.843-1.595,2.352-19.7,8.895-20.927,9.533-2.478,1.5-1.57,2.846,3.414,2.19,4.294,2.257a15.633,15.633,0,0,0,3.426-.751s-5.26,2.846-5.358,3.914.613,2.917,1.644,2.761c.874-.12,5.4-1.052,5.4-1.052s11.726-2.481,12.14-2.1-5.457,3.932-6.3,4.159-4.512.163-5.367.577a1.9,1.9,0,0,0-.067,3.374,20,20,0,0,0,4.99,2.083,2.147,2.147,0,0,0-.512,2.472,2.76,2.76,0,0,0,2.257,1.647c1.046.31,3.653-.436,4.681-1.113s18.4-7.223,19.544-7.974,4.742-4.773,6.269-5.944a43.109,43.109,0,0,1,4.1-2.625Z" transform="translate(-926.457 -499.945)" fill="#ffbe9d"/>
    <path id="Trazado_129047" data-name="Trazado 129047" d="M1043.33,777.029a4.594,4.594,0,0,1,.751-.613,8.393,8.393,0,0,1,.96-.638l.613-.377.751-.368a51.972,51.972,0,0,1,8.281-3.095,84.279,84.279,0,0,0,8.343-2.849l.752-.307.638-.322c.4-.2.755-.371,1.015-.534a5.605,5.605,0,0,1,.865-.466,5.676,5.676,0,0,1-.8.577,9.74,9.74,0,0,1-.991.586l-.638.347-.751.337a65.989,65.989,0,0,1-8.337,2.957,60.942,60.942,0,0,0-8.281,3.006l-.752.344-.613.347a10.519,10.519,0,0,0-.991.561A5.665,5.665,0,0,1,1043.33,777.029Z" transform="translate(-936.581 -532.069)" fill="#eb996e"/>
    <path id="Trazado_129048" data-name="Trazado 129048" d="M1111.23,788.866a9.768,9.768,0,0,0,7.239-3.156,2.889,2.889,0,0,1-.751.975,7.791,7.791,0,0,1-2.429,1.669,7.565,7.565,0,0,1-2.877.647A2.854,2.854,0,0,1,1111.23,788.866Z" transform="translate(-983.655 -544.721)" fill="#eb996e"/>
    <path id="Trazado_129049" data-name="Trazado 129049" d="M1076.46,818.705a3.572,3.572,0,0,1,.751-.239c.5-.129,1.208-.307,2.089-.564a60.388,60.388,0,0,0,13.13-5.45c.8-.442,1.435-.81,1.88-1.073a3.29,3.29,0,0,1,.705-.368,4.1,4.1,0,0,1-.638.482c-.42.291-1.046.69-1.84,1.162a50.157,50.157,0,0,1-13.152,5.472c-.886.218-1.616.377-2.119.466a3.4,3.4,0,0,1-.807.113Z" transform="translate(-959.55 -562.261)" fill="#eb996e"/>
    <path id="Trazado_129050" data-name="Trazado 129050" d="M1005.8,699.09l-2.27,5.156,30.23,7.337Z" transform="translate(-908.988 -484.669)" fill="#455a64"/>
    <path id="Trazado_129051" data-name="Trazado 129051" d="M1026.894,723.216a1.424,1.424,0,0,1-.307,0,5.245,5.245,0,0,1-.92-.068c-.8-.077-1.954-.218-3.374-.46a100.138,100.138,0,0,1-10.907-2.592c-4.208-1.144-8.094-1.932-10.852-2.736-1.383-.383-2.487-.751-3.248-1.015a6.888,6.888,0,0,1-1.156-.475,9.06,9.06,0,0,1,1.187.347c.751.218,1.886.543,3.27.9,2.76.752,6.659,1.5,10.891,2.623s8.042,2.147,10.852,2.7c1.4.27,2.543.457,3.34.58A8.758,8.758,0,0,1,1026.894,723.216Z" transform="translate(-903.858 -496.302)" fill="#455a64"/>
  </g>
  <g id="freepik--cash-register--inject-3" transform="translate(130.44 189.188)">
    <rect id="Rectángulo_30708" data-name="Rectángulo 30708" width="42.25" height="19.768" transform="translate(4.674 65.017)" fill="#455a64"/>
    <path id="Trazado_129052" data-name="Trazado 129052" d="M529.38,845.967s7.165-20.09,9.425-26.23a3.116,3.116,0,0,1,2.932-2.037H655.446v28.267Z" transform="translate(-497.451 -756.087)" fill="#263238"/>
    <rect id="Rectángulo_30709" data-name="Rectángulo 30709" width="4.674" height="25.743" transform="translate(0 61.613)" fill="#263238"/>
    <path id="Trazado_129053" data-name="Trazado 129053" d="M571,751.3V737.708a2.932,2.932,0,0,1,2.454-2.9L655.524,721.9h19.581a3.7,3.7,0,0,1,3.708,3.711h0v25.7Z" transform="translate(-526.306 -689.671)" fill="#455a64"/>
    <rect id="Rectángulo_30710" data-name="Rectángulo 30710" width="7.99" height="18.326" transform="translate(135.574 13.897)" fill="#455a64"/>
    <rect id="Rectángulo_30711" data-name="Rectángulo 30711" width="33.711" height="13.897" rx="5.17" transform="translate(122.713)" fill="#455a64"/>
    <path id="Trazado_129054" data-name="Trazado 129054" d="M578.3,734.514a1.008,1.008,0,0,1,.255-.071l.752-.135,2.969-.5,10.922-1.782,36.079-5.726,31.493-4.907h0l14.431.067,3.96.046h1.04a1.359,1.359,0,0,1,.353,0H679.16l-3.96.037-14.431.067h0l-31.478,4.99L593.212,732.2l-10.944,1.662-3.009.426-.751.107Z" transform="translate(-531.367 -689.317)" fill="#263238"/>
    <path id="Trazado_129055" data-name="Trazado 129055" d="M867.083,661.686c0,.114-4.426.2-9.891.2s-9.892-.083-9.892-.2,4.426-.2,9.892-.2S867.083,661.582,867.083,661.686Z" transform="translate(-717.86 -647.789)" fill="#263238"/>
    <rect id="Rectángulo_30712" data-name="Rectángulo 30712" width="28.886" height="9.793" transform="translate(125.342 1.895)" fill="#263238"/>
    <path id="Trazado_129056" data-name="Trazado 129056" d="M908.705,629.5l-.383,1.908c.684.2,1.389.429,1.389,1.227,0,.942-.8,1.5-1.932,1.5l-.166.819h-.344l.156-.825a2.518,2.518,0,0,1-1.577-.632l.255-.414a2.25,2.25,0,0,0,1.42.595l.368-1.886c-.647-.2-1.307-.445-1.307-1.227,0-.92.751-1.457,1.862-1.5l.16-.81h.356l-.166.819a2.629,2.629,0,0,1,1.346.42l-.218.429A2.309,2.309,0,0,0,908.705,629.5ZM908,631.3l.356-1.81c-.751.058-1.248.426-1.248,1C907.1,630.952,907.5,631.148,908,631.3Zm.233.573-.359,1.794c.788-.037,1.322-.383,1.322-.975C909.193,632.253,908.748,632.035,908.23,631.878Z" transform="translate(-758.452 -624.744)" fill="#fff"/>
    <path id="Trazado_129057" data-name="Trazado 129057" d="M892.869,629.5l-.377,1.908c.678.2,1.383.429,1.383,1.227,0,.942-.8,1.5-1.932,1.5l-.166.819h-.344l.166-.825a2.539,2.539,0,0,1-1.589-.632l.264-.414a2.245,2.245,0,0,0,1.414.595l.374-1.886c-.653-.2-1.313-.445-1.313-1.227,0-.92.752-1.457,1.862-1.5l.166-.81h.347l-.156.819a2.687,2.687,0,0,1,1.343.42l-.224.429A2.31,2.31,0,0,0,892.869,629.5Zm-.708,1.81.362-1.81c-.751.058-1.254.426-1.254,1,0,.457.4.653.892.81Zm.233.573-.353,1.794c.751-.037,1.316-.383,1.316-.975C893.356,632.253,892.911,632.035,892.393,631.878Z" transform="translate(-747.471 -624.744)" fill="#fff"/>
    <path id="Trazado_129058" data-name="Trazado 129058" d="M877.066,629.5l-.383,1.908c.684.2,1.389.429,1.389,1.227,0,.942-.8,1.5-1.929,1.5l-.166.819h-.353l.163-.825a2.517,2.517,0,0,1-1.577-.632l.242-.414a2.25,2.25,0,0,0,1.42.595l.368-1.886c-.653-.2-1.307-.445-1.307-1.227,0-.92.751-1.457,1.84-1.5l.166-.81h.353l-.166.819a2.657,2.657,0,0,1,1.346.42l-.224.429A2.239,2.239,0,0,0,877.066,629.5Zm-.715,1.81.362-1.81c-.751.058-1.255.426-1.255,1C875.458,630.952,875.863,631.148,876.351,631.3Zm.242.573-.362,1.794c.788-.037,1.316-.383,1.316-.975-.027-.445-.445-.662-.948-.819Z" transform="translate(-736.517 -624.744)" fill="#fff"/>
    <path id="Trazado_129059" data-name="Trazado 129059" d="M845.143,753.36c-.1,0-.193-6.711-.193-15s.089-15,.193-15,.2,6.714.2,15S845.22,753.36,845.143,753.36Z" transform="translate(-716.231 -690.69)" fill="#263238"/>
    <path id="Trazado_129060" data-name="Trazado 129060" d="M477,828.356c0,.114-8.2.2-18.311.2s-18.308-.083-18.308-.2,8.2-.2,18.308-.2S477,828.252,477,828.356Z" transform="translate(-435.749 -763.339)" fill="#263238"/>
  </g>
  <g id="freepik--Counter--inject-3" transform="translate(0 278.874)">
    <path id="Trazado_129061" data-name="Trazado 129061" d="M498,909.423c0,.113-111.491.2-248.991.2S0,909.537,0,909.423s111.46-.193,249.009-.193S498,909.319,498,909.423Z" transform="translate(0 -909.23)" fill="#263238"/>
  </g>
  <g id="freepik--speech-bubble--inject-3" transform="translate(141.061 8.687)">
    <path id="Trazado_129062" data-name="Trazado 129062" d="M459.91,99.165l7.876-13.906a37.269,37.269,0,1,1,8.929,9.938h0Z" transform="translate(-459.91 -28.414)" fill="#cbc5e0"/>
    <path id="Trazado_129063" data-name="Trazado 129063" d="M459.91,99.076l16.82-4.061-.052.15h0l-.451-.586.586.451a38.339,38.339,0,0,0,7.637,4.509A37.113,37.113,0,0,0,494.6,102.4a33.3,33.3,0,0,0,5.849.276c1-.058,2.03-.089,3.067-.178l3.119-.482a37.253,37.253,0,0,0,23-14.839,36.7,36.7,0,0,0,6.208-14.235,37.692,37.692,0,0,0-.442-16.388,36.372,36.372,0,0,0-7.9-15.142L526,39.76a19.571,19.571,0,0,0-1.616-1.5,18.088,18.088,0,0,0-1.669-1.445L520.949,35.5a14.231,14.231,0,0,0-1.84-1.208l-1.859-1.156-1.954-.954a17.226,17.226,0,0,0-1.975-.88,37.557,37.557,0,0,0-16.538-2.549,36.349,36.349,0,0,0-15.158,4.466,37.536,37.536,0,0,0-17.538,21.5,40.275,40.275,0,0,0-1.638,12.026,37.151,37.151,0,0,0,1.782,10.4,37.851,37.851,0,0,0,3.681,7.975v.1c-5.119,8.895-7.622,13.29-7.975,13.854L467.753,85.1v.1A37.875,37.875,0,0,1,464,77.191a37.137,37.137,0,0,1-1.819-10.45A40.207,40.207,0,0,1,463.8,54.636a37.759,37.759,0,0,1,17.694-21.709A36.717,36.717,0,0,1,496.8,28.418a38.051,38.051,0,0,1,16.651,2.567,19.569,19.569,0,0,1,2,.889l1.972.951,1.886,1.15a15.951,15.951,0,0,1,1.84,1.2l1.782,1.34a19.631,19.631,0,0,1,1.69,1.521c.543.509,1.138.975,1.641,1.5l1.5,1.669a36.776,36.776,0,0,1,7.975,15.3,37.954,37.954,0,0,1,.436,16.538,36.978,36.978,0,0,1-6.285,14.37,37.579,37.579,0,0,1-23.246,14.937l-3.156.463c-1.037.089-2.076.113-3.067.172a33.493,33.493,0,0,1-5.892-.307,37.49,37.49,0,0,1-10.2-2.862,38.489,38.489,0,0,1-7.668-4.6l.144-.135h0l.089.126h-.141Z" transform="translate(-459.91 -28.324)" fill="#263238"/>
    <path id="Trazado_129064" data-name="Trazado 129064" d="M548.55,126.939l3.763-3.766,7.263,6.456,14.256-13.719,3.5,3.766-18.286,17.213Z" transform="translate(-521.363 -89.046)" fill="#c1507f"/>
  </g>
</svg>
