<svg xmlns="http://www.w3.org/2000/svg" xmlns:xlink="http://www.w3.org/1999/xlink" width="352" height="320.998" viewBox="0 0 352 320.998">
  <defs>
    <linearGradient id="linear-gradient" x1="-67.19" y1="2.439" x2="-66.147" y2="2.439" gradientUnits="objectBoundingBox">
      <stop offset="0" stop-color="#09005d"/>
      <stop offset="1" stop-color="#1a0f91"/>
    </linearGradient>
    <linearGradient id="linear-gradient-2" x1="-38.542" y1="2.109" x2="-37.573" y2="2.109" xlink:href="#linear-gradient"/>
    <linearGradient id="linear-gradient-3" x1="-0.001" y1="0.5" x2="1" y2="0.5" gradientUnits="objectBoundingBox">
      <stop offset="0" stop-color="#dae3fe"/>
      <stop offset="1" stop-color="#e9effd"/>
    </linearGradient>
    <linearGradient id="linear-gradient-4" x1="0.002" y1="0.5" x2="1.002" y2="0.5" xlink:href="#linear-gradient-3"/>
  </defs>
  <g id="graficos13-13-13" transform="translate(0 0.002)">
    <path id="Trazado_128889" data-name="Trazado 128889" d="M117.425,84.041c-1.123,45.243-4.759,201.305-3.017,256.608a11.1,11.1,0,0,0,10.73,10.754c28.978.948,112.336,3.351,159.734,1.363A18.7,18.7,0,0,0,302.8,334.477c.986-47.489,3.158-181.058-2.011-242.245a15.261,15.261,0,0,0-13.694-13.9c-31.552-3.156-115.373-10.874-156.321-8.216A14.3,14.3,0,0,0,117.425,84.041Z" transform="translate(-99.619 -60.823)" fill="#5e5385"/>
    <path id="Trazado_128890" data-name="Trazado 128890" d="M183.824,211.164c-1.56,36.518-6.479,158.007-4.92,202.93a12.71,12.71,0,0,0,11.965,12.263c27,1.576,96.269,5.061,135.881,1.886a14.287,14.287,0,0,0,13.115-13.485c2.011-37.257,7.77-150.379,6.273-194.8a14.044,14.044,0,0,0-12.789-13.508c-29.215-2.622-104.25-8.864-137.91-7.027A12.282,12.282,0,0,0,183.824,211.164Z" transform="translate(-156.151 -174.066)" fill="#cbc5e0"/>
    <path id="Trazado_128891" data-name="Trazado 128891" d="M687,118.167h0a2.606,2.606,0,0,0,2.468,2.606c6.845.358,26.126,1.373,34.742,1.872a2.606,2.606,0,0,0,2.71-3.1l-.055-.285a2.607,2.607,0,0,0-2.322-2.1c-5.824-.534-23.4-2.011-35.043-1.6A2.6,2.6,0,0,0,687,118.167Z" transform="translate(-600.64 -100.97)" fill="#cbc5e0"/>
    <rect id="Rectángulo_30700" data-name="Rectángulo 30700" width="76.486" height="48.441" rx="21" transform="translate(64.697 43.425)" fill="#b1a8d1"/>
    <path id="Trazado_128892" data-name="Trazado 128892" d="M669.267,407.378a1.232,1.232,0,0,0-1.017-.41l-36.415.763-.921-2.921a.948.948,0,0,0-.944-.656l-5,.126a.939.939,0,0,0-.971.923.887.887,0,0,0,.971.872l4.274-.1,7.731,24.705a1.022,1.022,0,0,0,.963.708l25.56.343a.982.982,0,0,0,1.086-.936,1.01,1.01,0,0,0-1.086-.962l-24.815-.268-1.991-6.411,27.268.041a1.263,1.263,0,0,0,1.207-.871l4.3-13.916A1.094,1.094,0,0,0,669.267,407.378Z" transform="translate(-545.559 -353.349)" fill="#fff" opacity="0.78"/>
    <path id="Trazado_128893" data-name="Trazado 128893" d="M738.164,633a3.687,3.687,0,0,0-3.8,3.646,3.881,3.881,0,0,0,3.8,3.808,3.7,3.7,0,0,0,3.847-3.646A3.876,3.876,0,0,0,738.164,633Zm0,5.468a1.812,1.812,0,0,1-1.78-1.778,1.721,1.721,0,0,1,1.78-1.7,1.809,1.809,0,0,1,1.79,1.776,1.722,1.722,0,0,1-1.79,1.7Z" transform="translate(-642.046 -553.426)" fill="#fff" opacity="0.78"/>
    <path id="Trazado_128894" data-name="Trazado 128894" d="M872.394,635.066A3.828,3.828,0,0,0,868.4,638.8a4.018,4.018,0,0,0,3.994,3.9,3.84,3.84,0,0,0,4.038-3.735A4.022,4.022,0,0,0,872.394,635.066Zm0,5.6a1.879,1.879,0,0,1-1.869-1.821,1.788,1.788,0,0,1,1.869-1.744,1.878,1.878,0,0,1,1.878,1.821A1.786,1.786,0,0,1,872.394,640.668Z" transform="translate(-759.236 -555.235)" fill="#fff" opacity="0.78"/>
    <rect id="Rectángulo_30701" data-name="Rectángulo 30701" width="135.977" height="98.583" rx="17" transform="translate(37.867 106.344)" fill="#b1a8d1"/>
    <rect id="Rectángulo_30702" data-name="Rectángulo 30702" width="132.153" height="24.221" rx="10.5" transform="translate(40.841 213.848)" fill="#b1a8d1"/>
    <path id="Trazado_128895" data-name="Trazado 128895" d="M348.068,2455.16s-.7,3.97-1.045,7.9a2.708,2.708,0,0,0,2.59,2.933c5.233.219,16.429.642,20.445.462a.88.88,0,0,0,.776-1.207h0a1.969,1.969,0,0,0-1.006-1.062l-18.49-8.5Z" transform="translate(-303.392 -2146.532)" fill="#30274c"/>
    <path id="Trazado_128896" data-name="Trazado 128896" d="M350.83,2431.5l.563,4.748s3.239,1.508,5.452-.19l-1.343-5.292Z" transform="translate(-306.728 -2125.208)" fill="#b57a68"/>
    <path id="Trazado_128897" data-name="Trazado 128897" d="M252.058,1726.4c-.244,1.24-1.306,61.883,5.175,89.058a.922.922,0,0,1-.541,1.074,16.056,16.056,0,0,1-5.28,1.072,1.589,1.589,0,0,1-1.575-1.14c-1.853-6.305-10.732-37.9-11.891-68.074-1.295-33.721,0-1.149,0-1.149l.754-20.843Z" transform="translate(-207.533 -1509.382)" fill="#0e1c2f"/>
    <path id="Trazado_128898" data-name="Trazado 128898" d="M170.67,2471.64s-1.116,2-2.2,7.33a1.652,1.652,0,0,0,1.454,1.978c1.727.171,4.388.388,6.519.377a1.648,1.648,0,0,0,1.634-1.838,13.9,13.9,0,0,0-3.243-7.619Z" transform="translate(-147.265 -2160.94)" fill="#30274c"/>
    <path id="Trazado_128899" data-name="Trazado 128899" d="M178.39,2421.129l1.312,6.925s1.3.934,3.863.258l-.629-7.452Z" transform="translate(-155.965 -2116.544)" fill="#b57a68"/>
    <path id="Trazado_128900" data-name="Trazado 128900" d="M135.9,1717.894c-5.3,32,1.15,79.079,3.326,88.3a1.436,1.436,0,0,0,1.16,1.091,9.644,9.644,0,0,0,4.148-.166,1.316,1.316,0,0,0,.948-1.212c.292-7.451-.234-53.189,4.706-71.266a4.108,4.108,0,0,1,1.584-2.263l9.588-6.816.735-11.018Z" transform="translate(-117.035 -1499.012)" fill="#0e1c2f"/>
    <path id="Trazado_128901" data-name="Trazado 128901" d="M170.121,1240.946c-15.888-.269-33.418,4.165-33.418,4.165-4.735,27.634-.828,59.507-.828,59.507,12.3,3.226,26.176-1.972,26.176-1.972,2.044-11.55,11.583-44.056,11.583-44.056a52.4,52.4,0,0,0,19.423-6.16c-4.016-4.651-5.908-10.581-6.733-14.079A53.806,53.806,0,0,1,170.121,1240.946Z" transform="translate(-117.47 -1082.683)" fill="#a8dde2"/>
    <path id="Trazado_128902" data-name="Trazado 128902" d="M578.448,1064.405a3.039,3.039,0,0,0-3.536-.993c-2.337,9.877-14.6,17.884-27.192,21.8.822,3.5,2.716,9.428,6.733,14.079C575.355,1087.541,578.448,1064.405,578.448,1064.405Z" transform="translate(-478.868 -929.551)" fill="#b57a68"/>
    <path id="Trazado_128903" data-name="Trazado 128903" d="M767.194,958.57c.163.519-1.727,1.309-2.841-.815-.039-1.017-.657-5.376-.05-6.206,3.239-4.415,9.518-9.95,9.518-9.95a1.494,1.494,0,0,1,.186,2.075l-3.046,3.173a14.7,14.7,0,0,1,1.779,3.52,4.274,4.274,0,0,1-.426,3.143,36.2,36.2,0,0,1-1.953,3.2A4.215,4.215,0,0,1,767.194,958.57Z" transform="translate(-667.993 -823.236)" fill="#b57a68"/>
    <path id="Trazado_128904" data-name="Trazado 128904" d="M783.157,999.73l-2.776,2.353-.871,2.343,2.475,2.745s.832-4.651,1.451-5.657S783.733,1000.024,783.157,999.73Z" transform="translate(-681.521 -874.059)" fill="#915046"/>
    <path id="Trazado_128905" data-name="Trazado 128905" d="M38.9,1307.514,32.8,1292.13s-14.841,10.083-17.282,22.862a33.779,33.779,0,0,1,12.505,3.51C30.274,1313.431,38.9,1307.514,38.9,1307.514Z" transform="translate(-13.569 -1129.702)" fill="#a8dde2"/>
    <path id="Trazado_128906" data-name="Trazado 128906" d="M255.455,1156.305l-5.055,14.62a.524.524,0,0,0,.24.629c1.383.762,6.342,2.964,12.326-.828a2.484,2.484,0,0,0,1.143-1.772l1.634-12.652Z" transform="translate(-218.898 -1010.947)" fill="#915046"/>
    <path id="Trazado_128907" data-name="Trazado 128907" d="M288.2,1048.64s5.551,10.45,4.84,14.671-7.593,3.918-13.6.489l-4.2-11.282Z" transform="translate(-240.641 -916.821)" fill="#b57a68"/>
    <path id="Trazado_128908" data-name="Trazado 128908" d="M226.651,1005.425a.43.43,0,0,0,.187-.629,11.22,11.22,0,0,1-1.544-3.28s-1-.639,2.539-1.486,8.815-2.161,9.923-5.172c1.081-2.937-1.76-10.321-6.292-4.437a.431.431,0,0,1-.683,0c-.743-.967-2.7-2.974-5.405-1.76-2.538,1.139-2.823,3-2.788,3.936a.429.429,0,0,1-.5.439,4.958,4.958,0,0,0-5.8,2.7c-1.184,2.6-.415,4.074.287,4.794a.43.43,0,0,1-.185.713,2.579,2.579,0,0,0-1.823,2.949c.151,2.732,3.2,2.49,4.074,2.366a.432.432,0,0,1,.377.136c.745.825,4.1,4.328,7.74,4.749a.434.434,0,0,0,.455-.573l-1.573-4.573a.434.434,0,0,1,.234-.537Z" transform="translate(-187.588 -863.987)" fill="#12263f"/>
    <path id="Trazado_128909" data-name="Trazado 128909" d="M286.175,1120.986s-3.953-2.713-4.241-.428,3.559,3.309,5.464,2.456Z" transform="translate(-246.479 -978.898)" fill="#b57a68"/>
    <path id="Trazado_128910" data-name="Trazado 128910" d="M2.054,1469.9s-10.143,23.1,14.651,26.484l3.38-2.817s-12.4-6.758-5.629-20.283C14.456,1473.286,7.125,1467.088,2.054,1469.9Z" transform="translate(0 -1284.486)" fill="#b57a68"/>
    <path id="Trazado_128911" data-name="Trazado 128911" d="M136.27,1663.3h9.016s5.635,7.325,5.072,9.016-6.133.347-6.133.347l-2.882-4.855s-8.452.563-8.452-1.691S136.27,1663.3,136.27,1663.3Z" transform="translate(-116.185 -1454.214)" fill="#b57a68"/>
    <path id="Trazado_128912" data-name="Trazado 128912" d="M1584.382,81.647a1.061,1.061,0,0,1-1.061-1.03,132.461,132.461,0,0,1,4.526-35.185c2.948-10.513,7.2-19.194,12.626-25.8a40.783,40.783,0,0,1,25.934-14.959,29.322,29.322,0,0,1,24.084,6.4c9.419,7.762,16.421,21.833,20.813,41.82a178.124,178.124,0,0,1,3.781,27.655,1.062,1.062,0,1,1-2.123.082c-.02-.5-2.19-50.094-23.824-67.92a27.283,27.283,0,0,0-22.407-5.943c-17.919,2.773-30.314,15.977-36.84,39.244a130.476,130.476,0,0,0-4.443,34.545,1.062,1.062,0,0,1-1.029,1.095Z" transform="translate(-1384.275 -3.718)" fill="#8d8d92"/>
    <path id="Trazado_128913" data-name="Trazado 128913" d="M986.649,475.08a2.351,2.351,0,0,1,2.285-2.011l125.6-2.069,41.127,245.178H957.2C950.387,716.178,986.649,475.08,986.649,475.08Z" transform="translate(-836.131 -411.794)" fill="#e6e6e6"/>
    <path id="Trazado_128914" data-name="Trazado 128914" d="M2236.7,472.867,2214.74,471l41.127,245.178h24.6a7.864,7.864,0,0,0,7.7-9.467L2240.1,475.874A3.794,3.794,0,0,0,2236.7,472.867Z" transform="translate(-1936.333 -411.794)" fill="#ccc"/>
    <path id="Trazado_128915" data-name="Trazado 128915" d="M1366.278,77.4a1.063,1.063,0,0,1-1.062-1.03,132.812,132.812,0,0,1,4.525-35.185c2.948-10.513,7.2-19.2,12.626-25.8A40.806,40.806,0,0,1,1408.3.417a29.3,29.3,0,0,1,24.085,6.411c9.42,7.752,16.422,21.831,20.814,41.819a177.88,177.88,0,0,1,3.78,27.655,1.062,1.062,0,0,1-2.122.083c-.02-.5-2.19-50.1-23.824-67.922a27.289,27.289,0,0,0-22.407-5.951c-17.919,2.773-30.314,15.976-36.84,39.243a130.488,130.488,0,0,0-4.443,34.547,1.063,1.063,0,0,1-1.029,1.095Z" transform="translate(-1193.589 0)" fill="#8d8d92"/>
    <path id="Trazado_128916" data-name="Trazado 128916" d="M1230.3,885.228c-.018-.456-2-45.883-21.852-62.235a25.134,25.134,0,0,0-20.648-5.48c-16.46,2.548-27.844,14.656-33.835,35.99a119.343,119.343,0,0,0-4.078,31.678l-1.508.047a121.227,121.227,0,0,1,4.124-32.094c2.686-9.58,6.556-17.49,11.5-23.507a37.1,37.1,0,0,1,23.571-13.6,26.565,26.565,0,0,1,21.841,5.8c8.569,7.06,14.944,19.882,18.948,38.109a161.96,161.96,0,0,1,3.45,25.241Z" transform="translate(-1004.006 -713.111)" fill="#0e1c2f"/>
    <path id="Trazado_128917" data-name="Trazado 128917" d="M653.079,1421.885l20.113-132.613a2.626,2.626,0,0,1,2.552-2.23l116.246-1.922,25.141,149.716H662.974C656.435,1434.831,652.124,1428.355,653.079,1421.885Z" transform="translate(-570.867 -1123.574)" fill="#7d6eb2"/>
    <path id="Trazado_128918" data-name="Trazado 128918" d="M1781.482,1287.028l-22.412-1.908,25.141,149.716,24.823-.641a3.927,3.927,0,0,0,3.742-4.732l-29.561-141A1.983,1.983,0,0,0,1781.482,1287.028Z" transform="translate(-1537.944 -1123.574)" fill="#5e5385"/>
    <path id="Trazado_128919" data-name="Trazado 128919" d="M1030.945,881.4c-.018-.458-2-45.883-21.852-62.236a25.138,25.138,0,0,0-20.649-5.478c-16.46,2.551-27.844,14.656-33.835,35.989a119.343,119.343,0,0,0-4.078,31.678l-1.509.047a121.229,121.229,0,0,1,4.125-32.1c2.686-9.58,6.556-17.488,11.5-23.507a37.1,37.1,0,0,1,23.573-13.6A26.594,26.594,0,0,1,1010.063,818c8.571,7.063,14.947,19.883,18.95,38.1a161.976,161.976,0,0,1,3.451,25.241Z" transform="translate(-829.715 -709.766)" fill="#0e1c2f"/>
    <path id="Trazado_128920" data-name="Trazado 128920" d="M1378.871,592.2a2.221,2.221,0,0,0,.126-1.741c-2.919-8.548-13.4-39.166-13.853-39.564-.529-.463-16.924-17.765-16.924-17.765-3.017-3.187-4.338-.514-4.338-.514l-9.6,27.765,13.99,39.394a2.224,2.224,0,0,0,2.728,1.383l26.524-7.848A2.22,2.22,0,0,0,1378.871,592.2Zm-33.815-49.013a3.164,3.164,0,1,1,4.464-.308A3.164,3.164,0,0,1,1345.056,543.185Z" transform="translate(-1166.552 -464.746)" fill="#c1507f"/>
    <path id="Trazado_128921" data-name="Trazado 128921" d="M1413.115,767.832c2.035,4.422,1.158,7.525-.958,8.5-2.163.994-4.963-.455-6.842-4.479-1.828-3.971-1.342-7.361,1.035-8.456C1408.8,762.27,1411.378,764.056,1413.115,767.832Zm3.143,17.288-1.017-25.815,1.664-.766,1.017,25.815Zm-8.769-14.426c1.09,2.432,2.549,3.912,3.713,3.376s.964-2.478-.21-5.028c-1.069-2.324-2.406-3.979-3.666-3.394-1.188.544-.92,2.689.163,5.046Zm20.286.953c2.02,4.39,1.182,7.513-.958,8.5s-4.963-.454-6.833-4.525c-1.813-3.938-1.343-7.361,1.006-8.444,2.456-1.124,5.05.7,6.787,4.471Zm-5.62,2.862c1.075,2.4,2.549,3.912,3.714,3.375,1.189-.547.964-2.476-.21-5.028-1.084-2.356-2.406-3.977-3.666-3.394C1420.8,770.007,1421.067,772.153,1422.154,774.51Z" transform="translate(-1227.687 -663.188)" fill="#fff" opacity="0.85"/>
    <path id="Trazado_128922" data-name="Trazado 128922" d="M1391.961,491.293a1.166,1.166,0,0,1-.5-1.2h0a14.643,14.643,0,0,0-4.777-12.822,1.171,1.171,0,0,1,1.6-1.711,17.029,17.029,0,0,1,5.47,14.988,1.17,1.17,0,0,1-1.8.742Z" transform="translate(-1212.048 -415.507)" fill="#0e1c2f"/>
    <path id="Trazado_128923" data-name="Trazado 128923" d="M1834.6,1342.278s-5.315,27.433-20,34.8c-2.879,1.264-6.474,1.805-7.833,3.143-1.546,1.522,1.318,4.04,2.707,6.126s1.487.94,1.712.126-1.928-2.747,0-4.135,1.6.151.865,1.574a4.737,4.737,0,0,0-.2,3.345,25.616,25.616,0,0,0,2.884-2.147,5.451,5.451,0,0,0,1.6-3.257c3-1.052,21.6-8.422,25.222-30.547C1841.562,1351.3,1837.815,1331,1834.6,1342.278Z" transform="translate(-1579.258 -1170.564)" fill="#e5baab"/>
    <path id="Trazado_128924" data-name="Trazado 128924" d="M2366.229,1777.525a.16.16,0,0,1-.158-.135c-.012-.084-1.356-8.436-3.948-9.912a1.46,1.46,0,0,0-1.336-.1c-3.506,1.4-1.739,9.3-1.719,9.379a.16.16,0,1,1-.311.072c-.078-.336-1.844-8.251,1.912-9.747a1.786,1.786,0,0,1,1.611.117c2.724,1.553,4.052,9.79,4.107,10.141a.16.16,0,0,1-.134.182Z" transform="translate(-2061.823 -1544.83)" fill="#fff"/>
    <path id="Trazado_128925" data-name="Trazado 128925" d="M2337.071,1836.683l-13.243-1.223-2.948,1.634,2.527,3.161,12.1-1.232Z" transform="translate(-2029.13 -1604.732)" fill="#91b3fa"/>
    <path id="Trazado_128926" data-name="Trazado 128926" d="M2434.448,2474.184l.219,5.066a2.082,2.082,0,0,0,1.677,1.956,32.181,32.181,0,0,0,6.709.629,1.78,1.78,0,0,0,1.671-2.186,18.351,18.351,0,0,0-2.855-6.821l-5.568-.434a1.721,1.721,0,0,0-1.853,1.79Z" transform="translate(-2128.421 -2161.595)" fill="url(#linear-gradient)"/>
    <path id="Trazado_128927" data-name="Trazado 128927" d="M2059.836,1991.92l-1.372,5.454s.661,32.121.228,44.915a10.01,10.01,0,0,1-1.922,5.563l-6.16,8.459,14.547-7.121.41-1.676-2.032-3.307,5.766-35.476a10.987,10.987,0,0,0-.774-6.16l-2.455-5.628Z" transform="translate(-1792.835 -1741.524)" fill="#e5baab"/>
    <path id="Trazado_128928" data-name="Trazado 128928" d="M2034.983,2429.426l4.437.345a2.679,2.679,0,0,0,2.2-.88c1.524-1.69,4.664-4.973,6.042-4.958,1.854.02,1.107,6.562,1.107,6.562l1.034.08,1.946-8.045a4.84,4.84,0,0,0-2.137-5.241h0s-.665,3.086-3.06,4.288-9.8,5.6-9.8,5.6a6.342,6.342,0,0,0-1.806-.093A1.179,1.179,0,0,0,2034.983,2429.426Z" transform="translate(-1778.223 -2113.423)" fill="url(#linear-gradient-2)"/>
    <path id="Trazado_128929" data-name="Trazado 128929" d="M2273.93,2010.883s15.713,36.407,18.018,44.626a77.288,77.288,0,0,1,2.8,15.587c-.015.991,1.131,2.031,4.517,2.3a3.252,3.252,0,0,0,3.123-1.14,1.978,1.978,0,0,0,.224-1.9c-.9-2.241-3.745-9.4-4.754-12.628-1.206-3.852-3.1-21.028-4.411-27.051s-2.8-12.562-10.033-19.042C2283.417,2011.622,2278.542,2006.042,2273.93,2010.883Z" transform="translate(-1988.082 -1756.376)" fill="#e5baab"/>
    <path id="Trazado_128930" data-name="Trazado 128930" d="M2050.521,1271.358c-3.184-20.521,9.751-30.98,9.751-30.98-3.864-4.336-9.709-7.617-14.191-9.693a11.369,11.369,0,0,0-12.207,1.71c-3.716,3.209-7.757,7.755-7.216,12.011.573,4.5,7.219,27.278,7.219,27.278A18.458,18.458,0,0,0,2050.521,1271.358Z" transform="translate(-1771.852 -1075.06)" fill="#f5ca56"/>
    <path id="Trazado_128931" data-name="Trazado 128931" d="M2099.175,1572.368c-1.481-5.981-9.766-10.8-9.766-10.8a18.448,18.448,0,0,1-16.643.32,33.216,33.216,0,0,0-1.536,12.759c.718,6.259,5.144,46.472,5.144,46.472,11.657,3.324,30.248-.07,30.248-.07C2100.115,1607.069,2100.656,1578.349,2099.175,1572.368Z" transform="translate(-1810.739 -1365.272)" fill="#12263f"/>
    <path id="Trazado_128932" data-name="Trazado 128932" d="M2123.008,1124.432l2.514,17.668c.251,1.559-1.132,1.2-2.649.788-2.5-.675-5.683-1.913-6.621-3.97a1.845,1.845,0,0,1-.146-.67l-.723-12.172a2.172,2.172,0,0,1,1.444-2.175l3.316-1.17a2.17,2.17,0,0,1,2.864,1.7Z" transform="translate(-1849.464 -981.49)" fill="#ddb2a6"/>
    <path id="Trazado_128933" data-name="Trazado 128933" d="M2437.826,1876.859l4.54-2.61-10.932-29.06-2.624,1.773Z" transform="translate(-2123.493 -1613.239)" fill="#7d97f4"/>
    <path id="Trazado_128934" data-name="Trazado 128934" d="M2344.462,1788.248h-.012a.159.159,0,0,1-.146-.171c.006-.084.6-8.54-1.822-11.314a2.294,2.294,0,0,0-1.628-.847,2.186,2.186,0,0,0-1.652.64c-2.608,2.431-2.766,10.811-2.766,10.894a.159.159,0,0,1-.159.157h0a.158.158,0,0,1-.157-.161c0-.351.157-8.6,2.864-11.122a2.493,2.493,0,0,1,1.886-.725,2.606,2.606,0,0,1,1.85.955c2.546,2.914,1.906,11.459,1.9,11.545A.161.161,0,0,1,2344.462,1788.248Z" transform="translate(-2042.455 -1552.393)" fill="#fff"/>
    <path id="Trazado_128935" data-name="Trazado 128935" d="M2240.8,1323.112c.649.861,10.489,12.571,13.307,25.632s1.87,21.787,1.87,21.787-2.862,2.137-1.834,3.645.754,2.546,2.074,2.839,2.947.708,2.748-1.886,2.9-3.12,2.389-4.69,3-43.723-13.976-55.159c-.081-.054-.161-.108-.243-.161C2239.962,1317.713,2239.76,1321.728,2240.8,1323.112Z" transform="translate(-1958.717 -1149.802)" fill="#e5baab"/>
    <path id="Trazado_128936" data-name="Trazado 128936" d="M2320.82,1849.22l13.575,1.266,9.016,29.9-19.488.509Z" transform="translate(-2029.078 -1616.762)" fill="#bdd0fb"/>
    <g id="Grupo_55778" data-name="Grupo 55778" transform="translate(308.424 238.048)" opacity="0.66">
      <path id="Trazado_128937" data-name="Trazado 128937" d="M2459.708,1918.8a.175.175,0,0,1-.045,0,.181.181,0,0,1-.126-.221l.871-3.322-6.875-21.331a.181.181,0,0,1,.344-.111l6.891,21.381a.185.185,0,0,1,0,.1l-.88,3.373A.18.18,0,0,1,2459.708,1918.8Z" transform="translate(-2453.527 -1893.694)" fill="url(#linear-gradient-3)"/>
    </g>
    <g id="Grupo_55779" data-name="Grupo 55779" transform="translate(316.01 259.586)" opacity="0.66">
      <path id="Trazado_128938" data-name="Trazado 128938" d="M2516.4,2066.51a.175.175,0,0,1-.078-.018l-2.351-1.124a.18.18,0,0,1-.084-.24.182.182,0,0,1,.24-.085l2.351,1.124a.181.181,0,0,1-.078.343Z" transform="translate(-2513.868 -2065.027)" fill="url(#linear-gradient-4)"/>
    </g>
    <path id="Trazado_128939" data-name="Trazado 128939" d="M2232.31,1037.206s18.479-5.686,21.521,13.589,5.142,25.453,9.723,22.124c0,0-.754,7.2-9.554,3.982C2231.169,1068.55,2245.067,1041.8,2232.31,1037.206Z" transform="translate(-1951.694 -906.139)" fill="#12263f"/>
    <path id="Trazado_128940" data-name="Trazado 128940" d="M2067.961,1024.754s-5.375,1.461-9.824,8.342-2.327,10.623.854,11.527,8.045,1.487,13.813-2.567S2074.916,1023.1,2067.961,1024.754Z" transform="translate(-1797.197 -895.825)" fill="#e5baab"/>
    <path id="Trazado_128941" data-name="Trazado 128941" d="M2118.672,993.076s5.288-10.234-4.226-11.648l-2.455,1.266s-2.693-6.434,3.432-8.5a12.32,12.32,0,0,1,15.747,9.679c1.4,8.06-.705,12.865-5.27,16.016s-5.672-1.27-5.672-1.27,2.68-3.163,2.03-5.135-3.031-.019-3.031-.019Z" transform="translate(-1845.984 -851.234)" fill="#0e1c2f"/>
    <path id="Trazado_128942" data-name="Trazado 128942" d="M2176.46,1115.205s2.688-5.28,4.978-2.721-2.795,4.832-4.758,5.531Z" transform="translate(-1902.865 -972.027)" fill="#e5baab"/>
    <path id="Trazado_128943" data-name="Trazado 128943" d="M1024.72,1777.106v13.557a26.447,26.447,0,0,0,4.635,14.151l2.589,3.314a16.108,16.108,0,0,0,13.657,7.291h56.726l.43-1.458,13.9-50.939,11.667-6.285-1.737-3.177-13.036,7.067-4.469,16.478Zm4.048,4.048h79.321l-5.594,20.641-2.953,10.937H1045.6a13,13,0,0,1-10.625-6.1l-2.357-3.76a22.641,22.641,0,0,1-3.852-12.2Z" transform="translate(-895.906 -1533.127)" fill="#a0a8b2"/>
    <path id="Trazado_128944" data-name="Trazado 128944" d="M1087,2167.569a2,2,0,0,0,1.825,2.021h66.559c1.005,0,1.77-1.424,1.77-2.429v-31.385c0-.345-.068-.31-.236-.586l-2.926,11.188h-.88v19.159h-64.282A2.019,2.019,0,0,0,1087,2167.569Z" transform="translate(-950.357 -1866.784)" fill="#a0a8b2"/>
    <rect id="Rectángulo_30703" data-name="Rectángulo 30703" width="2.43" height="34.165" transform="translate(171.167 245.884)" fill="#a0a8b2"/>
    <rect id="Rectángulo_30704" data-name="Rectángulo 30704" width="2.43" height="34.165" transform="translate(192.628 245.884)" fill="#a0a8b2"/>
    <rect id="Rectángulo_30705" data-name="Rectángulo 30705" width="2.43" height="34.165" transform="translate(150.213 245.884)" fill="#a0a8b2"/>
    <rect id="Rectángulo_30706" data-name="Rectángulo 30706" width="79.022" height="2.172" transform="translate(132.239 255.933)" fill="#a0a8b2"/>
    <rect id="Rectángulo_30707" data-name="Rectángulo 30707" width="73.592" height="2.172" transform="translate(134.219 267.826)" fill="#a0a8b2"/>
    <path id="Trazado_128945" data-name="Trazado 128945" d="M1500.77,2436.538a7.848,7.848,0,1,0,7.848-7.848A7.848,7.848,0,0,0,1500.77,2436.538Zm3.111,0a4.737,4.737,0,1,1,4.737,4.736A4.737,4.737,0,0,1,1503.881,2436.538Z" transform="translate(-1312.114 -2123.39)" fill="#a0a8b2"/>
    <path id="Trazado_128946" data-name="Trazado 128946" d="M1112.83,2436.538a7.848,7.848,0,1,0,7.848-7.848,7.848,7.848,0,0,0-7.848,7.848Zm3.111,0a4.737,4.737,0,1,1,4.737,4.736A4.737,4.737,0,0,1,1115.941,2436.538Z" transform="translate(-972.94 -2123.39)" fill="#a0a8b2"/>
    <path id="Trazado_128947" data-name="Trazado 128947" d="M1770.78,1753.187a3.687,3.687,0,0,0,3.687,3.686h12.268a3.687,3.687,0,0,0,3.687-3.686h0a3.687,3.687,0,0,0-3.687-3.687h-12.268A3.687,3.687,0,0,0,1770.78,1753.187Z" transform="translate(-1548.181 -1529.578)" fill="#a0a8b2"/>
  </g>
</svg>
