<svg xmlns="http://www.w3.org/2000/svg" xmlns:xlink="http://www.w3.org/1999/xlink" width="94" height="94" viewBox="0 0 94 94">
  <defs>
    <clipPath id="clip-path">
      <rect id="Rect치ngulo_30744" data-name="Rect치ngulo 30744" width="39.451" height="63.121" fill="none"/>
    </clipPath>
  </defs>
  <g id="Grupo_55806" data-name="Grupo 55806" transform="translate(579.345 -8498.886)">
    <circle id="Elipse_4326" data-name="Elipse 4326" cx="47" cy="47" r="47" transform="translate(-579.345 8498.886)" fill="#7d6eb2"/>
    <g id="Grupo_55808" data-name="Grupo 55808" transform="translate(-553.524 8508.111)">
      <rect id="Rect치ngulo_30743" data-name="Rect치ngulo 30743" width="36.985" height="45.122" transform="translate(1.233 16.767)" fill="#ccf"/>
      <path id="Trazado_129403" data-name="Trazado 129403" d="M-349.708,8748.354l-.169,4.177a1.232,1.232,0,0,0,.507,1.047,1.226,1.226,0,0,0,1.152.158l3.92-1.449,3.92,1.449a1.228,1.228,0,0,0,1.152-.158,1.232,1.232,0,0,0,.507-1.047l-.169-4.177,2.592-3.279a1.232,1.232,0,0,0,.2-1.146,1.232,1.232,0,0,0-.839-.806l-4.024-1.131-2.319-3.478a1.235,1.235,0,0,0-1.025-.549,1.235,1.235,0,0,0-1.025.549l-2.319,3.478-4.024,1.131a1.232,1.232,0,0,0-.839.806,1.232,1.232,0,0,0,.2,1.146Zm0,0" transform="translate(364.023 -8707.64)" fill="#fff"/>
      <g id="Grupo_55807" data-name="Grupo 55807" transform="translate(0)">
        <g id="Grupo_55806-2" data-name="Grupo 55806" clip-path="url(#clip-path)">
          <path id="Trazado_129404" data-name="Trazado 129404" d="M-343.774,8872.967h-17.26a1.233,1.233,0,0,0-1.233,1.232,1.234,1.234,0,0,0,1.233,1.233h17.26a1.234,1.234,0,0,0,1.233-1.233,1.233,1.233,0,0,0-1.233-1.232Zm0,0" transform="translate(372.13 -8820.448)" fill="#7d6eb2"/>
          <path id="Trazado_129405" data-name="Trazado 129405" d="M-402.542,8553.467c-6.531,0-10.229,9-11.511,15.534h-6.982a1.233,1.233,0,0,0-1.233,1.233v45.121a1.233,1.233,0,0,0,1.233,1.232h36.985a1.233,1.233,0,0,0,1.233-1.232v-45.121a1.233,1.233,0,0,0-1.233-1.233h-6.982c-1.291-6.581-5-15.534-11.511-15.534Zm17.26,18v42.656H-419.8v-42.656h5.341a46.062,46.062,0,0,0-.41,6.166,1.233,1.233,0,0,0,1.233,1.232,1.233,1.233,0,0,0,1.233-1.232,43.168,43.168,0,0,1,.443-6.165h18.84a43.271,43.271,0,0,1,.442,6.165,1.233,1.233,0,0,0,1.233,1.232,1.233,1.233,0,0,0,1.233-1.232,46.064,46.064,0,0,0-.41-6.165ZM-411.526,8569c1.055-5.039,4.1-13.068,8.984-13.068s7.93,8.032,8.984,13.068Zm0,0" transform="translate(422.267 -8553.467)" fill="#fff"/>
        </g>
      </g>
    </g>
  </g>
</svg>
