<svg xmlns="http://www.w3.org/2000/svg" width="477.396" height="324.783" viewBox="0 0 477.396 324.783">
  <g id="graficos15-15" transform="translate(-43.18 -82.94)">
    <g id="freepik--Screens--inject-15" transform="translate(43.18 82.94)">
      <path id="Trazado_129486" data-name="Trazado 129486" d="M540.87,384.541H515.75l12.062-38.181h25.12Z" transform="translate(-321.402 -238.026)" fill="#4db5c1"/>
      <path id="Trazado_129487" data-name="Trazado 129487" d="M536.51,357.509h25.12l3.524-11.149h-25.12Z" transform="translate(-333.624 -238.026)" opacity="0.2" style="isolation: isolate"/>
      <rect id="Rectángulo_30749" data-name="Rectángulo 30749" width="48.064" height="5.803" transform="translate(191.28 144.093)" fill="#4db5c1"/>
      <rect id="Rectángulo_30750" data-name="Rectángulo 30750" width="48.064" height="5.803" transform="translate(191.28 144.093)" fill="#fff" opacity="0.5" style="isolation: isolate"/>
      <rect id="Rectángulo_30751" data-name="Rectángulo 30751" width="24.03" height="5.803" transform="translate(191.28 144.093)" fill="#fff" opacity="0.6" style="isolation: isolate"/>
      <path id="Trazado_129488" data-name="Trazado 129488" d="M468.75,182.979,460,82.94,323.012,95.015H184.965L45.861,82.94,43.18,85.621l8.752,100.034,139.1,12.075H329.083l136.986-12.075Z" transform="translate(-43.18 -82.94)" fill="#4db5c1"/>
      <path id="Trazado_129489" data-name="Trazado 129489" d="M472.588,182.979,463.837,82.94,326.851,95.015H188.8L49.7,82.94l8.747,100.039,139.108,12.075H335.6Z" transform="translate(-47.019 -82.94)" fill="#fff" opacity="0.2" style="isolation: isolate"/>
      <rect id="Rectángulo_30752" data-name="Rectángulo 30752" width="130.033" height="92.717" transform="translate(285.448 14.991) rotate(-5.143)" fill="#fff" opacity="0.8" style="isolation: isolate"/>
      <path id="Trazado_129490" data-name="Trazado 129490" d="M790.749,135.527a1.445,1.445,0,0,1-.255-2.879l32.448-2.858a1.436,1.436,0,1,1,.284,2.858h0Z" transform="translate(-482.379 -110.518)" fill="#23acb9" opacity="0.5" style="isolation: isolate"/>
      <g id="Grupo_55817" data-name="Grupo 55817" transform="translate(306.797 19.264)" opacity="0.5">
        <path id="Trazado_129491" data-name="Trazado 129491" d="M790.749,135.527a1.445,1.445,0,0,1-.255-2.879l32.448-2.858a1.436,1.436,0,1,1,.284,2.858h0Z" transform="translate(-789.176 -129.783)" fill="#fff" opacity="0.5" style="isolation: isolate"/>
      </g>
      <path id="Trazado_129492" data-name="Trazado 129492" d="M919.139,124.233a1.445,1.445,0,1,1-.255-2.879h0l32.448-2.854a1.435,1.435,0,0,1,.243,2.854Z" transform="translate(-557.968 -103.875)" fill="#23acb9" opacity="0.5" style="isolation: isolate"/>
      <g id="Grupo_55818" data-name="Grupo 55818" transform="translate(359.598 14.624)" opacity="0.5">
        <path id="Trazado_129493" data-name="Trazado 129493" d="M919.139,124.233a1.445,1.445,0,1,1-.255-2.879h0l32.448-2.854a1.435,1.435,0,0,1,.243,2.854Z" transform="translate(-917.566 -118.499)" fill="#fff" opacity="0.5" style="isolation: isolate"/>
      </g>
      <ellipse id="Elipse_4328" data-name="Elipse 4328" cx="16.512" cy="16.631" rx="16.512" ry="16.631" transform="matrix(1, -0.04, 0.04, 1, 309.214, 29.35)" fill="#4db5c1"/>
      <g id="Grupo_55819" data-name="Grupo 55819" transform="translate(315.625 31.196)" opacity="0.9">
        <path id="Trazado_129494" data-name="Trazado 129494" d="M814.252,195.385l-1.875.16a.884.884,0,0,1-.954-.8l-.777-8.875a.876.876,0,0,1,.785-.95h0l1.875-.173a.88.88,0,0,1,.95.8l.777,8.875A.88.88,0,0,1,814.252,195.385Z" transform="translate(-810.641 -174.072)" fill="#fff"/>
        <path id="Trazado_129495" data-name="Trazado 129495" d="M824.827,168.812c1.209-1.193,4.236-4.569,4.224-8.2a1.822,1.822,0,0,1,3.335-1.008c.67,1.168.823,3.376-.374,7.505l4.639-.411a3.109,3.109,0,0,1,3.015,1.645h0a3.172,3.172,0,0,1,.321,2.106l-1.341,6.991a3.134,3.134,0,0,1-3.29,2.533l-8.859-.629A1.5,1.5,0,0,1,825.156,178l-.7-7.974a1.485,1.485,0,0,1,.37-1.217Z" transform="translate(-818.766 -158.796)" fill="#fff"/>
      </g>
      <ellipse id="Elipse_4329" data-name="Elipse 4329" cx="16.512" cy="16.631" rx="16.512" ry="16.631" transform="matrix(0.999, -0.044, 0.044, 0.999, 361.94, 23.373)" fill="#fff" opacity="0.9" style="isolation: isolate"/>
      <path id="Trazado_129496" data-name="Trazado 129496" d="M940.533,160.857l-1.875.16a.884.884,0,0,0-.822.958h0l.777,8.859a.888.888,0,0,0,.946.823h0l1.875-.177a.884.884,0,0,0,.823-.958h0l-.777-8.863a.868.868,0,0,0-.929-.8Z" transform="translate(-569.899 -128.811)" fill="#4db5c1"/>
      <path id="Trazado_129497" data-name="Trazado 129497" d="M953.178,168.3c1.341.979,4.956,3.767,5.573,7.345a1.822,1.822,0,0,0,3.471.411c.456-1.258.23-3.471-1.674-7.316l4.623-.411a3.138,3.138,0,0,0,2.681-2.134h0a3.159,3.159,0,0,0,0-2.13l-2.546-6.7a3.122,3.122,0,0,0-3.673-1.916L953,157.618a1.493,1.493,0,0,0-1.127,1.592l.7,7.962a1.5,1.5,0,0,0,.613,1.127Z" transform="translate(-578.16 -125.573)" fill="#4db5c1"/>
      <rect id="Rectángulo_30753" data-name="Rectángulo 30753" width="9.825" height="11.367" transform="translate(312.328 86.543) rotate(-5.04)" fill="#4db5c1"/>
      <rect id="Rectángulo_30754" data-name="Rectángulo 30754" width="9.865" height="8.923" transform="translate(323.918 87.887) rotate(-5.143)" fill="#fff" opacity="0.9" style="isolation: isolate"/>
      <rect id="Rectángulo_30755" data-name="Rectángulo 30755" width="9.825" height="20.427" transform="translate(340.894 74.914) rotate(-5.04)" fill="#fff" opacity="0.9" style="isolation: isolate"/>
      <rect id="Rectángulo_30756" data-name="Rectángulo 30756" width="9.825" height="22.866" transform="translate(360.264 70.768) rotate(-5.04)" fill="#fff" opacity="0.9" style="isolation: isolate"/>
      <rect id="Rectángulo_30757" data-name="Rectángulo 30757" width="9.825" height="17.77" transform="translate(380.277 74.124) rotate(-5.04)" fill="#fff" opacity="0.9" style="isolation: isolate"/>
      <rect id="Rectángulo_30758" data-name="Rectángulo 30758" width="9.825" height="18.589" transform="translate(331.278 77.606) rotate(-5.04)" fill="#4db5c1"/>
      <rect id="Rectángulo_30759" data-name="Rectángulo 30759" width="9.825" height="25.305" transform="translate(350.257 69.201) rotate(-5.04)" fill="#4db5c1"/>
      <rect id="Rectángulo_30760" data-name="Rectángulo 30760" width="9.865" height="20.51" transform="translate(371.983 71.902) rotate(-5.143)" fill="#4db5c1"/>
      <rect id="Rectángulo_30761" data-name="Rectángulo 30761" width="9.865" height="31.865" transform="translate(390.61 58.822) rotate(-5.143)" fill="#4db5c1"/>
      <path id="Trazado_129498" data-name="Trazado 129498" d="M60.38,93.56l8.057,91.994,131,11.38L191.39,104.94Z" transform="translate(-53.306 -89.192)" fill="#fff" opacity="0.8" style="isolation: isolate"/>
      <path id="Trazado_129499" data-name="Trazado 129499" d="M177.612,158.657l-70.28-6.058a6.7,6.7,0,0,1-5.832-5.791l-.884-10.133a4.322,4.322,0,0,1,3.73-4.853,4.245,4.245,0,0,1,1.164,0l70.325,6.029a6.58,6.58,0,0,1,5.815,5.791l.9,10.133a4.359,4.359,0,0,1-3.759,4.882A4.287,4.287,0,0,1,177.612,158.657Z" transform="translate(-76.973 -111.696)" fill="#fff"/>
      <path id="Trazado_129500" data-name="Trazado 129500" d="M126.775,149.6a5.2,5.2,0,0,1-4.524,5.807,5.107,5.107,0,0,1-1.349,0,7.913,7.913,0,0,1-6.991-6.917,5.215,5.215,0,0,1,4.524-5.823,5.287,5.287,0,0,1,1.349,0,7.921,7.921,0,0,1,6.991,6.934Z" transform="translate(-84.798 -118.079)" fill="#4db5c1"/>
      <path id="Trazado_129501" data-name="Trazado 129501" d="M162.977,148.72a1.723,1.723,0,0,1-1.513-1.5,1.123,1.123,0,0,1,.958-1.271,1.167,1.167,0,0,1,.378,0l43.092,3.738a1.715,1.715,0,0,1,1.513,1.5,1.123,1.123,0,0,1-.958,1.271,1,1,0,0,1-.382,0Z" transform="translate(-112.812 -120.026)" fill="#23acb9"/>
      <path id="Trazado_129502" data-name="Trazado 129502" d="M165.092,173.005a1.735,1.735,0,0,1-1.518-1.5,1.127,1.127,0,0,1,.958-1.271,1,1,0,0,1,.382,0l25.239,2.184a1.715,1.715,0,0,1,1.513,1.5,1.119,1.119,0,0,1-.971,1.258,1.048,1.048,0,0,1-.3,0Z" transform="translate(-114.055 -134.322)" fill="#23acb9"/>
      <path id="Trazado_129503" data-name="Trazado 129503" d="M164.047,160.844a1.723,1.723,0,0,1-1.513-1.5,1.127,1.127,0,0,1,.958-1.275,1.2,1.2,0,0,1,.382,0l36.548,3.179a1.723,1.723,0,0,1,1.513,1.5,1.123,1.123,0,0,1-.971,1.258,1.237,1.237,0,0,1-.3,0Z" transform="translate(-113.442 -127.162)" fill="#23acb9"/>
      <g id="Grupo_55820" data-name="Grupo 55820" transform="translate(48.641 25.906)" opacity="0.5">
        <path id="Trazado_129504" data-name="Trazado 129504" d="M162.977,148.72a1.723,1.723,0,0,1-1.513-1.5,1.123,1.123,0,0,1,.958-1.271,1.167,1.167,0,0,1,.378,0l43.092,3.738a1.715,1.715,0,0,1,1.513,1.5,1.123,1.123,0,0,1-.958,1.271,1,1,0,0,1-.382,0Z" transform="translate(-161.453 -145.932)" fill="#fff"/>
        <path id="Trazado_129505" data-name="Trazado 129505" d="M165.092,173.005a1.735,1.735,0,0,1-1.518-1.5,1.127,1.127,0,0,1,.958-1.271,1,1,0,0,1,.382,0l25.239,2.184a1.715,1.715,0,0,1,1.513,1.5,1.119,1.119,0,0,1-.971,1.258,1.048,1.048,0,0,1-.3,0Z" transform="translate(-162.695 -160.229)" fill="#fff"/>
        <path id="Trazado_129506" data-name="Trazado 129506" d="M164.047,160.844a1.723,1.723,0,0,1-1.513-1.5,1.127,1.127,0,0,1,.958-1.275,1.2,1.2,0,0,1,.382,0l36.548,3.179a1.723,1.723,0,0,1,1.513,1.5,1.123,1.123,0,0,1-.971,1.258,1.237,1.237,0,0,1-.3,0Z" transform="translate(-162.083 -153.068)" fill="#fff"/>
      </g>
      <path id="Trazado_129507" data-name="Trazado 129507" d="M282.377,122.335l-8.225-.629a1.678,1.678,0,0,0-1.851,1.476,1.624,1.624,0,0,0,0,.411l.691,6.839a2.554,2.554,0,0,0,2.241,2.184l2.385.185,1.164,1.678a.868.868,0,0,0,1.18.35.843.843,0,0,0,.3-.255l.823-1.53,2.373.189a1.645,1.645,0,0,0,1.851-1.448,1.69,1.69,0,0,0,0-.411l-.67-6.835a2.542,2.542,0,0,0-2.258-2.2Z" transform="translate(-178.066 -105.757)" fill="#4db5c1"/>
      <g id="Grupo_55821" data-name="Grupo 55821" transform="translate(96.845 18.453)" opacity="0.9">
        <path id="Trazado_129508" data-name="Trazado 129508" d="M279.806,131.5a3.372,3.372,0,0,1-1.1-2.028,1.337,1.337,0,0,1,.979-1.62,1.32,1.32,0,0,1,.658,0c1.02.095,1.341.576,2.056,1.341.535-.617.823-1.045,1.847-.966a2.085,2.085,0,0,1,1.945,1.933,2.278,2.278,0,0,1-.765,1.875l-2.558,2.521Z" transform="translate(-278.664 -127.809)" fill="#fff"/>
      </g>
      <path id="Trazado_129509" data-name="Trazado 129509" d="M224.278,221.874l-70.325-6.111a6.625,6.625,0,0,1-5.832-5.791l-.884-10.117a4.343,4.343,0,0,1,4.906-4.865l70.3,6.111a6.613,6.613,0,0,1,5.832,5.758l.884,10.133a4.339,4.339,0,0,1-4.894,4.865Z" transform="translate(-104.421 -148.884)" fill="#fff"/>
      <path id="Trazado_129510" data-name="Trazado 129510" d="M173.5,212.973a5.2,5.2,0,0,1-4.487,5.823,5.417,5.417,0,0,1-1.365,0,7.921,7.921,0,0,1-6.967-6.93,5.2,5.2,0,0,1,4.524-5.811,5.107,5.107,0,0,1,1.349,0,7.888,7.888,0,0,1,6.946,6.917Z" transform="translate(-112.334 -155.397)" fill="#4db5c1"/>
      <path id="Trazado_129511" data-name="Trazado 129511" d="M209.707,212.005a1.723,1.723,0,0,1-1.513-1.5,1.123,1.123,0,0,1,.958-1.271,1,1,0,0,1,.382,0l43.022,3.7a1.723,1.723,0,0,1,1.513,1.5,1.123,1.123,0,0,1-.958,1.271,1.2,1.2,0,0,1-.382,0Z" transform="translate(-140.324 -157.283)" fill="#23acb9"/>
      <path id="Trazado_129512" data-name="Trazado 129512" d="M211.822,236.263a1.744,1.744,0,0,1-1.513-1.518,1.131,1.131,0,0,1,1-1.258,1,1,0,0,1,.271,0l25.239,2.2a1.715,1.715,0,0,1,1.513,1.5,1.123,1.123,0,0,1-.971,1.258,1.232,1.232,0,0,1-.3,0Z" transform="translate(-141.571 -171.568)" fill="#23acb9"/>
      <path id="Trazado_129513" data-name="Trazado 129513" d="M210.815,224.031a1.723,1.723,0,0,1-1.518-1.5,1.131,1.131,0,0,1,.975-1.263,1.234,1.234,0,0,1,.3,0l36.536,3.175a1.719,1.719,0,0,1,1.5,1.5,1.127,1.127,0,0,1-.876,1.328,1,1,0,0,1-.382,0Z" transform="translate(-140.975 -164.373)" fill="#23acb9"/>
      <g id="Grupo_55822" data-name="Grupo 55822" transform="translate(67.859 51.932)" opacity="0.5">
        <path id="Trazado_129514" data-name="Trazado 129514" d="M209.707,212.005a1.723,1.723,0,0,1-1.513-1.5,1.123,1.123,0,0,1,.958-1.271,1,1,0,0,1,.382,0l43.022,3.7a1.723,1.723,0,0,1,1.513,1.5,1.123,1.123,0,0,1-.958,1.271,1.2,1.2,0,0,1-.382,0Z" transform="translate(-208.183 -209.215)" fill="#fff"/>
        <path id="Trazado_129515" data-name="Trazado 129515" d="M211.822,236.263a1.744,1.744,0,0,1-1.513-1.518,1.131,1.131,0,0,1,1-1.258,1,1,0,0,1,.271,0l25.239,2.2a1.715,1.715,0,0,1,1.513,1.5,1.123,1.123,0,0,1-.971,1.258,1.232,1.232,0,0,1-.3,0Z" transform="translate(-209.43 -223.499)" fill="#fff"/>
        <path id="Trazado_129516" data-name="Trazado 129516" d="M210.815,224.031a1.723,1.723,0,0,1-1.518-1.5,1.131,1.131,0,0,1,.975-1.263,1.234,1.234,0,0,1,.3,0l36.536,3.175a1.719,1.719,0,0,1,1.5,1.5,1.127,1.127,0,0,1-.876,1.328,1,1,0,0,1-.382,0Z" transform="translate(-208.833 -216.305)" fill="#fff"/>
      </g>
      <path id="Trazado_129517" data-name="Trazado 129517" d="M329.108,185.619l-8.225-.629a1.645,1.645,0,0,0-1.851,1.444,1.689,1.689,0,0,0,0,.411l.67,6.835a2.533,2.533,0,0,0,2.237,2.2l2.385.185,1.168,1.645a.855.855,0,0,0,1.152.374.921.921,0,0,0,.308-.267l.843-1.538,2.361.185a1.645,1.645,0,0,0,1.826-1.476,1.738,1.738,0,0,0,0-.387l-.683-6.823A2.509,2.509,0,0,0,329.108,185.619Z" transform="translate(-205.578 -143.012)" fill="#4db5c1"/>
      <g id="Grupo_55823" data-name="Grupo 55823" transform="translate(116.068 44.452)" opacity="0.9">
        <path id="Trazado_129518" data-name="Trazado 129518" d="M326.543,194.718a3.29,3.29,0,0,1-1.1-2.036,1.337,1.337,0,0,1,1.645-1.608c1.008.078,1.341.576,2.056,1.341.522-.617.823-1.061,1.834-.966a2.056,2.056,0,0,1,1.958,1.929,2.3,2.3,0,0,1-.765,1.863l-2.558,2.533Z" transform="translate(-325.407 -191.029)" fill="#fff"/>
      </g>
      <path id="Trazado_129519" data-name="Trazado 129519" d="M201.975,283.173l-70.325-6.111a6.609,6.609,0,0,1-5.832-5.79l-.872-10.117a4.339,4.339,0,0,1,3.742-4.869,4.286,4.286,0,0,1,1.147,0l70.325,6.111a6.6,6.6,0,0,1,5.8,5.795l.884,10.117a4.343,4.343,0,0,1-3.742,4.869A4.294,4.294,0,0,1,201.975,283.173Z" transform="translate(-91.298 -184.973)" fill="#fff"/>
      <path id="Trazado_129520" data-name="Trazado 129520" d="M151.169,274.267a5.2,5.2,0,0,1-5.856,5.819,7.925,7.925,0,0,1-6.971-6.93,5.2,5.2,0,0,1,4.524-5.811,5.076,5.076,0,0,1,1.345,0,7.917,7.917,0,0,1,6.958,6.921Z" transform="translate(-99.182 -191.481)" fill="#4db5c1"/>
      <path id="Trazado_129521" data-name="Trazado 129521" d="M187.39,273.328a1.711,1.711,0,0,1-1.513-1.5,1.127,1.127,0,0,1,.971-1.263,1.051,1.051,0,0,1,.3,0l43.092,3.738a1.727,1.727,0,0,1,1.513,1.542,1.123,1.123,0,0,1-.971,1.258.946.946,0,0,1-.3,0Z" transform="translate(-127.186 -193.396)" fill="#23acb9"/>
      <path id="Trazado_129522" data-name="Trazado 129522" d="M189.5,297.563a1.736,1.736,0,0,1-1.518-1.5,1.143,1.143,0,0,1,.987-1.275,1.125,1.125,0,0,1,.288,0l34.751,3.015a1.736,1.736,0,0,1,1.518,1.5,1.131,1.131,0,0,1-.958,1.275,1.193,1.193,0,0,1-.382,0Z" transform="translate(-128.429 -207.658)" fill="#23acb9"/>
      <path id="Trazado_129523" data-name="Trazado 129523" d="M188.428,285.43a1.723,1.723,0,0,1-1.513-1.5,1.127,1.127,0,0,1,.958-1.271,1.2,1.2,0,0,1,.382,0l31.145,2.681a1.74,1.74,0,0,1,1.518,1.5,1.14,1.14,0,0,1-1.341,1.341Z" transform="translate(-127.796 -200.513)" fill="#23acb9"/>
      <g id="Grupo_55824" data-name="Grupo 55824" transform="translate(58.681 77.158)" opacity="0.5">
        <path id="Trazado_129524" data-name="Trazado 129524" d="M187.39,273.328a1.711,1.711,0,0,1-1.513-1.5,1.127,1.127,0,0,1,.971-1.263,1.051,1.051,0,0,1,.3,0l43.092,3.738a1.727,1.727,0,0,1,1.513,1.542,1.123,1.123,0,0,1-.971,1.258.946.946,0,0,1-.3,0Z" transform="translate(-185.867 -270.554)" fill="#fff"/>
        <path id="Trazado_129525" data-name="Trazado 129525" d="M189.5,297.563a1.736,1.736,0,0,1-1.518-1.5,1.143,1.143,0,0,1,.987-1.275,1.125,1.125,0,0,1,.288,0l34.751,3.015a1.736,1.736,0,0,1,1.518,1.5,1.131,1.131,0,0,1-.958,1.275,1.193,1.193,0,0,1-.382,0Z" transform="translate(-187.11 -284.815)" fill="#fff"/>
        <path id="Trazado_129526" data-name="Trazado 129526" d="M188.428,285.43a1.723,1.723,0,0,1-1.513-1.5,1.127,1.127,0,0,1,.958-1.271,1.2,1.2,0,0,1,.382,0l31.145,2.681a1.74,1.74,0,0,1,1.518,1.5,1.14,1.14,0,0,1-1.341,1.341Z" transform="translate(-186.477 -277.671)" fill="#fff"/>
      </g>
      <path id="Trazado_129527" data-name="Trazado 129527" d="M307.335,253.486l-8.225-.617a1.645,1.645,0,0,0-1.847,1.875l.67,6.835a2.509,2.509,0,0,0,2.237,2.188l2.385.185,1.168,1.678a.884.884,0,0,0,1.2.341.934.934,0,0,0,.271-.234l.823-1.542,2.373.189a1.645,1.645,0,0,0,1.851-1.448,1.687,1.687,0,0,0,0-.432l-.67-6.819A2.562,2.562,0,0,0,307.335,253.486Z" transform="translate(-192.759 -182.975)" fill="#4db5c1"/>
      <path id="Trazado_129528" data-name="Trazado 129528" d="M305.295,268h0a.74.74,0,0,1-.658-.642l-.2-2.307a.494.494,0,0,1,.436-.547h.115a.757.757,0,0,1,.67.654l.2,2.295a.494.494,0,0,1-.436.551A.444.444,0,0,1,305.295,268Z" transform="translate(-196.99 -189.832)" fill="#fff" opacity="0.9" style="isolation: isolate"/>
      <path id="Trazado_129529" data-name="Trazado 129529" d="M309.106,260.367a3.352,3.352,0,0,0,1.419-2.414c0-.576.823-.683,1.127-.136a3.29,3.29,0,0,1-.132,2.414l1.555.136a1.332,1.332,0,0,1,1,.707h0a.987.987,0,0,1,.107.7l-.457,2.2a.855.855,0,0,1-1.024.65l-.074-.021-2.973-.707a.613.613,0,0,1-.457-.522l-.23-2.681A.477.477,0,0,1,309.106,260.367Z" transform="translate(-199.662 -185.687)" fill="#fff" opacity="0.9" style="isolation: isolate"/>
      <path id="Trazado_129530" data-name="Trazado 129530" d="M398.56,122.08l8.057,91.994h130l-8.052-91.994Z" transform="translate(-252.407 -105.983)" fill="#fff" opacity="0.8" style="isolation: isolate"/>
      <g id="Grupo_55825" data-name="Grupo 55825" transform="translate(146.51 76.696)" opacity="0.2">
        <path id="Trazado_129531" data-name="Trazado 129531" d="M403.064,300.4h0a1.139,1.139,0,0,1-1.1-1.008l-2.533-28.961a.909.909,0,0,1,.823-1h.111a1.1,1.1,0,0,1,1.086,1.008l2.533,28.961a.913.913,0,0,1-.823,1Z" transform="translate(-399.428 -269.43)"/>
      </g>
      <g id="Grupo_55826" data-name="Grupo 55826" transform="translate(142.504 30.227)" opacity="0.2">
        <path id="Trazado_129532" data-name="Trazado 129532" d="M394.34,199.552h0a1.131,1.131,0,0,1-1.1-1.008l-3.549-41.105a.9.9,0,0,1,.823-1h.1a1.119,1.119,0,0,1,1.1,1l3.594,41.105a.913.913,0,0,1-.822,1Z" transform="translate(-389.687 -156.44)"/>
      </g>
      <g id="Grupo_55827" data-name="Grupo 55827" transform="translate(141.256 16.53)" opacity="0.2">
        <path id="Trazado_129533" data-name="Trazado 129533" d="M388.495,133.7h0a1.139,1.139,0,0,1-1.1-1l-.736-8.562a.9.9,0,0,1,.781-1,.686.686,0,0,1,.127,0h0a1.131,1.131,0,0,1,1.1,1.008l.736,8.562a.909.909,0,0,1-.823,1Z" transform="translate(-386.654 -123.133)"/>
      </g>
      <g id="Grupo_55828" data-name="Grupo 55828" transform="translate(283.389 63.503)" opacity="0.2">
        <path id="Trazado_129534" data-name="Trazado 129534" d="M737.062,281.512h0a1.127,1.127,0,0,1-1.1-1.008l-3.7-42.15a.909.909,0,0,1,.823-1,.55.55,0,0,1,.115,0h0a1.127,1.127,0,0,1,1.086,1l3.7,42.15a.913.913,0,0,1-.823,1Z" transform="translate(-732.258 -237.353)"/>
      </g>
      <g id="Grupo_55829" data-name="Grupo 55829" transform="translate(280.097 25.765)" opacity="0.2">
        <path id="Trazado_129535" data-name="Trazado 129535" d="M728.237,180.432h0a1.127,1.127,0,0,1-1.1-1.008l-2.879-32.835a.9.9,0,0,1,.786-1h.127a1.119,1.119,0,0,1,1.1,1.008l2.879,32.835a.909.909,0,0,1-.823,1Z" transform="translate(-724.254 -145.59)"/>
      </g>
      <g id="Grupo_55830" data-name="Grupo 55830" transform="translate(279.289 16.524)" opacity="0.2">
        <path id="Trazado_129536" data-name="Trazado 129536" d="M723.675,128.417h0a1.1,1.1,0,0,1-1.086-1l-.3-3.29a.917.917,0,0,1,.823-1h.111a1.1,1.1,0,0,1,1.086,1.008l.3,3.29a.913.913,0,0,1-.823,1Z" transform="translate(-722.289 -123.12)"/>
      </g>
      <path id="Trazado_129537" data-name="Trazado 129537" d="M677.814,218.647a1.234,1.234,0,0,1,1.147-1.337h.111a1.534,1.534,0,0,1,1.5,1.341l1.6,18.173a1.234,1.234,0,0,1-1.147,1.337h-.111a1.53,1.53,0,0,1-1.5-1.341Z" transform="translate(-416.813 -162.049)" fill="#4db5c1"/>
      <path id="Trazado_129538" data-name="Trazado 129538" d="M420.095,137.047a1.53,1.53,0,0,1-1.5-1.341,1.234,1.234,0,0,1,1.152-1.337h31.687a1.534,1.534,0,0,1,1.5,1.341,1.234,1.234,0,0,1-1.151,1.337Z" transform="translate(-264.199 -113.219)" fill="#23acb9"/>
      <path id="Trazado_129539" data-name="Trazado 129539" d="M422.315,161.3a1.53,1.53,0,0,1-1.5-1.341,1.234,1.234,0,0,1,1.147-1.337h26.321a1.53,1.53,0,0,1,1.5,1.341,1.234,1.234,0,0,1-1.152,1.337h-26.32Z" transform="translate(-265.506 -127.496)" fill="#23acb9"/>
      <path id="Trazado_129540" data-name="Trazado 129540" d="M421.245,149.237a1.522,1.522,0,0,1-1.5-1.341,1.234,1.234,0,0,1,1.147-1.337h20.974a1.53,1.53,0,0,1,1.5,1.341,1.234,1.234,0,0,1-1.147,1.337Z" transform="translate(-264.876 -120.396)" fill="#23acb9"/>
      <g id="Grupo_55831" data-name="Grupo 55831" transform="translate(154.39 21.151)" opacity="0.5">
        <path id="Trazado_129541" data-name="Trazado 129541" d="M420.095,137.047a1.53,1.53,0,0,1-1.5-1.341,1.234,1.234,0,0,1,1.152-1.337h31.687a1.534,1.534,0,0,1,1.5,1.341,1.234,1.234,0,0,1-1.151,1.337Z" transform="translate(-418.589 -134.37)" fill="#fff"/>
        <path id="Trazado_129542" data-name="Trazado 129542" d="M422.315,161.3a1.53,1.53,0,0,1-1.5-1.341,1.234,1.234,0,0,1,1.147-1.337h26.321a1.53,1.53,0,0,1,1.5,1.341,1.234,1.234,0,0,1-1.152,1.337h-26.32Z" transform="translate(-419.896 -148.647)" fill="#fff"/>
        <path id="Trazado_129543" data-name="Trazado 129543" d="M421.245,149.237a1.522,1.522,0,0,1-1.5-1.341,1.234,1.234,0,0,1,1.147-1.337h20.974a1.53,1.53,0,0,1,1.5,1.341,1.234,1.234,0,0,1-1.147,1.337Z" transform="translate(-419.266 -141.547)" fill="#fff"/>
      </g>
      <path id="Trazado_129544" data-name="Trazado 129544" d="M675.637,182.755a6.453,6.453,0,0,1-5.712,7.111,6,6,0,0,1-.822.033,7.946,7.946,0,0,1-7.769-7.144,6.444,6.444,0,0,1,5.7-7.115,6.314,6.314,0,0,1,.823-.041A8.044,8.044,0,0,1,675.637,182.755Z" transform="translate(-407.089 -137.492)" fill="#4db5c1"/>
      <path id="Trazado_129545" data-name="Trazado 129545" d="M668.61,194.747h0a.855.855,0,0,1-.86-.79l-.267-3a.707.707,0,0,1,.625-.786h.1a.88.88,0,0,1,.855.79l.255,3a.707.707,0,0,1-.625.786Z" transform="translate(-410.73 -146.071)" fill="#fff"/>
      <path id="Trazado_129546" data-name="Trazado 129546" d="M673.538,183.959a5.046,5.046,0,0,0,1.838-3.352.777.777,0,0,1,1.46-.3,4.367,4.367,0,0,1-.177,3.191h1.986a1.493,1.493,0,0,1,1.341.823h0a1.447,1.447,0,0,1,.144.909l-.588,2.932a1.234,1.234,0,0,1-1.435.966l-3.845-.6a.724.724,0,0,1-.6-.642l-.308-3.446A.63.63,0,0,1,673.538,183.959Z" transform="translate(-414.186 -140.024)" fill="#fff"/>
      <path id="Trazado_129547" data-name="Trazado 129547" d="M684.286,282.044a7.954,7.954,0,0,0-7.777-7.156,6.445,6.445,0,0,0-6.58,6.325,6.985,6.985,0,0,0,.037.823,8.036,8.036,0,0,0,7.806,7.164,6.445,6.445,0,0,0,6.58-6.325A7.02,7.02,0,0,0,684.286,282.044Z" transform="translate(-412.173 -195.947)" fill="#4db5c1"/>
      <path id="Trazado_129548" data-name="Trazado 129548" d="M676.416,284h0a.712.712,0,0,0-.728.691.806.806,0,0,0,0,.1l.308,3a.876.876,0,0,0,.86.794h0a.712.712,0,0,0,.711-.707.305.305,0,0,0,0-.086l-.255-3.015A.892.892,0,0,0,676.416,284Z" transform="translate(-415.563 -201.312)" fill="#fff"/>
      <path id="Trazado_129549" data-name="Trazado 129549" d="M682.206,288.071a6.375,6.375,0,0,1,2.426,3.364c.119.765,1.234.991,1.5.292s.107-1.472-.724-3.2h2.011a1.234,1.234,0,0,0,1.176-.823h0a1.39,1.39,0,0,0,0-.913l-1.11-2.945a1.485,1.485,0,0,0-1.6-.966l-3.738.6a.584.584,0,0,0-.5.642l.308,3.43A.67.67,0,0,0,682.206,288.071Z" transform="translate(-419.075 -200.645)" fill="#fff"/>
      <ellipse id="Elipse_4330" data-name="Elipse 4330" cx="35.385" cy="38.625" rx="35.385" ry="38.625" transform="translate(162.888 64.617) rotate(-46.25)" fill="#4db5c1"/>
      <path id="Trazado_129550" data-name="Trazado 129550" d="M537.342,163.791a40.192,40.192,0,0,0-27.085-10.721c-20.411,0-35.516,16.553-33.723,36.964H513.5Z" transform="translate(-298.228 -124.228)" fill="#fff" opacity="0.6" style="isolation: isolate"/>
      <path id="Trazado_129551" data-name="Trazado 129551" d="M497.47,163.785,525.9,189.921l-3.228-36.857a33.723,33.723,0,0,0-25.2,10.721Z" transform="translate(-310.639 -124.222)" opacity="0.2" style="isolation: isolate"/>
      <path id="Trazado_129552" data-name="Trazado 129552" d="M497.47,163.785,525.9,189.921l-3.228-36.857a33.723,33.723,0,0,0-25.2,10.721Z" transform="translate(-310.639 -124.222)" fill="#4db5c1"/>
      <path id="Trazado_129553" data-name="Trazado 129553" d="M497.47,163.785,525.9,189.921l-3.228-36.857a33.723,33.723,0,0,0-25.2,10.721Z" transform="translate(-310.639 -124.222)" opacity="0.3" style="isolation: isolate"/>
      <path id="Trazado_129554" data-name="Trazado 129554" d="M535.688,279.766c20.411,0,35.516-16.553,33.723-36.976H532.443L508.59,268.884A40.209,40.209,0,0,0,535.688,279.766Z" transform="translate(-317.186 -177.05)" fill="#fff" opacity="0.3" style="isolation: isolate"/>
      <path id="Trazado_129555" data-name="Trazado 129555" d="M607.493,304.462a8.126,8.126,0,0,1-7.2,8.949,9.046,9.046,0,0,1-1,.045,10.014,10.014,0,0,1-9.771-8.994,8.048,8.048,0,0,1,7.045-8.928,7.815,7.815,0,0,1,1.16-.049A10.01,10.01,0,0,1,607.493,304.462Z" transform="translate(-364.801 -208.071)" fill="#23acb9"/>
      <path id="Trazado_129556" data-name="Trazado 129556" d="M601.882,314.738a3.57,3.57,0,0,1-1.341-2.291,1.773,1.773,0,0,1,1.444-2.056,1.645,1.645,0,0,1,.448-.021c1.18,0,1.62.547,2.373,1.341.617-.777.962-1.341,2.143-1.341a2.176,2.176,0,0,1,2.254,2.056,2.953,2.953,0,0,1-.888,2.291l-2.961,3.228Z" transform="translate(-371.306 -216.834)" fill="#4db5c1"/>
      <path id="Trazado_129557" data-name="Trazado 129557" d="M484.191,194.962a8.044,8.044,0,0,1-7.032,8.941,8.574,8.574,0,0,1-1.172.053,10.01,10.01,0,0,1-9.767-8.994,8.04,8.04,0,0,1,7.045-8.928,7.741,7.741,0,0,1,1.156-.049A10,10,0,0,1,484.191,194.962Z" transform="translate(-292.208 -143.604)" fill="#23acb9"/>
      <path id="Trazado_129558" data-name="Trazado 129558" d="M485.677,199.677a5.108,5.108,0,0,1-4.557,5.6,4.959,4.959,0,0,1-.6.029,6.309,6.309,0,0,1-6.169-5.671,5.108,5.108,0,0,1,4.524-5.626,4.908,4.908,0,0,1,.662-.016A6.3,6.3,0,0,1,485.677,199.677Z" transform="translate(-297.008 -148.319)" fill="#4db5c1"/>
      <path id="Trazado_129559" data-name="Trazado 129559" d="M485.677,199.677a5.108,5.108,0,0,1-4.557,5.6,4.959,4.959,0,0,1-.6.029,6.309,6.309,0,0,1-6.169-5.671,5.108,5.108,0,0,1,4.524-5.626,4.908,4.908,0,0,1,.662-.016A6.3,6.3,0,0,1,485.677,199.677Z" transform="translate(-297.008 -148.319)" fill="#fff" opacity="0.5" style="isolation: isolate"/>
      <path id="Trazado_129560" data-name="Trazado 129560" d="M486.386,210.507a2.829,2.829,0,0,1-3.928,0,.47.47,0,0,0-.724.6.622.622,0,0,0,.095.086,3.816,3.816,0,0,0,5.346,0c.411-.411-.325-1.115-.753-.687Z" transform="translate(-301.312 -157.944)" fill="#4db5c1"/>
      <path id="Trazado_129561" data-name="Trazado 129561" d="M483.1,201.764c0,.613-.119,1.11-.387,1.11s-.526-.5-.58-1.11.123-1.115.411-1.115S483.049,201.205,483.1,201.764Z" transform="translate(-301.606 -152.241)" fill="#4db5c1"/>
      <path id="Trazado_129562" data-name="Trazado 129562" d="M492,201.764c0,.613-.123,1.11-.378,1.11s-.522-.5-.588-1.11.119-1.115.391-1.115S491.944,201.205,492,201.764Z" transform="translate(-306.841 -152.241)" fill="#4db5c1"/>
      <path id="Trazado_129563" data-name="Trazado 129563" d="M617.643,175.127a8.044,8.044,0,0,1-7.045,8.928,8.422,8.422,0,0,1-1.16.053,10.01,10.01,0,0,1-9.768-8.982,8.118,8.118,0,0,1,7.2-8.945,7.4,7.4,0,0,1,1-.045,10.01,10.01,0,0,1,9.771,8.99Z" transform="translate(-370.782 -131.921)" fill="#23acb9"/>
      <path id="Trazado_129564" data-name="Trazado 129564" d="M619.1,179.885a5.112,5.112,0,0,1-4.524,5.63c-.21.021-.411.029-.633.029a6.313,6.313,0,0,1-6.169-5.659,5.12,5.12,0,0,1,4.524-5.638,4.633,4.633,0,0,1,.633-.029A6.313,6.313,0,0,1,619.1,179.885Z" transform="translate(-375.564 -136.679)" fill="#4db5c1"/>
      <path id="Trazado_129565" data-name="Trazado 129565" d="M619.1,179.885a5.112,5.112,0,0,1-4.524,5.63c-.21.021-.411.029-.633.029a6.313,6.313,0,0,1-6.169-5.659,5.12,5.12,0,0,1,4.524-5.638,4.633,4.633,0,0,1,.633-.029A6.313,6.313,0,0,1,619.1,179.885Z" transform="translate(-375.564 -136.679)" fill="#fff" opacity="0.5" style="isolation: isolate"/>
      <path id="Trazado_129566" data-name="Trazado 129566" d="M616.116,192.3a2.813,2.813,0,0,1,3.94,0,.469.469,0,0,0,.629-.7h0a3.841,3.841,0,0,0-5.346,0c-.411.411.333,1.11.748.7Z" transform="translate(-379.963 -146.281)" fill="#4db5c1"/>
      <path id="Trazado_129567" data-name="Trazado 129567" d="M616.393,181.885c0,.617-.119,1.11-.387,1.11s-.526-.494-.58-1.11.123-1.115.391-1.115S616.393,181.276,616.393,181.885Z" transform="translate(-380.08 -140.537)" fill="#4db5c1"/>
      <path id="Trazado_129568" data-name="Trazado 129568" d="M625.439,181.885c0,.617-.123,1.11-.378,1.11s-.522-.494-.576-1.11.107-1.115.378-1.115S625.386,181.276,625.439,181.885Z" transform="translate(-385.413 -140.537)" fill="#4db5c1"/>
      <ellipse id="Elipse_4331" data-name="Elipse 4331" cx="8.604" cy="9.381" rx="8.604" ry="9.381" transform="translate(171.02 78.714) rotate(-46.25)" fill="#23acb9"/>
      <ellipse id="Elipse_4332" data-name="Elipse 4332" cx="5.416" cy="5.91" rx="5.416" ry="5.91" transform="translate(175.733 78.759) rotate(-46.25)" fill="#4db5c1"/>
      <ellipse id="Elipse_4333" data-name="Elipse 4333" cx="5.416" cy="5.91" rx="5.416" ry="5.91" transform="translate(175.733 78.759) rotate(-46.25)" fill="#fff" opacity="0.5" style="isolation: isolate"/>
      <path id="Trazado_129569" data-name="Trazado 129569" d="M483.425,277.929a4.022,4.022,0,0,0,5.614,0l-.086-.929H483.33Z" transform="translate(-302.315 -197.191)" fill="#4db5c1"/>
      <path id="Trazado_129570" data-name="Trazado 129570" d="M484.5,270.071a1.785,1.785,0,0,0-2.468,0c-.337.3.226.823.563.51a1,1,0,0,1,1.419,0C484.425,270.89,484.877,270.367,484.5,270.071Z" transform="translate(-301.489 -192.821)" fill="#4db5c1"/>
      <path id="Trazado_129571" data-name="Trazado 129571" d="M493.532,270.073a1.789,1.789,0,0,0-2.468,0c-.333.3.23.822.563.51a1.032,1.032,0,0,1,1.435,0C493.437,270.892,493.923,270.37,493.532,270.073Z" transform="translate(-306.808 -192.823)" fill="#4db5c1"/>
      <path id="Trazado_129572" data-name="Trazado 129572" d="M678.482,430.99H636.92v6.757h83.123v-2.776Z" transform="translate(-392.74 -287.852)" fill="#4db5c1"/>
      <path id="Trazado_129573" data-name="Trazado 129573" d="M678.482,430.99H636.92v6.757h83.123v-2.776Z" transform="translate(-392.74 -287.852)" fill="#fff" opacity="0.6" style="isolation: isolate"/>
      <path id="Trazado_129574" data-name="Trazado 129574" d="M678.482,437.747H636.92V430.99l41.562,3.981Z" transform="translate(-392.74 -287.852)" fill="#fff" opacity="0.6" style="isolation: isolate"/>
      <g id="Grupo_55832" data-name="Grupo 55832" transform="translate(372.296 4.368)" opacity="0.5">
        <path id="Trazado_129575" data-name="Trazado 129575" d="M995.056,158.925,989.331,93.56l-7.748.683-33.143,95.63,37.005-3.27Z" transform="translate(-948.44 -93.56)" fill="#fff"/>
      </g>
      <g id="Grupo_55833" data-name="Grupo 55833" transform="translate(207.015 16.097)" opacity="0.5">
        <path id="Trazado_129576" data-name="Trazado 129576" d="M582.428,214.074l31.9-91.994H578.447l-31.9,91.994Z" transform="translate(-546.55 -122.08)" fill="#fff"/>
      </g>
      <path id="Trazado_129577" data-name="Trazado 129577" d="M268.334,206.731l26.172-75.5L293.313,117.6l-29.08-2.533L233.5,203.7Z" transform="translate(-155.229 -101.856)" fill="#fff" opacity="0.5" style="isolation: isolate"/>
    </g>
    <g id="freepik--Table--inject-15" transform="translate(121.545 232.848)">
      <path id="Trazado_129578" data-name="Trazado 129578" d="M253.57,460.09H520.653v5.7a2.307,2.307,0,0,1-2.307,2.307H255.964a2.307,2.307,0,0,1-2.307-2.307h0v-5.7Z" transform="translate(-245.411 -454.892)" fill="#ccf"/>
      <path id="Trazado_129579" data-name="Trazado 129579" d="M253.57,460.09H520.653v5.7a2.307,2.307,0,0,1-2.307,2.307H255.964a2.307,2.307,0,0,1-2.307-2.307h0v-5.7Z" transform="translate(-245.411 -454.892)" opacity="0.2" style="isolation: isolate"/>
      <path id="Trazado_129580" data-name="Trazado 129580" d="M253.57,460.09H374.48v8.044H255.931a2.307,2.307,0,0,1-2.307-2.324h0v-5.679h0Z" transform="translate(-245.411 -454.892)" fill="#fff" opacity="0.3" style="isolation: isolate"/>
      <rect id="Rectángulo_30762" data-name="Rectángulo 30762" width="283.386" height="6.699" rx="3.35" transform="translate(0 0)" fill="#ccf"/>
      <path id="Trazado_129581" data-name="Trazado 129581" d="M236.5,447.45H362.834v6.7H236.5a2.677,2.677,0,0,1-2.681-2.677v-1.263a2.686,2.686,0,0,1,2.6-2.76Z" transform="translate(-233.781 -447.45)" fill="#fff" opacity="0.4" style="isolation: isolate"/>
      <path id="Trazado_129582" data-name="Trazado 129582" d="M366.119,640.724H273.43a10.08,10.08,0,0,1-10.08-10.08V489.69a10.08,10.08,0,0,1,10.08-10.08h92.689a10.08,10.08,0,0,1,10.08,10.08V630.645a10.08,10.08,0,0,1-10.08,10.08ZM273.43,484.973a4.73,4.73,0,0,0-4.717,4.717V630.645a4.725,4.725,0,0,0,4.717,4.717h92.689a4.729,4.729,0,0,0,4.721-4.717V489.69a4.734,4.734,0,0,0-4.721-4.717Z" transform="translate(-251.169 -466.384)" fill="#263238"/>
      <g id="Grupo_55834" data-name="Grupo 55834" transform="translate(12.181 13.226)" opacity="0.4">
        <path id="Trazado_129583" data-name="Trazado 129583" d="M366.119,640.724H273.43a10.08,10.08,0,0,1-10.08-10.08V489.69a10.08,10.08,0,0,1,10.08-10.08h92.689a10.08,10.08,0,0,1,10.08,10.08V630.645a10.08,10.08,0,0,1-10.08,10.08ZM273.43,484.973a4.73,4.73,0,0,0-4.717,4.717V630.645a4.725,4.725,0,0,0,4.717,4.717h92.689a4.729,4.729,0,0,0,4.721-4.717V489.69a4.734,4.734,0,0,0-4.721-4.717Z" transform="translate(-263.35 -479.61)" fill="#fff" opacity="0.2" style="isolation: isolate"/>
      </g>
      <path id="Trazado_129584" data-name="Trazado 129584" d="M366.2,479.61H273.506a10.1,10.1,0,0,0-10.026,9.048h5.429a4.717,4.717,0,0,1,4.6-3.7H366.2a4.717,4.717,0,0,1,4.6,3.7h5.429A10.092,10.092,0,0,0,366.2,479.61Z" transform="translate(-251.245 -466.384)" opacity="0.2" style="isolation: isolate"/>
      <path id="Trazado_129585" data-name="Trazado 129585" d="M716.979,640.724H624.286a10.076,10.076,0,0,1-10.076-10.08V489.69a10.08,10.08,0,0,1,10.076-10.08h92.693a10.092,10.092,0,0,1,10.08,10.08V630.645A10.092,10.092,0,0,1,716.979,640.724ZM624.286,484.973a4.73,4.73,0,0,0-4.717,4.717V630.645a4.729,4.729,0,0,0,4.717,4.717h92.693a4.729,4.729,0,0,0,4.717-4.717V489.69a4.729,4.729,0,0,0-4.717-4.717Z" transform="translate(-457.734 -466.384)" fill="#263238"/>
      <path id="Trazado_129586" data-name="Trazado 129586" d="M716.979,640.724H624.286a10.076,10.076,0,0,1-10.076-10.08V489.69a10.08,10.08,0,0,1,10.076-10.08h92.693a10.092,10.092,0,0,1,10.08,10.08V630.645A10.092,10.092,0,0,1,716.979,640.724ZM624.286,484.973a4.73,4.73,0,0,0-4.717,4.717V630.645a4.729,4.729,0,0,0,4.717,4.717h92.693a4.729,4.729,0,0,0,4.717-4.717V489.69a4.729,4.729,0,0,0-4.717-4.717Z" transform="translate(-457.734 -466.384)" fill="#fff" opacity="0.1" style="isolation: isolate"/>
      <path id="Trazado_129587" data-name="Trazado 129587" d="M717.056,479.61H624.362a10.088,10.088,0,0,0-10.022,9.048h5.346a4.734,4.734,0,0,1,4.61-3.7h92.718a4.721,4.721,0,0,1,4.639,3.755h5.425A10.092,10.092,0,0,0,717.056,479.61Z" transform="translate(-457.811 -466.384)" opacity="0.2" style="isolation: isolate"/>
    </g>
    <g id="freepik--Device--inject-15" transform="translate(99.148 279.192)">
      <rect id="Rectángulo_30763" data-name="Rectángulo 30763" width="126.24" height="128.518" rx="27.44" transform="translate(0 0)" fill="#3f5165"/>
      <rect id="Rectángulo_30764" data-name="Rectángulo 30764" width="126.24" height="128.518" rx="27.44" transform="translate(0 0)" fill="#fff" opacity="0.4" style="isolation: isolate"/>
      <path id="Trazado_129588" data-name="Trazado 129588" d="M179.27,845v.082a11.285,11.285,0,0,0,11.273,11.3H294.225a11.285,11.285,0,0,0,11.285-11.285V845Z" transform="translate(-179.27 -727.849)" opacity="0.1" style="isolation: isolate"/>
      <rect id="Rectángulo_30765" data-name="Rectángulo 30765" width="51.317" height="128.518" rx="25.658" transform="translate(74.919 0)" fill="#3f5165"/>
      <path id="Trazado_129589" data-name="Trazado 129589" d="M381.368,574.81h28.747a5.252,5.252,0,0,1,5.252,5.252V686.01a5.252,5.252,0,0,1-5.248,5.264H381.372a5.252,5.252,0,0,1-5.252-5.252V580.062a5.256,5.256,0,0,1,5.248-5.252Z" transform="translate(-295.164 -568.777)" fill="#fff" opacity="0.3" style="isolation: isolate"/>
      <rect id="Rectángulo_30766" data-name="Rectángulo 30766" width="31.494" height="8.377" transform="translate(84.838 14.41)" fill="#fff" opacity="0.7" style="isolation: isolate"/>
      <rect id="Rectángulo_30767" data-name="Rectángulo 30767" width="31.494" height="8.377" transform="translate(84.838 24.462)" fill="#fff" opacity="0.7" style="isolation: isolate"/>
      <circle id="Elipse_4334" data-name="Elipse 4334" cx="6.555" cy="6.555" r="6.555" transform="translate(94.03 57.7)" fill="#3f5165"/>
      <g id="Grupo_55835" data-name="Grupo 55835" transform="translate(96.977 59.789)" opacity="0.9">
        <path id="Trazado_129590" data-name="Trazado 129590" d="M420.2,711.449a2.159,2.159,0,1,1-3.052,0h0c.617-.67-.391-1.686-1.02-1a3.59,3.59,0,1,0,5.079,0h0C420.588,709.763,419.568,710.779,420.2,711.449Z" transform="translate(-415.075 -708.287)" fill="#fff"/>
        <path id="Trazado_129591" data-name="Trazado 129591" d="M422.25,706.166v3.253a.724.724,0,0,0,1.435,0V706.15a.724.724,0,0,0-.823-.621A.732.732,0,0,0,422.25,706.166Z" transform="translate(-419.299 -705.521)" fill="#fff"/>
      </g>
      <circle id="Elipse_4335" data-name="Elipse 4335" cx="2.011" cy="2.011" r="2.011" transform="translate(86.15 81.647)" fill="#3f5165"/>
      <circle id="Elipse_4336" data-name="Elipse 4336" cx="2.011" cy="2.011" r="2.011" transform="translate(94.433 81.647)" fill="#3f5165"/>
      <circle id="Elipse_4337" data-name="Elipse 4337" cx="2.011" cy="2.011" r="2.011" transform="translate(102.716 81.647)" fill="#3f5165"/>
      <circle id="Elipse_4338" data-name="Elipse 4338" cx="2.011" cy="2.011" r="2.011" transform="translate(110.999 81.647)" fill="#3f5165"/>
      <circle id="Elipse_4339" data-name="Elipse 4339" cx="2.011" cy="2.011" r="2.011" transform="translate(90.292 88.791)" fill="#3f5165"/>
      <circle id="Elipse_4340" data-name="Elipse 4340" cx="2.011" cy="2.011" r="2.011" transform="translate(98.574 88.791)" fill="#3f5165"/>
      <circle id="Elipse_4341" data-name="Elipse 4341" cx="2.011" cy="2.011" r="2.011" transform="translate(106.857 88.791)" fill="#3f5165"/>
      <circle id="Elipse_4342" data-name="Elipse 4342" cx="2.011" cy="2.011" r="2.011" transform="translate(86.15 96.711)" fill="#3f5165"/>
      <circle id="Elipse_4343" data-name="Elipse 4343" cx="2.011" cy="2.011" r="2.011" transform="translate(94.433 96.711)" fill="#3f5165"/>
      <circle id="Elipse_4344" data-name="Elipse 4344" cx="2.011" cy="2.011" r="2.011" transform="translate(102.716 96.711)" fill="#3f5165"/>
      <circle id="Elipse_4345" data-name="Elipse 4345" cx="2.011" cy="2.011" r="2.011" transform="translate(110.999 96.711)" fill="#3f5165"/>
      <circle id="Elipse_4346" data-name="Elipse 4346" cx="2.011" cy="2.011" r="2.011" transform="translate(90.292 103.855)" fill="#3f5165"/>
      <circle id="Elipse_4347" data-name="Elipse 4347" cx="2.011" cy="2.011" r="2.011" transform="translate(98.574 103.855)" fill="#3f5165"/>
      <circle id="Elipse_4348" data-name="Elipse 4348" cx="2.011" cy="2.011" r="2.011" transform="translate(106.857 103.855)" fill="#3f5165"/>
      <circle id="Elipse_4349" data-name="Elipse 4349" cx="2.011" cy="2.011" r="2.011" transform="translate(86.15 111.78)" fill="#3f5165"/>
      <circle id="Elipse_4350" data-name="Elipse 4350" cx="2.011" cy="2.011" r="2.011" transform="translate(94.433 111.78)" fill="#3f5165"/>
      <circle id="Elipse_4351" data-name="Elipse 4351" cx="2.011" cy="2.011" r="2.011" transform="translate(102.716 111.78)" fill="#3f5165"/>
      <circle id="Elipse_4352" data-name="Elipse 4352" cx="2.011" cy="2.011" r="2.011" transform="translate(110.999 111.78)" fill="#3f5165"/>
    </g>
    <g id="freepik--Character--inject-15" transform="translate(313.924 109.195)">
      <path id="Trazado_129592" data-name="Trazado 129592" d="M812.055,369.9l-8.04-3.636L792.66,371v5.655s17.626-.588,17.614-.563,19.876,6.621,27.221,5.6,30.676-33.6,30.676-33.6L856.417,337.81l-22.356,31.856Z" transform="translate(-755.174 -259.247)" fill="#fcc1bb"/>
      <path id="Trazado_129593" data-name="Trazado 129593" d="M812.055,410.635,804.015,407l-11.355,4.734v5.655s17.626-.588,17.614-.563l1.341.444,5.68-6.7Z" transform="translate(-755.174 -299.982)" opacity="0.1" style="isolation: isolate"/>
      <path id="Trazado_129594" data-name="Trazado 129594" d="M928.46,327.465s8.122-14.452,13.325-19.033c3.15-2.788,7.543-3.648,10.508-3.9a3.212,3.212,0,0,1,3.471,2.936v.251c0,5.725-1.448,18.149-13.2,30.947Z" transform="translate(-835.125 -239.65)" fill="#263238"/>
      <path id="Trazado_129595" data-name="Trazado 129595" d="M925.528,353.69a41.911,41.911,0,0,1,15.628,13.818l-3.163,2.439a60.044,60.044,0,0,0-14.513-12.8Z" transform="translate(-832.193 -268.597)" fill="#ccf"/>
      <path id="Trazado_129596" data-name="Trazado 129596" d="M874.378,226.79l-4.018,6.3a5.548,5.548,0,0,0,5.013.5Z" transform="translate(-800.919 -193.885)" fill="#eb827e"/>
      <path id="Trazado_129597" data-name="Trazado 129597" d="M871.185,222.809a4.787,4.787,0,1,1,4.454-5.1v.308a4.639,4.639,0,0,1-4.454,4.787Zm0-8.55a3.792,3.792,0,1,0,3.446,4.113v-.35A3.627,3.627,0,0,0,871.185,214.259Z" transform="translate(-798.396 -185.911)" fill="#ccf"/>
      <path id="Trazado_129598" data-name="Trazado 129598" d="M874.27,222.674c0,.823.411,1.485.938,1.485s1-.67.991-1.46-.411-1.489-.938-1.489S874.282,221.815,874.27,222.674Z" transform="translate(-803.221 -190.6)" fill="#1a2e35"/>
      <path id="Trazado_129599" data-name="Trazado 129599" d="M907.035,191.623c.362,10.812.753,15.4-4.154,21.443-7.773,6.407-20.76,7.156-24.355-3.339-3.216-9.381-3.269-25.465,6.864-30.824a14.744,14.744,0,0,1,21.645,12.749Z" transform="translate(-804.599 -164.682)" fill="#fcc1bb"/>
      <path id="Trazado_129600" data-name="Trazado 129600" d="M903.732,272.455l-.082-.539a1.958,1.958,0,0,0-2.213-1.645,2.461,2.461,0,0,0-.251.053l-4.4,1.193a14.3,14.3,0,0,0,6.942.938Z" transform="translate(-816.479 -219.473)" fill="#1a2e35" opacity="0.2" style="isolation: isolate"/>
      <path id="Trazado_129601" data-name="Trazado 129601" d="M876.085,212.507a.383.383,0,0,1-.374-.144,3.348,3.348,0,0,0-2.788-1.234.424.424,0,0,1-.21-.823.548.548,0,0,1,.115,0,4.207,4.207,0,0,1,3.541,1.542.448.448,0,0,1,0,.6h0A.374.374,0,0,1,876.085,212.507Z" transform="translate(-802.116 -184.175)" fill="#1a2e35"/>
      <path id="Trazado_129602" data-name="Trazado 129602" d="M912.69,264.433l2.373,16.056,13.415-2.776-4.3-16.442Z" transform="translate(-825.84 -214.185)" fill="#fcc1bb"/>
      <path id="Trazado_129603" data-name="Trazado 129603" d="M878.056,164.966c4.573,8.686,7.736.736,6.889,7.748s1.678,9.274,1.678,9.274l9.192,13.711a1.8,1.8,0,0,0,2.225.6,6.053,6.053,0,0,1,4.775-.494,1.67,1.67,0,0,0,1.752-.251,27.916,27.916,0,0,0,8.513-16.755c2.961-18.9-11.569-21.8-11.569-21.8-8.04-1.674-6-10.228-10.8-10.228-3.66,0-2.587,6.021-2.587,6.021s-3.915-2.936-6.194-1.933c-2.936,1.341-.333,7.3-.333,7.3S873.581,156.432,878.056,164.966Z" transform="translate(-804.65 -146.78)" fill="#1a2e35"/>
      <path id="Trazado_129604" data-name="Trazado 129604" d="M883.793,218.061h-13.4l.642-1.341h12.761Z" transform="translate(-800.937 -187.957)" fill="#ccf"/>
      <path id="Trazado_129605" data-name="Trazado 129605" d="M896.107,219.223a8.312,8.312,0,0,0,1.341,6.218c1.7,2.4,4.409,1.341,5.494-1.234.979-2.315,1.258-6.325-1.205-7.814a3.771,3.771,0,0,0-5.149,1.369A3.7,3.7,0,0,0,896.107,219.223Z" transform="translate(-815.998 -187.466)" fill="#ffc3bd"/>
      <path id="Trazado_129606" data-name="Trazado 129606" d="M903.89,282.965s8.636-8.151,17.651-7.481c6.14.444,8.04,8.151,8.04,8.151Z" transform="translate(-820.659 -222.53)" fill="#263238"/>
      <path id="Trazado_129607" data-name="Trazado 129607" d="M903.89,282.965s8.636-8.151,17.651-7.481c6.14.444,8.04,8.151,8.04,8.151Z" transform="translate(-820.659 -222.53)" fill="#7d6eb2" opacity="0.2" style="isolation: isolate"/>
      <path id="Trazado_129608" data-name="Trazado 129608" d="M890.788,389.791l-18.856-92.159a6.058,6.058,0,0,1,4.561-7.251,5.829,5.829,0,0,1,.88-.132c11.836-1,35.705-1.945,43.692,5.346,18.605,17.075,20.106,95.494,20.106,95.494Z" transform="translate(-801.755 -230.848)" fill="#7d6eb2"/>
      <path id="Trazado_129609" data-name="Trazado 129609" d="M877.847,305.6a16.266,16.266,0,0,0-5,3.134l6.231,30.306c5.552-12.424,5.161-33.505,5.161-33.505Z" transform="translate(-802.385 -240.243)" opacity="0.5" style="isolation: isolate"/>
      <path id="Trazado_129610" data-name="Trazado 129610" d="M720.769,362.58l-8.04-4.018-11.219,5.211v6.21s17.425-.646,17.425-.6,19.646,7.25,26.913,6.14,30.384-36.873,30.384-36.873L764.609,327.36,742.5,362.317Z" transform="translate(-701.51 -253.095)" fill="#fcc1bb"/>
      <path id="Trazado_129611" data-name="Trazado 129611" d="M836.14,315.954s8.04-15.87,13.16-20.9,13.633-4.343,13.633-4.343,3.015,18.387-12.839,37.527Z" transform="translate(-780.772 -231.502)" fill="#7d6eb2"/>
      <path id="Trazado_129612" data-name="Trazado 129612" d="M833.338,344.86a42.811,42.811,0,0,1,15.521,15.159l-3.125,2.677s-6.379-8.924-14.353-14.044Z" transform="translate(-777.97 -263.398)" fill="#263238"/>
      <path id="Trazado_129613" data-name="Trazado 129613" d="M833.338,344.86a42.811,42.811,0,0,1,15.521,15.159l-3.125,2.677s-6.379-8.924-14.353-14.044Z" transform="translate(-777.97 -263.398)" fill="#7d6eb2" opacity="0.2" style="isolation: isolate"/>
      <path id="Trazado_129614" data-name="Trazado 129614" d="M904.84,776.8l4.594,22.249,9.06-1.341L916.31,776.05Z" transform="translate(-821.219 -517.258)" fill="#fcc1bb"/>
      <path id="Trazado_129615" data-name="Trazado 129615" d="M917.745,790.321,916.31,776.05l-11.47.748,2.866,13.913Z" transform="translate(-821.219 -517.258)" opacity="0.2" style="isolation: isolate"/>
      <path id="Trazado_129616" data-name="Trazado 129616" d="M933.164,531.63s4.61,24.124-11.137,24.124-36.7,5.145-36.7,5.145,6.033,5.725,7.37,78.727l-13.066.563s-21.71-82.4-17.433-91.46c6.033-12.749,37.26-17.1,37.26-17.1Z" transform="translate(-795.787 -373.357)" fill="#12263f"/>
      <path id="Trazado_129617" data-name="Trazado 129617" d="M898.64,785.45l17.775-.44-.576,7.37-14.9.629Z" transform="translate(-817.569 -522.533)" fill="#ccf"/>
      <path id="Trazado_129618" data-name="Trazado 129618" d="M898.64,785.45l17.775-.44-.576,7.37-14.9.629Z" transform="translate(-817.569 -522.533)" fill="#fff" opacity="0.5" style="isolation: isolate"/>
      <path id="Trazado_129619" data-name="Trazado 129619" d="M901.7,832.355a4.113,4.113,0,0,1-2.879-.387.872.872,0,0,1-.095-.979,1.151,1.151,0,0,1,.646-.6c1.513-.617,5.038.859,5.186.925a.226.226,0,0,1,0,.411A16.261,16.261,0,0,1,901.7,832.355Zm-1.731-1.645a1.471,1.471,0,0,0-.411.107.6.6,0,0,0-.411.374.539.539,0,0,0,0,.485c.506.563,2.879.292,4.622-.136a10.726,10.726,0,0,0-3.8-.847Z" transform="translate(-817.555 -549.158)" fill="#ccf"/>
      <path id="Trazado_129620" data-name="Trazado 129620" d="M907.664,828.164h-.095c-1.193-.362-3.7-2.13-3.631-3.216,0-.267.148-.588.765-.736a1.682,1.682,0,0,1,1.341.243,6.5,6.5,0,0,1,1.9,3.471.238.238,0,0,1-.082.214.189.189,0,0,1-.2.025Zm-2.76-3.537h-.136c-.411.078-.411.243-.411.308,0,.642,1.7,2.056,2.949,2.612a5.251,5.251,0,0,0-1.6-2.677,1.135,1.135,0,0,0-.823-.189Z" transform="translate(-820.687 -545.585)" fill="#ccf"/>
      <path id="Trazado_129621" data-name="Trazado 129621" d="M895.944,828.634l10.281-1.234a.822.822,0,0,1,.884.547l2.879,8.151a1.341,1.341,0,0,1-.736,1.748l-.095.033-.284.066c-3.726.411-7.049.58-11.672,1.139-5.457.658-4.022,1.139-10.4,2-3.862.522-5.1-3.792-3.471-4.195,7.382-1.851,7.892-4.207,10.454-7.238a3.384,3.384,0,0,1,2.159-1.016Z" transform="translate(-808.145 -547.485)" fill="#ccf"/>
      <path id="Trazado_129622" data-name="Trazado 129622" d="M840.38,787.919l8.55,20.748,8.32-1.661-5.721-22.2Z" transform="translate(-783.269 -522.415)" fill="#fcc1bb"/>
      <path id="Trazado_129623" data-name="Trazado 129623" d="M855.333,799.607l-3.8-14.8-11.149,3.109,5.56,13.485Z" transform="translate(-783.269 -522.415)" opacity="0.2" style="isolation: isolate"/>
      <path id="Trazado_129624" data-name="Trazado 129624" d="M871.167,531.612s9.73,25.157-22.422,24.124c-12.317-.411-65.674,12.062-65.674,12.062s9.611,5.026,21.673,72.381l-13.646,3.1s-38.7-76.494-34.43-85.542c6.033-12.749,69.5-26.135,69.5-26.135Z" transform="translate(-733.79 -373.34)" fill="#12263f"/>
      <path id="Trazado_129625" data-name="Trazado 129625" d="M836.82,796.059l16.191-3.459,1.674,6.7-15.521,3.578Z" transform="translate(-781.173 -527.001)" fill="#ccf"/>
      <path id="Trazado_129626" data-name="Trazado 129626" d="M836.82,796.059l16.191-3.459,1.674,6.7-15.521,3.578Z" transform="translate(-781.173 -527.001)" fill="#fff" opacity="0.5" style="isolation: isolate"/>
      <path id="Trazado_129627" data-name="Trazado 129627" d="M844.26,842.092a4.03,4.03,0,0,1-2.854-.391.86.86,0,0,1-.107-.979,1.184,1.184,0,0,1,.642-.6c1.53-.629,5.042.859,5.2.925a.239.239,0,0,1,.132.214.263.263,0,0,1-.16.218A17.732,17.732,0,0,1,844.26,842.092Zm-1.715-1.645a1.527,1.527,0,0,0-.411.111.667.667,0,0,0-.411.358.568.568,0,0,0,0,.5c.522.564,2.879.3,4.622-.136a10.368,10.368,0,0,0-3.8-.851Z" transform="translate(-783.747 -554.886)" fill="#ccf"/>
      <path id="Trazado_129628" data-name="Trazado 129628" d="M850.181,837.907a.123.123,0,0,1-.095,0c-1.18-.362-3.7-2.147-3.619-3.232,0-.255.148-.588.748-.724a1.711,1.711,0,0,1,1.341.23,6.415,6.415,0,0,1,1.9,3.483.209.209,0,0,1-.066.214A.234.234,0,0,1,850.181,837.907Zm-2.764-3.553h-.132c-.411.082-.411.243-.411.308,0,.642,1.7,2.056,2.961,2.612a5.372,5.372,0,0,0-1.608-2.747,1.345,1.345,0,0,0-.823-.185Z" transform="translate(-786.851 -551.317)" fill="#ccf"/>
      <path id="Trazado_129629" data-name="Trazado 129629" d="M838.52,838.376l10.306-1.234a.843.843,0,0,1,.884.547l2.879,8.164a1.341,1.341,0,0,1-.74,1.744l-.107.041h-.288c-3.726.374-7.049.576-11.676,1.123-5.453.658-4.018,1.156-10.384,2.011-3.849.5-5.083-3.821-3.487-4.232,7.4-1.838,7.9-4.195,10.467-7.238A3.289,3.289,0,0,1,838.52,838.376Z" transform="translate(-774.347 -553.222)" fill="#ccf"/>
      <path id="Trazado_129630" data-name="Trazado 129630" d="M994.612,742.872c-8.188-1.341-20.345-3.245-25.761-3.648-1.176-.09-2.677-.16-4.314-.2V697H954.255v42.022c-1.645,0-3.134.111-4.326.2-5.346.411-17.557,2.307-25.749,3.648A9.771,9.771,0,0,0,916,752.52v2.13h10.039l1.341-2.99s18.766-3.241,25.087-3.7a127.823,127.823,0,0,1,13.983,0c6.325.469,25.087,3.7,25.087,3.7l1.341,2.99h9.985v-2.13a9.767,9.767,0,0,0-8.249-9.648Z" transform="translate(-827.789 -470.718)" fill="#263238"/>
      <path id="Trazado_129631" data-name="Trazado 129631" d="M994.612,742.872c-8.188-1.341-20.345-3.245-25.761-3.648-1.176-.09-2.677-.16-4.314-.2V697H954.255v42.022c-1.645,0-3.134.111-4.326.2-5.346.411-17.557,2.307-25.749,3.648A9.771,9.771,0,0,0,916,752.52v2.13h10.039l1.341-2.99s18.766-3.241,25.087-3.7a127.823,127.823,0,0,1,13.983,0c6.325.469,25.087,3.7,25.087,3.7l1.341,2.99h9.985v-2.13a9.767,9.767,0,0,0-8.249-9.648Z" transform="translate(-827.789 -470.718)" fill="#fff" opacity="0.1" style="isolation: isolate"/>
      <path id="Trazado_129632" data-name="Trazado 129632" d="M1001.336,613.69h16.45v35.516a4.783,4.783,0,0,1-4.783,4.783h-6.95a4.783,4.783,0,0,1-4.783-4.783h0V613.69Z" transform="translate(-877.991 -421.669)" fill="#263238"/>
      <rect id="Rectángulo_30768" data-name="Rectángulo 30768" width="16.524" height="9.813" transform="translate(123.345 192.021)" opacity="0.2" style="isolation: isolate"/>
      <circle id="Elipse_4353" data-name="Elipse 4353" cx="7.037" cy="7.037" r="7.037" transform="translate(163.779 283.92)" fill="#263238"/>
      <circle id="Elipse_4354" data-name="Elipse 4354" cx="7.037" cy="7.037" r="7.037" transform="translate(85.361 283.92)" fill="#263238"/>
      <path id="Trazado_129633" data-name="Trazado 129633" d="M975.531,587.241a136.336,136.336,0,0,0-30.145-4.154c-10.466-.255-49.59,0-58.97,0a136.32,136.32,0,0,0-33.6,4.154c-6.9,1.756-4.771,11.729,1.46,11.848H973.693C980.207,599.369,982.58,589.039,975.531,587.241Z" transform="translate(-788.067 -403.586)" fill="#ccf"/>
      <path id="Trazado_129634" data-name="Trazado 129634" d="M975.531,587.241a136.336,136.336,0,0,0-30.145-4.154c-10.466-.255-49.59,0-58.97,0a136.32,136.32,0,0,0-33.6,4.154c-6.9,1.756-4.771,11.729,1.46,11.848H973.693C980.207,599.369,982.58,589.039,975.531,587.241Z" transform="translate(-788.067 -403.586)" opacity="0.3" style="isolation: isolate"/>
      <path id="Trazado_129635" data-name="Trazado 129635" d="M855.994,598.97a123.437,123.437,0,0,1,60.866,0c7.534,1.917,10.726-9.718,3.2-11.635a136.732,136.732,0,0,0-67.265,0c-7.518,1.917-4.331,13.551,3.2,11.635Z" transform="translate(-788.054 -403.68)" fill="#ccf"/>
      <g id="Grupo_55836" data-name="Grupo 55836" transform="translate(60.454 179.455)" opacity="0.4">
        <path id="Trazado_129636" data-name="Trazado 129636" d="M855.994,598.97a123.437,123.437,0,0,1,60.866,0c7.534,1.917,10.726-9.718,3.2-11.635a136.732,136.732,0,0,0-67.265,0c-7.518,1.917-4.331,13.551,3.2,11.635Z" transform="translate(-848.509 -583.135)" fill="#fff"/>
      </g>
      <path id="Trazado_129637" data-name="Trazado 129637" d="M1049.556,383.463a3.7,3.7,0,0,0-3.327,1.916,128.653,128.653,0,0,0-16.08,88.856,3.257,3.257,0,0,0,3.1,2.879c2.422.177,45.419,0,46.908,0a4.326,4.326,0,0,0,4.425-4.195,4.108,4.108,0,0,0-.058-.823,120.207,120.207,0,0,1,15.307-82.663c1.834-3.056-.872-5.926-3.607-5.98C1095,383.435,1052.344,383.517,1049.556,383.463Z" transform="translate(-893.776 -286.119)" fill="#ccf"/>
      <path id="Trazado_129638" data-name="Trazado 129638" d="M1049.556,383.463a3.7,3.7,0,0,0-3.327,1.916,128.653,128.653,0,0,0-16.08,88.856,3.257,3.257,0,0,0,3.1,2.879c2.422.177,45.419,0,46.908,0a4.326,4.326,0,0,0,4.425-4.195,4.108,4.108,0,0,0-.058-.823,120.207,120.207,0,0,1,15.307-82.663c1.834-3.056-.872-5.926-3.607-5.98C1095,383.435,1052.344,383.517,1049.556,383.463Z" transform="translate(-893.776 -286.119)" opacity="0.2" style="isolation: isolate"/>
      <path id="Trazado_129639" data-name="Trazado 129639" d="M1037.868,472.118a120.088,120.088,0,0,1,15.307-82.663c2.677-4.45-4.277-8.5-6.946-4.022a128.666,128.666,0,0,0-16.08,88.861c.925,5.1,8.669,2.936,7.76-2.13Z" transform="translate(-893.776 -286.139)" fill="#ccf"/>
      <g id="Grupo_55837" data-name="Grupo 55837" transform="translate(134.305 97.348)" opacity="0.4">
        <path id="Trazado_129640" data-name="Trazado 129640" d="M1037.868,472.118a120.088,120.088,0,0,1,15.307-82.663c2.677-4.45-4.277-8.5-6.946-4.022a128.666,128.666,0,0,0-16.08,88.861c.925,5.1,8.669,2.936,7.76-2.13Z" transform="translate(-1028.081 -383.487)" fill="#fff"/>
      </g>
      <path id="Trazado_129641" data-name="Trazado 129641" d="M922.479,506.688l41.426,37.86c2.854,2.681,7.144-1.645,4.261-4.261L926.739,502.4c-2.854-2.616-7.131,1.645-4.261,4.261Z" transform="translate(-831.044 -355.665)" fill="#263238"/>
      <g id="Grupo_55838" data-name="Grupo 55838" transform="translate(90.484 145.914)" opacity="0.5">
        <path id="Trazado_129642" data-name="Trazado 129642" d="M922.479,506.688l41.426,37.86c2.854,2.681,7.144-1.645,4.261-4.261L926.739,502.4c-2.854-2.616-7.131,1.645-4.261,4.261Z" transform="translate(-921.528 -501.579)" fill="#fff"/>
      </g>
      <path id="Trazado_129643" data-name="Trazado 129643" d="M926.739,502.461c-2.854-2.611-7.131,1.645-4.261,4.265l7.921,7.25h8.924Z" transform="translate(-831.044 -355.703)" opacity="0.2" style="isolation: isolate"/>
      <path id="Trazado_129644" data-name="Trazado 129644" d="M865.739,507.08h56.856c5.17,0,5.17-8.04,0-8.04H865.739C860.565,499.024,860.553,507.08,865.739,507.08Z" transform="translate(-795.911 -354.17)" fill="#ccf"/>
      <g id="Grupo_55839" data-name="Grupo 55839" transform="translate(65.943 144.87)" opacity="0.3">
        <path id="Trazado_129645" data-name="Trazado 129645" d="M865.739,507.08h56.856c5.17,0,5.17-8.04,0-8.04H865.739C860.565,499.024,860.553,507.08,865.739,507.08Z" transform="translate(-861.854 -499.04)" fill="#fff"/>
      </g>
    </g>
  </g>
</svg>
