<svg xmlns="http://www.w3.org/2000/svg" xmlns:xlink="http://www.w3.org/1999/xlink" width="91.927" height="91.927" viewBox="0 0 91.927 91.927">
  <defs>
    <radialGradient id="radial-gradient" cx="0.076" cy="0.019" r="1.465" gradientTransform="translate(0.001)" gradientUnits="objectBoundingBox">
      <stop offset="0" stop-color="#f6f6f7"/>
      <stop offset="0.477" stop-color="#f9f9fa"/>
      <stop offset="0.715" stop-color="#fff"/>
    </radialGradient>
  </defs>
  <g id="Grupo_56525" data-name="Grupo 56525" transform="translate(-217.25 -6756.182)">
    <g id="Grupo_55844" data-name="Grupo 55844" transform="translate(0.25 6014.849)">
      <g id="Grupo_42274" data-name="Grupo 42274" transform="translate(142 768.333)">
        <g id="Grupo_18423" data-name="Grupo 18423" transform="translate(75 -27)">
          <g id="Grupo_18421" data-name="Grupo 18421">
            <g id="Grupo_18420" data-name="Grupo 18420">
              <g id="Grupo_18419" data-name="Grupo 18419">
                <path id="Trazado_40936" data-name="Trazado 40936" d="M286.55,2191.684a45.964,45.964,0,1,1-45.963-45.962A45.963,45.963,0,0,1,286.55,2191.684Z" transform="translate(-194.623 -2145.721)" fill="#fff"/>
              </g>
            </g>
          </g>
          <path id="Trazado_40937" data-name="Trazado 40937" d="M286.23,2191.334a45.963,45.963,0,1,0-45.963,45.965A45.782,45.782,0,0,0,286.23,2191.334Z" transform="translate(-194.303 -2145.372)" fill="url(#radial-gradient)"/>
          <path id="Trazado_40938" data-name="Trazado 40938" d="M272.56,2188.562a35.084,35.084,0,1,0-35.084,35.084A34.953,34.953,0,0,0,272.56,2188.562Z" transform="translate(-191.373 -2142.446)" fill="none" stroke="#7d6eb2" stroke-miterlimit="10" stroke-width="4"/>
          <g id="Grupo_18422" data-name="Grupo 18422" transform="translate(8.143 25.805)">
            <path id="Trazado_40939" data-name="Trazado 40939" d="M279.682,2164.488a45.969,45.969,0,0,1-79.137,45.773,45.823,45.823,0,0,0,79.137-45.773Z" transform="translate(-200.545 -2164.488)" fill="#eceef0"/>
          </g>
        </g>
      </g>
    </g>
    <g id="_006-trophy" data-name="006-trophy" transform="translate(205.656 6777.888)">
      <g id="Grupo_55856" data-name="Grupo 55856" transform="translate(36.785)">
        <g id="Grupo_55855" data-name="Grupo 55855">
          <path id="Trazado_129657" data-name="Trazado 129657" d="M77.5,4.679A3.511,3.511,0,0,0,74.821,3.44h-3.39V2.38A2.382,2.382,0,0,0,69.051,0H46.064a2.382,2.382,0,0,0-2.38,2.38V3.44h-3.39a3.511,3.511,0,0,0-2.679,1.239,3.468,3.468,0,0,0-.785,2.807,18.167,18.167,0,0,0,9.229,12.97A23.957,23.957,0,0,0,47.576,23.5a14.147,14.147,0,0,0,6.5,6.137,5.128,5.128,0,0,1-3.96,5.486l-.014,0a1.122,1.122,0,0,0-.861,1.091v5.151H47.16a3.372,3.372,0,0,0-3.369,3.369v2.659a1.123,1.123,0,0,0,1.123,1.123H70.308a1.123,1.123,0,0,0,1.123-1.123V44.734a3.372,3.372,0,0,0-3.369-3.369H65.979V36.214a1.122,1.122,0,0,0-.864-1.092l-.014,0a5.124,5.124,0,0,1-3.956-5.533,14.228,14.228,0,0,0,6.394-6.09,23.97,23.97,0,0,0,1.517-3.041A18.168,18.168,0,0,0,78.285,7.486,3.467,3.467,0,0,0,77.5,4.679ZM39.047,7.125a1.21,1.21,0,0,1,.279-.992,1.269,1.269,0,0,1,.968-.448h3.39V7.751A35.283,35.283,0,0,0,44.881,17,15.9,15.9,0,0,1,39.047,7.125ZM68.062,43.612a1.124,1.124,0,0,1,1.123,1.123V46.27H46.037V44.734a1.124,1.124,0,0,1,1.123-1.123Zm-4.329-6.274v4.028H51.489V37.337Zm-9.3-2.246a7.433,7.433,0,0,0,.758-.991,7.3,7.3,0,0,0,1.159-3.854,8.8,8.8,0,0,0,2.52-.015,7.392,7.392,0,0,0,1.928,4.86H54.434ZM69.185,7.751a29.012,29.012,0,0,1-3.577,14.6c-2.2,3.7-5.057,5.735-8.05,5.735s-5.853-2.037-8.051-5.735a29.012,29.012,0,0,1-3.577-14.6V2.38a.134.134,0,0,1,.134-.134H69.051a.134.134,0,0,1,.134.134Zm6.883-.626A15.9,15.9,0,0,1,70.234,17a35.286,35.286,0,0,0,1.2-9.246V5.686h3.39a1.269,1.269,0,0,1,.968.448A1.21,1.21,0,0,1,76.068,7.125Z" transform="translate(-36.785)" fill="#12263f"/>
        </g>
      </g>
      <g id="Grupo_55858" data-name="Grupo 55858" transform="translate(50.685 6.575)">
        <g id="Grupo_55857" data-name="Grupo 55857">
          <path id="Trazado_129658" data-name="Trazado 129658" d="M197.168,74.344a1.124,1.124,0,0,0-.906-.764l-3.388-.492-1.515-3.07a1.123,1.123,0,0,0-2.014,0l-1.515,3.07-3.388.492a1.123,1.123,0,0,0-.622,1.915l2.452,2.39-.579,3.375a1.123,1.123,0,0,0,1.629,1.184l3.031-1.593,3.031,1.593a1.123,1.123,0,0,0,1.629-1.184l-.579-3.375,2.452-2.39A1.123,1.123,0,0,0,197.168,74.344Zm-4.726,2.345a1.123,1.123,0,0,0-.323.994l.294,1.714-1.539-.809a1.124,1.124,0,0,0-1.045,0l-1.539.809.294-1.714a1.123,1.123,0,0,0-.323-.994l-1.245-1.214,1.721-.25a1.123,1.123,0,0,0,.845-.614l.77-1.56.77,1.56a1.123,1.123,0,0,0,.845.614l1.721.25Z" transform="translate(-183.479 -69.391)" fill="#12263f"/>
        </g>
      </g>
    </g>
  </g>
</svg>
