<svg xmlns="http://www.w3.org/2000/svg" width="96" height="96" viewBox="0 0 96 96">
  <g id="Grupo_55854" data-name="Grupo 55854" transform="translate(3.758 -1157.242)">
    <circle id="Elipse_4356" data-name="Elipse 4356" cx="48" cy="48" r="48" transform="translate(-3.758 1157.242)" fill="#7d6eb2"/>
    <g id="Grupo_55853" data-name="Grupo 55853" transform="translate(10.975 1182.819)">
      <g id="Grupo_55850" data-name="Grupo 55850" transform="translate(1.353 1.353)">
        <path id="Trazado_129654" data-name="Trazado 129654" d="M159.387,1326.135h-8.121v-5.414H135.025v5.414H116.413a12.181,12.181,0,1,0,0,8.121h42.973Z" transform="translate(-92.797 -1318.014)" fill="#ccf"/>
        <path id="Trazado_129655" data-name="Trazado 129655" d="M149,1526.6h-8.121v-13.535l4.06-2.707,4.06,2.707Z" transform="translate(-132.762 -1477.875)" fill="#ccf"/>
        <circle id="Elipse_4357" data-name="Elipse 4357" cx="4.06" cy="4.06" r="4.06" transform="translate(8.121 8.121)" fill="#ccf"/>
      </g>
      <g id="Grupo_55852" data-name="Grupo 55852" transform="translate(0 0)">
        <g id="Grupo_55851" data-name="Grupo 55851">
          <path id="Trazado_129656" data-name="Trazado 129656" d="M96.964,1337v6.11l-3.458,2.305a1.353,1.353,0,0,0-.6,1.126v13.535a1.353,1.353,0,0,0,1.353,1.353h8.121a1.353,1.353,0,0,0,1.353-1.353v-13.535a1.353,1.353,0,0,0-.6-1.126l-3.458-2.305V1337a13.553,13.553,0,0,0,11-8.05h42.054a1.354,1.354,0,0,0,1.353-1.354v-8.121a1.353,1.353,0,0,0-1.353-1.353h-6.767v-4.06a1.353,1.353,0,0,0-1.353-1.353H128.364a1.354,1.354,0,0,0-1.353,1.353v4.06H110.672A13.514,13.514,0,1,0,96.964,1337Zm4.06,21.723H95.61v-11.457l2.707-1.8,2.707,1.8Zm-2.707-32.483a2.707,2.707,0,1,1,2.707-2.707A2.71,2.71,0,0,1,98.317,1326.241Zm0-13.534a10.828,10.828,0,0,1,10.16,7.221,1.354,1.354,0,0,0,1.275.9h18.611a1.353,1.353,0,0,0,1.353-1.354v-4.06h5.414v4.06a1.353,1.353,0,1,0,2.707,0v-4.06h5.414v4.06a1.353,1.353,0,0,0,1.353,1.354h6.767v5.414h-41.62a1.354,1.354,0,0,0-1.275.9,10.849,10.849,0,0,1-8.807,7.133v-5.5a5.414,5.414,0,1,0-2.707,0v5.5a10.826,10.826,0,0,1,1.353-21.568Z" transform="translate(-84.783 -1310)" fill="#fff"/>
        </g>
      </g>
    </g>
  </g>
</svg>
