<svg xmlns="http://www.w3.org/2000/svg" xmlns:xlink="http://www.w3.org/1999/xlink" width="91.927" height="91.927" viewBox="0 0 91.927 91.927">
  <defs>
    <radialGradient id="radial-gradient" cx="0.076" cy="0.019" r="1.465" gradientTransform="translate(0.001)" gradientUnits="objectBoundingBox">
      <stop offset="0" stop-color="#f6f6f7"/>
      <stop offset="0.477" stop-color="#f9f9fa"/>
      <stop offset="0.715" stop-color="#fff"/>
    </radialGradient>
  </defs>
  <g id="Grupo_56524" data-name="Grupo 56524" transform="translate(-217.25 -6610.182)">
    <g id="Grupo_55843" data-name="Grupo 55843" transform="translate(0.25 5868.849)">
      <g id="Grupo_42274" data-name="Grupo 42274" transform="translate(142 768.333)">
        <g id="Grupo_18423" data-name="Grupo 18423" transform="translate(75 -27)">
          <g id="Grupo_18421" data-name="Grupo 18421">
            <g id="Grupo_18420" data-name="Grupo 18420">
              <g id="Grupo_18419" data-name="Grupo 18419">
                <path id="Trazado_40936" data-name="Trazado 40936" d="M286.55,2191.684a45.964,45.964,0,1,1-45.963-45.962A45.963,45.963,0,0,1,286.55,2191.684Z" transform="translate(-194.623 -2145.721)" fill="#fff"/>
              </g>
            </g>
          </g>
          <path id="Trazado_40937" data-name="Trazado 40937" d="M286.23,2191.334a45.963,45.963,0,1,0-45.963,45.965A45.782,45.782,0,0,0,286.23,2191.334Z" transform="translate(-194.303 -2145.372)" fill="url(#radial-gradient)"/>
          <path id="Trazado_40938" data-name="Trazado 40938" d="M272.56,2188.562a35.084,35.084,0,1,0-35.084,35.084A34.953,34.953,0,0,0,272.56,2188.562Z" transform="translate(-191.373 -2142.446)" fill="none" stroke="#7d6eb2" stroke-miterlimit="10" stroke-width="4"/>
          <g id="Grupo_18422" data-name="Grupo 18422" transform="translate(8.143 25.805)">
            <path id="Trazado_40939" data-name="Trazado 40939" d="M279.682,2164.488a45.969,45.969,0,0,1-79.137,45.773,45.823,45.823,0,0,0,79.137-45.773Z" transform="translate(-200.545 -2164.488)" fill="#eceef0"/>
          </g>
        </g>
      </g>
    </g>
    <g id="_010-information" data-name="010-information" transform="translate(237.497 6613.516)">
      <g id="Grupo_55878" data-name="Grupo 55878" transform="translate(21.096 25.939)">
        <g id="Grupo_55877" data-name="Grupo 55877">
          <path id="Trazado_129668" data-name="Trazado 129668" d="M220.391,91.61a5.655,5.655,0,0,0-4.262-1.762c-3.058,0-5.791,2.088-6.094,4.657a4.069,4.069,0,0,0,1.027,3.21,5.609,5.609,0,0,0,4.224,1.73c3.137,0,5.83-2.046,6.131-4.654A4.031,4.031,0,0,0,220.391,91.61Zm-1.425,2.895c-.154,1.34-1.839,2.471-3.679,2.471a3.2,3.2,0,0,1-2.381-.9,1.588,1.588,0,0,1-.418-1.282c.155-1.318,1.856-2.474,3.641-2.474a3.247,3.247,0,0,1,2.417.934A1.585,1.585,0,0,1,218.966,94.505Z" transform="translate(-210.008 -89.848)" fill="#12263f"/>
        </g>
      </g>
      <g id="Grupo_55880" data-name="Grupo 55880" transform="translate(19.112 36.791)">
        <g id="Grupo_55879" data-name="Grupo 55879" transform="translate(0 0)">
          <path id="Trazado_129669" data-name="Trazado 129669" d="M201.458,215.115c-.309-.207-1.031-.691-.448-4.055.015-.073.074-.344.164-.766.207-.96.592-2.747,1.011-4.739l0-.013a6.65,6.65,0,0,0-.978-5.448,5.838,5.838,0,0,0-4.295-2.2c-2.671-.214-5.465,1.38-6.32,2.949a1.528,1.528,0,0,0-.057,1.536,1.965,1.965,0,0,0,.651.673c.3.215,1.014.72.339,4.076-.063.307-1,5.093-1.129,5.773l0,.014a6.562,6.562,0,0,0,1.12,5.42,6.125,6.125,0,0,0,4.674,2.093c2.569,0,5.136-1.6,5.918-3.122a1.527,1.527,0,0,0,.017-1.537A1.963,1.963,0,0,0,201.458,215.115Zm-1.69-10.06c-.417,1.983-.8,3.763-1.007,4.719-.14.65-.169.782-.179.837l0,.013c-.627,3.6.008,5.179.905,6.062a4.854,4.854,0,0,1-1,.67,5.07,5.07,0,0,1-2.487.6,3.37,3.37,0,0,1-2.553-1.16,4.281,4.281,0,0,1-.617-3.456c.134-.731,1.077-5.519,1.116-5.709l0-.012c.721-3.585.128-5.178-.746-6.083a4.853,4.853,0,0,1,1.015-.643,5.071,5.071,0,0,1,2.5-.535,3.37,3.37,0,0,1,2.522,1.227A4.281,4.281,0,0,1,199.768,205.055Z" transform="translate(-190.258 -197.876)" fill="#12263f"/>
        </g>
      </g>
      <g id="Grupo_55882" data-name="Grupo 55882" transform="translate(0 18.802)">
        <g id="Grupo_55881" data-name="Grupo 55881">
          <path id="Trazado_129670" data-name="Trazado 129670" d="M46.171,56.589a22.059,22.059,0,0,0-2.311-30.936A26.816,26.816,0,0,0,25.717,18.8,26.816,26.816,0,0,0,7.574,25.653,22.144,22.144,0,0,0,7.574,59a26.816,26.816,0,0,0,18.143,6.851,27.653,27.653,0,0,0,12.242-2.832l8.963,3.356a1.235,1.235,0,0,0,1.62-1.5ZM38.316,60.52a1.235,1.235,0,0,0-1,.062,25.121,25.121,0,0,1-11.595,2.8c-12.819,0-23.248-9.446-23.248-21.057S12.9,21.271,25.716,21.271s23.248,9.446,23.248,21.057a19.635,19.635,0,0,1-5.088,13.144,1.234,1.234,0,0,0-.262,1.157l1.881,6.58Z" transform="translate(0 -18.802)" fill="#12263f"/>
        </g>
      </g>
    </g>
  </g>
</svg>
