<?xml version="1.0" encoding="utf-8"?>
<!-- Generator: Adobe Illustrator 25.2.3, SVG Export Plug-In . SVG Version: 6.00 Build 0)  -->
<svg version="1.1" id="Layer_1" xmlns="http://www.w3.org/2000/svg" xmlns:xlink="http://www.w3.org/1999/xlink" x="0px" y="0px"
	 viewBox="0 0 1009 666" style="enable-background:new 0 0 1009 666;" xml:space="preserve">
<style type="text/css">
	.st0{clip-path:url(#SVGID_2_);}
	.st1{fill:#FAFAFA;}
	.st2{fill:#E0E0E0;}
	.st3{fill:#26AAB7;}
	.st4{opacity:0.3;}
	.st5{fill:#F5F5F5;}
	.st6{fill:#EBEBEB;}
	.st7{fill:#FFFFFF;}
	.st8{fill:#263238;}
	.st9{fill:#455A64;}
	.st10{fill:#FFBE9D;}
	.st11{fill:#EB996E;}
	.st12{fill:#C1507F;}
	.st13{fill:#F5CA56;}
	.st14{fill:#12263F;}
	.st15{fill:#B78876;}
	.st16{fill:#AA6550;}
	.st17{fill:#B1A8D1;}
</style>
<g>
	<defs>
		<path id="SVGID_1_" d="M43.5,40.5C5.2,98.6-16.4,164.4-16.4,234.2c0,234.7,244.7,424.9,546.6,424.9s546.6-190.2,546.6-424.9
			c0-69.7-21.6-135.6-59.9-193.6H43.5z"/>
	</defs>
	<clipPath id="SVGID_2_">
		<use xlink:href="#SVGID_1_"  style="overflow:visible;"/>
	</clipPath>
	<g class="st0">
		<g id="freepik--background-complete--inject-8">
			<path class="st1" d="M596.6,628.9v37.7h6v4.1h-6V696H486.1v-23h8.2v-5.1h-8.2v-7.4h-3.6v-3.4h4.3v-28.2L596.6,628.9L596.6,628.9z
				"/>
			<polygon class="st2" points="515.4,629 515.4,695.5 486.1,695.5 486.1,672.5 494.3,672.5 494.3,667.9 486.1,668.1 486.1,660.6 
				482.4,660.6 482.4,656.7 486.8,656.6 486.8,628.9 			"/>
			<path class="st2" d="M513.3,670.1c0,0.2,20,0.4,44.6,0.4s44.6-0.2,44.6-0.4s-20-0.4-44.6-0.4
				C533.3,669.7,513.3,669.9,513.3,670.1z"/>
			<path class="st2" d="M513.3,666.3c0,0.2,20,0.4,44.6,0.4s44.6-0.2,44.6-0.4s-20-0.4-44.6-0.4
				C533.3,665.9,513.3,666.1,513.3,666.3z"/>
			<path class="st2" d="M507.6,656c0,0.2,20,0.4,44.6,0.4s44.6-0.2,44.6-0.4s-20-0.4-44.6-0.4S507.6,655.8,507.6,656z"/>
			<path class="st2" d="M507.1,684.1c0,0.2,20,0.4,44.6,0.4s44.6-0.2,44.6-0.4s-20-0.4-44.6-0.4
				C527.1,683.7,507.1,683.9,507.1,684.1z"/>
			<path class="st3" d="M455.4,604.3L453,649c-0.1,1.6-1.4,2.9-3,2.9l-80.5,0.6c-1.6,0-3-1.3-3-3l-0.2-34.8c0-1.6,1.3-3,2.9-3
				c0,0,0,0,0.1,0h49.5c0.8,0,1.6-0.3,2.1-0.9l8.5-8.5c0.6-0.6,1.3-0.9,2.1-0.9l20.8-0.2c1.6,0,3,1.2,3.1,2.9
				C455.4,604.1,455.4,604.2,455.4,604.3z"/>
			<g class="st4">
				<path d="M455.4,604.3L453,649c-0.1,1.6-1.4,2.9-3,2.9l-80.5,0.6c-1.6,0-3-1.3-3-3l-0.2-34.8c0-1.6,1.3-3,2.9-3c0,0,0,0,0.1,0
					h49.5c0.8,0,1.6-0.3,2.1-0.9l8.5-8.5c0.6-0.6,1.3-0.9,2.1-0.9l20.8-0.2c1.6,0,3,1.2,3.1,2.9
					C455.4,604.1,455.4,604.2,455.4,604.3z"/>
			</g>
			
				<rect x="366.3" y="606.1" transform="matrix(1 -7.330088e-03 7.330088e-03 1 -4.6241 3.0246)" class="st5" width="87.9" height="52.5"/>
			<path class="st6" d="M461.1,610.4l-6.3,54.8c-0.1,1-0.9,1.7-1.9,1.7l-85.7,0.6c-1,0-1.9-0.8-2-1.8l-4.7-54.7c0-1.1,0.8-2,1.9-2
				c0,0,0,0,0,0l96.7-0.7c1.1,0,2,0.8,2,1.9C461.1,610.3,461.1,610.4,461.1,610.4z"/>
			<path class="st2" d="M479,595.9l-2.4,44.7c-0.1,1.6-1.4,2.9-3,2.9l-80.5,0.6c-1.6,0-3-1.3-3-3l-0.2-34.8c0-1.6,1.3-3,2.9-3
				c0,0,0,0,0.1,0h49.5c0.8,0,1.6-0.3,2.1-0.9l8.5-8.5c0.6-0.6,1.3-0.9,2.1-0.9l20.8-0.2c1.6,0,3,1.3,3,2.9
				C479,595.8,479,595.8,479,595.9z"/>
			
				<rect x="390" y="597.6" transform="matrix(1 -7.330088e-03 7.330088e-03 1 -4.5617 3.1978)" class="st5" width="87.9" height="52.5"/>
			<path class="st2" d="M484.7,602l-6.3,54.8c-0.1,1-0.9,1.7-1.9,1.7l-85.7,0.6c-1,0-1.9-0.8-2-1.8l-4.7-54.8
				c-0.1-1.1,0.7-2,1.8-2.1c0,0,0.1,0,0.1,0l96.7-0.7c1.1,0,1.9,0.9,1.9,2C484.8,601.8,484.8,601.9,484.7,602z"/>
			<path class="st6" d="M505.7,606.4l-2.4,44.7c-0.1,1.6-1.4,2.8-3,2.8l-80.4,0.6c-1.6,0-3-1.3-3-3l-0.2-34.8c0-1.6,1.3-3,3-3h49.5
				c0.8,0,1.6-0.3,2.1-0.9l8.5-8.5c0.6-0.6,1.3-0.9,2.1-0.9l20.8-0.2c1.6,0,3,1.3,3,2.9C505.7,606.3,505.7,606.3,505.7,606.4z"/>
			
				<rect x="416.7" y="608.1" transform="matrix(1 -7.330088e-03 7.330088e-03 1 -4.6376 3.3936)" class="st1" width="87.9" height="52.5"/>
			<path class="st6" d="M511.4,612.4l-6.3,54.8c-0.1,1-0.9,1.7-1.9,1.7l-85.7,0.6c-1,0-1.9-0.8-2-1.8l-4.7-54.7
				c-0.1-1.1,0.7-2,1.8-2.1c0.1,0,0.1,0,0.2,0l96.7-0.7c1.1,0,1.9,0.9,1.9,2C511.4,612.3,511.4,612.4,511.4,612.4z"/>
			<path class="st5" d="M410.9,619.9v76h109.7v-76H410.9z M446.7,633.6c0-3.1,2.5-5.6,5.6-5.6h0h26.8c3.1,0.2,5.5,2.8,5.3,5.9
				c-0.1,2.9-2.5,5.2-5.3,5.3h-26.8C449.2,639.2,446.7,636.7,446.7,633.6z"/>
			<path class="st2" d="M351.7,619.9v76h59.1v-76H351.7z"/>
			<rect x="28.3" y="168.4" class="st2" width="150.9" height="157.3"/>
			<rect x="18" y="168.4" class="st1" width="150.9" height="157.3"/>
			<path class="st2" d="M169,325.8H18V168.4h151V325.8z M18.1,325.7h150.8V168.4H18.1L18.1,325.7z"/>
			<rect x="38.3" y="189.6" class="st1" width="110.3" height="115"/>
			<path class="st2" d="M38.3,305.3c-0.8,1.2-1.7,2.2-2.7,3.2c-1.8,1.9-4.2,4.4-7,7.1s-5.3,5.2-7.2,6.9c-1,1-2,1.9-3.2,2.6
				c0.8-1.1,1.7-2.2,2.7-3.1c1.8-1.9,4.2-4.4,7-7.1c2.8-2.8,5.3-5.2,7.2-6.9C36.1,307,37.2,306.1,38.3,305.3z"/>
			<path class="st2" d="M148.7,305.1c1.2,0.8,2.2,1.7,3.2,2.7c1.9,1.8,4.4,4.2,7.1,7s5.2,5.3,6.9,7.2c1,1,1.9,2,2.6,3.2
				c-1.2-0.8-2.2-1.7-3.1-2.7c-1.9-1.8-4.4-4.2-7.1-7s-5.2-5.3-6.9-7.2C150.3,307.3,149.4,306.2,148.7,305.1z"/>
			<path class="st2" d="M148.4,189.9c0.8-1.2,1.7-2.2,2.7-3.2c1.8-1.9,4.2-4.4,7-7.1c2.8-2.7,5.3-5.2,7.2-6.9c0.9-1,2-1.9,3.2-2.7
				c-0.8,1.2-1.7,2.2-2.7,3.1c-1.8,1.9-4.2,4.5-7,7.1c-2.8,2.7-5.3,5.2-7.2,6.9C150.6,188.2,149.5,189.1,148.4,189.9z"/>
			<path class="st2" d="M38,190.1c-1.2-0.8-2.2-1.7-3.2-2.7c-1.9-1.8-4.5-4.2-7.1-7s-5.2-5.3-6.9-7.2c-1-1-1.9-2-2.7-3.2
				c1.2,0.8,2.2,1.7,3.1,2.7c1.9,1.8,4.5,4.2,7.1,7s5.2,5.3,6.9,7.2C36.4,187.9,37.3,189,38,190.1z"/>
			<path class="st2" d="M148.4,304.6c0-0.2,0-0.4,0-0.6c0-0.4,0-0.9,0-1.6c0-1.5,0-3.5,0-6.2c0-5.5,0-13.4-0.1-23.4
				c0-20.1-0.1-48.8-0.2-83.2l0.4,0.4l-110.1,0.1l0,0l0.5-0.5c0,42.2,0,81.7,0,115l-0.4-0.4l79.7,0.2l22.3,0.1h5.9h1.5h0.5H148h-1.5
				h-5.8l-22.3,0.1l-79.9,0.2h-0.4v-0.4c0-33.3,0-72.8-0.1-115v-0.5h0.5h110.1h0.4v0.6c-0.1,34.5-0.2,63.3-0.2,83.5
				c0,10-0.1,17.9-0.1,23.4c0,2.6,0,4.7,0,6.1c0,0.7,0,1.2,0,1.5C148.6,304.2,148.4,304.6,148.4,304.6z"/>
			<rect x="75.1" y="228.7" class="st6" width="36.8" height="36.8"/>
			
				<rect x="930.2" y="177.7" transform="matrix(1 -5.410415e-03 5.410415e-03 1 -1.1192 5.0702)" class="st2" width="12.8" height="63.5"/>
			
				<rect x="819.6" y="177.9" transform="matrix(1 -5.410415e-03 5.410415e-03 1 -1.045 4.5268)" class="st6" width="33" height="35"/>
			
				<rect x="852.5" y="177.7" transform="matrix(1 -5.410415e-03 5.410415e-03 1 -1.0436 4.7046)" class="st5" width="33" height="35"/>
			<path class="st2" d="M819.6,187.7c21.9,0.2,44,0,65.9-0.3c0.2,0,0.3-0.2,0.3-0.4c0-0.1-0.1-0.2-0.3-0.3c-21.9-0.1-44,0-65.9,0.4
				c-0.2,0-0.3,0.1-0.3,0.3C819.3,187.6,819.4,187.7,819.6,187.7z"/>
			
				<rect x="799" y="212.4" transform="matrix(1 -5.410415e-03 5.410415e-03 1 -1.2143 4.4887)" class="st6" width="60" height="28.6"/>
			
				<rect x="858.8" y="212.1" transform="matrix(1 -5.410415e-03 5.410415e-03 1 -1.2118 4.8118)" class="st5" width="60" height="28.6"/>
			<path class="st2" d="M799,220.6c39.9,0.4,79.9,0,119.7-0.6c0.2,0,0.3-0.2,0.3-0.4c0-0.1-0.1-0.2-0.3-0.3
				c-39.8-0.2-79.9-0.2-119.7,0.7c-0.2,0-0.3,0.2-0.2,0.4C798.8,220.4,798.9,220.5,799,220.6L799,220.6z"/>
			<rect x="776.5" y="241.2" class="st2" width="232.5" height="10.2"/>
			<rect x="814.6" y="246.1" class="st2" width="9.4" height="34.9"/>
			<rect x="955.5" y="246.1" class="st2" width="9.4" height="34.9"/>
			
				<rect x="942.7" y="154" transform="matrix(1 -5.410415e-03 5.410415e-03 1 -1.0553 5.1379)" class="st6" width="12.8" height="87.3"/>
			
				<rect x="956.4" y="165.6" transform="matrix(0.9999 -1.000000e-02 1.000000e-02 0.9999 -1.961 9.6732)" class="st5" width="19.8" height="70.7"/>
			<path class="st2" d="M975,183.9c-6.6,0.5-13.2,0.5-19.8,0C961.8,183.4,968.4,183.4,975,183.9z"/>
			<path class="st2" d="M975,180.9c-6.6,0.5-13.2,0.5-19.8,0C961.8,180.5,968.4,180.5,975,180.9z"/>
			<path class="st2" d="M975,230.4c-6.6,0.5-13.2,0.5-19.8,0C961.8,229.9,968.4,229.9,975,230.4z"/>
			<path class="st2" d="M975,227.4c-6.6,0.5-13.2,0.5-19.8,0C961.8,226.9,968.4,226.9,975,227.4z"/>
			<path class="st2" d="M965.4,220.9c-0.2,0-0.4-7.1-0.4-15.9s0.2-15.9,0.4-15.9s0.3,7.1,0.3,15.9S965.6,220.9,965.4,220.9z"/>
			<rect x="975.2" y="187.6" class="st6" width="21.6" height="53.4"/>
			<path class="st1" d="M986.6,227.2c-2.6,0.1-4.7-1.9-4.8-4.5c0-0.1,0-0.2,0-0.4c-0.1-1.4,0.6-2.8,1.8-3.6l0.5,0.7
				c-1,0.7-1.5,1.8-1.5,3c0,2.2,1.8,4,4,4s4-1.8,4-4c0-1.2-0.5-2.3-1.5-3l0.5-0.7c1.2,0.8,1.8,2.2,1.7,3.6c0.1,2.6-1.9,4.7-4.5,4.8
				C986.7,227.2,986.7,227.2,986.6,227.2z"/>
			<path class="st1" d="M990.2,217.5l-0.7-0.4c0.8-1,1.2-2.2,1.2-3.4c0-2-0.7-2.8-1.8-2.8c-2.8,0-0.7,6.3-4.5,6.3
				c-1.5,0-2.6-1.2-2.6-3.6c0-1.1,0.4-2.2,1-3.2l0.7,0.4c-0.6,0.8-0.9,1.8-0.9,2.9c0,1.8,0.8,2.7,1.8,2.7c2.9,0,0.8-6.3,4.5-6.3
				c1.5,0,2.6,1.3,2.6,3.8C991.5,215.1,991.1,216.4,990.2,217.5z"/>
			<path class="st1" d="M990.2,208.8l-0.7-0.4c0.8-1,1.2-2.2,1.2-3.4c0-2-0.7-2.8-1.8-2.8c-2.8,0-0.7,6.3-4.5,6.3
				c-1.5,0-2.6-1.2-2.6-3.6c0-1.1,0.3-2.3,0.9-3.3l0.7,0.4c-0.6,0.8-0.9,1.8-0.9,2.9c0,1.9,0.8,2.7,1.8,2.7c2.9,0,0.8-6.3,4.5-6.3
				c1.5,0,2.6,1.3,2.6,3.8C991.5,206.3,991,207.7,990.2,208.8z"/>
			<path class="st2" d="M952.3,168.9c0,2-1.7,3.7-3.7,3.7c-2,0-3.7-1.6-3.7-3.7c0-2,1.6-3.6,3.6-3.7
				C950.6,165.2,952.3,166.8,952.3,168.9C952.3,168.9,952.3,168.9,952.3,168.9z"/>
			<rect x="947.5" y="179" class="st2" width="2.3" height="51.9"/>
			<rect x="825.3" y="546" class="st6" width="108" height="8.4"/>
			<rect x="903.6" y="546" class="st2" width="29.7" height="8.4"/>
			<path class="st5" d="M811.6,554.4v37.7h-6v4.1h6v25.3h110.5v-23h-8.2v-5h8.2V586h3.6v-3.4h-4.3v-28.2L811.6,554.4L811.6,554.4z"
				/>
			<polygon class="st2" points="892.8,554.5 892.8,621 922.1,621 922.1,598.1 913.9,598.1 913.9,593.5 922.1,593.5 922.1,586 
				925.8,586 925.8,582.1 921.4,582.1 921.4,554.4 			"/>
			<path class="st2" d="M894.8,595.6c0,0.2-20,0.4-44.6,0.4s-44.6-0.2-44.6-0.4s20-0.4,44.6-0.4
				C874.9,595.2,894.8,595.4,894.8,595.6z"/>
			<path class="st2" d="M894.8,591.8c0,0.2-20,0.4-44.6,0.4s-44.6-0.2-44.6-0.4s20-0.4,44.6-0.4
				C874.9,591.4,894.8,591.6,894.8,591.8z"/>
			<path class="st2" d="M900.6,581.5c0,0.2-20,0.4-44.6,0.4s-44.6-0.2-44.6-0.4s20-0.4,44.6-0.4
				C880.6,581.1,900.6,581.3,900.6,581.5z"/>
			<path class="st2" d="M901.1,609.6c0,0.2-20,0.4-44.6,0.4s-44.6-0.2-44.6-0.4s20-0.4,44.6-0.4
				C881.1,609.2,901.1,609.4,901.1,609.6z"/>
			<path class="st5" d="M824.1,629.5v37.7h-6v4.1h6v25.3h110.5v-23h-8.2v-5h8.2v-7.4h3.6v-3.4H934v-28.2L824.1,629.5L824.1,629.5z"
				/>
			<polygon class="st2" points="905.3,629.6 905.3,696.1 934.7,696.1 934.7,673.1 926.5,673.1 926.5,668.5 934.7,668.7 934.7,661.2 
				938.4,661.2 938.3,657.3 934,657.2 934,629.5 			"/>
			<path class="st2" d="M907.4,670.7c0,0.2-20,0.4-44.6,0.4s-44.6-0.2-44.6-0.4s20-0.4,44.6-0.4S907.4,670.5,907.4,670.7z"/>
			<path class="st2" d="M907.4,666.9c0,0.2-20,0.4-44.6,0.4s-44.6-0.2-44.6-0.4s20-0.4,44.6-0.4S907.4,666.7,907.4,666.9z"/>
			<path class="st2" d="M913.1,656.6c0,0.2-20,0.4-44.6,0.4s-44.6-0.2-44.6-0.4s20-0.4,44.6-0.4
				C893.1,656.2,913.1,656.3,913.1,656.6z"/>
			<path class="st2" d="M913.7,684.7c0,0.2-20,0.4-44.6,0.4s-44.6-0.2-44.6-0.4s20-0.4,44.6-0.4
				C893.7,684.3,913.7,684.4,913.7,684.7z"/>
			<path class="st5" d="M822.5,479v37.7h-6v4.1h6v25.3h110.5v-23h-8.2v-5h8.2v-7.4h3.6v-3.4h-4.3V479L822.5,479L822.5,479z"/>
			<polygon class="st2" points="903.7,479.1 903.7,545.6 933,545.6 933,522.6 924.9,522.6 924.9,518 933,518.2 933,510.7 
				936.8,510.7 936.7,506.8 932.4,506.7 932.4,479 			"/>
			<path class="st2" d="M905.8,520.2c0,0.2-20,0.4-44.6,0.4s-44.6-0.2-44.6-0.4c0-0.2,20-0.4,44.6-0.4
				C885.8,519.8,905.8,520,905.8,520.2z"/>
			<path class="st2" d="M905.8,516.4c0,0.2-20,0.4-44.6,0.4s-44.6-0.2-44.6-0.4c0-0.2,20-0.4,44.6-0.4
				C885.8,516,905.8,516.2,905.8,516.4z"/>
			<path class="st2" d="M911.5,506.1c0,0.2-20,0.4-44.6,0.4s-44.6-0.2-44.6-0.4c0-0.2,20-0.4,44.6-0.4
				C891.5,505.7,911.5,505.9,911.5,506.1z"/>
			<path class="st2" d="M912.1,534.2c0,0.2-20,0.4-44.6,0.4s-44.6-0.2-44.6-0.4c0-0.2,20-0.4,44.6-0.4
				C892.1,533.8,912.1,534,912.1,534.2z"/>
			<rect x="818.1" y="621.1" class="st6" width="108" height="8.4"/>
			<rect x="896.4" y="621.1" class="st2" width="29.7" height="8.4"/>
		</g>
		<g id="freepik--Board--inject-8">
			<rect x="148.9" y="85" class="st7" width="726.3" height="438.1"/>
			<path class="st8" d="M875.2,523.1c0-2.4-0.1-169.7-0.3-438.1l0.3,0.3L149,85.4l0,0l0.4-0.4c0,155.2,0,303.3,0,438.1l-0.4-0.4
				L875.2,523.1L149,523.4h-0.4v-0.4c0-134.8,0-282.9,0-438.1v-0.4h0.4l726.3,0.1h0.3V85C875.4,353.4,875.2,520.6,875.2,523.1z"/>
			<path class="st2" d="M243.9,159.3c0,0-3.9,35.7,1.1,55.3l47.7-2.1c0,0-10.2-35.2-3.9-50.9L243.9,159.3z"/>
			<path class="st3" d="M243.6,159.3c0,0,0.3,38.6,2.3,50.3l48.4-2.3c0,0-4.2-37.9-2.6-48.1L243.6,159.3z"/>
			<path class="st7" d="M284.4,175.5c0,0.2-7.2,0.8-16.2,1.4c-9,0.5-16.2,0.8-16.3,0.6c0-0.2,7.2-0.8,16.2-1.4
				C277,175.5,284.3,175.3,284.4,175.5z"/>
			<path class="st7" d="M284.4,183.7c0,0.2-7.2,0.8-16.2,1.4c-9,0.6-16.2,0.8-16.2,0.6c0-0.2,7.2-0.8,16.2-1.4
				C277.1,183.7,284.4,183.5,284.4,183.7z"/>
			<path class="st7" d="M276.1,191.7c-3,0.6-6.1,0.9-9.2,0.9c-3.1,0.3-6.2,0.4-9.3,0.2c3-0.6,6.1-0.9,9.2-0.9
				C270,191.6,273,191.5,276.1,191.7z"/>
			<path class="st3" d="M242.8,217c0,0,0.3,38.6,2.3,50.3l48.4-2.3c0,0-4.2-37.9-2.6-48.1H242.8z"/>
			<path class="st7" d="M283.6,233.2c0,0.2-7.2,0.8-16.2,1.4c-9,0.6-16.2,0.8-16.3,0.6s7.2-0.8,16.2-1.4S283.6,233,283.6,233.2z"/>
			<path class="st7" d="M283.6,241.4c0,0.2-7.2,0.8-16.2,1.4c-9,0.5-16.2,0.8-16.3,0.6s7.2-0.8,16.2-1.4S283.6,241.2,283.6,241.4z"
				/>
			<path class="st7" d="M275.3,249.4c-3,0.6-6.1,0.9-9.2,0.9c-3.1,0.3-6.2,0.4-9.3,0.2c3-0.6,6.1-0.9,9.2-0.9
				C269.1,249.2,272.2,249.2,275.3,249.4z"/>
			<path class="st8" d="M242.8,282.3c0,0,0.3,38.6,2.3,50.3l48.4-2.3c0,0-4.2-37.9-2.6-48.1H242.8z"/>
			<path class="st7" d="M283.6,298.5c0,0.2-7.2,0.8-16.2,1.4c-9,0.5-16.2,0.8-16.3,0.6c0-0.2,7.2-0.8,16.2-1.4
				C276.3,298.6,283.6,298.3,283.6,298.5z"/>
			<path class="st7" d="M283.6,306.7c0,0.2-7.2,0.8-16.2,1.4s-16.2,0.8-16.3,0.6c0-0.2,7.2-0.8,16.2-1.4S283.6,306.5,283.6,306.7z"
				/>
			<path class="st7" d="M275.3,314.7c-3,0.6-6.1,0.9-9.2,0.9c-3.1,0.3-6.2,0.4-9.3,0.2c3-0.6,6.1-0.9,9.2-0.9
				C269.1,314.6,272.2,314.5,275.3,314.7z"/>
			<path class="st9" d="M237.1,358.7c0,0,0.3,38.6,2.3,50.3l48.4-2.3c0,0-4.2-37.9-2.6-48H237.1z"/>
			<path class="st7" d="M277.9,374.9c0,0.2-7.2,0.8-16.2,1.4c-9,0.5-16.2,0.8-16.3,0.6s7.2-0.8,16.2-1.4
				C270.6,375,277.9,374.7,277.9,374.9z"/>
			<path class="st7" d="M277.9,383.1c0,0.2-7.2,0.8-16.2,1.4c-9,0.5-16.2,0.8-16.3,0.6c0-0.2,7.2-0.8,16.2-1.4
				C270.6,383.2,277.9,382.9,277.9,383.1z"/>
			<path class="st7" d="M269.7,391.1c-3,0.6-6.1,0.9-9.2,0.9c-3.1,0.3-6.2,0.4-9.3,0.2c3-0.6,6.1-0.9,9.2-0.9
				C263.5,391,266.6,390.9,269.7,391.1z"/>
			<path class="st8" d="M301.2,359.1c0,0,0.3,38.6,2.3,50.3l48.4-2.3c0,0-4.2-37.9-2.6-48.1L301.2,359.1L301.2,359.1z"/>
			<path class="st7" d="M342,375.3c0,0.2-7.2,0.8-16.2,1.4c-9,0.5-16.2,0.8-16.3,0.6c0-0.2,7.2-0.8,16.2-1.4
				C334.7,375.3,342,375.1,342,375.3z"/>
			<path class="st7" d="M342,383.4c0,0.2-7.2,0.8-16.2,1.4c-9,0.5-16.2,0.8-16.3,0.6c0-0.2,7.2-0.8,16.2-1.4
				C334.7,383.5,342,383.2,342,383.4z"/>
			<path class="st7" d="M333.8,391.5c-3,0.6-6.1,0.9-9.2,0.9c-3.1,0.3-6.2,0.4-9.3,0.2c3-0.6,6.1-0.9,9.2-1
				C327.6,391.3,330.7,391.3,333.8,391.5z"/>
			<path class="st3" d="M354.9,361.8c0,0,0.3,38.6,2.3,50.3l48.4-2.3c0,0-4.2-37.9-2.6-48.1L354.9,361.8L354.9,361.8z"/>
			<path class="st7" d="M395.7,378c0,0.2-7.2,0.8-16.2,1.4c-9,0.5-16.2,0.8-16.3,0.6c0-0.2,7.2-0.8,16.2-1.4
				C388.4,378.1,395.6,377.8,395.7,378z"/>
			<path class="st7" d="M395.7,386.2c0,0.2-7.2,0.8-16.2,1.4s-16.2,0.8-16.3,0.6c0-0.2,7.2-0.8,16.2-1.4
				C388.4,386.2,395.7,386,395.7,386.2z"/>
			<path class="st7" d="M387.5,394.2c-3,0.6-6.1,0.9-9.2,0.9c-3.1,0.3-6.2,0.4-9.3,0.2c3-0.6,6.1-0.9,9.2-1
				C381.3,394.1,384.4,394,387.5,394.2z"/>
			<path class="st9" d="M292.2,427.8c0,0,0.3,38.6,2.3,50.3l48.4-2.3c0,0-4.2-37.9-2.6-48H292.2z"/>
			<path class="st7" d="M333,444c0,0.2-7.2,0.8-16.2,1.4s-16.2,0.8-16.3,0.6s7.2-0.8,16.2-1.4S333,443.8,333,444z"/>
			<path class="st7" d="M333,452.2c0,0.2-7.2,0.8-16.2,1.4s-16.2,0.8-16.3,0.6s7.2-0.8,16.2-1.4S333,452,333,452.2z"/>
			<path class="st7" d="M324.8,460.3c-3,0.6-6.1,0.9-9.2,1c-3.1,0.3-6.2,0.4-9.3,0.2c3-0.6,6.1-0.9,9.2-0.9
				C318.6,460.1,321.7,460.1,324.8,460.3z"/>
			<path class="st8" d="M447.5,339.2c0,0,0.3,38.6,2.3,50.3l48.4-2.3c0,0-4.2-37.9-2.6-48H447.5z"/>
			<path class="st7" d="M488.2,355.4c0,0.2-7.2,0.8-16.2,1.4c-9,0.5-16.2,0.8-16.2,0.6c0-0.2,7.2-0.8,16.2-1.4
				C481,355.4,488.2,355.2,488.2,355.4z"/>
			<path class="st7" d="M488.3,363.6c0,0.2-7.2,0.8-16.2,1.4c-9,0.5-16.2,0.8-16.2,0.6s7.2-0.8,16.2-1.4
				C481,363.6,488.2,363.4,488.3,363.6z"/>
			<path class="st7" d="M480,371.6c-3,0.6-6.1,0.9-9.2,1c-3.1,0.3-6.2,0.4-9.3,0.2c3-0.6,6.1-0.9,9.2-0.9
				C473.9,371.5,477,371.4,480,371.6z"/>
			<path class="st9" d="M552.5,429.7c0,0,0.3,38.6,2.3,50.3l48.4-2.3c0,0-4.2-37.9-2.6-48.1L552.5,429.7L552.5,429.7z"/>
			<path class="st7" d="M593.3,445.9c0,0.2-7.2,0.8-16.2,1.4s-16.2,0.8-16.3,0.6c0-0.2,7.2-0.8,16.2-1.4
				C586,446,593.3,445.7,593.3,445.9z"/>
			<path class="st7" d="M593.3,454.1c0,0.2-7.2,0.8-16.2,1.4c-9,0.5-16.2,0.8-16.3,0.6c0-0.2,7.2-0.8,16.2-1.4
				C586,454.2,593.3,453.9,593.3,454.1z"/>
			<path class="st7" d="M585.1,462.1c-3,0.6-6.1,0.9-9.2,0.9c-3.1,0.3-6.2,0.4-9.3,0.2c3-0.6,6.1-0.9,9.2-1
				C578.9,462,582,462,585.1,462.1z"/>
			<path class="st9" d="M612.2,430.6c0,0,0.3,38.6,2.3,50.3l48.4-2.3c0,0-4.2-37.9-2.6-48H612.2z"/>
			<path class="st7" d="M653,446.8c0,0.2-7.2,0.8-16.2,1.4c-9,0.5-16.2,0.8-16.2,0.6c0-0.2,7.2-0.8,16.2-1.4
				C645.7,446.8,653,446.6,653,446.8z"/>
			<path class="st7" d="M653,454.9c0,0.2-7.2,0.8-16.2,1.4s-16.2,0.8-16.2,0.6s7.2-0.8,16.2-1.4C645.7,455,653,454.7,653,454.9z"/>
			<path class="st7" d="M644.8,463c-3,0.6-6.1,0.9-9.2,1c-3.1,0.3-6.2,0.4-9.3,0.2c3-0.6,6.1-0.9,9.2-0.9
				C638.6,462.8,641.7,462.8,644.8,463z"/>
			<path class="st8" d="M672,431.4c0,0,0.3,38.6,2.3,50.3l48.4-2.3c0,0-4.2-37.9-2.6-48H672z"/>
			<path class="st7" d="M712.7,447.6c0,0.2-7.2,0.8-16.2,1.4c-9,0.5-16.2,0.8-16.3,0.6s7.2-0.8,16.2-1.4S712.7,447.4,712.7,447.6z"
				/>
			<path class="st7" d="M712.7,455.8c0,0.2-7.2,0.8-16.2,1.4c-9,0.5-16.2,0.8-16.3,0.6s7.2-0.8,16.2-1.4
				C705.4,455.9,712.7,455.6,712.7,455.8z"/>
			<path class="st7" d="M704.5,463.8c-3,0.6-6.1,0.9-9.2,1c-3.1,0.3-6.2,0.4-9.3,0.2C692.1,464,698.3,463.6,704.5,463.8z"/>
			<path class="st9" d="M743.7,429.1c0,0,0.3,38.6,2.3,50.3l48.4-2.3c0,0-4.2-37.9-2.6-48.1L743.7,429.1L743.7,429.1z"/>
			<path class="st7" d="M784.5,445.4c0,0.2-7.2,0.8-16.2,1.4c-9,0.5-16.2,0.8-16.3,0.6c0-0.2,7.2-0.8,16.2-1.4
				S784.5,445.1,784.5,445.4z"/>
			<path class="st7" d="M784.5,453.5c0,0.2-7.2,0.8-16.2,1.4s-16.2,0.8-16.3,0.6c0-0.2,7.2-0.8,16.2-1.4
				C777.2,453.5,784.5,453.3,784.5,453.5z"/>
			<path class="st7" d="M776.3,461.5c-3,0.6-6.1,0.9-9.2,0.9c-3.1,0.3-6.2,0.4-9.3,0.2c3.1-0.6,6.2-0.9,9.3-0.9
				C770.1,461.4,773.2,461.4,776.3,461.5z"/>
			<path class="st9" d="M795.8,434.7c0,0,0.3,38.6,2.3,50.3l48.4-2.3c0,0-4.2-37.9-2.6-48H795.8z"/>
			<path class="st7" d="M836.5,450.9c0,0.2-7.2,0.8-16.2,1.4s-16.2,0.8-16.3,0.6s7.2-0.8,16.2-1.4
				C829.3,450.9,836.5,450.7,836.5,450.9z"/>
			<path class="st7" d="M836.5,459.1c0,0.2-7.2,0.8-16.2,1.4s-16.2,0.8-16.3,0.6s7.2-0.8,16.2-1.4
				C829.3,459.1,836.5,458.9,836.5,459.1z"/>
			<path class="st7" d="M828.3,467.1c-3,0.6-6.1,0.9-9.2,1c-3.1,0.3-6.2,0.4-9.3,0.2c3-0.6,6.1-0.9,9.2-0.9
				C822.1,467,825.2,466.9,828.3,467.1z"/>
			<path class="st9" d="M552.3,359.6c0,0,0.3,38.6,2.3,50.3l48.4-2.3c0,0-4.2-37.9-2.6-48H552.3z"/>
			<path class="st7" d="M593,375.8c0,0.2-7.2,0.8-16.2,1.4c-9,0.5-16.2,0.8-16.3,0.6s7.2-0.8,16.2-1.4
				C585.7,375.9,593,375.6,593,375.8z"/>
			<path class="st7" d="M593.1,384c0,0.2-7.2,0.8-16.2,1.4c-9,0.5-16.2,0.8-16.3,0.6s7.2-0.8,16.2-1.4
				C585.8,384.1,593,383.8,593.1,384z"/>
			<path class="st7" d="M584.9,392c-3,0.6-6.1,0.9-9.2,0.9c-3.1,0.3-6.2,0.4-9.3,0.2c3-0.6,6.1-0.9,9.2-0.9
				C578.7,391.9,581.8,391.8,584.9,392z"/>
			<path class="st3" d="M615.5,359.8c0,0,0.3,38.6,2.3,50.3l48.4-2.3c0,0-4.2-37.9-2.6-48H615.5z"/>
			<path class="st7" d="M656.2,376c0,0.2-7.2,0.8-16.2,1.4c-9,0.5-16.2,0.8-16.3,0.6s7.2-0.8,16.2-1.4
				C649,376.1,656.2,375.8,656.2,376z"/>
			<path class="st7" d="M656.2,384.2c0,0.2-7.2,0.8-16.2,1.4s-16.2,0.8-16.3,0.6s7.2-0.8,16.2-1.4C649,384.3,656.2,384,656.2,384.2z
				"/>
			<path class="st7" d="M648.1,392.2c-3,0.6-6.1,0.9-9.2,1c-3.1,0.3-6.2,0.4-9.3,0.2c3-0.6,6.1-0.9,9.2-0.9
				C641.9,392.1,645,392,648.1,392.2z"/>
			<path class="st9" d="M740,359.9c0,0,0.3,38.6,2.3,50.3l48.4-2.3c0,0-4.2-37.9-2.6-48H740z"/>
			<path class="st7" d="M780.7,376.1c0,0.2-7.2,0.8-16.2,1.4c-9,0.5-16.2,0.8-16.2,0.6c0-0.2,7.2-0.8,16.2-1.4
				S780.7,375.8,780.7,376.1z"/>
			<path class="st7" d="M780.7,384.2c0,0.2-7.2,0.8-16.2,1.4c-9,0.5-16.2,0.8-16.3,0.6c0-0.2,7.2-0.8,16.2-1.4
				C773.4,384.3,780.7,384,780.7,384.2z"/>
			<path class="st7" d="M772.5,392.3c-3,0.6-6.1,0.9-9.2,0.9c-3.1,0.3-6.2,0.4-9.3,0.2c3-0.6,6.1-0.9,9.2-1
				C766.3,392.1,769.4,392.1,772.5,392.3z"/>
			<path class="st8" d="M317.9,282.3c0,0,0.3,38.6,2.3,50.3l48.4-2.3c0,0-4.2-37.9-2.6-48.1H317.9z"/>
			<path class="st7" d="M358.6,298.5c0,0.2-7.2,0.8-16.2,1.4c-9,0.5-16.2,0.8-16.2,0.6c0-0.2,7.2-0.8,16.2-1.4
				C351.3,298.6,358.6,298.3,358.6,298.5z"/>
			<path class="st7" d="M358.6,306.7c0,0.2-7.2,0.8-16.2,1.4s-16.2,0.8-16.3,0.6c0-0.2,7.2-0.8,16.2-1.4
				C351.4,306.8,358.6,306.5,358.6,306.7z"/>
			<path class="st7" d="M350.4,314.7c-3,0.6-6.1,0.9-9.2,0.9c-3.1,0.3-6.2,0.4-9.3,0.2c3-0.6,6.1-0.9,9.2-0.9
				C344.2,314.6,347.3,314.5,350.4,314.7z"/>
			<path class="st3" d="M298.6,159.3c0,0,0.3,38.6,2.3,50.3l48.4-2.3c0,0-4.2-37.9-2.6-48.1L298.6,159.3z"/>
			<path class="st7" d="M339.4,175.5c0,0.2-7.2,0.8-16.2,1.4c-9,0.5-16.2,0.8-16.3,0.6c0-0.2,7.2-0.8,16.2-1.4
				C332.1,175.5,339.4,175.3,339.4,175.5z"/>
			<path class="st7" d="M339.4,183.7c0,0.2-7.2,0.8-16.2,1.4s-16.2,0.8-16.3,0.6s7.2-0.8,16.2-1.4
				C332.1,183.7,339.4,183.5,339.4,183.7z"/>
			<path class="st7" d="M331.2,191.7c-3,0.6-6.1,0.9-9.2,0.9c-3.1,0.3-6.2,0.4-9.3,0.2c3-0.6,6.1-0.9,9.2-0.9
				C325,191.6,328.1,191.5,331.2,191.7z"/>
			<path class="st3" d="M299.7,217.2c0,0,0.3,38.6,2.3,50.3l48.4-2.3c0,0-4.2-37.9-2.6-48.1L299.7,217.2L299.7,217.2z"/>
			<path class="st7" d="M340.5,233.4c0,0.2-7.2,0.8-16.2,1.4c-9,0.5-16.2,0.8-16.2,0.6c0-0.2,7.2-0.8,16.2-1.4
				C333.2,233.5,340.5,233.2,340.5,233.4z"/>
			<path class="st7" d="M340.5,241.6c0,0.2-7.2,0.8-16.2,1.4c-9,0.5-16.2,0.8-16.3,0.6c0-0.2,7.2-0.8,16.2-1.4
				S340.5,241.4,340.5,241.6z"/>
			<path class="st7" d="M332.3,249.6c-3,0.6-6.1,0.9-9.2,0.9c-3.1,0.3-6.2,0.4-9.3,0.2c3-0.6,6.1-0.9,9.2-0.9
				C326.1,249.5,329.2,249.4,332.3,249.6z"/>
			<path class="st3" d="M359,159.3c0,0,0.3,38.6,2.3,50.3l48.4-2.3c0,0-4.2-37.9-2.6-48.1L359,159.3z"/>
			<path class="st7" d="M399.7,175.5c0,0.2-7.2,0.8-16.2,1.4c-9,0.5-16.2,0.8-16.3,0.6c0-0.2,7.2-0.8,16.2-1.4
				C392.4,175.5,399.7,175.3,399.7,175.5z"/>
			<path class="st7" d="M399.7,183.7c0,0.2-7.2,0.8-16.2,1.4s-16.2,0.8-16.3,0.6s7.2-0.8,16.2-1.4
				C392.4,183.7,399.7,183.5,399.7,183.7z"/>
			<path class="st7" d="M391.5,191.7c-3,0.6-6.1,0.9-9.2,0.9c-3.1,0.3-6.2,0.4-9.3,0.2c3-0.6,6.1-0.9,9.2-0.9
				C385.3,191.6,388.4,191.5,391.5,191.7z"/>
			<path class="st3" d="M419.2,159.3c0,0,0.3,38.6,2.3,50.3l48.4-2.3c0,0-4.2-37.9-2.6-48.1L419.2,159.3z"/>
			<path class="st7" d="M460,175.5c0,0.2-7.2,0.8-16.2,1.4c-9,0.5-16.2,0.8-16.3,0.6c0-0.2,7.2-0.8,16.2-1.4
				C452.7,175.5,460,175.3,460,175.5z"/>
			<path class="st7" d="M460,183.7c0,0.2-7.2,0.8-16.2,1.4s-16.2,0.8-16.3,0.6s7.2-0.8,16.2-1.4C452.7,183.7,460,183.5,460,183.7z"
				/>
			<path class="st7" d="M451.8,191.7c-3,0.6-6.1,0.9-9.2,0.9c-3.1,0.3-6.2,0.4-9.3,0.2C439.4,191.9,445.6,191.6,451.8,191.7z"/>
			<path class="st3" d="M479.5,159.3c0,0,0.3,38.6,2.3,50.3l48.4-2.3c0,0-4.2-37.9-2.6-48.1L479.5,159.3z"/>
			<path class="st7" d="M520.3,175.5c0,0.2-7.2,0.8-16.2,1.4c-9,0.5-16.2,0.8-16.3,0.6c0-0.2,7.2-0.8,16.2-1.4
				C513,175.5,520.3,175.3,520.3,175.5z"/>
			<path class="st7" d="M520.3,183.7c0,0.2-7.2,0.8-16.2,1.4c-9,0.6-16.2,0.8-16.3,0.6s7.2-0.8,16.2-1.4
				C513,183.7,520.3,183.5,520.3,183.7z"/>
			<path class="st7" d="M512.1,191.7c-3,0.6-6.1,0.9-9.2,0.9c-3.1,0.3-6.2,0.4-9.3,0.2c3-0.6,6.1-0.9,9.2-0.9
				C505.9,191.6,509,191.5,512.1,191.7z"/>
			<path class="st3" d="M560.1,167.9c0,0,0.3,38.6,2.3,50.3l48.5-2.3c0,0-4.2-37.9-2.6-48.1H560.1z"/>
			<path class="st7" d="M600.9,184.1c0,0.2-7.2,0.8-16.2,1.4s-16.2,0.8-16.2,0.6c0-0.2,7.2-0.8,16.2-1.4
				C593.6,184.1,600.9,183.8,600.9,184.1z"/>
			<path class="st7" d="M600.9,192.2c0,0.2-7.2,0.8-16.2,1.4c-9,0.5-16.2,0.8-16.2,0.6s7.2-0.8,16.2-1.4S600.9,192,600.9,192.2z"/>
			<path class="st7" d="M592.7,200.2c-3,0.6-6.1,0.9-9.2,0.9c-3.1,0.3-6.2,0.4-9.3,0.2c3-0.6,6.1-0.9,9.2-0.9
				C586.5,200.1,589.6,200,592.7,200.2z"/>
			<path class="st3" d="M614.1,168.7c0,0,0.3,38.6,2.3,50.3l48.4-2.3c0,0-4.2-37.9-2.6-48.1L614.1,168.7L614.1,168.7z"/>
			<path class="st7" d="M654.9,184.9c0,0.2-7.2,0.8-16.2,1.4c-9,0.5-16.2,0.8-16.3,0.6s7.2-0.8,16.2-1.4
				C647.6,184.9,654.9,184.7,654.9,184.9z"/>
			<path class="st7" d="M654.9,193.1c0,0.2-7.2,0.8-16.2,1.4c-9,0.5-16.2,0.8-16.3,0.6c0-0.2,7.2-0.8,16.2-1.4
				C647.6,193.1,654.9,192.8,654.9,193.1z"/>
			<path class="st7" d="M646.7,201.1c-3,0.6-6.1,0.9-9.2,0.9c-3.1,0.3-6.2,0.4-9.3,0.2c3-0.6,6.1-0.9,9.2-0.9
				C640.5,200.9,643.6,200.9,646.7,201.1z"/>
			<path class="st3" d="M673.7,170.4c0,0,0.3,38.6,2.3,50.3l48.4-2.3c0,0-4.2-37.9-2.6-48.1H673.7z"/>
			<path class="st7" d="M714.5,186.6c0,0.2-7.2,0.8-16.2,1.4c-9,0.5-16.2,0.8-16.3,0.6c0-0.2,7.2-0.8,16.2-1.4
				S714.5,186.4,714.5,186.6z"/>
			<path class="st7" d="M714.5,194.8c0,0.2-7.2,0.8-16.2,1.4c-9,0.5-16.2,0.8-16.3,0.6s7.2-0.8,16.2-1.4
				C707.2,194.8,714.5,194.6,714.5,194.8z"/>
			<path class="st7" d="M706.3,202.8c-3,0.6-6.1,0.9-9.2,0.9c-3.1,0.3-6.2,0.4-9.3,0.2C693.9,203,700.1,202.7,706.3,202.8z"/>
			<path class="st3" d="M744.6,168.4c0,0,0.3,38.6,2.3,50.3l48.5-2.3c0,0-4.2-37.9-2.6-48.1H744.6z"/>
			<path class="st7" d="M785.4,184.6c0,0.2-7.2,0.8-16.2,1.4s-16.2,0.8-16.3,0.6c0-0.2,7.2-0.8,16.2-1.4
				C778.1,184.7,785.3,184.4,785.4,184.6z"/>
			<path class="st7" d="M785.4,192.8c0,0.2-7.2,0.8-16.2,1.4c-9,0.5-16.2,0.8-16.3,0.6c0-0.2,7.2-0.8,16.2-1.4
				C778.1,192.8,785.4,192.6,785.4,192.8z"/>
			<path class="st7" d="M777.2,200.8c-3,0.6-6.1,0.9-9.2,0.9c-3.1,0.3-6.2,0.4-9.3,0.2c3-0.6,6.1-0.9,9.2-0.9
				C771,200.7,774.1,200.6,777.2,200.8z"/>
			<path class="st3" d="M750.5,231.3c0,0,0.3,38.6,2.3,50.3l48.4-2.3c0,0-4.2-37.9-2.6-48.1H750.5z"/>
			<path class="st7" d="M791.2,247.5c0,0.2-7.2,0.8-16.2,1.4s-16.2,0.8-16.3,0.6s7.2-0.8,16.2-1.4
				C784,247.6,791.2,247.3,791.2,247.5z"/>
			<path class="st7" d="M791.3,255.7c0,0.2-7.2,0.8-16.2,1.4c-9,0.5-16.2,0.8-16.3,0.6c0-0.2,7.2-0.8,16.2-1.4
				C784,255.7,791.3,255.4,791.3,255.7z"/>
			<path class="st7" d="M783,263.7c-6.1,0.9-12.3,1.2-18.5,1.1c3-0.6,6.1-0.9,9.2-1C776.8,263.5,780,263.5,783,263.7z"/>
			<path class="st9" d="M787.1,173.8c0,0,0.3,38.6,2.3,50.3l48.4-2.3c0,0-4.2-37.9-2.6-48.1H787.1z"/>
			<path class="st7" d="M827.9,190c0,0.2-7.2,0.8-16.2,1.4c-9,0.5-16.2,0.8-16.3,0.6c0-0.2,7.2-0.8,16.2-1.4
				C820.6,190,827.9,189.8,827.9,190z"/>
			<path class="st7" d="M827.9,198.2c0,0.2-7.2,0.8-16.2,1.4c-9,0.6-16.2,0.8-16.3,0.6s7.2-0.8,16.2-1.4
				C820.6,198.2,827.9,198,827.9,198.2z"/>
			<path class="st7" d="M819.7,206.2c-3,0.6-6.1,0.9-9.2,0.9c-3.1,0.3-6.2,0.4-9.3,0.2C807.3,206.4,813.5,206.1,819.7,206.2z"/>
			<path class="st9" d="M573.2,199.3c0,0,0.3,38.6,2.3,50.3l48.4-2.3c0,0-4.2-37.9-2.6-48.1H573.2z"/>
			<path class="st7" d="M614,215.5c0,0.2-7.2,0.8-16.2,1.4c-9,0.5-16.2,0.8-16.3,0.6s7.2-0.8,16.2-1.4
				C606.7,215.6,614,215.3,614,215.5z"/>
			<path class="st7" d="M614,223.7c0,0.2-7.2,0.8-16.2,1.4c-9,0.5-16.2,0.8-16.3,0.6c0-0.2,7.2-0.8,16.2-1.4
				C606.7,223.8,614,223.5,614,223.7z"/>
			<path class="st7" d="M605.8,231.7c-3,0.6-6.1,0.9-9.2,0.9c-3.1,0.3-6.2,0.4-9.3,0.2c3-0.6,6.1-0.9,9.2-0.9
				C599.6,231.6,602.7,231.5,605.8,231.7z"/>
			<path class="st3" d="M567.1,285c0,0,0.3,38.6,2.3,50.3l48.4-2.3c0,0-4.2-37.9-2.6-48.1H567.1z"/>
			<path class="st7" d="M607.9,301.2c0,0.2-7.2,0.8-16.2,1.4c-9,0.5-16.2,0.8-16.3,0.6c0-0.2,7.2-0.8,16.2-1.4
				C600.6,301.2,607.9,300.9,607.9,301.2z"/>
			<path class="st7" d="M607.9,309.3c0,0.2-7.2,0.8-16.2,1.4s-16.2,0.8-16.3,0.6s7.2-0.8,16.2-1.4
				C600.6,309.4,607.9,309.1,607.9,309.3z"/>
			<path class="st7" d="M599.7,317.4c-3,0.6-6.1,0.9-9.2,1c-3.1,0.3-6.2,0.4-9.3,0.2c3-0.6,6.1-0.9,9.2-0.9
				C593.5,317.2,596.6,317.2,599.7,317.4z"/>
			<path class="st6" d="M415.5,201.2c0,0,3.9,35.7-1.1,55.3l-47.7-2.1c0,0,10.2-35.2,4-50.9L415.5,201.2z"/>
			<path class="st9" d="M366.4,195.1c0,0-3,40.5-5.6,48.7l43.5,4.6l6.5-6.2c0,0,4.6-35.7,4-45.9L366.4,195.1z"/>
			<polygon class="st8" points="405.2,241.8 404.2,248.4 410.8,242.2 			"/>
			<path class="st7" d="M405.7,215.6c-1.6-0.1-3.3-0.3-4.9-0.6l-11.6-1.7l-11.7-1.5c-1.6-0.1-3.2-0.4-4.9-0.7c1.6-0.1,3.3,0,4.9,0.2
				c3,0.2,7.2,0.6,11.8,1.2c4.6,0.6,8.7,1.3,11.7,1.9C402.6,214.6,404.2,215,405.7,215.6z"/>
			<path class="st7" d="M403.8,224.5c-1.6,0.1-3.1,0-4.7-0.2c-2.9-0.2-6.9-0.6-11.3-1.2s-8.4-1.2-11.2-1.7c-1.6-0.2-3.1-0.5-4.6-1
				c1.6,0,3.1,0.2,4.7,0.5l11.2,1.5l11.2,1.4C400.7,223.9,402.3,224.2,403.8,224.5z"/>
			<path class="st7" d="M401.1,232.7c-4.9-0.3-9.8-0.8-14.6-1.6c-4.9-0.5-9.7-1.3-14.5-2.3c4.9,0.3,9.8,0.8,14.6,1.6
				C391.5,230.9,396.3,231.7,401.1,232.7z"/>
			<path class="st9" d="M263,243.9c0,0-3,40.5-5.6,48.7l43.5,4.6l6.5-6.2c0,0,4.6-35.7,4-45.9L263,243.9z"/>
			<polygon class="st8" points="301.8,290.7 300.8,297.2 307.4,291 			"/>
			<path class="st7" d="M302.3,264.4c-1.6-0.1-3.3-0.2-4.9-0.6l-11.7-1.6l-11.7-1.5c-1.6-0.1-3.2-0.4-4.9-0.7c1.6-0.1,3.3,0,4.9,0.2
				c3,0.2,7.2,0.6,11.8,1.2c4.6,0.6,8.7,1.3,11.7,1.9C299.1,263.5,300.7,263.9,302.3,264.4z"/>
			<path class="st7" d="M300.4,273.3c-1.6,0.1-3.1,0-4.7-0.2c-2.9-0.2-6.9-0.6-11.3-1.1c-4.4-0.5-8.4-1.2-11.2-1.7
				c-1.6-0.2-3.1-0.5-4.6-1c1.6,0,3.1,0.2,4.7,0.5l11.2,1.5l11.2,1.4C297.3,272.8,298.9,273,300.4,273.3z"/>
			<path class="st7" d="M297.7,281.6c-4.9-0.2-9.8-0.7-14.6-1.5c-4.9-0.5-9.7-1.3-14.5-2.4c4.9,0.3,9.8,0.8,14.6,1.6
				C288,279.8,292.9,280.5,297.7,281.6z"/>
			<rect x="180.9" y="167.2" class="st3" width="36.3" height="8.3"/>
			<rect x="180.9" y="365.5" class="st8" width="36.3" height="8.3"/>
			<rect x="180.9" y="432.6" class="st8" width="36.3" height="8.3"/>
			<rect x="319.5" y="118.2" class="st2" width="125.4" height="8.3"/>
			<rect x="569.3" y="118.2" class="st2" width="125.4" height="8.3"/>
			<rect x="755.6" y="118.2" class="st2" width="59.9" height="8.3"/>
			<path class="st8" d="M831.5,153.8c0,0.2-147,0.4-328.4,0.4s-328.4-0.2-328.4-0.4s147-0.4,328.4-0.4S831.5,153.6,831.5,153.8z"/>
			<path class="st8" d="M831.5,351.2c0,0.2-147,0.4-328.4,0.4s-328.4-0.2-328.4-0.4s147-0.4,328.4-0.4S831.5,351,831.5,351.2z"/>
			<path class="st8" d="M831.5,486.7c0,0.2-147,0.4-328.4,0.4s-328.4-0.2-328.4-0.4c0-0.2,147-0.4,328.4-0.4
				S831.5,486.5,831.5,486.7z"/>
			<path class="st8" d="M831.5,420.6c0,0.2-147,0.4-328.4,0.4s-328.4-0.2-328.4-0.4c0-0.2,147-0.4,328.4-0.4
				S831.5,420.4,831.5,420.6z"/>
			<path class="st8" d="M230.4,488.5c-0.2,0-0.4-83.9-0.4-187.4s0.2-187.4,0.4-187.4s0.4,83.9,0.4,187.4S230.6,488.5,230.4,488.5z"
				/>
			<path class="st8" d="M533.8,490.4c-0.2,0-0.4-83.8-0.4-187.1s0.2-187.1,0.4-187.1s0.4,83.7,0.4,187.1S534,490.4,533.8,490.4z"/>
			<path class="st8" d="M730.3,492.4c-0.2,0-0.4-83.8-0.4-187.1s0.2-187.1,0.4-187.1s0.4,83.8,0.4,187.1S730.5,492.4,730.3,492.4z"
				/>
			<path class="st8" d="M609.6,276.7l0.6,0.2l1.7,0.7c2.2,1,4.2,2.3,6,3.7c3,2.3,5.6,5.1,7.7,8.2c1.3,1.9,2.5,4,3.4,6.2
				c1,2.4,1.8,5,2.3,7.6c1,6,0.5,12.2-1.6,17.9c-2.3,6.6-6.4,12.5-11.8,17c-6,4.9-13.4,7.9-21.1,8.5c-8.3,0.8-16.6-1-23.9-5.1
				c-7.2-4.1-13-10.4-16.5-18c-3.4-7-4.3-15-2.7-22.6c1.5-6.9,5-13.1,10-18.1c2.3-2.2,4.9-4,7.7-5.4c2.6-1.4,5.3-2.4,8.2-3
				c4.9-1,9.9-1.4,14.9-0.9c3.8,0.3,7.5,0.8,11.2,1.5c3,0.6,5.4,1.1,7,1.5l1.8,0.4c0.2,0,0.4,0.1,0.6,0.2l-0.6-0.1l-1.8-0.4
				c-1.6-0.3-3.9-0.8-7-1.3c-3.7-0.7-7.4-1.1-11.1-1.4c-4.9-0.4-9.9,0-14.7,1c-2.8,0.6-5.5,1.6-8.1,2.9c-2.8,1.4-5.3,3.2-7.5,5.4
				c-4.9,4.8-8.3,11-9.8,17.8c-1.6,7.5-0.6,15.2,2.7,22.1c3.5,7.4,9.1,13.6,16.2,17.6c7.1,4,15.3,5.8,23.5,5
				c7.6-0.6,14.8-3.5,20.7-8.3c5.3-4.4,9.3-10.1,11.7-16.6c2-5.6,2.6-11.7,1.6-17.6c-0.5-2.5-1.2-5-2.2-7.4c-0.9-2.1-2-4.2-3.3-6.1
				c-2-3.1-4.5-5.9-7.4-8.2c-1.8-1.5-3.8-2.8-6-3.8l-1.7-0.8C610,276.9,609.8,276.8,609.6,276.7z"/>
			<path class="st8" d="M625.2,281.3c-0.1-0.2,5.8-5.1,13.3-11.1c7.5-6,13.6-10.6,13.8-10.4c0.1,0.2-5.8,5.1-13.3,11.1
				C631.5,276.9,625.4,281.5,625.2,281.3z"/>
			<path class="st8" d="M648.7,282.3c-0.6,0.1-1.3,0.2-1.9,0.3l-5.2,0.4c-4.5,0.4-10.6,0.8-17.4,1.2h-0.6l0.2-0.5
				c0-0.2,0.1-0.4,0.2-0.6c1.8-5.7,4.2-11.2,7.4-16.3c1.2-1.9,2.3-3.4,3.1-4.5c0.4-0.5,0.8-1,1.3-1.5c-0.3,0.6-0.7,1.1-1.1,1.7
				c-0.7,1.1-1.7,2.6-2.9,4.6c-3,5.1-5.5,10.5-7.2,16.2l-0.2,0.6l-0.4-0.5c6.8-0.4,12.9-0.8,17.4-1l5.2-0.2
				C647.4,282.1,648.1,282.2,648.7,282.3z"/>
			<path class="st8" d="M816.2,375.1c0.4-1.1,0.8-2.1,1.3-3.1c9.4-22.4,3.2-48.2-15.2-64c-2.3-2-4.8-3.9-7.4-5.5
				c-1.9-1.1-3-1.7-3-1.8c0.3,0.1,0.5,0.2,0.8,0.4c0.5,0.3,1.3,0.6,2.2,1.2c2.7,1.5,5.3,3.3,7.7,5.3c3.6,3,6.7,6.4,9.4,10.1
				c3.3,4.6,5.9,9.7,7.7,15.1c3.2,9.9,3.5,20.4,1,30.5c-0.7,3-1.7,6-3,8.8c-0.4,1-0.9,1.8-1.1,2.3
				C816.5,374.6,816.3,374.9,816.2,375.1z"/>
			<path class="st8" d="M829.9,366.7c-1.2,1.2-2.5,2.4-3.9,3.4l-4.5,3.6l-2.6,2.1c-0.9,0.9-2.1,1.5-3.4,1.7
				c-0.8-0.1-1.4-0.5-1.7-1.2c-0.3-0.6-0.5-1.1-0.6-1.8c-0.3-1.1-0.5-2.2-0.8-3.2c-0.5-2-1-3.9-1.3-5.5c-0.5-1.7-0.8-3.4-1.1-5.1
				c0.7,1.6,1.2,3.3,1.6,5c0.5,1.6,1,3.5,1.5,5.4c0.3,1,0.6,2.1,0.9,3.2c0.3,1.1,0.6,2.3,1.7,2.4c1.1-0.2,2.1-0.7,2.9-1.5l2.7-2
				l4.5-3.4C826.9,368.6,828.3,367.6,829.9,366.7z"/>
			<path class="st8" d="M450.7,276.3c0,0.2-14.8,4.2-33.1,8.8c-18.3,4.7-33.3,8.3-33.3,8.1c-0.1-0.2,14.8-4.1,33.1-8.8
				C435.8,279.7,450.7,276.1,450.7,276.3z"/>
			<path class="st8" d="M460.3,284.2c0,0.2-16.2,4.9-36.4,10.5s-36.6,10-36.6,9.8s16.2-4.9,36.4-10.6
				C443.9,288.3,460.3,284,460.3,284.2z"/>
			<path class="st8" d="M466.2,297.2c0,0.2-15.5,4.1-34.8,8.8s-35,8.2-35,8s15.5-4.1,34.8-8.7C450.4,300.6,466.1,297,466.2,297.2z"
				/>
			<polygon class="st6" points="383.7,433.4 395.6,495.9 513.7,473.6 493.2,412.7 			"/>
			
				<rect x="385.5" y="422.8" transform="matrix(0.9825 -0.186 0.186 0.9825 -76.158 90.1684)" class="st7" width="113.9" height="56.3"/>
			<path class="st8" d="M503.7,468.1c0,0-0.1-0.3-0.2-1s-0.3-1.6-0.6-2.9c-0.5-2.6-1.2-6.3-2.2-11c-1.9-9.6-4.5-23.4-7.8-40.4
				l0.3,0.2l-111.9,21.3l0,0l0.3-0.5c3.7,19.5,7.2,38.2,10.4,55.4l-0.4-0.3l80.3-15l23.2-4.3l6.2-1.1l1.6-0.3L503.7,468.1
				c-0.2,0-0.4,0.1-0.6,0.1l-1.5,0.3l-6.1,1.2l-23.1,4.5l-80.5,15.4h-0.4v-0.4c-3.2-17.1-6.8-35.9-10.5-55.4l-0.1-0.4l0.4-0.1l0,0
				l111.9-21.1h0.3v0.3l7.5,40.6c0.9,4.8,1.5,8.5,2,11c0.2,1.2,0.4,2.2,0.5,2.8C503.7,467.8,503.7,468.1,503.7,468.1z"/>
			
				<rect x="397.4" y="440.8" transform="matrix(0.9825 -0.186 0.186 0.9825 -77.7079 84.8077)" class="st7" width="31.5" height="31.5"/>
			<path class="st8" d="M431.5,469.1c-0.1-0.2-0.1-0.4-0.1-0.6c-0.1-0.5-0.2-1-0.4-1.7c-0.3-1.5-0.7-3.6-1.3-6.3
				c-1.1-5.5-2.6-13.1-4.5-22.3l0.4,0.3l-30.9,6c-0.1,0.1,0.6-0.9,0.3-0.5l0,0v0.1v0.1v0.2l0.1,0.5l0.2,1.1l0.4,2.1
				c0.2,1.4,0.5,2.8,0.8,4.1c0.5,2.7,1,5.4,1.5,8c1,5.2,1.9,10.1,2.7,14.6l-0.4-0.3l22.3-4.1l6.3-1.1l1.9-0.2
				C431,469.1,431.2,469.1,431.5,469.1c-0.2,0.1-0.4,0.1-0.6,0.2l-1.6,0.4l-6.2,1.3l-22.5,4.5h-0.3V475l-2.8-14.6
				c-0.5-2.6-1-5.3-1.5-8c-0.2-1.4-0.5-2.8-0.8-4.1l-0.4-2.1l-0.2-1.1l-0.1-0.5v-0.3v-0.2l0,0l0.3-0.5l30.9-5.8h0.3v0.3
				c1.7,9.3,3.1,17,4.1,22.6c0.5,2.6,0.8,4.8,1.1,6.3c0.1,0.7,0.2,1.2,0.3,1.6C431.6,468.8,431.5,468.9,431.5,469.1z"/>
			<path class="st8" d="M431.5,469.1c0,0-0.2-0.8-0.6-2.2c-0.6-2-1.7-3.8-3.3-5.2l0,0c-1.1-1-2.4-1.8-3.8-2.3
				c-1.7-0.6-3.4-0.8-5.2-0.6h-0.7l0.4-0.6c1.3-2.3,1.5-5.1,0.3-7.4c-0.6-1.3-1.5-2.4-2.7-3.1c-1.3-0.7-2.7-1.1-4.2-1
				c-1.7,0.1-3.3,0.6-4.6,1.7c-1.2,1-2.1,2.4-2.4,3.9c-0.6,2.9,0.3,5.8,2.5,7.7l0.4,0.3l-0.4,0.2c-1.9,1.2-3.5,2.8-4.7,4.8
				c-0.9,1.5-1.5,3.2-1.8,4.9c-0.2,1.5-0.2,3-0.1,4.5c-0.1-0.4-0.2-0.8-0.3-1.2c-0.1-1.1-0.1-2.3,0-3.4c0.2-1.8,0.8-3.5,1.7-5.1
				c1.1-2.1,2.8-3.8,4.8-5.1v0.5c-2.5-2-3.5-5.3-2.9-8.4c0.3-1.7,1.3-3.2,2.6-4.3c1.4-1.1,3.2-1.8,5-1.9c1.6-0.1,3.2,0.3,4.6,1.1
				c1.3,0.8,2.3,2,3,3.4c1.2,2.6,1.1,5.6-0.4,8.1l-0.3-0.5c1.9-0.2,3.7,0.1,5.5,0.7c1.5,0.6,2.8,1.4,4,2.5l0,0
				c1.6,1.5,2.8,3.4,3.3,5.5c0.1,0.6,0.2,1.1,0.3,1.7C431.5,468.9,431.5,469.1,431.5,469.1z"/>
			<path class="st7" d="M437.5,437l26.8-5.1"/>
			<path class="st8" d="M464.3,432c-4.4,1.2-8.9,2.2-13.4,3c-4.5,1-9,1.7-13.5,2.2c4.4-1.2,8.9-2.2,13.4-3
				C455.3,433.2,459.8,432.4,464.3,432z"/>
			<path class="st7" d="M438.6,443.3l5.4-1"/>
			<path class="st8" d="M444.1,442.3c0,0.2-1.1,0.6-2.6,0.9c-1.5,0.3-2.8,0.3-2.8,0.1c0-0.2,1.1-0.6,2.6-0.9
				C442.8,442.1,444,442,444.1,442.3z"/>
			<path class="st8" d="M488.7,445c0,0.2-10.7,2.4-23.9,4.9s-24,4.4-24.1,4.2c0-0.2,10.7-2.4,23.9-4.9
				C477.9,446.7,488.6,444.8,488.7,445z"/>
			<path class="st8" d="M490,450.4c0,0.2-10.7,2.4-24,5s-24.2,4.5-24.2,4.2s10.7-2.4,24.1-4.9C479.1,452.1,489.9,450.2,490,450.4z"
				/>
			<path class="st8" d="M490.4,456.8c-0.6,0.2-1.2,0.4-1.8,0.5l-5.1,1.1c-4.3,0.9-10.2,2-16.7,3.3c-6.5,1.2-12.5,2.3-16.8,3.1
				l-5.1,0.8c-0.6,0.1-1.2,0.2-1.9,0.2c0.6-0.2,1.2-0.4,1.8-0.5l5.1-1.1c4.3-0.9,10.2-2,16.8-3.3c6.5-1.2,12.5-2.3,16.8-3.1l5.1-0.9
				C489.1,456.9,489.7,456.8,490.4,456.8z"/>
			<path class="st3" d="M441.6,431c0.1-0.1,0.2-0.1,0.3-0.2l0.9-0.5c1.2-0.6,2.4-1.1,3.6-1.5c4.6-1.5,9.5-1.9,14.2-1.3
				c3.3,0.4,6.5,1.3,9.5,2.7c1.7,0.8,3.2,2,4.4,3.5c1.3,1.6,1.8,3.7,1.3,5.8c-0.6,2-1.9,3.8-3.7,5c-1.7,1.3-3.6,2.4-5.5,3.3
				c-4,2-8.3,3.5-12.8,4.4c-4.5,0.9-9.1,0.9-13.5-0.2c-2.1-0.5-4.1-1.3-6-2.5c-1.8-1.1-3.3-2.8-4.1-4.8c-0.7-2-0.5-4.2,0.6-6
				c1-1.6,2.3-3,3.8-4.1c2.7-2,5.6-3.5,8.7-4.7c4.5-1.7,9.3-2.6,14.1-2.5c1.3,0,2.6,0.1,3.9,0.3l1,0.1l0.3,0.1h-0.3l-1-0.1
				c-0.9-0.1-2.2-0.1-3.9-0.1c-4.8,0.1-9.4,1-13.9,2.7c-3,1.2-5.9,2.8-8.5,4.7c-1.5,1.1-2.7,2.4-3.6,3.9c-1,1.6-1.2,3.5-0.6,5.3
				c0.8,1.8,2.1,3.4,3.8,4.4c1.8,1.1,3.7,1.9,5.8,2.4c4.3,1,8.8,1.1,13.1,0.2c4.4-0.9,8.6-2.3,12.6-4.3c1.9-0.9,3.7-1.9,5.4-3.2
				c1.6-1.1,2.8-2.8,3.4-4.6c0.4-1.8,0-3.7-1.2-5.2c-1.1-1.4-2.5-2.5-4.1-3.3c-2.9-1.4-6.1-2.4-9.3-2.8c-4.7-0.6-9.5-0.3-14,1.1
				c-1.3,0.4-2.5,0.9-3.8,1.4l-0.9,0.4C441.7,430.9,441.6,431,441.6,431z"/>
			<path class="st3" d="M473.6,430.2c2.5-2.5,5.1-4.8,8-7c2.6-2.3,5.5-4.5,8.4-6.4c-2.5,2.5-5.1,4.8-8,7
				C479.4,426.1,476.6,428.2,473.6,430.2z"/>
			<path class="st3" d="M483.7,428.8c-3,1-6.1,1.8-9.3,2.3l-1.1,0.2l-0.6,0.1l0.1-0.6c0.6-2.8,1.7-5.4,3.4-7.7
				c0.2,0.1-1.5,3.4-2.6,7.9l-0.5-0.5l1.1-0.2C477.3,429.6,480.5,429.1,483.7,428.8z"/>
			<path class="st3" d="M467,435.6c-4.9,1.1-9.8,2-14.7,2.6c-4.9,0.9-9.9,1.5-14.9,1.9c4.9-1.1,9.8-2,14.7-2.7
				C457,436.6,462,435.9,467,435.6z"/>
			<path class="st3" d="M433.5,423.7c0.7,3.7-1.8,7.3-5.5,8c-3.7,0.7-7.3-1.8-8-5.5c-0.7-3.7,1.7-7.3,5.5-8
				C429.1,417.5,432.7,419.9,433.5,423.7L433.5,423.7z"/>
			<path class="st8" d="M426.7,431.9c-3.8,0-6.9-3.1-6.9-6.9c0-1.4,0.4-2.7,1.2-3.9c1-1.6,2.6-2.6,4.5-3c0.4-0.1,0.9-0.1,1.3-0.1
				c3.3,0,6.2,2.4,6.8,5.6l0,0c0.7,3.7-1.8,7.4-5.5,8.1C427.6,431.8,427.1,431.8,426.7,431.9z M426.7,418.1c-0.4,0-0.9,0-1.3,0.1
				c-3.7,0.7-6.1,4.3-5.4,8c0.7,3.7,4.3,6.1,8,5.4c3.7-0.7,6.1-4.3,5.4-8l0,0C432.8,420.5,430,418.1,426.7,418.1L426.7,418.1z"/>
		</g>
		<g id="freepik--Plants--inject-8">
			<path class="st3" d="M958.6,642.2c6.2-3.2,13.5-3.6,20.4-2.5c3.7,0.6,7.6,1.7,10.1,4.5s3,7.7,0.1,10c-1.9,1.3-4.1,1.8-6.3,1.6
				c-5.4,0-11.4-1-15.7,2.2c-2.5,1.8-4.1,4.9-7,5.8c-3,0.7-6.1-0.7-7.7-3.4c-1.4-2.7-1.7-5.8-0.9-8.8
				C952.3,647.7,954.9,644.2,958.6,642.2z"/>
			<path class="st3" d="M944.4,614.8c3.8,5.4,11.2,3.6,14.6,0.3c3.4-3.3,4.9-8.1,6.2-12.7c3-10.4,6-21.4,3.8-32
				c-0.5-3.2-2-6.2-4.1-8.7c-2.2-2.5-5.5-3.6-8.8-3c-3.7,1-6,4.6-7.7,8.1c-4.9,10.2-7.5,21.4-7.5,32.7
				C940.8,604.9,941.4,610.4,944.4,614.8"/>
			<path class="st3" d="M934,622.6c4.1-4.9,4.9-12,3.1-18.1c-2.1-6.1-5.8-11.5-10.8-15.6c-5.6-5-12.2-8.8-19.2-11.3
				c-2.7-1.1-5.7-1.6-8.6-1.5c-3,0.2-5.7,1.8-7.3,4.4c-2,3.8,0,8.5,2,12.4c3.7,6.7,7.9,13.1,12.7,19.2c3.8,4.9,8.1,9.7,13.9,11.9
				c5.8,2.2,11.8,2,14.9-2"/>
			<path class="st8" d="M944.1,696.5c0.2-0.8,0.3-1.6,0.3-2.5c0.2-1.8,0.4-4,0.7-6.7c0.3-3.3,0.8-6.6,1.5-9.9
				c0.9-4,2.1-7.8,3.6-11.6c1.5-3.8,3.5-7.3,6-10.5c2-2.6,4.5-4.7,7.4-6.2c2-1,4.1-1.7,6.3-2c0.8,0,1.6-0.2,2.4-0.3
				c-0.8-0.1-1.7-0.1-2.5,0c-2.3,0.2-4.5,0.8-6.6,1.7c-3.1,1.5-5.8,3.6-7.9,6.3c-2.6,3.2-4.7,6.9-6.2,10.7
				c-1.5,3.8-2.7,7.8-3.6,11.8c-0.6,3.3-1.1,6.6-1.3,10c-0.2,2.9-0.3,5.2-0.3,6.8C943.9,694.9,944,695.7,944.1,696.5z"/>
			<path class="st8" d="M944.6,691.3c0.1-0.4,0.1-0.8,0.1-1.2c0-0.8,0-1.9,0-3.3c0-2.8,0-6.9,0.2-12c0.2-10.1,1.1-21,2.8-36.4
				c1.6-14.5,3.7-31.2,6-42.2c0.5-2.5,1-4.7,1.5-6.7s0.8-3.7,1.2-5c0.4-1.4,0.5-2.3,0.8-3.2c0.1-0.4,0.2-0.8,0.2-1.1
				c-0.2,0.3-0.3,0.7-0.4,1.1c-0.2,0.8-0.6,1.9-1,3.1c-0.4,1.3-0.8,3-1.3,5s-1.1,4.2-1.6,6.7c-2.8,12.9-4.9,26-6.3,39.2
				c-1.7,15.4-2.5,29.4-2.5,39.6c0,5.1,0,9.2,0.2,12c0,1.3,0.1,2.4,0.2,3.3C944.5,690.6,944.5,691,944.6,691.3z"/>
			<path class="st8" d="M944.6,664.3c0.1-1.1,0.1-2.3,0-3.4c-0.2-3.1-0.5-6.2-1-9.2c-0.7-4.5-1.7-9-3-13.4
				c-1.5-5.4-3.3-10.8-5.6-15.9c-3.9-9.5-9.5-18.2-16.5-25.8c-1.2-1.3-2.5-2.5-3.9-3.6c-0.6-0.5-1.1-1-1.7-1.4l-1.5-1
				c-0.9-0.7-1.9-1.3-2.9-1.8c3.3,2.6,6.5,5.4,9.4,8.4c6.8,7.6,12.3,16.2,16.1,25.7c2.2,5.1,4.1,10.3,5.6,15.7
				c1.3,4.4,2.3,8.9,3.2,13.4c0.7,3.8,1.1,7,1.4,9.2C944.2,662.1,944.4,663.2,944.6,664.3z"/>
		</g>
		<g id="freepik--character-2--inject-8">
			<path class="st8" d="M772.4,264.2c0,8.8,11.6,14.6,11.2,23.4c-0.2,3.8-2.7,7.1-3.2,10.9c-0.8,5,1.9,9.9,2.8,14.9
				c1.8,10.4-4.5,21-13.5,26.4c-9.1,5.3-20.2,6-30.6,4.3"/>
			<path class="st8" d="M701.4,259.7c0.2,4.8-3.1,8.9-6.3,12.3c-3.3,3.4-6.9,7.1-7.7,11.7c-1.5,8.3,6.4,16.4,4.5,24.5
				c-1,4.4-4.8,7.8-5.6,12.3c-0.8,4.5,1.5,8.6,4.2,12s6.1,3,8.5,6.6c2.8,4.1,6.5,7.5,10.7,10.1c8.9,5.3,20.2-1.6,24.7-2.8"/>
			<path class="st8" d="M774,269.3c0.2-4.3-3.6-7.8-7.6-9.5c-3.9-1.7-8.4-2.4-11.9-5c-3.1-2.2-5.1-5.6-7.7-8.4
				c-9.9-10.7-26.7-11.4-37.4-1.5c-3.6,3.3-6.2,7.5-7.5,12.2c-1.7,6.1-0.9,13.4,3.8,17.6c5.5,4.9,13.8,4.1,21,2.9
				c7.2-1.2,15.4-2.4,21.2,2c3.5,2.7,5.5,6.9,7.6,10.8c2.1,3.9,4.7,7.9,8.9,9.5s9.9-0.7,10.2-5.1"/>
			<path class="st10" d="M757.7,267.7l-37.8-11c-12.2-1.7-20.8,13.1-22,25.3c-1.3,13.6-2.4,30.3-1.2,40.5
				c2.6,20.6,18.1,23.7,18.1,23.7s-0.2,6-0.4,13.3c-0.4,11.9,8.9,22,20.8,22.6l0,0c12,0.6,22.2-8.5,23-20.5l5.6-86.4
				C764,271.5,761.3,268.3,757.7,267.7z"/>
			<path class="st8" d="M700.4,297c-0.1,1.4,1,2.6,2.4,2.7c1.4,0.1,2.6-0.9,2.8-2.2c0,0,0,0,0,0c0.1-1.4-1-2.6-2.4-2.7
				C701.8,294.6,700.6,295.6,700.4,297C700.4,296.9,700.4,297,700.4,297z"/>
			<path class="st8" d="M700.5,292.8c0.3,0.4,2.3-1.1,5.2-0.9c2.8,0.1,4.8,1.6,5.2,1.3c0.3-0.3-0.2-0.8-1-1.5
				c-1.2-0.9-2.6-1.4-4.1-1.5c-1.5,0-2.9,0.4-4.1,1.2C700.6,292,700.3,292.6,700.5,292.8z"/>
			<path class="st8" d="M727.9,297.7c-0.1,1.4,1,2.6,2.4,2.7c1.4,0.2,2.6-0.8,2.8-2.2c0,0,0-0.1,0-0.1c0.1-1.4-1-2.6-2.4-2.7
				C729.3,295.3,728.1,296.3,727.9,297.7C727.9,297.7,727.9,297.7,727.9,297.7z"/>
			<path class="st8" d="M728.2,294.2c0.3,0.4,2.3-1,5.2-0.9c2.8,0.1,4.8,1.6,5.2,1.2c0.3-0.3-0.2-0.8-1-1.5
				c-1.2-0.9-2.6-1.4-4.1-1.5c-1.5,0-2.9,0.4-4.1,1.2C728.4,293.5,728,294.1,728.2,294.2z"/>
			<path class="st8" d="M717.2,314.8c-1.5-0.5-3-0.9-4.5-1c-0.7-0.1-1.4-0.3-1.5-0.8c0-0.7,0.2-1.5,0.5-2.1l2.3-5.4
				c3.2-7.7,5.6-14.1,5.3-14.2s-3.2,6-6.4,13.7l-2.2,5.5c-0.5,0.9-0.7,1.9-0.5,2.8c0.2,0.5,0.6,0.9,1.2,1.1c0.4,0.1,0.8,0.2,1.2,0.2
				C714.1,314.9,715.7,315,717.2,314.8z"/>
			<path class="st11" d="M714.8,346.2c9.5,0.7,19-1.5,27.4-6.1c-0.2,0-8,14-27.5,11.2L714.8,346.2z"/>
			<path class="st12" d="M718.2,321.7c1.1-1.3,2.9-2,4.6-1.7c1.2,0.2,2.4,0.8,3.2,1.8c0.7,1,0.8,2.3,0.1,3.4c-1,1-2.4,1.3-3.7,0.8
				c-1.3-0.5-2.5-1.3-3.5-2.3c-0.3-0.2-0.6-0.5-0.8-0.9c-0.2-0.3-0.2-0.7,0-1"/>
			<path class="st8" d="M725.4,317.1c-0.5,0-0.6,3-3.3,5.1c-2.7,2.1-6,1.6-6,2.1c0,0.2,0.7,0.6,2.1,0.7c1.8,0.1,3.6-0.4,5-1.5
				c1.4-1,2.3-2.6,2.5-4.3C726,317.8,725.7,317.1,725.4,317.1z"/>
			<path class="st8" d="M727.1,289.3c0.2,0.8,3.1,0.5,6.4,1c3.3,0.5,6,1.5,6.4,0.8c0.2-0.3-0.2-1.1-1.3-1.8c-1.4-1-3-1.6-4.7-1.8
				c-1.7-0.3-3.4-0.1-5,0.4C727.6,288.3,727,288.9,727.1,289.3z"/>
			<path class="st8" d="M701.8,284.7c0.5,0.6,2.4,0,4.8,0.1s4.3,0.6,4.8-0.1c0.2-0.3-0.1-1-0.9-1.6c-1.1-0.8-2.5-1.2-3.8-1.2
				c-1.4,0-2.7,0.4-3.8,1.2C701.9,283.7,701.6,284.3,701.8,284.7z"/>
			<path class="st8" d="M763.5,338.3c-5.7,1-6.1-1.9-10.2-6c-4.1-4.1-6-10-5.2-15.8c0.8-5,3.7-10,2.1-14.9
				c-2.1-6.4-10.9-8.6-13-14.9c-1.2-3.7,0.1-7.9-1.3-11.5s-4.8-5.5-8.2-6.8c-3.4-1.4-7.1-2.3-9.9-4.7c-2.8-2.3-4.5-6.6-2.5-9.7
				c15.2,2.3,30.1,6.4,44.3,12.3c3.3,1.4,6.8,3,8.6,6c1.9,3,1.8,7.3,1.5,11c-1.5,18.3-2.9,36.7-4.3,55"/>
			<path class="st8" d="M777.7,297c1.1-8.6,9-14.7,17.6-13.6c5.4,0.7,10,4.1,12.3,9.1c2.7,5.9,1.5,12.9-1.4,18.6
				c-3.4,6.9-10,13-17.7,12.4c-7.2-0.5-12.8-7-14.6-14c-1.8-7-0.8-14.3,0.3-21.5"/>
			<path class="st9" d="M780.8,325.2c0.5-0.3,0.8-0.7,1.1-1.1c0.8-1.2,1.4-2.6,1.7-4c0.3-2.1,0.3-4.3,0-6.5c-0.3-2.4-1.1-5-1.6-7.7
				c-0.6-2.5-0.7-5.1-0.2-7.6c0.5-2.3,1.6-4.2,2.2-6c0.5-1.4,0.6-2.9,0.3-4.4c-0.1-0.6-0.3-1.1-0.8-1.5c0,0,0.2,0.5,0.4,1.5
				c0.2,1.4,0,2.8-0.5,4.1c-0.9,1.9-1.7,3.9-2.3,6c-0.5,2.6-0.5,5.3,0.1,7.9c0.5,2.8,1.3,5.3,1.6,7.6c0.4,2.1,0.4,4.2,0.2,6.2
				C782.6,321.7,781.9,323.5,780.8,325.2z"/>
			<path class="st9" d="M781.9,300.6c0.8,1.3,1.8,2.3,3,3.2c5.9,4.5,13.9,4.9,20.2,1c1.3-0.7,2.5-1.7,3.3-2.9
				c-0.1-0.1-1.3,1-3.7,2.3c-3,1.6-6.5,2.4-9.9,2.3c-3.4-0.2-6.8-1.3-9.6-3.2C783.1,301.8,782,300.5,781.9,300.6z"/>
			<path class="st9" d="M782.8,303.9c0.3,1.2,0.9,2.3,1.6,3.3c3.4,5,8.6,8.3,14.5,9.4c1.2,0.3,2.4,0.3,3.6,0.1
				c-1.2-0.3-2.3-0.6-3.5-0.8c-5.6-1.4-10.6-4.6-14.2-9.1C784.3,305.7,783.5,304.8,782.8,303.9z"/>
			<path class="st9" d="M776.7,331.9c0,0,0.1-0.1,0.2-0.2c0.2-0.3,0.4-0.5,0.5-0.8c0.7-1.1,1.2-2.3,1.5-3.5c0.4-2,0.4-4.1-0.1-6
				c-0.7-2.7-2.3-5-4.5-6.6c-2.4-1.8-5.5-3.1-7.4-5.9c-1-1.4-1.3-3.2-1-4.9c0.5-1.8,1.1-3.6,2-5.2c1.7-3.9,1.8-8.3,0.1-12.2
				c-0.9-2.1-2.2-3.9-4-5.3c-1.8-1.4-4-2.3-6.2-2.8c-2.2-0.6-4.5-0.9-6.4-1.6c-2-0.6-3.8-1.7-5.3-3.1c-1.3-1.5-2.1-3.4-2.2-5.4
				c-0.1-2-0.4-4-0.8-6c-0.8-3.7-2.6-7.1-5.2-9.8c-2.3-2.4-5.3-4-8.5-4.6c-2.7-0.5-5.5-0.2-7.9,0.9c-1.9,0.9-3.5,2.2-4.7,3.8
				c-0.8,1-1.3,2.2-1.7,3.4c-0.1,0.4-0.2,0.9-0.2,1.3c0.5-1.6,1.2-3.1,2.2-4.5c2.9-3.7,7.7-5.3,12.2-4.3c3.1,0.6,5.9,2.2,8.1,4.5
				c2.5,2.7,4.2,5.9,4.9,9.5c0.4,2,0.6,4,0.7,6c0.1,2.2,0.9,4.3,2.4,5.9c1.6,1.6,3.5,2.8,5.7,3.4c2.1,0.7,4.3,1.1,6.5,1.6
				c2.1,0.4,4.1,1.4,5.9,2.6c1.6,1.3,2.9,3,3.7,4.9c1.6,3.7,1.6,7.9-0.1,11.6c-0.8,1.7-1.5,3.5-2,5.4c-0.4,1.9,0,3.8,1.1,5.4
				c2.1,3,5.4,4.2,7.7,6c2.2,1.5,3.8,3.6,4.5,6.2c0.6,1.9,0.7,3.9,0.3,5.9C778.3,329,777.6,330.5,776.7,331.9z"/>
			<path class="st9" d="M777.2,274.7c0.2-0.3,0.2-0.6,0.3-0.9c0.1-0.9-0.1-1.9-0.6-2.7c-0.8-1.3-1.9-2.4-3.3-3
				c-1.9-0.7-3.9-0.8-5.9-0.4c-2.2,0.3-4.5,1.1-6.9,1.5c-2.5,0.6-5.2,0.1-7.4-1.4c-2.1-1.7-3.1-4.6-4.1-7.4c-1-3.1-2.5-6-4.5-8.6
				c-3.7-5.1-9.1-8.8-15.2-10.5c-2.7-0.7-5.5-0.7-8.2,0c-2.3,0.6-4.5,1.9-6.1,3.7c-1.4,1.5-2.2,3.4-2.4,5.3c-0.2,1.5,0,3,0.5,4.5
				c0.3,0.9,0.8,1.7,1.5,2.4c0.2,0.2,0.5,0.5,0.7,0.6c-0.8-0.9-1.5-2-1.9-3.1c-1.1-3.2-0.3-6.7,2-9.2c1.6-1.7,3.6-2.8,5.8-3.4
				c2.6-0.6,5.2-0.6,7.8,0.1c5.9,1.7,11,5.3,14.6,10.2c1.9,2.5,3.3,5.3,4.3,8.3c1,2.9,2,5.9,4.5,7.9c1.2,0.9,2.5,1.5,4,1.6
				c1.3,0.1,2.7,0.1,4-0.1c2.5-0.4,4.8-1.3,6.8-1.6c1.8-0.4,3.8-0.4,5.6,0.2c1.3,0.5,2.5,1.4,3.2,2.6c0.5,0.8,0.7,1.6,0.7,2.5
				C777.3,274.4,777.1,274.7,777.2,274.7z"/>
			<path class="st10" d="M612.7,435c0,0-11.3-17.7-13.3-19.2s-19.6-7.6-21-7.1s-22.6,4.5-20.1,7c2.5,2.5,17.2-0.5,17.2-0.5l2,1
				c0,0-12.7,2.2-15.4,3.9c-2.4,1.5-1.5,4.5,0.8,4.2c2.3-0.3,13.4-2.6,14-2.2c0.7,0.4-12,3.2-13.4,4c-1.8,1.1-2,4.5,0.4,4.2
				c1.4-0.1,13.3-3.4,13.3-3.4s-9.5,3.8-10.3,4.7c-1.4,1.4-0.2,3.4,1.8,3c1.4-0.3,8.1-3.7,10-4.1c0,0,1.8,0.5,3.4,4
				c0.8,1.7,4.4,12,10.6,11.8c5.5-0.2,11,4.2,11,4.2L612.7,435z"/>
			<path class="st11" d="M558.2,415.6c1.2,0.6,2.5,0.9,3.9,1c1.5,0.2,2.9,0.2,4.4,0.1c1.6-0.2,3.4-0.5,5.2-0.8l3.9-0.6h-0.2
				c3,1.2,6,2.1,9.2,2.7c-2.9-1.5-5.9-2.7-8.9-3.6h-0.1h-0.1l-3.9,0.6l-5.2,0.9c-1.4,0.1-2.8,0.2-4.2,0.1
				C559.8,415.8,558.3,415.5,558.2,415.6z"/>
			<path class="st13" d="M714.4,371c0,0-12,7.3-16.4,16.3c-4.4,9-27.5,69.2-27.5,69.2l-57.9-28.7l-14.5,24.8l54.6,43.4
				c7.2,4.5,15.8,6.3,24.3,5l0,0c13.1-2,19.5-2.3,24-14.7l14.5-40.2l-3.1-73.7"/>
			<g class="st4">
				<path d="M698.2,406.2c-13.4,19.3-15.6,28.5-17,52c-0.5,7.8,0,16.2,4.6,22.4c1.7,2.3,5,4.2,7.2,2.4s0.6-5-0.1-7.7
					c-4.2-15.8-5.6-27.9-2.7-41.8c3-13.9,2.2-13.6,7.9-26.6"/>
			</g>
			<path class="st8" d="M677.5,480.6c-0.5-8.5-3-16.8-7.3-24.1c0.9,0.9,1.6,1.9,2.2,3.1c3.1,5.3,4.8,11.2,5.2,17.3
				C677.8,478.1,677.8,479.4,677.5,480.6z"/>
			<path class="st13" d="M696.7,550.5L688.2,696h138.7c0,0-4.1-72.9-9.3-104c-5.4-55-22.6-63.2-34.6-89.7l6.8-128.8l-29.3-13.6
				l-1.2-6.8l-45.6,5.5l-1.3,13.7c0,0-4.2,12.1-6.5,18.3c-7.3,19.3-17.4,42.6-15.9,59.5c0.7,7.7,11.2,58.8,11.2,58.8l-4.1,41.3
				L696.7,550.5z"/>
			<path class="st8" d="M707.6,383.7c-0.1,0.4-0.2,0.8-0.4,1.1c-0.3,0.8-0.7,1.8-1.2,3.1c-1,2.7-2.7,6.6-4.6,11.5
				s-4.3,10.6-6.5,17.2c-2.3,7.1-4,14.4-5,21.9c-1.1,7.4-1,14.9,0.2,22.3c1.2,6.8,3,12.8,4.2,17.9s2,9.3,2.4,12.2
				c0.2,1.4,0.3,2.5,0.4,3.4c0.1,0.4,0.1,0.8,0.1,1.2c-0.1-0.4-0.2-0.8-0.2-1.1c-0.2-0.8-0.3-1.9-0.6-3.3c-0.5-2.9-1.3-7-2.7-12.1
				s-3.1-11-4.4-17.9c-1.3-7.5-1.4-15.1-0.3-22.5c1-7.5,2.6-14.8,5-22c2.2-6.6,4.6-12.4,6.6-17.2l4.9-11.4c0.5-1.3,1-2.3,1.3-3.1
				C707.2,384.4,707.3,384.1,707.6,383.7z"/>
			<g class="st4">
				<path d="M701.9,517.5c-1.5,7.1,4.3,14.1,11.1,16.7c6.8,2.5,14.4,1.7,21.6,0.9l50.3-6c2.7-0.3,5.8-0.9,6.9-3.4
					c0.5-1.4,0.5-2.9,0-4.3c-1.4-4.1-4.5-7.5-8.5-9.3c-4-1.8-8.2-2.9-12.5-3.1c-17.3-1.7-34.7,1.3-51.9,4.5"/>
			</g>
			<path class="st10" d="M662.7,492l12.8,1.2l5.6,2.8c0,0-1.3-1.5-2.5-2.9c-1.8-1.7-3.7-3.3-5.7-4.7l-9.5-1c0,0-5.4-0.4-5.7-4.1
				l7.3-0.7c0,0-7.5-0.5-7.4-4.3l5.5-1c-1,0-1.7-0.8-1.8-1.7c0-0.1,0-0.2,0-0.3l15.3-1.7l14.5,10.3l14,12.4l3.2,0.1l1.1,20.3
				c0,0-12.5-1.5-15.9-3.2c-3.4-1.7-18.5-15.3-18.5-15.3s-7.9-0.7-10.1-2.6C663.7,494.8,662.9,493.5,662.7,492z"/>
			<path class="st11" d="M712.5,517.1h-0.2h-0.6l-2.3-0.2c-2-0.2-4.9-0.6-8.7-1.2c-2.1-0.3-4.1-0.8-6.2-1.4c-1.2-0.4-2.2-1-3.2-1.8
				c-1-0.7-2-1.5-3-2.4c-4.2-3.4-8.7-7.3-13.6-11.7l0.2,0.1c-2.4-0.2-4.8-0.6-7.2-1.2c-0.6-0.2-1.2-0.4-1.8-0.6
				c-0.3-0.1-0.6-0.3-0.9-0.5l-0.4-0.3l-0.4-0.3c-0.5-0.5-0.9-1-1.3-1.6c-0.4-0.6-0.6-1.3-0.7-2v-0.4h0.4l12.8,1.1l0,0l0,0l5.6,2.8
				l-0.4,0.5l-1.8-2.1l-0.9-1c-0.3-0.3-0.6-0.6-1-0.9c-1.4-1.2-3-2.4-4.5-3.5l0.2,0.1l-5.7-0.6l-3-0.3c-0.5,0-1-0.1-1.5-0.2
				c-0.5-0.1-1-0.2-1.5-0.4c-0.9-0.3-1.8-0.7-2.5-1.4c-0.8-0.7-1.2-1.6-1.3-2.6v-0.4h0.3l7.3-0.7v0.7c-1.6-0.1-3.2-0.5-4.7-1.1
				c-0.8-0.3-1.5-0.7-2.1-1.3c-0.6-0.6-1-1.5-1-2.3v-0.3h0.3l5.8-0.9v0.7c-0.6-0.1-1.2-0.3-1.6-0.7c-0.5-0.4-0.7-1.1-0.6-1.7V475
				h0.3l15.1-1.8h0.1l0.1,0.1l14.7,10.3l0,0c5.4,4.8,10.1,8.9,14,12.5h-0.1l13,0.7l3.4,0.2l0.9,0.1c0.2,0,0.3,0,0.3,0h-1.2L718,497
				l-13-0.5l0,0l0,0L690.8,484l0,0l-14.5-10.3h0.2l-15.1,1.9l0.3-0.3c0,0.4,0.1,0.9,0.4,1.2c0.3,0.3,0.8,0.5,1.2,0.5l2.5,0.3
				l-2.5,0.4l-5.8,0.9l0.3-0.3c0,0.7,0.3,1.3,0.8,1.8c0.5,0.5,1.2,0.9,1.8,1.1c1.4,0.5,2.9,0.9,4.5,1v0.7l-7.3,0.7l0.3-0.4
				c0.1,0.8,0.5,1.6,1.1,2.1c0.7,0.6,1.4,1,2.3,1.2c0.5,0.2,0.9,0.3,1.4,0.3c0.5,0.1,1,0.1,1.5,0.2l3,0.3l5.7,0.6h0.1h0.1
				c1.6,1.1,3.1,2.3,4.5,3.6c0.4,0.3,0.7,0.6,1,1l0.9,1.1l1.8,2l1.2,1.3l-1.6-0.8l-5.6-2.8h0.1l-12.8-1.2l0.3-0.3
				c0.1,0.6,0.3,1.2,0.6,1.7c1,1.6,2.6,2.7,4.5,3c2.3,0.6,4.7,1,7,1.2h0.1l0,0c4.9,4.5,9.4,8.4,13.5,11.8c1,0.9,2,1.6,3,2.4
				c0.9,0.7,1.9,1.3,3,1.7c2,0.6,4,1.1,6.1,1.4c3.7,0.7,6.7,1.1,8.6,1.4l2.3,0.3l0.6,0.1L712.5,517.1z"/>
			<path class="st11" d="M683.5,488.8c-0.9-0.4-1.8-1-2.6-1.6c-1.5-1.1-3.7-2.6-6-4.3l-0.6-0.5l0.2,0.1c-2.7,0.1-5.1,0.2-6.9,0.2
				c-0.9,0.1-1.9,0-2.8-0.1c0.9-0.2,1.8-0.4,2.8-0.4c1.7-0.1,4.2-0.3,6.8-0.4h0.1l0.1,0.1l0.6,0.5c2.3,1.7,4.4,3.3,5.9,4.5
				C682,487.3,682.8,488,683.5,488.8z"/>
			<path class="st11" d="M681.9,482c-0.9-0.4-1.7-0.9-2.4-1.5c-1.5-1-3.4-2.4-5.6-4l0.2,0.1l-0.8,0.1c-2.9,0.3-5.5,0.5-7.4,0.6
				c-1,0.1-2.1,0.1-3.1,0c1-0.3,2-0.5,3-0.6c1.9-0.2,4.5-0.6,7.4-0.9l0.8-0.1h0.1l0.1,0.1c2.2,1.6,4.1,3.1,5.4,4.2
				C680.5,480.6,681.2,481.3,681.9,482z"/>
			<path class="st13" d="M814.5,504.5c4.7-7.2,6.7-15.9,5.5-24.5L809,414.9c-1.3-10.9-2.8-25.8-10.4-33.7
				c-5.2-5.5-11.5-10.2-17.7-10.2l-13.3,37.7l5,72.9l-67.5,12.1v29.6c0,0,51.6-1.7,80.3-2.5C797.1,520.5,808,514.4,814.5,504.5
				L814.5,504.5L814.5,504.5z"/>
			<path class="st8" d="M814.5,504.5l-0.3,0.5l-0.9,1.5c-1.3,1.8-2.8,3.4-4.3,4.9c-2.5,2.4-5.4,4.4-8.5,6c-4.2,2.1-8.7,3.3-13.4,3.7
				c-20.6,0.8-49.3,1.7-81.8,2.7h-0.4v-30.3h0.3l67.5-12l-0.2,0.3c-1.8-16.8-3.2-30.7-4.3-40.4c-0.5-4.8-0.9-8.6-1.1-11.2
				c-0.1-1.3-0.2-2.2-0.3-3c-0.1-0.7,0-1,0-1s0,0.3,0.2,1c0.2,0.6,0.2,1.7,0.4,3c0.3,2.6,0.7,6.4,1.3,11.2
				c1.1,9.7,2.7,23.5,4.5,40.4v0.3h-0.3l-67.5,12.1l0.3-0.4v29.6l-0.4-0.4l81.8-2.5c4.6-0.3,9.1-1.5,13.2-3.5c3.1-1.5,6-3.5,8.5-5.8
				c1.6-1.5,3.1-3.1,4.5-4.8c0.4-0.6,0.8-1,1-1.4C814.2,504.8,814.4,504.7,814.5,504.5z"/>
			<path class="st8" d="M788.4,373.5c0,0.1-2.3,1-5.6,3.2c-2,1.3-3.8,2.7-5.5,4.3c-2.1,2-3.9,4.1-5.6,6.4c-1.6,2.3-3,4.8-4.1,7.4
				c-0.9,2.1-1.6,4.4-2.1,6.6c-0.8,3.9-0.9,6.4-1,6.4c-0.1-0.6-0.1-1.2,0-1.7c0-0.7,0-1.4,0.2-2c0.1-0.9,0.2-1.8,0.4-2.7
				c0.4-2.3,1.1-4.6,2-6.8c1.1-2.7,2.5-5.3,4.1-7.7c1.7-2.4,3.6-4.6,5.7-6.5c1.8-1.6,3.7-3,5.7-4.2c0.8-0.5,1.6-0.9,2.4-1.3
				c0.6-0.3,1.2-0.6,1.9-0.8C787.3,373.8,787.8,373.6,788.4,373.5z"/>
			<path class="st8" d="M760.7,359.7c-0.5,0.5-1,0.9-1.6,1.1c-1.6,0.8-3.3,1.4-5,2c-4.2,1.6-9.8,4.5-16.2,7.2
				c-5.4,2.5-11.2,4-17.2,4.5c-1.8,0.1-3.6,0-5.4-0.3c-0.6-0.1-1.1-0.2-1.5-0.3s-0.5-0.1-0.5-0.2c2.4,0.3,4.9,0.3,7.3,0.2
				c5.9-0.6,11.6-2.2,16.9-4.7c6.3-2.8,12-5.5,16.4-7c2.2-0.8,3.9-1.3,5.1-1.8C760.1,360,760.7,359.6,760.7,359.7z"/>
			<polygon class="st3" points="598.1,472.3 591.4,419.7 545.7,422 548.8,474.7 			"/>
			<path class="st10" d="M604.4,433c-1.5,1.1-3.4,1.1-4.9,0.1c-1.5-0.9-2.7-2.3-4.2-3.2c-4.4-3-10.5-2.1-14.8-5.3
				c-0.6-0.4-1.2-1.2-0.9-1.8s1.1-0.7,1.8-0.7l17.5,0.1"/>
			<path class="st11" d="M599,422.1c-0.6-0.2-1.2-0.2-1.9-0.2c-1.2-0.1-3-0.1-5.2-0.2l-7.6-0.2h-2.2c-0.9-0.1-1.8,0.1-2.5,0.6
				c-0.4,0.4-0.5,1.1-0.3,1.6c0.2,0.4,0.5,0.8,0.9,1.1c0.7,0.5,1.4,1,2.2,1.3c3.2,1.4,6.4,1.6,9.1,2.4c1.3,0.3,2.5,0.9,3.6,1.6
				c1,0.7,1.9,1.5,2.8,2.2c1.3,1.2,3.1,1.9,4.9,1.6c1.3-0.3,1.7-1,1.7-1c-0.5,0.3-1.1,0.5-1.7,0.6c-1.7,0-3.3-0.6-4.5-1.8
				c-0.8-0.7-1.7-1.5-2.7-2.3c-1.2-0.8-2.5-1.4-3.8-1.8c-2.8-0.9-6-1.1-8.9-2.5c-0.7-0.3-1.4-0.7-2-1.2c-0.6-0.5-0.9-1.1-0.5-1.3
				c0.3-0.2,1.1-0.3,1.8-0.3h2.2h7.6c2.2,0,3.9-0.1,5.2-0.1C597.7,422.4,598.3,422.3,599,422.1z"/>
			<path class="st7" d="M585.5,437.4c-0.4,0.3-0.8,0.5-1.3,0.6c-1.2,0.5-2.5,1-3.7,1.3c-1.9,0.6-3.9,0.8-5.9,0.6
				c-1.2-0.1-2.3-0.4-3.4-0.9c-1.1-0.6-2.2-1.3-3.1-2.1c-0.4-0.3-1-0.5-1.5-0.6c-0.5,0-1,0.2-1.4,0.5c-0.8,0.8-1.4,1.7-1.9,2.7
				c-0.6,1-1.6,1.7-2.7,1.8c-1,0-2-0.3-2.7-1c-1-1-1.7-2.2-1.9-3.5c-0.2-0.5-0.2-1-0.2-1.5c0.2,0.4,0.4,0.9,0.5,1.3
				c0.3,1.2,1,2.3,2,3.2c0.7,0.5,1.5,0.8,2.3,0.8c1-0.1,1.8-0.8,2.2-1.6c0.5-1,1.2-2,2-2.8c0.5-0.5,1.2-0.8,1.9-0.7
				c0.7,0,1.4,0.3,1.9,0.7c0.9,0.8,1.9,1.5,3,2c1,0.5,2.1,0.7,3.2,0.9c1.9,0.2,3.8,0,5.7-0.5C583.5,438.1,585.4,437.3,585.5,437.4z"
				/>
			<path class="st7" d="M587.6,445.4c0,0.2-6.9,0.7-15.5,1.1c-5.2,0.4-10.3,0.5-15.5,0.3c0-0.2,6.9-0.7,15.5-1.1
				C577.3,445.3,582.5,445.2,587.6,445.4z"/>
			<path class="st7" d="M584.5,452.8c-1.1,0.4-2.3,0.7-3.5,0.9c-2.2,0.5-5.2,1-8.5,1.5c-3.3,0.5-6.4,0.9-8.6,1.1
				c-1.2,0.2-2.4,0.3-3.6,0.2c1.1-0.4,2.3-0.6,3.5-0.7l8.5-1.3l8.5-1.3C582.1,452.9,583.3,452.8,584.5,452.8z"/>
			<path class="st1" d="M765.8,438.1c-0.2,0.2-0.4,0.4-0.6,0.6l-1.9,1.5c-1.7,1.3-4.1,3.2-7.3,5.2c-3.7,2.5-7.8,4.4-12.1,5.6
				c-5.3,1.6-11.1,1.4-16.3-0.5c-5.5-2.2-9.7-6-13.8-8.8c-3.5-2.7-7.5-4.7-11.8-5.7c-2.9-0.7-5.9-0.6-8.7,0.4c-1,0.4-2,0.9-2.9,1.5
				c0.8-0.8,1.8-1.4,2.8-1.8c2.8-1.1,6-1.4,8.9-0.7c4.4,1,8.5,2.9,12.1,5.7c4.1,2.9,8.3,6.5,13.7,8.7c5.1,1.9,10.6,2.1,15.8,0.6
				c4.3-1.2,8.3-3,12-5.4c3.2-2,5.7-3.8,7.4-5l2-1.4C765.3,438.3,765.5,438.2,765.8,438.1z"/>
			<path class="st1" d="M808.2,408.6c0,0.1-2.3-0.5-6-1.1c-2.2-0.3-4.4-0.5-6.6-0.5c-2.7,0-5.4,0.1-8,0.5c-2.7,0.4-5.3,1-7.9,1.8
				c-2.1,0.6-4.2,1.4-6.2,2.4c-3.4,1.6-5.4,2.9-5.5,2.7c0.4-0.4,0.8-0.7,1.3-1c1.2-0.8,2.5-1.6,3.9-2.3c2-1,4.1-1.9,6.2-2.5
				c5.2-1.7,10.7-2.5,16.2-2.3c2.2,0.1,4.5,0.3,6.7,0.7c1.5,0.2,3,0.6,4.5,1.1C807.3,408.2,807.8,408.4,808.2,408.6z"/>
			<path class="st1" d="M816.5,462.7c-2.3-0.3-4.7,0-6.9,0.7c-2.4,0.9-4.7,2-6.9,3.3c-2.7,1.6-5.7,2.9-8.7,3.7
				c-5.7,1.2-11.7,0.4-16.8-2.3c-1.5-0.8-3-1.8-4.3-3c-0.5-0.4-0.9-0.9-1.3-1.4c1.8,1.5,3.8,2.8,5.8,3.9c5.1,2.5,10.8,3.2,16.4,2
				c3-0.8,5.9-2,8.6-3.5c2.2-1.3,4.6-2.4,7-3.1c1.7-0.5,3.4-0.7,5.2-0.6C815.3,462.3,816,462.4,816.5,462.7z"/>
			<path class="st1" d="M755.7,521.9c-0.1,0,0.8-2,1.7-5.2c2.3-8.6,0.8-17.9-4.2-25.3c-1.9-2.8-3.4-4.3-3.3-4.5
				c0.4,0.3,0.8,0.6,1.1,1c1,1,1.8,2,2.7,3.1c5.4,7.5,7,17,4.3,25.8c-0.4,1.3-0.9,2.6-1.5,3.8C756.2,521.1,756,521.5,755.7,521.9z"
				/>
			<path class="st1" d="M698.5,401.5c-0.2,0.1-0.9-1.2-2.3-2s-2.9-0.8-3-1s1.6-0.7,3.3,0.3S698.8,401.5,698.5,401.5z"/>
			<path class="st1" d="M777.8,369.6c0,0.1-1.1-0.1-3.1,0c-2.8,0.4-5.5,1.4-7.8,3c-1.6,1-3.2,2.2-4.6,3.6c-1.5,1.5-3.1,3.1-4.7,4.9
				c-3.2,3.5-6.8,7.6-11.9,10.1c-4.8,2.2-10,3.1-15.3,2.7c-4.2-0.3-8.4-1.1-12.5-2.5c-3.5-1.1-6.2-2.2-8-2.9l-2.1-0.9
				c-0.3-0.1-0.5-0.2-0.7-0.4c0.3,0,0.5,0.1,0.8,0.2l2.2,0.8c1.9,0.6,4.7,1.6,8.1,2.6c4,1.2,8.2,2,12.3,2.3
				c5.1,0.4,10.2-0.6,14.9-2.7c4.9-2.4,8.4-6.4,11.7-9.9c1.6-1.7,3.2-3.4,4.8-4.9c1.5-1.3,3.1-2.5,4.8-3.6c2.4-1.6,5.2-2.5,8.1-2.8
				c0.8-0.1,1.6,0,2.3,0.1C777.2,369.5,777.5,369.5,777.8,369.6z"/>
			<path class="st1" d="M758,356c-0.5,0.3-1.1,0.6-1.6,0.8c-1,0.5-2.6,1.1-4.5,1.8c-5.1,1.9-10.2,3.4-15.5,4.5
				c-5.3,1.1-10.6,1.8-16,2.2c-2.1,0.1-3.7,0.2-4.9,0.2c-0.6,0-1.2,0-1.8-0.1c0.6-0.1,1.2-0.2,1.8-0.2c1.2-0.1,2.8-0.2,4.8-0.4
				c5.3-0.5,10.6-1.3,15.9-2.4c5.2-1.1,10.4-2.5,15.5-4.2c2-0.6,3.5-1.2,4.6-1.6C756.8,356.3,757.4,356.1,758,356z"/>
			<path class="st1" d="M637.5,483.7c0,0-0.1-0.1-0.2-0.4c-0.1-0.4-0.2-0.8-0.3-1.2c-0.2-1.5-0.2-3.1,0.2-4.6
				c0.5-2.2,1.3-4.4,2.4-6.4c1.2-2.3,2.7-4.7,4.2-7.2c1.4-2.3,2.5-4.9,3.2-7.5c0.5-2.2,0.6-4.4,0.1-6.6c-0.5-2-1.2-4-2.2-5.8
				c0.4,0.4,0.8,0.9,1,1.4c0.8,1.3,1.4,2.8,1.7,4.3c0.5,2.3,0.5,4.6,0,6.9c-0.7,2.7-1.8,5.4-3.3,7.8c-1.5,2.6-3,4.9-4.2,7.2
				c-1.1,2-1.9,4.1-2.5,6.2C637.3,479.6,637.2,481.6,637.5,483.7z"/>
			<path class="st1" d="M805.4,540.6c-0.3-0.1-0.7-0.3-1-0.5c-0.6-0.4-1.6-0.9-3-1.5c-3.7-1.5-7.6-2.4-11.7-2.6
				c-5.9-0.2-11.9,0.6-17.6,2.2c-6.5,1.8-13.4,4.6-20.7,7.1c-6.9,2.6-14.1,4.1-21.5,4.5c-6,0.1-12-0.9-17.7-2.9
				c-3.8-1.3-7.5-3.2-10.8-5.4c-1.2-0.8-2.1-1.5-2.7-1.9c-0.3-0.2-0.6-0.5-0.9-0.7c0-0.1,1.3,0.9,3.7,2.4c3.4,2.1,7,3.8,10.8,5.1
				c5.6,1.9,11.5,2.8,17.5,2.7c7.3-0.4,14.4-1.9,21.2-4.5c7.3-2.5,14.2-5.3,20.8-7.1c5.8-1.6,11.8-2.4,17.8-2.1
				c4.1,0.2,8,1.2,11.7,2.8c1,0.5,2,1,2.9,1.6C804.8,540.1,805.1,540.3,805.4,540.6z"/>
			<path class="st1" d="M815.9,595.3c-1.2,1.2-2.6,2.2-4.1,3c-4,2.2-8.5,3.7-13,4.1c-3.2,0.4-6.3,0.4-9.5,0.1c-3.6-0.3-7.2-1-10.7-2
				c-7.4-1.9-15.2-5.2-23.5-8c-8.3-2.9-16.5-4.9-24.1-4.9c-3.6,0-7.2,0.5-10.6,1.5c-3.3,0.9-6.3,1.9-9.1,2.6
				c-4.5,1.3-9.3,0.9-13.5-1.2c-1.1-0.6-2.1-1.4-2.9-2.4c-0.3-0.3-0.5-0.7-0.7-1.1c0.3,0.3,0.6,0.6,0.8,1c0.8,0.9,1.9,1.7,3,2.2
				c4.1,1.9,8.8,2.2,13.2,0.9c2.8-0.7,5.8-1.7,9.1-2.7c3.5-1,7.1-1.5,10.8-1.5c7.7-0.1,16.1,2,24.4,4.9c8.3,2.9,16.1,6.1,23.5,8.1
				c3.5,1,7,1.6,10.6,2c3.1,0.3,6.3,0.3,9.4,0c4.5-0.4,8.9-1.7,12.9-3.8c0.6-0.3,1.2-0.7,1.8-1.1c0.5-0.3,1-0.6,1.3-0.9
				C815.2,595.8,815.5,595.6,815.9,595.3z"/>
			<path class="st1" d="M822.7,639.1c-0.1,0-0.2-0.1-0.3-0.2l-0.9-0.5c-1.1-0.7-2.3-1.3-3.5-1.9c-4.5-2-9.3-3.3-14.2-3.7
				c-7.3-0.6-14.6-0.1-21.7,1.5c-8.1,1.6-16.7,4.3-26,6.6c-4.5,1.1-9.1,2-13.7,2.5c-11.6,1.3-23.4,0.3-34.7-2.8
				c-4.8-1.3-9.4-3-13.9-5.1c-1.6-0.7-2.8-1.4-3.6-1.8c-0.4-0.2-0.7-0.4-0.9-0.5s-0.3-0.2-0.3-0.2c0.1,0,0.2,0.1,0.3,0.1l1,0.4
				c0.8,0.4,2,1,3.6,1.7c4.5,2,9.2,3.6,13.9,4.8c7,1.9,14.3,2.9,21.6,3.1c4.3,0.1,8.6-0.1,12.9-0.5c4.6-0.5,9.1-1.4,13.6-2.5
				c9.2-2.2,17.8-4.9,26-6.5c7.2-1.5,14.6-2,21.9-1.3c4.9,0.5,9.8,1.8,14.2,4C819.7,637.1,821.2,638,822.7,639.1z"/>
			<path class="st1" d="M744.9,486c-0.1,0.1-2.6-1.3-7-2.8c-2.5-0.9-5.2-1.5-7.8-2c-6.5-1.2-13.2-1.2-19.7,0c-2.7,0.5-5.3,1.1-7.8,2
				c-4.4,1.5-6.9,2.9-7,2.7c0.5-0.4,1.1-0.7,1.7-1c0.7-0.4,1.4-0.7,2.1-1c0.8-0.4,1.8-0.8,2.9-1.2c2.6-0.9,5.2-1.7,7.9-2.2
				c6.6-1.2,13.4-1.2,19.9,0.1c2.7,0.5,5.3,1.3,7.8,2.2c1.1,0.4,2,0.8,3,1.2c0.7,0.3,1.4,0.6,2.1,1
				C743.8,485.3,744.3,485.6,744.9,486z"/>
			<path class="st1" d="M823.1,685.4c0,0-0.1,0-0.3-0.1l-0.9-0.5c-0.4-0.2-0.9-0.5-1.5-0.8s-1.3-0.6-2-1c-4.4-1.9-9.1-3.1-13.8-3.7
				c-7.1-0.8-14.2-0.6-21.2,0.4c-8,1-16.6,2.8-25.9,3.9c-15.8,1.8-31.8,1.2-47.4-1.9c-4.7-0.9-9.4-2.1-14-3.5
				c-1.6-0.5-2.9-0.9-3.7-1.2l-1-0.3c-0.1,0-0.2-0.1-0.3-0.1c0.1,0,0.2,0,0.4,0l1,0.3c0.9,0.2,2.1,0.7,3.8,1.1c3.3,0.9,8,2.1,14,3.3
				c15.6,2.9,31.5,3.5,47.2,1.7c9.2-1.1,17.8-2.9,25.9-3.8c7.1-1,14.3-1.1,21.4-0.3c4.8,0.6,9.5,1.9,13.9,3.9c0.7,0.3,1.4,0.7,2,1
				c0.5,0.2,1,0.5,1.5,0.8l0.8,0.5L823.1,685.4z"/>
		</g>
		<g id="freepik--character-1--inject-8">
			<path class="st14" d="M232.5,696.1l3-135.9l-105.6-8.8c0,0-5.6,54.4-5.5,61.7c0,3.5,15.9,37.3,15.9,37.3l-0.2,45.7L232.5,696.1z"
				/>
			<path class="st9" d="M196.6,576.3c-0.2,0.7-0.5,1.3-0.9,2c-0.6,1.2-1.6,3-2.8,5.2c-3.2,5.6-7.4,10.7-12.3,15
				c-5,4.3-11,7.1-17.5,8c-2,0.3-4,0.3-5.9,0.1c-0.5-0.1-1.1-0.1-1.6-0.2c-0.2,0-0.4-0.1-0.6-0.1c2.6,0.2,5.3,0.1,7.9-0.2
				c6.3-1.1,12.2-3.9,17.1-8.1c4.8-4.2,9-9.2,12.3-14.7c1.3-2.1,2.3-3.8,3-5C195.7,577.5,196.1,576.9,196.6,576.3z"/>
			<path class="st15" d="M157.3,351.8l47.6,12.4l1.6-41.5c0,0,20.1-2.3,21.2-22.3s-0.4-66-0.4-66l0,0c-22.7-10.9-49.6-8.7-70.2,5.8
				l-3,2.2L157.3,351.8z"/>
			<path class="st16" d="M206.6,322.4c-9.2-0.2-18.2-3.2-25.7-8.5c0,0,5.6,14.6,25.6,13.7L206.6,322.4z"/>
			<path class="st15" d="M155.7,263.2c-0.3-0.2-13.6-4.6-13.7,9.1s13.6,11,13.6,10.6S155.7,263.2,155.7,263.2z"/>
			<path class="st16" d="M151.6,277.6c0,0-0.2,0.2-0.6,0.3c-0.6,0.2-1.2,0.2-1.8,0c-1.5-0.5-2.6-2.8-2.7-5.3c0-1.2,0.2-2.3,0.7-3.4
				c0.3-0.9,0.9-1.5,1.8-1.8c0.6-0.1,1.1,0.1,1.4,0.7c0.2,0.4,0.1,0.6,0.2,0.7s0.3-0.2,0.2-0.8c-0.1-0.3-0.2-0.6-0.5-0.9
				c-0.4-0.3-0.9-0.4-1.3-0.4c-1.1,0.2-2.1,1-2.5,2.1c-0.6,1.2-0.9,2.5-0.9,3.8c0,2.8,1.5,5.4,3.4,6c0.7,0.2,1.5,0.1,2.2-0.3
				C151.5,277.9,151.6,277.6,151.6,277.6z"/>
			<path class="st8" d="M221.7,265.2c-0.1,1.5-1.3,2.8-2.9,2.8c-1.5,0.1-2.8-1.1-2.8-2.7c0,0,0,0,0,0c0.1-1.6,1.3-2.8,2.9-2.8
				C220.4,262.4,221.6,263.6,221.7,265.2C221.7,265.1,221.7,265.2,221.7,265.2z"/>
			<path class="st8" d="M222.4,262.4c-0.4,0.4-2.4-1.3-5.5-1.5c-3.1-0.2-5.4,1.3-5.7,0.9c-0.3-0.4,0.2-0.8,1.2-1.5
				c1.4-0.9,3-1.3,4.6-1.2c1.6,0.1,3.2,0.6,4.5,1.6C222.3,261.5,222.6,262.2,222.4,262.4z"/>
			<path class="st8" d="M191.6,265c-0.1,1.5-1.3,2.8-2.9,2.8c-1.5,0.1-2.8-1.1-2.8-2.6c0,0,0-0.1,0-0.1c0.1-1.5,1.3-2.8,2.9-2.8
				C190.2,262.2,191.5,263.4,191.6,265C191.6,265,191.6,265,191.6,265z"/>
			<path class="st8" d="M192.2,261.6c-0.4,0.4-2.5-1.3-5.6-1.5c-3.1-0.1-5.4,1.3-5.7,0.9c-0.3-0.4,0.2-0.8,1.2-1.5
				c1.4-0.9,3-1.3,4.6-1.2c1.6,0.1,3.1,0.6,4.4,1.6C192.1,260.8,192.4,261.5,192.2,261.6z"/>
			<path class="st8" d="M202.4,284.9c1.6-0.4,3.3-0.7,5-0.7c0.8,0,1.5-0.2,1.7-0.7c0.1-0.8-0.1-1.6-0.4-2.4c-0.6-1.9-1.3-4-2.1-6.1
				c-2.9-8.6-4.9-15.7-4.5-15.8s3,6.8,5.8,15.4l2,6.1c0.5,1,0.6,2.1,0.3,3.1c-0.2,0.5-0.8,0.9-1.3,1.1c-0.4,0.1-0.9,0.1-1.3,0.1
				C205.8,285.3,204.1,285.2,202.4,284.9z"/>
			<path class="st8" d="M193.5,249.6c-0.3,0.8-3.4,0.3-7,0.6c-3.6,0.3-6.6,1.1-7,0.4c-0.2-0.4,0.3-1.1,1.5-1.9
				c1.6-0.9,3.4-1.5,5.3-1.6c1.9-0.1,3.7,0.1,5.4,0.9C193,248.6,193.6,249.2,193.5,249.6z"/>
			<path class="st8" d="M221.7,253.5c-0.6,0.7-2.7-0.1-5.2-0.3c-2.5-0.1-4.7,0.3-5.2-0.5c-0.2-0.4,0.2-1,1.1-1.7
				c1.3-0.8,2.8-1.1,4.3-1c1.5,0.1,2.9,0.6,4.1,1.6C221.7,252.4,221.9,253.1,221.7,253.5z"/>
			<path class="st8" d="M237.7,222.2c0.4-2.5-0.5-5-2.4-6.7c-2-1.6-4.9-1.5-6.8,0.2c0.9-3.3-1.1-6.6-4.3-7.5
				c-0.2-0.1-0.4-0.1-0.6-0.1c-3.3-0.4-6.1,2-9.3,2.7c-3.2,0.5-6.4,0-9.3-1.5c-3-1.3-5.6-3.1-8.6-4.3c-12.9-5.4-27.8,0.7-33.3,13.6
				c-4.3-1.5-9.4,0.5-12.2,4.1c-2.7,3.8-3.9,8.4-3.4,13c0.3,3.1,0.9,6.1,1.9,9.1c0,0.2,0,0.5,0,0.8c-0.2,11,0.4,24,5.1,24.2
				c8.2,0.5,6.9-15,6.9-15c10.2-3.4,7.1-18.6,9.7-20.8c2.6-2.2,8.1-7.2,28.6,4.4c8,4.5,18.8,4.9,24.8,3.8l0.5-0.1h0.1h0.2
				c1.9-0.4,3.8-1.1,5.5-2.1c2-1,3.6-2.7,4.7-4.8c1-2.1,0.6-4.6-0.9-6.3C236.2,227,237.3,224.7,237.7,222.2z"/>
			<path class="st16" d="M204,294.4c-0.5,1.2-1.1,2.4-1.9,3.4c-0.8,1-2.1,1.7-3.4,1.8c-1.4-0.1-2.7-0.8-3.4-2.1
				c-0.7-1.2-1-2.6-0.8-4.1c0.1-1.3,0.7-2.8,2-2.8c0.5,0,1,0.1,1.5,0.4l6.5,3"/>
			<path class="st8" d="M201.1,299.8c-1.2,0-2.4-0.2-3.5-0.6c-1.1-0.5-2-1.4-2.5-2.5c-0.6-1.4-0.6-3,0.1-4.3c0.2-0.4,0.4-0.7,0.6-1
				c0.3-0.3,0.2-0.2,0.5-0.2c0.4,0.1,0.7,0.3,1,0.5l1.1,0.5c1.4,0.6,2.6,1.2,3.7,1.6c1.1,0.6,2.3,1,3.5,1.2c-0.9-0.8-2-1.5-3.2-2
				c-1-0.5-2.2-1.2-3.6-1.9l-1.1-0.5c-0.4-0.2-0.7-0.4-1.2-0.6c-0.3-0.1-0.7-0.1-1,0c-0.3,0.1-0.6,0.3-0.8,0.5
				c-0.3,0.4-0.6,0.8-0.8,1.2c-0.8,1.7-0.8,3.6,0,5.3c0.7,1.3,1.8,2.4,3.2,2.9c0.9,0.3,1.9,0.4,2.9,0.2
				C200.8,300,201.1,299.8,201.1,299.8z"/>
			<path class="st9" d="M169.7,232c0-0.8,0-1.6,0.1-2.4c0.4-2.2,1.6-4.1,3.4-5.5c2.6-2,5.9-2.9,9.1-2.6c4,0.4,7.9,1.5,11.6,3.1
				c1.9,0.8,3.9,1.4,5.9,2c5.1,1.4,10.6,1.4,15.7,0.1c2.2-0.6,4.3-1.3,6.3-2.4c0.6-0.3,1.1-0.6,1.6-0.9c0.2-0.1,0.4-0.2,0.5-0.4
				c0,0-0.8,0.4-2.2,1c-2,0.9-4.1,1.6-6.3,2.2c-5.1,1.2-10.4,1.1-15.5-0.2c-1.9-0.5-3.9-1.2-5.9-2c-3.7-1.6-7.7-2.7-11.8-3.1
				c-3.4-0.3-6.8,0.7-9.4,2.8c-1.8,1.5-3,3.5-3.3,5.8C169.4,230.4,169.5,231.2,169.7,232z"/>
			<path class="st9" d="M152.7,265.1c0,0,0.1-0.1,0.3-0.4s0.4-0.7,0.7-1.2c0.8-1.6,1.4-3.2,1.8-4.9c0.6-2.5,0.9-5.1,0.9-7.7
				c-0.2-3.1-0.7-6.3-1.4-9.4c-0.7-3.1-0.5-6.2,0.4-9.2c0.4-1.3,1.1-2.4,2.1-3.4c0.8-0.8,1.9-1.4,3-1.8c1.6-0.5,3.4-0.4,4.9,0.3
				c0.5,0.3,1,0.7,1.5,1.1c-0.3-0.6-0.8-1-1.4-1.3c-1.6-0.9-3.4-1.1-5.2-0.6c-1.2,0.3-2.3,1-3.2,1.8c-1,1-1.8,2.2-2.2,3.6
				c-1,3.1-1.1,6.3-0.4,9.5c0.7,3.1,1.2,6.2,1.5,9.3c0.1,2.6-0.1,5.1-0.7,7.6c-0.4,1.7-0.9,3.3-1.6,4.9
				C153,264.5,152.7,265.1,152.7,265.1z"/>
			<path class="st9" d="M167.9,230.3c0-0.3,0-0.5,0-0.8v-2.3c0-2.8,0.4-5.6,1.3-8.3c0.6-1.8,1.6-3.5,2.9-4.9
				c1.4-1.7,3.4-2.8,5.5-3.3c2.4-0.4,4.9-0.2,7.1,0.6c2.5,0.9,4.8,2.1,7,3.6c2.2,1.5,4.5,2.8,6.9,3.9c2.3,1,4.7,1.6,7.2,1.8
				c2.3,0.1,4.5,0,6.7-0.5c1.9-0.4,3.8-1.1,5.5-2c2.5-1.3,4.8-3.1,6.7-5.2c0.5-0.6,1-1.2,1.4-1.8c0.2-0.2,0.3-0.4,0.4-0.7
				c-0.2,0.2-0.4,0.4-0.5,0.6c-0.5,0.6-0.9,1.2-1.5,1.8c-1.9,2.1-4.2,3.8-6.7,5c-1.7,0.8-3.6,1.5-5.4,1.9c-2.2,0.5-4.4,0.6-6.6,0.5
				c-2.4-0.2-4.8-0.8-7.1-1.8c-2.4-1.2-4.7-2.5-6.9-3.9c-2.2-1.5-4.6-2.7-7.1-3.6c-2.4-0.9-4.9-1.1-7.4-0.6
				c-2.2,0.5-4.3,1.8-5.8,3.5c-1.3,1.5-2.3,3.2-3,5.1c-0.8,2.7-1.2,5.6-1.1,8.4c0,1,0,1.8,0.1,2.3
				C167.7,229.8,167.8,230,167.9,230.3z"/>
			<path class="st15" d="M258,405.9l60.2-67.6l8.5-11.9c0,0,20.8-25.8,22.5-28.5c2-3.1,3.9-3,5-2.2c1.7,1.2,1.6,4.3,0,7
				c-0.5,1-9.8,15.6-9.8,15.6c1.7-0.9,3.5-1.6,5.3-2.2c3.9-1.5,10,0.2,15.2,3.6s6.3,4.9,5.1,6.9c-0.5,0.8-1.3,1.3-2.3,1.4
				c-1.7,0.1-3.5-0.3-5-1.2c-10.2-6.1-12.6-2-12.6-2l-1.4,1.5c0,0,7.6-0.5,10.8,3.6c0.5,0.6,0.8,1.3,1,2c3.6,2.3,4.8,7,2.5,10.7
				c-0.7,1.1-1.7,2.1-2.9,2.7c-1.1,0.8-2.6,0.8-3.7,0c-0.5-0.5-0.8-1.1-0.9-1.8c-0.1-0.4-0.2-0.7-0.4-1l-3.8,3.9
				c0,0-8.9,8.4-12.3,12.5l-53.1,66.4c-6.9,10-17.4,18.3-27.2,11.2l0,0C247.9,428.9,248.8,415.5,258,405.9z"/>
			<path class="st15" d="M321.2,338.9c1.5,1.3,3.6,1.4,5.3,0.4c1.7-0.9,3-2.2,4.6-3.2c4.8-3,11.4-1.6,16.1-4.8
				c0.6-0.4,1.3-1.2,1-1.9s-1.1-0.8-1.9-0.9l-18.7-0.9"/>
			<path class="st16" d="M327.7,327.6c0.7-0.1,1.4-0.2,2-0.1c1.3,0,3.2,0,5.5,0.1l8.2,0.3l2.4,0.1c1-0.1,1.9,0.2,2.7,0.8
				c0.4,0.5,0.5,1.2,0.2,1.8c-0.2,0.5-0.6,0.8-1,1.1c-0.8,0.5-1.6,1-2.4,1.3c-3.5,1.3-6.9,1.3-9.9,2c-1.4,0.3-2.7,0.8-3.9,1.5
				c-1.1,0.6-2.1,1.5-3.1,2.2c-1.5,1.3-3.5,1.8-5.4,1.5c-1.4-0.4-1.8-1.1-1.7-1.1c0.6,0.4,1.2,0.6,1.8,0.7c1.8,0.1,3.5-0.5,4.9-1.7
				c1-0.8,2-1.6,3.1-2.3c1.3-0.8,2.7-1.3,4.2-1.6c3-0.8,6.5-0.9,9.7-2.1c0.8-0.3,1.5-0.7,2.2-1.1c0.6-0.4,1-1.1,0.7-1.4
				s-1.2-0.4-2-0.4l-2.4-0.1l-8.2-0.5c-2.3-0.2-4.2-0.3-5.5-0.5C329,327.9,328.3,327.8,327.7,327.6z"/>
			<path class="st16" d="M348.8,326.4c0.7-1,1.6-1.7,2.7-2.2c1.2-0.5,2.5-0.6,3.7-0.3c1.5,0.4,3,1,4.3,1.9c1.4,0.9,2.9,1.6,4.5,2.2
				c1.3,0.5,2.7,0.6,4,0.4c1-0.2,1.8-0.8,2.2-1.7c0.2-0.3,0.2-0.6,0.2-1c0,0-0.1,0.3-0.5,0.9c-0.5,0.7-1.2,1.2-2,1.3
				c-1.3,0.1-2.6,0-3.8-0.5c-1.5-0.6-2.9-1.4-4.2-2.2c-1.4-0.9-3-1.5-4.6-1.9c-1.4-0.3-2.8-0.1-4,0.5c-0.8,0.4-1.6,1-2.1,1.8
				C349,325.7,348.9,326,348.8,326.4z"/>
			<path class="st16" d="M354.9,301.7c-0.7,0.9-1.3,1.9-1.9,3c-1.2,2-2.7,4.5-4.3,7.1s-3.1,5-4.5,7c-0.7,0.9-1.2,1.9-1.8,3
				c0.8-0.8,1.5-1.7,2.2-2.7c1.2-1.7,2.9-4.2,4.6-7s3.1-5.3,4.1-7.2C354,303.9,354.5,302.8,354.9,301.7z"/>
			<path class="st16" d="M350,331.8c0,0,0.4,0.1,1.1,0.2c0.9,0.1,1.8,0.5,2.3,1.3c0.3,0.5,0.3,1.2,0,1.7c-0.4,0.7-0.8,1.3-1.3,1.8
				c-0.6,0.7-1,1.6-1.1,2.5c0.1,1,0.6,2,1.5,2.6c0.9,0.5,2,0.7,3,0.4c0.9-0.2,1.7-0.7,2.4-1.4c0.9-1.1,1.7-2.4,2.3-3.8
				c0.4-0.9,0.7-1.9,0.8-2.9c0-0.4,0-0.8-0.1-1.1c-0.1,0,0,0.4-0.1,1.1c-0.2,1-0.5,1.9-0.9,2.7c-0.6,1.3-1.4,2.5-2.3,3.6
				c-1.1,1.2-3,1.6-4.5,0.8c-0.7-0.4-1.2-1.2-1.2-2c0-0.8,0.4-1.5,0.9-2.1c0.5-0.6,1-1.3,1.3-2c0.4-0.7,0.3-1.5-0.1-2.2
				c-0.6-0.8-1.7-1.3-2.7-1.3C350.8,331.6,350.4,331.7,350,331.8z"/>
			<path class="st16" d="M355.5,341.7c0,0-0.3,0.2-0.5,0.9c-0.2,0.9,0.1,1.9,0.8,2.6c1,1,2.5,1.4,3.8,1c1.6-0.5,3-1.5,3.9-3
				c0.9-1.4,1.3-3.1,1.2-4.7c-0.1-1.3-0.6-2.6-1.3-3.7c-0.5-0.7-1.1-1.4-1.9-1.9c-0.3-0.2-0.6-0.4-0.9-0.4c0.9,0.8,1.7,1.6,2.4,2.6
				c1.5,2.4,1.5,5.4,0,7.8c-0.8,1.3-2,2.3-3.4,2.8c-1.2,0.3-2.4,0.1-3.4-0.7c-0.6-0.6-0.9-1.4-0.9-2.2
				C355.4,342,355.6,341.7,355.5,341.7z"/>
			<path class="st16" d="M339.3,345.3c-0.4-0.4-0.9-0.7-1.5-0.9c-1.4-0.5-2.9-0.5-4.2,0l0.4,0.5c0.3-0.7,0.6-1.4,0.9-2.2
				c1-2.6,1.3-5.3,0.8-8c-0.2,2.6-0.7,5.3-1.5,7.8c-0.2,0.8-0.5,1.5-0.8,2.1l-0.3,0.7l0.7-0.3c1.2-0.4,2.6-0.5,3.9-0.2
				C338.6,345.1,339.2,345.3,339.3,345.3z"/>
			<path class="st16" d="M355.1,320.3c-0.2,0-0.3,1.4,0.7,2.8s2.3,1.8,2.4,1.6c0.1-0.2-1-0.8-1.8-2
				C355.5,321.5,355.3,320.3,355.1,320.3z"/>
			<path class="st17" d="M198,344.9l55.8,55.2l40.9-42.1l7.8-3.4l10.3-10.4l23.8,26.9l-50.5,66c-6.5,8.5-15.7,14.6-26.1,17.2l0,0
				c-15.9,3.9-32.7-0.7-44.4-12.1l-43-42.1"/>
			<path class="st8" d="M259.3,432.2c-0.1-1.6-0.2-3.2-0.1-4.8c0-3.9-0.3-7.7-0.9-11.5c-0.6-3.8-1.6-7.5-2.8-11.2
				c-0.9-2.8-1.6-4.5-1.5-4.6c0.3,0.3,0.5,0.7,0.6,1.1c0.4,0.7,0.9,1.9,1.4,3.2c1.4,3.6,2.4,7.4,3.1,11.2c0.6,3.9,0.8,7.8,0.7,11.6
				c0,1.5-0.1,2.7-0.2,3.5C259.5,431.4,259.4,431.8,259.3,432.2z"/>
			<g class="st4">
				<path d="M215,363c8.8,8.4,11,19.3,16,30.5c5.8,13.1,16.2,26,20.3,39.8c1.4,4.1,1.4,8.5,0.1,12.7c-1.5,4-5.7,8.9-10,9.2l-8.9-2.4
					L215,363z"/>
			</g>
			<path class="st8" d="M325.3,385.7c-0.2,0.1-5.3-6.1-11.5-14c-6.2-7.9-11.1-14.4-10.9-14.5s5.3,6.1,11.5,14
				C320.6,379.1,325.5,385.6,325.3,385.7z"/>
			<polygon class="st9" points="302.5,496.6 286.2,546.2 329.2,526.7 343.2,481.3 			"/>
			<path class="st17" d="M156.2,316.1l-6.3,15.2c0,0-8.1,17.4-17.3,29.2c-9.9,12.9-12.3,54.6-12.3,54.6l9.4,127.8l-3.2,6.2
				c-1.5,2.9-0.7,13.3,2.5,13.4l106,4.9c2.6,0.1,4.2-8.9,4.1-11.4l-8.5-154.4l-17.2-42.2l-5.5-8.3l-0.1-10.4l-36.9-11.4
				C164.3,327.4,158.9,322.5,156.2,316.1L156.2,316.1z"/>
			<g class="st4">
				<path d="M131.8,512.9c16.1,10.2,32.3,20.6,50.2,27.3s38.1,9.2,56.5,4.1L238,531l-101.3-28.1L131.8,512.9z"/>
			</g>
			<path class="st17" d="M160.8,364c0,0-29-2.5-34.9,33.8c-5.9,36.2,3.7,114.7,6.5,115.4c0,0,51.9,22.1,105.8,27.4l37.9-7l-4.5-36
				l-27.9,1.5c0,0-1.2-7-11.7-9.9c-15.1-4.2-45.6-11.2-45.6-11.2s1.4-36.1,1.6-46.7s4-56.5-20.2-65.2"/>
			<path class="st8" d="M213.4,359.5c0.2,0.4,0.4,0.7,0.5,1.1l1.4,3.1l4.9,11.6c2.1,5,4.5,10.8,7.2,17.3c0.7,1.6,1.4,3.3,2.1,5
				c0.8,1.7,1.4,3.6,1.8,5.4c0.4,1.9,0.6,3.9,0.6,5.9c0.1,2,0.2,4,0.3,6c0.9,16.3,1.8,31,2.2,41.6c0.2,5.3,0.3,9.7,0.4,12.7
				c0,1.5,0,2.6,0,3.4c0,0.4,0,0.8,0,1.2c-0.1-0.4-0.1-0.8-0.1-1.2c0-0.9-0.1-2-0.2-3.4c-0.1-3.1-0.4-7.4-0.6-12.6
				c-0.6-10.7-1.5-25.4-2.4-41.6c-0.1-2-0.2-4-0.3-6c0-1.9-0.2-3.9-0.6-5.8c-0.4-1.8-1-3.6-1.7-5.3l-2.1-5
				c-2.7-6.5-5.1-12.4-7.1-17.4s-3.6-8.9-4.7-11.7l-1.2-3.2C213.7,360.3,213.5,359.9,213.4,359.5z"/>
			<path class="st8" d="M207.5,340.8c-0.1,0.5-0.2,1-0.3,1.5c-0.2,1-0.6,2.4-1.3,4.2c-1.7,5-3.9,9.7-6.6,14.2l-0.2,0.3l-0.3-0.2
				c-4.8-3.8-10.2-6.8-15.9-8.9c-5.1-2.1-10.1-3.9-14.4-6c-3.9-1.8-7.6-4-11-6.6c-2.3-1.8-4.3-3.9-5.9-6.2c-0.5-0.6-0.9-1.3-1.3-2
				c-0.1-0.2-0.3-0.5-0.4-0.7c0.1,0,0.6,1,1.9,2.5c1.8,2.2,3.8,4.2,6.1,6c3.4,2.5,7.1,4.6,10.9,6.4c4.3,2,9.3,3.8,14.4,6
				c5.8,2.2,11.2,5.2,16.1,9.1l-0.5,0.1c2.7-4.5,5-9.1,6.8-14c0.6-1.8,1.1-3.2,1.5-4.2C207.2,341.8,207.4,341.3,207.5,340.8z"/>
			<path class="st8" d="M167.7,366.1c0,0,0.7,0.2,2,0.8c0.6,0.3,1.5,0.7,2.3,1.2c1.1,0.6,2.1,1.4,3,2.2c2.5,2.3,4.7,5,6.3,8
				c2.1,4.1,3.7,8.5,4.7,13c2.4,10.1,3,22.9,2.4,37.5c-0.6,14.6-1.1,31.1-1.7,49.2l-0.2-0.3c9.2,2.1,19,4.5,29.2,7
				c5.1,1.3,10.3,2.6,15.6,4c5.6,1.4,10.3,5.2,12.8,10.3l-0.3-0.2l27.9-1.5h0.3v0.3c1.5,11.5,3,23.6,4.5,36v0.4h-0.4l-35.2,6.5
				l-2.6,0.5H238c-9.7-1-19.2-2.4-28.6-4.2c-9.3-1.8-18.4-4-27.3-6.4c-17-4.6-33.7-10.2-50-16.8l0,0c-0.1,0-0.2-0.1-0.3-0.2
				c-0.1,0-0.1-0.1-0.1-0.2c-0.1-0.1-0.1-0.2-0.2-0.3c-0.1-0.2-0.2-0.4-0.2-0.6c-0.1-0.4-0.2-0.8-0.4-1.1c-0.2-0.8-0.4-1.5-0.5-2.3
				c-0.3-1.5-0.6-3-0.9-4.5c-0.5-3-0.9-6-1.4-8.9c-0.8-6-1.5-11.8-2-17.5c-1.1-11.4-1.9-22.3-2.3-32.6c-0.4-10.3-0.5-20-0.1-28.9
				c0.2-8.3,1.2-16.5,3.1-24.5c1.7-6.6,4.9-12.6,9.5-17.6c3.4-3.7,7.6-6.5,12.4-8.2c2.9-1.1,6-1.7,9.1-1.9c0.8,0,1.6,0,2.4,0
				c0.3,0,0.5,0,0.8,0h-0.8c-0.5,0-1.3,0-2.4,0.1c-3.1,0.2-6.1,0.9-8.9,2c-4.7,1.7-8.8,4.5-12.2,8.2c-4.5,5-7.6,11-9.2,17.5
				c-1.8,8-2.8,16.2-3,24.4c-0.3,8.9-0.2,18.6,0.2,28.9c0.4,10.3,1.2,21.2,2.3,32.6c0.6,5.7,1.2,11.5,2,17.5c0.4,3,0.8,6,1.4,8.9
				c0.2,1.5,0.5,3,0.9,4.5c0.2,0.8,0.3,1.5,0.5,2.2c0.1,0.4,0.2,0.7,0.3,1.1c0.1,0.4,0.1,0.4,0.2,0.5c0,0.1,0.1,0.1,0.1,0.2l0,0l0,0
				c0,0.1,0,0.1,0,0.2l0.1-0.2c16.3,6.6,33,12.3,50,16.9c8.8,2.4,17.9,4.5,27.2,6.4s18.9,3.2,28.5,4.2H238l2.6-0.5l35.2-6.5
				l-0.3,0.4c-1.5-12.4-3.1-24.5-4.5-36l0.4,0.3l-27.9,1.5h-0.2l-0.1-0.2c-2.5-5-7-8.6-12.4-9.9c-5.3-1.5-10.4-2.8-15.6-4
				c-10.2-2.5-19.9-4.9-29.2-7H186V478c0.7-18.1,1.3-34.6,1.8-49.2c0.5-14.6,0.1-27.2-2.2-37.4c-1-4.5-2.5-8.9-4.7-13
				c-1.6-3-3.6-5.7-6.1-8c-0.9-0.8-1.9-1.5-2.9-2.2c-0.9-0.5-1.7-1-2.3-1.3C168.4,366.4,167.7,366.1,167.7,366.1z"/>
			<path class="st8" d="M241.6,536.7c-0.2,0,0.1-7.6,0.8-16.9s1.4-16.9,1.6-16.9s-0.1,7.6-0.8,16.9
				C242.5,529.1,241.9,536.7,241.6,536.7z"/>
			<path class="st8" d="M162.8,497.4c0,0,0-0.5,0.3-1.2c0.4-1,0.9-2,1.5-3c2-3.1,4.6-5.9,7.7-8c3-2.1,6.2-4,9.6-5.5
				c1.4-0.7,2.8-1.3,4.2-1.8c-1.3,0.9-2.6,1.6-4,2.2c-3.3,1.7-6.4,3.6-9.4,5.7c-3,2.1-5.6,4.7-7.7,7.7
				C163.6,495.8,162.9,497.4,162.8,497.4z"/>
			<path class="st8" d="M205.3,549.2c-0.2,0.1-0.5,0.2-0.7,0.2l-2.1,0.3c-1.8,0.3-4.5,0.6-7.8,0.9s-7.2,0.4-11.6,0.4
				c-4.4,0-9.1-0.3-14.1-0.9s-9.7-1.5-14-2.3c-4.3-0.9-8-2-11.2-3c-3.1-1-5.6-1.9-7.4-2.6l-1.9-0.8c-0.2-0.1-0.5-0.2-0.7-0.3
				c0.2,0,0.5,0.1,0.7,0.2l2,0.7c1.7,0.6,4.3,1.5,7.4,2.3s6.9,1.9,11.2,2.8c4.2,0.9,8.9,1.7,13.9,2.3c5,0.6,9.7,0.8,14.1,0.9
				c4.3,0.1,8.2,0,11.5-0.2c3.3-0.2,5.9-0.4,7.8-0.6l2.1-0.2C204.8,549.2,205,549.2,205.3,549.2z"/>
			<path class="st15" d="M335.5,491.3c-1.1-1.6-3-1.3-4.5-0.2l-5.3,3.5c-1.5,0.8-3,1.5-4.7,2l-2.2,0.4c-4.4,0.8-8.9-0.2-12.6-2.7
				l-0.9-0.6c0,0,14.4-3.3,16.6-5.1l0,0c1.2-1.1,1.3-3,0.2-4.2c-0.7-0.8-1.8-1.1-2.8-0.9l-18.1,2.8c-5.9,0.9-11.6,3.3-16.4,6.9
				c-4.6,3.4-12.3,8.4-12.8,8.4l3.1,27.5l5.2-1.3l9.4,0.8c6.4,0.5,12.7-0.7,18.4-3.6c3.5-1.8,6.8-3.6,7.1-4.2
				c0.9-2.2,1.6-4.5,2.2-6.9c0,0,3.6-2.2,3.7-3.7c0-1.4-0.1-2.9-0.3-4.3c0,0,9.1-5.4,11.5-7.3C336.5,495,336.5,492.7,335.5,491.3z"
				/>
			<path class="st16" d="M310,511c2.1-0.4,4-1.1,5.9-2.1c1.9-0.8,3.7-2,5.2-3.4c-0.1-0.1-2.4,1.4-5.5,2.9
				C312.6,509.9,310,510.8,310,511z"/>
			<path class="st16" d="M312,516.3c1.1,0,2.3-0.3,3.2-0.9c1.1-0.4,2-1.1,2.6-2.1c-1,0.4-2,0.9-3,1.5
				C313.9,515.2,312.9,515.7,312,516.3z"/>
			<path class="st16" d="M302.5,492c0.6,0.6,1.4,1.1,2.2,1.6c1.9,1.1,3.8,2.1,5.9,2.8c2.1,0.7,4.2,1,6.4,1.1c0.9,0,1.8,0,2.7-0.3
				c-3-0.1-6-0.5-8.9-1.4c-2-0.7-4-1.6-5.9-2.6C304.1,492.7,303.4,492.3,302.5,492z"/>
			<g class="st4">
				<path d="M154.1,336.1c4.1,6.8,10.2,12,16.8,16.5c6.6,4.3,13.6,8.1,20.8,11.4c3.3,1.6,6.8,3.2,10.4,2.9c1,0,2-0.4,2.8-1
					c0.9-1,1.4-2.4,1.5-3.8c1-7,1.3-14.2,1.1-21.3c-1.9,7-4.7,13.8-8.5,20c0,0-5.7-5-23.5-12.1C157.5,341.4,154.1,336.1,154.1,336.1
					z"/>
			</g>
			<path class="st9" d="M175.9,650.3c-0.2,0-0.5-10.8-0.6-24.1c-0.1-13.3,0-24.1,0.1-24.1s0.5,10.8,0.6,24.1
				C176.2,639.5,176.1,650.3,175.9,650.3z"/>
		</g>
	</g>
</g>
</svg>
